<?xml version="1.0" encoding="UTF-8"?>
<svg xmlns="http://www.w3.org/2000/svg" width="800" height="600">
  <title>Y=x*x</title>
  <rect width="800" height="600" fill="#ffffff"/>
  <g stroke="#d0d0d0" stroke-width="1">
    <line x1="80.00" y1="540.00" x2="80.00" y2="60.00"/>
    <line x1="112.00" y1="540.00" x2="112.00" y2="60.00"/>
    <line x1="144.00" y1="540.00" x2="144.00" y2="60.00"/>
    <line x1="176.00" y1="540.00" x2="176.00" y2="60.00"/>
    <line x1="208.00" y1="540.00" x2="208.00" y2="60.00"/>
    <line x1="240.00" y1="540.00" x2="240.00" y2="60.00"/>
    <line x1="272.00" y1="540.00" x2="272.00" y2="60.00"/>
    <line x1="304.00" y1="540.00" x2="304.00" y2="60.00"/>
    <line x1="336.00" y1="540.00" x2="336.00" y2="60.00"/>
    <line x1="368.00" y1="540.00" x2="368.00" y2="60.00"/>
    <line x1="400.00" y1="540.00" x2="400.00" y2="60.00"/>
    <line x1="432.00" y1="540.00" x2="432.00" y2="60.00"/>
    <line x1="464.00" y1="540.00" x2="464.00" y2="60.00"/>
    <line x1="496.00" y1="540.00" x2="496.00" y2="60.00"/>
    <line x1="528.00" y1="540.00" x2="528.00" y2="60.00"/>
    <line x1="560.00" y1="540.00" x2="560.00" y2="60.00"/>
    <line x1="592.00" y1="540.00" x2="592.00" y2="60.00"/>
    <line x1="624.00" y1="540.00" x2="624.00" y2="60.00"/>
    <line x1="656.00" y1="540.00" x2="656.00" y2="60.00"/>
    <line x1="688.00" y1="540.00" x2="688.00" y2="60.00"/>
    <line x1="720.00" y1="540.00" x2="720.00" y2="60.00"/>
    <line x1="80.00" y1="540.08" x2="720.00" y2="540.08"/>
    <line x1="80.00" y1="535.28" x2="720.00" y2="535.28"/>
    <line x1="80.00" y1="530.48" x2="720.00" y2="530.48"/>
    <line x1="80.00" y1="525.67" x2="720.00" y2="525.67"/>
    <line x1="80.00" y1="520.87" x2="720.00" y2="520.87"/>
    <line x1="80.00" y1="516.07" x2="720.00" y2="516.07"/>
    <line x1="80.00" y1="511.27" x2="720.00" y2="511.27"/>
    <line x1="80.00" y1="506.47" x2="720.00" y2="506.47"/>
    <line x1="80.00" y1="501.67" x2="720.00" y2="501.67"/>
    <line x1="80.00" y1="496.87" x2="720.00" y2="496.87"/>
    <line x1="80.00" y1="492.07" x2="720.00" y2="492.07"/>
    <line x1="80.00" y1="487.27" x2="720.00" y2="487.27"/>
    <line x1="80.00" y1="482.47" x2="720.00" y2="482.47"/>
    <line x1="80.00" y1="477.67" x2="720.00" y2="477.67"/>
    <line x1="80.00" y1="472.87" x2="720.00" y2="472.87"/>
    <line x1="80.00" y1="468.07" x2="720.00" y2="468.07"/>
    <line x1="80.00" y1="463.26" x2="720.00" y2="463.26"/>
    <line x1="80.00" y1="458.46" x2="720.00" y2="458.46"/>
    <line x1="80.00" y1="453.66" x2="720.00" y2="453.66"/>
    <line x1="80.00" y1="448.86" x2="720.00" y2="448.86"/>
    <line x1="80.00" y1="444.06" x2="720.00" y2="444.06"/>
    <line x1="80.00" y1="439.26" x2="720.00" y2="439.26"/>
    <line x1="80.00" y1="434.46" x2="720.00" y2="434.46"/>
    <line x1="80.00" y1="429.66" x2="720.00" y2="429.66"/>
    <line x1="80.00" y1="424.86" x2="720.00" y2="424.86"/>
    <line x1="80.00" y1="420.06" x2="720.00" y2="420.06"/>
    <line x1="80.00" y1="415.26" x2="720.00" y2="415.26"/>
    <line x1="80.00" y1="410.46" x2="720.00" y2="410.46"/>
    <line x1="80.00" y1="405.66" x2="720.00" y2="405.66"/>
    <line x1="80.00" y1="400.85" x2="720.00" y2="400.85"/>
    <line x1="80.00" y1="396.05" x2="720.00" y2="396.05"/>
    <line x1="80.00" y1="391.25" x2="720.00" y2="391.25"/>
    <line x1="80.00" y1="386.45" x2="720.00" y2="386.45"/>
    <line x1="80.00" y1="381.65" x2="720.00" y2="381.65"/>
    <line x1="80.00" y1="376.85" x2="720.00" y2="376.85"/>
    <line x1="80.00" y1="372.05" x2="720.00" y2="372.05"/>
    <line x1="80.00" y1="367.25" x2="720.00" y2="367.25"/>
    <line x1="80.00" y1="362.45" x2="720.00" y2="362.45"/>
    <line x1="80.00" y1="357.65" x2="720.00" y2="357.65"/>
    <line x1="80.00" y1="352.85" x2="720.00" y2="352.85"/>
    <line x1="80.00" y1="348.05" x2="720.00" y2="348.05"/>
    <line x1="80.00" y1="343.25" x2="720.00" y2="343.25"/>
    <line x1="80.00" y1="338.44" x2="720.00" y2="338.44"/>
    <line x1="80.00" y1="333.64" x2="720.00" y2="333.64"/>
    <line x1="80.00" y1="328.84" x2="720.00" y2="328.84"/>
    <line x1="80.00" y1="324.04" x2="720.00" y2="324.04"/>
    <line x1="80.00" y1="319.24" x2="720.00" y2="319.24"/>
    <line x1="80.00" y1="314.44" x2="720.00" y2="314.44"/>
    <line x1="80.00" y1="309.64" x2="720.00" y2="309.64"/>
    <line x1="80.00" y1="304.84" x2="720.00" y2="304.84"/>
    <line x1="80.00" y1="300.04" x2="720.00" y2="300.04"/>
    <line x1="80.00" y1="295.24" x2="720.00" y2="295.24"/>
    <line x1="80.00" y1="290.44" x2="720.00" y2="290.44"/>
    <line x1="80.00" y1="285.64" x2="720.00" y2="285.64"/>
    <line x1="80.00" y1="280.84" x2="720.00" y2="280.84"/>
    <line x1="80.00" y1="276.03" x2="720.00" y2="276.03"/>
    <line x1="80.00" y1="271.23" x2="720.00" y2="271.23"/>
    <line x1="80.00" y1="266.43" x2="720.00" y2="266.43"/>
    <line x1="80.00" y1="261.63" x2="720.00" y2="261.63"/>
    <line x1="80.00" y1="256.83" x2="720.00" y2="256.83"/>
    <line x1="80.00" y1="252.03" x2="720.00" y2="252.03"/>
    <line x1="80.00" y1="247.23" x2="720.00" y2="247.23"/>
    <line x1="80.00" y1="242.43" x2="720.00" y2="242.43"/>
    <line x1="80.00" y1="237.63" x2="720.00" y2="237.63"/>
    <line x1="80.00" y1="232.83" x2="720.00" y2="232.83"/>
    <line x1="80.00" y1="228.03" x2="720.00" y2="228.03"/>
    <line x1="80.00" y1="223.23" x2="720.00" y2="223.23"/>
    <line x1="80.00" y1="218.43" x2="720.00" y2="218.43"/>
    <line x1="80.00" y1="213.62" x2="720.00" y2="213.62"/>
    <line x1="80.00" y1="208.82" x2="720.00" y2="208.82"/>
    <line x1="80.00" y1="204.02" x2="720.00" y2="204.02"/>
    <line x1="80.00" y1="199.22" x2="720.00" y2="199.22"/>
    <line x1="80.00" y1="194.42" x2="720.00" y2="194.42"/>
    <line x1="80.00" y1="189.62" x2="720.00" y2="189.62"/>
    <line x1="80.00" y1="184.82" x2="720.00" y2="184.82"/>
    <line x1="80.00" y1="180.02" x2="720.00" y2="180.02"/>
    <line x1="80.00" y1="175.22" x2="720.00" y2="175.22"/>
    <line x1="80.00" y1="170.42" x2="720.00" y2="170.42"/>
    <line x1="80.00" y1="165.62" x2="720.00" y2="165.62"/>
    <line x1="80.00" y1="160.82" x2="720.00" y2="160.82"/>
    <line x1="80.00" y1="156.02" x2="720.00" y2="156.02"/>
    <line x1="80.00" y1="151.21" x2="720.00" y2="151.21"/>
    <line x1="80.00" y1="146.41" x2="720.00" y2="146.41"/>
    <line x1="80.00" y1="141.61" x2="720.00" y2="141.61"/>
    <line x1="80.00" y1="136.81" x2="720.00" y2="136.81"/>
    <line x1="80.00" y1="132.01" x2="720.00" y2="132.01"/>
    <line x1="80.00" y1="127.21" x2="720.00" y2="127.21"/>
    <line x1="80.00" y1="122.41" x2="720.00" y2="122.41"/>
    <line x1="80.00" y1="117.61" x2="720.00" y2="117.61"/>
    <line x1="80.00" y1="112.81" x2="720.00" y2="112.81"/>
    <line x1="80.00" y1="108.01" x2="720.00" y2="108.01"/>
    <line x1="80.00" y1="103.21" x2="720.00" y2="103.21"/>
    <line x1="80.00" y1="98.41" x2="720.00" y2="98.41"/>
    <line x1="80.00" y1="93.61" x2="720.00" y2="93.61"/>
    <line x1="80.00" y1="88.80" x2="720.00" y2="88.80"/>
    <line x1="80.00" y1="84.00" x2="720.00" y2="84.00"/>
    <line x1="80.00" y1="79.20" x2="720.00" y2="79.20"/>
    <line x1="80.00" y1="74.40" x2="720.00" y2="74.40"/>
    <line x1="80.00" y1="69.60" x2="720.00" y2="69.60"/>
    <line x1="80.00" y1="64.80" x2="720.00" y2="64.80"/>
    <line x1="80.00" y1="60.00" x2="720.00" y2="60.00"/>
  </g>
  <g stroke="#e8e8e8" stroke-width="0.5">
    <line x1="86.40" y1="540.00" x2="86.40" y2="60.00"/>
    <line x1="92.80" y1="540.00" x2="92.80" y2="60.00"/>
    <line x1="99.20" y1="540.00" x2="99.20" y2="60.00"/>
    <line x1="105.60" y1="540.00" x2="105.60" y2="60.00"/>
    <line x1="118.40" y1="540.00" x2="118.40" y2="60.00"/>
    <line x1="124.80" y1="540.00" x2="124.80" y2="60.00"/>
    <line x1="131.20" y1="540.00" x2="131.20" y2="60.00"/>
    <line x1="137.60" y1="540.00" x2="137.60" y2="60.00"/>
    <line x1="150.40" y1="540.00" x2="150.40" y2="60.00"/>
    <line x1="156.80" y1="540.00" x2="156.80" y2="60.00"/>
    <line x1="163.20" y1="540.00" x2="163.20" y2="60.00"/>
    <line x1="169.60" y1="540.00" x2="169.60" y2="60.00"/>
    <line x1="182.40" y1="540.00" x2="182.40" y2="60.00"/>
    <line x1="188.80" y1="540.00" x2="188.80" y2="60.00"/>
    <line x1="195.20" y1="540.00" x2="195.20" y2="60.00"/>
    <line x1="201.60" y1="540.00" x2="201.60" y2="60.00"/>
    <line x1="214.40" y1="540.00" x2="214.40" y2="60.00"/>
    <line x1="220.80" y1="540.00" x2="220.80" y2="60.00"/>
    <line x1="227.20" y1="540.00" x2="227.20" y2="60.00"/>
    <line x1="233.60" y1="540.00" x2="233.60" y2="60.00"/>
    <line x1="246.40" y1="540.00" x2="246.40" y2="60.00"/>
    <line x1="252.80" y1="540.00" x2="252.80" y2="60.00"/>
    <line x1="259.20" y1="540.00" x2="259.20" y2="60.00"/>
    <line x1="265.60" y1="540.00" x2="265.60" y2="60.00"/>
    <line x1="278.40" y1="540.00" x2="278.40" y2="60.00"/>
    <line x1="284.80" y1="540.00" x2="284.80" y2="60.00"/>
    <line x1="291.20" y1="540.00" x2="291.20" y2="60.00"/>
    <line x1="297.60" y1="540.00" x2="297.60" y2="60.00"/>
    <line x1="310.40" y1="540.00" x2="310.40" y2="60.00"/>
    <line x1="316.80" y1="540.00" x2="316.80" y2="60.00"/>
    <line x1="323.20" y1="540.00" x2="323.20" y2="60.00"/>
    <line x1="329.60" y1="540.00" x2="329.60" y2="60.00"/>
    <line x1="342.40" y1="540.00" x2="342.40" y2="60.00"/>
    <line x1="348.80" y1="540.00" x2="348.80" y2="60.00"/>
    <line x1="355.20" y1="540.00" x2="355.20" y2="60.00"/>
    <line x1="361.60" y1="540.00" x2="361.60" y2="60.00"/>
    <line x1="374.40" y1="540.00" x2="374.40" y2="60.00"/>
    <line x1="380.80" y1="540.00" x2="380.80" y2="60.00"/>
    <line x1="387.20" y1="540.00" x2="387.20" y2="60.00"/>
    <line x1="393.60" y1="540.00" x2="393.60" y2="60.00"/>
    <line x1="406.40" y1="540.00" x2="406.40" y2="60.00"/>
    <line x1="412.80" y1="540.00" x2="412.80" y2="60.00"/>
    <line x1="419.20" y1="540.00" x2="419.20" y2="60.00"/>
    <line x1="425.60" y1="540.00" x2="425.60" y2="60.00"/>
    <line x1="438.40" y1="540.00" x2="438.40" y2="60.00"/>
    <line x1="444.80" y1="540.00" x2="444.80" y2="60.00"/>
    <line x1="451.20" y1="540.00" x2="451.20" y2="60.00"/>
    <line x1="457.60" y1="540.00" x2="457.60" y2="60.00"/>
    <line x1="470.40" y1="540.00" x2="470.40" y2="60.00"/>
    <line x1="476.80" y1="540.00" x2="476.80" y2="60.00"/>
    <line x1="483.20" y1="540.00" x2="483.20" y2="60.00"/>
    <line x1="489.60" y1="540.00" x2="489.60" y2="60.00"/>
    <line x1="502.40" y1="540.00" x2="502.40" y2="60.00"/>
    <line x1="508.80" y1="540.00" x2="508.80" y2="60.00"/>
    <line x1="515.20" y1="540.00" x2="515.20" y2="60.00"/>
    <line x1="521.60" y1="540.00" x2="521.60" y2="60.00"/>
    <line x1="534.40" y1="540.00" x2="534.40" y2="60.00"/>
    <line x1="540.80" y1="540.00" x2="540.80" y2="60.00"/>
    <line x1="547.20" y1="540.00" x2="547.20" y2="60.00"/>
    <line x1="553.60" y1="540.00" x2="553.60" y2="60.00"/>
    <line x1="566.40" y1="540.00" x2="566.40" y2="60.00"/>
    <line x1="572.80" y1="540.00" x2="572.80" y2="60.00"/>
    <line x1="579.20" y1="540.00" x2="579.20" y2="60.00"/>
    <line x1="585.60" y1="540.00" x2="585.60" y2="60.00"/>
    <line x1="598.40" y1="540.00" x2="598.40" y2="60.00"/>
    <line x1="604.80" y1="540.00" x2="604.80" y2="60.00"/>
    <line x1="611.20" y1="540.00" x2="611.20" y2="60.00"/>
    <line x1="617.60" y1="540.00" x2="617.60" y2="60.00"/>
    <line x1="630.40" y1="540.00" x2="630.40" y2="60.00"/>
    <line x1="636.80" y1="540.00" x2="636.80" y2="60.00"/>
    <line x1="643.20" y1="540.00" x2="643.20" y2="60.00"/>
    <line x1="649.60" y1="540.00" x2="649.60" y2="60.00"/>
    <line x1="662.40" y1="540.00" x2="662.40" y2="60.00"/>
    <line x1="668.80" y1="540.00" x2="668.80" y2="60.00"/>
    <line x1="675.20" y1="540.00" x2="675.20" y2="60.00"/>
    <line x1="681.60" y1="540.00" x2="681.60" y2="60.00"/>
    <line x1="694.40" y1="540.00" x2="694.40" y2="60.00"/>
    <line x1="700.80" y1="540.00" x2="700.80" y2="60.00"/>
    <line x1="707.20" y1="540.00" x2="707.20" y2="60.00"/>
    <line x1="713.60" y1="540.00" x2="713.60" y2="60.00"/>
    <line x1="80.00" y1="539.12" x2="720.00" y2="539.12"/>
    <line x1="80.00" y1="538.16" x2="720.00" y2="538.16"/>
    <line x1="80.00" y1="537.20" x2="720.00" y2="537.20"/>
    <line x1="80.00" y1="536.24" x2="720.00" y2="536.24"/>
    <line x1="80.00" y1="534.32" x2="720.00" y2="534.32"/>
    <line x1="80.00" y1="533.36" x2="720.00" y2="533.36"/>
    <line x1="80.00" y1="532.40" x2="720.00" y2="532.40"/>
    <line x1="80.00" y1="531.44" x2="720.00" y2="531.44"/>
    <line x1="80.00" y1="529.52" x2="720.00" y2="529.52"/>
    <line x1="80.00" y1="528.56" x2="720.00" y2="528.56"/>
    <line x1="80.00" y1="527.59" x2="720.00" y2="527.59"/>
    <line x1="80.00" y1="526.63" x2="720.00" y2="526.63"/>
    <line x1="80.00" y1="524.71" x2="720.00" y2="524.71"/>
    <line x1="80.00" y1="523.75" x2="720.00" y2="523.75"/>
    <line x1="80.00" y1="522.79" x2="720.00" y2="522.79"/>
    <line x1="80.00" y1="521.83" x2="720.00" y2="521.83"/>
    <line x1="80.00" y1="519.91" x2="720.00" y2="519.91"/>
    <line x1="80.00" y1="518.95" x2="720.00" y2="518.95"/>
    <line x1="80.00" y1="517.99" x2="720.00" y2="517.99"/>
    <line x1="80.00" y1="517.03" x2="720.00" y2="517.03"/>
    <line x1="80.00" y1="515.11" x2="720.00" y2="515.11"/>
    <line x1="80.00" y1="514.15" x2="720.00" y2="514.15"/>
    <line x1="80.00" y1="513.19" x2="720.00" y2="513.19"/>
    <line x1="80.00" y1="512.23" x2="720.00" y2="512.23"/>
    <line x1="80.00" y1="510.31" x2="720.00" y2="510.31"/>
    <line x1="80.00" y1="509.35" x2="720.00" y2="509.35"/>
    <line x1="80.00" y1="508.39" x2="720.00" y2="508.39"/>
    <line x1="80.00" y1="507.43" x2="720.00" y2="507.43"/>
    <line x1="80.00" y1="505.51" x2="720.00" y2="505.51"/>
    <line x1="80.00" y1="504.55" x2="720.00" y2="504.55"/>
    <line x1="80.00" y1="503.59" x2="720.00" y2="503.59"/>
    <line x1="80.00" y1="502.63" x2="720.00" y2="502.63"/>
    <line x1="80.00" y1="500.71" x2="720.00" y2="500.71"/>
    <line x1="80.00" y1="499.75" x2="720.00" y2="499.75"/>
    <line x1="80.00" y1="498.79" x2="720.00" y2="498.79"/>
    <line x1="80.00" y1="497.83" x2="720.00" y2="497.83"/>
    <line x1="80.00" y1="495.91" x2="720.00" y2="495.91"/>
    <line x1="80.00" y1="494.95" x2="720.00" y2="494.95"/>
    <line x1="80.00" y1="493.99" x2="720.00" y2="493.99"/>
    <line x1="80.00" y1="493.03" x2="720.00" y2="493.03"/>
    <line x1="80.00" y1="491.11" x2="720.00" y2="491.11"/>
    <line x1="80.00" y1="490.15" x2="720.00" y2="490.15"/>
    <line x1="80.00" y1="489.19" x2="720.00" y2="489.19"/>
    <line x1="80.00" y1="488.23" x2="720.00" y2="488.23"/>
    <line x1="80.00" y1="486.31" x2="720.00" y2="486.31"/>
    <line x1="80.00" y1="485.35" x2="720.00" y2="485.35"/>
    <line x1="80.00" y1="484.39" x2="720.00" y2="484.39"/>
    <line x1="80.00" y1="483.43" x2="720.00" y2="483.43"/>
    <line x1="80.00" y1="481.51" x2="720.00" y2="481.51"/>
    <line x1="80.00" y1="480.55" x2="720.00" y2="480.55"/>
    <line x1="80.00" y1="479.59" x2="720.00" y2="479.59"/>
    <line x1="80.00" y1="478.63" x2="720.00" y2="478.63"/>
    <line x1="80.00" y1="476.71" x2="720.00" y2="476.71"/>
    <line x1="80.00" y1="475.75" x2="720.00" y2="475.75"/>
    <line x1="80.00" y1="474.79" x2="720.00" y2="474.79"/>
    <line x1="80.00" y1="473.83" x2="720.00" y2="473.83"/>
    <line x1="80.00" y1="471.91" x2="720.00" y2="471.91"/>
    <line x1="80.00" y1="470.95" x2="720.00" y2="470.95"/>
    <line x1="80.00" y1="469.99" x2="720.00" y2="469.99"/>
    <line x1="80.00" y1="469.03" x2="720.00" y2="469.03"/>
    <line x1="80.00" y1="467.11" x2="720.00" y2="467.11"/>
    <line x1="80.00" y1="466.15" x2="720.00" y2="466.15"/>
    <line x1="80.00" y1="465.18" x2="720.00" y2="465.18"/>
    <line x1="80.00" y1="464.22" x2="720.00" y2="464.22"/>
    <line x1="80.00" y1="462.30" x2="720.00" y2="462.30"/>
    <line x1="80.00" y1="461.34" x2="720.00" y2="461.34"/>
    <line x1="80.00" y1="460.38" x2="720.00" y2="460.38"/>
    <line x1="80.00" y1="459.42" x2="720.00" y2="459.42"/>
    <line x1="80.00" y1="457.50" x2="720.00" y2="457.50"/>
    <line x1="80.00" y1="456.54" x2="720.00" y2="456.54"/>
    <line x1="80.00" y1="455.58" x2="720.00" y2="455.58"/>
    <line x1="80.00" y1="454.62" x2="720.00" y2="454.62"/>
    <line x1="80.00" y1="452.70" x2="720.00" y2="452.70"/>
    <line x1="80.00" y1="451.74" x2="720.00" y2="451.74"/>
    <line x1="80.00" y1="450.78" x2="720.00" y2="450.78"/>
    <line x1="80.00" y1="449.82" x2="720.00" y2="449.82"/>
    <line x1="80.00" y1="447.90" x2="720.00" y2="447.90"/>
    <line x1="80.00" y1="446.94" x2="720.00" y2="446.94"/>
    <line x1="80.00" y1="445.98" x2="720.00" y2="445.98"/>
    <line x1="80.00" y1="445.02" x2="720.00" y2="445.02"/>
    <line x1="80.00" y1="443.10" x2="720.00" y2="443.10"/>
    <line x1="80.00" y1="442.14" x2="720.00" y2="442.14"/>
    <line x1="80.00" y1="441.18" x2="720.00" y2="441.18"/>
    <line x1="80.00" y1="440.22" x2="720.00" y2="440.22"/>
    <line x1="80.00" y1="438.30" x2="720.00" y2="438.30"/>
    <line x1="80.00" y1="437.34" x2="720.00" y2="437.34"/>
    <line x1="80.00" y1="436.38" x2="720.00" y2="436.38"/>
    <line x1="80.00" y1="435.42" x2="720.00" y2="435.42"/>
    <line x1="80.00" y1="433.50" x2="720.00" y2="433.50"/>
    <line x1="80.00" y1="432.54" x2="720.00" y2="432.54"/>
    <line x1="80.00" y1="431.58" x2="720.00" y2="431.58"/>
    <line x1="80.00" y1="430.62" x2="720.00" y2="430.62"/>
    <line x1="80.00" y1="428.70" x2="720.00" y2="428.70"/>
    <line x1="80.00" y1="427.74" x2="720.00" y2="427.74"/>
    <line x1="80.00" y1="426.78" x2="720.00" y2="426.78"/>
    <line x1="80.00" y1="425.82" x2="720.00" y2="425.82"/>
    <line x1="80.00" y1="423.90" x2="720.00" y2="423.90"/>
    <line x1="80.00" y1="422.94" x2="720.00" y2="422.94"/>
    <line x1="80.00" y1="421.98" x2="720.00" y2="421.98"/>
    <line x1="80.00" y1="421.02" x2="720.00" y2="421.02"/>
    <line x1="80.00" y1="419.10" x2="720.00" y2="419.10"/>
    <line x1="80.00" y1="418.14" x2="720.00" y2="418.14"/>
    <line x1="80.00" y1="417.18" x2="720.00" y2="417.18"/>
    <line x1="80.00" y1="416.22" x2="720.00" y2="416.22"/>
    <line x1="80.00" y1="414.30" x2="720.00" y2="414.30"/>
    <line x1="80.00" y1="413.34" x2="720.00" y2="413.34"/>
    <line x1="80.00" y1="412.38" x2="720.00" y2="412.38"/>
    <line x1="80.00" y1="411.42" x2="720.00" y2="411.42"/>
    <line x1="80.00" y1="409.50" x2="720.00" y2="409.50"/>
    <line x1="80.00" y1="408.54" x2="720.00" y2="408.54"/>
    <line x1="80.00" y1="407.58" x2="720.00" y2="407.58"/>
    <line x1="80.00" y1="406.62" x2="720.00" y2="406.62"/>
    <line x1="80.00" y1="404.70" x2="720.00" y2="404.70"/>
    <line x1="80.00" y1="403.74" x2="720.00" y2="403.74"/>
    <line x1="80.00" y1="402.77" x2="720.00" y2="402.77"/>
    <line x1="80.00" y1="401.81" x2="720.00" y2="401.81"/>
    <line x1="80.00" y1="399.89" x2="720.00" y2="399.89"/>
    <line x1="80.00" y1="398.93" x2="720.00" y2="398.93"/>
    <line x1="80.00" y1="397.97" x2="720.00" y2="397.97"/>
    <line x1="80.00" y1="397.01" x2="720.00" y2="397.01"/>
    <line x1="80.00" y1="395.09" x2="720.00" y2="395.09"/>
    <line x1="80.00" y1="394.13" x2="720.00" y2="394.13"/>
    <line x1="80.00" y1="393.17" x2="720.00" y2="393.17"/>
    <line x1="80.00" y1="392.21" x2="720.00" y2="392.21"/>
    <line x1="80.00" y1="390.29" x2="720.00" y2="390.29"/>
    <line x1="80.00" y1="389.33" x2="720.00" y2="389.33"/>
    <line x1="80.00" y1="388.37" x2="720.00" y2="388.37"/>
    <line x1="80.00" y1="387.41" x2="720.00" y2="387.41"/>
    <line x1="80.00" y1="385.49" x2="720.00" y2="385.49"/>
    <line x1="80.00" y1="384.53" x2="720.00" y2="384.53"/>
    <line x1="80.00" y1="383.57" x2="720.00" y2="383.57"/>
    <line x1="80.00" y1="382.61" x2="720.00" y2="382.61"/>
    <line x1="80.00" y1="380.69" x2="720.00" y2="380.69"/>
    <line x1="80.00" y1="379.73" x2="720.00" y2="379.73"/>
    <line x1="80.00" y1="378.77" x2="720.00" y2="378.77"/>
    <line x1="80.00" y1="377.81" x2="720.00" y2="377.81"/>
    <line x1="80.00" y1="375.89" x2="720.00" y2="375.89"/>
    <line x1="80.00" y1="374.93" x2="720.00" y2="374.93"/>
    <line x1="80.00" y1="373.97" x2="720.00" y2="373.97"/>
    <line x1="80.00" y1="373.01" x2="720.00" y2="373.01"/>
    <line x1="80.00" y1="371.09" x2="720.00" y2="371.09"/>
    <line x1="80.00" y1="370.13" x2="720.00" y2="370.13"/>
    <line x1="80.00" y1="369.17" x2="720.00" y2="369.17"/>
    <line x1="80.00" y1="368.21" x2="720.00" y2="368.21"/>
    <line x1="80.00" y1="366.29" x2="720.00" y2="366.29"/>
    <line x1="80.00" y1="365.33" x2="720.00" y2="365.33"/>
    <line x1="80.00" y1="364.37" x2="720.00" y2="364.37"/>
    <line x1="80.00" y1="363.41" x2="720.00" y2="363.41"/>
    <line x1="80.00" y1="361.49" x2="720.00" y2="361.49"/>
    <line x1="80.00" y1="360.53" x2="720.00" y2="360.53"/>
    <line x1="80.00" y1="359.57" x2="720.00" y2="359.57"/>
    <line x1="80.00" y1="358.61" x2="720.00" y2="358.61"/>
    <line x1="80.00" y1="356.69" x2="720.00" y2="356.69"/>
    <line x1="80.00" y1="355.73" x2="720.00" y2="355.73"/>
    <line x1="80.00" y1="354.77" x2="720.00" y2="354.77"/>
    <line x1="80.00" y1="353.81" x2="720.00" y2="353.81"/>
    <line x1="80.00" y1="351.89" x2="720.00" y2="351.89"/>
    <line x1="80.00" y1="350.93" x2="720.00" y2="350.93"/>
    <line x1="80.00" y1="349.97" x2="720.00" y2="349.97"/>
    <line x1="80.00" y1="349.01" x2="720.00" y2="349.01"/>
    <line x1="80.00" y1="347.09" x2="720.00" y2="347.09"/>
    <line x1="80.00" y1="346.13" x2="720.00" y2="346.13"/>
    <line x1="80.00" y1="345.17" x2="720.00" y2="345.17"/>
    <line x1="80.00" y1="344.21" x2="720.00" y2="344.21"/>
    <line x1="80.00" y1="342.29" x2="720.00" y2="342.29"/>
    <line x1="80.00" y1="341.33" x2="720.00" y2="341.33"/>
    <line x1="80.00" y1="340.36" x2="720.00" y2="340.36"/>
    <line x1="80.00" y1="339.40" x2="720.00" y2="339.40"/>
    <line x1="80.00" y1="337.48" x2="720.00" y2="337.48"/>
    <line x1="80.00" y1="336.52" x2="720.00" y2="336.52"/>
    <line x1="80.00" y1="335.56" x2="720.00" y2="335.56"/>
    <line x1="80.00" y1="334.60" x2="720.00" y2="334.60"/>
    <line x1="80.00" y1="332.68" x2="720.00" y2="332.68"/>
    <line x1="80.00" y1="331.72" x2="720.00" y2="331.72"/>
    <line x1="80.00" y1="330.76" x2="720.00" y2="330.76"/>
    <line x1="80.00" y1="329.80" x2="720.00" y2="329.80"/>
    <line x1="80.00" y1="327.88" x2="720.00" y2="327.88"/>
    <line x1="80.00" y1="326.92" x2="720.00" y2="326.92"/>
    <line x1="80.00" y1="325.96" x2="720.00" y2="325.96"/>
    <line x1="80.00" y1="325.00" x2="720.00" y2="325.00"/>
    <line x1="80.00" y1="323.08" x2="720.00" y2="323.08"/>
    <line x1="80.00" y1="322.12" x2="720.00" y2="322.12"/>
    <line x1="80.00" y1="321.16" x2="720.00" y2="321.16"/>
    <line x1="80.00" y1="320.20" x2="720.00" y2="320.20"/>
    <line x1="80.00" y1="318.28" x2="720.00" y2="318.28"/>
    <line x1="80.00" y1="317.32" x2="720.00" y2="317.32"/>
    <line x1="80.00" y1="316.36" x2="720.00" y2="316.36"/>
    <line x1="80.00" y1="315.40" x2="720.00" y2="315.40"/>
    <line x1="80.00" y1="313.48" x2="720.00" y2="313.48"/>
    <line x1="80.00" y1="312.52" x2="720.00" y2="312.52"/>
    <line x1="80.00" y1="311.56" x2="720.00" y2="311.56"/>
    <line x1="80.00" y1="310.60" x2="720.00" y2="310.60"/>
    <line x1="80.00" y1="308.68" x2="720.00" y2="308.68"/>
    <line x1="80.00" y1="307.72" x2="720.00" y2="307.72"/>
    <line x1="80.00" y1="306.76" x2="720.00" y2="306.76"/>
    <line x1="80.00" y1="305.80" x2="720.00" y2="305.80"/>
    <line x1="80.00" y1="303.88" x2="720.00" y2="303.88"/>
    <line x1="80.00" y1="302.92" x2="720.00" y2="302.92"/>
    <line x1="80.00" y1="301.96" x2="720.00" y2="301.96"/>
    <line x1="80.00" y1="301.00" x2="720.00" y2="301.00"/>
    <line x1="80.00" y1="299.08" x2="720.00" y2="299.08"/>
    <line x1="80.00" y1="298.12" x2="720.00" y2="298.12"/>
    <line x1="80.00" y1="297.16" x2="720.00" y2="297.16"/>
    <line x1="80.00" y1="296.20" x2="720.00" y2="296.20"/>
    <line x1="80.00" y1="294.28" x2="720.00" y2="294.28"/>
    <line x1="80.00" y1="293.32" x2="720.00" y2="293.32"/>
    <line x1="80.00" y1="292.36" x2="720.00" y2="292.36"/>
    <line x1="80.00" y1="291.40" x2="720.00" y2="291.40"/>
    <line x1="80.00" y1="289.48" x2="720.00" y2="289.48"/>
    <line x1="80.00" y1="288.52" x2="720.00" y2="288.52"/>
    <line x1="80.00" y1="287.56" x2="720.00" y2="287.56"/>
    <line x1="80.00" y1="286.60" x2="720.00" y2="286.60"/>
    <line x1="80.00" y1="284.68" x2="720.00" y2="284.68"/>
    <line x1="80.00" y1="283.72" x2="720.00" y2="283.72"/>
    <line x1="80.00" y1="282.76" x2="720.00" y2="282.76"/>
    <line x1="80.00" y1="281.80" x2="720.00" y2="281.80"/>
    <line x1="80.00" y1="279.88" x2="720.00" y2="279.88"/>
    <line x1="80.00" y1="278.92" x2="720.00" y2="278.92"/>
    <line x1="80.00" y1="277.95" x2="720.00" y2="277.95"/>
    <line x1="80.00" y1="276.99" x2="720.00" y2="276.99"/>
    <line x1="80.00" y1="275.07" x2="720.00" y2="275.07"/>
    <line x1="80.00" y1="274.11" x2="720.00" y2="274.11"/>
    <line x1="80.00" y1="273.15" x2="720.00" y2="273.15"/>
    <line x1="80.00" y1="272.19" x2="720.00" y2="272.19"/>
    <line x1="80.00" y1="270.27" x2="720.00" y2="270.27"/>
    <line x1="80.00" y1="269.31" x2="720.00" y2="269.31"/>
    <line x1="80.00" y1="268.35" x2="720.00" y2="268.35"/>
    <line x1="80.00" y1="267.39" x2="720.00" y2="267.39"/>
    <line x1="80.00" y1="265.47" x2="720.00" y2="265.47"/>
    <line x1="80.00" y1="264.51" x2="720.00" y2="264.51"/>
    <line x1="80.00" y1="263.55" x2="720.00" y2="263.55"/>
    <line x1="80.00" y1="262.59" x2="720.00" y2="262.59"/>
    <line x1="80.00" y1="260.67" x2="720.00" y2="260.67"/>
    <line x1="80.00" y1="259.71" x2="720.00" y2="259.71"/>
    <line x1="80.00" y1="258.75" x2="720.00" y2="258.75"/>
    <line x1="80.00" y1="257.79" x2="720.00" y2="257.79"/>
    <line x1="80.00" y1="255.87" x2="720.00" y2="255.87"/>
    <line x1="80.00" y1="254.91" x2="720.00" y2="254.91"/>
    <line x1="80.00" y1="253.95" x2="720.00" y2="253.95"/>
    <line x1="80.00" y1="252.99" x2="720.00" y2="252.99"/>
    <line x1="80.00" y1="251.07" x2="720.00" y2="251.07"/>
    <line x1="80.00" y1="250.11" x2="720.00" y2="250.11"/>
    <line x1="80.00" y1="249.15" x2="720.00" y2="249.15"/>
    <line x1="80.00" y1="248.19" x2="720.00" y2="248.19"/>
    <line x1="80.00" y1="246.27" x2="720.00" y2="246.27"/>
    <line x1="80.00" y1="245.31" x2="720.00" y2="245.31"/>
    <line x1="80.00" y1="244.35" x2="720.00" y2="244.35"/>
    <line x1="80.00" y1="243.39" x2="720.00" y2="243.39"/>
    <line x1="80.00" y1="241.47" x2="720.00" y2="241.47"/>
    <line x1="80.00" y1="240.51" x2="720.00" y2="240.51"/>
    <line x1="80.00" y1="239.55" x2="720.00" y2="239.55"/>
    <line x1="80.00" y1="238.59" x2="720.00" y2="238.59"/>
    <line x1="80.00" y1="236.67" x2="720.00" y2="236.67"/>
    <line x1="80.00" y1="235.71" x2="720.00" y2="235.71"/>
    <line x1="80.00" y1="234.75" x2="720.00" y2="234.75"/>
    <line x1="80.00" y1="233.79" x2="720.00" y2="233.79"/>
    <line x1="80.00" y1="231.87" x2="720.00" y2="231.87"/>
    <line x1="80.00" y1="230.91" x2="720.00" y2="230.91"/>
    <line x1="80.00" y1="229.95" x2="720.00" y2="229.95"/>
    <line x1="80.00" y1="228.99" x2="720.00" y2="228.99"/>
    <line x1="80.00" y1="227.07" x2="720.00" y2="227.07"/>
    <line x1="80.00" y1="226.11" x2="720.00" y2="226.11"/>
    <line x1="80.00" y1="225.15" x2="720.00" y2="225.15"/>
    <line x1="80.00" y1="224.19" x2="720.00" y2="224.19"/>
    <line x1="80.00" y1="222.27" x2="720.00" y2="222.27"/>
    <line x1="80.00" y1="221.31" x2="720.00" y2="221.31"/>
    <line x1="80.00" y1="220.35" x2="720.00" y2="220.35"/>
    <line x1="80.00" y1="219.39" x2="720.00" y2="219.39"/>
    <line x1="80.00" y1="217.47" x2="720.00" y2="217.47"/>
    <line x1="80.00" y1="216.51" x2="720.00" y2="216.51"/>
    <line x1="80.00" y1="215.54" x2="720.00" y2="215.54"/>
    <line x1="80.00" y1="214.58" x2="720.00" y2="214.58"/>
    <line x1="80.00" y1="212.66" x2="720.00" y2="212.66"/>
    <line x1="80.00" y1="211.70" x2="720.00" y2="211.70"/>
    <line x1="80.00" y1="210.74" x2="720.00" y2="210.74"/>
    <line x1="80.00" y1="209.78" x2="720.00" y2="209.78"/>
    <line x1="80.00" y1="207.86" x2="720.00" y2="207.86"/>
    <line x1="80.00" y1="206.90" x2="720.00" y2="206.90"/>
    <line x1="80.00" y1="205.94" x2="720.00" y2="205.94"/>
    <line x1="80.00" y1="204.98" x2="720.00" y2="204.98"/>
    <line x1="80.00" y1="203.06" x2="720.00" y2="203.06"/>
    <line x1="80.00" y1="202.10" x2="720.00" y2="202.10"/>
    <line x1="80.00" y1="201.14" x2="720.00" y2="201.14"/>
    <line x1="80.00" y1="200.18" x2="720.00" y2="200.18"/>
    <line x1="80.00" y1="198.26" x2="720.00" y2="198.26"/>
    <line x1="80.00" y1="197.30" x2="720.00" y2="197.30"/>
    <line x1="80.00" y1="196.34" x2="720.00" y2="196.34"/>
    <line x1="80.00" y1="195.38" x2="720.00" y2="195.38"/>
    <line x1="80.00" y1="193.46" x2="720.00" y2="193.46"/>
    <line x1="80.00" y1="192.50" x2="720.00" y2="192.50"/>
    <line x1="80.00" y1="191.54" x2="720.00" y2="191.54"/>
    <line x1="80.00" y1="190.58" x2="720.00" y2="190.58"/>
    <line x1="80.00" y1="188.66" x2="720.00" y2="188.66"/>
    <line x1="80.00" y1="187.70" x2="720.00" y2="187.70"/>
    <line x1="80.00" y1="186.74" x2="720.00" y2="186.74"/>
    <line x1="80.00" y1="185.78" x2="720.00" y2="185.78"/>
    <line x1="80.00" y1="183.86" x2="720.00" y2="183.86"/>
    <line x1="80.00" y1="182.90" x2="720.00" y2="182.90"/>
    <line x1="80.00" y1="181.94" x2="720.00" y2="181.94"/>
    <line x1="80.00" y1="180.98" x2="720.00" y2="180.98"/>
    <line x1="80.00" y1="179.06" x2="720.00" y2="179.06"/>
    <line x1="80.00" y1="178.10" x2="720.00" y2="178.10"/>
    <line x1="80.00" y1="177.14" x2="720.00" y2="177.14"/>
    <line x1="80.00" y1="176.18" x2="720.00" y2="176.18"/>
    <line x1="80.00" y1="174.26" x2="720.00" y2="174.26"/>
    <line x1="80.00" y1="173.30" x2="720.00" y2="173.30"/>
    <line x1="80.00" y1="172.34" x2="720.00" y2="172.34"/>
    <line x1="80.00" y1="171.38" x2="720.00" y2="171.38"/>
    <line x1="80.00" y1="169.46" x2="720.00" y2="169.46"/>
    <line x1="80.00" y1="168.50" x2="720.00" y2="168.50"/>
    <line x1="80.00" y1="167.54" x2="720.00" y2="167.54"/>
    <line x1="80.00" y1="166.58" x2="720.00" y2="166.58"/>
    <line x1="80.00" y1="164.66" x2="720.00" y2="164.66"/>
    <line x1="80.00" y1="163.70" x2="720.00" y2="163.70"/>
    <line x1="80.00" y1="162.74" x2="720.00" y2="162.74"/>
    <line x1="80.00" y1="161.78" x2="720.00" y2="161.78"/>
    <line x1="80.00" y1="159.86" x2="720.00" y2="159.86"/>
    <line x1="80.00" y1="158.90" x2="720.00" y2="158.90"/>
    <line x1="80.00" y1="157.94" x2="720.00" y2="157.94"/>
    <line x1="80.00" y1="156.98" x2="720.00" y2="156.98"/>
    <line x1="80.00" y1="155.06" x2="720.00" y2="155.06"/>
    <line x1="80.00" y1="154.10" x2="720.00" y2="154.10"/>
    <line x1="80.00" y1="153.13" x2="720.00" y2="153.13"/>
    <line x1="80.00" y1="152.17" x2="720.00" y2="152.17"/>
    <line x1="80.00" y1="150.25" x2="720.00" y2="150.25"/>
    <line x1="80.00" y1="149.29" x2="720.00" y2="149.29"/>
    <line x1="80.00" y1="148.33" x2="720.00" y2="148.33"/>
    <line x1="80.00" y1="147.37" x2="720.00" y2="147.37"/>
    <line x1="80.00" y1="145.45" x2="720.00" y2="145.45"/>
    <line x1="80.00" y1="144.49" x2="720.00" y2="144.49"/>
    <line x1="80.00" y1="143.53" x2="720.00" y2="143.53"/>
    <line x1="80.00" y1="142.57" x2="720.00" y2="142.57"/>
    <line x1="80.00" y1="140.65" x2="720.00" y2="140.65"/>
    <line x1="80.00" y1="139.69" x2="720.00" y2="139.69"/>
    <line x1="80.00" y1="138.73" x2="720.00" y2="138.73"/>
    <line x1="80.00" y1="137.77" x2="720.00" y2="137.77"/>
    <line x1="80.00" y1="135.85" x2="720.00" y2="135.85"/>
    <line x1="80.00" y1="134.89" x2="720.00" y2="134.89"/>
    <line x1="80.00" y1="133.93" x2="720.00" y2="133.93"/>
    <line x1="80.00" y1="132.97" x2="720.00" y2="132.97"/>
    <line x1="80.00" y1="131.05" x2="720.00" y2="131.05"/>
    <line x1="80.00" y1="130.09" x2="720.00" y2="130.09"/>
    <line x1="80.00" y1="129.13" x2="720.00" y2="129.13"/>
    <line x1="80.00" y1="128.17" x2="720.00" y2="128.17"/>
    <line x1="80.00" y1="126.25" x2="720.00" y2="126.25"/>
    <line x1="80.00" y1="125.29" x2="720.00" y2="125.29"/>
    <line x1="80.00" y1="124.33" x2="720.00" y2="124.33"/>
    <line x1="80.00" y1="123.37" x2="720.00" y2="123.37"/>
    <line x1="80.00" y1="121.45" x2="720.00" y2="121.45"/>
    <line x1="80.00" y1="120.49" x2="720.00" y2="120.49"/>
    <line x1="80.00" y1="119.53" x2="720.00" y2="119.53"/>
    <line x1="80.00" y1="118.57" x2="720.00" y2="118.57"/>
    <line x1="80.00" y1="116.65" x2="720.00" y2="116.65"/>
    <line x1="80.00" y1="115.69" x2="720.00" y2="115.69"/>
    <line x1="80.00" y1="114.73" x2="720.00" y2="114.73"/>
    <line x1="80.00" y1="113.77" x2="720.00" y2="113.77"/>
    <line x1="80.00" y1="111.85" x2="720.00" y2="111.85"/>
    <line x1="80.00" y1="110.89" x2="720.00" y2="110.89"/>
    <line x1="80.00" y1="109.93" x2="720.00" y2="109.93"/>
    <line x1="80.00" y1="108.97" x2="720.00" y2="108.97"/>
    <line x1="80.00" y1="107.05" x2="720.00" y2="107.05"/>
    <line x1="80.00" y1="106.09" x2="720.00" y2="106.09"/>
    <line x1="80.00" y1="105.13" x2="720.00" y2="105.13"/>
    <line x1="80.00" y1="104.17" x2="720.00" y2="104.17"/>
    <line x1="80.00" y1="102.25" x2="720.00" y2="102.25"/>
    <line x1="80.00" y1="101.29" x2="720.00" y2="101.29"/>
    <line x1="80.00" y1="100.33" x2="720.00" y2="100.33"/>
    <line x1="80.00" y1="99.37" x2="720.00" y2="99.37"/>
    <line x1="80.00" y1="97.45" x2="720.00" y2="97.45"/>
    <line x1="80.00" y1="96.49" x2="720.00" y2="96.49"/>
    <line x1="80.00" y1="95.53" x2="720.00" y2="95.53"/>
    <line x1="80.00" y1="94.57" x2="720.00" y2="94.57"/>
    <line x1="80.00" y1="92.65" x2="720.00" y2="92.65"/>
    <line x1="80.00" y1="91.69" x2="720.00" y2="91.69"/>
    <line x1="80.00" y1="90.72" x2="720.00" y2="90.72"/>
    <line x1="80.00" y1="89.76" x2="720.00" y2="89.76"/>
    <line x1="80.00" y1="87.84" x2="720.00" y2="87.84"/>
    <line x1="80.00" y1="86.88" x2="720.00" y2="86.88"/>
    <line x1="80.00" y1="85.92" x2="720.00" y2="85.92"/>
    <line x1="80.00" y1="84.96" x2="720.00" y2="84.96"/>
    <line x1="80.00" y1="83.04" x2="720.00" y2="83.04"/>
    <line x1="80.00" y1="82.08" x2="720.00" y2="82.08"/>
    <line x1="80.00" y1="81.12" x2="720.00" y2="81.12"/>
    <line x1="80.00" y1="80.16" x2="720.00" y2="80.16"/>
    <line x1="80.00" y1="78.24" x2="720.00" y2="78.24"/>
    <line x1="80.00" y1="77.28" x2="720.00" y2="77.28"/>
    <line x1="80.00" y1="76.32" x2="720.00" y2="76.32"/>
    <line x1="80.00" y1="75.36" x2="720.00" y2="75.36"/>
    <line x1="80.00" y1="73.44" x2="720.00" y2="73.44"/>
    <line x1="80.00" y1="72.48" x2="720.00" y2="72.48"/>
    <line x1="80.00" y1="71.52" x2="720.00" y2="71.52"/>
    <line x1="80.00" y1="70.56" x2="720.00" y2="70.56"/>
    <line x1="80.00" y1="68.64" x2="720.00" y2="68.64"/>
    <line x1="80.00" y1="67.68" x2="720.00" y2="67.68"/>
    <line x1="80.00" y1="66.72" x2="720.00" y2="66.72"/>
    <line x1="80.00" y1="65.76" x2="720.00" y2="65.76"/>
    <line x1="80.00" y1="63.84" x2="720.00" y2="63.84"/>
    <line x1="80.00" y1="62.88" x2="720.00" y2="62.88"/>
    <line x1="80.00" y1="61.92" x2="720.00" y2="61.92"/>
    <line x1="80.00" y1="60.96" x2="720.00" y2="60.96"/>
  </g>
  <g stroke="#808080" stroke-width="2">
    <line x1="80.00" y1="540.08" x2="720.00" y2="540.08"/>
  </g>
  <polyline fill="none" stroke="#0066cc" stroke-width="2" points="80.00,60.00 88.10,84.00 96.20,107.38 104.30,130.15 112.41,152.31 120.51,173.85 128.61,194.77 136.71,215.08 144.81,234.77 152.91,253.85 161.01,272.31 169.11,290.15 177.22,307.38 185.32,324.00 193.42,340.00 201.52,355.38 209.62,370.15 217.72,384.31 225.82,397.85 233.92,410.77 242.03,423.08 250.13,434.77 258.23,445.85 266.33,456.31 274.43,466.15 282.53,475.38 290.63,484.00 298.73,492.00 306.84,499.38 314.94,506.15 323.04,512.31 331.14,517.85 339.24,522.77 347.34,527.08 355.44,530.77 363.54,533.85 371.65,536.31 379.75,538.15 387.85,539.38 395.95,540.00 404.05,540.00 412.15,539.38 420.25,538.15 428.35,536.31 436.46,533.85 444.56,530.77 452.66,527.08 460.76,522.77 468.86,517.85 476.96,512.31 485.06,506.15 493.16,499.38 501.27,492.00 509.37,484.00 517.47,475.38 525.57,466.15 533.67,456.31 541.77,445.85 549.87,434.77 557.97,423.08 566.08,410.77 574.18,397.85 582.28,384.31 590.38,370.15 598.48,355.38 606.58,340.00 614.68,324.00 622.78,307.38 630.89,290.15 638.99,272.31 647.09,253.85 655.19,234.77 663.29,215.08 671.39,194.77 679.49,173.85 687.59,152.31 695.70,130.15 703.80,107.38 711.90,84.00 720.00,60.00 "/>
</svg>
