<?xml version="1.0" encoding="UTF-8"?>
<svg xmlns="http://www.w3.org/2000/svg" width="800" height="600">
  <title>R=5</title>
  <rect width="800" height="600" fill="#ffffff"/>
  <g stroke="#d0d0d0" stroke-width="1">
    <line x1="79.82" y1="540.00" x2="79.82" y2="60.00"/>
    <line x1="143.84" y1="540.00" x2="143.84" y2="60.00"/>
    <line x1="207.86" y1="540.00" x2="207.86" y2="60.00"/>
    <line x1="271.88" y1="540.00" x2="271.88" y2="60.00"/>
    <line x1="335.89" y1="540.00" x2="335.89" y2="60.00"/>
    <line x1="399.91" y1="540.00" x2="399.91" y2="60.00"/>
    <line x1="463.93" y1="540.00" x2="463.93" y2="60.00"/>
    <line x1="527.95" y1="540.00" x2="527.95" y2="60.00"/>
    <line x1="591.96" y1="540.00" x2="591.96" y2="60.00"/>
    <line x1="655.98" y1="540.00" x2="655.98" y2="60.00"/>
    <line x1="720.00" y1="540.00" x2="720.00" y2="60.00"/>
    <line x1="80.00" y1="540.03" x2="720.00" y2="540.03"/>
    <line x1="80.00" y1="492.02" x2="720.00" y2="492.02"/>
    <line x1="80.00" y1="444.01" x2="720.00" y2="444.01"/>
    <line x1="80.00" y1="395.99" x2="720.00" y2="395.99"/>
    <line x1="80.00" y1="347.98" x2="720.00" y2="347.98"/>
    <line x1="80.00" y1="299.97" x2="720.00" y2="299.97"/>
    <line x1="80.00" y1="251.95" x2="720.00" y2="251.95"/>
    <line x1="80.00" y1="203.94" x2="720.00" y2="203.94"/>
    <line x1="80.00" y1="155.92" x2="720.00" y2="155.92"/>
    <line x1="80.00" y1="107.91" x2="720.00" y2="107.91"/>
    <line x1="80.00" y1="59.90" x2="720.00" y2="59.90"/>
  </g>
  <g stroke="#e8e8e8" stroke-width="0.5">
    <line x1="92.63" y1="540.00" x2="92.63" y2="60.00"/>
    <line x1="105.43" y1="540.00" x2="105.43" y2="60.00"/>
    <line x1="118.23" y1="540.00" x2="118.23" y2="60.00"/>
    <line x1="131.04" y1="540.00" x2="131.04" y2="60.00"/>
    <line x1="156.64" y1="540.00" x2="156.64" y2="60.00"/>
    <line x1="169.45" y1="540.00" x2="169.45" y2="60.00"/>
    <line x1="182.25" y1="540.00" x2="182.25" y2="60.00"/>
    <line x1="195.05" y1="540.00" x2="195.05" y2="60.00"/>
    <line x1="220.66" y1="540.00" x2="220.66" y2="60.00"/>
    <line x1="233.46" y1="540.00" x2="233.46" y2="60.00"/>
    <line x1="246.27" y1="540.00" x2="246.27" y2="60.00"/>
    <line x1="259.07" y1="540.00" x2="259.07" y2="60.00"/>
    <line x1="284.68" y1="540.00" x2="284.68" y2="60.00"/>
    <line x1="297.48" y1="540.00" x2="297.48" y2="60.00"/>
    <line x1="310.29" y1="540.00" x2="310.29" y2="60.00"/>
    <line x1="323.09" y1="540.00" x2="323.09" y2="60.00"/>
    <line x1="348.70" y1="540.00" x2="348.70" y2="60.00"/>
    <line x1="361.50" y1="540.00" x2="361.50" y2="60.00"/>
    <line x1="374.30" y1="540.00" x2="374.30" y2="60.00"/>
    <line x1="387.11" y1="540.00" x2="387.11" y2="60.00"/>
    <line x1="412.71" y1="540.00" x2="412.71" y2="60.00"/>
    <line x1="425.52" y1="540.00" x2="425.52" y2="60.00"/>
    <line x1="438.32" y1="540.00" x2="438.32" y2="60.00"/>
    <line x1="451.13" y1="540.00" x2="451.13" y2="60.00"/>
    <line x1="476.73" y1="540.00" x2="476.73" y2="60.00"/>
    <line x1="489.54" y1="540.00" x2="489.54" y2="60.00"/>
    <line x1="502.34" y1="540.00" x2="502.34" y2="60.00"/>
    <line x1="515.14" y1="540.00" x2="515.14" y2="60.00"/>
    <line x1="540.75" y1="540.00" x2="540.75" y2="60.00"/>
    <line x1="553.55" y1="540.00" x2="553.55" y2="60.00"/>
    <line x1="566.36" y1="540.00" x2="566.36" y2="60.00"/>
    <line x1="579.16" y1="540.00" x2="579.16" y2="60.00"/>
    <line x1="604.77" y1="540.00" x2="604.77" y2="60.00"/>
    <line x1="617.57" y1="540.00" x2="617.57" y2="60.00"/>
    <line x1="630.38" y1="540.00" x2="630.38" y2="60.00"/>
    <line x1="643.18" y1="540.00" x2="643.18" y2="60.00"/>
    <line x1="668.79" y1="540.00" x2="668.79" y2="60.00"/>
    <line x1="681.59" y1="540.00" x2="681.59" y2="60.00"/>
    <line x1="694.39" y1="540.00" x2="694.39" y2="60.00"/>
    <line x1="707.20" y1="540.00" x2="707.20" y2="60.00"/>
    <line x1="80.00" y1="530.43" x2="720.00" y2="530.43"/>
    <line x1="80.00" y1="520.83" x2="720.00" y2="520.83"/>
    <line x1="80.00" y1="511.23" x2="720.00" y2="511.23"/>
    <line x1="80.00" y1="501.62" x2="720.00" y2="501.62"/>
    <line x1="80.00" y1="482.42" x2="720.00" y2="482.42"/>
    <line x1="80.00" y1="472.81" x2="720.00" y2="472.81"/>
    <line x1="80.00" y1="463.21" x2="720.00" y2="463.21"/>
    <line x1="80.00" y1="453.61" x2="720.00" y2="453.61"/>
    <line x1="80.00" y1="434.40" x2="720.00" y2="434.40"/>
    <line x1="80.00" y1="424.80" x2="720.00" y2="424.80"/>
    <line x1="80.00" y1="415.20" x2="720.00" y2="415.20"/>
    <line x1="80.00" y1="405.60" x2="720.00" y2="405.60"/>
    <line x1="80.00" y1="386.39" x2="720.00" y2="386.39"/>
    <line x1="80.00" y1="376.79" x2="720.00" y2="376.79"/>
    <line x1="80.00" y1="367.18" x2="720.00" y2="367.18"/>
    <line x1="80.00" y1="357.58" x2="720.00" y2="357.58"/>
    <line x1="80.00" y1="338.38" x2="720.00" y2="338.38"/>
    <line x1="80.00" y1="328.77" x2="720.00" y2="328.77"/>
    <line x1="80.00" y1="319.17" x2="720.00" y2="319.17"/>
    <line x1="80.00" y1="309.57" x2="720.00" y2="309.57"/>
    <line x1="80.00" y1="290.36" x2="720.00" y2="290.36"/>
    <line x1="80.00" y1="280.76" x2="720.00" y2="280.76"/>
    <line x1="80.00" y1="271.16" x2="720.00" y2="271.16"/>
    <line x1="80.00" y1="261.55" x2="720.00" y2="261.55"/>
    <line x1="80.00" y1="242.35" x2="720.00" y2="242.35"/>
    <line x1="80.00" y1="232.75" x2="720.00" y2="232.75"/>
    <line x1="80.00" y1="223.14" x2="720.00" y2="223.14"/>
    <line x1="80.00" y1="213.54" x2="720.00" y2="213.54"/>
    <line x1="80.00" y1="194.34" x2="720.00" y2="194.34"/>
    <line x1="80.00" y1="184.73" x2="720.00" y2="184.73"/>
    <line x1="80.00" y1="175.13" x2="720.00" y2="175.13"/>
    <line x1="80.00" y1="165.53" x2="720.00" y2="165.53"/>
    <line x1="80.00" y1="146.32" x2="720.00" y2="146.32"/>
    <line x1="80.00" y1="136.72" x2="720.00" y2="136.72"/>
    <line x1="80.00" y1="127.12" x2="720.00" y2="127.12"/>
    <line x1="80.00" y1="117.51" x2="720.00" y2="117.51"/>
    <line x1="80.00" y1="98.31" x2="720.00" y2="98.31"/>
    <line x1="80.00" y1="88.71" x2="720.00" y2="88.71"/>
    <line x1="80.00" y1="79.10" x2="720.00" y2="79.10"/>
    <line x1="80.00" y1="69.50" x2="720.00" y2="69.50"/>
  </g>
  <g stroke="#808080" stroke-width="2">
    <line x1="399.91" y1="540.00" x2="399.91" y2="60.00"/>
    <line x1="80.00" y1="299.97" x2="720.00" y2="299.97"/>
  </g>
  <polyline fill="none" stroke="#0066cc" stroke-width="2" points="719.97,296.95 718.65,277.92 715.31,259.04 709.99,240.41 702.72,222.16 693.54,204.40 682.51,187.23 669.71,170.78 655.20,155.14 639.08,140.42 621.46,126.70 602.45,114.07 582.16,102.61 560.72,92.39 538.27,83.48 514.95,75.94 490.90,69.80 466.28,65.11 441.24,61.91 415.94,60.20 390.54,60.00 365.20,61.31 340.08,64.13 315.34,68.43 291.13,74.19 267.60,81.37 244.90,89.92 223.19,99.80 202.58,110.94 183.22,123.27 165.22,136.72 148.70,151.19 133.76,166.59 120.50,182.84 109.00,199.83 99.33,217.44 91.55,235.58 85.71,254.12 81.85,272.95 80.00,291.95 80.16,311.00 82.33,329.98 86.51,348.77 92.65,367.25 100.73,385.31 110.70,402.84 122.48,419.71 136.02,435.83 151.21,451.10 167.97,465.41 186.20,478.69 205.76,490.83 226.55,501.78 248.44,511.45 271.27,519.79 294.92,526.75 319.22,532.28 344.04,536.35 369.20,538.93 394.56,540.00 419.96,539.56 445.23,537.62 470.21,534.17 494.75,529.25 518.69,522.89 541.88,515.13 564.18,506.01 585.45,495.59 605.55,483.94 624.35,471.13 641.74,457.24 657.61,442.37 671.85,426.60 684.38,410.02 695.12,392.76 704.00,374.91 710.97,356.59 715.98,337.92 718.99,319.00 720.00,299.97 "/>
</svg>
