<?xml version="1.0" encoding="UTF-8"?>
<svg xmlns="http://www.w3.org/2000/svg" width="800" height="600">
  <title>R=t</title>
  <rect width="800" height="600" fill="#ffffff"/>
  <g stroke="#d0d0d0" stroke-width="1">
    <line x1="32.42" y1="540.00" x2="32.42" y2="60.00"/>
    <line x1="99.28" y1="540.00" x2="99.28" y2="60.00"/>
    <line x1="166.15" y1="540.00" x2="166.15" y2="60.00"/>
    <line x1="233.01" y1="540.00" x2="233.01" y2="60.00"/>
    <line x1="299.88" y1="540.00" x2="299.88" y2="60.00"/>
    <line x1="366.74" y1="540.00" x2="366.74" y2="60.00"/>
    <line x1="433.61" y1="540.00" x2="433.61" y2="60.00"/>
    <line x1="500.47" y1="540.00" x2="500.47" y2="60.00"/>
    <line x1="567.34" y1="540.00" x2="567.34" y2="60.00"/>
    <line x1="634.20" y1="540.00" x2="634.20" y2="60.00"/>
    <line x1="701.06" y1="540.00" x2="701.06" y2="60.00"/>
    <line x1="767.93" y1="540.00" x2="767.93" y2="60.00"/>
    <line x1="80.00" y1="553.51" x2="720.00" y2="553.51"/>
    <line x1="80.00" y1="481.13" x2="720.00" y2="481.13"/>
    <line x1="80.00" y1="408.75" x2="720.00" y2="408.75"/>
    <line x1="80.00" y1="336.37" x2="720.00" y2="336.37"/>
    <line x1="80.00" y1="263.99" x2="720.00" y2="263.99"/>
    <line x1="80.00" y1="191.61" x2="720.00" y2="191.61"/>
    <line x1="80.00" y1="119.23" x2="720.00" y2="119.23"/>
    <line x1="80.00" y1="46.85" x2="720.00" y2="46.85"/>
  </g>
  <g stroke="#e8e8e8" stroke-width="0.5">
    <line x1="85.91" y1="540.00" x2="85.91" y2="60.00"/>
    <line x1="112.65" y1="540.00" x2="112.65" y2="60.00"/>
    <line x1="126.03" y1="540.00" x2="126.03" y2="60.00"/>
    <line x1="139.40" y1="540.00" x2="139.40" y2="60.00"/>
    <line x1="152.77" y1="540.00" x2="152.77" y2="60.00"/>
    <line x1="179.52" y1="540.00" x2="179.52" y2="60.00"/>
    <line x1="192.89" y1="540.00" x2="192.89" y2="60.00"/>
    <line x1="206.27" y1="540.00" x2="206.27" y2="60.00"/>
    <line x1="219.64" y1="540.00" x2="219.64" y2="60.00"/>
    <line x1="246.38" y1="540.00" x2="246.38" y2="60.00"/>
    <line x1="259.76" y1="540.00" x2="259.76" y2="60.00"/>
    <line x1="273.13" y1="540.00" x2="273.13" y2="60.00"/>
    <line x1="286.50" y1="540.00" x2="286.50" y2="60.00"/>
    <line x1="313.25" y1="540.00" x2="313.25" y2="60.00"/>
    <line x1="326.62" y1="540.00" x2="326.62" y2="60.00"/>
    <line x1="340.00" y1="540.00" x2="340.00" y2="60.00"/>
    <line x1="353.37" y1="540.00" x2="353.37" y2="60.00"/>
    <line x1="380.11" y1="540.00" x2="380.11" y2="60.00"/>
    <line x1="393.49" y1="540.00" x2="393.49" y2="60.00"/>
    <line x1="406.86" y1="540.00" x2="406.86" y2="60.00"/>
    <line x1="420.23" y1="540.00" x2="420.23" y2="60.00"/>
    <line x1="446.98" y1="540.00" x2="446.98" y2="60.00"/>
    <line x1="460.35" y1="540.00" x2="460.35" y2="60.00"/>
    <line x1="473.72" y1="540.00" x2="473.72" y2="60.00"/>
    <line x1="487.10" y1="540.00" x2="487.10" y2="60.00"/>
    <line x1="513.84" y1="540.00" x2="513.84" y2="60.00"/>
    <line x1="527.22" y1="540.00" x2="527.22" y2="60.00"/>
    <line x1="540.59" y1="540.00" x2="540.59" y2="60.00"/>
    <line x1="553.96" y1="540.00" x2="553.96" y2="60.00"/>
    <line x1="580.71" y1="540.00" x2="580.71" y2="60.00"/>
    <line x1="594.08" y1="540.00" x2="594.08" y2="60.00"/>
    <line x1="607.45" y1="540.00" x2="607.45" y2="60.00"/>
    <line x1="620.83" y1="540.00" x2="620.83" y2="60.00"/>
    <line x1="647.57" y1="540.00" x2="647.57" y2="60.00"/>
    <line x1="660.95" y1="540.00" x2="660.95" y2="60.00"/>
    <line x1="674.32" y1="540.00" x2="674.32" y2="60.00"/>
    <line x1="687.69" y1="540.00" x2="687.69" y2="60.00"/>
    <line x1="714.44" y1="540.00" x2="714.44" y2="60.00"/>
    <line x1="80.00" y1="539.03" x2="720.00" y2="539.03"/>
    <line x1="80.00" y1="524.56" x2="720.00" y2="524.56"/>
    <line x1="80.00" y1="510.08" x2="720.00" y2="510.08"/>
    <line x1="80.00" y1="495.61" x2="720.00" y2="495.61"/>
    <line x1="80.00" y1="466.65" x2="720.00" y2="466.65"/>
    <line x1="80.00" y1="452.18" x2="720.00" y2="452.18"/>
    <line x1="80.00" y1="437.70" x2="720.00" y2="437.70"/>
    <line x1="80.00" y1="423.23" x2="720.00" y2="423.23"/>
    <line x1="80.00" y1="394.27" x2="720.00" y2="394.27"/>
    <line x1="80.00" y1="379.80" x2="720.00" y2="379.80"/>
    <line x1="80.00" y1="365.32" x2="720.00" y2="365.32"/>
    <line x1="80.00" y1="350.85" x2="720.00" y2="350.85"/>
    <line x1="80.00" y1="321.89" x2="720.00" y2="321.89"/>
    <line x1="80.00" y1="307.42" x2="720.00" y2="307.42"/>
    <line x1="80.00" y1="292.94" x2="720.00" y2="292.94"/>
    <line x1="80.00" y1="278.47" x2="720.00" y2="278.47"/>
    <line x1="80.00" y1="249.51" x2="720.00" y2="249.51"/>
    <line x1="80.00" y1="235.04" x2="720.00" y2="235.04"/>
    <line x1="80.00" y1="220.56" x2="720.00" y2="220.56"/>
    <line x1="80.00" y1="206.09" x2="720.00" y2="206.09"/>
    <line x1="80.00" y1="177.14" x2="720.00" y2="177.14"/>
    <line x1="80.00" y1="162.66" x2="720.00" y2="162.66"/>
    <line x1="80.00" y1="148.18" x2="720.00" y2="148.18"/>
    <line x1="80.00" y1="133.71" x2="720.00" y2="133.71"/>
    <line x1="80.00" y1="104.76" x2="720.00" y2="104.76"/>
    <line x1="80.00" y1="90.28" x2="720.00" y2="90.28"/>
    <line x1="80.00" y1="75.80" x2="720.00" y2="75.80"/>
    <line x1="80.00" y1="61.33" x2="720.00" y2="61.33"/>
  </g>
  <g stroke="#808080" stroke-width="2">
    <line x1="299.88" y1="540.00" x2="299.88" y2="60.00"/>
    <line x1="80.00" y1="191.61" x2="720.00" y2="191.61"/>
  </g>
  <polyline fill="none" stroke="#0066cc" stroke-width="2" points="300.72,191.60 306.00,191.00 311.16,189.50 316.11,187.11 320.75,183.87 324.99,179.81 328.73,175.00 331.90,169.48 334.41,163.34 336.20,156.64 337.19,149.49 337.35,141.97 336.62,134.19 334.96,126.25 332.36,118.26 328.79,110.34 324.25,102.61 318.76,95.18 312.32,88.16 304.97,81.68 296.75,75.85 287.70,70.77 277.89,66.55 267.40,63.29 256.30,61.08 244.68,60.00 232.65,60.13 220.30,61.52 207.74,64.24 195.11,68.32 182.52,73.79 170.09,80.67 157.96,88.97 146.26,98.67 135.11,109.75 124.65,122.18 115.00,135.90 106.29,150.84 98.64,166.94 92.16,184.10 86.97,202.21 83.15,221.17 80.80,240.85 80.00,261.11 80.82,281.80 83.32,302.78 87.55,323.89 93.53,344.95 101.29,365.79 110.83,386.25 122.14,406.14 135.19,425.29 149.95,443.51 166.36,460.65 184.36,476.52 203.85,490.97 224.74,503.83 246.92,514.95 270.27,524.20 294.63,531.44 319.87,536.55 345.83,539.43 372.33,540.00 399.19,538.17 426.23,533.89 453.26,527.12 480.08,517.83 506.48,506.01 532.27,491.69 557.24,474.90 581.19,455.68 603.92,434.11 625.24,410.28 644.95,384.30 662.87,356.30 678.83,326.41 692.67,294.82 704.24,261.69 713.39,227.22 720.00,191.61 "/>
</svg>
