<?xml version="1.0" encoding="UTF-8"?>
<svg xmlns="http://www.w3.org/2000/svg" width="800" height="600">
  <title>R=sin(2*t)</title>
  <rect width="800" height="600" fill="#ffffff"/>
  <g stroke="#d0d0d0" stroke-width="1">
    <line x1="-16.01" y1="540.00" x2="-16.01" y2="60.00"/>
    <line x1="400.25" y1="540.00" x2="400.25" y2="60.00"/>
    <line x1="816.50" y1="540.00" x2="816.50" y2="60.00"/>
    <line x1="80.00" y1="612.55" x2="720.00" y2="612.55"/>
    <line x1="80.00" y1="300.34" x2="720.00" y2="300.34"/>
    <line x1="80.00" y1="-11.88" x2="720.00" y2="-11.88"/>
  </g>
  <g stroke="#e8e8e8" stroke-width="0.5">
    <line x1="150.49" y1="540.00" x2="150.49" y2="60.00"/>
    <line x1="233.74" y1="540.00" x2="233.74" y2="60.00"/>
    <line x1="316.99" y1="540.00" x2="316.99" y2="60.00"/>
    <line x1="483.50" y1="540.00" x2="483.50" y2="60.00"/>
    <line x1="566.75" y1="540.00" x2="566.75" y2="60.00"/>
    <line x1="650.00" y1="540.00" x2="650.00" y2="60.00"/>
    <line x1="80.00" y1="487.66" x2="720.00" y2="487.66"/>
    <line x1="80.00" y1="425.22" x2="720.00" y2="425.22"/>
    <line x1="80.00" y1="362.78" x2="720.00" y2="362.78"/>
    <line x1="80.00" y1="237.89" x2="720.00" y2="237.89"/>
    <line x1="80.00" y1="175.45" x2="720.00" y2="175.45"/>
    <line x1="80.00" y1="113.01" x2="720.00" y2="113.01"/>
  </g>
  <g stroke="#808080" stroke-width="2">
    <line x1="400.25" y1="540.00" x2="400.25" y2="60.00"/>
    <line x1="80.00" y1="300.34" x2="720.00" y2="300.34"/>
  </g>
  <polyline fill="none" stroke="#0066cc" stroke-width="2" points="410.70,300.24 476.03,295.10 538.05,282.45 594.06,263.11 641.72,238.28 679.14,209.56 704.97,178.77 718.51,147.94 719.69,119.11 709.15,94.26 688.11,75.20 658.35,63.42 622.11,60.06 581.92,65.81 540.51,80.86 500.58,104.91 464.74,137.18 435.26,176.43 414.01,221.05 402.33,269.14 400.96,318.59 409.98,367.25 428.82,412.97 456.30,453.80 490.68,488.04 529.77,514.35 571.06,531.81 611.83,540.00 649.36,538.99 681.06,529.33 704.58,512.05 718.02,488.55 720.00,460.58 709.73,430.08 687.08,399.08 652.60,369.62 607.47,343.61 553.43,322.69 492.75,308.19 428.02,301.03 362.07,301.65 297.79,310.02 238.00,325.60 185.24,347.43 141.68,374.10 109.01,403.94 88.31,434.99 80.00,465.23 83.86,492.62 99.01,515.24 123.96,531.40 156.74,539.74 194.97,539.32 236.01,529.66 277.12,510.75 315.63,483.12 349.05,447.74 375.27,406.01 392.62,359.69 400.01,310.76 396.99,261.38 383.73,213.71 361.07,169.82 330.45,131.57 293.79,100.53 253.46,77.86 212.05,64.28 172.31,60.00 136.94,64.75 108.42,77.76 88.93,97.85 80.18,123.45 83.30,152.74 98.80,183.70 126.53,214.29 165.67,242.52 214.80,266.57 271.93,284.93 334.65,296.42 400.25,300.34 "/>
</svg>
