<?xml version="1.0" encoding="UTF-8"?>
<svg xmlns="http://www.w3.org/2000/svg" width="800" height="600">
  <title>X=3*cos(t);Y=3*sin(t)</title>
  <rect width="800" height="600" fill="#ffffff"/>
  <g stroke="#d0d0d0" stroke-width="1">
    <line x1="-33.22" y1="540.00" x2="-33.22" y2="60.00"/>
    <line x1="117.43" y1="540.00" x2="117.43" y2="60.00"/>
    <line x1="268.07" y1="540.00" x2="268.07" y2="60.00"/>
    <line x1="418.71" y1="540.00" x2="418.71" y2="60.00"/>
    <line x1="569.36" y1="540.00" x2="569.36" y2="60.00"/>
    <line x1="720.00" y1="540.00" x2="720.00" y2="60.00"/>
    <line x1="80.00" y1="540.00" x2="720.00" y2="540.00"/>
    <line x1="80.00" y1="380.00" x2="720.00" y2="380.00"/>
    <line x1="80.00" y1="220.00" x2="720.00" y2="220.00"/>
    <line x1="80.00" y1="60.00" x2="720.00" y2="60.00"/>
  </g>
  <g stroke="#e8e8e8" stroke-width="0.5">
    <line x1="87.30" y1="540.00" x2="87.30" y2="60.00"/>
    <line x1="147.55" y1="540.00" x2="147.55" y2="60.00"/>
    <line x1="177.68" y1="540.00" x2="177.68" y2="60.00"/>
    <line x1="207.81" y1="540.00" x2="207.81" y2="60.00"/>
    <line x1="237.94" y1="540.00" x2="237.94" y2="60.00"/>
    <line x1="298.20" y1="540.00" x2="298.20" y2="60.00"/>
    <line x1="328.33" y1="540.00" x2="328.33" y2="60.00"/>
    <line x1="358.46" y1="540.00" x2="358.46" y2="60.00"/>
    <line x1="388.58" y1="540.00" x2="388.58" y2="60.00"/>
    <line x1="448.84" y1="540.00" x2="448.84" y2="60.00"/>
    <line x1="478.97" y1="540.00" x2="478.97" y2="60.00"/>
    <line x1="509.10" y1="540.00" x2="509.10" y2="60.00"/>
    <line x1="539.23" y1="540.00" x2="539.23" y2="60.00"/>
    <line x1="599.49" y1="540.00" x2="599.49" y2="60.00"/>
    <line x1="629.61" y1="540.00" x2="629.61" y2="60.00"/>
    <line x1="659.74" y1="540.00" x2="659.74" y2="60.00"/>
    <line x1="689.87" y1="540.00" x2="689.87" y2="60.00"/>
    <line x1="80.00" y1="508.00" x2="720.00" y2="508.00"/>
    <line x1="80.00" y1="476.00" x2="720.00" y2="476.00"/>
    <line x1="80.00" y1="444.00" x2="720.00" y2="444.00"/>
    <line x1="80.00" y1="412.00" x2="720.00" y2="412.00"/>
    <line x1="80.00" y1="348.00" x2="720.00" y2="348.00"/>
    <line x1="80.00" y1="316.00" x2="720.00" y2="316.00"/>
    <line x1="80.00" y1="284.00" x2="720.00" y2="284.00"/>
    <line x1="80.00" y1="252.00" x2="720.00" y2="252.00"/>
    <line x1="80.00" y1="188.00" x2="720.00" y2="188.00"/>
    <line x1="80.00" y1="156.00" x2="720.00" y2="156.00"/>
    <line x1="80.00" y1="124.00" x2="720.00" y2="124.00"/>
    <line x1="80.00" y1="92.00" x2="720.00" y2="92.00"/>
  </g>
  <g stroke="#808080" stroke-width="2">
    <line x1="268.07" y1="540.00" x2="268.07" y2="60.00"/>
    <line x1="80.00" y1="540.00" x2="720.00" y2="540.00"/>
  </g>
  <polyline fill="none" stroke="#0066cc" stroke-width="2" points="720.00,540.00 719.86,527.85 719.42,515.71 718.70,503.58 717.68,491.48 716.38,479.40 714.80,467.37 712.92,455.38 710.76,443.45 708.32,431.58 705.59,419.77 702.59,408.05 699.30,396.41 695.74,384.86 691.91,373.41 687.80,362.07 683.43,350.84 678.79,339.74 673.88,328.76 668.72,317.91 663.30,307.21 657.62,296.66 651.70,286.27 645.53,276.03 639.12,265.97 632.47,256.08 625.58,246.38 618.47,236.86 611.13,227.53 603.57,218.41 595.80,209.49 587.82,200.79 579.63,192.30 571.25,184.03 562.67,176.00 553.90,168.19 544.94,160.63 535.81,153.31 526.51,146.23 517.04,139.41 507.42,132.84 497.63,126.54 487.71,120.50 477.64,114.73 467.44,109.23 457.10,104.01 446.65,99.07 436.09,94.41 425.41,90.03 414.64,85.94 403.77,82.15 392.81,78.65 381.78,75.44 370.67,72.53 359.50,69.92 348.26,67.62 336.98,65.61 325.65,63.91 314.29,62.52 302.89,61.43 291.47,60.64 280.04,60.17 268.60,60.00 257.16,60.14 245.73,60.59 234.31,61.34 222.91,62.40 211.54,63.77 200.21,65.44 188.92,67.42 177.68,69.70 166.50,72.28 155.39,75.16 144.35,78.34 133.38,81.81 122.51,85.58 111.72,89.64 101.04,93.99 90.46,98.62 80.00,103.54 "/>
</svg>
