<?xml version="1.0" encoding="UTF-8"?>
<svg xmlns="http://www.w3.org/2000/svg" width="800" height="600">
  <title>Y=1/x:-5,5:</title>
  <rect width="800" height="600" fill="#ffffff"/>
  <g stroke="#d0d0d0" stroke-width="1">
    <line x1="80.00" y1="540.00" x2="80.00" y2="60.00"/>
    <line x1="144.00" y1="540.00" x2="144.00" y2="60.00"/>
    <line x1="208.00" y1="540.00" x2="208.00" y2="60.00"/>
    <line x1="272.00" y1="540.00" x2="272.00" y2="60.00"/>
    <line x1="336.00" y1="540.00" x2="336.00" y2="60.00"/>
    <line x1="400.00" y1="540.00" x2="400.00" y2="60.00"/>
    <line x1="464.00" y1="540.00" x2="464.00" y2="60.00"/>
    <line x1="528.00" y1="540.00" x2="528.00" y2="60.00"/>
    <line x1="592.00" y1="540.00" x2="592.00" y2="60.00"/>
    <line x1="656.00" y1="540.00" x2="656.00" y2="60.00"/>
    <line x1="720.00" y1="540.00" x2="720.00" y2="60.00"/>
    <line x1="80.00" y1="543.04" x2="720.00" y2="543.04"/>
    <line x1="80.00" y1="527.85" x2="720.00" y2="527.85"/>
    <line x1="80.00" y1="512.66" x2="720.00" y2="512.66"/>
    <line x1="80.00" y1="497.47" x2="720.00" y2="497.47"/>
    <line x1="80.00" y1="482.28" x2="720.00" y2="482.28"/>
    <line x1="80.00" y1="467.09" x2="720.00" y2="467.09"/>
    <line x1="80.00" y1="451.90" x2="720.00" y2="451.90"/>
    <line x1="80.00" y1="436.71" x2="720.00" y2="436.71"/>
    <line x1="80.00" y1="421.52" x2="720.00" y2="421.52"/>
    <line x1="80.00" y1="406.33" x2="720.00" y2="406.33"/>
    <line x1="80.00" y1="391.14" x2="720.00" y2="391.14"/>
    <line x1="80.00" y1="375.95" x2="720.00" y2="375.95"/>
    <line x1="80.00" y1="360.76" x2="720.00" y2="360.76"/>
    <line x1="80.00" y1="345.57" x2="720.00" y2="345.57"/>
    <line x1="80.00" y1="330.38" x2="720.00" y2="330.38"/>
    <line x1="80.00" y1="315.19" x2="720.00" y2="315.19"/>
    <line x1="80.00" y1="300.00" x2="720.00" y2="300.00"/>
    <line x1="80.00" y1="284.81" x2="720.00" y2="284.81"/>
    <line x1="80.00" y1="269.62" x2="720.00" y2="269.62"/>
    <line x1="80.00" y1="254.43" x2="720.00" y2="254.43"/>
    <line x1="80.00" y1="239.24" x2="720.00" y2="239.24"/>
    <line x1="80.00" y1="224.05" x2="720.00" y2="224.05"/>
    <line x1="80.00" y1="208.86" x2="720.00" y2="208.86"/>
    <line x1="80.00" y1="193.67" x2="720.00" y2="193.67"/>
    <line x1="80.00" y1="178.48" x2="720.00" y2="178.48"/>
    <line x1="80.00" y1="163.29" x2="720.00" y2="163.29"/>
    <line x1="80.00" y1="148.10" x2="720.00" y2="148.10"/>
    <line x1="80.00" y1="132.91" x2="720.00" y2="132.91"/>
    <line x1="80.00" y1="117.72" x2="720.00" y2="117.72"/>
    <line x1="80.00" y1="102.53" x2="720.00" y2="102.53"/>
    <line x1="80.00" y1="87.34" x2="720.00" y2="87.34"/>
    <line x1="80.00" y1="72.15" x2="720.00" y2="72.15"/>
    <line x1="80.00" y1="56.96" x2="720.00" y2="56.96"/>
  </g>
  <g stroke="#e8e8e8" stroke-width="0.5">
    <line x1="92.80" y1="540.00" x2="92.80" y2="60.00"/>
    <line x1="105.60" y1="540.00" x2="105.60" y2="60.00"/>
    <line x1="118.40" y1="540.00" x2="118.40" y2="60.00"/>
    <line x1="131.20" y1="540.00" x2="131.20" y2="60.00"/>
    <line x1="156.80" y1="540.00" x2="156.80" y2="60.00"/>
    <line x1="169.60" y1="540.00" x2="169.60" y2="60.00"/>
    <line x1="182.40" y1="540.00" x2="182.40" y2="60.00"/>
    <line x1="195.20" y1="540.00" x2="195.20" y2="60.00"/>
    <line x1="220.80" y1="540.00" x2="220.80" y2="60.00"/>
    <line x1="233.60" y1="540.00" x2="233.60" y2="60.00"/>
    <line x1="246.40" y1="540.00" x2="246.40" y2="60.00"/>
    <line x1="259.20" y1="540.00" x2="259.20" y2="60.00"/>
    <line x1="284.80" y1="540.00" x2="284.80" y2="60.00"/>
    <line x1="297.60" y1="540.00" x2="297.60" y2="60.00"/>
    <line x1="310.40" y1="540.00" x2="310.40" y2="60.00"/>
    <line x1="323.20" y1="540.00" x2="323.20" y2="60.00"/>
    <line x1="348.80" y1="540.00" x2="348.80" y2="60.00"/>
    <line x1="361.60" y1="540.00" x2="361.60" y2="60.00"/>
    <line x1="374.40" y1="540.00" x2="374.40" y2="60.00"/>
    <line x1="387.20" y1="540.00" x2="387.20" y2="60.00"/>
    <line x1="412.80" y1="540.00" x2="412.80" y2="60.00"/>
    <line x1="425.60" y1="540.00" x2="425.60" y2="60.00"/>
    <line x1="438.40" y1="540.00" x2="438.40" y2="60.00"/>
    <line x1="451.20" y1="540.00" x2="451.20" y2="60.00"/>
    <line x1="476.80" y1="540.00" x2="476.80" y2="60.00"/>
    <line x1="489.60" y1="540.00" x2="489.60" y2="60.00"/>
    <line x1="502.40" y1="540.00" x2="502.40" y2="60.00"/>
    <line x1="515.20" y1="540.00" x2="515.20" y2="60.00"/>
    <line x1="540.80" y1="540.00" x2="540.80" y2="60.00"/>
    <line x1="553.60" y1="540.00" x2="553.60" y2="60.00"/>
    <line x1="566.40" y1="540.00" x2="566.40" y2="60.00"/>
    <line x1="579.20" y1="540.00" x2="579.20" y2="60.00"/>
    <line x1="604.80" y1="540.00" x2="604.80" y2="60.00"/>
    <line x1="617.60" y1="540.00" x2="617.60" y2="60.00"/>
    <line x1="630.40" y1="540.00" x2="630.40" y2="60.00"/>
    <line x1="643.20" y1="540.00" x2="643.20" y2="60.00"/>
    <line x1="668.80" y1="540.00" x2="668.80" y2="60.00"/>
    <line x1="681.60" y1="540.00" x2="681.60" y2="60.00"/>
    <line x1="694.40" y1="540.00" x2="694.40" y2="60.00"/>
    <line x1="707.20" y1="540.00" x2="707.20" y2="60.00"/>
    <line x1="80.00" y1="540.00" x2="720.00" y2="540.00"/>
    <line x1="80.00" y1="536.96" x2="720.00" y2="536.96"/>
    <line x1="80.00" y1="533.92" x2="720.00" y2="533.92"/>
    <line x1="80.00" y1="530.89" x2="720.00" y2="530.89"/>
    <line x1="80.00" y1="524.81" x2="720.00" y2="524.81"/>
    <line x1="80.00" y1="521.77" x2="720.00" y2="521.77"/>
    <line x1="80.00" y1="518.73" x2="720.00" y2="518.73"/>
    <line x1="80.00" y1="515.70" x2="720.00" y2="515.70"/>
    <line x1="80.00" y1="509.62" x2="720.00" y2="509.62"/>
    <line x1="80.00" y1="506.58" x2="720.00" y2="506.58"/>
    <line x1="80.00" y1="503.54" x2="720.00" y2="503.54"/>
    <line x1="80.00" y1="500.51" x2="720.00" y2="500.51"/>
    <line x1="80.00" y1="494.43" x2="720.00" y2="494.43"/>
    <line x1="80.00" y1="491.39" x2="720.00" y2="491.39"/>
    <line x1="80.00" y1="488.35" x2="720.00" y2="488.35"/>
    <line x1="80.00" y1="485.32" x2="720.00" y2="485.32"/>
    <line x1="80.00" y1="479.24" x2="720.00" y2="479.24"/>
    <line x1="80.00" y1="476.20" x2="720.00" y2="476.20"/>
    <line x1="80.00" y1="473.16" x2="720.00" y2="473.16"/>
    <line x1="80.00" y1="470.13" x2="720.00" y2="470.13"/>
    <line x1="80.00" y1="464.05" x2="720.00" y2="464.05"/>
    <line x1="80.00" y1="461.01" x2="720.00" y2="461.01"/>
    <line x1="80.00" y1="457.97" x2="720.00" y2="457.97"/>
    <line x1="80.00" y1="454.94" x2="720.00" y2="454.94"/>
    <line x1="80.00" y1="448.86" x2="720.00" y2="448.86"/>
    <line x1="80.00" y1="445.82" x2="720.00" y2="445.82"/>
    <line x1="80.00" y1="442.78" x2="720.00" y2="442.78"/>
    <line x1="80.00" y1="439.75" x2="720.00" y2="439.75"/>
    <line x1="80.00" y1="433.67" x2="720.00" y2="433.67"/>
    <line x1="80.00" y1="430.63" x2="720.00" y2="430.63"/>
    <line x1="80.00" y1="427.59" x2="720.00" y2="427.59"/>
    <line x1="80.00" y1="424.56" x2="720.00" y2="424.56"/>
    <line x1="80.00" y1="418.48" x2="720.00" y2="418.48"/>
    <line x1="80.00" y1="415.44" x2="720.00" y2="415.44"/>
    <line x1="80.00" y1="412.41" x2="720.00" y2="412.41"/>
    <line x1="80.00" y1="409.37" x2="720.00" y2="409.37"/>
    <line x1="80.00" y1="403.29" x2="720.00" y2="403.29"/>
    <line x1="80.00" y1="400.25" x2="720.00" y2="400.25"/>
    <line x1="80.00" y1="397.22" x2="720.00" y2="397.22"/>
    <line x1="80.00" y1="394.18" x2="720.00" y2="394.18"/>
    <line x1="80.00" y1="388.10" x2="720.00" y2="388.10"/>
    <line x1="80.00" y1="385.06" x2="720.00" y2="385.06"/>
    <line x1="80.00" y1="382.03" x2="720.00" y2="382.03"/>
    <line x1="80.00" y1="378.99" x2="720.00" y2="378.99"/>
    <line x1="80.00" y1="372.91" x2="720.00" y2="372.91"/>
    <line x1="80.00" y1="369.87" x2="720.00" y2="369.87"/>
    <line x1="80.00" y1="366.84" x2="720.00" y2="366.84"/>
    <line x1="80.00" y1="363.80" x2="720.00" y2="363.80"/>
    <line x1="80.00" y1="357.72" x2="720.00" y2="357.72"/>
    <line x1="80.00" y1="354.68" x2="720.00" y2="354.68"/>
    <line x1="80.00" y1="351.65" x2="720.00" y2="351.65"/>
    <line x1="80.00" y1="348.61" x2="720.00" y2="348.61"/>
    <line x1="80.00" y1="342.53" x2="720.00" y2="342.53"/>
    <line x1="80.00" y1="339.49" x2="720.00" y2="339.49"/>
    <line x1="80.00" y1="336.46" x2="720.00" y2="336.46"/>
    <line x1="80.00" y1="333.42" x2="720.00" y2="333.42"/>
    <line x1="80.00" y1="327.34" x2="720.00" y2="327.34"/>
    <line x1="80.00" y1="324.30" x2="720.00" y2="324.30"/>
    <line x1="80.00" y1="321.27" x2="720.00" y2="321.27"/>
    <line x1="80.00" y1="318.23" x2="720.00" y2="318.23"/>
    <line x1="80.00" y1="312.15" x2="720.00" y2="312.15"/>
    <line x1="80.00" y1="309.11" x2="720.00" y2="309.11"/>
    <line x1="80.00" y1="306.08" x2="720.00" y2="306.08"/>
    <line x1="80.00" y1="303.04" x2="720.00" y2="303.04"/>
    <line x1="80.00" y1="296.96" x2="720.00" y2="296.96"/>
    <line x1="80.00" y1="293.92" x2="720.00" y2="293.92"/>
    <line x1="80.00" y1="290.89" x2="720.00" y2="290.89"/>
    <line x1="80.00" y1="287.85" x2="720.00" y2="287.85"/>
    <line x1="80.00" y1="281.77" x2="720.00" y2="281.77"/>
    <line x1="80.00" y1="278.73" x2="720.00" y2="278.73"/>
    <line x1="80.00" y1="275.70" x2="720.00" y2="275.70"/>
    <line x1="80.00" y1="272.66" x2="720.00" y2="272.66"/>
    <line x1="80.00" y1="266.58" x2="720.00" y2="266.58"/>
    <line x1="80.00" y1="263.54" x2="720.00" y2="263.54"/>
    <line x1="80.00" y1="260.51" x2="720.00" y2="260.51"/>
    <line x1="80.00" y1="257.47" x2="720.00" y2="257.47"/>
    <line x1="80.00" y1="251.39" x2="720.00" y2="251.39"/>
    <line x1="80.00" y1="248.35" x2="720.00" y2="248.35"/>
    <line x1="80.00" y1="245.32" x2="720.00" y2="245.32"/>
    <line x1="80.00" y1="242.28" x2="720.00" y2="242.28"/>
    <line x1="80.00" y1="236.20" x2="720.00" y2="236.20"/>
    <line x1="80.00" y1="233.16" x2="720.00" y2="233.16"/>
    <line x1="80.00" y1="230.13" x2="720.00" y2="230.13"/>
    <line x1="80.00" y1="227.09" x2="720.00" y2="227.09"/>
    <line x1="80.00" y1="221.01" x2="720.00" y2="221.01"/>
    <line x1="80.00" y1="217.97" x2="720.00" y2="217.97"/>
    <line x1="80.00" y1="214.94" x2="720.00" y2="214.94"/>
    <line x1="80.00" y1="211.90" x2="720.00" y2="211.90"/>
    <line x1="80.00" y1="205.82" x2="720.00" y2="205.82"/>
    <line x1="80.00" y1="202.78" x2="720.00" y2="202.78"/>
    <line x1="80.00" y1="199.75" x2="720.00" y2="199.75"/>
    <line x1="80.00" y1="196.71" x2="720.00" y2="196.71"/>
    <line x1="80.00" y1="190.63" x2="720.00" y2="190.63"/>
    <line x1="80.00" y1="187.59" x2="720.00" y2="187.59"/>
    <line x1="80.00" y1="184.56" x2="720.00" y2="184.56"/>
    <line x1="80.00" y1="181.52" x2="720.00" y2="181.52"/>
    <line x1="80.00" y1="175.44" x2="720.00" y2="175.44"/>
    <line x1="80.00" y1="172.41" x2="720.00" y2="172.41"/>
    <line x1="80.00" y1="169.37" x2="720.00" y2="169.37"/>
    <line x1="80.00" y1="166.33" x2="720.00" y2="166.33"/>
    <line x1="80.00" y1="160.25" x2="720.00" y2="160.25"/>
    <line x1="80.00" y1="157.22" x2="720.00" y2="157.22"/>
    <line x1="80.00" y1="154.18" x2="720.00" y2="154.18"/>
    <line x1="80.00" y1="151.14" x2="720.00" y2="151.14"/>
    <line x1="80.00" y1="145.06" x2="720.00" y2="145.06"/>
    <line x1="80.00" y1="142.03" x2="720.00" y2="142.03"/>
    <line x1="80.00" y1="138.99" x2="720.00" y2="138.99"/>
    <line x1="80.00" y1="135.95" x2="720.00" y2="135.95"/>
    <line x1="80.00" y1="129.87" x2="720.00" y2="129.87"/>
    <line x1="80.00" y1="126.84" x2="720.00" y2="126.84"/>
    <line x1="80.00" y1="123.80" x2="720.00" y2="123.80"/>
    <line x1="80.00" y1="120.76" x2="720.00" y2="120.76"/>
    <line x1="80.00" y1="114.68" x2="720.00" y2="114.68"/>
    <line x1="80.00" y1="111.65" x2="720.00" y2="111.65"/>
    <line x1="80.00" y1="108.61" x2="720.00" y2="108.61"/>
    <line x1="80.00" y1="105.57" x2="720.00" y2="105.57"/>
    <line x1="80.00" y1="99.49" x2="720.00" y2="99.49"/>
    <line x1="80.00" y1="96.46" x2="720.00" y2="96.46"/>
    <line x1="80.00" y1="93.42" x2="720.00" y2="93.42"/>
    <line x1="80.00" y1="90.38" x2="720.00" y2="90.38"/>
    <line x1="80.00" y1="84.30" x2="720.00" y2="84.30"/>
    <line x1="80.00" y1="81.27" x2="720.00" y2="81.27"/>
    <line x1="80.00" y1="78.23" x2="720.00" y2="78.23"/>
    <line x1="80.00" y1="75.19" x2="720.00" y2="75.19"/>
    <line x1="80.00" y1="69.11" x2="720.00" y2="69.11"/>
    <line x1="80.00" y1="66.08" x2="720.00" y2="66.08"/>
    <line x1="80.00" y1="63.04" x2="720.00" y2="63.04"/>
    <line x1="80.00" y1="60.00" x2="720.00" y2="60.00"/>
  </g>
  <g stroke="#808080" stroke-width="2">
    <line x1="400.00" y1="540.00" x2="400.00" y2="60.00"/>
    <line x1="80.00" y1="300.00" x2="720.00" y2="300.00"/>
  </g>
  <polyline fill="none" stroke="#0066cc" stroke-width="2" points="80.00,303.04 88.10,303.12 96.20,303.20 104.30,303.29 112.41,303.38 120.51,303.48 128.61,303.58 136.71,303.69 144.81,303.81 152.91,303.93 161.01,304.07 169.11,304.21 177.22,304.36 185.32,304.53 193.42,304.71 201.52,304.90 209.62,305.11 217.72,305.33 225.82,305.58 233.92,305.85 242.03,306.15 250.13,306.49 258.23,306.86 266.33,307.27 274.43,307.74 282.53,308.28 290.63,308.89 298.73,309.60 306.84,310.43 314.94,311.43 323.04,312.63 331.14,314.12 339.24,316.00 347.34,318.46 355.44,321.82 363.54,326.67 371.65,334.29 379.75,348.00 387.85,380.00 395.95,540.00 404.05,60.00 412.15,220.00 420.25,252.00 428.35,265.71 436.46,273.33 444.56,278.18 452.66,281.54 460.76,284.00 468.86,285.88 476.96,287.37 485.06,288.57 493.16,289.57 501.27,290.40 509.37,291.11 517.47,291.72 525.57,292.26 533.67,292.73 541.77,293.14 549.87,293.51 557.97,293.85 566.08,294.15 574.18,294.42 582.28,294.67 590.38,294.89 598.48,295.10 606.58,295.29 614.68,295.47 622.78,295.64 630.89,295.79 638.99,295.93 647.09,296.07 655.19,296.19 663.29,296.31 671.39,296.42 679.49,296.52 687.59,296.62 695.70,296.71 703.80,296.80 711.90,296.88 720.00,296.96 "/>
</svg>
