<?xml version="1.0" encoding="UTF-8"?>
<svg xmlns="http://www.w3.org/2000/svg" width="800" height="600">
  <title>Y=exp(-x/3)</title>
  <rect width="800" height="600" fill="#ffffff"/>
  <g stroke="#d0d0d0" stroke-width="1">
    <line x1="80.00" y1="540.00" x2="80.00" y2="60.00"/>
    <line x1="112.00" y1="540.00" x2="112.00" y2="60.00"/>
    <line x1="144.00" y1="540.00" x2="144.00" y2="60.00"/>
    <line x1="176.00" y1="540.00" x2="176.00" y2="60.00"/>
    <line x1="208.00" y1="540.00" x2="208.00" y2="60.00"/>
    <line x1="240.00" y1="540.00" x2="240.00" y2="60.00"/>
    <line x1="272.00" y1="540.00" x2="272.00" y2="60.00"/>
    <line x1="304.00" y1="540.00" x2="304.00" y2="60.00"/>
    <line x1="336.00" y1="540.00" x2="336.00" y2="60.00"/>
    <line x1="368.00" y1="540.00" x2="368.00" y2="60.00"/>
    <line x1="400.00" y1="540.00" x2="400.00" y2="60.00"/>
    <line x1="432.00" y1="540.00" x2="432.00" y2="60.00"/>
    <line x1="464.00" y1="540.00" x2="464.00" y2="60.00"/>
    <line x1="496.00" y1="540.00" x2="496.00" y2="60.00"/>
    <line x1="528.00" y1="540.00" x2="528.00" y2="60.00"/>
    <line x1="560.00" y1="540.00" x2="560.00" y2="60.00"/>
    <line x1="592.00" y1="540.00" x2="592.00" y2="60.00"/>
    <line x1="624.00" y1="540.00" x2="624.00" y2="60.00"/>
    <line x1="656.00" y1="540.00" x2="656.00" y2="60.00"/>
    <line x1="688.00" y1="540.00" x2="688.00" y2="60.00"/>
    <line x1="720.00" y1="540.00" x2="720.00" y2="60.00"/>
    <line x1="80.00" y1="540.61" x2="720.00" y2="540.61"/>
    <line x1="80.00" y1="523.47" x2="720.00" y2="523.47"/>
    <line x1="80.00" y1="506.32" x2="720.00" y2="506.32"/>
    <line x1="80.00" y1="489.18" x2="720.00" y2="489.18"/>
    <line x1="80.00" y1="472.03" x2="720.00" y2="472.03"/>
    <line x1="80.00" y1="454.88" x2="720.00" y2="454.88"/>
    <line x1="80.00" y1="437.74" x2="720.00" y2="437.74"/>
    <line x1="80.00" y1="420.59" x2="720.00" y2="420.59"/>
    <line x1="80.00" y1="403.45" x2="720.00" y2="403.45"/>
    <line x1="80.00" y1="386.30" x2="720.00" y2="386.30"/>
    <line x1="80.00" y1="369.16" x2="720.00" y2="369.16"/>
    <line x1="80.00" y1="352.01" x2="720.00" y2="352.01"/>
    <line x1="80.00" y1="334.87" x2="720.00" y2="334.87"/>
    <line x1="80.00" y1="317.72" x2="720.00" y2="317.72"/>
    <line x1="80.00" y1="300.58" x2="720.00" y2="300.58"/>
    <line x1="80.00" y1="283.43" x2="720.00" y2="283.43"/>
    <line x1="80.00" y1="266.29" x2="720.00" y2="266.29"/>
    <line x1="80.00" y1="249.14" x2="720.00" y2="249.14"/>
    <line x1="80.00" y1="232.00" x2="720.00" y2="232.00"/>
    <line x1="80.00" y1="214.85" x2="720.00" y2="214.85"/>
    <line x1="80.00" y1="197.70" x2="720.00" y2="197.70"/>
    <line x1="80.00" y1="180.56" x2="720.00" y2="180.56"/>
    <line x1="80.00" y1="163.41" x2="720.00" y2="163.41"/>
    <line x1="80.00" y1="146.27" x2="720.00" y2="146.27"/>
    <line x1="80.00" y1="129.12" x2="720.00" y2="129.12"/>
    <line x1="80.00" y1="111.98" x2="720.00" y2="111.98"/>
    <line x1="80.00" y1="94.83" x2="720.00" y2="94.83"/>
    <line x1="80.00" y1="77.69" x2="720.00" y2="77.69"/>
    <line x1="80.00" y1="60.54" x2="720.00" y2="60.54"/>
    <line x1="80.00" y1="43.40" x2="720.00" y2="43.40"/>
  </g>
  <g stroke="#e8e8e8" stroke-width="0.5">
    <line x1="86.40" y1="540.00" x2="86.40" y2="60.00"/>
    <line x1="92.80" y1="540.00" x2="92.80" y2="60.00"/>
    <line x1="99.20" y1="540.00" x2="99.20" y2="60.00"/>
    <line x1="105.60" y1="540.00" x2="105.60" y2="60.00"/>
    <line x1="118.40" y1="540.00" x2="118.40" y2="60.00"/>
    <line x1="124.80" y1="540.00" x2="124.80" y2="60.00"/>
    <line x1="131.20" y1="540.00" x2="131.20" y2="60.00"/>
    <line x1="137.60" y1="540.00" x2="137.60" y2="60.00"/>
    <line x1="150.40" y1="540.00" x2="150.40" y2="60.00"/>
    <line x1="156.80" y1="540.00" x2="156.80" y2="60.00"/>
    <line x1="163.20" y1="540.00" x2="163.20" y2="60.00"/>
    <line x1="169.60" y1="540.00" x2="169.60" y2="60.00"/>
    <line x1="182.40" y1="540.00" x2="182.40" y2="60.00"/>
    <line x1="188.80" y1="540.00" x2="188.80" y2="60.00"/>
    <line x1="195.20" y1="540.00" x2="195.20" y2="60.00"/>
    <line x1="201.60" y1="540.00" x2="201.60" y2="60.00"/>
    <line x1="214.40" y1="540.00" x2="214.40" y2="60.00"/>
    <line x1="220.80" y1="540.00" x2="220.80" y2="60.00"/>
    <line x1="227.20" y1="540.00" x2="227.20" y2="60.00"/>
    <line x1="233.60" y1="540.00" x2="233.60" y2="60.00"/>
    <line x1="246.40" y1="540.00" x2="246.40" y2="60.00"/>
    <line x1="252.80" y1="540.00" x2="252.80" y2="60.00"/>
    <line x1="259.20" y1="540.00" x2="259.20" y2="60.00"/>
    <line x1="265.60" y1="540.00" x2="265.60" y2="60.00"/>
    <line x1="278.40" y1="540.00" x2="278.40" y2="60.00"/>
    <line x1="284.80" y1="540.00" x2="284.80" y2="60.00"/>
    <line x1="291.20" y1="540.00" x2="291.20" y2="60.00"/>
    <line x1="297.60" y1="540.00" x2="297.60" y2="60.00"/>
    <line x1="310.40" y1="540.00" x2="310.40" y2="60.00"/>
    <line x1="316.80" y1="540.00" x2="316.80" y2="60.00"/>
    <line x1="323.20" y1="540.00" x2="323.20" y2="60.00"/>
    <line x1="329.60" y1="540.00" x2="329.60" y2="60.00"/>
    <line x1="342.40" y1="540.00" x2="342.40" y2="60.00"/>
    <line x1="348.80" y1="540.00" x2="348.80" y2="60.00"/>
    <line x1="355.20" y1="540.00" x2="355.20" y2="60.00"/>
    <line x1="361.60" y1="540.00" x2="361.60" y2="60.00"/>
    <line x1="374.40" y1="540.00" x2="374.40" y2="60.00"/>
    <line x1="380.80" y1="540.00" x2="380.80" y2="60.00"/>
    <line x1="387.20" y1="540.00" x2="387.20" y2="60.00"/>
    <line x1="393.60" y1="540.00" x2="393.60" y2="60.00"/>
    <line x1="406.40" y1="540.00" x2="406.40" y2="60.00"/>
    <line x1="412.80" y1="540.00" x2="412.80" y2="60.00"/>
    <line x1="419.20" y1="540.00" x2="419.20" y2="60.00"/>
    <line x1="425.60" y1="540.00" x2="425.60" y2="60.00"/>
    <line x1="438.40" y1="540.00" x2="438.40" y2="60.00"/>
    <line x1="444.80" y1="540.00" x2="444.80" y2="60.00"/>
    <line x1="451.20" y1="540.00" x2="451.20" y2="60.00"/>
    <line x1="457.60" y1="540.00" x2="457.60" y2="60.00"/>
    <line x1="470.40" y1="540.00" x2="470.40" y2="60.00"/>
    <line x1="476.80" y1="540.00" x2="476.80" y2="60.00"/>
    <line x1="483.20" y1="540.00" x2="483.20" y2="60.00"/>
    <line x1="489.60" y1="540.00" x2="489.60" y2="60.00"/>
    <line x1="502.40" y1="540.00" x2="502.40" y2="60.00"/>
    <line x1="508.80" y1="540.00" x2="508.80" y2="60.00"/>
    <line x1="515.20" y1="540.00" x2="515.20" y2="60.00"/>
    <line x1="521.60" y1="540.00" x2="521.60" y2="60.00"/>
    <line x1="534.40" y1="540.00" x2="534.40" y2="60.00"/>
    <line x1="540.80" y1="540.00" x2="540.80" y2="60.00"/>
    <line x1="547.20" y1="540.00" x2="547.20" y2="60.00"/>
    <line x1="553.60" y1="540.00" x2="553.60" y2="60.00"/>
    <line x1="566.40" y1="540.00" x2="566.40" y2="60.00"/>
    <line x1="572.80" y1="540.00" x2="572.80" y2="60.00"/>
    <line x1="579.20" y1="540.00" x2="579.20" y2="60.00"/>
    <line x1="585.60" y1="540.00" x2="585.60" y2="60.00"/>
    <line x1="598.40" y1="540.00" x2="598.40" y2="60.00"/>
    <line x1="604.80" y1="540.00" x2="604.80" y2="60.00"/>
    <line x1="611.20" y1="540.00" x2="611.20" y2="60.00"/>
    <line x1="617.60" y1="540.00" x2="617.60" y2="60.00"/>
    <line x1="630.40" y1="540.00" x2="630.40" y2="60.00"/>
    <line x1="636.80" y1="540.00" x2="636.80" y2="60.00"/>
    <line x1="643.20" y1="540.00" x2="643.20" y2="60.00"/>
    <line x1="649.60" y1="540.00" x2="649.60" y2="60.00"/>
    <line x1="662.40" y1="540.00" x2="662.40" y2="60.00"/>
    <line x1="668.80" y1="540.00" x2="668.80" y2="60.00"/>
    <line x1="675.20" y1="540.00" x2="675.20" y2="60.00"/>
    <line x1="681.60" y1="540.00" x2="681.60" y2="60.00"/>
    <line x1="694.40" y1="540.00" x2="694.40" y2="60.00"/>
    <line x1="700.80" y1="540.00" x2="700.80" y2="60.00"/>
    <line x1="707.20" y1="540.00" x2="707.20" y2="60.00"/>
    <line x1="713.60" y1="540.00" x2="713.60" y2="60.00"/>
    <line x1="80.00" y1="537.18" x2="720.00" y2="537.18"/>
    <line x1="80.00" y1="533.75" x2="720.00" y2="533.75"/>
    <line x1="80.00" y1="530.32" x2="720.00" y2="530.32"/>
    <line x1="80.00" y1="526.90" x2="720.00" y2="526.90"/>
    <line x1="80.00" y1="520.04" x2="720.00" y2="520.04"/>
    <line x1="80.00" y1="516.61" x2="720.00" y2="516.61"/>
    <line x1="80.00" y1="513.18" x2="720.00" y2="513.18"/>
    <line x1="80.00" y1="509.75" x2="720.00" y2="509.75"/>
    <line x1="80.00" y1="502.89" x2="720.00" y2="502.89"/>
    <line x1="80.00" y1="499.46" x2="720.00" y2="499.46"/>
    <line x1="80.00" y1="496.03" x2="720.00" y2="496.03"/>
    <line x1="80.00" y1="492.60" x2="720.00" y2="492.60"/>
    <line x1="80.00" y1="485.75" x2="720.00" y2="485.75"/>
    <line x1="80.00" y1="482.32" x2="720.00" y2="482.32"/>
    <line x1="80.00" y1="478.89" x2="720.00" y2="478.89"/>
    <line x1="80.00" y1="475.46" x2="720.00" y2="475.46"/>
    <line x1="80.00" y1="468.60" x2="720.00" y2="468.60"/>
    <line x1="80.00" y1="465.17" x2="720.00" y2="465.17"/>
    <line x1="80.00" y1="461.74" x2="720.00" y2="461.74"/>
    <line x1="80.00" y1="458.31" x2="720.00" y2="458.31"/>
    <line x1="80.00" y1="451.46" x2="720.00" y2="451.46"/>
    <line x1="80.00" y1="448.03" x2="720.00" y2="448.03"/>
    <line x1="80.00" y1="444.60" x2="720.00" y2="444.60"/>
    <line x1="80.00" y1="441.17" x2="720.00" y2="441.17"/>
    <line x1="80.00" y1="434.31" x2="720.00" y2="434.31"/>
    <line x1="80.00" y1="430.88" x2="720.00" y2="430.88"/>
    <line x1="80.00" y1="427.45" x2="720.00" y2="427.45"/>
    <line x1="80.00" y1="424.02" x2="720.00" y2="424.02"/>
    <line x1="80.00" y1="417.17" x2="720.00" y2="417.17"/>
    <line x1="80.00" y1="413.74" x2="720.00" y2="413.74"/>
    <line x1="80.00" y1="410.31" x2="720.00" y2="410.31"/>
    <line x1="80.00" y1="406.88" x2="720.00" y2="406.88"/>
    <line x1="80.00" y1="400.02" x2="720.00" y2="400.02"/>
    <line x1="80.00" y1="396.59" x2="720.00" y2="396.59"/>
    <line x1="80.00" y1="393.16" x2="720.00" y2="393.16"/>
    <line x1="80.00" y1="389.73" x2="720.00" y2="389.73"/>
    <line x1="80.00" y1="382.87" x2="720.00" y2="382.87"/>
    <line x1="80.00" y1="379.45" x2="720.00" y2="379.45"/>
    <line x1="80.00" y1="376.02" x2="720.00" y2="376.02"/>
    <line x1="80.00" y1="372.59" x2="720.00" y2="372.59"/>
    <line x1="80.00" y1="365.73" x2="720.00" y2="365.73"/>
    <line x1="80.00" y1="362.30" x2="720.00" y2="362.30"/>
    <line x1="80.00" y1="358.87" x2="720.00" y2="358.87"/>
    <line x1="80.00" y1="355.44" x2="720.00" y2="355.44"/>
    <line x1="80.00" y1="348.58" x2="720.00" y2="348.58"/>
    <line x1="80.00" y1="345.15" x2="720.00" y2="345.15"/>
    <line x1="80.00" y1="341.73" x2="720.00" y2="341.73"/>
    <line x1="80.00" y1="338.30" x2="720.00" y2="338.30"/>
    <line x1="80.00" y1="331.44" x2="720.00" y2="331.44"/>
    <line x1="80.00" y1="328.01" x2="720.00" y2="328.01"/>
    <line x1="80.00" y1="324.58" x2="720.00" y2="324.58"/>
    <line x1="80.00" y1="321.15" x2="720.00" y2="321.15"/>
    <line x1="80.00" y1="314.29" x2="720.00" y2="314.29"/>
    <line x1="80.00" y1="310.86" x2="720.00" y2="310.86"/>
    <line x1="80.00" y1="307.44" x2="720.00" y2="307.44"/>
    <line x1="80.00" y1="304.01" x2="720.00" y2="304.01"/>
    <line x1="80.00" y1="297.15" x2="720.00" y2="297.15"/>
    <line x1="80.00" y1="293.72" x2="720.00" y2="293.72"/>
    <line x1="80.00" y1="290.29" x2="720.00" y2="290.29"/>
    <line x1="80.00" y1="286.86" x2="720.00" y2="286.86"/>
    <line x1="80.00" y1="280.00" x2="720.00" y2="280.00"/>
    <line x1="80.00" y1="276.57" x2="720.00" y2="276.57"/>
    <line x1="80.00" y1="273.14" x2="720.00" y2="273.14"/>
    <line x1="80.00" y1="269.72" x2="720.00" y2="269.72"/>
    <line x1="80.00" y1="262.86" x2="720.00" y2="262.86"/>
    <line x1="80.00" y1="259.43" x2="720.00" y2="259.43"/>
    <line x1="80.00" y1="256.00" x2="720.00" y2="256.00"/>
    <line x1="80.00" y1="252.57" x2="720.00" y2="252.57"/>
    <line x1="80.00" y1="245.71" x2="720.00" y2="245.71"/>
    <line x1="80.00" y1="242.28" x2="720.00" y2="242.28"/>
    <line x1="80.00" y1="238.85" x2="720.00" y2="238.85"/>
    <line x1="80.00" y1="235.42" x2="720.00" y2="235.42"/>
    <line x1="80.00" y1="228.57" x2="720.00" y2="228.57"/>
    <line x1="80.00" y1="225.14" x2="720.00" y2="225.14"/>
    <line x1="80.00" y1="221.71" x2="720.00" y2="221.71"/>
    <line x1="80.00" y1="218.28" x2="720.00" y2="218.28"/>
    <line x1="80.00" y1="211.42" x2="720.00" y2="211.42"/>
    <line x1="80.00" y1="207.99" x2="720.00" y2="207.99"/>
    <line x1="80.00" y1="204.56" x2="720.00" y2="204.56"/>
    <line x1="80.00" y1="201.13" x2="720.00" y2="201.13"/>
    <line x1="80.00" y1="194.28" x2="720.00" y2="194.28"/>
    <line x1="80.00" y1="190.85" x2="720.00" y2="190.85"/>
    <line x1="80.00" y1="187.42" x2="720.00" y2="187.42"/>
    <line x1="80.00" y1="183.99" x2="720.00" y2="183.99"/>
    <line x1="80.00" y1="177.13" x2="720.00" y2="177.13"/>
    <line x1="80.00" y1="173.70" x2="720.00" y2="173.70"/>
    <line x1="80.00" y1="170.27" x2="720.00" y2="170.27"/>
    <line x1="80.00" y1="166.84" x2="720.00" y2="166.84"/>
    <line x1="80.00" y1="159.99" x2="720.00" y2="159.99"/>
    <line x1="80.00" y1="156.56" x2="720.00" y2="156.56"/>
    <line x1="80.00" y1="153.13" x2="720.00" y2="153.13"/>
    <line x1="80.00" y1="149.70" x2="720.00" y2="149.70"/>
    <line x1="80.00" y1="142.84" x2="720.00" y2="142.84"/>
    <line x1="80.00" y1="139.41" x2="720.00" y2="139.41"/>
    <line x1="80.00" y1="135.98" x2="720.00" y2="135.98"/>
    <line x1="80.00" y1="132.55" x2="720.00" y2="132.55"/>
    <line x1="80.00" y1="125.69" x2="720.00" y2="125.69"/>
    <line x1="80.00" y1="122.27" x2="720.00" y2="122.27"/>
    <line x1="80.00" y1="118.84" x2="720.00" y2="118.84"/>
    <line x1="80.00" y1="115.41" x2="720.00" y2="115.41"/>
    <line x1="80.00" y1="108.55" x2="720.00" y2="108.55"/>
    <line x1="80.00" y1="105.12" x2="720.00" y2="105.12"/>
    <line x1="80.00" y1="101.69" x2="720.00" y2="101.69"/>
    <line x1="80.00" y1="98.26" x2="720.00" y2="98.26"/>
    <line x1="80.00" y1="91.40" x2="720.00" y2="91.40"/>
    <line x1="80.00" y1="87.97" x2="720.00" y2="87.97"/>
    <line x1="80.00" y1="84.55" x2="720.00" y2="84.55"/>
    <line x1="80.00" y1="81.12" x2="720.00" y2="81.12"/>
    <line x1="80.00" y1="74.26" x2="720.00" y2="74.26"/>
    <line x1="80.00" y1="70.83" x2="720.00" y2="70.83"/>
    <line x1="80.00" y1="67.40" x2="720.00" y2="67.40"/>
    <line x1="80.00" y1="63.97" x2="720.00" y2="63.97"/>
  </g>
  <g stroke="#808080" stroke-width="2">
    <line x1="80.00" y1="540.61" x2="720.00" y2="540.61"/>
  </g>
  <polyline fill="none" stroke="#0066cc" stroke-width="2" points="80.00,60.00 88.10,98.89 96.20,134.64 104.30,167.49 112.41,197.69 120.51,225.44 128.61,250.95 136.71,274.39 144.81,295.93 152.91,315.73 161.01,333.93 169.11,350.66 177.22,366.03 185.32,380.16 193.42,393.14 201.52,405.08 209.62,416.04 217.72,426.12 225.82,435.39 233.92,443.90 242.03,451.73 250.13,458.92 258.23,465.53 266.33,471.61 274.43,477.19 282.53,482.33 290.63,487.04 298.73,491.38 306.84,495.36 314.94,499.02 323.04,502.39 331.14,505.48 339.24,508.33 347.34,510.94 355.44,513.34 363.54,515.55 371.65,517.58 379.75,519.44 387.85,521.15 395.95,522.73 404.05,524.17 412.15,525.50 420.25,526.73 428.35,527.85 436.46,528.88 444.56,529.83 452.66,530.71 460.76,531.51 468.86,532.24 476.96,532.92 485.06,533.54 493.16,534.12 501.27,534.64 509.37,535.12 517.47,535.57 525.57,535.98 533.67,536.35 541.77,536.70 549.87,537.01 557.97,537.30 566.08,537.57 574.18,537.82 582.28,538.04 590.38,538.25 598.48,538.44 606.58,538.62 614.68,538.78 622.78,538.93 630.89,539.06 638.99,539.19 647.09,539.30 655.19,539.41 663.29,539.51 671.39,539.60 679.49,539.68 687.59,539.75 695.70,539.82 703.80,539.89 711.90,539.95 720.00,540.00 "/>
</svg>
