<?xml version="1.0" encoding="UTF-8"?>
<svg xmlns="http://www.w3.org/2000/svg" width="800" height="600">
  <title>X=sin(3*t);Y=sin(2*t)</title>
  <rect width="800" height="600" fill="#ffffff"/>
  <g stroke="#d0d0d0" stroke-width="1">
    <line x1="80.00" y1="540.00" x2="80.00" y2="60.00"/>
    <line x1="400.05" y1="540.00" x2="400.05" y2="60.00"/>
    <line x1="720.09" y1="540.00" x2="720.09" y2="60.00"/>
    <line x1="80.00" y1="606.45" x2="720.00" y2="606.45"/>
    <line x1="80.00" y1="333.22" x2="720.00" y2="333.22"/>
    <line x1="80.00" y1="60.00" x2="720.00" y2="60.00"/>
  </g>
  <g stroke="#e8e8e8" stroke-width="0.5">
    <line x1="144.01" y1="540.00" x2="144.01" y2="60.00"/>
    <line x1="208.02" y1="540.00" x2="208.02" y2="60.00"/>
    <line x1="272.03" y1="540.00" x2="272.03" y2="60.00"/>
    <line x1="336.04" y1="540.00" x2="336.04" y2="60.00"/>
    <line x1="464.06" y1="540.00" x2="464.06" y2="60.00"/>
    <line x1="528.06" y1="540.00" x2="528.06" y2="60.00"/>
    <line x1="592.07" y1="540.00" x2="592.07" y2="60.00"/>
    <line x1="656.08" y1="540.00" x2="656.08" y2="60.00"/>
    <line x1="80.00" y1="497.16" x2="720.00" y2="497.16"/>
    <line x1="80.00" y1="442.51" x2="720.00" y2="442.51"/>
    <line x1="80.00" y1="387.87" x2="720.00" y2="387.87"/>
    <line x1="80.00" y1="278.58" x2="720.00" y2="278.58"/>
    <line x1="80.00" y1="223.93" x2="720.00" y2="223.93"/>
    <line x1="80.00" y1="169.29" x2="720.00" y2="169.29"/>
    <line x1="80.00" y1="114.64" x2="720.00" y2="114.64"/>
  </g>
  <g stroke="#808080" stroke-width="2">
    <line x1="400.05" y1="540.00" x2="400.05" y2="60.00"/>
    <line x1="80.00" y1="333.22" x2="720.00" y2="333.22"/>
  </g>
  <polyline fill="none" stroke="#0066cc" stroke-width="2" points="400.05,333.22 424.33,319.40 448.47,305.60 472.34,291.88 495.79,278.26 518.68,264.79 540.89,251.49 562.29,238.40 582.76,225.55 602.17,212.98 620.42,200.72 637.39,188.79 653.00,177.24 667.15,166.09 679.75,155.36 690.75,145.09 700.07,135.31 707.66,126.03 713.48,117.28 717.48,109.08 719.66,101.46 720.00,94.44 718.49,88.02 715.15,82.24 709.99,77.09 703.04,72.61 694.34,68.79 683.95,65.65 671.92,63.19 658.33,61.43 643.24,60.37 626.75,60.00 608.96,60.33 589.96,61.37 569.86,63.10 548.79,65.52 526.86,68.63 504.20,72.42 480.94,76.87 457.21,81.98 433.15,87.74 408.90,94.13 384.60,101.12 360.39,108.72 336.41,116.89 312.79,125.61 289.68,134.86 267.20,144.63 245.49,154.88 224.67,165.58 204.86,176.71 186.18,188.25 168.73,200.16 152.61,212.40 137.93,224.96 124.75,237.80 113.16,250.88 103.22,264.17 94.99,277.64 88.53,291.25 83.86,304.96 81.01,318.75 80.00,332.58 80.84,346.41 83.51,360.21 88.02,373.93 94.32,387.55 102.38,401.04 112.16,414.34 123.60,427.44 136.64,440.30 151.19,452.89 167.18,465.17 184.51,477.11 203.08,488.68 222.79,499.85 243.52,510.60 265.15,520.89 287.56,530.70 310.62,540.00 "/>
</svg>
