<?xml version="1.0" encoding="UTF-8"?>
<svg xmlns="http://www.w3.org/2000/svg" width="800" height="600">
  <title>Y=5</title>
  <rect width="800" height="600" fill="#ffffff"/>
  <g stroke="#d0d0d0" stroke-width="1">
    <line x1="80.00" y1="540.00" x2="80.00" y2="540.00"/>
    <line x1="112.00" y1="540.00" x2="112.00" y2="540.00"/>
    <line x1="144.00" y1="540.00" x2="144.00" y2="540.00"/>
    <line x1="176.00" y1="540.00" x2="176.00" y2="540.00"/>
    <line x1="208.00" y1="540.00" x2="208.00" y2="540.00"/>
    <line x1="240.00" y1="540.00" x2="240.00" y2="540.00"/>
    <line x1="272.00" y1="540.00" x2="272.00" y2="540.00"/>
    <line x1="304.00" y1="540.00" x2="304.00" y2="540.00"/>
    <line x1="336.00" y1="540.00" x2="336.00" y2="540.00"/>
    <line x1="368.00" y1="540.00" x2="368.00" y2="540.00"/>
    <line x1="400.00" y1="540.00" x2="400.00" y2="540.00"/>
    <line x1="432.00" y1="540.00" x2="432.00" y2="540.00"/>
    <line x1="464.00" y1="540.00" x2="464.00" y2="540.00"/>
    <line x1="496.00" y1="540.00" x2="496.00" y2="540.00"/>
    <line x1="528.00" y1="540.00" x2="528.00" y2="540.00"/>
    <line x1="560.00" y1="540.00" x2="560.00" y2="540.00"/>
    <line x1="592.00" y1="540.00" x2="592.00" y2="540.00"/>
    <line x1="624.00" y1="540.00" x2="624.00" y2="540.00"/>
    <line x1="656.00" y1="540.00" x2="656.00" y2="540.00"/>
    <line x1="688.00" y1="540.00" x2="688.00" y2="540.00"/>
    <line x1="720.00" y1="540.00" x2="720.00" y2="540.00"/>
    <line x1="80.00" y1="540.00" x2="720.00" y2="540.00"/>
  </g>
  <g stroke="#e8e8e8" stroke-width="0.5">
    <line x1="86.40" y1="540.00" x2="86.40" y2="540.00"/>
    <line x1="92.80" y1="540.00" x2="92.80" y2="540.00"/>
    <line x1="99.20" y1="540.00" x2="99.20" y2="540.00"/>
    <line x1="105.60" y1="540.00" x2="105.60" y2="540.00"/>
    <line x1="118.40" y1="540.00" x2="118.40" y2="540.00"/>
    <line x1="124.80" y1="540.00" x2="124.80" y2="540.00"/>
    <line x1="131.20" y1="540.00" x2="131.20" y2="540.00"/>
    <line x1="137.60" y1="540.00" x2="137.60" y2="540.00"/>
    <line x1="150.40" y1="540.00" x2="150.40" y2="540.00"/>
    <line x1="156.80" y1="540.00" x2="156.80" y2="540.00"/>
    <line x1="163.20" y1="540.00" x2="163.20" y2="540.00"/>
    <line x1="169.60" y1="540.00" x2="169.60" y2="540.00"/>
    <line x1="182.40" y1="540.00" x2="182.40" y2="540.00"/>
    <line x1="188.80" y1="540.00" x2="188.80" y2="540.00"/>
    <line x1="195.20" y1="540.00" x2="195.20" y2="540.00"/>
    <line x1="201.60" y1="540.00" x2="201.60" y2="540.00"/>
    <line x1="214.40" y1="540.00" x2="214.40" y2="540.00"/>
    <line x1="220.80" y1="540.00" x2="220.80" y2="540.00"/>
    <line x1="227.20" y1="540.00" x2="227.20" y2="540.00"/>
    <line x1="233.60" y1="540.00" x2="233.60" y2="540.00"/>
    <line x1="246.40" y1="540.00" x2="246.40" y2="540.00"/>
    <line x1="252.80" y1="540.00" x2="252.80" y2="540.00"/>
    <line x1="259.20" y1="540.00" x2="259.20" y2="540.00"/>
    <line x1="265.60" y1="540.00" x2="265.60" y2="540.00"/>
    <line x1="278.40" y1="540.00" x2="278.40" y2="540.00"/>
    <line x1="284.80" y1="540.00" x2="284.80" y2="540.00"/>
    <line x1="291.20" y1="540.00" x2="291.20" y2="540.00"/>
    <line x1="297.60" y1="540.00" x2="297.60" y2="540.00"/>
    <line x1="310.40" y1="540.00" x2="310.40" y2="540.00"/>
    <line x1="316.80" y1="540.00" x2="316.80" y2="540.00"/>
    <line x1="323.20" y1="540.00" x2="323.20" y2="540.00"/>
    <line x1="329.60" y1="540.00" x2="329.60" y2="540.00"/>
    <line x1="342.40" y1="540.00" x2="342.40" y2="540.00"/>
    <line x1="348.80" y1="540.00" x2="348.80" y2="540.00"/>
    <line x1="355.20" y1="540.00" x2="355.20" y2="540.00"/>
    <line x1="361.60" y1="540.00" x2="361.60" y2="540.00"/>
    <line x1="374.40" y1="540.00" x2="374.40" y2="540.00"/>
    <line x1="380.80" y1="540.00" x2="380.80" y2="540.00"/>
    <line x1="387.20" y1="540.00" x2="387.20" y2="540.00"/>
    <line x1="393.60" y1="540.00" x2="393.60" y2="540.00"/>
    <line x1="406.40" y1="540.00" x2="406.40" y2="540.00"/>
    <line x1="412.80" y1="540.00" x2="412.80" y2="540.00"/>
    <line x1="419.20" y1="540.00" x2="419.20" y2="540.00"/>
    <line x1="425.60" y1="540.00" x2="425.60" y2="540.00"/>
    <line x1="438.40" y1="540.00" x2="438.40" y2="540.00"/>
    <line x1="444.80" y1="540.00" x2="444.80" y2="540.00"/>
    <line x1="451.20" y1="540.00" x2="451.20" y2="540.00"/>
    <line x1="457.60" y1="540.00" x2="457.60" y2="540.00"/>
    <line x1="470.40" y1="540.00" x2="470.40" y2="540.00"/>
    <line x1="476.80" y1="540.00" x2="476.80" y2="540.00"/>
    <line x1="483.20" y1="540.00" x2="483.20" y2="540.00"/>
    <line x1="489.60" y1="540.00" x2="489.60" y2="540.00"/>
    <line x1="502.40" y1="540.00" x2="502.40" y2="540.00"/>
    <line x1="508.80" y1="540.00" x2="508.80" y2="540.00"/>
    <line x1="515.20" y1="540.00" x2="515.20" y2="540.00"/>
    <line x1="521.60" y1="540.00" x2="521.60" y2="540.00"/>
    <line x1="534.40" y1="540.00" x2="534.40" y2="540.00"/>
    <line x1="540.80" y1="540.00" x2="540.80" y2="540.00"/>
    <line x1="547.20" y1="540.00" x2="547.20" y2="540.00"/>
    <line x1="553.60" y1="540.00" x2="553.60" y2="540.00"/>
    <line x1="566.40" y1="540.00" x2="566.40" y2="540.00"/>
    <line x1="572.80" y1="540.00" x2="572.80" y2="540.00"/>
    <line x1="579.20" y1="540.00" x2="579.20" y2="540.00"/>
    <line x1="585.60" y1="540.00" x2="585.60" y2="540.00"/>
    <line x1="598.40" y1="540.00" x2="598.40" y2="540.00"/>
    <line x1="604.80" y1="540.00" x2="604.80" y2="540.00"/>
    <line x1="611.20" y1="540.00" x2="611.20" y2="540.00"/>
    <line x1="617.60" y1="540.00" x2="617.60" y2="540.00"/>
    <line x1="630.40" y1="540.00" x2="630.40" y2="540.00"/>
    <line x1="636.80" y1="540.00" x2="636.80" y2="540.00"/>
    <line x1="643.20" y1="540.00" x2="643.20" y2="540.00"/>
    <line x1="649.60" y1="540.00" x2="649.60" y2="540.00"/>
    <line x1="662.40" y1="540.00" x2="662.40" y2="540.00"/>
    <line x1="668.80" y1="540.00" x2="668.80" y2="540.00"/>
    <line x1="675.20" y1="540.00" x2="675.20" y2="540.00"/>
    <line x1="681.60" y1="540.00" x2="681.60" y2="540.00"/>
    <line x1="694.40" y1="540.00" x2="694.40" y2="540.00"/>
    <line x1="700.80" y1="540.00" x2="700.80" y2="540.00"/>
    <line x1="707.20" y1="540.00" x2="707.20" y2="540.00"/>
    <line x1="713.60" y1="540.00" x2="713.60" y2="540.00"/>
  </g>
  <g stroke="#808080" stroke-width="2">
    <line x1="80.00" y1="2940.00" x2="720.00" y2="2940.00"/>
  </g>
  <polyline fill="none" stroke="#0066cc" stroke-width="2" points="80.00,540.00 88.10,540.00 96.20,540.00 104.30,540.00 112.41,540.00 120.51,540.00 128.61,540.00 136.71,540.00 144.81,540.00 152.91,540.00 161.01,540.00 169.11,540.00 177.22,540.00 185.32,540.00 193.42,540.00 201.52,540.00 209.62,540.00 217.72,540.00 225.82,540.00 233.92,540.00 242.03,540.00 250.13,540.00 258.23,540.00 266.33,540.00 274.43,540.00 282.53,540.00 290.63,540.00 298.73,540.00 306.84,540.00 314.94,540.00 323.04,540.00 331.14,540.00 339.24,540.00 347.34,540.00 355.44,540.00 363.54,540.00 371.65,540.00 379.75,540.00 387.85,540.00 395.95,540.00 404.05,540.00 412.15,540.00 420.25,540.00 428.35,540.00 436.46,540.00 444.56,540.00 452.66,540.00 460.76,540.00 468.86,540.00 476.96,540.00 485.06,540.00 493.16,540.00 501.27,540.00 509.37,540.00 517.47,540.00 525.57,540.00 533.67,540.00 541.77,540.00 549.87,540.00 557.97,540.00 566.08,540.00 574.18,540.00 582.28,540.00 590.38,540.00 598.48,540.00 606.58,540.00 614.68,540.00 622.78,540.00 630.89,540.00 638.99,540.00 647.09,540.00 655.19,540.00 663.29,540.00 671.39,540.00 679.49,540.00 687.59,540.00 695.70,540.00 703.80,540.00 711.90,540.00 720.00,540.00 "/>
</svg>
