<?xml version="1.0" encoding="UTF-8"?>
<svg xmlns="http://www.w3.org/2000/svg" width="800" height="600">
  <title>Y=abs(x)</title>
  <rect width="800" height="600" fill="#ffffff"/>
  <g stroke="#d0d0d0" stroke-width="1">
    <line x1="80.00" y1="540.00" x2="80.00" y2="60.00"/>
    <line x1="112.00" y1="540.00" x2="112.00" y2="60.00"/>
    <line x1="144.00" y1="540.00" x2="144.00" y2="60.00"/>
    <line x1="176.00" y1="540.00" x2="176.00" y2="60.00"/>
    <line x1="208.00" y1="540.00" x2="208.00" y2="60.00"/>
    <line x1="240.00" y1="540.00" x2="240.00" y2="60.00"/>
    <line x1="272.00" y1="540.00" x2="272.00" y2="60.00"/>
    <line x1="304.00" y1="540.00" x2="304.00" y2="60.00"/>
    <line x1="336.00" y1="540.00" x2="336.00" y2="60.00"/>
    <line x1="368.00" y1="540.00" x2="368.00" y2="60.00"/>
    <line x1="400.00" y1="540.00" x2="400.00" y2="60.00"/>
    <line x1="432.00" y1="540.00" x2="432.00" y2="60.00"/>
    <line x1="464.00" y1="540.00" x2="464.00" y2="60.00"/>
    <line x1="496.00" y1="540.00" x2="496.00" y2="60.00"/>
    <line x1="528.00" y1="540.00" x2="528.00" y2="60.00"/>
    <line x1="560.00" y1="540.00" x2="560.00" y2="60.00"/>
    <line x1="592.00" y1="540.00" x2="592.00" y2="60.00"/>
    <line x1="624.00" y1="540.00" x2="624.00" y2="60.00"/>
    <line x1="656.00" y1="540.00" x2="656.00" y2="60.00"/>
    <line x1="688.00" y1="540.00" x2="688.00" y2="60.00"/>
    <line x1="720.00" y1="540.00" x2="720.00" y2="60.00"/>
    <line x1="80.00" y1="546.15" x2="720.00" y2="546.15"/>
    <line x1="80.00" y1="497.54" x2="720.00" y2="497.54"/>
    <line x1="80.00" y1="448.92" x2="720.00" y2="448.92"/>
    <line x1="80.00" y1="400.31" x2="720.00" y2="400.31"/>
    <line x1="80.00" y1="351.69" x2="720.00" y2="351.69"/>
    <line x1="80.00" y1="303.08" x2="720.00" y2="303.08"/>
    <line x1="80.00" y1="254.46" x2="720.00" y2="254.46"/>
    <line x1="80.00" y1="205.85" x2="720.00" y2="205.85"/>
    <line x1="80.00" y1="157.23" x2="720.00" y2="157.23"/>
    <line x1="80.00" y1="108.62" x2="720.00" y2="108.62"/>
    <line x1="80.00" y1="60.00" x2="720.00" y2="60.00"/>
  </g>
  <g stroke="#e8e8e8" stroke-width="0.5">
    <line x1="86.40" y1="540.00" x2="86.40" y2="60.00"/>
    <line x1="92.80" y1="540.00" x2="92.80" y2="60.00"/>
    <line x1="99.20" y1="540.00" x2="99.20" y2="60.00"/>
    <line x1="105.60" y1="540.00" x2="105.60" y2="60.00"/>
    <line x1="118.40" y1="540.00" x2="118.40" y2="60.00"/>
    <line x1="124.80" y1="540.00" x2="124.80" y2="60.00"/>
    <line x1="131.20" y1="540.00" x2="131.20" y2="60.00"/>
    <line x1="137.60" y1="540.00" x2="137.60" y2="60.00"/>
    <line x1="150.40" y1="540.00" x2="150.40" y2="60.00"/>
    <line x1="156.80" y1="540.00" x2="156.80" y2="60.00"/>
    <line x1="163.20" y1="540.00" x2="163.20" y2="60.00"/>
    <line x1="169.60" y1="540.00" x2="169.60" y2="60.00"/>
    <line x1="182.40" y1="540.00" x2="182.40" y2="60.00"/>
    <line x1="188.80" y1="540.00" x2="188.80" y2="60.00"/>
    <line x1="195.20" y1="540.00" x2="195.20" y2="60.00"/>
    <line x1="201.60" y1="540.00" x2="201.60" y2="60.00"/>
    <line x1="214.40" y1="540.00" x2="214.40" y2="60.00"/>
    <line x1="220.80" y1="540.00" x2="220.80" y2="60.00"/>
    <line x1="227.20" y1="540.00" x2="227.20" y2="60.00"/>
    <line x1="233.60" y1="540.00" x2="233.60" y2="60.00"/>
    <line x1="246.40" y1="540.00" x2="246.40" y2="60.00"/>
    <line x1="252.80" y1="540.00" x2="252.80" y2="60.00"/>
    <line x1="259.20" y1="540.00" x2="259.20" y2="60.00"/>
    <line x1="265.60" y1="540.00" x2="265.60" y2="60.00"/>
    <line x1="278.40" y1="540.00" x2="278.40" y2="60.00"/>
    <line x1="284.80" y1="540.00" x2="284.80" y2="60.00"/>
    <line x1="291.20" y1="540.00" x2="291.20" y2="60.00"/>
    <line x1="297.60" y1="540.00" x2="297.60" y2="60.00"/>
    <line x1="310.40" y1="540.00" x2="310.40" y2="60.00"/>
    <line x1="316.80" y1="540.00" x2="316.80" y2="60.00"/>
    <line x1="323.20" y1="540.00" x2="323.20" y2="60.00"/>
    <line x1="329.60" y1="540.00" x2="329.60" y2="60.00"/>
    <line x1="342.40" y1="540.00" x2="342.40" y2="60.00"/>
    <line x1="348.80" y1="540.00" x2="348.80" y2="60.00"/>
    <line x1="355.20" y1="540.00" x2="355.20" y2="60.00"/>
    <line x1="361.60" y1="540.00" x2="361.60" y2="60.00"/>
    <line x1="374.40" y1="540.00" x2="374.40" y2="60.00"/>
    <line x1="380.80" y1="540.00" x2="380.80" y2="60.00"/>
    <line x1="387.20" y1="540.00" x2="387.20" y2="60.00"/>
    <line x1="393.60" y1="540.00" x2="393.60" y2="60.00"/>
    <line x1="406.40" y1="540.00" x2="406.40" y2="60.00"/>
    <line x1="412.80" y1="540.00" x2="412.80" y2="60.00"/>
    <line x1="419.20" y1="540.00" x2="419.20" y2="60.00"/>
    <line x1="425.60" y1="540.00" x2="425.60" y2="60.00"/>
    <line x1="438.40" y1="540.00" x2="438.40" y2="60.00"/>
    <line x1="444.80" y1="540.00" x2="444.80" y2="60.00"/>
    <line x1="451.20" y1="540.00" x2="451.20" y2="60.00"/>
    <line x1="457.60" y1="540.00" x2="457.60" y2="60.00"/>
    <line x1="470.40" y1="540.00" x2="470.40" y2="60.00"/>
    <line x1="476.80" y1="540.00" x2="476.80" y2="60.00"/>
    <line x1="483.20" y1="540.00" x2="483.20" y2="60.00"/>
    <line x1="489.60" y1="540.00" x2="489.60" y2="60.00"/>
    <line x1="502.40" y1="540.00" x2="502.40" y2="60.00"/>
    <line x1="508.80" y1="540.00" x2="508.80" y2="60.00"/>
    <line x1="515.20" y1="540.00" x2="515.20" y2="60.00"/>
    <line x1="521.60" y1="540.00" x2="521.60" y2="60.00"/>
    <line x1="534.40" y1="540.00" x2="534.40" y2="60.00"/>
    <line x1="540.80" y1="540.00" x2="540.80" y2="60.00"/>
    <line x1="547.20" y1="540.00" x2="547.20" y2="60.00"/>
    <line x1="553.60" y1="540.00" x2="553.60" y2="60.00"/>
    <line x1="566.40" y1="540.00" x2="566.40" y2="60.00"/>
    <line x1="572.80" y1="540.00" x2="572.80" y2="60.00"/>
    <line x1="579.20" y1="540.00" x2="579.20" y2="60.00"/>
    <line x1="585.60" y1="540.00" x2="585.60" y2="60.00"/>
    <line x1="598.40" y1="540.00" x2="598.40" y2="60.00"/>
    <line x1="604.80" y1="540.00" x2="604.80" y2="60.00"/>
    <line x1="611.20" y1="540.00" x2="611.20" y2="60.00"/>
    <line x1="617.60" y1="540.00" x2="617.60" y2="60.00"/>
    <line x1="630.40" y1="540.00" x2="630.40" y2="60.00"/>
    <line x1="636.80" y1="540.00" x2="636.80" y2="60.00"/>
    <line x1="643.20" y1="540.00" x2="643.20" y2="60.00"/>
    <line x1="649.60" y1="540.00" x2="649.60" y2="60.00"/>
    <line x1="662.40" y1="540.00" x2="662.40" y2="60.00"/>
    <line x1="668.80" y1="540.00" x2="668.80" y2="60.00"/>
    <line x1="675.20" y1="540.00" x2="675.20" y2="60.00"/>
    <line x1="681.60" y1="540.00" x2="681.60" y2="60.00"/>
    <line x1="694.40" y1="540.00" x2="694.40" y2="60.00"/>
    <line x1="700.80" y1="540.00" x2="700.80" y2="60.00"/>
    <line x1="707.20" y1="540.00" x2="707.20" y2="60.00"/>
    <line x1="713.60" y1="540.00" x2="713.60" y2="60.00"/>
    <line x1="80.00" y1="536.43" x2="720.00" y2="536.43"/>
    <line x1="80.00" y1="526.71" x2="720.00" y2="526.71"/>
    <line x1="80.00" y1="516.98" x2="720.00" y2="516.98"/>
    <line x1="80.00" y1="507.26" x2="720.00" y2="507.26"/>
    <line x1="80.00" y1="487.82" x2="720.00" y2="487.82"/>
    <line x1="80.00" y1="478.09" x2="720.00" y2="478.09"/>
    <line x1="80.00" y1="468.37" x2="720.00" y2="468.37"/>
    <line x1="80.00" y1="458.65" x2="720.00" y2="458.65"/>
    <line x1="80.00" y1="439.20" x2="720.00" y2="439.20"/>
    <line x1="80.00" y1="429.48" x2="720.00" y2="429.48"/>
    <line x1="80.00" y1="419.75" x2="720.00" y2="419.75"/>
    <line x1="80.00" y1="410.03" x2="720.00" y2="410.03"/>
    <line x1="80.00" y1="390.58" x2="720.00" y2="390.58"/>
    <line x1="80.00" y1="380.86" x2="720.00" y2="380.86"/>
    <line x1="80.00" y1="371.14" x2="720.00" y2="371.14"/>
    <line x1="80.00" y1="361.42" x2="720.00" y2="361.42"/>
    <line x1="80.00" y1="341.97" x2="720.00" y2="341.97"/>
    <line x1="80.00" y1="332.25" x2="720.00" y2="332.25"/>
    <line x1="80.00" y1="322.52" x2="720.00" y2="322.52"/>
    <line x1="80.00" y1="312.80" x2="720.00" y2="312.80"/>
    <line x1="80.00" y1="293.35" x2="720.00" y2="293.35"/>
    <line x1="80.00" y1="283.63" x2="720.00" y2="283.63"/>
    <line x1="80.00" y1="273.91" x2="720.00" y2="273.91"/>
    <line x1="80.00" y1="264.18" x2="720.00" y2="264.18"/>
    <line x1="80.00" y1="244.74" x2="720.00" y2="244.74"/>
    <line x1="80.00" y1="235.02" x2="720.00" y2="235.02"/>
    <line x1="80.00" y1="225.29" x2="720.00" y2="225.29"/>
    <line x1="80.00" y1="215.57" x2="720.00" y2="215.57"/>
    <line x1="80.00" y1="196.12" x2="720.00" y2="196.12"/>
    <line x1="80.00" y1="186.40" x2="720.00" y2="186.40"/>
    <line x1="80.00" y1="176.68" x2="720.00" y2="176.68"/>
    <line x1="80.00" y1="166.95" x2="720.00" y2="166.95"/>
    <line x1="80.00" y1="147.51" x2="720.00" y2="147.51"/>
    <line x1="80.00" y1="137.78" x2="720.00" y2="137.78"/>
    <line x1="80.00" y1="128.06" x2="720.00" y2="128.06"/>
    <line x1="80.00" y1="118.34" x2="720.00" y2="118.34"/>
    <line x1="80.00" y1="98.89" x2="720.00" y2="98.89"/>
    <line x1="80.00" y1="89.17" x2="720.00" y2="89.17"/>
    <line x1="80.00" y1="79.45" x2="720.00" y2="79.45"/>
    <line x1="80.00" y1="69.72" x2="720.00" y2="69.72"/>
  </g>
  <g stroke="#808080" stroke-width="2">
    <line x1="80.00" y1="546.15" x2="720.00" y2="546.15"/>
  </g>
  <polyline fill="none" stroke="#0066cc" stroke-width="2" points="80.00,60.00 88.10,72.31 96.20,84.62 104.30,96.92 112.41,109.23 120.51,121.54 128.61,133.85 136.71,146.15 144.81,158.46 152.91,170.77 161.01,183.08 169.11,195.38 177.22,207.69 185.32,220.00 193.42,232.31 201.52,244.62 209.62,256.92 217.72,269.23 225.82,281.54 233.92,293.85 242.03,306.15 250.13,318.46 258.23,330.77 266.33,343.08 274.43,355.38 282.53,367.69 290.63,380.00 298.73,392.31 306.84,404.62 314.94,416.92 323.04,429.23 331.14,441.54 339.24,453.85 347.34,466.15 355.44,478.46 363.54,490.77 371.65,503.08 379.75,515.38 387.85,527.69 395.95,540.00 404.05,540.00 412.15,527.69 420.25,515.38 428.35,503.08 436.46,490.77 444.56,478.46 452.66,466.15 460.76,453.85 468.86,441.54 476.96,429.23 485.06,416.92 493.16,404.62 501.27,392.31 509.37,380.00 517.47,367.69 525.57,355.38 533.67,343.08 541.77,330.77 549.87,318.46 557.97,306.15 566.08,293.85 574.18,281.54 582.28,269.23 590.38,256.92 598.48,244.62 606.58,232.31 614.68,220.00 622.78,207.69 630.89,195.38 638.99,183.08 647.09,170.77 655.19,158.46 663.29,146.15 671.39,133.85 679.49,121.54 687.59,109.23 695.70,96.92 703.80,84.62 711.90,72.31 720.00,60.00 "/>
</svg>
