<?xml version="1.0" encoding="UTF-8"?>
<svg xmlns="http://www.w3.org/2000/svg" width="800" height="600">
  <title>Y=x/3+2</title>
  <rect width="800" height="600" fill="#ffffff"/>
  <g stroke="#d0d0d0" stroke-width="1">
    <line x1="80.00" y1="540.00" x2="80.00" y2="60.00"/>
    <line x1="112.00" y1="540.00" x2="112.00" y2="60.00"/>
    <line x1="144.00" y1="540.00" x2="144.00" y2="60.00"/>
    <line x1="176.00" y1="540.00" x2="176.00" y2="60.00"/>
    <line x1="208.00" y1="540.00" x2="208.00" y2="60.00"/>
    <line x1="240.00" y1="540.00" x2="240.00" y2="60.00"/>
    <line x1="272.00" y1="540.00" x2="272.00" y2="60.00"/>
    <line x1="304.00" y1="540.00" x2="304.00" y2="60.00"/>
    <line x1="336.00" y1="540.00" x2="336.00" y2="60.00"/>
    <line x1="368.00" y1="540.00" x2="368.00" y2="60.00"/>
    <line x1="400.00" y1="540.00" x2="400.00" y2="60.00"/>
    <line x1="432.00" y1="540.00" x2="432.00" y2="60.00"/>
    <line x1="464.00" y1="540.00" x2="464.00" y2="60.00"/>
    <line x1="496.00" y1="540.00" x2="496.00" y2="60.00"/>
    <line x1="528.00" y1="540.00" x2="528.00" y2="60.00"/>
    <line x1="560.00" y1="540.00" x2="560.00" y2="60.00"/>
    <line x1="592.00" y1="540.00" x2="592.00" y2="60.00"/>
    <line x1="624.00" y1="540.00" x2="624.00" y2="60.00"/>
    <line x1="656.00" y1="540.00" x2="656.00" y2="60.00"/>
    <line x1="688.00" y1="540.00" x2="688.00" y2="60.00"/>
    <line x1="720.00" y1="540.00" x2="720.00" y2="60.00"/>
    <line x1="80.00" y1="588.00" x2="720.00" y2="588.00"/>
    <line x1="80.00" y1="516.00" x2="720.00" y2="516.00"/>
    <line x1="80.00" y1="444.00" x2="720.00" y2="444.00"/>
    <line x1="80.00" y1="372.00" x2="720.00" y2="372.00"/>
    <line x1="80.00" y1="300.00" x2="720.00" y2="300.00"/>
    <line x1="80.00" y1="228.00" x2="720.00" y2="228.00"/>
    <line x1="80.00" y1="156.00" x2="720.00" y2="156.00"/>
    <line x1="80.00" y1="84.00" x2="720.00" y2="84.00"/>
    <line x1="80.00" y1="12.00" x2="720.00" y2="12.00"/>
  </g>
  <g stroke="#e8e8e8" stroke-width="0.5">
    <line x1="86.40" y1="540.00" x2="86.40" y2="60.00"/>
    <line x1="92.80" y1="540.00" x2="92.80" y2="60.00"/>
    <line x1="99.20" y1="540.00" x2="99.20" y2="60.00"/>
    <line x1="105.60" y1="540.00" x2="105.60" y2="60.00"/>
    <line x1="118.40" y1="540.00" x2="118.40" y2="60.00"/>
    <line x1="124.80" y1="540.00" x2="124.80" y2="60.00"/>
    <line x1="131.20" y1="540.00" x2="131.20" y2="60.00"/>
    <line x1="137.60" y1="540.00" x2="137.60" y2="60.00"/>
    <line x1="150.40" y1="540.00" x2="150.40" y2="60.00"/>
    <line x1="156.80" y1="540.00" x2="156.80" y2="60.00"/>
    <line x1="163.20" y1="540.00" x2="163.20" y2="60.00"/>
    <line x1="169.60" y1="540.00" x2="169.60" y2="60.00"/>
    <line x1="182.40" y1="540.00" x2="182.40" y2="60.00"/>
    <line x1="188.80" y1="540.00" x2="188.80" y2="60.00"/>
    <line x1="195.20" y1="540.00" x2="195.20" y2="60.00"/>
    <line x1="201.60" y1="540.00" x2="201.60" y2="60.00"/>
    <line x1="214.40" y1="540.00" x2="214.40" y2="60.00"/>
    <line x1="220.80" y1="540.00" x2="220.80" y2="60.00"/>
    <line x1="227.20" y1="540.00" x2="227.20" y2="60.00"/>
    <line x1="233.60" y1="540.00" x2="233.60" y2="60.00"/>
    <line x1="246.40" y1="540.00" x2="246.40" y2="60.00"/>
    <line x1="252.80" y1="540.00" x2="252.80" y2="60.00"/>
    <line x1="259.20" y1="540.00" x2="259.20" y2="60.00"/>
    <line x1="265.60" y1="540.00" x2="265.60" y2="60.00"/>
    <line x1="278.40" y1="540.00" x2="278.40" y2="60.00"/>
    <line x1="284.80" y1="540.00" x2="284.80" y2="60.00"/>
    <line x1="291.20" y1="540.00" x2="291.20" y2="60.00"/>
    <line x1="297.60" y1="540.00" x2="297.60" y2="60.00"/>
    <line x1="310.40" y1="540.00" x2="310.40" y2="60.00"/>
    <line x1="316.80" y1="540.00" x2="316.80" y2="60.00"/>
    <line x1="323.20" y1="540.00" x2="323.20" y2="60.00"/>
    <line x1="329.60" y1="540.00" x2="329.60" y2="60.00"/>
    <line x1="342.40" y1="540.00" x2="342.40" y2="60.00"/>
    <line x1="348.80" y1="540.00" x2="348.80" y2="60.00"/>
    <line x1="355.20" y1="540.00" x2="355.20" y2="60.00"/>
    <line x1="361.60" y1="540.00" x2="361.60" y2="60.00"/>
    <line x1="374.40" y1="540.00" x2="374.40" y2="60.00"/>
    <line x1="380.80" y1="540.00" x2="380.80" y2="60.00"/>
    <line x1="387.20" y1="540.00" x2="387.20" y2="60.00"/>
    <line x1="393.60" y1="540.00" x2="393.60" y2="60.00"/>
    <line x1="406.40" y1="540.00" x2="406.40" y2="60.00"/>
    <line x1="412.80" y1="540.00" x2="412.80" y2="60.00"/>
    <line x1="419.20" y1="540.00" x2="419.20" y2="60.00"/>
    <line x1="425.60" y1="540.00" x2="425.60" y2="60.00"/>
    <line x1="438.40" y1="540.00" x2="438.40" y2="60.00"/>
    <line x1="444.80" y1="540.00" x2="444.80" y2="60.00"/>
    <line x1="451.20" y1="540.00" x2="451.20" y2="60.00"/>
    <line x1="457.60" y1="540.00" x2="457.60" y2="60.00"/>
    <line x1="470.40" y1="540.00" x2="470.40" y2="60.00"/>
    <line x1="476.80" y1="540.00" x2="476.80" y2="60.00"/>
    <line x1="483.20" y1="540.00" x2="483.20" y2="60.00"/>
    <line x1="489.60" y1="540.00" x2="489.60" y2="60.00"/>
    <line x1="502.40" y1="540.00" x2="502.40" y2="60.00"/>
    <line x1="508.80" y1="540.00" x2="508.80" y2="60.00"/>
    <line x1="515.20" y1="540.00" x2="515.20" y2="60.00"/>
    <line x1="521.60" y1="540.00" x2="521.60" y2="60.00"/>
    <line x1="534.40" y1="540.00" x2="534.40" y2="60.00"/>
    <line x1="540.80" y1="540.00" x2="540.80" y2="60.00"/>
    <line x1="547.20" y1="540.00" x2="547.20" y2="60.00"/>
    <line x1="553.60" y1="540.00" x2="553.60" y2="60.00"/>
    <line x1="566.40" y1="540.00" x2="566.40" y2="60.00"/>
    <line x1="572.80" y1="540.00" x2="572.80" y2="60.00"/>
    <line x1="579.20" y1="540.00" x2="579.20" y2="60.00"/>
    <line x1="585.60" y1="540.00" x2="585.60" y2="60.00"/>
    <line x1="598.40" y1="540.00" x2="598.40" y2="60.00"/>
    <line x1="604.80" y1="540.00" x2="604.80" y2="60.00"/>
    <line x1="611.20" y1="540.00" x2="611.20" y2="60.00"/>
    <line x1="617.60" y1="540.00" x2="617.60" y2="60.00"/>
    <line x1="630.40" y1="540.00" x2="630.40" y2="60.00"/>
    <line x1="636.80" y1="540.00" x2="636.80" y2="60.00"/>
    <line x1="643.20" y1="540.00" x2="643.20" y2="60.00"/>
    <line x1="649.60" y1="540.00" x2="649.60" y2="60.00"/>
    <line x1="662.40" y1="540.00" x2="662.40" y2="60.00"/>
    <line x1="668.80" y1="540.00" x2="668.80" y2="60.00"/>
    <line x1="675.20" y1="540.00" x2="675.20" y2="60.00"/>
    <line x1="681.60" y1="540.00" x2="681.60" y2="60.00"/>
    <line x1="694.40" y1="540.00" x2="694.40" y2="60.00"/>
    <line x1="700.80" y1="540.00" x2="700.80" y2="60.00"/>
    <line x1="707.20" y1="540.00" x2="707.20" y2="60.00"/>
    <line x1="713.60" y1="540.00" x2="713.60" y2="60.00"/>
    <line x1="80.00" y1="530.40" x2="720.00" y2="530.40"/>
    <line x1="80.00" y1="501.60" x2="720.00" y2="501.60"/>
    <line x1="80.00" y1="487.20" x2="720.00" y2="487.20"/>
    <line x1="80.00" y1="472.80" x2="720.00" y2="472.80"/>
    <line x1="80.00" y1="458.40" x2="720.00" y2="458.40"/>
    <line x1="80.00" y1="429.60" x2="720.00" y2="429.60"/>
    <line x1="80.00" y1="415.20" x2="720.00" y2="415.20"/>
    <line x1="80.00" y1="400.80" x2="720.00" y2="400.80"/>
    <line x1="80.00" y1="386.40" x2="720.00" y2="386.40"/>
    <line x1="80.00" y1="357.60" x2="720.00" y2="357.60"/>
    <line x1="80.00" y1="343.20" x2="720.00" y2="343.20"/>
    <line x1="80.00" y1="328.80" x2="720.00" y2="328.80"/>
    <line x1="80.00" y1="314.40" x2="720.00" y2="314.40"/>
    <line x1="80.00" y1="285.60" x2="720.00" y2="285.60"/>
    <line x1="80.00" y1="271.20" x2="720.00" y2="271.20"/>
    <line x1="80.00" y1="256.80" x2="720.00" y2="256.80"/>
    <line x1="80.00" y1="242.40" x2="720.00" y2="242.40"/>
    <line x1="80.00" y1="213.60" x2="720.00" y2="213.60"/>
    <line x1="80.00" y1="199.20" x2="720.00" y2="199.20"/>
    <line x1="80.00" y1="184.80" x2="720.00" y2="184.80"/>
    <line x1="80.00" y1="170.40" x2="720.00" y2="170.40"/>
    <line x1="80.00" y1="141.60" x2="720.00" y2="141.60"/>
    <line x1="80.00" y1="127.20" x2="720.00" y2="127.20"/>
    <line x1="80.00" y1="112.80" x2="720.00" y2="112.80"/>
    <line x1="80.00" y1="98.40" x2="720.00" y2="98.40"/>
    <line x1="80.00" y1="69.60" x2="720.00" y2="69.60"/>
  </g>
  <g stroke="#808080" stroke-width="2">
    <line x1="400.00" y1="540.00" x2="400.00" y2="60.00"/>
    <line x1="80.00" y1="444.00" x2="720.00" y2="444.00"/>
  </g>
  <polyline fill="none" stroke="#0066cc" stroke-width="2" points="80.00,540.00 88.10,533.92 96.20,527.85 104.30,521.77 112.41,515.70 120.51,509.62 128.61,503.54 136.71,497.47 144.81,491.39 152.91,485.32 161.01,479.24 169.11,473.16 177.22,467.09 185.32,461.01 193.42,454.94 201.52,448.86 209.62,442.78 217.72,436.71 225.82,430.63 233.92,424.56 242.03,418.48 250.13,412.41 258.23,406.33 266.33,400.25 274.43,394.18 282.53,388.10 290.63,382.03 298.73,375.95 306.84,369.87 314.94,363.80 323.04,357.72 331.14,351.65 339.24,345.57 347.34,339.49 355.44,333.42 363.54,327.34 371.65,321.27 379.75,315.19 387.85,309.11 395.95,303.04 404.05,296.96 412.15,290.89 420.25,284.81 428.35,278.73 436.46,272.66 444.56,266.58 452.66,260.51 460.76,254.43 468.86,248.35 476.96,242.28 485.06,236.20 493.16,230.13 501.27,224.05 509.37,217.97 517.47,211.90 525.57,205.82 533.67,199.75 541.77,193.67 549.87,187.59 557.97,181.52 566.08,175.44 574.18,169.37 582.28,163.29 590.38,157.22 598.48,151.14 606.58,145.06 614.68,138.99 622.78,132.91 630.89,126.84 638.99,120.76 647.09,114.68 655.19,108.61 663.29,102.53 671.39,96.46 679.49,90.38 687.59,84.30 695.70,78.23 703.80,72.15 711.90,66.08 720.00,60.00 "/>
</svg>
