<?xml version="1.0" encoding="UTF-8"?>
<svg xmlns="http://www.w3.org/2000/svg" width="800" height="600">
  <title>R=6</title>
  <rect width="800" height="600" fill="#ffffff"/>
  <g stroke="#d0d0d0" stroke-width="1">
    <line x1="79.82" y1="540.00" x2="79.82" y2="60.00"/>
    <line x1="133.17" y1="540.00" x2="133.17" y2="60.00"/>
    <line x1="186.52" y1="540.00" x2="186.52" y2="60.00"/>
    <line x1="239.87" y1="540.00" x2="239.87" y2="60.00"/>
    <line x1="293.21" y1="540.00" x2="293.21" y2="60.00"/>
    <line x1="346.56" y1="540.00" x2="346.56" y2="60.00"/>
    <line x1="399.91" y1="540.00" x2="399.91" y2="60.00"/>
    <line x1="453.26" y1="540.00" x2="453.26" y2="60.00"/>
    <line x1="506.61" y1="540.00" x2="506.61" y2="60.00"/>
    <line x1="559.96" y1="540.00" x2="559.96" y2="60.00"/>
    <line x1="613.30" y1="540.00" x2="613.30" y2="60.00"/>
    <line x1="666.65" y1="540.00" x2="666.65" y2="60.00"/>
    <line x1="720.00" y1="540.00" x2="720.00" y2="60.00"/>
    <line x1="80.00" y1="540.03" x2="720.00" y2="540.03"/>
    <line x1="80.00" y1="500.02" x2="720.00" y2="500.02"/>
    <line x1="80.00" y1="460.01" x2="720.00" y2="460.01"/>
    <line x1="80.00" y1="420.00" x2="720.00" y2="420.00"/>
    <line x1="80.00" y1="379.99" x2="720.00" y2="379.99"/>
    <line x1="80.00" y1="339.98" x2="720.00" y2="339.98"/>
    <line x1="80.00" y1="299.97" x2="720.00" y2="299.97"/>
    <line x1="80.00" y1="259.95" x2="720.00" y2="259.95"/>
    <line x1="80.00" y1="219.94" x2="720.00" y2="219.94"/>
    <line x1="80.00" y1="179.93" x2="720.00" y2="179.93"/>
    <line x1="80.00" y1="139.92" x2="720.00" y2="139.92"/>
    <line x1="80.00" y1="99.91" x2="720.00" y2="99.91"/>
    <line x1="80.00" y1="59.90" x2="720.00" y2="59.90"/>
  </g>
  <g stroke="#e8e8e8" stroke-width="0.5">
    <line x1="90.49" y1="540.00" x2="90.49" y2="60.00"/>
    <line x1="101.16" y1="540.00" x2="101.16" y2="60.00"/>
    <line x1="111.83" y1="540.00" x2="111.83" y2="60.00"/>
    <line x1="122.50" y1="540.00" x2="122.50" y2="60.00"/>
    <line x1="143.84" y1="540.00" x2="143.84" y2="60.00"/>
    <line x1="154.51" y1="540.00" x2="154.51" y2="60.00"/>
    <line x1="165.18" y1="540.00" x2="165.18" y2="60.00"/>
    <line x1="175.85" y1="540.00" x2="175.85" y2="60.00"/>
    <line x1="197.19" y1="540.00" x2="197.19" y2="60.00"/>
    <line x1="207.86" y1="540.00" x2="207.86" y2="60.00"/>
    <line x1="218.53" y1="540.00" x2="218.53" y2="60.00"/>
    <line x1="229.20" y1="540.00" x2="229.20" y2="60.00"/>
    <line x1="250.54" y1="540.00" x2="250.54" y2="60.00"/>
    <line x1="261.21" y1="540.00" x2="261.21" y2="60.00"/>
    <line x1="271.88" y1="540.00" x2="271.88" y2="60.00"/>
    <line x1="282.54" y1="540.00" x2="282.54" y2="60.00"/>
    <line x1="303.88" y1="540.00" x2="303.88" y2="60.00"/>
    <line x1="314.55" y1="540.00" x2="314.55" y2="60.00"/>
    <line x1="325.22" y1="540.00" x2="325.22" y2="60.00"/>
    <line x1="335.89" y1="540.00" x2="335.89" y2="60.00"/>
    <line x1="357.23" y1="540.00" x2="357.23" y2="60.00"/>
    <line x1="367.90" y1="540.00" x2="367.90" y2="60.00"/>
    <line x1="378.57" y1="540.00" x2="378.57" y2="60.00"/>
    <line x1="389.24" y1="540.00" x2="389.24" y2="60.00"/>
    <line x1="410.58" y1="540.00" x2="410.58" y2="60.00"/>
    <line x1="421.25" y1="540.00" x2="421.25" y2="60.00"/>
    <line x1="431.92" y1="540.00" x2="431.92" y2="60.00"/>
    <line x1="442.59" y1="540.00" x2="442.59" y2="60.00"/>
    <line x1="463.93" y1="540.00" x2="463.93" y2="60.00"/>
    <line x1="474.60" y1="540.00" x2="474.60" y2="60.00"/>
    <line x1="485.27" y1="540.00" x2="485.27" y2="60.00"/>
    <line x1="495.94" y1="540.00" x2="495.94" y2="60.00"/>
    <line x1="517.28" y1="540.00" x2="517.28" y2="60.00"/>
    <line x1="527.95" y1="540.00" x2="527.95" y2="60.00"/>
    <line x1="538.62" y1="540.00" x2="538.62" y2="60.00"/>
    <line x1="549.29" y1="540.00" x2="549.29" y2="60.00"/>
    <line x1="570.63" y1="540.00" x2="570.63" y2="60.00"/>
    <line x1="581.29" y1="540.00" x2="581.29" y2="60.00"/>
    <line x1="591.96" y1="540.00" x2="591.96" y2="60.00"/>
    <line x1="602.63" y1="540.00" x2="602.63" y2="60.00"/>
    <line x1="623.97" y1="540.00" x2="623.97" y2="60.00"/>
    <line x1="634.64" y1="540.00" x2="634.64" y2="60.00"/>
    <line x1="645.31" y1="540.00" x2="645.31" y2="60.00"/>
    <line x1="655.98" y1="540.00" x2="655.98" y2="60.00"/>
    <line x1="677.32" y1="540.00" x2="677.32" y2="60.00"/>
    <line x1="687.99" y1="540.00" x2="687.99" y2="60.00"/>
    <line x1="698.66" y1="540.00" x2="698.66" y2="60.00"/>
    <line x1="709.33" y1="540.00" x2="709.33" y2="60.00"/>
    <line x1="80.00" y1="532.03" x2="720.00" y2="532.03"/>
    <line x1="80.00" y1="524.03" x2="720.00" y2="524.03"/>
    <line x1="80.00" y1="516.03" x2="720.00" y2="516.03"/>
    <line x1="80.00" y1="508.02" x2="720.00" y2="508.02"/>
    <line x1="80.00" y1="492.02" x2="720.00" y2="492.02"/>
    <line x1="80.00" y1="484.02" x2="720.00" y2="484.02"/>
    <line x1="80.00" y1="476.02" x2="720.00" y2="476.02"/>
    <line x1="80.00" y1="468.01" x2="720.00" y2="468.01"/>
    <line x1="80.00" y1="452.01" x2="720.00" y2="452.01"/>
    <line x1="80.00" y1="444.01" x2="720.00" y2="444.01"/>
    <line x1="80.00" y1="436.00" x2="720.00" y2="436.00"/>
    <line x1="80.00" y1="428.00" x2="720.00" y2="428.00"/>
    <line x1="80.00" y1="412.00" x2="720.00" y2="412.00"/>
    <line x1="80.00" y1="403.99" x2="720.00" y2="403.99"/>
    <line x1="80.00" y1="395.99" x2="720.00" y2="395.99"/>
    <line x1="80.00" y1="387.99" x2="720.00" y2="387.99"/>
    <line x1="80.00" y1="371.99" x2="720.00" y2="371.99"/>
    <line x1="80.00" y1="363.98" x2="720.00" y2="363.98"/>
    <line x1="80.00" y1="355.98" x2="720.00" y2="355.98"/>
    <line x1="80.00" y1="347.98" x2="720.00" y2="347.98"/>
    <line x1="80.00" y1="331.97" x2="720.00" y2="331.97"/>
    <line x1="80.00" y1="323.97" x2="720.00" y2="323.97"/>
    <line x1="80.00" y1="315.97" x2="720.00" y2="315.97"/>
    <line x1="80.00" y1="307.97" x2="720.00" y2="307.97"/>
    <line x1="80.00" y1="291.96" x2="720.00" y2="291.96"/>
    <line x1="80.00" y1="283.96" x2="720.00" y2="283.96"/>
    <line x1="80.00" y1="275.96" x2="720.00" y2="275.96"/>
    <line x1="80.00" y1="267.96" x2="720.00" y2="267.96"/>
    <line x1="80.00" y1="251.95" x2="720.00" y2="251.95"/>
    <line x1="80.00" y1="243.95" x2="720.00" y2="243.95"/>
    <line x1="80.00" y1="235.95" x2="720.00" y2="235.95"/>
    <line x1="80.00" y1="227.94" x2="720.00" y2="227.94"/>
    <line x1="80.00" y1="211.94" x2="720.00" y2="211.94"/>
    <line x1="80.00" y1="203.94" x2="720.00" y2="203.94"/>
    <line x1="80.00" y1="195.94" x2="720.00" y2="195.94"/>
    <line x1="80.00" y1="187.93" x2="720.00" y2="187.93"/>
    <line x1="80.00" y1="171.93" x2="720.00" y2="171.93"/>
    <line x1="80.00" y1="163.93" x2="720.00" y2="163.93"/>
    <line x1="80.00" y1="155.92" x2="720.00" y2="155.92"/>
    <line x1="80.00" y1="147.92" x2="720.00" y2="147.92"/>
    <line x1="80.00" y1="131.92" x2="720.00" y2="131.92"/>
    <line x1="80.00" y1="123.92" x2="720.00" y2="123.92"/>
    <line x1="80.00" y1="115.91" x2="720.00" y2="115.91"/>
    <line x1="80.00" y1="107.91" x2="720.00" y2="107.91"/>
    <line x1="80.00" y1="91.91" x2="720.00" y2="91.91"/>
    <line x1="80.00" y1="83.90" x2="720.00" y2="83.90"/>
    <line x1="80.00" y1="75.90" x2="720.00" y2="75.90"/>
    <line x1="80.00" y1="67.90" x2="720.00" y2="67.90"/>
  </g>
  <g stroke="#808080" stroke-width="2">
    <line x1="399.91" y1="540.00" x2="399.91" y2="60.00"/>
    <line x1="80.00" y1="299.97" x2="720.00" y2="299.97"/>
  </g>
  <polyline fill="none" stroke="#0066cc" stroke-width="2" points="719.97,296.95 718.65,277.92 715.31,259.04 709.99,240.41 702.72,222.16 693.54,204.40 682.51,187.23 669.71,170.78 655.20,155.14 639.08,140.42 621.46,126.70 602.45,114.07 582.16,102.61 560.72,92.39 538.27,83.48 514.95,75.94 490.90,69.80 466.28,65.11 441.24,61.91 415.94,60.20 390.54,60.00 365.20,61.31 340.08,64.13 315.34,68.43 291.13,74.19 267.60,81.37 244.90,89.92 223.19,99.80 202.58,110.94 183.22,123.27 165.22,136.72 148.70,151.19 133.76,166.59 120.50,182.84 109.00,199.83 99.33,217.44 91.55,235.58 85.71,254.12 81.85,272.95 80.00,291.95 80.16,311.00 82.33,329.98 86.51,348.77 92.65,367.25 100.73,385.31 110.70,402.84 122.48,419.71 136.02,435.83 151.21,451.10 167.97,465.41 186.20,478.69 205.76,490.83 226.55,501.78 248.44,511.45 271.27,519.79 294.92,526.75 319.22,532.28 344.04,536.35 369.20,538.93 394.56,540.00 419.96,539.56 445.23,537.62 470.21,534.17 494.75,529.25 518.69,522.89 541.88,515.13 564.18,506.01 585.45,495.59 605.55,483.94 624.35,471.13 641.74,457.24 657.61,442.37 671.85,426.60 684.38,410.02 695.12,392.76 704.00,374.91 710.97,356.59 715.98,337.92 718.99,319.00 720.00,299.97 "/>
</svg>
