<?xml version="1.0" encoding="UTF-8"?>
<svg xmlns="http://www.w3.org/2000/svg" width="800" height="600">
  <title>R=6/(2-sin(t))</title>
  <rect width="800" height="600" fill="#ffffff"/>
  <g stroke="#d0d0d0" stroke-width="1">
    <line x1="30.43" y1="540.00" x2="30.43" y2="60.00"/>
    <line x1="122.85" y1="540.00" x2="122.85" y2="60.00"/>
    <line x1="215.27" y1="540.00" x2="215.27" y2="60.00"/>
    <line x1="307.69" y1="540.00" x2="307.69" y2="60.00"/>
    <line x1="400.11" y1="540.00" x2="400.11" y2="60.00"/>
    <line x1="492.52" y1="540.00" x2="492.52" y2="60.00"/>
    <line x1="584.94" y1="540.00" x2="584.94" y2="60.00"/>
    <line x1="677.36" y1="540.00" x2="677.36" y2="60.00"/>
    <line x1="769.78" y1="540.00" x2="769.78" y2="60.00"/>
    <line x1="80.00" y1="540.01" x2="720.00" y2="540.01"/>
    <line x1="80.00" y1="479.97" x2="720.00" y2="479.97"/>
    <line x1="80.00" y1="419.93" x2="720.00" y2="419.93"/>
    <line x1="80.00" y1="359.89" x2="720.00" y2="359.89"/>
    <line x1="80.00" y1="299.85" x2="720.00" y2="299.85"/>
    <line x1="80.00" y1="239.81" x2="720.00" y2="239.81"/>
    <line x1="80.00" y1="179.77" x2="720.00" y2="179.77"/>
    <line x1="80.00" y1="119.73" x2="720.00" y2="119.73"/>
    <line x1="80.00" y1="59.69" x2="720.00" y2="59.69"/>
  </g>
  <g stroke="#e8e8e8" stroke-width="0.5">
    <line x1="85.88" y1="540.00" x2="85.88" y2="60.00"/>
    <line x1="104.37" y1="540.00" x2="104.37" y2="60.00"/>
    <line x1="141.33" y1="540.00" x2="141.33" y2="60.00"/>
    <line x1="159.82" y1="540.00" x2="159.82" y2="60.00"/>
    <line x1="178.30" y1="540.00" x2="178.30" y2="60.00"/>
    <line x1="196.79" y1="540.00" x2="196.79" y2="60.00"/>
    <line x1="233.75" y1="540.00" x2="233.75" y2="60.00"/>
    <line x1="252.24" y1="540.00" x2="252.24" y2="60.00"/>
    <line x1="270.72" y1="540.00" x2="270.72" y2="60.00"/>
    <line x1="289.20" y1="540.00" x2="289.20" y2="60.00"/>
    <line x1="326.17" y1="540.00" x2="326.17" y2="60.00"/>
    <line x1="344.65" y1="540.00" x2="344.65" y2="60.00"/>
    <line x1="363.14" y1="540.00" x2="363.14" y2="60.00"/>
    <line x1="381.62" y1="540.00" x2="381.62" y2="60.00"/>
    <line x1="418.59" y1="540.00" x2="418.59" y2="60.00"/>
    <line x1="437.07" y1="540.00" x2="437.07" y2="60.00"/>
    <line x1="455.56" y1="540.00" x2="455.56" y2="60.00"/>
    <line x1="474.04" y1="540.00" x2="474.04" y2="60.00"/>
    <line x1="511.01" y1="540.00" x2="511.01" y2="60.00"/>
    <line x1="529.49" y1="540.00" x2="529.49" y2="60.00"/>
    <line x1="547.98" y1="540.00" x2="547.98" y2="60.00"/>
    <line x1="566.46" y1="540.00" x2="566.46" y2="60.00"/>
    <line x1="603.43" y1="540.00" x2="603.43" y2="60.00"/>
    <line x1="621.91" y1="540.00" x2="621.91" y2="60.00"/>
    <line x1="640.39" y1="540.00" x2="640.39" y2="60.00"/>
    <line x1="658.88" y1="540.00" x2="658.88" y2="60.00"/>
    <line x1="695.85" y1="540.00" x2="695.85" y2="60.00"/>
    <line x1="714.33" y1="540.00" x2="714.33" y2="60.00"/>
    <line x1="80.00" y1="528.00" x2="720.00" y2="528.00"/>
    <line x1="80.00" y1="516.00" x2="720.00" y2="516.00"/>
    <line x1="80.00" y1="503.99" x2="720.00" y2="503.99"/>
    <line x1="80.00" y1="491.98" x2="720.00" y2="491.98"/>
    <line x1="80.00" y1="467.96" x2="720.00" y2="467.96"/>
    <line x1="80.00" y1="455.96" x2="720.00" y2="455.96"/>
    <line x1="80.00" y1="443.95" x2="720.00" y2="443.95"/>
    <line x1="80.00" y1="431.94" x2="720.00" y2="431.94"/>
    <line x1="80.00" y1="407.92" x2="720.00" y2="407.92"/>
    <line x1="80.00" y1="395.92" x2="720.00" y2="395.92"/>
    <line x1="80.00" y1="383.91" x2="720.00" y2="383.91"/>
    <line x1="80.00" y1="371.90" x2="720.00" y2="371.90"/>
    <line x1="80.00" y1="347.88" x2="720.00" y2="347.88"/>
    <line x1="80.00" y1="335.88" x2="720.00" y2="335.88"/>
    <line x1="80.00" y1="323.87" x2="720.00" y2="323.87"/>
    <line x1="80.00" y1="311.86" x2="720.00" y2="311.86"/>
    <line x1="80.00" y1="287.84" x2="720.00" y2="287.84"/>
    <line x1="80.00" y1="275.84" x2="720.00" y2="275.84"/>
    <line x1="80.00" y1="263.83" x2="720.00" y2="263.83"/>
    <line x1="80.00" y1="251.82" x2="720.00" y2="251.82"/>
    <line x1="80.00" y1="227.80" x2="720.00" y2="227.80"/>
    <line x1="80.00" y1="215.80" x2="720.00" y2="215.80"/>
    <line x1="80.00" y1="203.79" x2="720.00" y2="203.79"/>
    <line x1="80.00" y1="191.78" x2="720.00" y2="191.78"/>
    <line x1="80.00" y1="167.76" x2="720.00" y2="167.76"/>
    <line x1="80.00" y1="155.76" x2="720.00" y2="155.76"/>
    <line x1="80.00" y1="143.75" x2="720.00" y2="143.75"/>
    <line x1="80.00" y1="131.74" x2="720.00" y2="131.74"/>
    <line x1="80.00" y1="107.72" x2="720.00" y2="107.72"/>
    <line x1="80.00" y1="95.72" x2="720.00" y2="95.72"/>
    <line x1="80.00" y1="83.71" x2="720.00" y2="83.71"/>
    <line x1="80.00" y1="71.70" x2="720.00" y2="71.70"/>
  </g>
  <g stroke="#808080" stroke-width="2">
    <line x1="400.11" y1="540.00" x2="400.11" y2="60.00"/>
    <line x1="80.00" y1="419.93" x2="720.00" y2="419.93"/>
  </g>
  <polyline fill="none" stroke="#0066cc" stroke-width="2" points="679.09,417.65 689.47,402.60 698.76,386.36 706.73,368.92 713.12,350.26 717.65,330.41 720.00,309.40 719.82,287.33 716.74,264.35 710.37,240.65 700.37,216.53 686.38,192.34 668.14,168.51 645.47,145.59 618.35,124.14 586.91,104.81 551.48,88.24 512.63,75.02 471.11,65.67 427.84,60.59 383.89,60.00 340.33,63.91 298.26,72.17 258.62,84.42 222.24,100.17 189.71,118.84 161.43,139.79 137.59,162.39 118.20,186.03 103.12,210.17 92.10,234.35 84.81,258.19 80.91,281.38 80.00,303.70 81.72,325.00 85.71,345.17 91.64,364.14 99.22,381.90 108.19,398.45 118.30,413.81 129.36,428.02 141.21,441.12 153.69,453.17 166.68,464.21 180.08,474.30 193.80,483.50 207.77,491.84 221.94,499.39 236.26,506.18 250.69,512.25 265.20,517.65 279.77,522.40 294.38,526.54 309.02,530.09 323.67,533.07 338.34,535.50 353.01,537.40 367.68,538.78 382.35,539.64 397.02,540.00 411.69,539.85 426.36,539.20 441.03,538.04 455.70,536.36 470.37,534.16 485.03,531.41 499.67,528.10 514.29,524.22 528.88,519.73 543.42,514.60 557.89,508.82 572.26,502.33 586.50,495.11 600.56,487.11 614.40,478.28 627.94,468.57 641.11,457.94 653.82,446.32 665.95,433.67 677.36,419.93 "/>
</svg>
