<?xml version="1.0" encoding="UTF-8"?>
<svg xmlns="http://www.w3.org/2000/svg" width="800" height="600">
  <title>Y=x*x:-2,2:</title>
  <rect width="800" height="600" fill="#ffffff"/>
  <g stroke="#d0d0d0" stroke-width="1">
    <line x1="80.00" y1="540.00" x2="80.00" y2="60.00"/>
    <line x1="240.00" y1="540.00" x2="240.00" y2="60.00"/>
    <line x1="400.00" y1="540.00" x2="400.00" y2="60.00"/>
    <line x1="560.00" y1="540.00" x2="560.00" y2="60.00"/>
    <line x1="720.00" y1="540.00" x2="720.00" y2="60.00"/>
    <line x1="80.00" y1="540.08" x2="720.00" y2="540.08"/>
    <line x1="80.00" y1="420.06" x2="720.00" y2="420.06"/>
    <line x1="80.00" y1="300.04" x2="720.00" y2="300.04"/>
    <line x1="80.00" y1="180.02" x2="720.00" y2="180.02"/>
    <line x1="80.00" y1="60.00" x2="720.00" y2="60.00"/>
  </g>
  <g stroke="#e8e8e8" stroke-width="0.5">
    <line x1="112.00" y1="540.00" x2="112.00" y2="60.00"/>
    <line x1="144.00" y1="540.00" x2="144.00" y2="60.00"/>
    <line x1="176.00" y1="540.00" x2="176.00" y2="60.00"/>
    <line x1="208.00" y1="540.00" x2="208.00" y2="60.00"/>
    <line x1="272.00" y1="540.00" x2="272.00" y2="60.00"/>
    <line x1="304.00" y1="540.00" x2="304.00" y2="60.00"/>
    <line x1="336.00" y1="540.00" x2="336.00" y2="60.00"/>
    <line x1="368.00" y1="540.00" x2="368.00" y2="60.00"/>
    <line x1="432.00" y1="540.00" x2="432.00" y2="60.00"/>
    <line x1="464.00" y1="540.00" x2="464.00" y2="60.00"/>
    <line x1="496.00" y1="540.00" x2="496.00" y2="60.00"/>
    <line x1="528.00" y1="540.00" x2="528.00" y2="60.00"/>
    <line x1="592.00" y1="540.00" x2="592.00" y2="60.00"/>
    <line x1="624.00" y1="540.00" x2="624.00" y2="60.00"/>
    <line x1="656.00" y1="540.00" x2="656.00" y2="60.00"/>
    <line x1="688.00" y1="540.00" x2="688.00" y2="60.00"/>
    <line x1="80.00" y1="516.07" x2="720.00" y2="516.07"/>
    <line x1="80.00" y1="492.07" x2="720.00" y2="492.07"/>
    <line x1="80.00" y1="468.07" x2="720.00" y2="468.07"/>
    <line x1="80.00" y1="444.06" x2="720.00" y2="444.06"/>
    <line x1="80.00" y1="396.05" x2="720.00" y2="396.05"/>
    <line x1="80.00" y1="372.05" x2="720.00" y2="372.05"/>
    <line x1="80.00" y1="348.05" x2="720.00" y2="348.05"/>
    <line x1="80.00" y1="324.04" x2="720.00" y2="324.04"/>
    <line x1="80.00" y1="276.03" x2="720.00" y2="276.03"/>
    <line x1="80.00" y1="252.03" x2="720.00" y2="252.03"/>
    <line x1="80.00" y1="228.03" x2="720.00" y2="228.03"/>
    <line x1="80.00" y1="204.02" x2="720.00" y2="204.02"/>
    <line x1="80.00" y1="156.02" x2="720.00" y2="156.02"/>
    <line x1="80.00" y1="132.01" x2="720.00" y2="132.01"/>
    <line x1="80.00" y1="108.01" x2="720.00" y2="108.01"/>
    <line x1="80.00" y1="84.00" x2="720.00" y2="84.00"/>
  </g>
  <g stroke="#808080" stroke-width="2">
    <line x1="80.00" y1="540.08" x2="720.00" y2="540.08"/>
  </g>
  <polyline fill="none" stroke="#0066cc" stroke-width="2" points="80.00,60.00 88.10,84.00 96.20,107.38 104.30,130.15 112.41,152.31 120.51,173.85 128.61,194.77 136.71,215.08 144.81,234.77 152.91,253.85 161.01,272.31 169.11,290.15 177.22,307.38 185.32,324.00 193.42,340.00 201.52,355.38 209.62,370.15 217.72,384.31 225.82,397.85 233.92,410.77 242.03,423.08 250.13,434.77 258.23,445.85 266.33,456.31 274.43,466.15 282.53,475.38 290.63,484.00 298.73,492.00 306.84,499.38 314.94,506.15 323.04,512.31 331.14,517.85 339.24,522.77 347.34,527.08 355.44,530.77 363.54,533.85 371.65,536.31 379.75,538.15 387.85,539.38 395.95,540.00 404.05,540.00 412.15,539.38 420.25,538.15 428.35,536.31 436.46,533.85 444.56,530.77 452.66,527.08 460.76,522.77 468.86,517.85 476.96,512.31 485.06,506.15 493.16,499.38 501.27,492.00 509.37,484.00 517.47,475.38 525.57,466.15 533.67,456.31 541.77,445.85 549.87,434.77 557.97,423.08 566.08,410.77 574.18,397.85 582.28,384.31 590.38,370.15 598.48,355.38 606.58,340.00 614.68,324.00 622.78,307.38 630.89,290.15 638.99,272.31 647.09,253.85 655.19,234.77 663.29,215.08 671.39,194.77 679.49,173.85 687.59,152.31 695.70,130.15 703.80,107.38 711.90,84.00 720.00,60.00 "/>
</svg>
