<?xml version="1.0" encoding="UTF-8"?>
<svg xmlns="http://www.w3.org/2000/svg" width="800" height="600">
  <title>Y=x*x*x:-1.5,1.5:</title>
  <rect width="800" height="600" fill="#ffffff"/>
  <g stroke="#d0d0d0" stroke-width="1">
    <line x1="-26.67" y1="540.00" x2="-26.67" y2="60.00"/>
    <line x1="186.67" y1="540.00" x2="186.67" y2="60.00"/>
    <line x1="400.00" y1="540.00" x2="400.00" y2="60.00"/>
    <line x1="613.33" y1="540.00" x2="613.33" y2="60.00"/>
    <line x1="826.67" y1="540.00" x2="826.67" y2="60.00"/>
    <line x1="80.00" y1="584.44" x2="720.00" y2="584.44"/>
    <line x1="80.00" y1="513.33" x2="720.00" y2="513.33"/>
    <line x1="80.00" y1="442.22" x2="720.00" y2="442.22"/>
    <line x1="80.00" y1="371.11" x2="720.00" y2="371.11"/>
    <line x1="80.00" y1="300.00" x2="720.00" y2="300.00"/>
    <line x1="80.00" y1="228.89" x2="720.00" y2="228.89"/>
    <line x1="80.00" y1="157.78" x2="720.00" y2="157.78"/>
    <line x1="80.00" y1="86.67" x2="720.00" y2="86.67"/>
    <line x1="80.00" y1="15.56" x2="720.00" y2="15.56"/>
  </g>
  <g stroke="#e8e8e8" stroke-width="0.5">
    <line x1="101.33" y1="540.00" x2="101.33" y2="60.00"/>
    <line x1="144.00" y1="540.00" x2="144.00" y2="60.00"/>
    <line x1="229.33" y1="540.00" x2="229.33" y2="60.00"/>
    <line x1="272.00" y1="540.00" x2="272.00" y2="60.00"/>
    <line x1="314.67" y1="540.00" x2="314.67" y2="60.00"/>
    <line x1="357.33" y1="540.00" x2="357.33" y2="60.00"/>
    <line x1="442.67" y1="540.00" x2="442.67" y2="60.00"/>
    <line x1="485.33" y1="540.00" x2="485.33" y2="60.00"/>
    <line x1="528.00" y1="540.00" x2="528.00" y2="60.00"/>
    <line x1="570.67" y1="540.00" x2="570.67" y2="60.00"/>
    <line x1="656.00" y1="540.00" x2="656.00" y2="60.00"/>
    <line x1="698.67" y1="540.00" x2="698.67" y2="60.00"/>
    <line x1="80.00" y1="527.56" x2="720.00" y2="527.56"/>
    <line x1="80.00" y1="499.11" x2="720.00" y2="499.11"/>
    <line x1="80.00" y1="484.89" x2="720.00" y2="484.89"/>
    <line x1="80.00" y1="470.67" x2="720.00" y2="470.67"/>
    <line x1="80.00" y1="456.44" x2="720.00" y2="456.44"/>
    <line x1="80.00" y1="428.00" x2="720.00" y2="428.00"/>
    <line x1="80.00" y1="413.78" x2="720.00" y2="413.78"/>
    <line x1="80.00" y1="399.56" x2="720.00" y2="399.56"/>
    <line x1="80.00" y1="385.33" x2="720.00" y2="385.33"/>
    <line x1="80.00" y1="356.89" x2="720.00" y2="356.89"/>
    <line x1="80.00" y1="342.67" x2="720.00" y2="342.67"/>
    <line x1="80.00" y1="328.44" x2="720.00" y2="328.44"/>
    <line x1="80.00" y1="314.22" x2="720.00" y2="314.22"/>
    <line x1="80.00" y1="285.78" x2="720.00" y2="285.78"/>
    <line x1="80.00" y1="271.56" x2="720.00" y2="271.56"/>
    <line x1="80.00" y1="257.33" x2="720.00" y2="257.33"/>
    <line x1="80.00" y1="243.11" x2="720.00" y2="243.11"/>
    <line x1="80.00" y1="214.67" x2="720.00" y2="214.67"/>
    <line x1="80.00" y1="200.44" x2="720.00" y2="200.44"/>
    <line x1="80.00" y1="186.22" x2="720.00" y2="186.22"/>
    <line x1="80.00" y1="172.00" x2="720.00" y2="172.00"/>
    <line x1="80.00" y1="143.56" x2="720.00" y2="143.56"/>
    <line x1="80.00" y1="129.33" x2="720.00" y2="129.33"/>
    <line x1="80.00" y1="115.11" x2="720.00" y2="115.11"/>
    <line x1="80.00" y1="100.89" x2="720.00" y2="100.89"/>
    <line x1="80.00" y1="72.44" x2="720.00" y2="72.44"/>
  </g>
  <g stroke="#808080" stroke-width="2">
    <line x1="400.00" y1="540.00" x2="400.00" y2="60.00"/>
    <line x1="80.00" y1="300.00" x2="720.00" y2="300.00"/>
  </g>
  <polyline fill="none" stroke="#0066cc" stroke-width="2" points="80.00,540.00 88.10,522.23 96.20,505.36 104.30,489.36 112.41,474.22 120.51,459.91 128.61,446.40 136.71,433.68 144.81,421.72 152.91,410.49 161.01,399.97 169.11,390.15 177.22,380.99 185.32,372.47 193.42,364.57 201.52,357.27 209.62,350.54 217.72,344.36 225.82,338.70 233.92,333.55 242.03,328.88 250.13,324.66 258.23,320.87 266.33,317.49 274.43,314.50 282.53,311.87 290.63,309.58 298.73,307.61 306.84,305.92 314.94,304.51 323.04,303.34 331.14,302.39 339.24,301.64 347.34,301.07 355.44,300.65 363.54,300.35 371.65,300.17 379.75,300.06 387.85,300.01 395.95,300.00 404.05,300.00 412.15,299.99 420.25,299.94 428.35,299.83 436.46,299.65 444.56,299.35 452.66,298.93 460.76,298.36 468.86,297.61 476.96,296.66 485.06,295.49 493.16,294.08 501.27,292.39 509.37,290.42 517.47,288.13 525.57,285.50 533.67,282.51 541.77,279.13 549.87,275.34 557.97,271.12 566.08,266.45 574.18,261.30 582.28,255.64 590.38,249.46 598.48,242.73 606.58,235.43 614.68,227.53 622.78,219.01 630.89,209.85 638.99,200.03 647.09,189.51 655.19,178.28 663.29,166.32 671.39,153.60 679.49,140.09 687.59,125.78 695.70,110.64 703.80,94.64 711.90,77.77 720.00,60.00 "/>
</svg>
