<?xml version="1.0" encoding="UTF-8"?>
<svg xmlns="http://www.w3.org/2000/svg" width="800" height="600">
  <title>R=4/(2-3*cos(t))</title>
  <rect width="800" height="600" fill="#ffffff"/>
  <g stroke="#d0d0d0" stroke-width="1">
    <line x1="72.82" y1="540.00" x2="72.82" y2="60.00"/>
    <line x1="81.77" y1="540.00" x2="81.77" y2="60.00"/>
    <line x1="90.71" y1="540.00" x2="90.71" y2="60.00"/>
    <line x1="99.66" y1="540.00" x2="99.66" y2="60.00"/>
    <line x1="108.60" y1="540.00" x2="108.60" y2="60.00"/>
    <line x1="117.55" y1="540.00" x2="117.55" y2="60.00"/>
    <line x1="126.49" y1="540.00" x2="126.49" y2="60.00"/>
    <line x1="135.44" y1="540.00" x2="135.44" y2="60.00"/>
    <line x1="144.38" y1="540.00" x2="144.38" y2="60.00"/>
    <line x1="153.33" y1="540.00" x2="153.33" y2="60.00"/>
    <line x1="162.27" y1="540.00" x2="162.27" y2="60.00"/>
    <line x1="171.22" y1="540.00" x2="171.22" y2="60.00"/>
    <line x1="180.16" y1="540.00" x2="180.16" y2="60.00"/>
    <line x1="189.11" y1="540.00" x2="189.11" y2="60.00"/>
    <line x1="198.05" y1="540.00" x2="198.05" y2="60.00"/>
    <line x1="207.00" y1="540.00" x2="207.00" y2="60.00"/>
    <line x1="215.94" y1="540.00" x2="215.94" y2="60.00"/>
    <line x1="224.89" y1="540.00" x2="224.89" y2="60.00"/>
    <line x1="233.83" y1="540.00" x2="233.83" y2="60.00"/>
    <line x1="242.78" y1="540.00" x2="242.78" y2="60.00"/>
    <line x1="251.72" y1="540.00" x2="251.72" y2="60.00"/>
    <line x1="260.67" y1="540.00" x2="260.67" y2="60.00"/>
    <line x1="269.61" y1="540.00" x2="269.61" y2="60.00"/>
    <line x1="278.56" y1="540.00" x2="278.56" y2="60.00"/>
    <line x1="287.50" y1="540.00" x2="287.50" y2="60.00"/>
    <line x1="296.45" y1="540.00" x2="296.45" y2="60.00"/>
    <line x1="305.39" y1="540.00" x2="305.39" y2="60.00"/>
    <line x1="314.34" y1="540.00" x2="314.34" y2="60.00"/>
    <line x1="323.28" y1="540.00" x2="323.28" y2="60.00"/>
    <line x1="332.23" y1="540.00" x2="332.23" y2="60.00"/>
    <line x1="341.17" y1="540.00" x2="341.17" y2="60.00"/>
    <line x1="350.12" y1="540.00" x2="350.12" y2="60.00"/>
    <line x1="359.06" y1="540.00" x2="359.06" y2="60.00"/>
    <line x1="368.01" y1="540.00" x2="368.01" y2="60.00"/>
    <line x1="376.95" y1="540.00" x2="376.95" y2="60.00"/>
    <line x1="385.90" y1="540.00" x2="385.90" y2="60.00"/>
    <line x1="394.84" y1="540.00" x2="394.84" y2="60.00"/>
    <line x1="403.79" y1="540.00" x2="403.79" y2="60.00"/>
    <line x1="412.73" y1="540.00" x2="412.73" y2="60.00"/>
    <line x1="421.68" y1="540.00" x2="421.68" y2="60.00"/>
    <line x1="430.62" y1="540.00" x2="430.62" y2="60.00"/>
    <line x1="439.57" y1="540.00" x2="439.57" y2="60.00"/>
    <line x1="448.51" y1="540.00" x2="448.51" y2="60.00"/>
    <line x1="457.46" y1="540.00" x2="457.46" y2="60.00"/>
    <line x1="466.40" y1="540.00" x2="466.40" y2="60.00"/>
    <line x1="475.35" y1="540.00" x2="475.35" y2="60.00"/>
    <line x1="484.29" y1="540.00" x2="484.29" y2="60.00"/>
    <line x1="493.24" y1="540.00" x2="493.24" y2="60.00"/>
    <line x1="502.18" y1="540.00" x2="502.18" y2="60.00"/>
    <line x1="511.13" y1="540.00" x2="511.13" y2="60.00"/>
    <line x1="520.07" y1="540.00" x2="520.07" y2="60.00"/>
    <line x1="529.02" y1="540.00" x2="529.02" y2="60.00"/>
    <line x1="537.96" y1="540.00" x2="537.96" y2="60.00"/>
    <line x1="546.91" y1="540.00" x2="546.91" y2="60.00"/>
    <line x1="555.86" y1="540.00" x2="555.86" y2="60.00"/>
    <line x1="564.80" y1="540.00" x2="564.80" y2="60.00"/>
    <line x1="573.75" y1="540.00" x2="573.75" y2="60.00"/>
    <line x1="582.69" y1="540.00" x2="582.69" y2="60.00"/>
    <line x1="591.64" y1="540.00" x2="591.64" y2="60.00"/>
    <line x1="600.58" y1="540.00" x2="600.58" y2="60.00"/>
    <line x1="609.53" y1="540.00" x2="609.53" y2="60.00"/>
    <line x1="618.47" y1="540.00" x2="618.47" y2="60.00"/>
    <line x1="627.42" y1="540.00" x2="627.42" y2="60.00"/>
    <line x1="636.36" y1="540.00" x2="636.36" y2="60.00"/>
    <line x1="645.31" y1="540.00" x2="645.31" y2="60.00"/>
    <line x1="654.25" y1="540.00" x2="654.25" y2="60.00"/>
    <line x1="663.20" y1="540.00" x2="663.20" y2="60.00"/>
    <line x1="672.14" y1="540.00" x2="672.14" y2="60.00"/>
    <line x1="681.09" y1="540.00" x2="681.09" y2="60.00"/>
    <line x1="690.03" y1="540.00" x2="690.03" y2="60.00"/>
    <line x1="698.98" y1="540.00" x2="698.98" y2="60.00"/>
    <line x1="707.92" y1="540.00" x2="707.92" y2="60.00"/>
    <line x1="716.87" y1="540.00" x2="716.87" y2="60.00"/>
    <line x1="725.81" y1="540.00" x2="725.81" y2="60.00"/>
    <line x1="80.00" y1="545.50" x2="720.00" y2="545.50"/>
    <line x1="80.00" y1="538.89" x2="720.00" y2="538.89"/>
    <line x1="80.00" y1="532.28" x2="720.00" y2="532.28"/>
    <line x1="80.00" y1="525.67" x2="720.00" y2="525.67"/>
    <line x1="80.00" y1="519.06" x2="720.00" y2="519.06"/>
    <line x1="80.00" y1="512.45" x2="720.00" y2="512.45"/>
    <line x1="80.00" y1="505.84" x2="720.00" y2="505.84"/>
    <line x1="80.00" y1="499.23" x2="720.00" y2="499.23"/>
    <line x1="80.00" y1="492.62" x2="720.00" y2="492.62"/>
    <line x1="80.00" y1="486.01" x2="720.00" y2="486.01"/>
    <line x1="80.00" y1="479.39" x2="720.00" y2="479.39"/>
    <line x1="80.00" y1="472.78" x2="720.00" y2="472.78"/>
    <line x1="80.00" y1="466.17" x2="720.00" y2="466.17"/>
    <line x1="80.00" y1="459.56" x2="720.00" y2="459.56"/>
    <line x1="80.00" y1="452.95" x2="720.00" y2="452.95"/>
    <line x1="80.00" y1="446.34" x2="720.00" y2="446.34"/>
    <line x1="80.00" y1="439.73" x2="720.00" y2="439.73"/>
    <line x1="80.00" y1="433.12" x2="720.00" y2="433.12"/>
    <line x1="80.00" y1="426.51" x2="720.00" y2="426.51"/>
    <line x1="80.00" y1="419.90" x2="720.00" y2="419.90"/>
    <line x1="80.00" y1="413.29" x2="720.00" y2="413.29"/>
    <line x1="80.00" y1="406.68" x2="720.00" y2="406.68"/>
    <line x1="80.00" y1="400.07" x2="720.00" y2="400.07"/>
    <line x1="80.00" y1="393.46" x2="720.00" y2="393.46"/>
    <line x1="80.00" y1="386.85" x2="720.00" y2="386.85"/>
    <line x1="80.00" y1="380.24" x2="720.00" y2="380.24"/>
    <line x1="80.00" y1="373.63" x2="720.00" y2="373.63"/>
    <line x1="80.00" y1="367.02" x2="720.00" y2="367.02"/>
    <line x1="80.00" y1="360.41" x2="720.00" y2="360.41"/>
    <line x1="80.00" y1="353.80" x2="720.00" y2="353.80"/>
    <line x1="80.00" y1="347.19" x2="720.00" y2="347.19"/>
    <line x1="80.00" y1="340.58" x2="720.00" y2="340.58"/>
    <line x1="80.00" y1="333.97" x2="720.00" y2="333.97"/>
    <line x1="80.00" y1="327.36" x2="720.00" y2="327.36"/>
    <line x1="80.00" y1="320.75" x2="720.00" y2="320.75"/>
    <line x1="80.00" y1="314.14" x2="720.00" y2="314.14"/>
    <line x1="80.00" y1="307.53" x2="720.00" y2="307.53"/>
    <line x1="80.00" y1="300.92" x2="720.00" y2="300.92"/>
    <line x1="80.00" y1="294.31" x2="720.00" y2="294.31"/>
    <line x1="80.00" y1="287.70" x2="720.00" y2="287.70"/>
    <line x1="80.00" y1="281.09" x2="720.00" y2="281.09"/>
    <line x1="80.00" y1="274.48" x2="720.00" y2="274.48"/>
    <line x1="80.00" y1="267.87" x2="720.00" y2="267.87"/>
    <line x1="80.00" y1="261.26" x2="720.00" y2="261.26"/>
    <line x1="80.00" y1="254.65" x2="720.00" y2="254.65"/>
    <line x1="80.00" y1="248.03" x2="720.00" y2="248.03"/>
    <line x1="80.00" y1="241.42" x2="720.00" y2="241.42"/>
    <line x1="80.00" y1="234.81" x2="720.00" y2="234.81"/>
    <line x1="80.00" y1="228.20" x2="720.00" y2="228.20"/>
    <line x1="80.00" y1="221.59" x2="720.00" y2="221.59"/>
    <line x1="80.00" y1="214.98" x2="720.00" y2="214.98"/>
    <line x1="80.00" y1="208.37" x2="720.00" y2="208.37"/>
    <line x1="80.00" y1="201.76" x2="720.00" y2="201.76"/>
    <line x1="80.00" y1="195.15" x2="720.00" y2="195.15"/>
    <line x1="80.00" y1="188.54" x2="720.00" y2="188.54"/>
    <line x1="80.00" y1="181.93" x2="720.00" y2="181.93"/>
    <line x1="80.00" y1="175.32" x2="720.00" y2="175.32"/>
    <line x1="80.00" y1="168.71" x2="720.00" y2="168.71"/>
    <line x1="80.00" y1="162.10" x2="720.00" y2="162.10"/>
    <line x1="80.00" y1="155.49" x2="720.00" y2="155.49"/>
    <line x1="80.00" y1="148.88" x2="720.00" y2="148.88"/>
    <line x1="80.00" y1="142.27" x2="720.00" y2="142.27"/>
    <line x1="80.00" y1="135.66" x2="720.00" y2="135.66"/>
    <line x1="80.00" y1="129.05" x2="720.00" y2="129.05"/>
    <line x1="80.00" y1="122.44" x2="720.00" y2="122.44"/>
    <line x1="80.00" y1="115.83" x2="720.00" y2="115.83"/>
    <line x1="80.00" y1="109.22" x2="720.00" y2="109.22"/>
    <line x1="80.00" y1="102.61" x2="720.00" y2="102.61"/>
    <line x1="80.00" y1="96.00" x2="720.00" y2="96.00"/>
    <line x1="80.00" y1="89.39" x2="720.00" y2="89.39"/>
    <line x1="80.00" y1="82.78" x2="720.00" y2="82.78"/>
    <line x1="80.00" y1="76.17" x2="720.00" y2="76.17"/>
    <line x1="80.00" y1="69.56" x2="720.00" y2="69.56"/>
    <line x1="80.00" y1="62.95" x2="720.00" y2="62.95"/>
    <line x1="80.00" y1="56.34" x2="720.00" y2="56.34"/>
  </g>
  <g stroke="#e8e8e8" stroke-width="0.5">
    <line x1="83.56" y1="540.00" x2="83.56" y2="60.00"/>
    <line x1="85.35" y1="540.00" x2="85.35" y2="60.00"/>
    <line x1="87.14" y1="540.00" x2="87.14" y2="60.00"/>
    <line x1="88.92" y1="540.00" x2="88.92" y2="60.00"/>
    <line x1="92.50" y1="540.00" x2="92.50" y2="60.00"/>
    <line x1="94.29" y1="540.00" x2="94.29" y2="60.00"/>
    <line x1="96.08" y1="540.00" x2="96.08" y2="60.00"/>
    <line x1="97.87" y1="540.00" x2="97.87" y2="60.00"/>
    <line x1="101.45" y1="540.00" x2="101.45" y2="60.00"/>
    <line x1="103.24" y1="540.00" x2="103.24" y2="60.00"/>
    <line x1="105.03" y1="540.00" x2="105.03" y2="60.00"/>
    <line x1="106.81" y1="540.00" x2="106.81" y2="60.00"/>
    <line x1="110.39" y1="540.00" x2="110.39" y2="60.00"/>
    <line x1="112.18" y1="540.00" x2="112.18" y2="60.00"/>
    <line x1="113.97" y1="540.00" x2="113.97" y2="60.00"/>
    <line x1="115.76" y1="540.00" x2="115.76" y2="60.00"/>
    <line x1="119.34" y1="540.00" x2="119.34" y2="60.00"/>
    <line x1="121.13" y1="540.00" x2="121.13" y2="60.00"/>
    <line x1="122.92" y1="540.00" x2="122.92" y2="60.00"/>
    <line x1="124.70" y1="540.00" x2="124.70" y2="60.00"/>
    <line x1="128.28" y1="540.00" x2="128.28" y2="60.00"/>
    <line x1="130.07" y1="540.00" x2="130.07" y2="60.00"/>
    <line x1="131.86" y1="540.00" x2="131.86" y2="60.00"/>
    <line x1="133.65" y1="540.00" x2="133.65" y2="60.00"/>
    <line x1="137.23" y1="540.00" x2="137.23" y2="60.00"/>
    <line x1="139.02" y1="540.00" x2="139.02" y2="60.00"/>
    <line x1="140.81" y1="540.00" x2="140.81" y2="60.00"/>
    <line x1="142.59" y1="540.00" x2="142.59" y2="60.00"/>
    <line x1="146.17" y1="540.00" x2="146.17" y2="60.00"/>
    <line x1="147.96" y1="540.00" x2="147.96" y2="60.00"/>
    <line x1="149.75" y1="540.00" x2="149.75" y2="60.00"/>
    <line x1="151.54" y1="540.00" x2="151.54" y2="60.00"/>
    <line x1="155.12" y1="540.00" x2="155.12" y2="60.00"/>
    <line x1="156.91" y1="540.00" x2="156.91" y2="60.00"/>
    <line x1="158.70" y1="540.00" x2="158.70" y2="60.00"/>
    <line x1="160.48" y1="540.00" x2="160.48" y2="60.00"/>
    <line x1="164.06" y1="540.00" x2="164.06" y2="60.00"/>
    <line x1="165.85" y1="540.00" x2="165.85" y2="60.00"/>
    <line x1="167.64" y1="540.00" x2="167.64" y2="60.00"/>
    <line x1="169.43" y1="540.00" x2="169.43" y2="60.00"/>
    <line x1="173.01" y1="540.00" x2="173.01" y2="60.00"/>
    <line x1="174.80" y1="540.00" x2="174.80" y2="60.00"/>
    <line x1="176.59" y1="540.00" x2="176.59" y2="60.00"/>
    <line x1="178.37" y1="540.00" x2="178.37" y2="60.00"/>
    <line x1="181.95" y1="540.00" x2="181.95" y2="60.00"/>
    <line x1="183.74" y1="540.00" x2="183.74" y2="60.00"/>
    <line x1="185.53" y1="540.00" x2="185.53" y2="60.00"/>
    <line x1="187.32" y1="540.00" x2="187.32" y2="60.00"/>
    <line x1="190.90" y1="540.00" x2="190.90" y2="60.00"/>
    <line x1="192.69" y1="540.00" x2="192.69" y2="60.00"/>
    <line x1="194.48" y1="540.00" x2="194.48" y2="60.00"/>
    <line x1="196.26" y1="540.00" x2="196.26" y2="60.00"/>
    <line x1="199.84" y1="540.00" x2="199.84" y2="60.00"/>
    <line x1="201.63" y1="540.00" x2="201.63" y2="60.00"/>
    <line x1="203.42" y1="540.00" x2="203.42" y2="60.00"/>
    <line x1="205.21" y1="540.00" x2="205.21" y2="60.00"/>
    <line x1="208.79" y1="540.00" x2="208.79" y2="60.00"/>
    <line x1="210.58" y1="540.00" x2="210.58" y2="60.00"/>
    <line x1="212.37" y1="540.00" x2="212.37" y2="60.00"/>
    <line x1="214.15" y1="540.00" x2="214.15" y2="60.00"/>
    <line x1="217.73" y1="540.00" x2="217.73" y2="60.00"/>
    <line x1="219.52" y1="540.00" x2="219.52" y2="60.00"/>
    <line x1="221.31" y1="540.00" x2="221.31" y2="60.00"/>
    <line x1="223.10" y1="540.00" x2="223.10" y2="60.00"/>
    <line x1="226.68" y1="540.00" x2="226.68" y2="60.00"/>
    <line x1="228.47" y1="540.00" x2="228.47" y2="60.00"/>
    <line x1="230.26" y1="540.00" x2="230.26" y2="60.00"/>
    <line x1="232.04" y1="540.00" x2="232.04" y2="60.00"/>
    <line x1="235.62" y1="540.00" x2="235.62" y2="60.00"/>
    <line x1="237.41" y1="540.00" x2="237.41" y2="60.00"/>
    <line x1="239.20" y1="540.00" x2="239.20" y2="60.00"/>
    <line x1="240.99" y1="540.00" x2="240.99" y2="60.00"/>
    <line x1="244.57" y1="540.00" x2="244.57" y2="60.00"/>
    <line x1="246.36" y1="540.00" x2="246.36" y2="60.00"/>
    <line x1="248.15" y1="540.00" x2="248.15" y2="60.00"/>
    <line x1="249.93" y1="540.00" x2="249.93" y2="60.00"/>
    <line x1="253.51" y1="540.00" x2="253.51" y2="60.00"/>
    <line x1="255.30" y1="540.00" x2="255.30" y2="60.00"/>
    <line x1="257.09" y1="540.00" x2="257.09" y2="60.00"/>
    <line x1="258.88" y1="540.00" x2="258.88" y2="60.00"/>
    <line x1="262.46" y1="540.00" x2="262.46" y2="60.00"/>
    <line x1="264.25" y1="540.00" x2="264.25" y2="60.00"/>
    <line x1="266.04" y1="540.00" x2="266.04" y2="60.00"/>
    <line x1="267.82" y1="540.00" x2="267.82" y2="60.00"/>
    <line x1="271.40" y1="540.00" x2="271.40" y2="60.00"/>
    <line x1="273.19" y1="540.00" x2="273.19" y2="60.00"/>
    <line x1="274.98" y1="540.00" x2="274.98" y2="60.00"/>
    <line x1="276.77" y1="540.00" x2="276.77" y2="60.00"/>
    <line x1="280.35" y1="540.00" x2="280.35" y2="60.00"/>
    <line x1="282.14" y1="540.00" x2="282.14" y2="60.00"/>
    <line x1="283.93" y1="540.00" x2="283.93" y2="60.00"/>
    <line x1="285.72" y1="540.00" x2="285.72" y2="60.00"/>
    <line x1="289.29" y1="540.00" x2="289.29" y2="60.00"/>
    <line x1="291.08" y1="540.00" x2="291.08" y2="60.00"/>
    <line x1="292.87" y1="540.00" x2="292.87" y2="60.00"/>
    <line x1="294.66" y1="540.00" x2="294.66" y2="60.00"/>
    <line x1="298.24" y1="540.00" x2="298.24" y2="60.00"/>
    <line x1="300.03" y1="540.00" x2="300.03" y2="60.00"/>
    <line x1="301.82" y1="540.00" x2="301.82" y2="60.00"/>
    <line x1="303.61" y1="540.00" x2="303.61" y2="60.00"/>
    <line x1="307.18" y1="540.00" x2="307.18" y2="60.00"/>
    <line x1="308.97" y1="540.00" x2="308.97" y2="60.00"/>
    <line x1="310.76" y1="540.00" x2="310.76" y2="60.00"/>
    <line x1="312.55" y1="540.00" x2="312.55" y2="60.00"/>
    <line x1="316.13" y1="540.00" x2="316.13" y2="60.00"/>
    <line x1="317.92" y1="540.00" x2="317.92" y2="60.00"/>
    <line x1="319.71" y1="540.00" x2="319.71" y2="60.00"/>
    <line x1="321.50" y1="540.00" x2="321.50" y2="60.00"/>
    <line x1="325.07" y1="540.00" x2="325.07" y2="60.00"/>
    <line x1="326.86" y1="540.00" x2="326.86" y2="60.00"/>
    <line x1="328.65" y1="540.00" x2="328.65" y2="60.00"/>
    <line x1="330.44" y1="540.00" x2="330.44" y2="60.00"/>
    <line x1="334.02" y1="540.00" x2="334.02" y2="60.00"/>
    <line x1="335.81" y1="540.00" x2="335.81" y2="60.00"/>
    <line x1="337.60" y1="540.00" x2="337.60" y2="60.00"/>
    <line x1="339.39" y1="540.00" x2="339.39" y2="60.00"/>
    <line x1="342.96" y1="540.00" x2="342.96" y2="60.00"/>
    <line x1="344.75" y1="540.00" x2="344.75" y2="60.00"/>
    <line x1="346.54" y1="540.00" x2="346.54" y2="60.00"/>
    <line x1="348.33" y1="540.00" x2="348.33" y2="60.00"/>
    <line x1="351.91" y1="540.00" x2="351.91" y2="60.00"/>
    <line x1="353.70" y1="540.00" x2="353.70" y2="60.00"/>
    <line x1="355.49" y1="540.00" x2="355.49" y2="60.00"/>
    <line x1="357.28" y1="540.00" x2="357.28" y2="60.00"/>
    <line x1="360.85" y1="540.00" x2="360.85" y2="60.00"/>
    <line x1="362.64" y1="540.00" x2="362.64" y2="60.00"/>
    <line x1="364.43" y1="540.00" x2="364.43" y2="60.00"/>
    <line x1="366.22" y1="540.00" x2="366.22" y2="60.00"/>
    <line x1="369.80" y1="540.00" x2="369.80" y2="60.00"/>
    <line x1="371.59" y1="540.00" x2="371.59" y2="60.00"/>
    <line x1="373.38" y1="540.00" x2="373.38" y2="60.00"/>
    <line x1="375.17" y1="540.00" x2="375.17" y2="60.00"/>
    <line x1="378.74" y1="540.00" x2="378.74" y2="60.00"/>
    <line x1="380.53" y1="540.00" x2="380.53" y2="60.00"/>
    <line x1="382.32" y1="540.00" x2="382.32" y2="60.00"/>
    <line x1="384.11" y1="540.00" x2="384.11" y2="60.00"/>
    <line x1="387.69" y1="540.00" x2="387.69" y2="60.00"/>
    <line x1="389.48" y1="540.00" x2="389.48" y2="60.00"/>
    <line x1="391.27" y1="540.00" x2="391.27" y2="60.00"/>
    <line x1="393.06" y1="540.00" x2="393.06" y2="60.00"/>
    <line x1="396.63" y1="540.00" x2="396.63" y2="60.00"/>
    <line x1="398.42" y1="540.00" x2="398.42" y2="60.00"/>
    <line x1="400.21" y1="540.00" x2="400.21" y2="60.00"/>
    <line x1="402.00" y1="540.00" x2="402.00" y2="60.00"/>
    <line x1="405.58" y1="540.00" x2="405.58" y2="60.00"/>
    <line x1="407.37" y1="540.00" x2="407.37" y2="60.00"/>
    <line x1="409.16" y1="540.00" x2="409.16" y2="60.00"/>
    <line x1="410.95" y1="540.00" x2="410.95" y2="60.00"/>
    <line x1="414.52" y1="540.00" x2="414.52" y2="60.00"/>
    <line x1="416.31" y1="540.00" x2="416.31" y2="60.00"/>
    <line x1="418.10" y1="540.00" x2="418.10" y2="60.00"/>
    <line x1="419.89" y1="540.00" x2="419.89" y2="60.00"/>
    <line x1="423.47" y1="540.00" x2="423.47" y2="60.00"/>
    <line x1="425.26" y1="540.00" x2="425.26" y2="60.00"/>
    <line x1="427.05" y1="540.00" x2="427.05" y2="60.00"/>
    <line x1="428.84" y1="540.00" x2="428.84" y2="60.00"/>
    <line x1="432.41" y1="540.00" x2="432.41" y2="60.00"/>
    <line x1="434.20" y1="540.00" x2="434.20" y2="60.00"/>
    <line x1="435.99" y1="540.00" x2="435.99" y2="60.00"/>
    <line x1="437.78" y1="540.00" x2="437.78" y2="60.00"/>
    <line x1="441.36" y1="540.00" x2="441.36" y2="60.00"/>
    <line x1="443.15" y1="540.00" x2="443.15" y2="60.00"/>
    <line x1="444.94" y1="540.00" x2="444.94" y2="60.00"/>
    <line x1="446.73" y1="540.00" x2="446.73" y2="60.00"/>
    <line x1="450.30" y1="540.00" x2="450.30" y2="60.00"/>
    <line x1="452.09" y1="540.00" x2="452.09" y2="60.00"/>
    <line x1="453.88" y1="540.00" x2="453.88" y2="60.00"/>
    <line x1="455.67" y1="540.00" x2="455.67" y2="60.00"/>
    <line x1="459.25" y1="540.00" x2="459.25" y2="60.00"/>
    <line x1="461.04" y1="540.00" x2="461.04" y2="60.00"/>
    <line x1="462.83" y1="540.00" x2="462.83" y2="60.00"/>
    <line x1="464.62" y1="540.00" x2="464.62" y2="60.00"/>
    <line x1="468.19" y1="540.00" x2="468.19" y2="60.00"/>
    <line x1="469.98" y1="540.00" x2="469.98" y2="60.00"/>
    <line x1="471.77" y1="540.00" x2="471.77" y2="60.00"/>
    <line x1="473.56" y1="540.00" x2="473.56" y2="60.00"/>
    <line x1="477.14" y1="540.00" x2="477.14" y2="60.00"/>
    <line x1="478.93" y1="540.00" x2="478.93" y2="60.00"/>
    <line x1="480.72" y1="540.00" x2="480.72" y2="60.00"/>
    <line x1="482.51" y1="540.00" x2="482.51" y2="60.00"/>
    <line x1="486.08" y1="540.00" x2="486.08" y2="60.00"/>
    <line x1="487.87" y1="540.00" x2="487.87" y2="60.00"/>
    <line x1="489.66" y1="540.00" x2="489.66" y2="60.00"/>
    <line x1="491.45" y1="540.00" x2="491.45" y2="60.00"/>
    <line x1="495.03" y1="540.00" x2="495.03" y2="60.00"/>
    <line x1="496.82" y1="540.00" x2="496.82" y2="60.00"/>
    <line x1="498.61" y1="540.00" x2="498.61" y2="60.00"/>
    <line x1="500.40" y1="540.00" x2="500.40" y2="60.00"/>
    <line x1="503.97" y1="540.00" x2="503.97" y2="60.00"/>
    <line x1="505.76" y1="540.00" x2="505.76" y2="60.00"/>
    <line x1="507.55" y1="540.00" x2="507.55" y2="60.00"/>
    <line x1="509.34" y1="540.00" x2="509.34" y2="60.00"/>
    <line x1="512.92" y1="540.00" x2="512.92" y2="60.00"/>
    <line x1="514.71" y1="540.00" x2="514.71" y2="60.00"/>
    <line x1="516.50" y1="540.00" x2="516.50" y2="60.00"/>
    <line x1="518.29" y1="540.00" x2="518.29" y2="60.00"/>
    <line x1="521.86" y1="540.00" x2="521.86" y2="60.00"/>
    <line x1="523.65" y1="540.00" x2="523.65" y2="60.00"/>
    <line x1="525.44" y1="540.00" x2="525.44" y2="60.00"/>
    <line x1="527.23" y1="540.00" x2="527.23" y2="60.00"/>
    <line x1="530.81" y1="540.00" x2="530.81" y2="60.00"/>
    <line x1="532.60" y1="540.00" x2="532.60" y2="60.00"/>
    <line x1="534.39" y1="540.00" x2="534.39" y2="60.00"/>
    <line x1="536.18" y1="540.00" x2="536.18" y2="60.00"/>
    <line x1="539.75" y1="540.00" x2="539.75" y2="60.00"/>
    <line x1="541.54" y1="540.00" x2="541.54" y2="60.00"/>
    <line x1="543.33" y1="540.00" x2="543.33" y2="60.00"/>
    <line x1="545.12" y1="540.00" x2="545.12" y2="60.00"/>
    <line x1="548.70" y1="540.00" x2="548.70" y2="60.00"/>
    <line x1="550.49" y1="540.00" x2="550.49" y2="60.00"/>
    <line x1="552.28" y1="540.00" x2="552.28" y2="60.00"/>
    <line x1="554.07" y1="540.00" x2="554.07" y2="60.00"/>
    <line x1="557.64" y1="540.00" x2="557.64" y2="60.00"/>
    <line x1="559.43" y1="540.00" x2="559.43" y2="60.00"/>
    <line x1="561.22" y1="540.00" x2="561.22" y2="60.00"/>
    <line x1="563.01" y1="540.00" x2="563.01" y2="60.00"/>
    <line x1="566.59" y1="540.00" x2="566.59" y2="60.00"/>
    <line x1="568.38" y1="540.00" x2="568.38" y2="60.00"/>
    <line x1="570.17" y1="540.00" x2="570.17" y2="60.00"/>
    <line x1="571.96" y1="540.00" x2="571.96" y2="60.00"/>
    <line x1="575.53" y1="540.00" x2="575.53" y2="60.00"/>
    <line x1="577.32" y1="540.00" x2="577.32" y2="60.00"/>
    <line x1="579.11" y1="540.00" x2="579.11" y2="60.00"/>
    <line x1="580.90" y1="540.00" x2="580.90" y2="60.00"/>
    <line x1="584.48" y1="540.00" x2="584.48" y2="60.00"/>
    <line x1="586.27" y1="540.00" x2="586.27" y2="60.00"/>
    <line x1="588.06" y1="540.00" x2="588.06" y2="60.00"/>
    <line x1="589.85" y1="540.00" x2="589.85" y2="60.00"/>
    <line x1="593.42" y1="540.00" x2="593.42" y2="60.00"/>
    <line x1="595.21" y1="540.00" x2="595.21" y2="60.00"/>
    <line x1="597.00" y1="540.00" x2="597.00" y2="60.00"/>
    <line x1="598.79" y1="540.00" x2="598.79" y2="60.00"/>
    <line x1="602.37" y1="540.00" x2="602.37" y2="60.00"/>
    <line x1="604.16" y1="540.00" x2="604.16" y2="60.00"/>
    <line x1="605.95" y1="540.00" x2="605.95" y2="60.00"/>
    <line x1="607.74" y1="540.00" x2="607.74" y2="60.00"/>
    <line x1="611.31" y1="540.00" x2="611.31" y2="60.00"/>
    <line x1="613.10" y1="540.00" x2="613.10" y2="60.00"/>
    <line x1="614.89" y1="540.00" x2="614.89" y2="60.00"/>
    <line x1="616.68" y1="540.00" x2="616.68" y2="60.00"/>
    <line x1="620.26" y1="540.00" x2="620.26" y2="60.00"/>
    <line x1="622.05" y1="540.00" x2="622.05" y2="60.00"/>
    <line x1="623.84" y1="540.00" x2="623.84" y2="60.00"/>
    <line x1="625.63" y1="540.00" x2="625.63" y2="60.00"/>
    <line x1="629.20" y1="540.00" x2="629.20" y2="60.00"/>
    <line x1="630.99" y1="540.00" x2="630.99" y2="60.00"/>
    <line x1="632.78" y1="540.00" x2="632.78" y2="60.00"/>
    <line x1="634.57" y1="540.00" x2="634.57" y2="60.00"/>
    <line x1="638.15" y1="540.00" x2="638.15" y2="60.00"/>
    <line x1="639.94" y1="540.00" x2="639.94" y2="60.00"/>
    <line x1="641.73" y1="540.00" x2="641.73" y2="60.00"/>
    <line x1="643.52" y1="540.00" x2="643.52" y2="60.00"/>
    <line x1="647.09" y1="540.00" x2="647.09" y2="60.00"/>
    <line x1="648.88" y1="540.00" x2="648.88" y2="60.00"/>
    <line x1="650.67" y1="540.00" x2="650.67" y2="60.00"/>
    <line x1="652.46" y1="540.00" x2="652.46" y2="60.00"/>
    <line x1="656.04" y1="540.00" x2="656.04" y2="60.00"/>
    <line x1="657.83" y1="540.00" x2="657.83" y2="60.00"/>
    <line x1="659.62" y1="540.00" x2="659.62" y2="60.00"/>
    <line x1="661.41" y1="540.00" x2="661.41" y2="60.00"/>
    <line x1="664.98" y1="540.00" x2="664.98" y2="60.00"/>
    <line x1="666.77" y1="540.00" x2="666.77" y2="60.00"/>
    <line x1="668.56" y1="540.00" x2="668.56" y2="60.00"/>
    <line x1="670.35" y1="540.00" x2="670.35" y2="60.00"/>
    <line x1="673.93" y1="540.00" x2="673.93" y2="60.00"/>
    <line x1="675.72" y1="540.00" x2="675.72" y2="60.00"/>
    <line x1="677.51" y1="540.00" x2="677.51" y2="60.00"/>
    <line x1="679.30" y1="540.00" x2="679.30" y2="60.00"/>
    <line x1="682.87" y1="540.00" x2="682.87" y2="60.00"/>
    <line x1="684.66" y1="540.00" x2="684.66" y2="60.00"/>
    <line x1="686.45" y1="540.00" x2="686.45" y2="60.00"/>
    <line x1="688.24" y1="540.00" x2="688.24" y2="60.00"/>
    <line x1="691.82" y1="540.00" x2="691.82" y2="60.00"/>
    <line x1="693.61" y1="540.00" x2="693.61" y2="60.00"/>
    <line x1="695.40" y1="540.00" x2="695.40" y2="60.00"/>
    <line x1="697.19" y1="540.00" x2="697.19" y2="60.00"/>
    <line x1="700.76" y1="540.00" x2="700.76" y2="60.00"/>
    <line x1="702.55" y1="540.00" x2="702.55" y2="60.00"/>
    <line x1="704.34" y1="540.00" x2="704.34" y2="60.00"/>
    <line x1="706.13" y1="540.00" x2="706.13" y2="60.00"/>
    <line x1="709.71" y1="540.00" x2="709.71" y2="60.00"/>
    <line x1="711.50" y1="540.00" x2="711.50" y2="60.00"/>
    <line x1="713.29" y1="540.00" x2="713.29" y2="60.00"/>
    <line x1="715.08" y1="540.00" x2="715.08" y2="60.00"/>
    <line x1="718.65" y1="540.00" x2="718.65" y2="60.00"/>
    <line x1="80.00" y1="537.57" x2="720.00" y2="537.57"/>
    <line x1="80.00" y1="536.24" x2="720.00" y2="536.24"/>
    <line x1="80.00" y1="534.92" x2="720.00" y2="534.92"/>
    <line x1="80.00" y1="533.60" x2="720.00" y2="533.60"/>
    <line x1="80.00" y1="530.96" x2="720.00" y2="530.96"/>
    <line x1="80.00" y1="529.63" x2="720.00" y2="529.63"/>
    <line x1="80.00" y1="528.31" x2="720.00" y2="528.31"/>
    <line x1="80.00" y1="526.99" x2="720.00" y2="526.99"/>
    <line x1="80.00" y1="524.34" x2="720.00" y2="524.34"/>
    <line x1="80.00" y1="523.02" x2="720.00" y2="523.02"/>
    <line x1="80.00" y1="521.70" x2="720.00" y2="521.70"/>
    <line x1="80.00" y1="520.38" x2="720.00" y2="520.38"/>
    <line x1="80.00" y1="517.73" x2="720.00" y2="517.73"/>
    <line x1="80.00" y1="516.41" x2="720.00" y2="516.41"/>
    <line x1="80.00" y1="515.09" x2="720.00" y2="515.09"/>
    <line x1="80.00" y1="513.77" x2="720.00" y2="513.77"/>
    <line x1="80.00" y1="511.12" x2="720.00" y2="511.12"/>
    <line x1="80.00" y1="509.80" x2="720.00" y2="509.80"/>
    <line x1="80.00" y1="508.48" x2="720.00" y2="508.48"/>
    <line x1="80.00" y1="507.16" x2="720.00" y2="507.16"/>
    <line x1="80.00" y1="504.51" x2="720.00" y2="504.51"/>
    <line x1="80.00" y1="503.19" x2="720.00" y2="503.19"/>
    <line x1="80.00" y1="501.87" x2="720.00" y2="501.87"/>
    <line x1="80.00" y1="500.55" x2="720.00" y2="500.55"/>
    <line x1="80.00" y1="497.90" x2="720.00" y2="497.90"/>
    <line x1="80.00" y1="496.58" x2="720.00" y2="496.58"/>
    <line x1="80.00" y1="495.26" x2="720.00" y2="495.26"/>
    <line x1="80.00" y1="493.94" x2="720.00" y2="493.94"/>
    <line x1="80.00" y1="491.29" x2="720.00" y2="491.29"/>
    <line x1="80.00" y1="489.97" x2="720.00" y2="489.97"/>
    <line x1="80.00" y1="488.65" x2="720.00" y2="488.65"/>
    <line x1="80.00" y1="487.33" x2="720.00" y2="487.33"/>
    <line x1="80.00" y1="484.68" x2="720.00" y2="484.68"/>
    <line x1="80.00" y1="483.36" x2="720.00" y2="483.36"/>
    <line x1="80.00" y1="482.04" x2="720.00" y2="482.04"/>
    <line x1="80.00" y1="480.72" x2="720.00" y2="480.72"/>
    <line x1="80.00" y1="478.07" x2="720.00" y2="478.07"/>
    <line x1="80.00" y1="476.75" x2="720.00" y2="476.75"/>
    <line x1="80.00" y1="475.43" x2="720.00" y2="475.43"/>
    <line x1="80.00" y1="474.11" x2="720.00" y2="474.11"/>
    <line x1="80.00" y1="471.46" x2="720.00" y2="471.46"/>
    <line x1="80.00" y1="470.14" x2="720.00" y2="470.14"/>
    <line x1="80.00" y1="468.82" x2="720.00" y2="468.82"/>
    <line x1="80.00" y1="467.50" x2="720.00" y2="467.50"/>
    <line x1="80.00" y1="464.85" x2="720.00" y2="464.85"/>
    <line x1="80.00" y1="463.53" x2="720.00" y2="463.53"/>
    <line x1="80.00" y1="462.21" x2="720.00" y2="462.21"/>
    <line x1="80.00" y1="460.89" x2="720.00" y2="460.89"/>
    <line x1="80.00" y1="458.24" x2="720.00" y2="458.24"/>
    <line x1="80.00" y1="456.92" x2="720.00" y2="456.92"/>
    <line x1="80.00" y1="455.60" x2="720.00" y2="455.60"/>
    <line x1="80.00" y1="454.28" x2="720.00" y2="454.28"/>
    <line x1="80.00" y1="451.63" x2="720.00" y2="451.63"/>
    <line x1="80.00" y1="450.31" x2="720.00" y2="450.31"/>
    <line x1="80.00" y1="448.99" x2="720.00" y2="448.99"/>
    <line x1="80.00" y1="447.67" x2="720.00" y2="447.67"/>
    <line x1="80.00" y1="445.02" x2="720.00" y2="445.02"/>
    <line x1="80.00" y1="443.70" x2="720.00" y2="443.70"/>
    <line x1="80.00" y1="442.38" x2="720.00" y2="442.38"/>
    <line x1="80.00" y1="441.06" x2="720.00" y2="441.06"/>
    <line x1="80.00" y1="438.41" x2="720.00" y2="438.41"/>
    <line x1="80.00" y1="437.09" x2="720.00" y2="437.09"/>
    <line x1="80.00" y1="435.77" x2="720.00" y2="435.77"/>
    <line x1="80.00" y1="434.44" x2="720.00" y2="434.44"/>
    <line x1="80.00" y1="431.80" x2="720.00" y2="431.80"/>
    <line x1="80.00" y1="430.48" x2="720.00" y2="430.48"/>
    <line x1="80.00" y1="429.16" x2="720.00" y2="429.16"/>
    <line x1="80.00" y1="427.83" x2="720.00" y2="427.83"/>
    <line x1="80.00" y1="425.19" x2="720.00" y2="425.19"/>
    <line x1="80.00" y1="423.87" x2="720.00" y2="423.87"/>
    <line x1="80.00" y1="422.55" x2="720.00" y2="422.55"/>
    <line x1="80.00" y1="421.22" x2="720.00" y2="421.22"/>
    <line x1="80.00" y1="418.58" x2="720.00" y2="418.58"/>
    <line x1="80.00" y1="417.26" x2="720.00" y2="417.26"/>
    <line x1="80.00" y1="415.94" x2="720.00" y2="415.94"/>
    <line x1="80.00" y1="414.61" x2="720.00" y2="414.61"/>
    <line x1="80.00" y1="411.97" x2="720.00" y2="411.97"/>
    <line x1="80.00" y1="410.65" x2="720.00" y2="410.65"/>
    <line x1="80.00" y1="409.33" x2="720.00" y2="409.33"/>
    <line x1="80.00" y1="408.00" x2="720.00" y2="408.00"/>
    <line x1="80.00" y1="405.36" x2="720.00" y2="405.36"/>
    <line x1="80.00" y1="404.04" x2="720.00" y2="404.04"/>
    <line x1="80.00" y1="402.72" x2="720.00" y2="402.72"/>
    <line x1="80.00" y1="401.39" x2="720.00" y2="401.39"/>
    <line x1="80.00" y1="398.75" x2="720.00" y2="398.75"/>
    <line x1="80.00" y1="397.43" x2="720.00" y2="397.43"/>
    <line x1="80.00" y1="396.11" x2="720.00" y2="396.11"/>
    <line x1="80.00" y1="394.78" x2="720.00" y2="394.78"/>
    <line x1="80.00" y1="392.14" x2="720.00" y2="392.14"/>
    <line x1="80.00" y1="390.82" x2="720.00" y2="390.82"/>
    <line x1="80.00" y1="389.49" x2="720.00" y2="389.49"/>
    <line x1="80.00" y1="388.17" x2="720.00" y2="388.17"/>
    <line x1="80.00" y1="385.53" x2="720.00" y2="385.53"/>
    <line x1="80.00" y1="384.21" x2="720.00" y2="384.21"/>
    <line x1="80.00" y1="382.88" x2="720.00" y2="382.88"/>
    <line x1="80.00" y1="381.56" x2="720.00" y2="381.56"/>
    <line x1="80.00" y1="378.92" x2="720.00" y2="378.92"/>
    <line x1="80.00" y1="377.60" x2="720.00" y2="377.60"/>
    <line x1="80.00" y1="376.27" x2="720.00" y2="376.27"/>
    <line x1="80.00" y1="374.95" x2="720.00" y2="374.95"/>
    <line x1="80.00" y1="372.31" x2="720.00" y2="372.31"/>
    <line x1="80.00" y1="370.99" x2="720.00" y2="370.99"/>
    <line x1="80.00" y1="369.66" x2="720.00" y2="369.66"/>
    <line x1="80.00" y1="368.34" x2="720.00" y2="368.34"/>
    <line x1="80.00" y1="365.70" x2="720.00" y2="365.70"/>
    <line x1="80.00" y1="364.38" x2="720.00" y2="364.38"/>
    <line x1="80.00" y1="363.05" x2="720.00" y2="363.05"/>
    <line x1="80.00" y1="361.73" x2="720.00" y2="361.73"/>
    <line x1="80.00" y1="359.09" x2="720.00" y2="359.09"/>
    <line x1="80.00" y1="357.77" x2="720.00" y2="357.77"/>
    <line x1="80.00" y1="356.44" x2="720.00" y2="356.44"/>
    <line x1="80.00" y1="355.12" x2="720.00" y2="355.12"/>
    <line x1="80.00" y1="352.48" x2="720.00" y2="352.48"/>
    <line x1="80.00" y1="351.16" x2="720.00" y2="351.16"/>
    <line x1="80.00" y1="349.83" x2="720.00" y2="349.83"/>
    <line x1="80.00" y1="348.51" x2="720.00" y2="348.51"/>
    <line x1="80.00" y1="345.87" x2="720.00" y2="345.87"/>
    <line x1="80.00" y1="344.55" x2="720.00" y2="344.55"/>
    <line x1="80.00" y1="343.22" x2="720.00" y2="343.22"/>
    <line x1="80.00" y1="341.90" x2="720.00" y2="341.90"/>
    <line x1="80.00" y1="339.26" x2="720.00" y2="339.26"/>
    <line x1="80.00" y1="337.93" x2="720.00" y2="337.93"/>
    <line x1="80.00" y1="336.61" x2="720.00" y2="336.61"/>
    <line x1="80.00" y1="335.29" x2="720.00" y2="335.29"/>
    <line x1="80.00" y1="332.65" x2="720.00" y2="332.65"/>
    <line x1="80.00" y1="331.32" x2="720.00" y2="331.32"/>
    <line x1="80.00" y1="330.00" x2="720.00" y2="330.00"/>
    <line x1="80.00" y1="328.68" x2="720.00" y2="328.68"/>
    <line x1="80.00" y1="326.04" x2="720.00" y2="326.04"/>
    <line x1="80.00" y1="324.71" x2="720.00" y2="324.71"/>
    <line x1="80.00" y1="323.39" x2="720.00" y2="323.39"/>
    <line x1="80.00" y1="322.07" x2="720.00" y2="322.07"/>
    <line x1="80.00" y1="319.43" x2="720.00" y2="319.43"/>
    <line x1="80.00" y1="318.10" x2="720.00" y2="318.10"/>
    <line x1="80.00" y1="316.78" x2="720.00" y2="316.78"/>
    <line x1="80.00" y1="315.46" x2="720.00" y2="315.46"/>
    <line x1="80.00" y1="312.82" x2="720.00" y2="312.82"/>
    <line x1="80.00" y1="311.49" x2="720.00" y2="311.49"/>
    <line x1="80.00" y1="310.17" x2="720.00" y2="310.17"/>
    <line x1="80.00" y1="308.85" x2="720.00" y2="308.85"/>
    <line x1="80.00" y1="306.21" x2="720.00" y2="306.21"/>
    <line x1="80.00" y1="304.88" x2="720.00" y2="304.88"/>
    <line x1="80.00" y1="303.56" x2="720.00" y2="303.56"/>
    <line x1="80.00" y1="302.24" x2="720.00" y2="302.24"/>
    <line x1="80.00" y1="299.60" x2="720.00" y2="299.60"/>
    <line x1="80.00" y1="298.27" x2="720.00" y2="298.27"/>
    <line x1="80.00" y1="296.95" x2="720.00" y2="296.95"/>
    <line x1="80.00" y1="295.63" x2="720.00" y2="295.63"/>
    <line x1="80.00" y1="292.98" x2="720.00" y2="292.98"/>
    <line x1="80.00" y1="291.66" x2="720.00" y2="291.66"/>
    <line x1="80.00" y1="290.34" x2="720.00" y2="290.34"/>
    <line x1="80.00" y1="289.02" x2="720.00" y2="289.02"/>
    <line x1="80.00" y1="286.37" x2="720.00" y2="286.37"/>
    <line x1="80.00" y1="285.05" x2="720.00" y2="285.05"/>
    <line x1="80.00" y1="283.73" x2="720.00" y2="283.73"/>
    <line x1="80.00" y1="282.41" x2="720.00" y2="282.41"/>
    <line x1="80.00" y1="279.76" x2="720.00" y2="279.76"/>
    <line x1="80.00" y1="278.44" x2="720.00" y2="278.44"/>
    <line x1="80.00" y1="277.12" x2="720.00" y2="277.12"/>
    <line x1="80.00" y1="275.80" x2="720.00" y2="275.80"/>
    <line x1="80.00" y1="273.15" x2="720.00" y2="273.15"/>
    <line x1="80.00" y1="271.83" x2="720.00" y2="271.83"/>
    <line x1="80.00" y1="270.51" x2="720.00" y2="270.51"/>
    <line x1="80.00" y1="269.19" x2="720.00" y2="269.19"/>
    <line x1="80.00" y1="266.54" x2="720.00" y2="266.54"/>
    <line x1="80.00" y1="265.22" x2="720.00" y2="265.22"/>
    <line x1="80.00" y1="263.90" x2="720.00" y2="263.90"/>
    <line x1="80.00" y1="262.58" x2="720.00" y2="262.58"/>
    <line x1="80.00" y1="259.93" x2="720.00" y2="259.93"/>
    <line x1="80.00" y1="258.61" x2="720.00" y2="258.61"/>
    <line x1="80.00" y1="257.29" x2="720.00" y2="257.29"/>
    <line x1="80.00" y1="255.97" x2="720.00" y2="255.97"/>
    <line x1="80.00" y1="253.32" x2="720.00" y2="253.32"/>
    <line x1="80.00" y1="252.00" x2="720.00" y2="252.00"/>
    <line x1="80.00" y1="250.68" x2="720.00" y2="250.68"/>
    <line x1="80.00" y1="249.36" x2="720.00" y2="249.36"/>
    <line x1="80.00" y1="246.71" x2="720.00" y2="246.71"/>
    <line x1="80.00" y1="245.39" x2="720.00" y2="245.39"/>
    <line x1="80.00" y1="244.07" x2="720.00" y2="244.07"/>
    <line x1="80.00" y1="242.75" x2="720.00" y2="242.75"/>
    <line x1="80.00" y1="240.10" x2="720.00" y2="240.10"/>
    <line x1="80.00" y1="238.78" x2="720.00" y2="238.78"/>
    <line x1="80.00" y1="237.46" x2="720.00" y2="237.46"/>
    <line x1="80.00" y1="236.14" x2="720.00" y2="236.14"/>
    <line x1="80.00" y1="233.49" x2="720.00" y2="233.49"/>
    <line x1="80.00" y1="232.17" x2="720.00" y2="232.17"/>
    <line x1="80.00" y1="230.85" x2="720.00" y2="230.85"/>
    <line x1="80.00" y1="229.53" x2="720.00" y2="229.53"/>
    <line x1="80.00" y1="226.88" x2="720.00" y2="226.88"/>
    <line x1="80.00" y1="225.56" x2="720.00" y2="225.56"/>
    <line x1="80.00" y1="224.24" x2="720.00" y2="224.24"/>
    <line x1="80.00" y1="222.92" x2="720.00" y2="222.92"/>
    <line x1="80.00" y1="220.27" x2="720.00" y2="220.27"/>
    <line x1="80.00" y1="218.95" x2="720.00" y2="218.95"/>
    <line x1="80.00" y1="217.63" x2="720.00" y2="217.63"/>
    <line x1="80.00" y1="216.31" x2="720.00" y2="216.31"/>
    <line x1="80.00" y1="213.66" x2="720.00" y2="213.66"/>
    <line x1="80.00" y1="212.34" x2="720.00" y2="212.34"/>
    <line x1="80.00" y1="211.02" x2="720.00" y2="211.02"/>
    <line x1="80.00" y1="209.70" x2="720.00" y2="209.70"/>
    <line x1="80.00" y1="207.05" x2="720.00" y2="207.05"/>
    <line x1="80.00" y1="205.73" x2="720.00" y2="205.73"/>
    <line x1="80.00" y1="204.41" x2="720.00" y2="204.41"/>
    <line x1="80.00" y1="203.08" x2="720.00" y2="203.08"/>
    <line x1="80.00" y1="200.44" x2="720.00" y2="200.44"/>
    <line x1="80.00" y1="199.12" x2="720.00" y2="199.12"/>
    <line x1="80.00" y1="197.80" x2="720.00" y2="197.80"/>
    <line x1="80.00" y1="196.47" x2="720.00" y2="196.47"/>
    <line x1="80.00" y1="193.83" x2="720.00" y2="193.83"/>
    <line x1="80.00" y1="192.51" x2="720.00" y2="192.51"/>
    <line x1="80.00" y1="191.19" x2="720.00" y2="191.19"/>
    <line x1="80.00" y1="189.86" x2="720.00" y2="189.86"/>
    <line x1="80.00" y1="187.22" x2="720.00" y2="187.22"/>
    <line x1="80.00" y1="185.90" x2="720.00" y2="185.90"/>
    <line x1="80.00" y1="184.58" x2="720.00" y2="184.58"/>
    <line x1="80.00" y1="183.25" x2="720.00" y2="183.25"/>
    <line x1="80.00" y1="180.61" x2="720.00" y2="180.61"/>
    <line x1="80.00" y1="179.29" x2="720.00" y2="179.29"/>
    <line x1="80.00" y1="177.97" x2="720.00" y2="177.97"/>
    <line x1="80.00" y1="176.64" x2="720.00" y2="176.64"/>
    <line x1="80.00" y1="174.00" x2="720.00" y2="174.00"/>
    <line x1="80.00" y1="172.68" x2="720.00" y2="172.68"/>
    <line x1="80.00" y1="171.36" x2="720.00" y2="171.36"/>
    <line x1="80.00" y1="170.03" x2="720.00" y2="170.03"/>
    <line x1="80.00" y1="167.39" x2="720.00" y2="167.39"/>
    <line x1="80.00" y1="166.07" x2="720.00" y2="166.07"/>
    <line x1="80.00" y1="164.75" x2="720.00" y2="164.75"/>
    <line x1="80.00" y1="163.42" x2="720.00" y2="163.42"/>
    <line x1="80.00" y1="160.78" x2="720.00" y2="160.78"/>
    <line x1="80.00" y1="159.46" x2="720.00" y2="159.46"/>
    <line x1="80.00" y1="158.13" x2="720.00" y2="158.13"/>
    <line x1="80.00" y1="156.81" x2="720.00" y2="156.81"/>
    <line x1="80.00" y1="154.17" x2="720.00" y2="154.17"/>
    <line x1="80.00" y1="152.85" x2="720.00" y2="152.85"/>
    <line x1="80.00" y1="151.52" x2="720.00" y2="151.52"/>
    <line x1="80.00" y1="150.20" x2="720.00" y2="150.20"/>
    <line x1="80.00" y1="147.56" x2="720.00" y2="147.56"/>
    <line x1="80.00" y1="146.24" x2="720.00" y2="146.24"/>
    <line x1="80.00" y1="144.91" x2="720.00" y2="144.91"/>
    <line x1="80.00" y1="143.59" x2="720.00" y2="143.59"/>
    <line x1="80.00" y1="140.95" x2="720.00" y2="140.95"/>
    <line x1="80.00" y1="139.63" x2="720.00" y2="139.63"/>
    <line x1="80.00" y1="138.30" x2="720.00" y2="138.30"/>
    <line x1="80.00" y1="136.98" x2="720.00" y2="136.98"/>
    <line x1="80.00" y1="134.34" x2="720.00" y2="134.34"/>
    <line x1="80.00" y1="133.02" x2="720.00" y2="133.02"/>
    <line x1="80.00" y1="131.69" x2="720.00" y2="131.69"/>
    <line x1="80.00" y1="130.37" x2="720.00" y2="130.37"/>
    <line x1="80.00" y1="127.73" x2="720.00" y2="127.73"/>
    <line x1="80.00" y1="126.41" x2="720.00" y2="126.41"/>
    <line x1="80.00" y1="125.08" x2="720.00" y2="125.08"/>
    <line x1="80.00" y1="123.76" x2="720.00" y2="123.76"/>
    <line x1="80.00" y1="121.12" x2="720.00" y2="121.12"/>
    <line x1="80.00" y1="119.80" x2="720.00" y2="119.80"/>
    <line x1="80.00" y1="118.47" x2="720.00" y2="118.47"/>
    <line x1="80.00" y1="117.15" x2="720.00" y2="117.15"/>
    <line x1="80.00" y1="114.51" x2="720.00" y2="114.51"/>
    <line x1="80.00" y1="113.19" x2="720.00" y2="113.19"/>
    <line x1="80.00" y1="111.86" x2="720.00" y2="111.86"/>
    <line x1="80.00" y1="110.54" x2="720.00" y2="110.54"/>
    <line x1="80.00" y1="107.90" x2="720.00" y2="107.90"/>
    <line x1="80.00" y1="106.57" x2="720.00" y2="106.57"/>
    <line x1="80.00" y1="105.25" x2="720.00" y2="105.25"/>
    <line x1="80.00" y1="103.93" x2="720.00" y2="103.93"/>
    <line x1="80.00" y1="101.29" x2="720.00" y2="101.29"/>
    <line x1="80.00" y1="99.96" x2="720.00" y2="99.96"/>
    <line x1="80.00" y1="98.64" x2="720.00" y2="98.64"/>
    <line x1="80.00" y1="97.32" x2="720.00" y2="97.32"/>
    <line x1="80.00" y1="94.68" x2="720.00" y2="94.68"/>
    <line x1="80.00" y1="93.35" x2="720.00" y2="93.35"/>
    <line x1="80.00" y1="92.03" x2="720.00" y2="92.03"/>
    <line x1="80.00" y1="90.71" x2="720.00" y2="90.71"/>
    <line x1="80.00" y1="88.07" x2="720.00" y2="88.07"/>
    <line x1="80.00" y1="86.74" x2="720.00" y2="86.74"/>
    <line x1="80.00" y1="85.42" x2="720.00" y2="85.42"/>
    <line x1="80.00" y1="84.10" x2="720.00" y2="84.10"/>
    <line x1="80.00" y1="81.46" x2="720.00" y2="81.46"/>
    <line x1="80.00" y1="80.13" x2="720.00" y2="80.13"/>
    <line x1="80.00" y1="78.81" x2="720.00" y2="78.81"/>
    <line x1="80.00" y1="77.49" x2="720.00" y2="77.49"/>
    <line x1="80.00" y1="74.85" x2="720.00" y2="74.85"/>
    <line x1="80.00" y1="73.52" x2="720.00" y2="73.52"/>
    <line x1="80.00" y1="72.20" x2="720.00" y2="72.20"/>
    <line x1="80.00" y1="70.88" x2="720.00" y2="70.88"/>
    <line x1="80.00" y1="68.24" x2="720.00" y2="68.24"/>
    <line x1="80.00" y1="66.91" x2="720.00" y2="66.91"/>
    <line x1="80.00" y1="65.59" x2="720.00" y2="65.59"/>
    <line x1="80.00" y1="64.27" x2="720.00" y2="64.27"/>
    <line x1="80.00" y1="61.62" x2="720.00" y2="61.62"/>
    <line x1="80.00" y1="60.30" x2="720.00" y2="60.30"/>
  </g>
  <g stroke="#808080" stroke-width="2">
    <line x1="403.79" y1="540.00" x2="403.79" y2="60.00"/>
    <line x1="80.00" y1="261.26" x2="720.00" y2="261.26"/>
  </g>
  <polyline fill="none" stroke="#0066cc" stroke-width="2" points="368.00,261.59 367.70,263.71 366.91,265.97 365.54,268.49 363.40,271.48 360.14,275.25 355.09,280.40 346.74,288.17 331.12,301.88 293.15,333.98 80.00,510.76 626.33,60.00 473.58,186.79 440.26,214.87 425.78,227.35 417.74,234.49 412.65,239.16 409.17,242.48 406.65,245.00 404.76,246.98 403.29,248.60 402.12,249.95 401.18,251.11 400.40,252.12 399.76,253.02 399.22,253.82 398.77,254.56 398.39,255.23 398.06,255.85 397.78,256.43 397.54,256.97 397.34,257.49 397.17,257.99 397.03,258.46 396.91,258.92 396.81,259.37 396.74,259.81 396.69,260.23 396.65,260.66 396.64,261.08 396.64,261.50 396.66,261.92 396.69,262.34 396.75,262.77 396.83,263.21 396.93,263.66 397.05,264.12 397.20,264.60 397.37,265.10 397.58,265.62 397.82,266.17 398.11,266.76 398.44,267.39 398.84,268.07 399.30,268.81 399.86,269.63 400.52,270.54 401.31,271.57 402.29,272.76 403.50,274.15 405.03,275.82 407.01,277.87 409.65,280.49 413.33,283.98 418.76,288.94 427.50,296.66 443.68,310.55 483.24,343.79 720.00,540.00 161.46,79.16 302.36,196.26 334.41,223.48 348.39,235.84 356.06,243.06 360.76,247.93 363.80,251.54 365.80,254.44 367.07,256.91 367.78,259.14 368.01,261.26 "/>
</svg>
