<?xml version="1.0" encoding="UTF-8"?>
<svg xmlns="http://www.w3.org/2000/svg" width="800" height="600">
  <title>Y=1/x:-4,4:</title>
  <rect width="800" height="600" fill="#ffffff"/>
  <g stroke="#d0d0d0" stroke-width="1">
    <line x1="80.00" y1="540.00" x2="80.00" y2="60.00"/>
    <line x1="160.00" y1="540.00" x2="160.00" y2="60.00"/>
    <line x1="240.00" y1="540.00" x2="240.00" y2="60.00"/>
    <line x1="320.00" y1="540.00" x2="320.00" y2="60.00"/>
    <line x1="400.00" y1="540.00" x2="400.00" y2="60.00"/>
    <line x1="480.00" y1="540.00" x2="480.00" y2="60.00"/>
    <line x1="560.00" y1="540.00" x2="560.00" y2="60.00"/>
    <line x1="640.00" y1="540.00" x2="640.00" y2="60.00"/>
    <line x1="720.00" y1="540.00" x2="720.00" y2="60.00"/>
    <line x1="80.00" y1="543.04" x2="720.00" y2="543.04"/>
    <line x1="80.00" y1="530.89" x2="720.00" y2="530.89"/>
    <line x1="80.00" y1="518.73" x2="720.00" y2="518.73"/>
    <line x1="80.00" y1="506.58" x2="720.00" y2="506.58"/>
    <line x1="80.00" y1="494.43" x2="720.00" y2="494.43"/>
    <line x1="80.00" y1="482.28" x2="720.00" y2="482.28"/>
    <line x1="80.00" y1="470.13" x2="720.00" y2="470.13"/>
    <line x1="80.00" y1="457.97" x2="720.00" y2="457.97"/>
    <line x1="80.00" y1="445.82" x2="720.00" y2="445.82"/>
    <line x1="80.00" y1="433.67" x2="720.00" y2="433.67"/>
    <line x1="80.00" y1="421.52" x2="720.00" y2="421.52"/>
    <line x1="80.00" y1="409.37" x2="720.00" y2="409.37"/>
    <line x1="80.00" y1="397.22" x2="720.00" y2="397.22"/>
    <line x1="80.00" y1="385.06" x2="720.00" y2="385.06"/>
    <line x1="80.00" y1="372.91" x2="720.00" y2="372.91"/>
    <line x1="80.00" y1="360.76" x2="720.00" y2="360.76"/>
    <line x1="80.00" y1="348.61" x2="720.00" y2="348.61"/>
    <line x1="80.00" y1="336.46" x2="720.00" y2="336.46"/>
    <line x1="80.00" y1="324.30" x2="720.00" y2="324.30"/>
    <line x1="80.00" y1="312.15" x2="720.00" y2="312.15"/>
    <line x1="80.00" y1="300.00" x2="720.00" y2="300.00"/>
    <line x1="80.00" y1="287.85" x2="720.00" y2="287.85"/>
    <line x1="80.00" y1="275.70" x2="720.00" y2="275.70"/>
    <line x1="80.00" y1="263.54" x2="720.00" y2="263.54"/>
    <line x1="80.00" y1="251.39" x2="720.00" y2="251.39"/>
    <line x1="80.00" y1="239.24" x2="720.00" y2="239.24"/>
    <line x1="80.00" y1="227.09" x2="720.00" y2="227.09"/>
    <line x1="80.00" y1="214.94" x2="720.00" y2="214.94"/>
    <line x1="80.00" y1="202.78" x2="720.00" y2="202.78"/>
    <line x1="80.00" y1="190.63" x2="720.00" y2="190.63"/>
    <line x1="80.00" y1="178.48" x2="720.00" y2="178.48"/>
    <line x1="80.00" y1="166.33" x2="720.00" y2="166.33"/>
    <line x1="80.00" y1="154.18" x2="720.00" y2="154.18"/>
    <line x1="80.00" y1="142.03" x2="720.00" y2="142.03"/>
    <line x1="80.00" y1="129.87" x2="720.00" y2="129.87"/>
    <line x1="80.00" y1="117.72" x2="720.00" y2="117.72"/>
    <line x1="80.00" y1="105.57" x2="720.00" y2="105.57"/>
    <line x1="80.00" y1="93.42" x2="720.00" y2="93.42"/>
    <line x1="80.00" y1="81.27" x2="720.00" y2="81.27"/>
    <line x1="80.00" y1="69.11" x2="720.00" y2="69.11"/>
    <line x1="80.00" y1="56.96" x2="720.00" y2="56.96"/>
  </g>
  <g stroke="#e8e8e8" stroke-width="0.5">
    <line x1="96.00" y1="540.00" x2="96.00" y2="60.00"/>
    <line x1="112.00" y1="540.00" x2="112.00" y2="60.00"/>
    <line x1="128.00" y1="540.00" x2="128.00" y2="60.00"/>
    <line x1="144.00" y1="540.00" x2="144.00" y2="60.00"/>
    <line x1="176.00" y1="540.00" x2="176.00" y2="60.00"/>
    <line x1="192.00" y1="540.00" x2="192.00" y2="60.00"/>
    <line x1="208.00" y1="540.00" x2="208.00" y2="60.00"/>
    <line x1="224.00" y1="540.00" x2="224.00" y2="60.00"/>
    <line x1="256.00" y1="540.00" x2="256.00" y2="60.00"/>
    <line x1="272.00" y1="540.00" x2="272.00" y2="60.00"/>
    <line x1="288.00" y1="540.00" x2="288.00" y2="60.00"/>
    <line x1="304.00" y1="540.00" x2="304.00" y2="60.00"/>
    <line x1="336.00" y1="540.00" x2="336.00" y2="60.00"/>
    <line x1="352.00" y1="540.00" x2="352.00" y2="60.00"/>
    <line x1="368.00" y1="540.00" x2="368.00" y2="60.00"/>
    <line x1="384.00" y1="540.00" x2="384.00" y2="60.00"/>
    <line x1="416.00" y1="540.00" x2="416.00" y2="60.00"/>
    <line x1="432.00" y1="540.00" x2="432.00" y2="60.00"/>
    <line x1="448.00" y1="540.00" x2="448.00" y2="60.00"/>
    <line x1="464.00" y1="540.00" x2="464.00" y2="60.00"/>
    <line x1="496.00" y1="540.00" x2="496.00" y2="60.00"/>
    <line x1="512.00" y1="540.00" x2="512.00" y2="60.00"/>
    <line x1="528.00" y1="540.00" x2="528.00" y2="60.00"/>
    <line x1="544.00" y1="540.00" x2="544.00" y2="60.00"/>
    <line x1="576.00" y1="540.00" x2="576.00" y2="60.00"/>
    <line x1="592.00" y1="540.00" x2="592.00" y2="60.00"/>
    <line x1="608.00" y1="540.00" x2="608.00" y2="60.00"/>
    <line x1="624.00" y1="540.00" x2="624.00" y2="60.00"/>
    <line x1="656.00" y1="540.00" x2="656.00" y2="60.00"/>
    <line x1="672.00" y1="540.00" x2="672.00" y2="60.00"/>
    <line x1="688.00" y1="540.00" x2="688.00" y2="60.00"/>
    <line x1="704.00" y1="540.00" x2="704.00" y2="60.00"/>
    <line x1="80.00" y1="538.18" x2="720.00" y2="538.18"/>
    <line x1="80.00" y1="535.75" x2="720.00" y2="535.75"/>
    <line x1="80.00" y1="533.32" x2="720.00" y2="533.32"/>
    <line x1="80.00" y1="528.46" x2="720.00" y2="528.46"/>
    <line x1="80.00" y1="526.03" x2="720.00" y2="526.03"/>
    <line x1="80.00" y1="523.59" x2="720.00" y2="523.59"/>
    <line x1="80.00" y1="521.16" x2="720.00" y2="521.16"/>
    <line x1="80.00" y1="516.30" x2="720.00" y2="516.30"/>
    <line x1="80.00" y1="513.87" x2="720.00" y2="513.87"/>
    <line x1="80.00" y1="511.44" x2="720.00" y2="511.44"/>
    <line x1="80.00" y1="509.01" x2="720.00" y2="509.01"/>
    <line x1="80.00" y1="504.15" x2="720.00" y2="504.15"/>
    <line x1="80.00" y1="501.72" x2="720.00" y2="501.72"/>
    <line x1="80.00" y1="499.29" x2="720.00" y2="499.29"/>
    <line x1="80.00" y1="496.86" x2="720.00" y2="496.86"/>
    <line x1="80.00" y1="492.00" x2="720.00" y2="492.00"/>
    <line x1="80.00" y1="489.57" x2="720.00" y2="489.57"/>
    <line x1="80.00" y1="487.14" x2="720.00" y2="487.14"/>
    <line x1="80.00" y1="484.71" x2="720.00" y2="484.71"/>
    <line x1="80.00" y1="479.85" x2="720.00" y2="479.85"/>
    <line x1="80.00" y1="477.42" x2="720.00" y2="477.42"/>
    <line x1="80.00" y1="474.99" x2="720.00" y2="474.99"/>
    <line x1="80.00" y1="472.56" x2="720.00" y2="472.56"/>
    <line x1="80.00" y1="467.70" x2="720.00" y2="467.70"/>
    <line x1="80.00" y1="465.27" x2="720.00" y2="465.27"/>
    <line x1="80.00" y1="462.84" x2="720.00" y2="462.84"/>
    <line x1="80.00" y1="460.41" x2="720.00" y2="460.41"/>
    <line x1="80.00" y1="455.54" x2="720.00" y2="455.54"/>
    <line x1="80.00" y1="453.11" x2="720.00" y2="453.11"/>
    <line x1="80.00" y1="450.68" x2="720.00" y2="450.68"/>
    <line x1="80.00" y1="448.25" x2="720.00" y2="448.25"/>
    <line x1="80.00" y1="443.39" x2="720.00" y2="443.39"/>
    <line x1="80.00" y1="440.96" x2="720.00" y2="440.96"/>
    <line x1="80.00" y1="438.53" x2="720.00" y2="438.53"/>
    <line x1="80.00" y1="436.10" x2="720.00" y2="436.10"/>
    <line x1="80.00" y1="431.24" x2="720.00" y2="431.24"/>
    <line x1="80.00" y1="428.81" x2="720.00" y2="428.81"/>
    <line x1="80.00" y1="426.38" x2="720.00" y2="426.38"/>
    <line x1="80.00" y1="423.95" x2="720.00" y2="423.95"/>
    <line x1="80.00" y1="419.09" x2="720.00" y2="419.09"/>
    <line x1="80.00" y1="416.66" x2="720.00" y2="416.66"/>
    <line x1="80.00" y1="414.23" x2="720.00" y2="414.23"/>
    <line x1="80.00" y1="411.80" x2="720.00" y2="411.80"/>
    <line x1="80.00" y1="406.94" x2="720.00" y2="406.94"/>
    <line x1="80.00" y1="404.51" x2="720.00" y2="404.51"/>
    <line x1="80.00" y1="402.08" x2="720.00" y2="402.08"/>
    <line x1="80.00" y1="399.65" x2="720.00" y2="399.65"/>
    <line x1="80.00" y1="394.78" x2="720.00" y2="394.78"/>
    <line x1="80.00" y1="392.35" x2="720.00" y2="392.35"/>
    <line x1="80.00" y1="389.92" x2="720.00" y2="389.92"/>
    <line x1="80.00" y1="387.49" x2="720.00" y2="387.49"/>
    <line x1="80.00" y1="382.63" x2="720.00" y2="382.63"/>
    <line x1="80.00" y1="380.20" x2="720.00" y2="380.20"/>
    <line x1="80.00" y1="377.77" x2="720.00" y2="377.77"/>
    <line x1="80.00" y1="375.34" x2="720.00" y2="375.34"/>
    <line x1="80.00" y1="370.48" x2="720.00" y2="370.48"/>
    <line x1="80.00" y1="368.05" x2="720.00" y2="368.05"/>
    <line x1="80.00" y1="365.62" x2="720.00" y2="365.62"/>
    <line x1="80.00" y1="363.19" x2="720.00" y2="363.19"/>
    <line x1="80.00" y1="358.33" x2="720.00" y2="358.33"/>
    <line x1="80.00" y1="355.90" x2="720.00" y2="355.90"/>
    <line x1="80.00" y1="353.47" x2="720.00" y2="353.47"/>
    <line x1="80.00" y1="351.04" x2="720.00" y2="351.04"/>
    <line x1="80.00" y1="346.18" x2="720.00" y2="346.18"/>
    <line x1="80.00" y1="343.75" x2="720.00" y2="343.75"/>
    <line x1="80.00" y1="341.32" x2="720.00" y2="341.32"/>
    <line x1="80.00" y1="338.89" x2="720.00" y2="338.89"/>
    <line x1="80.00" y1="334.03" x2="720.00" y2="334.03"/>
    <line x1="80.00" y1="331.59" x2="720.00" y2="331.59"/>
    <line x1="80.00" y1="329.16" x2="720.00" y2="329.16"/>
    <line x1="80.00" y1="326.73" x2="720.00" y2="326.73"/>
    <line x1="80.00" y1="321.87" x2="720.00" y2="321.87"/>
    <line x1="80.00" y1="319.44" x2="720.00" y2="319.44"/>
    <line x1="80.00" y1="317.01" x2="720.00" y2="317.01"/>
    <line x1="80.00" y1="314.58" x2="720.00" y2="314.58"/>
    <line x1="80.00" y1="309.72" x2="720.00" y2="309.72"/>
    <line x1="80.00" y1="307.29" x2="720.00" y2="307.29"/>
    <line x1="80.00" y1="304.86" x2="720.00" y2="304.86"/>
    <line x1="80.00" y1="302.43" x2="720.00" y2="302.43"/>
    <line x1="80.00" y1="297.57" x2="720.00" y2="297.57"/>
    <line x1="80.00" y1="295.14" x2="720.00" y2="295.14"/>
    <line x1="80.00" y1="292.71" x2="720.00" y2="292.71"/>
    <line x1="80.00" y1="290.28" x2="720.00" y2="290.28"/>
    <line x1="80.00" y1="285.42" x2="720.00" y2="285.42"/>
    <line x1="80.00" y1="282.99" x2="720.00" y2="282.99"/>
    <line x1="80.00" y1="280.56" x2="720.00" y2="280.56"/>
    <line x1="80.00" y1="278.13" x2="720.00" y2="278.13"/>
    <line x1="80.00" y1="273.27" x2="720.00" y2="273.27"/>
    <line x1="80.00" y1="270.84" x2="720.00" y2="270.84"/>
    <line x1="80.00" y1="268.41" x2="720.00" y2="268.41"/>
    <line x1="80.00" y1="265.97" x2="720.00" y2="265.97"/>
    <line x1="80.00" y1="261.11" x2="720.00" y2="261.11"/>
    <line x1="80.00" y1="258.68" x2="720.00" y2="258.68"/>
    <line x1="80.00" y1="256.25" x2="720.00" y2="256.25"/>
    <line x1="80.00" y1="253.82" x2="720.00" y2="253.82"/>
    <line x1="80.00" y1="248.96" x2="720.00" y2="248.96"/>
    <line x1="80.00" y1="246.53" x2="720.00" y2="246.53"/>
    <line x1="80.00" y1="244.10" x2="720.00" y2="244.10"/>
    <line x1="80.00" y1="241.67" x2="720.00" y2="241.67"/>
    <line x1="80.00" y1="236.81" x2="720.00" y2="236.81"/>
    <line x1="80.00" y1="234.38" x2="720.00" y2="234.38"/>
    <line x1="80.00" y1="231.95" x2="720.00" y2="231.95"/>
    <line x1="80.00" y1="229.52" x2="720.00" y2="229.52"/>
    <line x1="80.00" y1="224.66" x2="720.00" y2="224.66"/>
    <line x1="80.00" y1="222.23" x2="720.00" y2="222.23"/>
    <line x1="80.00" y1="219.80" x2="720.00" y2="219.80"/>
    <line x1="80.00" y1="217.37" x2="720.00" y2="217.37"/>
    <line x1="80.00" y1="212.51" x2="720.00" y2="212.51"/>
    <line x1="80.00" y1="210.08" x2="720.00" y2="210.08"/>
    <line x1="80.00" y1="207.65" x2="720.00" y2="207.65"/>
    <line x1="80.00" y1="205.22" x2="720.00" y2="205.22"/>
    <line x1="80.00" y1="200.35" x2="720.00" y2="200.35"/>
    <line x1="80.00" y1="197.92" x2="720.00" y2="197.92"/>
    <line x1="80.00" y1="195.49" x2="720.00" y2="195.49"/>
    <line x1="80.00" y1="193.06" x2="720.00" y2="193.06"/>
    <line x1="80.00" y1="188.20" x2="720.00" y2="188.20"/>
    <line x1="80.00" y1="185.77" x2="720.00" y2="185.77"/>
    <line x1="80.00" y1="183.34" x2="720.00" y2="183.34"/>
    <line x1="80.00" y1="180.91" x2="720.00" y2="180.91"/>
    <line x1="80.00" y1="176.05" x2="720.00" y2="176.05"/>
    <line x1="80.00" y1="173.62" x2="720.00" y2="173.62"/>
    <line x1="80.00" y1="171.19" x2="720.00" y2="171.19"/>
    <line x1="80.00" y1="168.76" x2="720.00" y2="168.76"/>
    <line x1="80.00" y1="163.90" x2="720.00" y2="163.90"/>
    <line x1="80.00" y1="161.47" x2="720.00" y2="161.47"/>
    <line x1="80.00" y1="159.04" x2="720.00" y2="159.04"/>
    <line x1="80.00" y1="156.61" x2="720.00" y2="156.61"/>
    <line x1="80.00" y1="151.75" x2="720.00" y2="151.75"/>
    <line x1="80.00" y1="149.32" x2="720.00" y2="149.32"/>
    <line x1="80.00" y1="146.89" x2="720.00" y2="146.89"/>
    <line x1="80.00" y1="144.46" x2="720.00" y2="144.46"/>
    <line x1="80.00" y1="139.59" x2="720.00" y2="139.59"/>
    <line x1="80.00" y1="137.16" x2="720.00" y2="137.16"/>
    <line x1="80.00" y1="134.73" x2="720.00" y2="134.73"/>
    <line x1="80.00" y1="132.30" x2="720.00" y2="132.30"/>
    <line x1="80.00" y1="127.44" x2="720.00" y2="127.44"/>
    <line x1="80.00" y1="125.01" x2="720.00" y2="125.01"/>
    <line x1="80.00" y1="122.58" x2="720.00" y2="122.58"/>
    <line x1="80.00" y1="120.15" x2="720.00" y2="120.15"/>
    <line x1="80.00" y1="115.29" x2="720.00" y2="115.29"/>
    <line x1="80.00" y1="112.86" x2="720.00" y2="112.86"/>
    <line x1="80.00" y1="110.43" x2="720.00" y2="110.43"/>
    <line x1="80.00" y1="108.00" x2="720.00" y2="108.00"/>
    <line x1="80.00" y1="103.14" x2="720.00" y2="103.14"/>
    <line x1="80.00" y1="100.71" x2="720.00" y2="100.71"/>
    <line x1="80.00" y1="98.28" x2="720.00" y2="98.28"/>
    <line x1="80.00" y1="95.85" x2="720.00" y2="95.85"/>
    <line x1="80.00" y1="90.99" x2="720.00" y2="90.99"/>
    <line x1="80.00" y1="88.56" x2="720.00" y2="88.56"/>
    <line x1="80.00" y1="86.13" x2="720.00" y2="86.13"/>
    <line x1="80.00" y1="83.70" x2="720.00" y2="83.70"/>
    <line x1="80.00" y1="78.84" x2="720.00" y2="78.84"/>
    <line x1="80.00" y1="76.41" x2="720.00" y2="76.41"/>
    <line x1="80.00" y1="73.97" x2="720.00" y2="73.97"/>
    <line x1="80.00" y1="71.54" x2="720.00" y2="71.54"/>
    <line x1="80.00" y1="66.68" x2="720.00" y2="66.68"/>
    <line x1="80.00" y1="64.25" x2="720.00" y2="64.25"/>
    <line x1="80.00" y1="61.82" x2="720.00" y2="61.82"/>
  </g>
  <g stroke="#808080" stroke-width="2">
    <line x1="400.00" y1="540.00" x2="400.00" y2="60.00"/>
    <line x1="80.00" y1="300.00" x2="720.00" y2="300.00"/>
  </g>
  <polyline fill="none" stroke="#0066cc" stroke-width="2" points="80.00,303.04 88.10,303.12 96.20,303.20 104.30,303.29 112.41,303.38 120.51,303.48 128.61,303.58 136.71,303.69 144.81,303.81 152.91,303.93 161.01,304.07 169.11,304.21 177.22,304.36 185.32,304.53 193.42,304.71 201.52,304.90 209.62,305.11 217.72,305.33 225.82,305.58 233.92,305.85 242.03,306.15 250.13,306.49 258.23,306.86 266.33,307.27 274.43,307.74 282.53,308.28 290.63,308.89 298.73,309.60 306.84,310.43 314.94,311.43 323.04,312.63 331.14,314.12 339.24,316.00 347.34,318.46 355.44,321.82 363.54,326.67 371.65,334.29 379.75,348.00 387.85,380.00 395.95,540.00 404.05,60.00 412.15,220.00 420.25,252.00 428.35,265.71 436.46,273.33 444.56,278.18 452.66,281.54 460.76,284.00 468.86,285.88 476.96,287.37 485.06,288.57 493.16,289.57 501.27,290.40 509.37,291.11 517.47,291.72 525.57,292.26 533.67,292.73 541.77,293.14 549.87,293.51 557.97,293.85 566.08,294.15 574.18,294.42 582.28,294.67 590.38,294.89 598.48,295.10 606.58,295.29 614.68,295.47 622.78,295.64 630.89,295.79 638.99,295.93 647.09,296.07 655.19,296.19 663.29,296.31 671.39,296.42 679.49,296.52 687.59,296.62 695.70,296.71 703.80,296.80 711.90,296.88 720.00,296.96 "/>
</svg>
