<?xml version="1.0" encoding="UTF-8"?>
<svg xmlns="http://www.w3.org/2000/svg" width="800" height="600">
  <title>Y=ln(x):.2,2:</title>
  <rect width="800" height="600" fill="#ffffff"/>
  <g stroke="#d0d0d0" stroke-width="1">
    <line x1="8.89" y1="540.00" x2="8.89" y2="60.00"/>
    <line x1="364.44" y1="540.00" x2="364.44" y2="60.00"/>
    <line x1="720.00" y1="540.00" x2="720.00" y2="60.00"/>
    <line x1="80.00" y1="621.42" x2="720.00" y2="621.42"/>
    <line x1="80.00" y1="412.96" x2="720.00" y2="412.96"/>
    <line x1="80.00" y1="204.49" x2="720.00" y2="204.49"/>
    <line x1="80.00" y1="-3.97" x2="720.00" y2="-3.97"/>
  </g>
  <g stroke="#e8e8e8" stroke-width="0.5">
    <line x1="80.00" y1="540.00" x2="80.00" y2="60.00"/>
    <line x1="151.11" y1="540.00" x2="151.11" y2="60.00"/>
    <line x1="222.22" y1="540.00" x2="222.22" y2="60.00"/>
    <line x1="293.33" y1="540.00" x2="293.33" y2="60.00"/>
    <line x1="435.56" y1="540.00" x2="435.56" y2="60.00"/>
    <line x1="506.67" y1="540.00" x2="506.67" y2="60.00"/>
    <line x1="577.78" y1="540.00" x2="577.78" y2="60.00"/>
    <line x1="648.89" y1="540.00" x2="648.89" y2="60.00"/>
    <line x1="80.00" y1="538.03" x2="720.00" y2="538.03"/>
    <line x1="80.00" y1="496.34" x2="720.00" y2="496.34"/>
    <line x1="80.00" y1="454.65" x2="720.00" y2="454.65"/>
    <line x1="80.00" y1="371.26" x2="720.00" y2="371.26"/>
    <line x1="80.00" y1="329.57" x2="720.00" y2="329.57"/>
    <line x1="80.00" y1="287.88" x2="720.00" y2="287.88"/>
    <line x1="80.00" y1="246.19" x2="720.00" y2="246.19"/>
    <line x1="80.00" y1="162.80" x2="720.00" y2="162.80"/>
    <line x1="80.00" y1="121.11" x2="720.00" y2="121.11"/>
    <line x1="80.00" y1="79.42" x2="720.00" y2="79.42"/>
  </g>
  <g stroke="#808080" stroke-width="2">
    <line x1="8.89" y1="540.00" x2="8.89" y2="60.00"/>
  </g>
  <polyline fill="none" stroke="#0066cc" stroke-width="2" points="80.00,540.00 88.10,517.51 96.20,497.21 104.30,478.71 112.41,461.73 120.51,446.02 128.61,431.41 136.71,417.76 144.81,404.95 152.91,392.88 161.01,381.48 169.11,370.66 177.22,360.38 185.32,350.58 193.42,341.22 201.52,332.26 209.62,323.67 217.72,315.43 225.82,307.49 233.92,299.85 242.03,292.48 250.13,285.36 258.23,278.47 266.33,271.81 274.43,265.35 282.53,259.08 290.63,253.00 298.73,247.09 306.84,241.34 314.94,235.75 323.04,230.30 331.14,225.00 339.24,219.82 347.34,214.77 355.44,209.84 363.54,205.02 371.65,200.31 379.75,195.71 387.85,191.21 395.95,186.80 404.05,182.48 412.15,178.25 420.25,174.10 428.35,170.04 436.46,166.05 444.56,162.14 452.66,158.29 460.76,154.52 468.86,150.82 476.96,147.18 485.06,143.60 493.16,140.09 501.27,136.63 509.37,133.23 517.47,129.88 525.57,126.58 533.67,123.34 541.77,120.15 549.87,117.00 557.97,113.90 566.08,110.85 574.18,107.84 582.28,104.87 590.38,101.95 598.48,99.07 606.58,96.22 614.68,93.41 622.78,90.64 630.89,87.91 638.99,85.21 647.09,82.55 655.19,79.92 663.29,77.32 671.39,74.76 679.49,72.23 687.59,69.72 695.70,67.25 703.80,64.80 711.90,62.39 720.00,60.00 "/>
</svg>
