<?xml version="1.0" encoding="UTF-8"?>
<svg xmlns="http://www.w3.org/2000/svg" width="800" height="600">
  <title>Y=sin(x):-pi,pi:</title>
  <rect width="800" height="600" fill="#ffffff"/>
  <g stroke="#d0d0d0" stroke-width="1">
    <line x1="-7.44" y1="540.00" x2="-7.44" y2="60.00"/>
    <line x1="94.42" y1="540.00" x2="94.42" y2="60.00"/>
    <line x1="196.28" y1="540.00" x2="196.28" y2="60.00"/>
    <line x1="298.14" y1="540.00" x2="298.14" y2="60.00"/>
    <line x1="400.00" y1="540.00" x2="400.00" y2="60.00"/>
    <line x1="501.86" y1="540.00" x2="501.86" y2="60.00"/>
    <line x1="603.72" y1="540.00" x2="603.72" y2="60.00"/>
    <line x1="705.58" y1="540.00" x2="705.58" y2="60.00"/>
    <line x1="807.44" y1="540.00" x2="807.44" y2="60.00"/>
    <line x1="80.00" y1="540.05" x2="720.00" y2="540.05"/>
    <line x1="80.00" y1="300.00" x2="720.00" y2="300.00"/>
    <line x1="80.00" y1="59.95" x2="720.00" y2="59.95"/>
  </g>
  <g stroke="#e8e8e8" stroke-width="0.5">
    <line x1="114.79" y1="540.00" x2="114.79" y2="60.00"/>
    <line x1="135.17" y1="540.00" x2="135.17" y2="60.00"/>
    <line x1="155.54" y1="540.00" x2="155.54" y2="60.00"/>
    <line x1="175.91" y1="540.00" x2="175.91" y2="60.00"/>
    <line x1="216.65" y1="540.00" x2="216.65" y2="60.00"/>
    <line x1="237.03" y1="540.00" x2="237.03" y2="60.00"/>
    <line x1="257.40" y1="540.00" x2="257.40" y2="60.00"/>
    <line x1="277.77" y1="540.00" x2="277.77" y2="60.00"/>
    <line x1="318.51" y1="540.00" x2="318.51" y2="60.00"/>
    <line x1="338.88" y1="540.00" x2="338.88" y2="60.00"/>
    <line x1="359.26" y1="540.00" x2="359.26" y2="60.00"/>
    <line x1="379.63" y1="540.00" x2="379.63" y2="60.00"/>
    <line x1="420.37" y1="540.00" x2="420.37" y2="60.00"/>
    <line x1="440.74" y1="540.00" x2="440.74" y2="60.00"/>
    <line x1="461.12" y1="540.00" x2="461.12" y2="60.00"/>
    <line x1="481.49" y1="540.00" x2="481.49" y2="60.00"/>
    <line x1="522.23" y1="540.00" x2="522.23" y2="60.00"/>
    <line x1="542.60" y1="540.00" x2="542.60" y2="60.00"/>
    <line x1="562.97" y1="540.00" x2="562.97" y2="60.00"/>
    <line x1="583.35" y1="540.00" x2="583.35" y2="60.00"/>
    <line x1="624.09" y1="540.00" x2="624.09" y2="60.00"/>
    <line x1="644.46" y1="540.00" x2="644.46" y2="60.00"/>
    <line x1="664.83" y1="540.00" x2="664.83" y2="60.00"/>
    <line x1="685.21" y1="540.00" x2="685.21" y2="60.00"/>
    <line x1="80.00" y1="492.04" x2="720.00" y2="492.04"/>
    <line x1="80.00" y1="444.03" x2="720.00" y2="444.03"/>
    <line x1="80.00" y1="396.02" x2="720.00" y2="396.02"/>
    <line x1="80.00" y1="348.01" x2="720.00" y2="348.01"/>
    <line x1="80.00" y1="251.99" x2="720.00" y2="251.99"/>
    <line x1="80.00" y1="203.98" x2="720.00" y2="203.98"/>
    <line x1="80.00" y1="155.97" x2="720.00" y2="155.97"/>
    <line x1="80.00" y1="107.96" x2="720.00" y2="107.96"/>
  </g>
  <g stroke="#808080" stroke-width="2">
    <line x1="400.00" y1="540.00" x2="400.00" y2="60.00"/>
    <line x1="80.00" y1="300.00" x2="720.00" y2="300.00"/>
  </g>
  <polyline fill="none" stroke="#0066cc" stroke-width="2" points="80.00,300.00 88.10,319.07 96.20,338.02 104.30,356.73 112.41,375.09 120.51,392.96 128.61,410.25 136.71,426.85 144.81,442.64 152.91,457.53 161.01,471.42 169.11,484.23 177.22,495.87 185.32,506.28 193.42,515.38 201.52,523.12 209.62,529.45 217.72,534.33 225.82,537.73 233.92,539.62 242.03,540.00 250.13,538.86 258.23,536.21 266.33,532.07 274.43,526.46 282.53,519.42 290.63,511.00 298.73,501.23 306.84,490.20 314.94,477.96 323.04,464.60 331.14,450.20 339.24,434.85 347.34,418.64 355.44,401.69 363.54,384.09 371.65,365.96 379.75,347.42 387.85,328.57 395.95,309.54 404.05,290.46 412.15,271.43 420.25,252.58 428.35,234.04 436.46,215.91 444.56,198.31 452.66,181.36 460.76,165.15 468.86,149.80 476.96,135.40 485.06,122.04 493.16,109.80 501.27,98.77 509.37,89.00 517.47,80.58 525.57,73.54 533.67,67.93 541.77,63.79 549.87,61.14 557.97,60.00 566.08,60.38 574.18,62.27 582.28,65.67 590.38,70.55 598.48,76.88 606.58,84.62 614.68,93.72 622.78,104.13 630.89,115.77 638.99,128.58 647.09,142.47 655.19,157.36 663.29,173.15 671.39,189.75 679.49,207.04 687.59,224.91 695.70,243.27 703.80,261.98 711.90,280.93 720.00,300.00 "/>
</svg>
