<?xml version="1.0" encoding="UTF-8"?>
<svg xmlns="http://www.w3.org/2000/svg" width="800" height="600">
  <title>Y=cos(x):-pi,pi:</title>
  <rect width="800" height="600" fill="#ffffff"/>
  <g stroke="#d0d0d0" stroke-width="1">
    <line x1="-7.44" y1="540.00" x2="-7.44" y2="60.00"/>
    <line x1="94.42" y1="540.00" x2="94.42" y2="60.00"/>
    <line x1="196.28" y1="540.00" x2="196.28" y2="60.00"/>
    <line x1="298.14" y1="540.00" x2="298.14" y2="60.00"/>
    <line x1="400.00" y1="540.00" x2="400.00" y2="60.00"/>
    <line x1="501.86" y1="540.00" x2="501.86" y2="60.00"/>
    <line x1="603.72" y1="540.00" x2="603.72" y2="60.00"/>
    <line x1="705.58" y1="540.00" x2="705.58" y2="60.00"/>
    <line x1="807.44" y1="540.00" x2="807.44" y2="60.00"/>
    <line x1="80.00" y1="540.00" x2="720.00" y2="540.00"/>
    <line x1="80.00" y1="299.91" x2="720.00" y2="299.91"/>
    <line x1="80.00" y1="59.81" x2="720.00" y2="59.81"/>
  </g>
  <g stroke="#e8e8e8" stroke-width="0.5">
    <line x1="114.79" y1="540.00" x2="114.79" y2="60.00"/>
    <line x1="135.17" y1="540.00" x2="135.17" y2="60.00"/>
    <line x1="155.54" y1="540.00" x2="155.54" y2="60.00"/>
    <line x1="175.91" y1="540.00" x2="175.91" y2="60.00"/>
    <line x1="216.65" y1="540.00" x2="216.65" y2="60.00"/>
    <line x1="237.03" y1="540.00" x2="237.03" y2="60.00"/>
    <line x1="257.40" y1="540.00" x2="257.40" y2="60.00"/>
    <line x1="277.77" y1="540.00" x2="277.77" y2="60.00"/>
    <line x1="318.51" y1="540.00" x2="318.51" y2="60.00"/>
    <line x1="338.88" y1="540.00" x2="338.88" y2="60.00"/>
    <line x1="359.26" y1="540.00" x2="359.26" y2="60.00"/>
    <line x1="379.63" y1="540.00" x2="379.63" y2="60.00"/>
    <line x1="420.37" y1="540.00" x2="420.37" y2="60.00"/>
    <line x1="440.74" y1="540.00" x2="440.74" y2="60.00"/>
    <line x1="461.12" y1="540.00" x2="461.12" y2="60.00"/>
    <line x1="481.49" y1="540.00" x2="481.49" y2="60.00"/>
    <line x1="522.23" y1="540.00" x2="522.23" y2="60.00"/>
    <line x1="542.60" y1="540.00" x2="542.60" y2="60.00"/>
    <line x1="562.97" y1="540.00" x2="562.97" y2="60.00"/>
    <line x1="583.35" y1="540.00" x2="583.35" y2="60.00"/>
    <line x1="624.09" y1="540.00" x2="624.09" y2="60.00"/>
    <line x1="644.46" y1="540.00" x2="644.46" y2="60.00"/>
    <line x1="664.83" y1="540.00" x2="664.83" y2="60.00"/>
    <line x1="685.21" y1="540.00" x2="685.21" y2="60.00"/>
    <line x1="80.00" y1="491.98" x2="720.00" y2="491.98"/>
    <line x1="80.00" y1="443.96" x2="720.00" y2="443.96"/>
    <line x1="80.00" y1="395.94" x2="720.00" y2="395.94"/>
    <line x1="80.00" y1="347.92" x2="720.00" y2="347.92"/>
    <line x1="80.00" y1="251.89" x2="720.00" y2="251.89"/>
    <line x1="80.00" y1="203.87" x2="720.00" y2="203.87"/>
    <line x1="80.00" y1="155.85" x2="720.00" y2="155.85"/>
    <line x1="80.00" y1="107.83" x2="720.00" y2="107.83"/>
  </g>
  <g stroke="#808080" stroke-width="2">
    <line x1="400.00" y1="540.00" x2="400.00" y2="60.00"/>
    <line x1="80.00" y1="299.91" x2="720.00" y2="299.91"/>
  </g>
  <polyline fill="none" stroke="#0066cc" stroke-width="2" points="80.00,540.00 88.10,539.24 96.20,536.97 104.30,533.20 112.41,527.95 120.51,521.26 128.61,513.18 136.71,503.74 144.81,493.02 152.91,481.07 161.01,467.98 169.11,453.83 177.22,438.70 185.32,422.70 193.42,405.92 201.52,388.47 209.62,370.46 217.72,352.00 225.82,333.21 233.92,314.22 242.03,295.13 250.13,276.07 258.23,257.17 266.33,238.53 274.43,220.28 282.53,202.54 290.63,185.41 298.73,169.01 306.84,153.43 314.94,138.78 323.04,125.15 331.14,112.62 339.24,101.27 347.34,91.19 355.44,82.42 363.54,75.02 371.65,69.05 379.75,64.54 387.85,61.52 395.95,60.00 404.05,60.00 412.15,61.52 420.25,64.54 428.35,69.05 436.46,75.02 444.56,82.42 452.66,91.19 460.76,101.27 468.86,112.62 476.96,125.15 485.06,138.78 493.16,153.43 501.27,169.01 509.37,185.41 517.47,202.54 525.57,220.28 533.67,238.53 541.77,257.17 549.87,276.07 557.97,295.13 566.08,314.22 574.18,333.21 582.28,352.00 590.38,370.46 598.48,388.47 606.58,405.92 614.68,422.70 622.78,438.70 630.89,453.83 638.99,467.98 647.09,481.07 655.19,493.02 663.29,503.74 671.39,513.18 679.49,521.26 687.59,527.95 695.70,533.20 703.80,536.97 711.90,539.24 720.00,540.00 "/>
</svg>
