<?xml version="1.0" encoding="UTF-8"?>
<svg xmlns="http://www.w3.org/2000/svg" width="800" height="600">
  <title>Y=tan(x):-4.7,4.7:</title>
  <rect width="800" height="600" fill="#ffffff"/>
  <g stroke="#d0d0d0" stroke-width="1">
    <line x1="59.57" y1="540.00" x2="59.57" y2="60.00"/>
    <line x1="127.66" y1="540.00" x2="127.66" y2="60.00"/>
    <line x1="195.74" y1="540.00" x2="195.74" y2="60.00"/>
    <line x1="263.83" y1="540.00" x2="263.83" y2="60.00"/>
    <line x1="331.91" y1="540.00" x2="331.91" y2="60.00"/>
    <line x1="400.00" y1="540.00" x2="400.00" y2="60.00"/>
    <line x1="468.09" y1="540.00" x2="468.09" y2="60.00"/>
    <line x1="536.17" y1="540.00" x2="536.17" y2="60.00"/>
    <line x1="604.26" y1="540.00" x2="604.26" y2="60.00"/>
    <line x1="672.34" y1="540.00" x2="672.34" y2="60.00"/>
    <line x1="740.43" y1="540.00" x2="740.43" y2="60.00"/>
    <line x1="80.00" y1="540.85" x2="720.00" y2="540.85"/>
    <line x1="80.00" y1="537.88" x2="720.00" y2="537.88"/>
    <line x1="80.00" y1="534.91" x2="720.00" y2="534.91"/>
    <line x1="80.00" y1="531.93" x2="720.00" y2="531.93"/>
    <line x1="80.00" y1="528.96" x2="720.00" y2="528.96"/>
    <line x1="80.00" y1="525.99" x2="720.00" y2="525.99"/>
    <line x1="80.00" y1="523.01" x2="720.00" y2="523.01"/>
    <line x1="80.00" y1="520.04" x2="720.00" y2="520.04"/>
    <line x1="80.00" y1="517.07" x2="720.00" y2="517.07"/>
    <line x1="80.00" y1="514.09" x2="720.00" y2="514.09"/>
    <line x1="80.00" y1="511.12" x2="720.00" y2="511.12"/>
    <line x1="80.00" y1="508.15" x2="720.00" y2="508.15"/>
    <line x1="80.00" y1="505.17" x2="720.00" y2="505.17"/>
    <line x1="80.00" y1="502.20" x2="720.00" y2="502.20"/>
    <line x1="80.00" y1="499.22" x2="720.00" y2="499.22"/>
    <line x1="80.00" y1="496.25" x2="720.00" y2="496.25"/>
    <line x1="80.00" y1="493.28" x2="720.00" y2="493.28"/>
    <line x1="80.00" y1="490.30" x2="720.00" y2="490.30"/>
    <line x1="80.00" y1="487.33" x2="720.00" y2="487.33"/>
    <line x1="80.00" y1="484.36" x2="720.00" y2="484.36"/>
    <line x1="80.00" y1="481.38" x2="720.00" y2="481.38"/>
    <line x1="80.00" y1="478.41" x2="720.00" y2="478.41"/>
    <line x1="80.00" y1="475.44" x2="720.00" y2="475.44"/>
    <line x1="80.00" y1="472.46" x2="720.00" y2="472.46"/>
    <line x1="80.00" y1="469.49" x2="720.00" y2="469.49"/>
    <line x1="80.00" y1="466.52" x2="720.00" y2="466.52"/>
    <line x1="80.00" y1="463.54" x2="720.00" y2="463.54"/>
    <line x1="80.00" y1="460.57" x2="720.00" y2="460.57"/>
    <line x1="80.00" y1="457.60" x2="720.00" y2="457.60"/>
    <line x1="80.00" y1="454.62" x2="720.00" y2="454.62"/>
    <line x1="80.00" y1="451.65" x2="720.00" y2="451.65"/>
    <line x1="80.00" y1="448.68" x2="720.00" y2="448.68"/>
    <line x1="80.00" y1="445.70" x2="720.00" y2="445.70"/>
    <line x1="80.00" y1="442.73" x2="720.00" y2="442.73"/>
    <line x1="80.00" y1="439.75" x2="720.00" y2="439.75"/>
    <line x1="80.00" y1="436.78" x2="720.00" y2="436.78"/>
    <line x1="80.00" y1="433.81" x2="720.00" y2="433.81"/>
    <line x1="80.00" y1="430.83" x2="720.00" y2="430.83"/>
    <line x1="80.00" y1="427.86" x2="720.00" y2="427.86"/>
    <line x1="80.00" y1="424.89" x2="720.00" y2="424.89"/>
    <line x1="80.00" y1="421.91" x2="720.00" y2="421.91"/>
    <line x1="80.00" y1="418.94" x2="720.00" y2="418.94"/>
    <line x1="80.00" y1="415.97" x2="720.00" y2="415.97"/>
    <line x1="80.00" y1="412.99" x2="720.00" y2="412.99"/>
    <line x1="80.00" y1="410.02" x2="720.00" y2="410.02"/>
    <line x1="80.00" y1="407.05" x2="720.00" y2="407.05"/>
    <line x1="80.00" y1="404.07" x2="720.00" y2="404.07"/>
    <line x1="80.00" y1="401.10" x2="720.00" y2="401.10"/>
    <line x1="80.00" y1="398.13" x2="720.00" y2="398.13"/>
    <line x1="80.00" y1="395.15" x2="720.00" y2="395.15"/>
    <line x1="80.00" y1="392.18" x2="720.00" y2="392.18"/>
    <line x1="80.00" y1="389.21" x2="720.00" y2="389.21"/>
    <line x1="80.00" y1="386.23" x2="720.00" y2="386.23"/>
    <line x1="80.00" y1="383.26" x2="720.00" y2="383.26"/>
    <line x1="80.00" y1="380.28" x2="720.00" y2="380.28"/>
    <line x1="80.00" y1="377.31" x2="720.00" y2="377.31"/>
    <line x1="80.00" y1="374.34" x2="720.00" y2="374.34"/>
    <line x1="80.00" y1="371.36" x2="720.00" y2="371.36"/>
    <line x1="80.00" y1="368.39" x2="720.00" y2="368.39"/>
    <line x1="80.00" y1="365.42" x2="720.00" y2="365.42"/>
    <line x1="80.00" y1="362.44" x2="720.00" y2="362.44"/>
    <line x1="80.00" y1="359.47" x2="720.00" y2="359.47"/>
    <line x1="80.00" y1="356.50" x2="720.00" y2="356.50"/>
    <line x1="80.00" y1="353.52" x2="720.00" y2="353.52"/>
    <line x1="80.00" y1="350.55" x2="720.00" y2="350.55"/>
    <line x1="80.00" y1="347.58" x2="720.00" y2="347.58"/>
    <line x1="80.00" y1="344.60" x2="720.00" y2="344.60"/>
    <line x1="80.00" y1="341.63" x2="720.00" y2="341.63"/>
    <line x1="80.00" y1="338.66" x2="720.00" y2="338.66"/>
    <line x1="80.00" y1="335.68" x2="720.00" y2="335.68"/>
    <line x1="80.00" y1="332.71" x2="720.00" y2="332.71"/>
    <line x1="80.00" y1="329.74" x2="720.00" y2="329.74"/>
    <line x1="80.00" y1="326.76" x2="720.00" y2="326.76"/>
    <line x1="80.00" y1="323.79" x2="720.00" y2="323.79"/>
    <line x1="80.00" y1="320.81" x2="720.00" y2="320.81"/>
    <line x1="80.00" y1="317.84" x2="720.00" y2="317.84"/>
    <line x1="80.00" y1="314.87" x2="720.00" y2="314.87"/>
    <line x1="80.00" y1="311.89" x2="720.00" y2="311.89"/>
    <line x1="80.00" y1="308.92" x2="720.00" y2="308.92"/>
    <line x1="80.00" y1="305.95" x2="720.00" y2="305.95"/>
    <line x1="80.00" y1="302.97" x2="720.00" y2="302.97"/>
    <line x1="80.00" y1="300.00" x2="720.00" y2="300.00"/>
    <line x1="80.00" y1="297.03" x2="720.00" y2="297.03"/>
    <line x1="80.00" y1="294.05" x2="720.00" y2="294.05"/>
    <line x1="80.00" y1="291.08" x2="720.00" y2="291.08"/>
    <line x1="80.00" y1="288.11" x2="720.00" y2="288.11"/>
    <line x1="80.00" y1="285.13" x2="720.00" y2="285.13"/>
    <line x1="80.00" y1="282.16" x2="720.00" y2="282.16"/>
    <line x1="80.00" y1="279.19" x2="720.00" y2="279.19"/>
    <line x1="80.00" y1="276.21" x2="720.00" y2="276.21"/>
    <line x1="80.00" y1="273.24" x2="720.00" y2="273.24"/>
    <line x1="80.00" y1="270.26" x2="720.00" y2="270.26"/>
    <line x1="80.00" y1="267.29" x2="720.00" y2="267.29"/>
    <line x1="80.00" y1="264.32" x2="720.00" y2="264.32"/>
    <line x1="80.00" y1="261.34" x2="720.00" y2="261.34"/>
    <line x1="80.00" y1="258.37" x2="720.00" y2="258.37"/>
    <line x1="80.00" y1="255.40" x2="720.00" y2="255.40"/>
    <line x1="80.00" y1="252.42" x2="720.00" y2="252.42"/>
    <line x1="80.00" y1="249.45" x2="720.00" y2="249.45"/>
    <line x1="80.00" y1="246.48" x2="720.00" y2="246.48"/>
    <line x1="80.00" y1="243.50" x2="720.00" y2="243.50"/>
    <line x1="80.00" y1="240.53" x2="720.00" y2="240.53"/>
    <line x1="80.00" y1="237.56" x2="720.00" y2="237.56"/>
    <line x1="80.00" y1="234.58" x2="720.00" y2="234.58"/>
    <line x1="80.00" y1="231.61" x2="720.00" y2="231.61"/>
    <line x1="80.00" y1="228.64" x2="720.00" y2="228.64"/>
    <line x1="80.00" y1="225.66" x2="720.00" y2="225.66"/>
    <line x1="80.00" y1="222.69" x2="720.00" y2="222.69"/>
    <line x1="80.00" y1="219.72" x2="720.00" y2="219.72"/>
    <line x1="80.00" y1="216.74" x2="720.00" y2="216.74"/>
    <line x1="80.00" y1="213.77" x2="720.00" y2="213.77"/>
    <line x1="80.00" y1="210.79" x2="720.00" y2="210.79"/>
    <line x1="80.00" y1="207.82" x2="720.00" y2="207.82"/>
    <line x1="80.00" y1="204.85" x2="720.00" y2="204.85"/>
    <line x1="80.00" y1="201.87" x2="720.00" y2="201.87"/>
    <line x1="80.00" y1="198.90" x2="720.00" y2="198.90"/>
    <line x1="80.00" y1="195.93" x2="720.00" y2="195.93"/>
    <line x1="80.00" y1="192.95" x2="720.00" y2="192.95"/>
    <line x1="80.00" y1="189.98" x2="720.00" y2="189.98"/>
    <line x1="80.00" y1="187.01" x2="720.00" y2="187.01"/>
    <line x1="80.00" y1="184.03" x2="720.00" y2="184.03"/>
    <line x1="80.00" y1="181.06" x2="720.00" y2="181.06"/>
    <line x1="80.00" y1="178.09" x2="720.00" y2="178.09"/>
    <line x1="80.00" y1="175.11" x2="720.00" y2="175.11"/>
    <line x1="80.00" y1="172.14" x2="720.00" y2="172.14"/>
    <line x1="80.00" y1="169.17" x2="720.00" y2="169.17"/>
    <line x1="80.00" y1="166.19" x2="720.00" y2="166.19"/>
    <line x1="80.00" y1="163.22" x2="720.00" y2="163.22"/>
    <line x1="80.00" y1="160.25" x2="720.00" y2="160.25"/>
    <line x1="80.00" y1="157.27" x2="720.00" y2="157.27"/>
    <line x1="80.00" y1="154.30" x2="720.00" y2="154.30"/>
    <line x1="80.00" y1="151.32" x2="720.00" y2="151.32"/>
    <line x1="80.00" y1="148.35" x2="720.00" y2="148.35"/>
    <line x1="80.00" y1="145.38" x2="720.00" y2="145.38"/>
    <line x1="80.00" y1="142.40" x2="720.00" y2="142.40"/>
    <line x1="80.00" y1="139.43" x2="720.00" y2="139.43"/>
    <line x1="80.00" y1="136.46" x2="720.00" y2="136.46"/>
    <line x1="80.00" y1="133.48" x2="720.00" y2="133.48"/>
    <line x1="80.00" y1="130.51" x2="720.00" y2="130.51"/>
    <line x1="80.00" y1="127.54" x2="720.00" y2="127.54"/>
    <line x1="80.00" y1="124.56" x2="720.00" y2="124.56"/>
    <line x1="80.00" y1="121.59" x2="720.00" y2="121.59"/>
    <line x1="80.00" y1="118.62" x2="720.00" y2="118.62"/>
    <line x1="80.00" y1="115.64" x2="720.00" y2="115.64"/>
    <line x1="80.00" y1="112.67" x2="720.00" y2="112.67"/>
    <line x1="80.00" y1="109.70" x2="720.00" y2="109.70"/>
    <line x1="80.00" y1="106.72" x2="720.00" y2="106.72"/>
    <line x1="80.00" y1="103.75" x2="720.00" y2="103.75"/>
    <line x1="80.00" y1="100.78" x2="720.00" y2="100.78"/>
    <line x1="80.00" y1="97.80" x2="720.00" y2="97.80"/>
    <line x1="80.00" y1="94.83" x2="720.00" y2="94.83"/>
    <line x1="80.00" y1="91.85" x2="720.00" y2="91.85"/>
    <line x1="80.00" y1="88.88" x2="720.00" y2="88.88"/>
    <line x1="80.00" y1="85.91" x2="720.00" y2="85.91"/>
    <line x1="80.00" y1="82.93" x2="720.00" y2="82.93"/>
    <line x1="80.00" y1="79.96" x2="720.00" y2="79.96"/>
    <line x1="80.00" y1="76.99" x2="720.00" y2="76.99"/>
    <line x1="80.00" y1="74.01" x2="720.00" y2="74.01"/>
    <line x1="80.00" y1="71.04" x2="720.00" y2="71.04"/>
    <line x1="80.00" y1="68.07" x2="720.00" y2="68.07"/>
    <line x1="80.00" y1="65.09" x2="720.00" y2="65.09"/>
    <line x1="80.00" y1="62.12" x2="720.00" y2="62.12"/>
    <line x1="80.00" y1="59.15" x2="720.00" y2="59.15"/>
  </g>
  <g stroke="#e8e8e8" stroke-width="0.5">
    <line x1="86.81" y1="540.00" x2="86.81" y2="60.00"/>
    <line x1="100.43" y1="540.00" x2="100.43" y2="60.00"/>
    <line x1="114.04" y1="540.00" x2="114.04" y2="60.00"/>
    <line x1="141.28" y1="540.00" x2="141.28" y2="60.00"/>
    <line x1="154.89" y1="540.00" x2="154.89" y2="60.00"/>
    <line x1="168.51" y1="540.00" x2="168.51" y2="60.00"/>
    <line x1="182.13" y1="540.00" x2="182.13" y2="60.00"/>
    <line x1="209.36" y1="540.00" x2="209.36" y2="60.00"/>
    <line x1="222.98" y1="540.00" x2="222.98" y2="60.00"/>
    <line x1="236.60" y1="540.00" x2="236.60" y2="60.00"/>
    <line x1="250.21" y1="540.00" x2="250.21" y2="60.00"/>
    <line x1="277.45" y1="540.00" x2="277.45" y2="60.00"/>
    <line x1="291.06" y1="540.00" x2="291.06" y2="60.00"/>
    <line x1="304.68" y1="540.00" x2="304.68" y2="60.00"/>
    <line x1="318.30" y1="540.00" x2="318.30" y2="60.00"/>
    <line x1="345.53" y1="540.00" x2="345.53" y2="60.00"/>
    <line x1="359.15" y1="540.00" x2="359.15" y2="60.00"/>
    <line x1="372.77" y1="540.00" x2="372.77" y2="60.00"/>
    <line x1="386.38" y1="540.00" x2="386.38" y2="60.00"/>
    <line x1="413.62" y1="540.00" x2="413.62" y2="60.00"/>
    <line x1="427.23" y1="540.00" x2="427.23" y2="60.00"/>
    <line x1="440.85" y1="540.00" x2="440.85" y2="60.00"/>
    <line x1="454.47" y1="540.00" x2="454.47" y2="60.00"/>
    <line x1="481.70" y1="540.00" x2="481.70" y2="60.00"/>
    <line x1="495.32" y1="540.00" x2="495.32" y2="60.00"/>
    <line x1="508.94" y1="540.00" x2="508.94" y2="60.00"/>
    <line x1="522.55" y1="540.00" x2="522.55" y2="60.00"/>
    <line x1="549.79" y1="540.00" x2="549.79" y2="60.00"/>
    <line x1="563.40" y1="540.00" x2="563.40" y2="60.00"/>
    <line x1="577.02" y1="540.00" x2="577.02" y2="60.00"/>
    <line x1="590.64" y1="540.00" x2="590.64" y2="60.00"/>
    <line x1="617.87" y1="540.00" x2="617.87" y2="60.00"/>
    <line x1="631.49" y1="540.00" x2="631.49" y2="60.00"/>
    <line x1="645.11" y1="540.00" x2="645.11" y2="60.00"/>
    <line x1="658.72" y1="540.00" x2="658.72" y2="60.00"/>
    <line x1="685.96" y1="540.00" x2="685.96" y2="60.00"/>
    <line x1="699.57" y1="540.00" x2="699.57" y2="60.00"/>
    <line x1="713.19" y1="540.00" x2="713.19" y2="60.00"/>
    <line x1="80.00" y1="539.66" x2="720.00" y2="539.66"/>
    <line x1="80.00" y1="539.07" x2="720.00" y2="539.07"/>
    <line x1="80.00" y1="538.48" x2="720.00" y2="538.48"/>
    <line x1="80.00" y1="537.29" x2="720.00" y2="537.29"/>
    <line x1="80.00" y1="536.69" x2="720.00" y2="536.69"/>
    <line x1="80.00" y1="536.10" x2="720.00" y2="536.10"/>
    <line x1="80.00" y1="535.50" x2="720.00" y2="535.50"/>
    <line x1="80.00" y1="534.31" x2="720.00" y2="534.31"/>
    <line x1="80.00" y1="533.72" x2="720.00" y2="533.72"/>
    <line x1="80.00" y1="533.12" x2="720.00" y2="533.12"/>
    <line x1="80.00" y1="532.53" x2="720.00" y2="532.53"/>
    <line x1="80.00" y1="531.34" x2="720.00" y2="531.34"/>
    <line x1="80.00" y1="530.74" x2="720.00" y2="530.74"/>
    <line x1="80.00" y1="530.15" x2="720.00" y2="530.15"/>
    <line x1="80.00" y1="529.55" x2="720.00" y2="529.55"/>
    <line x1="80.00" y1="528.37" x2="720.00" y2="528.37"/>
    <line x1="80.00" y1="527.77" x2="720.00" y2="527.77"/>
    <line x1="80.00" y1="527.18" x2="720.00" y2="527.18"/>
    <line x1="80.00" y1="526.58" x2="720.00" y2="526.58"/>
    <line x1="80.00" y1="525.39" x2="720.00" y2="525.39"/>
    <line x1="80.00" y1="524.80" x2="720.00" y2="524.80"/>
    <line x1="80.00" y1="524.20" x2="720.00" y2="524.20"/>
    <line x1="80.00" y1="523.61" x2="720.00" y2="523.61"/>
    <line x1="80.00" y1="522.42" x2="720.00" y2="522.42"/>
    <line x1="80.00" y1="521.82" x2="720.00" y2="521.82"/>
    <line x1="80.00" y1="521.23" x2="720.00" y2="521.23"/>
    <line x1="80.00" y1="520.63" x2="720.00" y2="520.63"/>
    <line x1="80.00" y1="519.44" x2="720.00" y2="519.44"/>
    <line x1="80.00" y1="518.85" x2="720.00" y2="518.85"/>
    <line x1="80.00" y1="518.26" x2="720.00" y2="518.26"/>
    <line x1="80.00" y1="517.66" x2="720.00" y2="517.66"/>
    <line x1="80.00" y1="516.47" x2="720.00" y2="516.47"/>
    <line x1="80.00" y1="515.88" x2="720.00" y2="515.88"/>
    <line x1="80.00" y1="515.28" x2="720.00" y2="515.28"/>
    <line x1="80.00" y1="514.69" x2="720.00" y2="514.69"/>
    <line x1="80.00" y1="513.50" x2="720.00" y2="513.50"/>
    <line x1="80.00" y1="512.90" x2="720.00" y2="512.90"/>
    <line x1="80.00" y1="512.31" x2="720.00" y2="512.31"/>
    <line x1="80.00" y1="511.71" x2="720.00" y2="511.71"/>
    <line x1="80.00" y1="510.52" x2="720.00" y2="510.52"/>
    <line x1="80.00" y1="509.93" x2="720.00" y2="509.93"/>
    <line x1="80.00" y1="509.33" x2="720.00" y2="509.33"/>
    <line x1="80.00" y1="508.74" x2="720.00" y2="508.74"/>
    <line x1="80.00" y1="507.55" x2="720.00" y2="507.55"/>
    <line x1="80.00" y1="506.96" x2="720.00" y2="506.96"/>
    <line x1="80.00" y1="506.36" x2="720.00" y2="506.36"/>
    <line x1="80.00" y1="505.77" x2="720.00" y2="505.77"/>
    <line x1="80.00" y1="504.58" x2="720.00" y2="504.58"/>
    <line x1="80.00" y1="503.98" x2="720.00" y2="503.98"/>
    <line x1="80.00" y1="503.39" x2="720.00" y2="503.39"/>
    <line x1="80.00" y1="502.79" x2="720.00" y2="502.79"/>
    <line x1="80.00" y1="501.60" x2="720.00" y2="501.60"/>
    <line x1="80.00" y1="501.01" x2="720.00" y2="501.01"/>
    <line x1="80.00" y1="500.41" x2="720.00" y2="500.41"/>
    <line x1="80.00" y1="499.82" x2="720.00" y2="499.82"/>
    <line x1="80.00" y1="498.63" x2="720.00" y2="498.63"/>
    <line x1="80.00" y1="498.04" x2="720.00" y2="498.04"/>
    <line x1="80.00" y1="497.44" x2="720.00" y2="497.44"/>
    <line x1="80.00" y1="496.85" x2="720.00" y2="496.85"/>
    <line x1="80.00" y1="495.66" x2="720.00" y2="495.66"/>
    <line x1="80.00" y1="495.06" x2="720.00" y2="495.06"/>
    <line x1="80.00" y1="494.47" x2="720.00" y2="494.47"/>
    <line x1="80.00" y1="493.87" x2="720.00" y2="493.87"/>
    <line x1="80.00" y1="492.68" x2="720.00" y2="492.68"/>
    <line x1="80.00" y1="492.09" x2="720.00" y2="492.09"/>
    <line x1="80.00" y1="491.49" x2="720.00" y2="491.49"/>
    <line x1="80.00" y1="490.90" x2="720.00" y2="490.90"/>
    <line x1="80.00" y1="489.71" x2="720.00" y2="489.71"/>
    <line x1="80.00" y1="489.12" x2="720.00" y2="489.12"/>
    <line x1="80.00" y1="488.52" x2="720.00" y2="488.52"/>
    <line x1="80.00" y1="487.93" x2="720.00" y2="487.93"/>
    <line x1="80.00" y1="486.74" x2="720.00" y2="486.74"/>
    <line x1="80.00" y1="486.14" x2="720.00" y2="486.14"/>
    <line x1="80.00" y1="485.55" x2="720.00" y2="485.55"/>
    <line x1="80.00" y1="484.95" x2="720.00" y2="484.95"/>
    <line x1="80.00" y1="483.76" x2="720.00" y2="483.76"/>
    <line x1="80.00" y1="483.17" x2="720.00" y2="483.17"/>
    <line x1="80.00" y1="482.57" x2="720.00" y2="482.57"/>
    <line x1="80.00" y1="481.98" x2="720.00" y2="481.98"/>
    <line x1="80.00" y1="480.79" x2="720.00" y2="480.79"/>
    <line x1="80.00" y1="480.19" x2="720.00" y2="480.19"/>
    <line x1="80.00" y1="479.60" x2="720.00" y2="479.60"/>
    <line x1="80.00" y1="479.01" x2="720.00" y2="479.01"/>
    <line x1="80.00" y1="477.82" x2="720.00" y2="477.82"/>
    <line x1="80.00" y1="477.22" x2="720.00" y2="477.22"/>
    <line x1="80.00" y1="476.63" x2="720.00" y2="476.63"/>
    <line x1="80.00" y1="476.03" x2="720.00" y2="476.03"/>
    <line x1="80.00" y1="474.84" x2="720.00" y2="474.84"/>
    <line x1="80.00" y1="474.25" x2="720.00" y2="474.25"/>
    <line x1="80.00" y1="473.65" x2="720.00" y2="473.65"/>
    <line x1="80.00" y1="473.06" x2="720.00" y2="473.06"/>
    <line x1="80.00" y1="471.87" x2="720.00" y2="471.87"/>
    <line x1="80.00" y1="471.27" x2="720.00" y2="471.27"/>
    <line x1="80.00" y1="470.68" x2="720.00" y2="470.68"/>
    <line x1="80.00" y1="470.08" x2="720.00" y2="470.08"/>
    <line x1="80.00" y1="468.90" x2="720.00" y2="468.90"/>
    <line x1="80.00" y1="468.30" x2="720.00" y2="468.30"/>
    <line x1="80.00" y1="467.71" x2="720.00" y2="467.71"/>
    <line x1="80.00" y1="467.11" x2="720.00" y2="467.11"/>
    <line x1="80.00" y1="465.92" x2="720.00" y2="465.92"/>
    <line x1="80.00" y1="465.33" x2="720.00" y2="465.33"/>
    <line x1="80.00" y1="464.73" x2="720.00" y2="464.73"/>
    <line x1="80.00" y1="464.14" x2="720.00" y2="464.14"/>
    <line x1="80.00" y1="462.95" x2="720.00" y2="462.95"/>
    <line x1="80.00" y1="462.35" x2="720.00" y2="462.35"/>
    <line x1="80.00" y1="461.76" x2="720.00" y2="461.76"/>
    <line x1="80.00" y1="461.16" x2="720.00" y2="461.16"/>
    <line x1="80.00" y1="459.97" x2="720.00" y2="459.97"/>
    <line x1="80.00" y1="459.38" x2="720.00" y2="459.38"/>
    <line x1="80.00" y1="458.79" x2="720.00" y2="458.79"/>
    <line x1="80.00" y1="458.19" x2="720.00" y2="458.19"/>
    <line x1="80.00" y1="457.00" x2="720.00" y2="457.00"/>
    <line x1="80.00" y1="456.41" x2="720.00" y2="456.41"/>
    <line x1="80.00" y1="455.81" x2="720.00" y2="455.81"/>
    <line x1="80.00" y1="455.22" x2="720.00" y2="455.22"/>
    <line x1="80.00" y1="454.03" x2="720.00" y2="454.03"/>
    <line x1="80.00" y1="453.43" x2="720.00" y2="453.43"/>
    <line x1="80.00" y1="452.84" x2="720.00" y2="452.84"/>
    <line x1="80.00" y1="452.24" x2="720.00" y2="452.24"/>
    <line x1="80.00" y1="451.05" x2="720.00" y2="451.05"/>
    <line x1="80.00" y1="450.46" x2="720.00" y2="450.46"/>
    <line x1="80.00" y1="449.86" x2="720.00" y2="449.86"/>
    <line x1="80.00" y1="449.27" x2="720.00" y2="449.27"/>
    <line x1="80.00" y1="448.08" x2="720.00" y2="448.08"/>
    <line x1="80.00" y1="447.49" x2="720.00" y2="447.49"/>
    <line x1="80.00" y1="446.89" x2="720.00" y2="446.89"/>
    <line x1="80.00" y1="446.30" x2="720.00" y2="446.30"/>
    <line x1="80.00" y1="445.11" x2="720.00" y2="445.11"/>
    <line x1="80.00" y1="444.51" x2="720.00" y2="444.51"/>
    <line x1="80.00" y1="443.92" x2="720.00" y2="443.92"/>
    <line x1="80.00" y1="443.32" x2="720.00" y2="443.32"/>
    <line x1="80.00" y1="442.13" x2="720.00" y2="442.13"/>
    <line x1="80.00" y1="441.54" x2="720.00" y2="441.54"/>
    <line x1="80.00" y1="440.94" x2="720.00" y2="440.94"/>
    <line x1="80.00" y1="440.35" x2="720.00" y2="440.35"/>
    <line x1="80.00" y1="439.16" x2="720.00" y2="439.16"/>
    <line x1="80.00" y1="438.57" x2="720.00" y2="438.57"/>
    <line x1="80.00" y1="437.97" x2="720.00" y2="437.97"/>
    <line x1="80.00" y1="437.38" x2="720.00" y2="437.38"/>
    <line x1="80.00" y1="436.19" x2="720.00" y2="436.19"/>
    <line x1="80.00" y1="435.59" x2="720.00" y2="435.59"/>
    <line x1="80.00" y1="435.00" x2="720.00" y2="435.00"/>
    <line x1="80.00" y1="434.40" x2="720.00" y2="434.40"/>
    <line x1="80.00" y1="433.21" x2="720.00" y2="433.21"/>
    <line x1="80.00" y1="432.62" x2="720.00" y2="432.62"/>
    <line x1="80.00" y1="432.02" x2="720.00" y2="432.02"/>
    <line x1="80.00" y1="431.43" x2="720.00" y2="431.43"/>
    <line x1="80.00" y1="430.24" x2="720.00" y2="430.24"/>
    <line x1="80.00" y1="429.64" x2="720.00" y2="429.64"/>
    <line x1="80.00" y1="429.05" x2="720.00" y2="429.05"/>
    <line x1="80.00" y1="428.46" x2="720.00" y2="428.46"/>
    <line x1="80.00" y1="427.27" x2="720.00" y2="427.27"/>
    <line x1="80.00" y1="426.67" x2="720.00" y2="426.67"/>
    <line x1="80.00" y1="426.08" x2="720.00" y2="426.08"/>
    <line x1="80.00" y1="425.48" x2="720.00" y2="425.48"/>
    <line x1="80.00" y1="424.29" x2="720.00" y2="424.29"/>
    <line x1="80.00" y1="423.70" x2="720.00" y2="423.70"/>
    <line x1="80.00" y1="423.10" x2="720.00" y2="423.10"/>
    <line x1="80.00" y1="422.51" x2="720.00" y2="422.51"/>
    <line x1="80.00" y1="421.32" x2="720.00" y2="421.32"/>
    <line x1="80.00" y1="420.72" x2="720.00" y2="420.72"/>
    <line x1="80.00" y1="420.13" x2="720.00" y2="420.13"/>
    <line x1="80.00" y1="419.53" x2="720.00" y2="419.53"/>
    <line x1="80.00" y1="418.35" x2="720.00" y2="418.35"/>
    <line x1="80.00" y1="417.75" x2="720.00" y2="417.75"/>
    <line x1="80.00" y1="417.16" x2="720.00" y2="417.16"/>
    <line x1="80.00" y1="416.56" x2="720.00" y2="416.56"/>
    <line x1="80.00" y1="415.37" x2="720.00" y2="415.37"/>
    <line x1="80.00" y1="414.78" x2="720.00" y2="414.78"/>
    <line x1="80.00" y1="414.18" x2="720.00" y2="414.18"/>
    <line x1="80.00" y1="413.59" x2="720.00" y2="413.59"/>
    <line x1="80.00" y1="412.40" x2="720.00" y2="412.40"/>
    <line x1="80.00" y1="411.80" x2="720.00" y2="411.80"/>
    <line x1="80.00" y1="411.21" x2="720.00" y2="411.21"/>
    <line x1="80.00" y1="410.61" x2="720.00" y2="410.61"/>
    <line x1="80.00" y1="409.43" x2="720.00" y2="409.43"/>
    <line x1="80.00" y1="408.83" x2="720.00" y2="408.83"/>
    <line x1="80.00" y1="408.24" x2="720.00" y2="408.24"/>
    <line x1="80.00" y1="407.64" x2="720.00" y2="407.64"/>
    <line x1="80.00" y1="406.45" x2="720.00" y2="406.45"/>
    <line x1="80.00" y1="405.86" x2="720.00" y2="405.86"/>
    <line x1="80.00" y1="405.26" x2="720.00" y2="405.26"/>
    <line x1="80.00" y1="404.67" x2="720.00" y2="404.67"/>
    <line x1="80.00" y1="403.48" x2="720.00" y2="403.48"/>
    <line x1="80.00" y1="402.88" x2="720.00" y2="402.88"/>
    <line x1="80.00" y1="402.29" x2="720.00" y2="402.29"/>
    <line x1="80.00" y1="401.69" x2="720.00" y2="401.69"/>
    <line x1="80.00" y1="400.50" x2="720.00" y2="400.50"/>
    <line x1="80.00" y1="399.91" x2="720.00" y2="399.91"/>
    <line x1="80.00" y1="399.32" x2="720.00" y2="399.32"/>
    <line x1="80.00" y1="398.72" x2="720.00" y2="398.72"/>
    <line x1="80.00" y1="397.53" x2="720.00" y2="397.53"/>
    <line x1="80.00" y1="396.94" x2="720.00" y2="396.94"/>
    <line x1="80.00" y1="396.34" x2="720.00" y2="396.34"/>
    <line x1="80.00" y1="395.75" x2="720.00" y2="395.75"/>
    <line x1="80.00" y1="394.56" x2="720.00" y2="394.56"/>
    <line x1="80.00" y1="393.96" x2="720.00" y2="393.96"/>
    <line x1="80.00" y1="393.37" x2="720.00" y2="393.37"/>
    <line x1="80.00" y1="392.77" x2="720.00" y2="392.77"/>
    <line x1="80.00" y1="391.58" x2="720.00" y2="391.58"/>
    <line x1="80.00" y1="390.99" x2="720.00" y2="390.99"/>
    <line x1="80.00" y1="390.39" x2="720.00" y2="390.39"/>
    <line x1="80.00" y1="389.80" x2="720.00" y2="389.80"/>
    <line x1="80.00" y1="388.61" x2="720.00" y2="388.61"/>
    <line x1="80.00" y1="388.02" x2="720.00" y2="388.02"/>
    <line x1="80.00" y1="387.42" x2="720.00" y2="387.42"/>
    <line x1="80.00" y1="386.83" x2="720.00" y2="386.83"/>
    <line x1="80.00" y1="385.64" x2="720.00" y2="385.64"/>
    <line x1="80.00" y1="385.04" x2="720.00" y2="385.04"/>
    <line x1="80.00" y1="384.45" x2="720.00" y2="384.45"/>
    <line x1="80.00" y1="383.85" x2="720.00" y2="383.85"/>
    <line x1="80.00" y1="382.66" x2="720.00" y2="382.66"/>
    <line x1="80.00" y1="382.07" x2="720.00" y2="382.07"/>
    <line x1="80.00" y1="381.47" x2="720.00" y2="381.47"/>
    <line x1="80.00" y1="380.88" x2="720.00" y2="380.88"/>
    <line x1="80.00" y1="379.69" x2="720.00" y2="379.69"/>
    <line x1="80.00" y1="379.10" x2="720.00" y2="379.10"/>
    <line x1="80.00" y1="378.50" x2="720.00" y2="378.50"/>
    <line x1="80.00" y1="377.91" x2="720.00" y2="377.91"/>
    <line x1="80.00" y1="376.72" x2="720.00" y2="376.72"/>
    <line x1="80.00" y1="376.12" x2="720.00" y2="376.12"/>
    <line x1="80.00" y1="375.53" x2="720.00" y2="375.53"/>
    <line x1="80.00" y1="374.93" x2="720.00" y2="374.93"/>
    <line x1="80.00" y1="373.74" x2="720.00" y2="373.74"/>
    <line x1="80.00" y1="373.15" x2="720.00" y2="373.15"/>
    <line x1="80.00" y1="372.55" x2="720.00" y2="372.55"/>
    <line x1="80.00" y1="371.96" x2="720.00" y2="371.96"/>
    <line x1="80.00" y1="370.77" x2="720.00" y2="370.77"/>
    <line x1="80.00" y1="370.17" x2="720.00" y2="370.17"/>
    <line x1="80.00" y1="369.58" x2="720.00" y2="369.58"/>
    <line x1="80.00" y1="368.99" x2="720.00" y2="368.99"/>
    <line x1="80.00" y1="367.80" x2="720.00" y2="367.80"/>
    <line x1="80.00" y1="367.20" x2="720.00" y2="367.20"/>
    <line x1="80.00" y1="366.61" x2="720.00" y2="366.61"/>
    <line x1="80.00" y1="366.01" x2="720.00" y2="366.01"/>
    <line x1="80.00" y1="364.82" x2="720.00" y2="364.82"/>
    <line x1="80.00" y1="364.23" x2="720.00" y2="364.23"/>
    <line x1="80.00" y1="363.63" x2="720.00" y2="363.63"/>
    <line x1="80.00" y1="363.04" x2="720.00" y2="363.04"/>
    <line x1="80.00" y1="361.85" x2="720.00" y2="361.85"/>
    <line x1="80.00" y1="361.25" x2="720.00" y2="361.25"/>
    <line x1="80.00" y1="360.66" x2="720.00" y2="360.66"/>
    <line x1="80.00" y1="360.06" x2="720.00" y2="360.06"/>
    <line x1="80.00" y1="358.88" x2="720.00" y2="358.88"/>
    <line x1="80.00" y1="358.28" x2="720.00" y2="358.28"/>
    <line x1="80.00" y1="357.69" x2="720.00" y2="357.69"/>
    <line x1="80.00" y1="357.09" x2="720.00" y2="357.09"/>
    <line x1="80.00" y1="355.90" x2="720.00" y2="355.90"/>
    <line x1="80.00" y1="355.31" x2="720.00" y2="355.31"/>
    <line x1="80.00" y1="354.71" x2="720.00" y2="354.71"/>
    <line x1="80.00" y1="354.12" x2="720.00" y2="354.12"/>
    <line x1="80.00" y1="352.93" x2="720.00" y2="352.93"/>
    <line x1="80.00" y1="352.33" x2="720.00" y2="352.33"/>
    <line x1="80.00" y1="351.74" x2="720.00" y2="351.74"/>
    <line x1="80.00" y1="351.14" x2="720.00" y2="351.14"/>
    <line x1="80.00" y1="349.95" x2="720.00" y2="349.95"/>
    <line x1="80.00" y1="349.36" x2="720.00" y2="349.36"/>
    <line x1="80.00" y1="348.77" x2="720.00" y2="348.77"/>
    <line x1="80.00" y1="348.17" x2="720.00" y2="348.17"/>
    <line x1="80.00" y1="346.98" x2="720.00" y2="346.98"/>
    <line x1="80.00" y1="346.39" x2="720.00" y2="346.39"/>
    <line x1="80.00" y1="345.79" x2="720.00" y2="345.79"/>
    <line x1="80.00" y1="345.20" x2="720.00" y2="345.20"/>
    <line x1="80.00" y1="344.01" x2="720.00" y2="344.01"/>
    <line x1="80.00" y1="343.41" x2="720.00" y2="343.41"/>
    <line x1="80.00" y1="342.82" x2="720.00" y2="342.82"/>
    <line x1="80.00" y1="342.22" x2="720.00" y2="342.22"/>
    <line x1="80.00" y1="341.03" x2="720.00" y2="341.03"/>
    <line x1="80.00" y1="340.44" x2="720.00" y2="340.44"/>
    <line x1="80.00" y1="339.84" x2="720.00" y2="339.84"/>
    <line x1="80.00" y1="339.25" x2="720.00" y2="339.25"/>
    <line x1="80.00" y1="338.06" x2="720.00" y2="338.06"/>
    <line x1="80.00" y1="337.47" x2="720.00" y2="337.47"/>
    <line x1="80.00" y1="336.87" x2="720.00" y2="336.87"/>
    <line x1="80.00" y1="336.28" x2="720.00" y2="336.28"/>
    <line x1="80.00" y1="335.09" x2="720.00" y2="335.09"/>
    <line x1="80.00" y1="334.49" x2="720.00" y2="334.49"/>
    <line x1="80.00" y1="333.90" x2="720.00" y2="333.90"/>
    <line x1="80.00" y1="333.30" x2="720.00" y2="333.30"/>
    <line x1="80.00" y1="332.11" x2="720.00" y2="332.11"/>
    <line x1="80.00" y1="331.52" x2="720.00" y2="331.52"/>
    <line x1="80.00" y1="330.92" x2="720.00" y2="330.92"/>
    <line x1="80.00" y1="330.33" x2="720.00" y2="330.33"/>
    <line x1="80.00" y1="329.14" x2="720.00" y2="329.14"/>
    <line x1="80.00" y1="328.55" x2="720.00" y2="328.55"/>
    <line x1="80.00" y1="327.95" x2="720.00" y2="327.95"/>
    <line x1="80.00" y1="327.36" x2="720.00" y2="327.36"/>
    <line x1="80.00" y1="326.17" x2="720.00" y2="326.17"/>
    <line x1="80.00" y1="325.57" x2="720.00" y2="325.57"/>
    <line x1="80.00" y1="324.98" x2="720.00" y2="324.98"/>
    <line x1="80.00" y1="324.38" x2="720.00" y2="324.38"/>
    <line x1="80.00" y1="323.19" x2="720.00" y2="323.19"/>
    <line x1="80.00" y1="322.60" x2="720.00" y2="322.60"/>
    <line x1="80.00" y1="322.00" x2="720.00" y2="322.00"/>
    <line x1="80.00" y1="321.41" x2="720.00" y2="321.41"/>
    <line x1="80.00" y1="320.22" x2="720.00" y2="320.22"/>
    <line x1="80.00" y1="319.63" x2="720.00" y2="319.63"/>
    <line x1="80.00" y1="319.03" x2="720.00" y2="319.03"/>
    <line x1="80.00" y1="318.44" x2="720.00" y2="318.44"/>
    <line x1="80.00" y1="317.25" x2="720.00" y2="317.25"/>
    <line x1="80.00" y1="316.65" x2="720.00" y2="316.65"/>
    <line x1="80.00" y1="316.06" x2="720.00" y2="316.06"/>
    <line x1="80.00" y1="315.46" x2="720.00" y2="315.46"/>
    <line x1="80.00" y1="314.27" x2="720.00" y2="314.27"/>
    <line x1="80.00" y1="313.68" x2="720.00" y2="313.68"/>
    <line x1="80.00" y1="313.08" x2="720.00" y2="313.08"/>
    <line x1="80.00" y1="312.49" x2="720.00" y2="312.49"/>
    <line x1="80.00" y1="311.30" x2="720.00" y2="311.30"/>
    <line x1="80.00" y1="310.70" x2="720.00" y2="310.70"/>
    <line x1="80.00" y1="310.11" x2="720.00" y2="310.11"/>
    <line x1="80.00" y1="309.52" x2="720.00" y2="309.52"/>
    <line x1="80.00" y1="308.33" x2="720.00" y2="308.33"/>
    <line x1="80.00" y1="307.73" x2="720.00" y2="307.73"/>
    <line x1="80.00" y1="307.14" x2="720.00" y2="307.14"/>
    <line x1="80.00" y1="306.54" x2="720.00" y2="306.54"/>
    <line x1="80.00" y1="305.35" x2="720.00" y2="305.35"/>
    <line x1="80.00" y1="304.76" x2="720.00" y2="304.76"/>
    <line x1="80.00" y1="304.16" x2="720.00" y2="304.16"/>
    <line x1="80.00" y1="303.57" x2="720.00" y2="303.57"/>
    <line x1="80.00" y1="302.38" x2="720.00" y2="302.38"/>
    <line x1="80.00" y1="301.78" x2="720.00" y2="301.78"/>
    <line x1="80.00" y1="301.19" x2="720.00" y2="301.19"/>
    <line x1="80.00" y1="300.59" x2="720.00" y2="300.59"/>
    <line x1="80.00" y1="299.41" x2="720.00" y2="299.41"/>
    <line x1="80.00" y1="298.81" x2="720.00" y2="298.81"/>
    <line x1="80.00" y1="298.22" x2="720.00" y2="298.22"/>
    <line x1="80.00" y1="297.62" x2="720.00" y2="297.62"/>
    <line x1="80.00" y1="296.43" x2="720.00" y2="296.43"/>
    <line x1="80.00" y1="295.84" x2="720.00" y2="295.84"/>
    <line x1="80.00" y1="295.24" x2="720.00" y2="295.24"/>
    <line x1="80.00" y1="294.65" x2="720.00" y2="294.65"/>
    <line x1="80.00" y1="293.46" x2="720.00" y2="293.46"/>
    <line x1="80.00" y1="292.86" x2="720.00" y2="292.86"/>
    <line x1="80.00" y1="292.27" x2="720.00" y2="292.27"/>
    <line x1="80.00" y1="291.67" x2="720.00" y2="291.67"/>
    <line x1="80.00" y1="290.48" x2="720.00" y2="290.48"/>
    <line x1="80.00" y1="289.89" x2="720.00" y2="289.89"/>
    <line x1="80.00" y1="289.30" x2="720.00" y2="289.30"/>
    <line x1="80.00" y1="288.70" x2="720.00" y2="288.70"/>
    <line x1="80.00" y1="287.51" x2="720.00" y2="287.51"/>
    <line x1="80.00" y1="286.92" x2="720.00" y2="286.92"/>
    <line x1="80.00" y1="286.32" x2="720.00" y2="286.32"/>
    <line x1="80.00" y1="285.73" x2="720.00" y2="285.73"/>
    <line x1="80.00" y1="284.54" x2="720.00" y2="284.54"/>
    <line x1="80.00" y1="283.94" x2="720.00" y2="283.94"/>
    <line x1="80.00" y1="283.35" x2="720.00" y2="283.35"/>
    <line x1="80.00" y1="282.75" x2="720.00" y2="282.75"/>
    <line x1="80.00" y1="281.56" x2="720.00" y2="281.56"/>
    <line x1="80.00" y1="280.97" x2="720.00" y2="280.97"/>
    <line x1="80.00" y1="280.37" x2="720.00" y2="280.37"/>
    <line x1="80.00" y1="279.78" x2="720.00" y2="279.78"/>
    <line x1="80.00" y1="278.59" x2="720.00" y2="278.59"/>
    <line x1="80.00" y1="278.00" x2="720.00" y2="278.00"/>
    <line x1="80.00" y1="277.40" x2="720.00" y2="277.40"/>
    <line x1="80.00" y1="276.81" x2="720.00" y2="276.81"/>
    <line x1="80.00" y1="275.62" x2="720.00" y2="275.62"/>
    <line x1="80.00" y1="275.02" x2="720.00" y2="275.02"/>
    <line x1="80.00" y1="274.43" x2="720.00" y2="274.43"/>
    <line x1="80.00" y1="273.83" x2="720.00" y2="273.83"/>
    <line x1="80.00" y1="272.64" x2="720.00" y2="272.64"/>
    <line x1="80.00" y1="272.05" x2="720.00" y2="272.05"/>
    <line x1="80.00" y1="271.45" x2="720.00" y2="271.45"/>
    <line x1="80.00" y1="270.86" x2="720.00" y2="270.86"/>
    <line x1="80.00" y1="269.67" x2="720.00" y2="269.67"/>
    <line x1="80.00" y1="269.08" x2="720.00" y2="269.08"/>
    <line x1="80.00" y1="268.48" x2="720.00" y2="268.48"/>
    <line x1="80.00" y1="267.89" x2="720.00" y2="267.89"/>
    <line x1="80.00" y1="266.70" x2="720.00" y2="266.70"/>
    <line x1="80.00" y1="266.10" x2="720.00" y2="266.10"/>
    <line x1="80.00" y1="265.51" x2="720.00" y2="265.51"/>
    <line x1="80.00" y1="264.91" x2="720.00" y2="264.91"/>
    <line x1="80.00" y1="263.72" x2="720.00" y2="263.72"/>
    <line x1="80.00" y1="263.13" x2="720.00" y2="263.13"/>
    <line x1="80.00" y1="262.53" x2="720.00" y2="262.53"/>
    <line x1="80.00" y1="261.94" x2="720.00" y2="261.94"/>
    <line x1="80.00" y1="260.75" x2="720.00" y2="260.75"/>
    <line x1="80.00" y1="260.16" x2="720.00" y2="260.16"/>
    <line x1="80.00" y1="259.56" x2="720.00" y2="259.56"/>
    <line x1="80.00" y1="258.97" x2="720.00" y2="258.97"/>
    <line x1="80.00" y1="257.78" x2="720.00" y2="257.78"/>
    <line x1="80.00" y1="257.18" x2="720.00" y2="257.18"/>
    <line x1="80.00" y1="256.59" x2="720.00" y2="256.59"/>
    <line x1="80.00" y1="255.99" x2="720.00" y2="255.99"/>
    <line x1="80.00" y1="254.80" x2="720.00" y2="254.80"/>
    <line x1="80.00" y1="254.21" x2="720.00" y2="254.21"/>
    <line x1="80.00" y1="253.61" x2="720.00" y2="253.61"/>
    <line x1="80.00" y1="253.02" x2="720.00" y2="253.02"/>
    <line x1="80.00" y1="251.83" x2="720.00" y2="251.83"/>
    <line x1="80.00" y1="251.23" x2="720.00" y2="251.23"/>
    <line x1="80.00" y1="250.64" x2="720.00" y2="250.64"/>
    <line x1="80.00" y1="250.05" x2="720.00" y2="250.05"/>
    <line x1="80.00" y1="248.86" x2="720.00" y2="248.86"/>
    <line x1="80.00" y1="248.26" x2="720.00" y2="248.26"/>
    <line x1="80.00" y1="247.67" x2="720.00" y2="247.67"/>
    <line x1="80.00" y1="247.07" x2="720.00" y2="247.07"/>
    <line x1="80.00" y1="245.88" x2="720.00" y2="245.88"/>
    <line x1="80.00" y1="245.29" x2="720.00" y2="245.29"/>
    <line x1="80.00" y1="244.69" x2="720.00" y2="244.69"/>
    <line x1="80.00" y1="244.10" x2="720.00" y2="244.10"/>
    <line x1="80.00" y1="242.91" x2="720.00" y2="242.91"/>
    <line x1="80.00" y1="242.31" x2="720.00" y2="242.31"/>
    <line x1="80.00" y1="241.72" x2="720.00" y2="241.72"/>
    <line x1="80.00" y1="241.12" x2="720.00" y2="241.12"/>
    <line x1="80.00" y1="239.94" x2="720.00" y2="239.94"/>
    <line x1="80.00" y1="239.34" x2="720.00" y2="239.34"/>
    <line x1="80.00" y1="238.75" x2="720.00" y2="238.75"/>
    <line x1="80.00" y1="238.15" x2="720.00" y2="238.15"/>
    <line x1="80.00" y1="236.96" x2="720.00" y2="236.96"/>
    <line x1="80.00" y1="236.37" x2="720.00" y2="236.37"/>
    <line x1="80.00" y1="235.77" x2="720.00" y2="235.77"/>
    <line x1="80.00" y1="235.18" x2="720.00" y2="235.18"/>
    <line x1="80.00" y1="233.99" x2="720.00" y2="233.99"/>
    <line x1="80.00" y1="233.39" x2="720.00" y2="233.39"/>
    <line x1="80.00" y1="232.80" x2="720.00" y2="232.80"/>
    <line x1="80.00" y1="232.20" x2="720.00" y2="232.20"/>
    <line x1="80.00" y1="231.01" x2="720.00" y2="231.01"/>
    <line x1="80.00" y1="230.42" x2="720.00" y2="230.42"/>
    <line x1="80.00" y1="229.83" x2="720.00" y2="229.83"/>
    <line x1="80.00" y1="229.23" x2="720.00" y2="229.23"/>
    <line x1="80.00" y1="228.04" x2="720.00" y2="228.04"/>
    <line x1="80.00" y1="227.45" x2="720.00" y2="227.45"/>
    <line x1="80.00" y1="226.85" x2="720.00" y2="226.85"/>
    <line x1="80.00" y1="226.26" x2="720.00" y2="226.26"/>
    <line x1="80.00" y1="225.07" x2="720.00" y2="225.07"/>
    <line x1="80.00" y1="224.47" x2="720.00" y2="224.47"/>
    <line x1="80.00" y1="223.88" x2="720.00" y2="223.88"/>
    <line x1="80.00" y1="223.28" x2="720.00" y2="223.28"/>
    <line x1="80.00" y1="222.09" x2="720.00" y2="222.09"/>
    <line x1="80.00" y1="221.50" x2="720.00" y2="221.50"/>
    <line x1="80.00" y1="220.90" x2="720.00" y2="220.90"/>
    <line x1="80.00" y1="220.31" x2="720.00" y2="220.31"/>
    <line x1="80.00" y1="219.12" x2="720.00" y2="219.12"/>
    <line x1="80.00" y1="218.53" x2="720.00" y2="218.53"/>
    <line x1="80.00" y1="217.93" x2="720.00" y2="217.93"/>
    <line x1="80.00" y1="217.34" x2="720.00" y2="217.34"/>
    <line x1="80.00" y1="216.15" x2="720.00" y2="216.15"/>
    <line x1="80.00" y1="215.55" x2="720.00" y2="215.55"/>
    <line x1="80.00" y1="214.96" x2="720.00" y2="214.96"/>
    <line x1="80.00" y1="214.36" x2="720.00" y2="214.36"/>
    <line x1="80.00" y1="213.17" x2="720.00" y2="213.17"/>
    <line x1="80.00" y1="212.58" x2="720.00" y2="212.58"/>
    <line x1="80.00" y1="211.98" x2="720.00" y2="211.98"/>
    <line x1="80.00" y1="211.39" x2="720.00" y2="211.39"/>
    <line x1="80.00" y1="210.20" x2="720.00" y2="210.20"/>
    <line x1="80.00" y1="209.61" x2="720.00" y2="209.61"/>
    <line x1="80.00" y1="209.01" x2="720.00" y2="209.01"/>
    <line x1="80.00" y1="208.42" x2="720.00" y2="208.42"/>
    <line x1="80.00" y1="207.23" x2="720.00" y2="207.23"/>
    <line x1="80.00" y1="206.63" x2="720.00" y2="206.63"/>
    <line x1="80.00" y1="206.04" x2="720.00" y2="206.04"/>
    <line x1="80.00" y1="205.44" x2="720.00" y2="205.44"/>
    <line x1="80.00" y1="204.25" x2="720.00" y2="204.25"/>
    <line x1="80.00" y1="203.66" x2="720.00" y2="203.66"/>
    <line x1="80.00" y1="203.06" x2="720.00" y2="203.06"/>
    <line x1="80.00" y1="202.47" x2="720.00" y2="202.47"/>
    <line x1="80.00" y1="201.28" x2="720.00" y2="201.28"/>
    <line x1="80.00" y1="200.68" x2="720.00" y2="200.68"/>
    <line x1="80.00" y1="200.09" x2="720.00" y2="200.09"/>
    <line x1="80.00" y1="199.50" x2="720.00" y2="199.50"/>
    <line x1="80.00" y1="198.31" x2="720.00" y2="198.31"/>
    <line x1="80.00" y1="197.71" x2="720.00" y2="197.71"/>
    <line x1="80.00" y1="197.12" x2="720.00" y2="197.12"/>
    <line x1="80.00" y1="196.52" x2="720.00" y2="196.52"/>
    <line x1="80.00" y1="195.33" x2="720.00" y2="195.33"/>
    <line x1="80.00" y1="194.74" x2="720.00" y2="194.74"/>
    <line x1="80.00" y1="194.14" x2="720.00" y2="194.14"/>
    <line x1="80.00" y1="193.55" x2="720.00" y2="193.55"/>
    <line x1="80.00" y1="192.36" x2="720.00" y2="192.36"/>
    <line x1="80.00" y1="191.76" x2="720.00" y2="191.76"/>
    <line x1="80.00" y1="191.17" x2="720.00" y2="191.17"/>
    <line x1="80.00" y1="190.57" x2="720.00" y2="190.57"/>
    <line x1="80.00" y1="189.39" x2="720.00" y2="189.39"/>
    <line x1="80.00" y1="188.79" x2="720.00" y2="188.79"/>
    <line x1="80.00" y1="188.20" x2="720.00" y2="188.20"/>
    <line x1="80.00" y1="187.60" x2="720.00" y2="187.60"/>
    <line x1="80.00" y1="186.41" x2="720.00" y2="186.41"/>
    <line x1="80.00" y1="185.82" x2="720.00" y2="185.82"/>
    <line x1="80.00" y1="185.22" x2="720.00" y2="185.22"/>
    <line x1="80.00" y1="184.63" x2="720.00" y2="184.63"/>
    <line x1="80.00" y1="183.44" x2="720.00" y2="183.44"/>
    <line x1="80.00" y1="182.84" x2="720.00" y2="182.84"/>
    <line x1="80.00" y1="182.25" x2="720.00" y2="182.25"/>
    <line x1="80.00" y1="181.65" x2="720.00" y2="181.65"/>
    <line x1="80.00" y1="180.47" x2="720.00" y2="180.47"/>
    <line x1="80.00" y1="179.87" x2="720.00" y2="179.87"/>
    <line x1="80.00" y1="179.28" x2="720.00" y2="179.28"/>
    <line x1="80.00" y1="178.68" x2="720.00" y2="178.68"/>
    <line x1="80.00" y1="177.49" x2="720.00" y2="177.49"/>
    <line x1="80.00" y1="176.90" x2="720.00" y2="176.90"/>
    <line x1="80.00" y1="176.30" x2="720.00" y2="176.30"/>
    <line x1="80.00" y1="175.71" x2="720.00" y2="175.71"/>
    <line x1="80.00" y1="174.52" x2="720.00" y2="174.52"/>
    <line x1="80.00" y1="173.92" x2="720.00" y2="173.92"/>
    <line x1="80.00" y1="173.33" x2="720.00" y2="173.33"/>
    <line x1="80.00" y1="172.73" x2="720.00" y2="172.73"/>
    <line x1="80.00" y1="171.54" x2="720.00" y2="171.54"/>
    <line x1="80.00" y1="170.95" x2="720.00" y2="170.95"/>
    <line x1="80.00" y1="170.36" x2="720.00" y2="170.36"/>
    <line x1="80.00" y1="169.76" x2="720.00" y2="169.76"/>
    <line x1="80.00" y1="168.57" x2="720.00" y2="168.57"/>
    <line x1="80.00" y1="167.98" x2="720.00" y2="167.98"/>
    <line x1="80.00" y1="167.38" x2="720.00" y2="167.38"/>
    <line x1="80.00" y1="166.79" x2="720.00" y2="166.79"/>
    <line x1="80.00" y1="165.60" x2="720.00" y2="165.60"/>
    <line x1="80.00" y1="165.00" x2="720.00" y2="165.00"/>
    <line x1="80.00" y1="164.41" x2="720.00" y2="164.41"/>
    <line x1="80.00" y1="163.81" x2="720.00" y2="163.81"/>
    <line x1="80.00" y1="162.62" x2="720.00" y2="162.62"/>
    <line x1="80.00" y1="162.03" x2="720.00" y2="162.03"/>
    <line x1="80.00" y1="161.43" x2="720.00" y2="161.43"/>
    <line x1="80.00" y1="160.84" x2="720.00" y2="160.84"/>
    <line x1="80.00" y1="159.65" x2="720.00" y2="159.65"/>
    <line x1="80.00" y1="159.06" x2="720.00" y2="159.06"/>
    <line x1="80.00" y1="158.46" x2="720.00" y2="158.46"/>
    <line x1="80.00" y1="157.87" x2="720.00" y2="157.87"/>
    <line x1="80.00" y1="156.68" x2="720.00" y2="156.68"/>
    <line x1="80.00" y1="156.08" x2="720.00" y2="156.08"/>
    <line x1="80.00" y1="155.49" x2="720.00" y2="155.49"/>
    <line x1="80.00" y1="154.89" x2="720.00" y2="154.89"/>
    <line x1="80.00" y1="153.70" x2="720.00" y2="153.70"/>
    <line x1="80.00" y1="153.11" x2="720.00" y2="153.11"/>
    <line x1="80.00" y1="152.51" x2="720.00" y2="152.51"/>
    <line x1="80.00" y1="151.92" x2="720.00" y2="151.92"/>
    <line x1="80.00" y1="150.73" x2="720.00" y2="150.73"/>
    <line x1="80.00" y1="150.14" x2="720.00" y2="150.14"/>
    <line x1="80.00" y1="149.54" x2="720.00" y2="149.54"/>
    <line x1="80.00" y1="148.95" x2="720.00" y2="148.95"/>
    <line x1="80.00" y1="147.76" x2="720.00" y2="147.76"/>
    <line x1="80.00" y1="147.16" x2="720.00" y2="147.16"/>
    <line x1="80.00" y1="146.57" x2="720.00" y2="146.57"/>
    <line x1="80.00" y1="145.97" x2="720.00" y2="145.97"/>
    <line x1="80.00" y1="144.78" x2="720.00" y2="144.78"/>
    <line x1="80.00" y1="144.19" x2="720.00" y2="144.19"/>
    <line x1="80.00" y1="143.59" x2="720.00" y2="143.59"/>
    <line x1="80.00" y1="143.00" x2="720.00" y2="143.00"/>
    <line x1="80.00" y1="141.81" x2="720.00" y2="141.81"/>
    <line x1="80.00" y1="141.21" x2="720.00" y2="141.21"/>
    <line x1="80.00" y1="140.62" x2="720.00" y2="140.62"/>
    <line x1="80.00" y1="140.03" x2="720.00" y2="140.03"/>
    <line x1="80.00" y1="138.84" x2="720.00" y2="138.84"/>
    <line x1="80.00" y1="138.24" x2="720.00" y2="138.24"/>
    <line x1="80.00" y1="137.65" x2="720.00" y2="137.65"/>
    <line x1="80.00" y1="137.05" x2="720.00" y2="137.05"/>
    <line x1="80.00" y1="135.86" x2="720.00" y2="135.86"/>
    <line x1="80.00" y1="135.27" x2="720.00" y2="135.27"/>
    <line x1="80.00" y1="134.67" x2="720.00" y2="134.67"/>
    <line x1="80.00" y1="134.08" x2="720.00" y2="134.08"/>
    <line x1="80.00" y1="132.89" x2="720.00" y2="132.89"/>
    <line x1="80.00" y1="132.29" x2="720.00" y2="132.29"/>
    <line x1="80.00" y1="131.70" x2="720.00" y2="131.70"/>
    <line x1="80.00" y1="131.10" x2="720.00" y2="131.10"/>
    <line x1="80.00" y1="129.92" x2="720.00" y2="129.92"/>
    <line x1="80.00" y1="129.32" x2="720.00" y2="129.32"/>
    <line x1="80.00" y1="128.73" x2="720.00" y2="128.73"/>
    <line x1="80.00" y1="128.13" x2="720.00" y2="128.13"/>
    <line x1="80.00" y1="126.94" x2="720.00" y2="126.94"/>
    <line x1="80.00" y1="126.35" x2="720.00" y2="126.35"/>
    <line x1="80.00" y1="125.75" x2="720.00" y2="125.75"/>
    <line x1="80.00" y1="125.16" x2="720.00" y2="125.16"/>
    <line x1="80.00" y1="123.97" x2="720.00" y2="123.97"/>
    <line x1="80.00" y1="123.37" x2="720.00" y2="123.37"/>
    <line x1="80.00" y1="122.78" x2="720.00" y2="122.78"/>
    <line x1="80.00" y1="122.18" x2="720.00" y2="122.18"/>
    <line x1="80.00" y1="120.99" x2="720.00" y2="120.99"/>
    <line x1="80.00" y1="120.40" x2="720.00" y2="120.40"/>
    <line x1="80.00" y1="119.81" x2="720.00" y2="119.81"/>
    <line x1="80.00" y1="119.21" x2="720.00" y2="119.21"/>
    <line x1="80.00" y1="118.02" x2="720.00" y2="118.02"/>
    <line x1="80.00" y1="117.43" x2="720.00" y2="117.43"/>
    <line x1="80.00" y1="116.83" x2="720.00" y2="116.83"/>
    <line x1="80.00" y1="116.24" x2="720.00" y2="116.24"/>
    <line x1="80.00" y1="115.05" x2="720.00" y2="115.05"/>
    <line x1="80.00" y1="114.45" x2="720.00" y2="114.45"/>
    <line x1="80.00" y1="113.86" x2="720.00" y2="113.86"/>
    <line x1="80.00" y1="113.26" x2="720.00" y2="113.26"/>
    <line x1="80.00" y1="112.07" x2="720.00" y2="112.07"/>
    <line x1="80.00" y1="111.48" x2="720.00" y2="111.48"/>
    <line x1="80.00" y1="110.88" x2="720.00" y2="110.88"/>
    <line x1="80.00" y1="110.29" x2="720.00" y2="110.29"/>
    <line x1="80.00" y1="109.10" x2="720.00" y2="109.10"/>
    <line x1="80.00" y1="108.51" x2="720.00" y2="108.51"/>
    <line x1="80.00" y1="107.91" x2="720.00" y2="107.91"/>
    <line x1="80.00" y1="107.32" x2="720.00" y2="107.32"/>
    <line x1="80.00" y1="106.13" x2="720.00" y2="106.13"/>
    <line x1="80.00" y1="105.53" x2="720.00" y2="105.53"/>
    <line x1="80.00" y1="104.94" x2="720.00" y2="104.94"/>
    <line x1="80.00" y1="104.34" x2="720.00" y2="104.34"/>
    <line x1="80.00" y1="103.15" x2="720.00" y2="103.15"/>
    <line x1="80.00" y1="102.56" x2="720.00" y2="102.56"/>
    <line x1="80.00" y1="101.96" x2="720.00" y2="101.96"/>
    <line x1="80.00" y1="101.37" x2="720.00" y2="101.37"/>
    <line x1="80.00" y1="100.18" x2="720.00" y2="100.18"/>
    <line x1="80.00" y1="99.59" x2="720.00" y2="99.59"/>
    <line x1="80.00" y1="98.99" x2="720.00" y2="98.99"/>
    <line x1="80.00" y1="98.40" x2="720.00" y2="98.40"/>
    <line x1="80.00" y1="97.21" x2="720.00" y2="97.21"/>
    <line x1="80.00" y1="96.61" x2="720.00" y2="96.61"/>
    <line x1="80.00" y1="96.02" x2="720.00" y2="96.02"/>
    <line x1="80.00" y1="95.42" x2="720.00" y2="95.42"/>
    <line x1="80.00" y1="94.23" x2="720.00" y2="94.23"/>
    <line x1="80.00" y1="93.64" x2="720.00" y2="93.64"/>
    <line x1="80.00" y1="93.04" x2="720.00" y2="93.04"/>
    <line x1="80.00" y1="92.45" x2="720.00" y2="92.45"/>
    <line x1="80.00" y1="91.26" x2="720.00" y2="91.26"/>
    <line x1="80.00" y1="90.67" x2="720.00" y2="90.67"/>
    <line x1="80.00" y1="90.07" x2="720.00" y2="90.07"/>
    <line x1="80.00" y1="89.48" x2="720.00" y2="89.48"/>
    <line x1="80.00" y1="88.29" x2="720.00" y2="88.29"/>
    <line x1="80.00" y1="87.69" x2="720.00" y2="87.69"/>
    <line x1="80.00" y1="87.10" x2="720.00" y2="87.10"/>
    <line x1="80.00" y1="86.50" x2="720.00" y2="86.50"/>
    <line x1="80.00" y1="85.31" x2="720.00" y2="85.31"/>
    <line x1="80.00" y1="84.72" x2="720.00" y2="84.72"/>
    <line x1="80.00" y1="84.12" x2="720.00" y2="84.12"/>
    <line x1="80.00" y1="83.53" x2="720.00" y2="83.53"/>
    <line x1="80.00" y1="82.34" x2="720.00" y2="82.34"/>
    <line x1="80.00" y1="81.74" x2="720.00" y2="81.74"/>
    <line x1="80.00" y1="81.15" x2="720.00" y2="81.15"/>
    <line x1="80.00" y1="80.56" x2="720.00" y2="80.56"/>
    <line x1="80.00" y1="79.37" x2="720.00" y2="79.37"/>
    <line x1="80.00" y1="78.77" x2="720.00" y2="78.77"/>
    <line x1="80.00" y1="78.18" x2="720.00" y2="78.18"/>
    <line x1="80.00" y1="77.58" x2="720.00" y2="77.58"/>
    <line x1="80.00" y1="76.39" x2="720.00" y2="76.39"/>
    <line x1="80.00" y1="75.80" x2="720.00" y2="75.80"/>
    <line x1="80.00" y1="75.20" x2="720.00" y2="75.20"/>
    <line x1="80.00" y1="74.61" x2="720.00" y2="74.61"/>
    <line x1="80.00" y1="73.42" x2="720.00" y2="73.42"/>
    <line x1="80.00" y1="72.82" x2="720.00" y2="72.82"/>
    <line x1="80.00" y1="72.23" x2="720.00" y2="72.23"/>
    <line x1="80.00" y1="71.63" x2="720.00" y2="71.63"/>
    <line x1="80.00" y1="70.45" x2="720.00" y2="70.45"/>
    <line x1="80.00" y1="69.85" x2="720.00" y2="69.85"/>
    <line x1="80.00" y1="69.26" x2="720.00" y2="69.26"/>
    <line x1="80.00" y1="68.66" x2="720.00" y2="68.66"/>
    <line x1="80.00" y1="67.47" x2="720.00" y2="67.47"/>
    <line x1="80.00" y1="66.88" x2="720.00" y2="66.88"/>
    <line x1="80.00" y1="66.28" x2="720.00" y2="66.28"/>
    <line x1="80.00" y1="65.69" x2="720.00" y2="65.69"/>
    <line x1="80.00" y1="64.50" x2="720.00" y2="64.50"/>
    <line x1="80.00" y1="63.90" x2="720.00" y2="63.90"/>
    <line x1="80.00" y1="63.31" x2="720.00" y2="63.31"/>
    <line x1="80.00" y1="62.71" x2="720.00" y2="62.71"/>
    <line x1="80.00" y1="61.52" x2="720.00" y2="61.52"/>
    <line x1="80.00" y1="60.93" x2="720.00" y2="60.93"/>
    <line x1="80.00" y1="60.34" x2="720.00" y2="60.34"/>
  </g>
  <g stroke="#808080" stroke-width="2">
    <line x1="400.00" y1="540.00" x2="400.00" y2="60.00"/>
    <line x1="80.00" y1="300.00" x2="720.00" y2="300.00"/>
  </g>
  <polyline fill="none" stroke="#0066cc" stroke-width="2" points="80.00,540.00 88.10,322.50 96.20,311.63 104.30,307.68 112.41,305.60 120.51,304.28 128.61,303.35 136.71,302.64 144.81,302.06 152.91,301.58 161.01,301.15 169.11,300.76 177.22,300.39 185.32,300.03 193.42,299.68 201.52,299.32 209.62,298.93 217.72,298.51 225.82,298.04 233.92,297.48 242.03,296.80 250.13,295.93 258.23,294.70 266.33,292.82 274.43,289.40 282.53,280.91 290.63,216.35 298.73,335.55 306.84,314.49 314.94,308.93 323.04,306.31 331.14,304.75 339.24,303.69 347.34,302.90 355.44,302.28 363.54,301.76 371.65,301.32 379.75,300.91 387.85,300.54 395.95,300.18 404.05,299.82 412.15,299.46 420.25,299.09 428.35,298.68 436.46,298.24 444.56,297.72 452.66,297.10 460.76,296.31 468.86,295.25 476.96,293.69 485.06,291.07 493.16,285.51 501.27,264.45 509.37,383.65 517.47,319.09 525.57,310.60 533.67,307.18 541.77,305.30 549.87,304.07 557.97,303.20 566.08,302.52 574.18,301.96 582.28,301.49 590.38,301.07 598.48,300.68 606.58,300.32 614.68,299.97 622.78,299.61 630.89,299.24 638.99,298.85 647.09,298.42 655.19,297.94 663.29,297.36 671.39,296.65 679.49,295.72 687.59,294.40 695.70,292.32 703.80,288.37 711.90,277.50 720.00,60.00 "/>
</svg>
