<?xml version="1.0" encoding="UTF-8"?>
<svg xmlns="http://www.w3.org/2000/svg" width="800" height="600">
  <title>Y=1/cos(x):-4.7,4.7:</title>
  <rect width="800" height="600" fill="#ffffff"/>
  <g stroke="#d0d0d0" stroke-width="1">
    <line x1="59.57" y1="540.00" x2="59.57" y2="60.00"/>
    <line x1="127.66" y1="540.00" x2="127.66" y2="60.00"/>
    <line x1="195.74" y1="540.00" x2="195.74" y2="60.00"/>
    <line x1="263.83" y1="540.00" x2="263.83" y2="60.00"/>
    <line x1="331.91" y1="540.00" x2="331.91" y2="60.00"/>
    <line x1="400.00" y1="540.00" x2="400.00" y2="60.00"/>
    <line x1="468.09" y1="540.00" x2="468.09" y2="60.00"/>
    <line x1="536.17" y1="540.00" x2="536.17" y2="60.00"/>
    <line x1="604.26" y1="540.00" x2="604.26" y2="60.00"/>
    <line x1="672.34" y1="540.00" x2="672.34" y2="60.00"/>
    <line x1="740.43" y1="540.00" x2="740.43" y2="60.00"/>
    <line x1="80.00" y1="541.45" x2="720.00" y2="541.45"/>
    <line x1="80.00" y1="536.28" x2="720.00" y2="536.28"/>
    <line x1="80.00" y1="531.10" x2="720.00" y2="531.10"/>
    <line x1="80.00" y1="525.92" x2="720.00" y2="525.92"/>
    <line x1="80.00" y1="520.75" x2="720.00" y2="520.75"/>
    <line x1="80.00" y1="515.57" x2="720.00" y2="515.57"/>
    <line x1="80.00" y1="510.39" x2="720.00" y2="510.39"/>
    <line x1="80.00" y1="505.22" x2="720.00" y2="505.22"/>
    <line x1="80.00" y1="500.04" x2="720.00" y2="500.04"/>
    <line x1="80.00" y1="494.86" x2="720.00" y2="494.86"/>
    <line x1="80.00" y1="489.68" x2="720.00" y2="489.68"/>
    <line x1="80.00" y1="484.51" x2="720.00" y2="484.51"/>
    <line x1="80.00" y1="479.33" x2="720.00" y2="479.33"/>
    <line x1="80.00" y1="474.15" x2="720.00" y2="474.15"/>
    <line x1="80.00" y1="468.98" x2="720.00" y2="468.98"/>
    <line x1="80.00" y1="463.80" x2="720.00" y2="463.80"/>
    <line x1="80.00" y1="458.62" x2="720.00" y2="458.62"/>
    <line x1="80.00" y1="453.44" x2="720.00" y2="453.44"/>
    <line x1="80.00" y1="448.27" x2="720.00" y2="448.27"/>
    <line x1="80.00" y1="443.09" x2="720.00" y2="443.09"/>
    <line x1="80.00" y1="437.91" x2="720.00" y2="437.91"/>
    <line x1="80.00" y1="432.74" x2="720.00" y2="432.74"/>
    <line x1="80.00" y1="427.56" x2="720.00" y2="427.56"/>
    <line x1="80.00" y1="422.38" x2="720.00" y2="422.38"/>
    <line x1="80.00" y1="417.20" x2="720.00" y2="417.20"/>
    <line x1="80.00" y1="412.03" x2="720.00" y2="412.03"/>
    <line x1="80.00" y1="406.85" x2="720.00" y2="406.85"/>
    <line x1="80.00" y1="401.67" x2="720.00" y2="401.67"/>
    <line x1="80.00" y1="396.50" x2="720.00" y2="396.50"/>
    <line x1="80.00" y1="391.32" x2="720.00" y2="391.32"/>
    <line x1="80.00" y1="386.14" x2="720.00" y2="386.14"/>
    <line x1="80.00" y1="380.96" x2="720.00" y2="380.96"/>
    <line x1="80.00" y1="375.79" x2="720.00" y2="375.79"/>
    <line x1="80.00" y1="370.61" x2="720.00" y2="370.61"/>
    <line x1="80.00" y1="365.43" x2="720.00" y2="365.43"/>
    <line x1="80.00" y1="360.26" x2="720.00" y2="360.26"/>
    <line x1="80.00" y1="355.08" x2="720.00" y2="355.08"/>
    <line x1="80.00" y1="349.90" x2="720.00" y2="349.90"/>
    <line x1="80.00" y1="344.72" x2="720.00" y2="344.72"/>
    <line x1="80.00" y1="339.55" x2="720.00" y2="339.55"/>
    <line x1="80.00" y1="334.37" x2="720.00" y2="334.37"/>
    <line x1="80.00" y1="329.19" x2="720.00" y2="329.19"/>
    <line x1="80.00" y1="324.02" x2="720.00" y2="324.02"/>
    <line x1="80.00" y1="318.84" x2="720.00" y2="318.84"/>
    <line x1="80.00" y1="313.66" x2="720.00" y2="313.66"/>
    <line x1="80.00" y1="308.48" x2="720.00" y2="308.48"/>
    <line x1="80.00" y1="303.31" x2="720.00" y2="303.31"/>
    <line x1="80.00" y1="298.13" x2="720.00" y2="298.13"/>
    <line x1="80.00" y1="292.95" x2="720.00" y2="292.95"/>
    <line x1="80.00" y1="287.78" x2="720.00" y2="287.78"/>
    <line x1="80.00" y1="282.60" x2="720.00" y2="282.60"/>
    <line x1="80.00" y1="277.42" x2="720.00" y2="277.42"/>
    <line x1="80.00" y1="272.24" x2="720.00" y2="272.24"/>
    <line x1="80.00" y1="267.07" x2="720.00" y2="267.07"/>
    <line x1="80.00" y1="261.89" x2="720.00" y2="261.89"/>
    <line x1="80.00" y1="256.71" x2="720.00" y2="256.71"/>
    <line x1="80.00" y1="251.54" x2="720.00" y2="251.54"/>
    <line x1="80.00" y1="246.36" x2="720.00" y2="246.36"/>
    <line x1="80.00" y1="241.18" x2="720.00" y2="241.18"/>
    <line x1="80.00" y1="236.00" x2="720.00" y2="236.00"/>
    <line x1="80.00" y1="230.83" x2="720.00" y2="230.83"/>
    <line x1="80.00" y1="225.65" x2="720.00" y2="225.65"/>
    <line x1="80.00" y1="220.47" x2="720.00" y2="220.47"/>
    <line x1="80.00" y1="215.30" x2="720.00" y2="215.30"/>
    <line x1="80.00" y1="210.12" x2="720.00" y2="210.12"/>
    <line x1="80.00" y1="204.94" x2="720.00" y2="204.94"/>
    <line x1="80.00" y1="199.76" x2="720.00" y2="199.76"/>
    <line x1="80.00" y1="194.59" x2="720.00" y2="194.59"/>
    <line x1="80.00" y1="189.41" x2="720.00" y2="189.41"/>
    <line x1="80.00" y1="184.23" x2="720.00" y2="184.23"/>
    <line x1="80.00" y1="179.06" x2="720.00" y2="179.06"/>
    <line x1="80.00" y1="173.88" x2="720.00" y2="173.88"/>
    <line x1="80.00" y1="168.70" x2="720.00" y2="168.70"/>
    <line x1="80.00" y1="163.52" x2="720.00" y2="163.52"/>
    <line x1="80.00" y1="158.35" x2="720.00" y2="158.35"/>
    <line x1="80.00" y1="153.17" x2="720.00" y2="153.17"/>
    <line x1="80.00" y1="147.99" x2="720.00" y2="147.99"/>
    <line x1="80.00" y1="142.82" x2="720.00" y2="142.82"/>
    <line x1="80.00" y1="137.64" x2="720.00" y2="137.64"/>
    <line x1="80.00" y1="132.46" x2="720.00" y2="132.46"/>
    <line x1="80.00" y1="127.28" x2="720.00" y2="127.28"/>
    <line x1="80.00" y1="122.11" x2="720.00" y2="122.11"/>
    <line x1="80.00" y1="116.93" x2="720.00" y2="116.93"/>
    <line x1="80.00" y1="111.75" x2="720.00" y2="111.75"/>
    <line x1="80.00" y1="106.58" x2="720.00" y2="106.58"/>
    <line x1="80.00" y1="101.40" x2="720.00" y2="101.40"/>
    <line x1="80.00" y1="96.22" x2="720.00" y2="96.22"/>
    <line x1="80.00" y1="91.04" x2="720.00" y2="91.04"/>
    <line x1="80.00" y1="85.87" x2="720.00" y2="85.87"/>
    <line x1="80.00" y1="80.69" x2="720.00" y2="80.69"/>
    <line x1="80.00" y1="75.51" x2="720.00" y2="75.51"/>
    <line x1="80.00" y1="70.34" x2="720.00" y2="70.34"/>
    <line x1="80.00" y1="65.16" x2="720.00" y2="65.16"/>
    <line x1="80.00" y1="59.98" x2="720.00" y2="59.98"/>
  </g>
  <g stroke="#e8e8e8" stroke-width="0.5">
    <line x1="86.81" y1="540.00" x2="86.81" y2="60.00"/>
    <line x1="100.43" y1="540.00" x2="100.43" y2="60.00"/>
    <line x1="114.04" y1="540.00" x2="114.04" y2="60.00"/>
    <line x1="141.28" y1="540.00" x2="141.28" y2="60.00"/>
    <line x1="154.89" y1="540.00" x2="154.89" y2="60.00"/>
    <line x1="168.51" y1="540.00" x2="168.51" y2="60.00"/>
    <line x1="182.13" y1="540.00" x2="182.13" y2="60.00"/>
    <line x1="209.36" y1="540.00" x2="209.36" y2="60.00"/>
    <line x1="222.98" y1="540.00" x2="222.98" y2="60.00"/>
    <line x1="236.60" y1="540.00" x2="236.60" y2="60.00"/>
    <line x1="250.21" y1="540.00" x2="250.21" y2="60.00"/>
    <line x1="277.45" y1="540.00" x2="277.45" y2="60.00"/>
    <line x1="291.06" y1="540.00" x2="291.06" y2="60.00"/>
    <line x1="304.68" y1="540.00" x2="304.68" y2="60.00"/>
    <line x1="318.30" y1="540.00" x2="318.30" y2="60.00"/>
    <line x1="345.53" y1="540.00" x2="345.53" y2="60.00"/>
    <line x1="359.15" y1="540.00" x2="359.15" y2="60.00"/>
    <line x1="372.77" y1="540.00" x2="372.77" y2="60.00"/>
    <line x1="386.38" y1="540.00" x2="386.38" y2="60.00"/>
    <line x1="413.62" y1="540.00" x2="413.62" y2="60.00"/>
    <line x1="427.23" y1="540.00" x2="427.23" y2="60.00"/>
    <line x1="440.85" y1="540.00" x2="440.85" y2="60.00"/>
    <line x1="454.47" y1="540.00" x2="454.47" y2="60.00"/>
    <line x1="481.70" y1="540.00" x2="481.70" y2="60.00"/>
    <line x1="495.32" y1="540.00" x2="495.32" y2="60.00"/>
    <line x1="508.94" y1="540.00" x2="508.94" y2="60.00"/>
    <line x1="522.55" y1="540.00" x2="522.55" y2="60.00"/>
    <line x1="549.79" y1="540.00" x2="549.79" y2="60.00"/>
    <line x1="563.40" y1="540.00" x2="563.40" y2="60.00"/>
    <line x1="577.02" y1="540.00" x2="577.02" y2="60.00"/>
    <line x1="590.64" y1="540.00" x2="590.64" y2="60.00"/>
    <line x1="617.87" y1="540.00" x2="617.87" y2="60.00"/>
    <line x1="631.49" y1="540.00" x2="631.49" y2="60.00"/>
    <line x1="645.11" y1="540.00" x2="645.11" y2="60.00"/>
    <line x1="658.72" y1="540.00" x2="658.72" y2="60.00"/>
    <line x1="685.96" y1="540.00" x2="685.96" y2="60.00"/>
    <line x1="699.57" y1="540.00" x2="699.57" y2="60.00"/>
    <line x1="713.19" y1="540.00" x2="713.19" y2="60.00"/>
    <line x1="80.00" y1="539.38" x2="720.00" y2="539.38"/>
    <line x1="80.00" y1="538.35" x2="720.00" y2="538.35"/>
    <line x1="80.00" y1="537.31" x2="720.00" y2="537.31"/>
    <line x1="80.00" y1="535.24" x2="720.00" y2="535.24"/>
    <line x1="80.00" y1="534.21" x2="720.00" y2="534.21"/>
    <line x1="80.00" y1="533.17" x2="720.00" y2="533.17"/>
    <line x1="80.00" y1="532.14" x2="720.00" y2="532.14"/>
    <line x1="80.00" y1="530.07" x2="720.00" y2="530.07"/>
    <line x1="80.00" y1="529.03" x2="720.00" y2="529.03"/>
    <line x1="80.00" y1="527.99" x2="720.00" y2="527.99"/>
    <line x1="80.00" y1="526.96" x2="720.00" y2="526.96"/>
    <line x1="80.00" y1="524.89" x2="720.00" y2="524.89"/>
    <line x1="80.00" y1="523.85" x2="720.00" y2="523.85"/>
    <line x1="80.00" y1="522.82" x2="720.00" y2="522.82"/>
    <line x1="80.00" y1="521.78" x2="720.00" y2="521.78"/>
    <line x1="80.00" y1="519.71" x2="720.00" y2="519.71"/>
    <line x1="80.00" y1="518.68" x2="720.00" y2="518.68"/>
    <line x1="80.00" y1="517.64" x2="720.00" y2="517.64"/>
    <line x1="80.00" y1="516.60" x2="720.00" y2="516.60"/>
    <line x1="80.00" y1="514.53" x2="720.00" y2="514.53"/>
    <line x1="80.00" y1="513.50" x2="720.00" y2="513.50"/>
    <line x1="80.00" y1="512.46" x2="720.00" y2="512.46"/>
    <line x1="80.00" y1="511.43" x2="720.00" y2="511.43"/>
    <line x1="80.00" y1="509.36" x2="720.00" y2="509.36"/>
    <line x1="80.00" y1="508.32" x2="720.00" y2="508.32"/>
    <line x1="80.00" y1="507.29" x2="720.00" y2="507.29"/>
    <line x1="80.00" y1="506.25" x2="720.00" y2="506.25"/>
    <line x1="80.00" y1="504.18" x2="720.00" y2="504.18"/>
    <line x1="80.00" y1="503.14" x2="720.00" y2="503.14"/>
    <line x1="80.00" y1="502.11" x2="720.00" y2="502.11"/>
    <line x1="80.00" y1="501.07" x2="720.00" y2="501.07"/>
    <line x1="80.00" y1="499.00" x2="720.00" y2="499.00"/>
    <line x1="80.00" y1="497.97" x2="720.00" y2="497.97"/>
    <line x1="80.00" y1="496.93" x2="720.00" y2="496.93"/>
    <line x1="80.00" y1="495.90" x2="720.00" y2="495.90"/>
    <line x1="80.00" y1="493.83" x2="720.00" y2="493.83"/>
    <line x1="80.00" y1="492.79" x2="720.00" y2="492.79"/>
    <line x1="80.00" y1="491.75" x2="720.00" y2="491.75"/>
    <line x1="80.00" y1="490.72" x2="720.00" y2="490.72"/>
    <line x1="80.00" y1="488.65" x2="720.00" y2="488.65"/>
    <line x1="80.00" y1="487.61" x2="720.00" y2="487.61"/>
    <line x1="80.00" y1="486.58" x2="720.00" y2="486.58"/>
    <line x1="80.00" y1="485.54" x2="720.00" y2="485.54"/>
    <line x1="80.00" y1="483.47" x2="720.00" y2="483.47"/>
    <line x1="80.00" y1="482.44" x2="720.00" y2="482.44"/>
    <line x1="80.00" y1="481.40" x2="720.00" y2="481.40"/>
    <line x1="80.00" y1="480.36" x2="720.00" y2="480.36"/>
    <line x1="80.00" y1="478.29" x2="720.00" y2="478.29"/>
    <line x1="80.00" y1="477.26" x2="720.00" y2="477.26"/>
    <line x1="80.00" y1="476.22" x2="720.00" y2="476.22"/>
    <line x1="80.00" y1="475.19" x2="720.00" y2="475.19"/>
    <line x1="80.00" y1="473.12" x2="720.00" y2="473.12"/>
    <line x1="80.00" y1="472.08" x2="720.00" y2="472.08"/>
    <line x1="80.00" y1="471.05" x2="720.00" y2="471.05"/>
    <line x1="80.00" y1="470.01" x2="720.00" y2="470.01"/>
    <line x1="80.00" y1="467.94" x2="720.00" y2="467.94"/>
    <line x1="80.00" y1="466.90" x2="720.00" y2="466.90"/>
    <line x1="80.00" y1="465.87" x2="720.00" y2="465.87"/>
    <line x1="80.00" y1="464.83" x2="720.00" y2="464.83"/>
    <line x1="80.00" y1="462.76" x2="720.00" y2="462.76"/>
    <line x1="80.00" y1="461.73" x2="720.00" y2="461.73"/>
    <line x1="80.00" y1="460.69" x2="720.00" y2="460.69"/>
    <line x1="80.00" y1="459.66" x2="720.00" y2="459.66"/>
    <line x1="80.00" y1="457.59" x2="720.00" y2="457.59"/>
    <line x1="80.00" y1="456.55" x2="720.00" y2="456.55"/>
    <line x1="80.00" y1="455.51" x2="720.00" y2="455.51"/>
    <line x1="80.00" y1="454.48" x2="720.00" y2="454.48"/>
    <line x1="80.00" y1="452.41" x2="720.00" y2="452.41"/>
    <line x1="80.00" y1="451.37" x2="720.00" y2="451.37"/>
    <line x1="80.00" y1="450.34" x2="720.00" y2="450.34"/>
    <line x1="80.00" y1="449.30" x2="720.00" y2="449.30"/>
    <line x1="80.00" y1="447.23" x2="720.00" y2="447.23"/>
    <line x1="80.00" y1="446.20" x2="720.00" y2="446.20"/>
    <line x1="80.00" y1="445.16" x2="720.00" y2="445.16"/>
    <line x1="80.00" y1="444.12" x2="720.00" y2="444.12"/>
    <line x1="80.00" y1="442.05" x2="720.00" y2="442.05"/>
    <line x1="80.00" y1="441.02" x2="720.00" y2="441.02"/>
    <line x1="80.00" y1="439.98" x2="720.00" y2="439.98"/>
    <line x1="80.00" y1="438.95" x2="720.00" y2="438.95"/>
    <line x1="80.00" y1="436.88" x2="720.00" y2="436.88"/>
    <line x1="80.00" y1="435.84" x2="720.00" y2="435.84"/>
    <line x1="80.00" y1="434.81" x2="720.00" y2="434.81"/>
    <line x1="80.00" y1="433.77" x2="720.00" y2="433.77"/>
    <line x1="80.00" y1="431.70" x2="720.00" y2="431.70"/>
    <line x1="80.00" y1="430.66" x2="720.00" y2="430.66"/>
    <line x1="80.00" y1="429.63" x2="720.00" y2="429.63"/>
    <line x1="80.00" y1="428.59" x2="720.00" y2="428.59"/>
    <line x1="80.00" y1="426.52" x2="720.00" y2="426.52"/>
    <line x1="80.00" y1="425.49" x2="720.00" y2="425.49"/>
    <line x1="80.00" y1="424.45" x2="720.00" y2="424.45"/>
    <line x1="80.00" y1="423.42" x2="720.00" y2="423.42"/>
    <line x1="80.00" y1="421.35" x2="720.00" y2="421.35"/>
    <line x1="80.00" y1="420.31" x2="720.00" y2="420.31"/>
    <line x1="80.00" y1="419.27" x2="720.00" y2="419.27"/>
    <line x1="80.00" y1="418.24" x2="720.00" y2="418.24"/>
    <line x1="80.00" y1="416.17" x2="720.00" y2="416.17"/>
    <line x1="80.00" y1="415.13" x2="720.00" y2="415.13"/>
    <line x1="80.00" y1="414.10" x2="720.00" y2="414.10"/>
    <line x1="80.00" y1="413.06" x2="720.00" y2="413.06"/>
    <line x1="80.00" y1="410.99" x2="720.00" y2="410.99"/>
    <line x1="80.00" y1="409.96" x2="720.00" y2="409.96"/>
    <line x1="80.00" y1="408.92" x2="720.00" y2="408.92"/>
    <line x1="80.00" y1="407.89" x2="720.00" y2="407.89"/>
    <line x1="80.00" y1="405.81" x2="720.00" y2="405.81"/>
    <line x1="80.00" y1="404.78" x2="720.00" y2="404.78"/>
    <line x1="80.00" y1="403.74" x2="720.00" y2="403.74"/>
    <line x1="80.00" y1="402.71" x2="720.00" y2="402.71"/>
    <line x1="80.00" y1="400.64" x2="720.00" y2="400.64"/>
    <line x1="80.00" y1="399.60" x2="720.00" y2="399.60"/>
    <line x1="80.00" y1="398.57" x2="720.00" y2="398.57"/>
    <line x1="80.00" y1="397.53" x2="720.00" y2="397.53"/>
    <line x1="80.00" y1="395.46" x2="720.00" y2="395.46"/>
    <line x1="80.00" y1="394.42" x2="720.00" y2="394.42"/>
    <line x1="80.00" y1="393.39" x2="720.00" y2="393.39"/>
    <line x1="80.00" y1="392.35" x2="720.00" y2="392.35"/>
    <line x1="80.00" y1="390.28" x2="720.00" y2="390.28"/>
    <line x1="80.00" y1="389.25" x2="720.00" y2="389.25"/>
    <line x1="80.00" y1="388.21" x2="720.00" y2="388.21"/>
    <line x1="80.00" y1="387.18" x2="720.00" y2="387.18"/>
    <line x1="80.00" y1="385.11" x2="720.00" y2="385.11"/>
    <line x1="80.00" y1="384.07" x2="720.00" y2="384.07"/>
    <line x1="80.00" y1="383.03" x2="720.00" y2="383.03"/>
    <line x1="80.00" y1="382.00" x2="720.00" y2="382.00"/>
    <line x1="80.00" y1="379.93" x2="720.00" y2="379.93"/>
    <line x1="80.00" y1="378.89" x2="720.00" y2="378.89"/>
    <line x1="80.00" y1="377.86" x2="720.00" y2="377.86"/>
    <line x1="80.00" y1="376.82" x2="720.00" y2="376.82"/>
    <line x1="80.00" y1="374.75" x2="720.00" y2="374.75"/>
    <line x1="80.00" y1="373.72" x2="720.00" y2="373.72"/>
    <line x1="80.00" y1="372.68" x2="720.00" y2="372.68"/>
    <line x1="80.00" y1="371.65" x2="720.00" y2="371.65"/>
    <line x1="80.00" y1="369.57" x2="720.00" y2="369.57"/>
    <line x1="80.00" y1="368.54" x2="720.00" y2="368.54"/>
    <line x1="80.00" y1="367.50" x2="720.00" y2="367.50"/>
    <line x1="80.00" y1="366.47" x2="720.00" y2="366.47"/>
    <line x1="80.00" y1="364.40" x2="720.00" y2="364.40"/>
    <line x1="80.00" y1="363.36" x2="720.00" y2="363.36"/>
    <line x1="80.00" y1="362.33" x2="720.00" y2="362.33"/>
    <line x1="80.00" y1="361.29" x2="720.00" y2="361.29"/>
    <line x1="80.00" y1="359.22" x2="720.00" y2="359.22"/>
    <line x1="80.00" y1="358.18" x2="720.00" y2="358.18"/>
    <line x1="80.00" y1="357.15" x2="720.00" y2="357.15"/>
    <line x1="80.00" y1="356.11" x2="720.00" y2="356.11"/>
    <line x1="80.00" y1="354.04" x2="720.00" y2="354.04"/>
    <line x1="80.00" y1="353.01" x2="720.00" y2="353.01"/>
    <line x1="80.00" y1="351.97" x2="720.00" y2="351.97"/>
    <line x1="80.00" y1="350.94" x2="720.00" y2="350.94"/>
    <line x1="80.00" y1="348.87" x2="720.00" y2="348.87"/>
    <line x1="80.00" y1="347.83" x2="720.00" y2="347.83"/>
    <line x1="80.00" y1="346.79" x2="720.00" y2="346.79"/>
    <line x1="80.00" y1="345.76" x2="720.00" y2="345.76"/>
    <line x1="80.00" y1="343.69" x2="720.00" y2="343.69"/>
    <line x1="80.00" y1="342.65" x2="720.00" y2="342.65"/>
    <line x1="80.00" y1="341.62" x2="720.00" y2="341.62"/>
    <line x1="80.00" y1="340.58" x2="720.00" y2="340.58"/>
    <line x1="80.00" y1="338.51" x2="720.00" y2="338.51"/>
    <line x1="80.00" y1="337.48" x2="720.00" y2="337.48"/>
    <line x1="80.00" y1="336.44" x2="720.00" y2="336.44"/>
    <line x1="80.00" y1="335.41" x2="720.00" y2="335.41"/>
    <line x1="80.00" y1="333.33" x2="720.00" y2="333.33"/>
    <line x1="80.00" y1="332.30" x2="720.00" y2="332.30"/>
    <line x1="80.00" y1="331.26" x2="720.00" y2="331.26"/>
    <line x1="80.00" y1="330.23" x2="720.00" y2="330.23"/>
    <line x1="80.00" y1="328.16" x2="720.00" y2="328.16"/>
    <line x1="80.00" y1="327.12" x2="720.00" y2="327.12"/>
    <line x1="80.00" y1="326.09" x2="720.00" y2="326.09"/>
    <line x1="80.00" y1="325.05" x2="720.00" y2="325.05"/>
    <line x1="80.00" y1="322.98" x2="720.00" y2="322.98"/>
    <line x1="80.00" y1="321.94" x2="720.00" y2="321.94"/>
    <line x1="80.00" y1="320.91" x2="720.00" y2="320.91"/>
    <line x1="80.00" y1="319.87" x2="720.00" y2="319.87"/>
    <line x1="80.00" y1="317.80" x2="720.00" y2="317.80"/>
    <line x1="80.00" y1="316.77" x2="720.00" y2="316.77"/>
    <line x1="80.00" y1="315.73" x2="720.00" y2="315.73"/>
    <line x1="80.00" y1="314.70" x2="720.00" y2="314.70"/>
    <line x1="80.00" y1="312.63" x2="720.00" y2="312.63"/>
    <line x1="80.00" y1="311.59" x2="720.00" y2="311.59"/>
    <line x1="80.00" y1="310.55" x2="720.00" y2="310.55"/>
    <line x1="80.00" y1="309.52" x2="720.00" y2="309.52"/>
    <line x1="80.00" y1="307.45" x2="720.00" y2="307.45"/>
    <line x1="80.00" y1="306.41" x2="720.00" y2="306.41"/>
    <line x1="80.00" y1="305.38" x2="720.00" y2="305.38"/>
    <line x1="80.00" y1="304.34" x2="720.00" y2="304.34"/>
    <line x1="80.00" y1="302.27" x2="720.00" y2="302.27"/>
    <line x1="80.00" y1="301.24" x2="720.00" y2="301.24"/>
    <line x1="80.00" y1="300.20" x2="720.00" y2="300.20"/>
    <line x1="80.00" y1="299.17" x2="720.00" y2="299.17"/>
    <line x1="80.00" y1="297.09" x2="720.00" y2="297.09"/>
    <line x1="80.00" y1="296.06" x2="720.00" y2="296.06"/>
    <line x1="80.00" y1="295.02" x2="720.00" y2="295.02"/>
    <line x1="80.00" y1="293.99" x2="720.00" y2="293.99"/>
    <line x1="80.00" y1="291.92" x2="720.00" y2="291.92"/>
    <line x1="80.00" y1="290.88" x2="720.00" y2="290.88"/>
    <line x1="80.00" y1="289.85" x2="720.00" y2="289.85"/>
    <line x1="80.00" y1="288.81" x2="720.00" y2="288.81"/>
    <line x1="80.00" y1="286.74" x2="720.00" y2="286.74"/>
    <line x1="80.00" y1="285.70" x2="720.00" y2="285.70"/>
    <line x1="80.00" y1="284.67" x2="720.00" y2="284.67"/>
    <line x1="80.00" y1="283.63" x2="720.00" y2="283.63"/>
    <line x1="80.00" y1="281.56" x2="720.00" y2="281.56"/>
    <line x1="80.00" y1="280.53" x2="720.00" y2="280.53"/>
    <line x1="80.00" y1="279.49" x2="720.00" y2="279.49"/>
    <line x1="80.00" y1="278.46" x2="720.00" y2="278.46"/>
    <line x1="80.00" y1="276.39" x2="720.00" y2="276.39"/>
    <line x1="80.00" y1="275.35" x2="720.00" y2="275.35"/>
    <line x1="80.00" y1="274.32" x2="720.00" y2="274.32"/>
    <line x1="80.00" y1="273.28" x2="720.00" y2="273.28"/>
    <line x1="80.00" y1="271.21" x2="720.00" y2="271.21"/>
    <line x1="80.00" y1="270.17" x2="720.00" y2="270.17"/>
    <line x1="80.00" y1="269.14" x2="720.00" y2="269.14"/>
    <line x1="80.00" y1="268.10" x2="720.00" y2="268.10"/>
    <line x1="80.00" y1="266.03" x2="720.00" y2="266.03"/>
    <line x1="80.00" y1="265.00" x2="720.00" y2="265.00"/>
    <line x1="80.00" y1="263.96" x2="720.00" y2="263.96"/>
    <line x1="80.00" y1="262.93" x2="720.00" y2="262.93"/>
    <line x1="80.00" y1="260.85" x2="720.00" y2="260.85"/>
    <line x1="80.00" y1="259.82" x2="720.00" y2="259.82"/>
    <line x1="80.00" y1="258.78" x2="720.00" y2="258.78"/>
    <line x1="80.00" y1="257.75" x2="720.00" y2="257.75"/>
    <line x1="80.00" y1="255.68" x2="720.00" y2="255.68"/>
    <line x1="80.00" y1="254.64" x2="720.00" y2="254.64"/>
    <line x1="80.00" y1="253.61" x2="720.00" y2="253.61"/>
    <line x1="80.00" y1="252.57" x2="720.00" y2="252.57"/>
    <line x1="80.00" y1="250.50" x2="720.00" y2="250.50"/>
    <line x1="80.00" y1="249.46" x2="720.00" y2="249.46"/>
    <line x1="80.00" y1="248.43" x2="720.00" y2="248.43"/>
    <line x1="80.00" y1="247.39" x2="720.00" y2="247.39"/>
    <line x1="80.00" y1="245.32" x2="720.00" y2="245.32"/>
    <line x1="80.00" y1="244.29" x2="720.00" y2="244.29"/>
    <line x1="80.00" y1="243.25" x2="720.00" y2="243.25"/>
    <line x1="80.00" y1="242.22" x2="720.00" y2="242.22"/>
    <line x1="80.00" y1="240.15" x2="720.00" y2="240.15"/>
    <line x1="80.00" y1="239.11" x2="720.00" y2="239.11"/>
    <line x1="80.00" y1="238.08" x2="720.00" y2="238.08"/>
    <line x1="80.00" y1="237.04" x2="720.00" y2="237.04"/>
    <line x1="80.00" y1="234.97" x2="720.00" y2="234.97"/>
    <line x1="80.00" y1="233.93" x2="720.00" y2="233.93"/>
    <line x1="80.00" y1="232.90" x2="720.00" y2="232.90"/>
    <line x1="80.00" y1="231.86" x2="720.00" y2="231.86"/>
    <line x1="80.00" y1="229.79" x2="720.00" y2="229.79"/>
    <line x1="80.00" y1="228.76" x2="720.00" y2="228.76"/>
    <line x1="80.00" y1="227.72" x2="720.00" y2="227.72"/>
    <line x1="80.00" y1="226.69" x2="720.00" y2="226.69"/>
    <line x1="80.00" y1="224.61" x2="720.00" y2="224.61"/>
    <line x1="80.00" y1="223.58" x2="720.00" y2="223.58"/>
    <line x1="80.00" y1="222.54" x2="720.00" y2="222.54"/>
    <line x1="80.00" y1="221.51" x2="720.00" y2="221.51"/>
    <line x1="80.00" y1="219.44" x2="720.00" y2="219.44"/>
    <line x1="80.00" y1="218.40" x2="720.00" y2="218.40"/>
    <line x1="80.00" y1="217.37" x2="720.00" y2="217.37"/>
    <line x1="80.00" y1="216.33" x2="720.00" y2="216.33"/>
    <line x1="80.00" y1="214.26" x2="720.00" y2="214.26"/>
    <line x1="80.00" y1="213.22" x2="720.00" y2="213.22"/>
    <line x1="80.00" y1="212.19" x2="720.00" y2="212.19"/>
    <line x1="80.00" y1="211.15" x2="720.00" y2="211.15"/>
    <line x1="80.00" y1="209.08" x2="720.00" y2="209.08"/>
    <line x1="80.00" y1="208.05" x2="720.00" y2="208.05"/>
    <line x1="80.00" y1="207.01" x2="720.00" y2="207.01"/>
    <line x1="80.00" y1="205.98" x2="720.00" y2="205.98"/>
    <line x1="80.00" y1="203.91" x2="720.00" y2="203.91"/>
    <line x1="80.00" y1="202.87" x2="720.00" y2="202.87"/>
    <line x1="80.00" y1="201.84" x2="720.00" y2="201.84"/>
    <line x1="80.00" y1="200.80" x2="720.00" y2="200.80"/>
    <line x1="80.00" y1="198.73" x2="720.00" y2="198.73"/>
    <line x1="80.00" y1="197.69" x2="720.00" y2="197.69"/>
    <line x1="80.00" y1="196.66" x2="720.00" y2="196.66"/>
    <line x1="80.00" y1="195.62" x2="720.00" y2="195.62"/>
    <line x1="80.00" y1="193.55" x2="720.00" y2="193.55"/>
    <line x1="80.00" y1="192.52" x2="720.00" y2="192.52"/>
    <line x1="80.00" y1="191.48" x2="720.00" y2="191.48"/>
    <line x1="80.00" y1="190.45" x2="720.00" y2="190.45"/>
    <line x1="80.00" y1="188.37" x2="720.00" y2="188.37"/>
    <line x1="80.00" y1="187.34" x2="720.00" y2="187.34"/>
    <line x1="80.00" y1="186.30" x2="720.00" y2="186.30"/>
    <line x1="80.00" y1="185.27" x2="720.00" y2="185.27"/>
    <line x1="80.00" y1="183.20" x2="720.00" y2="183.20"/>
    <line x1="80.00" y1="182.16" x2="720.00" y2="182.16"/>
    <line x1="80.00" y1="181.13" x2="720.00" y2="181.13"/>
    <line x1="80.00" y1="180.09" x2="720.00" y2="180.09"/>
    <line x1="80.00" y1="178.02" x2="720.00" y2="178.02"/>
    <line x1="80.00" y1="176.98" x2="720.00" y2="176.98"/>
    <line x1="80.00" y1="175.95" x2="720.00" y2="175.95"/>
    <line x1="80.00" y1="174.91" x2="720.00" y2="174.91"/>
    <line x1="80.00" y1="172.84" x2="720.00" y2="172.84"/>
    <line x1="80.00" y1="171.81" x2="720.00" y2="171.81"/>
    <line x1="80.00" y1="170.77" x2="720.00" y2="170.77"/>
    <line x1="80.00" y1="169.74" x2="720.00" y2="169.74"/>
    <line x1="80.00" y1="167.67" x2="720.00" y2="167.67"/>
    <line x1="80.00" y1="166.63" x2="720.00" y2="166.63"/>
    <line x1="80.00" y1="165.60" x2="720.00" y2="165.60"/>
    <line x1="80.00" y1="164.56" x2="720.00" y2="164.56"/>
    <line x1="80.00" y1="162.49" x2="720.00" y2="162.49"/>
    <line x1="80.00" y1="161.45" x2="720.00" y2="161.45"/>
    <line x1="80.00" y1="160.42" x2="720.00" y2="160.42"/>
    <line x1="80.00" y1="159.38" x2="720.00" y2="159.38"/>
    <line x1="80.00" y1="157.31" x2="720.00" y2="157.31"/>
    <line x1="80.00" y1="156.28" x2="720.00" y2="156.28"/>
    <line x1="80.00" y1="155.24" x2="720.00" y2="155.24"/>
    <line x1="80.00" y1="154.21" x2="720.00" y2="154.21"/>
    <line x1="80.00" y1="152.13" x2="720.00" y2="152.13"/>
    <line x1="80.00" y1="151.10" x2="720.00" y2="151.10"/>
    <line x1="80.00" y1="150.06" x2="720.00" y2="150.06"/>
    <line x1="80.00" y1="149.03" x2="720.00" y2="149.03"/>
    <line x1="80.00" y1="146.96" x2="720.00" y2="146.96"/>
    <line x1="80.00" y1="145.92" x2="720.00" y2="145.92"/>
    <line x1="80.00" y1="144.89" x2="720.00" y2="144.89"/>
    <line x1="80.00" y1="143.85" x2="720.00" y2="143.85"/>
    <line x1="80.00" y1="141.78" x2="720.00" y2="141.78"/>
    <line x1="80.00" y1="140.75" x2="720.00" y2="140.75"/>
    <line x1="80.00" y1="139.71" x2="720.00" y2="139.71"/>
    <line x1="80.00" y1="138.67" x2="720.00" y2="138.67"/>
    <line x1="80.00" y1="136.60" x2="720.00" y2="136.60"/>
    <line x1="80.00" y1="135.57" x2="720.00" y2="135.57"/>
    <line x1="80.00" y1="134.53" x2="720.00" y2="134.53"/>
    <line x1="80.00" y1="133.50" x2="720.00" y2="133.50"/>
    <line x1="80.00" y1="131.43" x2="720.00" y2="131.43"/>
    <line x1="80.00" y1="130.39" x2="720.00" y2="130.39"/>
    <line x1="80.00" y1="129.36" x2="720.00" y2="129.36"/>
    <line x1="80.00" y1="128.32" x2="720.00" y2="128.32"/>
    <line x1="80.00" y1="126.25" x2="720.00" y2="126.25"/>
    <line x1="80.00" y1="125.21" x2="720.00" y2="125.21"/>
    <line x1="80.00" y1="124.18" x2="720.00" y2="124.18"/>
    <line x1="80.00" y1="123.14" x2="720.00" y2="123.14"/>
    <line x1="80.00" y1="121.07" x2="720.00" y2="121.07"/>
    <line x1="80.00" y1="120.04" x2="720.00" y2="120.04"/>
    <line x1="80.00" y1="119.00" x2="720.00" y2="119.00"/>
    <line x1="80.00" y1="117.97" x2="720.00" y2="117.97"/>
    <line x1="80.00" y1="115.89" x2="720.00" y2="115.89"/>
    <line x1="80.00" y1="114.86" x2="720.00" y2="114.86"/>
    <line x1="80.00" y1="113.82" x2="720.00" y2="113.82"/>
    <line x1="80.00" y1="112.79" x2="720.00" y2="112.79"/>
    <line x1="80.00" y1="110.72" x2="720.00" y2="110.72"/>
    <line x1="80.00" y1="109.68" x2="720.00" y2="109.68"/>
    <line x1="80.00" y1="108.65" x2="720.00" y2="108.65"/>
    <line x1="80.00" y1="107.61" x2="720.00" y2="107.61"/>
    <line x1="80.00" y1="105.54" x2="720.00" y2="105.54"/>
    <line x1="80.00" y1="104.51" x2="720.00" y2="104.51"/>
    <line x1="80.00" y1="103.47" x2="720.00" y2="103.47"/>
    <line x1="80.00" y1="102.43" x2="720.00" y2="102.43"/>
    <line x1="80.00" y1="100.36" x2="720.00" y2="100.36"/>
    <line x1="80.00" y1="99.33" x2="720.00" y2="99.33"/>
    <line x1="80.00" y1="98.29" x2="720.00" y2="98.29"/>
    <line x1="80.00" y1="97.26" x2="720.00" y2="97.26"/>
    <line x1="80.00" y1="95.19" x2="720.00" y2="95.19"/>
    <line x1="80.00" y1="94.15" x2="720.00" y2="94.15"/>
    <line x1="80.00" y1="93.12" x2="720.00" y2="93.12"/>
    <line x1="80.00" y1="92.08" x2="720.00" y2="92.08"/>
    <line x1="80.00" y1="90.01" x2="720.00" y2="90.01"/>
    <line x1="80.00" y1="88.97" x2="720.00" y2="88.97"/>
    <line x1="80.00" y1="87.94" x2="720.00" y2="87.94"/>
    <line x1="80.00" y1="86.90" x2="720.00" y2="86.90"/>
    <line x1="80.00" y1="84.83" x2="720.00" y2="84.83"/>
    <line x1="80.00" y1="83.80" x2="720.00" y2="83.80"/>
    <line x1="80.00" y1="82.76" x2="720.00" y2="82.76"/>
    <line x1="80.00" y1="81.73" x2="720.00" y2="81.73"/>
    <line x1="80.00" y1="79.65" x2="720.00" y2="79.65"/>
    <line x1="80.00" y1="78.62" x2="720.00" y2="78.62"/>
    <line x1="80.00" y1="77.58" x2="720.00" y2="77.58"/>
    <line x1="80.00" y1="76.55" x2="720.00" y2="76.55"/>
    <line x1="80.00" y1="74.48" x2="720.00" y2="74.48"/>
    <line x1="80.00" y1="73.44" x2="720.00" y2="73.44"/>
    <line x1="80.00" y1="72.41" x2="720.00" y2="72.41"/>
    <line x1="80.00" y1="71.37" x2="720.00" y2="71.37"/>
    <line x1="80.00" y1="69.30" x2="720.00" y2="69.30"/>
    <line x1="80.00" y1="68.27" x2="720.00" y2="68.27"/>
    <line x1="80.00" y1="67.23" x2="720.00" y2="67.23"/>
    <line x1="80.00" y1="66.19" x2="720.00" y2="66.19"/>
    <line x1="80.00" y1="64.12" x2="720.00" y2="64.12"/>
    <line x1="80.00" y1="63.09" x2="720.00" y2="63.09"/>
    <line x1="80.00" y1="62.05" x2="720.00" y2="62.05"/>
    <line x1="80.00" y1="61.02" x2="720.00" y2="61.02"/>
  </g>
  <g stroke="#808080" stroke-width="2">
    <line x1="400.00" y1="540.00" x2="400.00" y2="60.00"/>
    <line x1="80.00" y1="122.11" x2="720.00" y2="122.11"/>
  </g>
  <polyline fill="none" stroke="#0066cc" stroke-width="2" points="80.00,540.00 88.10,161.63 96.20,143.00 104.30,136.45 112.41,133.14 120.51,131.18 128.61,129.90 136.71,129.03 144.81,128.41 152.91,127.97 161.01,127.66 169.11,127.45 177.22,127.33 185.32,127.28 193.42,127.31 201.52,127.42 209.62,127.61 217.72,127.90 225.82,128.31 233.92,128.89 242.03,129.71 250.13,130.89 258.23,132.68 266.33,135.64 274.43,141.27 282.53,155.75 290.63,267.84 298.73,60.00 306.84,96.36 314.94,105.72 323.04,109.96 331.14,112.35 339.24,113.86 347.34,114.87 355.44,115.58 363.54,116.09 371.65,116.45 379.75,116.69 387.85,116.85 395.95,116.92 404.05,116.92 412.15,116.85 420.25,116.69 428.35,116.45 436.46,116.09 444.56,115.58 452.66,114.87 460.76,113.86 468.86,112.35 476.96,109.96 485.06,105.72 493.16,96.36 501.27,60.00 509.37,267.84 517.47,155.75 525.57,141.27 533.67,135.64 541.77,132.68 549.87,130.89 557.97,129.71 566.08,128.89 574.18,128.31 582.28,127.90 590.38,127.61 598.48,127.42 606.58,127.31 614.68,127.28 622.78,127.33 630.89,127.45 638.99,127.66 647.09,127.97 655.19,128.41 663.29,129.03 671.39,129.90 679.49,131.18 687.59,133.14 695.70,136.45 703.80,143.00 711.90,161.63 720.00,540.00 "/>
</svg>
