<?xml version="1.0" encoding="UTF-8"?>
<svg xmlns="http://www.w3.org/2000/svg" width="800" height="600">
  <title>Y=asin(x):-1,1:</title>
  <rect width="800" height="600" fill="#ffffff"/>
  <g stroke="#d0d0d0" stroke-width="1">
    <line x1="80.00" y1="540.00" x2="80.00" y2="60.00"/>
    <line x1="400.00" y1="540.00" x2="400.00" y2="60.00"/>
    <line x1="720.00" y1="540.00" x2="720.00" y2="60.00"/>
    <line x1="80.00" y1="605.58" x2="720.00" y2="605.58"/>
    <line x1="80.00" y1="452.79" x2="720.00" y2="452.79"/>
    <line x1="80.00" y1="300.00" x2="720.00" y2="300.00"/>
    <line x1="80.00" y1="147.21" x2="720.00" y2="147.21"/>
    <line x1="80.00" y1="-5.58" x2="720.00" y2="-5.58"/>
  </g>
  <g stroke="#e8e8e8" stroke-width="0.5">
    <line x1="144.00" y1="540.00" x2="144.00" y2="60.00"/>
    <line x1="208.00" y1="540.00" x2="208.00" y2="60.00"/>
    <line x1="272.00" y1="540.00" x2="272.00" y2="60.00"/>
    <line x1="336.00" y1="540.00" x2="336.00" y2="60.00"/>
    <line x1="464.00" y1="540.00" x2="464.00" y2="60.00"/>
    <line x1="528.00" y1="540.00" x2="528.00" y2="60.00"/>
    <line x1="592.00" y1="540.00" x2="592.00" y2="60.00"/>
    <line x1="656.00" y1="540.00" x2="656.00" y2="60.00"/>
    <line x1="80.00" y1="513.90" x2="720.00" y2="513.90"/>
    <line x1="80.00" y1="483.35" x2="720.00" y2="483.35"/>
    <line x1="80.00" y1="422.23" x2="720.00" y2="422.23"/>
    <line x1="80.00" y1="391.67" x2="720.00" y2="391.67"/>
    <line x1="80.00" y1="361.12" x2="720.00" y2="361.12"/>
    <line x1="80.00" y1="330.56" x2="720.00" y2="330.56"/>
    <line x1="80.00" y1="269.44" x2="720.00" y2="269.44"/>
    <line x1="80.00" y1="238.88" x2="720.00" y2="238.88"/>
    <line x1="80.00" y1="208.33" x2="720.00" y2="208.33"/>
    <line x1="80.00" y1="177.77" x2="720.00" y2="177.77"/>
    <line x1="80.00" y1="116.65" x2="720.00" y2="116.65"/>
    <line x1="80.00" y1="86.10" x2="720.00" y2="86.10"/>
  </g>
  <g stroke="#808080" stroke-width="2">
    <line x1="400.00" y1="540.00" x2="400.00" y2="60.00"/>
    <line x1="80.00" y1="300.00" x2="720.00" y2="300.00"/>
  </g>
  <polyline fill="none" stroke="#0066cc" stroke-width="2" points="80.00,540.00 88.10,505.55 96.20,491.17 104.30,480.07 112.41,470.65 120.51,462.29 128.61,454.68 136.71,447.64 144.81,441.04 152.91,434.79 161.01,428.85 169.11,423.15 177.22,417.66 185.32,412.36 193.42,407.22 201.52,402.23 209.62,397.35 217.72,392.60 225.82,387.94 233.92,383.37 242.03,378.89 250.13,374.47 258.23,370.13 266.33,365.84 274.43,361.61 282.53,357.43 290.63,353.29 298.73,349.20 306.84,345.14 314.94,341.11 323.04,337.11 331.14,333.14 339.24,329.19 347.34,325.26 355.44,321.34 363.54,317.44 371.65,313.56 379.75,309.68 387.85,305.80 395.95,301.93 404.05,298.07 412.15,294.20 420.25,290.32 428.35,286.44 436.46,282.56 444.56,278.66 452.66,274.74 460.76,270.81 468.86,266.86 476.96,262.89 485.06,258.89 493.16,254.86 501.27,250.80 509.37,246.71 517.47,242.57 525.57,238.39 533.67,234.16 541.77,229.87 549.87,225.53 557.97,221.11 566.08,216.63 574.18,212.06 582.28,207.40 590.38,202.65 598.48,197.77 606.58,192.78 614.68,187.64 622.78,182.34 630.89,176.85 638.99,171.15 647.09,165.21 655.19,158.96 663.29,152.36 671.39,145.32 679.49,137.71 687.59,129.35 695.70,119.93 703.80,108.83 711.90,94.45 720.00,60.00 "/>
</svg>
