<?xml version="1.0" encoding="UTF-8"?>
<svg xmlns="http://www.w3.org/2000/svg" width="800" height="600">
  <title>Y=acos(x):-1,1:</title>
  <rect width="800" height="600" fill="#ffffff"/>
  <g stroke="#d0d0d0" stroke-width="1">
    <line x1="80.00" y1="540.00" x2="80.00" y2="60.00"/>
    <line x1="400.00" y1="540.00" x2="400.00" y2="60.00"/>
    <line x1="720.00" y1="540.00" x2="720.00" y2="60.00"/>
    <line x1="80.00" y1="540.00" x2="720.00" y2="540.00"/>
    <line x1="80.00" y1="387.21" x2="720.00" y2="387.21"/>
    <line x1="80.00" y1="234.42" x2="720.00" y2="234.42"/>
    <line x1="80.00" y1="81.63" x2="720.00" y2="81.63"/>
    <line x1="80.00" y1="-71.15" x2="720.00" y2="-71.15"/>
  </g>
  <g stroke="#e8e8e8" stroke-width="0.5">
    <line x1="144.00" y1="540.00" x2="144.00" y2="60.00"/>
    <line x1="208.00" y1="540.00" x2="208.00" y2="60.00"/>
    <line x1="272.00" y1="540.00" x2="272.00" y2="60.00"/>
    <line x1="336.00" y1="540.00" x2="336.00" y2="60.00"/>
    <line x1="464.00" y1="540.00" x2="464.00" y2="60.00"/>
    <line x1="528.00" y1="540.00" x2="528.00" y2="60.00"/>
    <line x1="592.00" y1="540.00" x2="592.00" y2="60.00"/>
    <line x1="656.00" y1="540.00" x2="656.00" y2="60.00"/>
    <line x1="80.00" y1="509.44" x2="720.00" y2="509.44"/>
    <line x1="80.00" y1="478.88" x2="720.00" y2="478.88"/>
    <line x1="80.00" y1="448.33" x2="720.00" y2="448.33"/>
    <line x1="80.00" y1="417.77" x2="720.00" y2="417.77"/>
    <line x1="80.00" y1="356.65" x2="720.00" y2="356.65"/>
    <line x1="80.00" y1="326.10" x2="720.00" y2="326.10"/>
    <line x1="80.00" y1="295.54" x2="720.00" y2="295.54"/>
    <line x1="80.00" y1="264.98" x2="720.00" y2="264.98"/>
    <line x1="80.00" y1="203.86" x2="720.00" y2="203.86"/>
    <line x1="80.00" y1="173.31" x2="720.00" y2="173.31"/>
    <line x1="80.00" y1="142.75" x2="720.00" y2="142.75"/>
    <line x1="80.00" y1="112.19" x2="720.00" y2="112.19"/>
  </g>
  <g stroke="#808080" stroke-width="2">
    <line x1="400.00" y1="540.00" x2="400.00" y2="60.00"/>
    <line x1="80.00" y1="540.00" x2="720.00" y2="540.00"/>
  </g>
  <polyline fill="none" stroke="#0066cc" stroke-width="2" points="80.00,60.00 88.10,94.45 96.20,108.83 104.30,119.93 112.41,129.35 120.51,137.71 128.61,145.32 136.71,152.36 144.81,158.96 152.91,165.21 161.01,171.15 169.11,176.85 177.22,182.34 185.32,187.64 193.42,192.78 201.52,197.77 209.62,202.65 217.72,207.40 225.82,212.06 233.92,216.63 242.03,221.11 250.13,225.53 258.23,229.87 266.33,234.16 274.43,238.39 282.53,242.57 290.63,246.71 298.73,250.80 306.84,254.86 314.94,258.89 323.04,262.89 331.14,266.86 339.24,270.81 347.34,274.74 355.44,278.66 363.54,282.56 371.65,286.44 379.75,290.32 387.85,294.20 395.95,298.07 404.05,301.93 412.15,305.80 420.25,309.68 428.35,313.56 436.46,317.44 444.56,321.34 452.66,325.26 460.76,329.19 468.86,333.14 476.96,337.11 485.06,341.11 493.16,345.14 501.27,349.20 509.37,353.29 517.47,357.43 525.57,361.61 533.67,365.84 541.77,370.13 549.87,374.47 557.97,378.89 566.08,383.37 574.18,387.94 582.28,392.60 590.38,397.35 598.48,402.23 606.58,407.22 614.68,412.36 622.78,417.66 630.89,423.15 638.99,428.85 647.09,434.79 655.19,441.04 663.29,447.64 671.39,454.68 679.49,462.29 687.59,470.65 695.70,480.07 703.80,491.17 711.90,505.55 720.00,540.00 "/>
</svg>
