<?xml version="1.0" encoding="UTF-8"?>
<svg xmlns="http://www.w3.org/2000/svg" width="800" height="600">
  <title>X=t-sin(t);Y=1-cos(t):-2,2:</title>
  <rect width="800" height="600" fill="#ffffff"/>
  <g stroke="#d0d0d0" stroke-width="1">
    <line x1="-186.78" y1="540.00" x2="-186.78" y2="60.00"/>
    <line x1="106.61" y1="540.00" x2="106.61" y2="60.00"/>
    <line x1="400.00" y1="540.00" x2="400.00" y2="60.00"/>
    <line x1="693.39" y1="540.00" x2="693.39" y2="60.00"/>
    <line x1="986.78" y1="540.00" x2="986.78" y2="60.00"/>
    <line x1="80.00" y1="540.11" x2="720.00" y2="540.11"/>
    <line x1="80.00" y1="201.08" x2="720.00" y2="201.08"/>
    <line x1="80.00" y1="-137.94" x2="720.00" y2="-137.94"/>
  </g>
  <g stroke="#e8e8e8" stroke-width="0.5">
    <line x1="165.29" y1="540.00" x2="165.29" y2="60.00"/>
    <line x1="223.97" y1="540.00" x2="223.97" y2="60.00"/>
    <line x1="282.64" y1="540.00" x2="282.64" y2="60.00"/>
    <line x1="341.32" y1="540.00" x2="341.32" y2="60.00"/>
    <line x1="458.68" y1="540.00" x2="458.68" y2="60.00"/>
    <line x1="517.36" y1="540.00" x2="517.36" y2="60.00"/>
    <line x1="576.03" y1="540.00" x2="576.03" y2="60.00"/>
    <line x1="634.71" y1="540.00" x2="634.71" y2="60.00"/>
    <line x1="80.00" y1="472.30" x2="720.00" y2="472.30"/>
    <line x1="80.00" y1="404.50" x2="720.00" y2="404.50"/>
    <line x1="80.00" y1="336.69" x2="720.00" y2="336.69"/>
    <line x1="80.00" y1="268.89" x2="720.00" y2="268.89"/>
    <line x1="80.00" y1="133.28" x2="720.00" y2="133.28"/>
    <line x1="80.00" y1="65.47" x2="720.00" y2="65.47"/>
  </g>
  <g stroke="#808080" stroke-width="2">
    <line x1="80.00" y1="540.11" x2="720.00" y2="540.11"/>
  </g>
  <polyline fill="none" stroke="#0066cc" stroke-width="2" points="80.00,60.00 100.69,75.78 120.69,91.89 139.97,108.27 158.53,124.89 176.35,141.71 193.44,158.68 209.78,175.76 225.37,192.90 240.20,210.06 254.29,227.21 267.63,244.28 280.22,261.24 292.07,278.05 303.18,294.66 313.58,311.04 323.26,327.13 332.25,342.89 340.55,358.30 348.19,373.30 355.18,387.86 361.54,401.94 367.29,415.50 372.47,428.52 377.08,440.95 381.16,452.77 384.74,463.94 387.85,474.44 390.51,484.24 392.76,493.31 394.62,501.64 396.14,509.19 397.34,515.96 398.27,521.91 398.95,527.05 399.42,531.35 399.73,534.80 399.90,537.40 399.98,539.13 400.00,540.00 400.00,540.00 400.02,539.13 400.10,537.40 400.27,534.80 400.58,531.35 401.05,527.05 401.73,521.91 402.66,515.96 403.86,509.19 405.38,501.64 407.24,493.31 409.49,484.24 412.15,474.44 415.26,463.94 418.84,452.77 422.92,440.95 427.53,428.52 432.71,415.50 438.46,401.94 444.82,387.86 451.81,373.30 459.45,358.30 467.75,342.89 476.74,327.13 486.42,311.04 496.82,294.66 507.93,278.05 519.78,261.24 532.37,244.28 545.71,227.21 559.80,210.06 574.63,192.90 590.22,175.76 606.56,158.68 623.65,141.71 641.47,124.89 660.03,108.27 679.31,91.89 699.31,75.78 720.00,60.00 "/>
</svg>
