<?xml version="1.0" encoding="UTF-8"?>
<svg xmlns="http://www.w3.org/2000/svg" width="800" height="600">
  <title>X=t+sin(t);Y=1-cos(t):-2,2:</title>
  <rect width="800" height="600" fill="#ffffff"/>
  <g stroke="#d0d0d0" stroke-width="1">
    <line x1="70.02" y1="540.00" x2="70.02" y2="60.00"/>
    <line x1="180.02" y1="540.00" x2="180.02" y2="60.00"/>
    <line x1="290.01" y1="540.00" x2="290.01" y2="60.00"/>
    <line x1="400.00" y1="540.00" x2="400.00" y2="60.00"/>
    <line x1="509.99" y1="540.00" x2="509.99" y2="60.00"/>
    <line x1="619.98" y1="540.00" x2="619.98" y2="60.00"/>
    <line x1="729.98" y1="540.00" x2="729.98" y2="60.00"/>
    <line x1="80.00" y1="540.11" x2="720.00" y2="540.11"/>
    <line x1="80.00" y1="201.08" x2="720.00" y2="201.08"/>
    <line x1="80.00" y1="-137.94" x2="720.00" y2="-137.94"/>
  </g>
  <g stroke="#e8e8e8" stroke-width="0.5">
    <line x1="92.02" y1="540.00" x2="92.02" y2="60.00"/>
    <line x1="114.02" y1="540.00" x2="114.02" y2="60.00"/>
    <line x1="136.02" y1="540.00" x2="136.02" y2="60.00"/>
    <line x1="158.02" y1="540.00" x2="158.02" y2="60.00"/>
    <line x1="202.01" y1="540.00" x2="202.01" y2="60.00"/>
    <line x1="224.01" y1="540.00" x2="224.01" y2="60.00"/>
    <line x1="246.01" y1="540.00" x2="246.01" y2="60.00"/>
    <line x1="268.01" y1="540.00" x2="268.01" y2="60.00"/>
    <line x1="312.01" y1="540.00" x2="312.01" y2="60.00"/>
    <line x1="334.00" y1="540.00" x2="334.00" y2="60.00"/>
    <line x1="356.00" y1="540.00" x2="356.00" y2="60.00"/>
    <line x1="378.00" y1="540.00" x2="378.00" y2="60.00"/>
    <line x1="422.00" y1="540.00" x2="422.00" y2="60.00"/>
    <line x1="444.00" y1="540.00" x2="444.00" y2="60.00"/>
    <line x1="466.00" y1="540.00" x2="466.00" y2="60.00"/>
    <line x1="487.99" y1="540.00" x2="487.99" y2="60.00"/>
    <line x1="531.99" y1="540.00" x2="531.99" y2="60.00"/>
    <line x1="553.99" y1="540.00" x2="553.99" y2="60.00"/>
    <line x1="575.99" y1="540.00" x2="575.99" y2="60.00"/>
    <line x1="597.99" y1="540.00" x2="597.99" y2="60.00"/>
    <line x1="641.98" y1="540.00" x2="641.98" y2="60.00"/>
    <line x1="663.98" y1="540.00" x2="663.98" y2="60.00"/>
    <line x1="685.98" y1="540.00" x2="685.98" y2="60.00"/>
    <line x1="707.98" y1="540.00" x2="707.98" y2="60.00"/>
    <line x1="80.00" y1="472.30" x2="720.00" y2="472.30"/>
    <line x1="80.00" y1="404.50" x2="720.00" y2="404.50"/>
    <line x1="80.00" y1="336.69" x2="720.00" y2="336.69"/>
    <line x1="80.00" y1="268.89" x2="720.00" y2="268.89"/>
    <line x1="80.00" y1="133.28" x2="720.00" y2="133.28"/>
    <line x1="80.00" y1="65.47" x2="720.00" y2="65.47"/>
  </g>
  <g stroke="#808080" stroke-width="2">
    <line x1="80.00" y1="540.11" x2="720.00" y2="540.11"/>
  </g>
  <polyline fill="none" stroke="#0066cc" stroke-width="2" points="80.00,60.00 83.38,75.78 87.02,91.89 90.93,108.27 95.11,124.89 99.57,141.71 104.30,158.68 109.32,175.76 114.61,192.90 120.19,210.06 126.04,227.21 132.18,244.28 138.60,261.24 145.30,278.05 152.27,294.66 159.51,311.04 167.02,327.13 174.78,342.89 182.81,358.30 191.09,373.30 199.60,387.86 208.36,401.94 217.34,415.50 226.54,428.52 235.95,440.95 245.55,452.77 255.35,463.94 265.32,474.44 275.47,484.24 285.76,493.31 296.20,501.64 306.77,509.19 317.46,515.96 328.25,521.91 339.13,527.05 350.09,531.35 361.12,534.80 372.19,537.40 383.30,539.13 394.43,540.00 405.57,540.00 416.70,539.13 427.81,537.40 438.88,534.80 449.91,531.35 460.87,527.05 471.75,521.91 482.54,515.96 493.23,509.19 503.80,501.64 514.24,493.31 524.53,484.24 534.68,474.44 544.65,463.94 554.45,452.77 564.05,440.95 573.46,428.52 582.66,415.50 591.64,401.94 600.40,387.86 608.91,373.30 617.19,358.30 625.22,342.89 632.98,327.13 640.49,311.04 647.73,294.66 654.70,278.05 661.40,261.24 667.82,244.28 673.96,227.21 679.81,210.06 685.39,192.90 690.68,175.76 695.70,158.68 700.43,141.71 704.89,124.89 709.07,108.27 712.98,91.89 716.62,75.78 720.00,60.00 "/>
</svg>
