<?xml version="1.0" encoding="UTF-8"?>
<svg xmlns="http://www.w3.org/2000/svg" width="800" height="600">
  <title>X=3*t-5*sin(t);Y=3-5*cos(t):-3,3:</title>
  <rect width="800" height="600" fill="#ffffff"/>
  <g stroke="#d0d0d0" stroke-width="1">
    <line x1="52.78" y1="540.00" x2="52.78" y2="60.00"/>
    <line x1="91.36" y1="540.00" x2="91.36" y2="60.00"/>
    <line x1="129.94" y1="540.00" x2="129.94" y2="60.00"/>
    <line x1="168.52" y1="540.00" x2="168.52" y2="60.00"/>
    <line x1="207.10" y1="540.00" x2="207.10" y2="60.00"/>
    <line x1="245.68" y1="540.00" x2="245.68" y2="60.00"/>
    <line x1="284.26" y1="540.00" x2="284.26" y2="60.00"/>
    <line x1="322.84" y1="540.00" x2="322.84" y2="60.00"/>
    <line x1="361.42" y1="540.00" x2="361.42" y2="60.00"/>
    <line x1="400.00" y1="540.00" x2="400.00" y2="60.00"/>
    <line x1="438.58" y1="540.00" x2="438.58" y2="60.00"/>
    <line x1="477.16" y1="540.00" x2="477.16" y2="60.00"/>
    <line x1="515.74" y1="540.00" x2="515.74" y2="60.00"/>
    <line x1="554.32" y1="540.00" x2="554.32" y2="60.00"/>
    <line x1="592.90" y1="540.00" x2="592.90" y2="60.00"/>
    <line x1="631.48" y1="540.00" x2="631.48" y2="60.00"/>
    <line x1="670.06" y1="540.00" x2="670.06" y2="60.00"/>
    <line x1="708.64" y1="540.00" x2="708.64" y2="60.00"/>
    <line x1="747.22" y1="540.00" x2="747.22" y2="60.00"/>
    <line x1="80.00" y1="540.17" x2="720.00" y2="540.17"/>
    <line x1="80.00" y1="491.92" x2="720.00" y2="491.92"/>
    <line x1="80.00" y1="443.66" x2="720.00" y2="443.66"/>
    <line x1="80.00" y1="395.40" x2="720.00" y2="395.40"/>
    <line x1="80.00" y1="347.14" x2="720.00" y2="347.14"/>
    <line x1="80.00" y1="298.88" x2="720.00" y2="298.88"/>
    <line x1="80.00" y1="250.62" x2="720.00" y2="250.62"/>
    <line x1="80.00" y1="202.36" x2="720.00" y2="202.36"/>
    <line x1="80.00" y1="154.10" x2="720.00" y2="154.10"/>
    <line x1="80.00" y1="105.84" x2="720.00" y2="105.84"/>
    <line x1="80.00" y1="57.59" x2="720.00" y2="57.59"/>
  </g>
  <g stroke="#e8e8e8" stroke-width="0.5">
    <line x1="83.64" y1="540.00" x2="83.64" y2="60.00"/>
    <line x1="99.07" y1="540.00" x2="99.07" y2="60.00"/>
    <line x1="106.79" y1="540.00" x2="106.79" y2="60.00"/>
    <line x1="114.51" y1="540.00" x2="114.51" y2="60.00"/>
    <line x1="122.22" y1="540.00" x2="122.22" y2="60.00"/>
    <line x1="137.65" y1="540.00" x2="137.65" y2="60.00"/>
    <line x1="145.37" y1="540.00" x2="145.37" y2="60.00"/>
    <line x1="153.09" y1="540.00" x2="153.09" y2="60.00"/>
    <line x1="160.80" y1="540.00" x2="160.80" y2="60.00"/>
    <line x1="176.23" y1="540.00" x2="176.23" y2="60.00"/>
    <line x1="183.95" y1="540.00" x2="183.95" y2="60.00"/>
    <line x1="191.67" y1="540.00" x2="191.67" y2="60.00"/>
    <line x1="199.38" y1="540.00" x2="199.38" y2="60.00"/>
    <line x1="214.81" y1="540.00" x2="214.81" y2="60.00"/>
    <line x1="222.53" y1="540.00" x2="222.53" y2="60.00"/>
    <line x1="230.25" y1="540.00" x2="230.25" y2="60.00"/>
    <line x1="237.96" y1="540.00" x2="237.96" y2="60.00"/>
    <line x1="253.40" y1="540.00" x2="253.40" y2="60.00"/>
    <line x1="261.11" y1="540.00" x2="261.11" y2="60.00"/>
    <line x1="268.83" y1="540.00" x2="268.83" y2="60.00"/>
    <line x1="276.54" y1="540.00" x2="276.54" y2="60.00"/>
    <line x1="291.98" y1="540.00" x2="291.98" y2="60.00"/>
    <line x1="299.69" y1="540.00" x2="299.69" y2="60.00"/>
    <line x1="307.41" y1="540.00" x2="307.41" y2="60.00"/>
    <line x1="315.12" y1="540.00" x2="315.12" y2="60.00"/>
    <line x1="330.56" y1="540.00" x2="330.56" y2="60.00"/>
    <line x1="338.27" y1="540.00" x2="338.27" y2="60.00"/>
    <line x1="345.99" y1="540.00" x2="345.99" y2="60.00"/>
    <line x1="353.70" y1="540.00" x2="353.70" y2="60.00"/>
    <line x1="369.14" y1="540.00" x2="369.14" y2="60.00"/>
    <line x1="376.85" y1="540.00" x2="376.85" y2="60.00"/>
    <line x1="384.57" y1="540.00" x2="384.57" y2="60.00"/>
    <line x1="392.28" y1="540.00" x2="392.28" y2="60.00"/>
    <line x1="407.72" y1="540.00" x2="407.72" y2="60.00"/>
    <line x1="415.43" y1="540.00" x2="415.43" y2="60.00"/>
    <line x1="423.15" y1="540.00" x2="423.15" y2="60.00"/>
    <line x1="430.86" y1="540.00" x2="430.86" y2="60.00"/>
    <line x1="446.30" y1="540.00" x2="446.30" y2="60.00"/>
    <line x1="454.01" y1="540.00" x2="454.01" y2="60.00"/>
    <line x1="461.73" y1="540.00" x2="461.73" y2="60.00"/>
    <line x1="469.44" y1="540.00" x2="469.44" y2="60.00"/>
    <line x1="484.88" y1="540.00" x2="484.88" y2="60.00"/>
    <line x1="492.59" y1="540.00" x2="492.59" y2="60.00"/>
    <line x1="500.31" y1="540.00" x2="500.31" y2="60.00"/>
    <line x1="508.02" y1="540.00" x2="508.02" y2="60.00"/>
    <line x1="523.46" y1="540.00" x2="523.46" y2="60.00"/>
    <line x1="531.17" y1="540.00" x2="531.17" y2="60.00"/>
    <line x1="538.89" y1="540.00" x2="538.89" y2="60.00"/>
    <line x1="546.60" y1="540.00" x2="546.60" y2="60.00"/>
    <line x1="562.04" y1="540.00" x2="562.04" y2="60.00"/>
    <line x1="569.75" y1="540.00" x2="569.75" y2="60.00"/>
    <line x1="577.47" y1="540.00" x2="577.47" y2="60.00"/>
    <line x1="585.19" y1="540.00" x2="585.19" y2="60.00"/>
    <line x1="600.62" y1="540.00" x2="600.62" y2="60.00"/>
    <line x1="608.33" y1="540.00" x2="608.33" y2="60.00"/>
    <line x1="616.05" y1="540.00" x2="616.05" y2="60.00"/>
    <line x1="623.77" y1="540.00" x2="623.77" y2="60.00"/>
    <line x1="639.20" y1="540.00" x2="639.20" y2="60.00"/>
    <line x1="646.91" y1="540.00" x2="646.91" y2="60.00"/>
    <line x1="654.63" y1="540.00" x2="654.63" y2="60.00"/>
    <line x1="662.35" y1="540.00" x2="662.35" y2="60.00"/>
    <line x1="677.78" y1="540.00" x2="677.78" y2="60.00"/>
    <line x1="685.49" y1="540.00" x2="685.49" y2="60.00"/>
    <line x1="693.21" y1="540.00" x2="693.21" y2="60.00"/>
    <line x1="700.93" y1="540.00" x2="700.93" y2="60.00"/>
    <line x1="716.36" y1="540.00" x2="716.36" y2="60.00"/>
    <line x1="80.00" y1="530.52" x2="720.00" y2="530.52"/>
    <line x1="80.00" y1="520.87" x2="720.00" y2="520.87"/>
    <line x1="80.00" y1="511.22" x2="720.00" y2="511.22"/>
    <line x1="80.00" y1="501.57" x2="720.00" y2="501.57"/>
    <line x1="80.00" y1="482.26" x2="720.00" y2="482.26"/>
    <line x1="80.00" y1="472.61" x2="720.00" y2="472.61"/>
    <line x1="80.00" y1="462.96" x2="720.00" y2="462.96"/>
    <line x1="80.00" y1="453.31" x2="720.00" y2="453.31"/>
    <line x1="80.00" y1="434.00" x2="720.00" y2="434.00"/>
    <line x1="80.00" y1="424.35" x2="720.00" y2="424.35"/>
    <line x1="80.00" y1="414.70" x2="720.00" y2="414.70"/>
    <line x1="80.00" y1="405.05" x2="720.00" y2="405.05"/>
    <line x1="80.00" y1="385.75" x2="720.00" y2="385.75"/>
    <line x1="80.00" y1="376.09" x2="720.00" y2="376.09"/>
    <line x1="80.00" y1="366.44" x2="720.00" y2="366.44"/>
    <line x1="80.00" y1="356.79" x2="720.00" y2="356.79"/>
    <line x1="80.00" y1="337.49" x2="720.00" y2="337.49"/>
    <line x1="80.00" y1="327.83" x2="720.00" y2="327.83"/>
    <line x1="80.00" y1="318.18" x2="720.00" y2="318.18"/>
    <line x1="80.00" y1="308.53" x2="720.00" y2="308.53"/>
    <line x1="80.00" y1="289.23" x2="720.00" y2="289.23"/>
    <line x1="80.00" y1="279.58" x2="720.00" y2="279.58"/>
    <line x1="80.00" y1="269.92" x2="720.00" y2="269.92"/>
    <line x1="80.00" y1="260.27" x2="720.00" y2="260.27"/>
    <line x1="80.00" y1="240.97" x2="720.00" y2="240.97"/>
    <line x1="80.00" y1="231.32" x2="720.00" y2="231.32"/>
    <line x1="80.00" y1="221.67" x2="720.00" y2="221.67"/>
    <line x1="80.00" y1="212.01" x2="720.00" y2="212.01"/>
    <line x1="80.00" y1="192.71" x2="720.00" y2="192.71"/>
    <line x1="80.00" y1="183.06" x2="720.00" y2="183.06"/>
    <line x1="80.00" y1="173.41" x2="720.00" y2="173.41"/>
    <line x1="80.00" y1="163.75" x2="720.00" y2="163.75"/>
    <line x1="80.00" y1="144.45" x2="720.00" y2="144.45"/>
    <line x1="80.00" y1="134.80" x2="720.00" y2="134.80"/>
    <line x1="80.00" y1="125.15" x2="720.00" y2="125.15"/>
    <line x1="80.00" y1="115.50" x2="720.00" y2="115.50"/>
    <line x1="80.00" y1="96.19" x2="720.00" y2="96.19"/>
    <line x1="80.00" y1="86.54" x2="720.00" y2="86.54"/>
    <line x1="80.00" y1="76.89" x2="720.00" y2="76.89"/>
    <line x1="80.00" y1="67.24" x2="720.00" y2="67.24"/>
  </g>
  <g stroke="#808080" stroke-width="2">
    <line x1="400.00" y1="540.00" x2="400.00" y2="60.00"/>
    <line x1="80.00" y1="443.66" x2="720.00" y2="443.66"/>
  </g>
  <polyline fill="none" stroke="#0066cc" stroke-width="2" points="80.00,60.00 103.20,63.27 126.16,67.90 148.80,73.87 171.04,81.13 192.80,89.64 214.01,99.36 234.59,110.23 254.48,122.19 273.60,135.17 291.92,149.09 309.36,163.88 325.88,179.44 341.43,195.70 355.97,212.54 369.48,229.89 381.93,247.63 393.28,265.67 403.53,283.90 412.68,302.22 420.71,320.51 427.63,338.69 433.46,356.63 438.21,374.24 441.90,391.42 444.56,408.06 446.24,424.07 446.96,439.36 446.77,453.84 445.74,467.43 443.91,480.04 441.34,491.62 438.11,502.07 434.27,511.36 429.91,519.43 425.10,526.22 419.91,531.70 414.43,535.84 408.74,538.61 402.93,540.00 397.07,540.00 391.26,538.61 385.57,535.84 380.09,531.70 374.90,526.22 370.09,519.43 365.73,511.36 361.89,502.07 358.66,491.62 356.09,480.04 354.26,467.43 353.23,453.84 353.04,439.36 353.76,424.07 355.44,408.06 358.10,391.42 361.79,374.24 366.54,356.63 372.37,338.69 379.29,320.51 387.32,302.22 396.47,283.90 406.72,265.67 418.07,247.63 430.52,229.89 444.03,212.54 458.57,195.70 474.12,179.44 490.64,163.88 508.08,149.09 526.40,135.17 545.52,122.19 565.41,110.23 585.99,99.36 607.20,89.64 628.96,81.13 651.20,73.87 673.84,67.90 696.80,63.27 720.00,60.00 "/>
</svg>
