<?xml version="1.0" encoding="UTF-8"?>
<svg xmlns="http://www.w3.org/2000/svg" width="800" height="600">
  <title>X=4*t-3*sin(t);Y=4-3*cos(t):-3,3:</title>
  <rect width="800" height="600" fill="#ffffff"/>
  <g stroke="#d0d0d0" stroke-width="1">
    <line x1="68.30" y1="540.00" x2="68.30" y2="60.00"/>
    <line x1="95.94" y1="540.00" x2="95.94" y2="60.00"/>
    <line x1="123.58" y1="540.00" x2="123.58" y2="60.00"/>
    <line x1="151.22" y1="540.00" x2="151.22" y2="60.00"/>
    <line x1="178.87" y1="540.00" x2="178.87" y2="60.00"/>
    <line x1="206.51" y1="540.00" x2="206.51" y2="60.00"/>
    <line x1="234.15" y1="540.00" x2="234.15" y2="60.00"/>
    <line x1="261.79" y1="540.00" x2="261.79" y2="60.00"/>
    <line x1="289.43" y1="540.00" x2="289.43" y2="60.00"/>
    <line x1="317.07" y1="540.00" x2="317.07" y2="60.00"/>
    <line x1="344.72" y1="540.00" x2="344.72" y2="60.00"/>
    <line x1="372.36" y1="540.00" x2="372.36" y2="60.00"/>
    <line x1="400.00" y1="540.00" x2="400.00" y2="60.00"/>
    <line x1="427.64" y1="540.00" x2="427.64" y2="60.00"/>
    <line x1="455.28" y1="540.00" x2="455.28" y2="60.00"/>
    <line x1="482.93" y1="540.00" x2="482.93" y2="60.00"/>
    <line x1="510.57" y1="540.00" x2="510.57" y2="60.00"/>
    <line x1="538.21" y1="540.00" x2="538.21" y2="60.00"/>
    <line x1="565.85" y1="540.00" x2="565.85" y2="60.00"/>
    <line x1="593.49" y1="540.00" x2="593.49" y2="60.00"/>
    <line x1="621.13" y1="540.00" x2="621.13" y2="60.00"/>
    <line x1="648.78" y1="540.00" x2="648.78" y2="60.00"/>
    <line x1="676.42" y1="540.00" x2="676.42" y2="60.00"/>
    <line x1="704.06" y1="540.00" x2="704.06" y2="60.00"/>
    <line x1="731.70" y1="540.00" x2="731.70" y2="60.00"/>
    <line x1="80.00" y1="540.17" x2="720.00" y2="540.17"/>
    <line x1="80.00" y1="459.74" x2="720.00" y2="459.74"/>
    <line x1="80.00" y1="379.31" x2="720.00" y2="379.31"/>
    <line x1="80.00" y1="298.88" x2="720.00" y2="298.88"/>
    <line x1="80.00" y1="218.45" x2="720.00" y2="218.45"/>
    <line x1="80.00" y1="138.02" x2="720.00" y2="138.02"/>
    <line x1="80.00" y1="57.59" x2="720.00" y2="57.59"/>
  </g>
  <g stroke="#e8e8e8" stroke-width="0.5">
    <line x1="84.88" y1="540.00" x2="84.88" y2="60.00"/>
    <line x1="90.41" y1="540.00" x2="90.41" y2="60.00"/>
    <line x1="101.47" y1="540.00" x2="101.47" y2="60.00"/>
    <line x1="107.00" y1="540.00" x2="107.00" y2="60.00"/>
    <line x1="112.52" y1="540.00" x2="112.52" y2="60.00"/>
    <line x1="118.05" y1="540.00" x2="118.05" y2="60.00"/>
    <line x1="129.11" y1="540.00" x2="129.11" y2="60.00"/>
    <line x1="134.64" y1="540.00" x2="134.64" y2="60.00"/>
    <line x1="140.17" y1="540.00" x2="140.17" y2="60.00"/>
    <line x1="145.69" y1="540.00" x2="145.69" y2="60.00"/>
    <line x1="156.75" y1="540.00" x2="156.75" y2="60.00"/>
    <line x1="162.28" y1="540.00" x2="162.28" y2="60.00"/>
    <line x1="167.81" y1="540.00" x2="167.81" y2="60.00"/>
    <line x1="173.34" y1="540.00" x2="173.34" y2="60.00"/>
    <line x1="184.39" y1="540.00" x2="184.39" y2="60.00"/>
    <line x1="189.92" y1="540.00" x2="189.92" y2="60.00"/>
    <line x1="195.45" y1="540.00" x2="195.45" y2="60.00"/>
    <line x1="200.98" y1="540.00" x2="200.98" y2="60.00"/>
    <line x1="212.04" y1="540.00" x2="212.04" y2="60.00"/>
    <line x1="217.56" y1="540.00" x2="217.56" y2="60.00"/>
    <line x1="223.09" y1="540.00" x2="223.09" y2="60.00"/>
    <line x1="228.62" y1="540.00" x2="228.62" y2="60.00"/>
    <line x1="239.68" y1="540.00" x2="239.68" y2="60.00"/>
    <line x1="245.21" y1="540.00" x2="245.21" y2="60.00"/>
    <line x1="250.73" y1="540.00" x2="250.73" y2="60.00"/>
    <line x1="256.26" y1="540.00" x2="256.26" y2="60.00"/>
    <line x1="267.32" y1="540.00" x2="267.32" y2="60.00"/>
    <line x1="272.85" y1="540.00" x2="272.85" y2="60.00"/>
    <line x1="278.38" y1="540.00" x2="278.38" y2="60.00"/>
    <line x1="283.90" y1="540.00" x2="283.90" y2="60.00"/>
    <line x1="294.96" y1="540.00" x2="294.96" y2="60.00"/>
    <line x1="300.49" y1="540.00" x2="300.49" y2="60.00"/>
    <line x1="306.02" y1="540.00" x2="306.02" y2="60.00"/>
    <line x1="311.55" y1="540.00" x2="311.55" y2="60.00"/>
    <line x1="322.60" y1="540.00" x2="322.60" y2="60.00"/>
    <line x1="328.13" y1="540.00" x2="328.13" y2="60.00"/>
    <line x1="333.66" y1="540.00" x2="333.66" y2="60.00"/>
    <line x1="339.19" y1="540.00" x2="339.19" y2="60.00"/>
    <line x1="350.24" y1="540.00" x2="350.24" y2="60.00"/>
    <line x1="355.77" y1="540.00" x2="355.77" y2="60.00"/>
    <line x1="361.30" y1="540.00" x2="361.30" y2="60.00"/>
    <line x1="366.83" y1="540.00" x2="366.83" y2="60.00"/>
    <line x1="377.89" y1="540.00" x2="377.89" y2="60.00"/>
    <line x1="383.41" y1="540.00" x2="383.41" y2="60.00"/>
    <line x1="388.94" y1="540.00" x2="388.94" y2="60.00"/>
    <line x1="394.47" y1="540.00" x2="394.47" y2="60.00"/>
    <line x1="405.53" y1="540.00" x2="405.53" y2="60.00"/>
    <line x1="411.06" y1="540.00" x2="411.06" y2="60.00"/>
    <line x1="416.59" y1="540.00" x2="416.59" y2="60.00"/>
    <line x1="422.11" y1="540.00" x2="422.11" y2="60.00"/>
    <line x1="433.17" y1="540.00" x2="433.17" y2="60.00"/>
    <line x1="438.70" y1="540.00" x2="438.70" y2="60.00"/>
    <line x1="444.23" y1="540.00" x2="444.23" y2="60.00"/>
    <line x1="449.76" y1="540.00" x2="449.76" y2="60.00"/>
    <line x1="460.81" y1="540.00" x2="460.81" y2="60.00"/>
    <line x1="466.34" y1="540.00" x2="466.34" y2="60.00"/>
    <line x1="471.87" y1="540.00" x2="471.87" y2="60.00"/>
    <line x1="477.40" y1="540.00" x2="477.40" y2="60.00"/>
    <line x1="488.45" y1="540.00" x2="488.45" y2="60.00"/>
    <line x1="493.98" y1="540.00" x2="493.98" y2="60.00"/>
    <line x1="499.51" y1="540.00" x2="499.51" y2="60.00"/>
    <line x1="505.04" y1="540.00" x2="505.04" y2="60.00"/>
    <line x1="516.10" y1="540.00" x2="516.10" y2="60.00"/>
    <line x1="521.62" y1="540.00" x2="521.62" y2="60.00"/>
    <line x1="527.15" y1="540.00" x2="527.15" y2="60.00"/>
    <line x1="532.68" y1="540.00" x2="532.68" y2="60.00"/>
    <line x1="543.74" y1="540.00" x2="543.74" y2="60.00"/>
    <line x1="549.27" y1="540.00" x2="549.27" y2="60.00"/>
    <line x1="554.79" y1="540.00" x2="554.79" y2="60.00"/>
    <line x1="560.32" y1="540.00" x2="560.32" y2="60.00"/>
    <line x1="571.38" y1="540.00" x2="571.38" y2="60.00"/>
    <line x1="576.91" y1="540.00" x2="576.91" y2="60.00"/>
    <line x1="582.44" y1="540.00" x2="582.44" y2="60.00"/>
    <line x1="587.96" y1="540.00" x2="587.96" y2="60.00"/>
    <line x1="599.02" y1="540.00" x2="599.02" y2="60.00"/>
    <line x1="604.55" y1="540.00" x2="604.55" y2="60.00"/>
    <line x1="610.08" y1="540.00" x2="610.08" y2="60.00"/>
    <line x1="615.61" y1="540.00" x2="615.61" y2="60.00"/>
    <line x1="626.66" y1="540.00" x2="626.66" y2="60.00"/>
    <line x1="632.19" y1="540.00" x2="632.19" y2="60.00"/>
    <line x1="637.72" y1="540.00" x2="637.72" y2="60.00"/>
    <line x1="643.25" y1="540.00" x2="643.25" y2="60.00"/>
    <line x1="654.31" y1="540.00" x2="654.31" y2="60.00"/>
    <line x1="659.83" y1="540.00" x2="659.83" y2="60.00"/>
    <line x1="665.36" y1="540.00" x2="665.36" y2="60.00"/>
    <line x1="670.89" y1="540.00" x2="670.89" y2="60.00"/>
    <line x1="681.95" y1="540.00" x2="681.95" y2="60.00"/>
    <line x1="687.48" y1="540.00" x2="687.48" y2="60.00"/>
    <line x1="693.00" y1="540.00" x2="693.00" y2="60.00"/>
    <line x1="698.53" y1="540.00" x2="698.53" y2="60.00"/>
    <line x1="709.59" y1="540.00" x2="709.59" y2="60.00"/>
    <line x1="715.12" y1="540.00" x2="715.12" y2="60.00"/>
    <line x1="80.00" y1="524.09" x2="720.00" y2="524.09"/>
    <line x1="80.00" y1="508.00" x2="720.00" y2="508.00"/>
    <line x1="80.00" y1="491.92" x2="720.00" y2="491.92"/>
    <line x1="80.00" y1="475.83" x2="720.00" y2="475.83"/>
    <line x1="80.00" y1="443.66" x2="720.00" y2="443.66"/>
    <line x1="80.00" y1="427.57" x2="720.00" y2="427.57"/>
    <line x1="80.00" y1="411.48" x2="720.00" y2="411.48"/>
    <line x1="80.00" y1="395.40" x2="720.00" y2="395.40"/>
    <line x1="80.00" y1="363.22" x2="720.00" y2="363.22"/>
    <line x1="80.00" y1="347.14" x2="720.00" y2="347.14"/>
    <line x1="80.00" y1="331.05" x2="720.00" y2="331.05"/>
    <line x1="80.00" y1="314.97" x2="720.00" y2="314.97"/>
    <line x1="80.00" y1="282.79" x2="720.00" y2="282.79"/>
    <line x1="80.00" y1="266.71" x2="720.00" y2="266.71"/>
    <line x1="80.00" y1="250.62" x2="720.00" y2="250.62"/>
    <line x1="80.00" y1="234.53" x2="720.00" y2="234.53"/>
    <line x1="80.00" y1="202.36" x2="720.00" y2="202.36"/>
    <line x1="80.00" y1="186.28" x2="720.00" y2="186.28"/>
    <line x1="80.00" y1="170.19" x2="720.00" y2="170.19"/>
    <line x1="80.00" y1="154.10" x2="720.00" y2="154.10"/>
    <line x1="80.00" y1="121.93" x2="720.00" y2="121.93"/>
    <line x1="80.00" y1="105.84" x2="720.00" y2="105.84"/>
    <line x1="80.00" y1="89.76" x2="720.00" y2="89.76"/>
    <line x1="80.00" y1="73.67" x2="720.00" y2="73.67"/>
  </g>
  <g stroke="#808080" stroke-width="2">
    <line x1="80.00" y1="620.61" x2="720.00" y2="620.61"/>
  </g>
  <polyline fill="none" stroke="#0066cc" stroke-width="2" points="80.00,60.00 94.59,63.27 109.08,67.90 123.43,73.87 137.61,81.13 151.59,89.64 165.32,99.36 178.79,110.23 191.95,122.19 204.80,135.17 217.29,149.09 229.40,163.88 241.12,179.44 252.43,195.70 263.30,212.54 273.72,229.89 283.69,247.63 293.19,265.67 302.22,283.90 310.77,302.22 318.84,320.51 326.44,338.69 333.56,356.63 340.22,374.24 346.42,391.42 352.19,408.06 357.52,424.07 362.45,439.36 366.99,453.84 371.17,467.43 375.00,480.04 378.51,491.62 381.74,502.07 384.71,511.36 387.45,519.43 390.00,526.22 392.39,531.70 394.66,535.84 396.83,538.61 398.95,540.00 401.05,540.00 403.17,538.61 405.34,535.84 407.61,531.70 410.00,526.22 412.55,519.43 415.29,511.36 418.26,502.07 421.49,491.62 425.00,480.04 428.83,467.43 433.01,453.84 437.55,439.36 442.48,424.07 447.81,408.06 453.58,391.42 459.78,374.24 466.44,356.63 473.56,338.69 481.16,320.51 489.23,302.22 497.78,283.90 506.81,265.67 516.31,247.63 526.28,229.89 536.70,212.54 547.57,195.70 558.88,179.44 570.60,163.88 582.71,149.09 595.20,135.17 608.05,122.19 621.21,110.23 634.68,99.36 648.41,89.64 662.39,81.13 676.57,73.87 690.92,67.90 705.41,63.27 720.00,60.00 "/>
</svg>
