<?xml version="1.0" encoding="UTF-8"?>
<svg xmlns="http://www.w3.org/2000/svg" width="800" height="600">
  <title>X=5*cos(t)-cos(5*t);Y=5*sin(t)-sin(5*t)</title>
  <rect width="800" height="600" fill="#ffffff"/>
  <g stroke="#d0d0d0" stroke-width="1">
    <line x1="4.60" y1="540.00" x2="4.60" y2="60.00"/>
    <line x1="104.03" y1="540.00" x2="104.03" y2="60.00"/>
    <line x1="203.45" y1="540.00" x2="203.45" y2="60.00"/>
    <line x1="302.88" y1="540.00" x2="302.88" y2="60.00"/>
    <line x1="402.30" y1="540.00" x2="402.30" y2="60.00"/>
    <line x1="501.73" y1="540.00" x2="501.73" y2="60.00"/>
    <line x1="601.16" y1="540.00" x2="601.16" y2="60.00"/>
    <line x1="700.58" y1="540.00" x2="700.58" y2="60.00"/>
    <line x1="800.01" y1="540.00" x2="800.01" y2="60.00"/>
    <line x1="80.00" y1="540.00" x2="720.00" y2="540.00"/>
    <line x1="80.00" y1="447.60" x2="720.00" y2="447.60"/>
    <line x1="80.00" y1="355.21" x2="720.00" y2="355.21"/>
    <line x1="80.00" y1="262.81" x2="720.00" y2="262.81"/>
    <line x1="80.00" y1="170.42" x2="720.00" y2="170.42"/>
    <line x1="80.00" y1="78.02" x2="720.00" y2="78.02"/>
    <line x1="80.00" y1="-14.37" x2="720.00" y2="-14.37"/>
  </g>
  <g stroke="#e8e8e8" stroke-width="0.5">
    <line x1="84.14" y1="540.00" x2="84.14" y2="60.00"/>
    <line x1="123.91" y1="540.00" x2="123.91" y2="60.00"/>
    <line x1="143.80" y1="540.00" x2="143.80" y2="60.00"/>
    <line x1="163.68" y1="540.00" x2="163.68" y2="60.00"/>
    <line x1="183.57" y1="540.00" x2="183.57" y2="60.00"/>
    <line x1="223.34" y1="540.00" x2="223.34" y2="60.00"/>
    <line x1="243.22" y1="540.00" x2="243.22" y2="60.00"/>
    <line x1="263.11" y1="540.00" x2="263.11" y2="60.00"/>
    <line x1="282.99" y1="540.00" x2="282.99" y2="60.00"/>
    <line x1="322.76" y1="540.00" x2="322.76" y2="60.00"/>
    <line x1="342.65" y1="540.00" x2="342.65" y2="60.00"/>
    <line x1="362.53" y1="540.00" x2="362.53" y2="60.00"/>
    <line x1="382.42" y1="540.00" x2="382.42" y2="60.00"/>
    <line x1="422.19" y1="540.00" x2="422.19" y2="60.00"/>
    <line x1="442.07" y1="540.00" x2="442.07" y2="60.00"/>
    <line x1="461.96" y1="540.00" x2="461.96" y2="60.00"/>
    <line x1="481.85" y1="540.00" x2="481.85" y2="60.00"/>
    <line x1="521.62" y1="540.00" x2="521.62" y2="60.00"/>
    <line x1="541.50" y1="540.00" x2="541.50" y2="60.00"/>
    <line x1="561.39" y1="540.00" x2="561.39" y2="60.00"/>
    <line x1="581.27" y1="540.00" x2="581.27" y2="60.00"/>
    <line x1="621.04" y1="540.00" x2="621.04" y2="60.00"/>
    <line x1="640.93" y1="540.00" x2="640.93" y2="60.00"/>
    <line x1="660.81" y1="540.00" x2="660.81" y2="60.00"/>
    <line x1="680.70" y1="540.00" x2="680.70" y2="60.00"/>
    <line x1="720.47" y1="540.00" x2="720.47" y2="60.00"/>
    <line x1="80.00" y1="521.52" x2="720.00" y2="521.52"/>
    <line x1="80.00" y1="503.04" x2="720.00" y2="503.04"/>
    <line x1="80.00" y1="484.56" x2="720.00" y2="484.56"/>
    <line x1="80.00" y1="466.08" x2="720.00" y2="466.08"/>
    <line x1="80.00" y1="429.13" x2="720.00" y2="429.13"/>
    <line x1="80.00" y1="410.65" x2="720.00" y2="410.65"/>
    <line x1="80.00" y1="392.17" x2="720.00" y2="392.17"/>
    <line x1="80.00" y1="373.69" x2="720.00" y2="373.69"/>
    <line x1="80.00" y1="336.73" x2="720.00" y2="336.73"/>
    <line x1="80.00" y1="318.25" x2="720.00" y2="318.25"/>
    <line x1="80.00" y1="299.77" x2="720.00" y2="299.77"/>
    <line x1="80.00" y1="281.29" x2="720.00" y2="281.29"/>
    <line x1="80.00" y1="244.33" x2="720.00" y2="244.33"/>
    <line x1="80.00" y1="225.85" x2="720.00" y2="225.85"/>
    <line x1="80.00" y1="207.38" x2="720.00" y2="207.38"/>
    <line x1="80.00" y1="188.90" x2="720.00" y2="188.90"/>
    <line x1="80.00" y1="151.94" x2="720.00" y2="151.94"/>
    <line x1="80.00" y1="133.46" x2="720.00" y2="133.46"/>
    <line x1="80.00" y1="114.98" x2="720.00" y2="114.98"/>
    <line x1="80.00" y1="96.50" x2="720.00" y2="96.50"/>
    <line x1="80.00" y1="59.54" x2="720.00" y2="59.54"/>
  </g>
  <g stroke="#808080" stroke-width="2">
    <line x1="203.45" y1="540.00" x2="203.45" y2="60.00"/>
    <line x1="80.00" y1="540.00" x2="720.00" y2="540.00"/>
  </g>
  <polyline fill="none" stroke="#0066cc" stroke-width="2" points="601.16,540.00 601.79,539.97 603.69,539.76 606.81,539.20 611.08,538.11 616.44,536.33 622.76,533.72 629.91,530.13 637.76,525.45 646.14,519.57 654.88,512.42 663.79,503.93 672.67,494.07 681.33,482.82 689.57,470.20 697.19,456.22 704.00,440.96 709.83,424.48 714.49,406.90 717.83,388.32 719.70,368.88 720.00,348.74 718.61,328.06 715.46,307.03 710.50,285.82 703.69,264.62 695.04,243.63 684.56,223.05 672.30,203.05 658.33,183.83 642.76,165.55 625.69,148.38 607.27,132.46 587.66,117.92 567.02,104.87 545.53,93.41 523.41,83.59 500.84,75.47 478.04,69.06 455.21,64.37 432.56,61.36 410.29,60.00 388.58,60.20 367.63,61.88 347.59,64.93 328.61,69.20 310.82,74.57 294.34,80.86 279.23,87.91 265.58,95.55 253.40,103.58 242.72,111.83 233.52,120.11 225.76,128.24 219.38,136.04 214.28,143.37 210.37,150.05 207.51,155.96 205.56,160.98 204.36,165.00 203.73,167.95 203.49,169.77 203.45,170.42 203.43,169.88 203.21,168.17 202.63,165.33 201.49,161.40 199.61,156.47 196.84,150.64 193.03,144.02 188.05,136.75 181.79,128.98 174.16,120.87 165.10,112.60 154.56,104.34 142.52,96.28 129.00,88.60 114.03,81.49 97.67,75.12 80.00,69.66 "/>
</svg>
