<?xml version="1.0" encoding="UTF-8"?>
<svg xmlns="http://www.w3.org/2000/svg" width="800" height="600">
  <title>X=2*cos(t)+cos(2*t);Y=2*sin(t)-sin(2*t)</title>
  <rect width="800" height="600" fill="#ffffff"/>
  <g stroke="#d0d0d0" stroke-width="1">
    <line x1="6.66" y1="540.00" x2="6.66" y2="60.00"/>
    <line x1="149.33" y1="540.00" x2="149.33" y2="60.00"/>
    <line x1="292.00" y1="540.00" x2="292.00" y2="60.00"/>
    <line x1="434.66" y1="540.00" x2="434.66" y2="60.00"/>
    <line x1="577.33" y1="540.00" x2="577.33" y2="60.00"/>
    <line x1="720.00" y1="540.00" x2="720.00" y2="60.00"/>
    <line x1="80.00" y1="540.00" x2="720.00" y2="540.00"/>
    <line x1="80.00" y1="353.62" x2="720.00" y2="353.62"/>
    <line x1="80.00" y1="167.24" x2="720.00" y2="167.24"/>
    <line x1="80.00" y1="-19.14" x2="720.00" y2="-19.14"/>
  </g>
  <g stroke="#e8e8e8" stroke-width="0.5">
    <line x1="92.26" y1="540.00" x2="92.26" y2="60.00"/>
    <line x1="120.79" y1="540.00" x2="120.79" y2="60.00"/>
    <line x1="177.86" y1="540.00" x2="177.86" y2="60.00"/>
    <line x1="206.39" y1="540.00" x2="206.39" y2="60.00"/>
    <line x1="234.93" y1="540.00" x2="234.93" y2="60.00"/>
    <line x1="263.46" y1="540.00" x2="263.46" y2="60.00"/>
    <line x1="320.53" y1="540.00" x2="320.53" y2="60.00"/>
    <line x1="349.06" y1="540.00" x2="349.06" y2="60.00"/>
    <line x1="377.60" y1="540.00" x2="377.60" y2="60.00"/>
    <line x1="406.13" y1="540.00" x2="406.13" y2="60.00"/>
    <line x1="463.20" y1="540.00" x2="463.20" y2="60.00"/>
    <line x1="491.73" y1="540.00" x2="491.73" y2="60.00"/>
    <line x1="520.26" y1="540.00" x2="520.26" y2="60.00"/>
    <line x1="548.80" y1="540.00" x2="548.80" y2="60.00"/>
    <line x1="605.87" y1="540.00" x2="605.87" y2="60.00"/>
    <line x1="634.40" y1="540.00" x2="634.40" y2="60.00"/>
    <line x1="662.93" y1="540.00" x2="662.93" y2="60.00"/>
    <line x1="691.47" y1="540.00" x2="691.47" y2="60.00"/>
    <line x1="80.00" y1="502.72" x2="720.00" y2="502.72"/>
    <line x1="80.00" y1="465.45" x2="720.00" y2="465.45"/>
    <line x1="80.00" y1="428.17" x2="720.00" y2="428.17"/>
    <line x1="80.00" y1="390.90" x2="720.00" y2="390.90"/>
    <line x1="80.00" y1="316.35" x2="720.00" y2="316.35"/>
    <line x1="80.00" y1="279.07" x2="720.00" y2="279.07"/>
    <line x1="80.00" y1="241.79" x2="720.00" y2="241.79"/>
    <line x1="80.00" y1="204.52" x2="720.00" y2="204.52"/>
    <line x1="80.00" y1="129.97" x2="720.00" y2="129.97"/>
    <line x1="80.00" y1="92.69" x2="720.00" y2="92.69"/>
  </g>
  <g stroke="#808080" stroke-width="2">
    <line x1="292.00" y1="540.00" x2="292.00" y2="60.00"/>
    <line x1="80.00" y1="540.00" x2="720.00" y2="540.00"/>
  </g>
  <polyline fill="none" stroke="#0066cc" stroke-width="2" points="720.00,540.00 719.73,540.00 718.90,539.98 717.53,539.92 715.62,539.81 713.17,539.62 710.18,539.35 706.66,538.97 702.62,538.47 698.07,537.82 693.00,537.02 687.45,536.05 681.40,534.89 674.88,533.53 667.90,531.96 660.46,530.16 652.60,528.11 644.31,525.82 635.62,523.26 626.54,520.43 617.09,517.32 607.28,513.92 597.14,510.22 586.69,506.22 575.93,501.91 564.90,497.29 553.62,492.36 542.09,487.11 530.35,481.55 518.41,475.66 506.31,469.46 494.05,462.95 481.66,456.13 469.16,449.01 456.57,441.59 443.93,433.88 431.23,425.88 418.52,417.61 405.81,409.08 393.12,400.29 380.48,391.27 367.89,382.02 355.40,372.55 343.00,362.89 330.73,353.05 318.60,343.04 306.64,332.89 294.85,322.61 283.26,312.22 271.88,301.75 260.73,291.21 249.83,280.62 239.18,270.01 228.81,259.39 218.73,248.80 208.94,238.25 199.47,227.77 190.31,217.39 181.49,207.12 173.01,196.99 164.87,187.02 157.09,177.24 149.66,167.68 142.61,158.36 135.92,149.29 129.60,140.51 123.67,132.05 118.10,123.91 112.92,116.13 108.11,108.73 103.67,101.73 99.61,95.15 95.92,89.01 92.60,83.33 89.63,78.14 87.03,73.44 84.76,69.27 82.85,65.62 81.26,62.53 80.00,60.00 "/>
</svg>
