<?xml version="1.0" encoding="UTF-8"?>
<svg xmlns="http://www.w3.org/2000/svg" width="800" height="600">
  <title>X=cos(t)*cos(t)*cos(t);Y=sin(t)*sin(t)*sin(t)</title>
  <rect width="800" height="600" fill="#ffffff"/>
  <g stroke="#d0d0d0" stroke-width="1">
    <line x1="-473.95" y1="540.00" x2="-473.95" y2="60.00"/>
    <line x1="123.02" y1="540.00" x2="123.02" y2="60.00"/>
    <line x1="720.00" y1="540.00" x2="720.00" y2="60.00"/>
    <line x1="80.00" y1="540.00" x2="720.00" y2="540.00"/>
    <line x1="80.00" y1="60.00" x2="720.00" y2="60.00"/>
  </g>
  <g stroke="#e8e8e8" stroke-width="0.5">
    <line x1="242.42" y1="540.00" x2="242.42" y2="60.00"/>
    <line x1="361.81" y1="540.00" x2="361.81" y2="60.00"/>
    <line x1="481.21" y1="540.00" x2="481.21" y2="60.00"/>
    <line x1="600.60" y1="540.00" x2="600.60" y2="60.00"/>
    <line x1="80.00" y1="444.00" x2="720.00" y2="444.00"/>
    <line x1="80.00" y1="348.00" x2="720.00" y2="348.00"/>
    <line x1="80.00" y1="252.00" x2="720.00" y2="252.00"/>
    <line x1="80.00" y1="156.00" x2="720.00" y2="156.00"/>
  </g>
  <g stroke="#808080" stroke-width="2">
    <line x1="123.02" y1="540.00" x2="123.02" y2="60.00"/>
    <line x1="80.00" y1="540.00" x2="720.00" y2="540.00"/>
  </g>
  <polyline fill="none" stroke="#0066cc" stroke-width="2" points="720.00,540.00 719.43,539.99 717.71,539.94 714.85,539.79 710.87,539.50 705.79,539.03 699.61,538.34 692.39,537.37 684.14,536.09 674.90,534.47 664.71,532.46 653.63,530.03 641.69,527.15 628.95,523.79 615.46,519.93 601.29,515.55 586.48,510.62 571.12,505.14 555.26,499.09 538.97,492.46 522.31,485.25 505.35,477.46 488.17,469.10 470.84,460.17 453.41,450.69 435.96,440.67 418.56,430.13 401.27,419.09 384.16,407.59 367.28,395.65 350.69,383.30 334.46,370.59 318.63,357.56 303.25,344.23 288.38,330.67 274.05,316.92 260.30,303.02 247.16,289.03 234.66,275.00 222.84,260.99 211.70,247.04 201.27,233.22 191.55,219.58 182.55,206.18 174.27,193.06 166.71,180.29 159.86,167.92 153.70,155.99 148.22,144.57 143.39,133.70 139.18,123.43 135.58,113.80 132.53,104.85 130.01,96.63 127.97,89.16 126.36,82.49 125.14,76.64 124.26,71.64 123.66,67.51 123.30,64.27 123.11,61.93 123.03,60.50 123.02,60.00 123.01,60.42 122.95,61.76 122.77,64.01 122.43,67.17 121.85,71.22 121.00,76.14 119.82,81.91 118.25,88.51 116.25,95.90 113.77,104.06 110.77,112.94 107.22,122.51 103.07,132.72 98.30,143.54 92.88,154.91 86.79,166.79 80.00,179.12 "/>
</svg>
