<?xml version="1.0" encoding="UTF-8"?>
<svg xmlns="http://www.w3.org/2000/svg" width="800" height="600">
  <title>X=5*cos(t)+5*t*sin(t);Y=5*sin(t)-5*t*cos(t)</title>
  <rect width="800" height="600" fill="#ffffff"/>
  <g stroke="#d0d0d0" stroke-width="1">
    <line x1="80.00" y1="540.00" x2="80.00" y2="60.00"/>
    <line x1="304.25" y1="540.00" x2="304.25" y2="60.00"/>
    <line x1="528.50" y1="540.00" x2="528.50" y2="60.00"/>
    <line x1="752.75" y1="540.00" x2="752.75" y2="60.00"/>
    <line x1="80.00" y1="540.00" x2="720.00" y2="540.00"/>
    <line x1="80.00" y1="484.88" x2="720.00" y2="484.88"/>
    <line x1="80.00" y1="429.76" x2="720.00" y2="429.76"/>
    <line x1="80.00" y1="374.63" x2="720.00" y2="374.63"/>
    <line x1="80.00" y1="319.51" x2="720.00" y2="319.51"/>
    <line x1="80.00" y1="264.39" x2="720.00" y2="264.39"/>
    <line x1="80.00" y1="209.27" x2="720.00" y2="209.27"/>
    <line x1="80.00" y1="154.15" x2="720.00" y2="154.15"/>
    <line x1="80.00" y1="99.02" x2="720.00" y2="99.02"/>
    <line x1="80.00" y1="43.90" x2="720.00" y2="43.90"/>
  </g>
  <g stroke="#e8e8e8" stroke-width="0.5">
    <line x1="124.85" y1="540.00" x2="124.85" y2="60.00"/>
    <line x1="169.70" y1="540.00" x2="169.70" y2="60.00"/>
    <line x1="214.55" y1="540.00" x2="214.55" y2="60.00"/>
    <line x1="259.40" y1="540.00" x2="259.40" y2="60.00"/>
    <line x1="349.10" y1="540.00" x2="349.10" y2="60.00"/>
    <line x1="393.95" y1="540.00" x2="393.95" y2="60.00"/>
    <line x1="438.80" y1="540.00" x2="438.80" y2="60.00"/>
    <line x1="483.65" y1="540.00" x2="483.65" y2="60.00"/>
    <line x1="573.35" y1="540.00" x2="573.35" y2="60.00"/>
    <line x1="618.20" y1="540.00" x2="618.20" y2="60.00"/>
    <line x1="663.05" y1="540.00" x2="663.05" y2="60.00"/>
    <line x1="707.90" y1="540.00" x2="707.90" y2="60.00"/>
    <line x1="80.00" y1="528.98" x2="720.00" y2="528.98"/>
    <line x1="80.00" y1="517.95" x2="720.00" y2="517.95"/>
    <line x1="80.00" y1="506.93" x2="720.00" y2="506.93"/>
    <line x1="80.00" y1="495.90" x2="720.00" y2="495.90"/>
    <line x1="80.00" y1="473.85" x2="720.00" y2="473.85"/>
    <line x1="80.00" y1="462.83" x2="720.00" y2="462.83"/>
    <line x1="80.00" y1="451.80" x2="720.00" y2="451.80"/>
    <line x1="80.00" y1="440.78" x2="720.00" y2="440.78"/>
    <line x1="80.00" y1="418.73" x2="720.00" y2="418.73"/>
    <line x1="80.00" y1="407.71" x2="720.00" y2="407.71"/>
    <line x1="80.00" y1="396.68" x2="720.00" y2="396.68"/>
    <line x1="80.00" y1="385.66" x2="720.00" y2="385.66"/>
    <line x1="80.00" y1="363.61" x2="720.00" y2="363.61"/>
    <line x1="80.00" y1="352.59" x2="720.00" y2="352.59"/>
    <line x1="80.00" y1="341.56" x2="720.00" y2="341.56"/>
    <line x1="80.00" y1="330.54" x2="720.00" y2="330.54"/>
    <line x1="80.00" y1="308.49" x2="720.00" y2="308.49"/>
    <line x1="80.00" y1="297.46" x2="720.00" y2="297.46"/>
    <line x1="80.00" y1="286.44" x2="720.00" y2="286.44"/>
    <line x1="80.00" y1="275.41" x2="720.00" y2="275.41"/>
    <line x1="80.00" y1="253.37" x2="720.00" y2="253.37"/>
    <line x1="80.00" y1="242.34" x2="720.00" y2="242.34"/>
    <line x1="80.00" y1="231.32" x2="720.00" y2="231.32"/>
    <line x1="80.00" y1="220.29" x2="720.00" y2="220.29"/>
    <line x1="80.00" y1="198.24" x2="720.00" y2="198.24"/>
    <line x1="80.00" y1="187.22" x2="720.00" y2="187.22"/>
    <line x1="80.00" y1="176.19" x2="720.00" y2="176.19"/>
    <line x1="80.00" y1="165.17" x2="720.00" y2="165.17"/>
    <line x1="80.00" y1="143.12" x2="720.00" y2="143.12"/>
    <line x1="80.00" y1="132.10" x2="720.00" y2="132.10"/>
    <line x1="80.00" y1="121.07" x2="720.00" y2="121.07"/>
    <line x1="80.00" y1="110.05" x2="720.00" y2="110.05"/>
    <line x1="80.00" y1="88.00" x2="720.00" y2="88.00"/>
    <line x1="80.00" y1="76.98" x2="720.00" y2="76.98"/>
    <line x1="80.00" y1="65.95" x2="720.00" y2="65.95"/>
  </g>
  <g stroke="#808080" stroke-width="2">
    <line x1="-1041.24" y1="540.00" x2="-1041.24" y2="60.00"/>
  </g>
  <polyline fill="none" stroke="#0066cc" stroke-width="2" points="80.00,540.00 80.36,540.00 81.44,539.99 83.23,539.96 85.73,539.90 88.95,539.81 92.86,539.68 97.47,539.49 102.76,539.24 108.73,538.92 115.36,538.52 122.64,538.03 130.55,537.45 139.09,536.76 148.23,535.96 157.95,535.04 168.25,533.99 179.08,532.81 190.44,531.49 202.31,530.01 214.64,528.38 227.44,526.58 240.65,524.61 254.27,522.47 268.25,520.14 282.58,517.63 297.21,514.92 312.13,512.01 327.29,508.89 342.67,505.57 358.22,502.03 373.92,498.27 389.73,494.29 405.62,490.08 421.54,485.64 437.46,480.97 453.34,476.06 469.15,470.91 484.83,465.53 500.37,459.90 515.70,454.03 530.80,447.91 545.62,441.55 560.12,434.94 574.27,428.09 588.01,420.99 601.31,413.65 614.12,406.07 626.41,398.24 638.12,390.17 649.23,381.86 659.69,373.32 669.45,364.55 678.48,355.54 686.73,346.31 694.17,336.86 700.74,327.19 706.43,317.31 711.17,307.22 714.94,296.93 717.69,286.44 719.39,275.76 720.00,264.90 719.48,253.86 717.80,242.65 714.92,231.28 710.81,219.75 705.43,208.08 698.76,196.27 690.75,184.33 681.38,172.27 670.62,160.11 658.44,147.84 644.81,135.48 629.70,123.03 613.10,110.52 594.98,97.95 575.31,85.34 554.07,72.68 531.24,60.00 "/>
</svg>
