<?xml version="1.0" encoding="UTF-8"?>
<svg xmlns="http://www.w3.org/2000/svg" width="800" height="600">
  <title>R=(2/cos(t))+3:-1.4,1.4:</title>
  <rect width="800" height="600" fill="#ffffff"/>
  <g stroke="#d0d0d0" stroke-width="1">
    <line x1="79.84" y1="540.00" x2="79.84" y2="60.00"/>
    <line x1="186.61" y1="540.00" x2="186.61" y2="60.00"/>
    <line x1="293.39" y1="540.00" x2="293.39" y2="60.00"/>
    <line x1="400.17" y1="540.00" x2="400.17" y2="60.00"/>
    <line x1="506.94" y1="540.00" x2="506.94" y2="60.00"/>
    <line x1="613.72" y1="540.00" x2="613.72" y2="60.00"/>
    <line x1="720.50" y1="540.00" x2="720.50" y2="60.00"/>
    <line x1="80.00" y1="541.72" x2="720.00" y2="541.72"/>
    <line x1="80.00" y1="536.10" x2="720.00" y2="536.10"/>
    <line x1="80.00" y1="530.47" x2="720.00" y2="530.47"/>
    <line x1="80.00" y1="524.85" x2="720.00" y2="524.85"/>
    <line x1="80.00" y1="519.23" x2="720.00" y2="519.23"/>
    <line x1="80.00" y1="513.61" x2="720.00" y2="513.61"/>
    <line x1="80.00" y1="507.99" x2="720.00" y2="507.99"/>
    <line x1="80.00" y1="502.37" x2="720.00" y2="502.37"/>
    <line x1="80.00" y1="496.75" x2="720.00" y2="496.75"/>
    <line x1="80.00" y1="491.12" x2="720.00" y2="491.12"/>
    <line x1="80.00" y1="485.50" x2="720.00" y2="485.50"/>
    <line x1="80.00" y1="479.88" x2="720.00" y2="479.88"/>
    <line x1="80.00" y1="474.26" x2="720.00" y2="474.26"/>
    <line x1="80.00" y1="468.64" x2="720.00" y2="468.64"/>
    <line x1="80.00" y1="463.02" x2="720.00" y2="463.02"/>
    <line x1="80.00" y1="457.40" x2="720.00" y2="457.40"/>
    <line x1="80.00" y1="451.78" x2="720.00" y2="451.78"/>
    <line x1="80.00" y1="446.15" x2="720.00" y2="446.15"/>
    <line x1="80.00" y1="440.53" x2="720.00" y2="440.53"/>
    <line x1="80.00" y1="434.91" x2="720.00" y2="434.91"/>
    <line x1="80.00" y1="429.29" x2="720.00" y2="429.29"/>
    <line x1="80.00" y1="423.67" x2="720.00" y2="423.67"/>
    <line x1="80.00" y1="418.05" x2="720.00" y2="418.05"/>
    <line x1="80.00" y1="412.43" x2="720.00" y2="412.43"/>
    <line x1="80.00" y1="406.81" x2="720.00" y2="406.81"/>
    <line x1="80.00" y1="401.18" x2="720.00" y2="401.18"/>
    <line x1="80.00" y1="395.56" x2="720.00" y2="395.56"/>
    <line x1="80.00" y1="389.94" x2="720.00" y2="389.94"/>
    <line x1="80.00" y1="384.32" x2="720.00" y2="384.32"/>
    <line x1="80.00" y1="378.70" x2="720.00" y2="378.70"/>
    <line x1="80.00" y1="373.08" x2="720.00" y2="373.08"/>
    <line x1="80.00" y1="367.46" x2="720.00" y2="367.46"/>
    <line x1="80.00" y1="361.83" x2="720.00" y2="361.83"/>
    <line x1="80.00" y1="356.21" x2="720.00" y2="356.21"/>
    <line x1="80.00" y1="350.59" x2="720.00" y2="350.59"/>
    <line x1="80.00" y1="344.97" x2="720.00" y2="344.97"/>
    <line x1="80.00" y1="339.35" x2="720.00" y2="339.35"/>
    <line x1="80.00" y1="333.73" x2="720.00" y2="333.73"/>
    <line x1="80.00" y1="328.11" x2="720.00" y2="328.11"/>
    <line x1="80.00" y1="322.49" x2="720.00" y2="322.49"/>
    <line x1="80.00" y1="316.86" x2="720.00" y2="316.86"/>
    <line x1="80.00" y1="311.24" x2="720.00" y2="311.24"/>
    <line x1="80.00" y1="305.62" x2="720.00" y2="305.62"/>
    <line x1="80.00" y1="300.00" x2="720.00" y2="300.00"/>
    <line x1="80.00" y1="294.38" x2="720.00" y2="294.38"/>
    <line x1="80.00" y1="288.76" x2="720.00" y2="288.76"/>
    <line x1="80.00" y1="283.14" x2="720.00" y2="283.14"/>
    <line x1="80.00" y1="277.51" x2="720.00" y2="277.51"/>
    <line x1="80.00" y1="271.89" x2="720.00" y2="271.89"/>
    <line x1="80.00" y1="266.27" x2="720.00" y2="266.27"/>
    <line x1="80.00" y1="260.65" x2="720.00" y2="260.65"/>
    <line x1="80.00" y1="255.03" x2="720.00" y2="255.03"/>
    <line x1="80.00" y1="249.41" x2="720.00" y2="249.41"/>
    <line x1="80.00" y1="243.79" x2="720.00" y2="243.79"/>
    <line x1="80.00" y1="238.17" x2="720.00" y2="238.17"/>
    <line x1="80.00" y1="232.54" x2="720.00" y2="232.54"/>
    <line x1="80.00" y1="226.92" x2="720.00" y2="226.92"/>
    <line x1="80.00" y1="221.30" x2="720.00" y2="221.30"/>
    <line x1="80.00" y1="215.68" x2="720.00" y2="215.68"/>
    <line x1="80.00" y1="210.06" x2="720.00" y2="210.06"/>
    <line x1="80.00" y1="204.44" x2="720.00" y2="204.44"/>
    <line x1="80.00" y1="198.82" x2="720.00" y2="198.82"/>
    <line x1="80.00" y1="193.19" x2="720.00" y2="193.19"/>
    <line x1="80.00" y1="187.57" x2="720.00" y2="187.57"/>
    <line x1="80.00" y1="181.95" x2="720.00" y2="181.95"/>
    <line x1="80.00" y1="176.33" x2="720.00" y2="176.33"/>
    <line x1="80.00" y1="170.71" x2="720.00" y2="170.71"/>
    <line x1="80.00" y1="165.09" x2="720.00" y2="165.09"/>
    <line x1="80.00" y1="159.47" x2="720.00" y2="159.47"/>
    <line x1="80.00" y1="153.85" x2="720.00" y2="153.85"/>
    <line x1="80.00" y1="148.22" x2="720.00" y2="148.22"/>
    <line x1="80.00" y1="142.60" x2="720.00" y2="142.60"/>
    <line x1="80.00" y1="136.98" x2="720.00" y2="136.98"/>
    <line x1="80.00" y1="131.36" x2="720.00" y2="131.36"/>
    <line x1="80.00" y1="125.74" x2="720.00" y2="125.74"/>
    <line x1="80.00" y1="120.12" x2="720.00" y2="120.12"/>
    <line x1="80.00" y1="114.50" x2="720.00" y2="114.50"/>
    <line x1="80.00" y1="108.88" x2="720.00" y2="108.88"/>
    <line x1="80.00" y1="103.25" x2="720.00" y2="103.25"/>
    <line x1="80.00" y1="97.63" x2="720.00" y2="97.63"/>
    <line x1="80.00" y1="92.01" x2="720.00" y2="92.01"/>
    <line x1="80.00" y1="86.39" x2="720.00" y2="86.39"/>
    <line x1="80.00" y1="80.77" x2="720.00" y2="80.77"/>
    <line x1="80.00" y1="75.15" x2="720.00" y2="75.15"/>
    <line x1="80.00" y1="69.53" x2="720.00" y2="69.53"/>
    <line x1="80.00" y1="63.90" x2="720.00" y2="63.90"/>
    <line x1="80.00" y1="58.28" x2="720.00" y2="58.28"/>
  </g>
  <g stroke="#e8e8e8" stroke-width="0.5">
    <line x1="101.19" y1="540.00" x2="101.19" y2="60.00"/>
    <line x1="122.55" y1="540.00" x2="122.55" y2="60.00"/>
    <line x1="143.90" y1="540.00" x2="143.90" y2="60.00"/>
    <line x1="165.26" y1="540.00" x2="165.26" y2="60.00"/>
    <line x1="207.97" y1="540.00" x2="207.97" y2="60.00"/>
    <line x1="229.32" y1="540.00" x2="229.32" y2="60.00"/>
    <line x1="250.68" y1="540.00" x2="250.68" y2="60.00"/>
    <line x1="272.04" y1="540.00" x2="272.04" y2="60.00"/>
    <line x1="314.75" y1="540.00" x2="314.75" y2="60.00"/>
    <line x1="336.10" y1="540.00" x2="336.10" y2="60.00"/>
    <line x1="357.46" y1="540.00" x2="357.46" y2="60.00"/>
    <line x1="378.81" y1="540.00" x2="378.81" y2="60.00"/>
    <line x1="421.52" y1="540.00" x2="421.52" y2="60.00"/>
    <line x1="442.88" y1="540.00" x2="442.88" y2="60.00"/>
    <line x1="464.23" y1="540.00" x2="464.23" y2="60.00"/>
    <line x1="485.59" y1="540.00" x2="485.59" y2="60.00"/>
    <line x1="528.30" y1="540.00" x2="528.30" y2="60.00"/>
    <line x1="549.65" y1="540.00" x2="549.65" y2="60.00"/>
    <line x1="571.01" y1="540.00" x2="571.01" y2="60.00"/>
    <line x1="592.36" y1="540.00" x2="592.36" y2="60.00"/>
    <line x1="635.08" y1="540.00" x2="635.08" y2="60.00"/>
    <line x1="656.43" y1="540.00" x2="656.43" y2="60.00"/>
    <line x1="677.79" y1="540.00" x2="677.79" y2="60.00"/>
    <line x1="699.14" y1="540.00" x2="699.14" y2="60.00"/>
    <line x1="80.00" y1="539.47" x2="720.00" y2="539.47"/>
    <line x1="80.00" y1="538.34" x2="720.00" y2="538.34"/>
    <line x1="80.00" y1="537.22" x2="720.00" y2="537.22"/>
    <line x1="80.00" y1="534.97" x2="720.00" y2="534.97"/>
    <line x1="80.00" y1="533.85" x2="720.00" y2="533.85"/>
    <line x1="80.00" y1="532.72" x2="720.00" y2="532.72"/>
    <line x1="80.00" y1="531.60" x2="720.00" y2="531.60"/>
    <line x1="80.00" y1="529.35" x2="720.00" y2="529.35"/>
    <line x1="80.00" y1="528.23" x2="720.00" y2="528.23"/>
    <line x1="80.00" y1="527.10" x2="720.00" y2="527.10"/>
    <line x1="80.00" y1="525.98" x2="720.00" y2="525.98"/>
    <line x1="80.00" y1="523.73" x2="720.00" y2="523.73"/>
    <line x1="80.00" y1="522.60" x2="720.00" y2="522.60"/>
    <line x1="80.00" y1="521.48" x2="720.00" y2="521.48"/>
    <line x1="80.00" y1="520.36" x2="720.00" y2="520.36"/>
    <line x1="80.00" y1="518.11" x2="720.00" y2="518.11"/>
    <line x1="80.00" y1="516.98" x2="720.00" y2="516.98"/>
    <line x1="80.00" y1="515.86" x2="720.00" y2="515.86"/>
    <line x1="80.00" y1="514.73" x2="720.00" y2="514.73"/>
    <line x1="80.00" y1="512.49" x2="720.00" y2="512.49"/>
    <line x1="80.00" y1="511.36" x2="720.00" y2="511.36"/>
    <line x1="80.00" y1="510.24" x2="720.00" y2="510.24"/>
    <line x1="80.00" y1="509.11" x2="720.00" y2="509.11"/>
    <line x1="80.00" y1="506.86" x2="720.00" y2="506.86"/>
    <line x1="80.00" y1="505.74" x2="720.00" y2="505.74"/>
    <line x1="80.00" y1="504.62" x2="720.00" y2="504.62"/>
    <line x1="80.00" y1="503.49" x2="720.00" y2="503.49"/>
    <line x1="80.00" y1="501.24" x2="720.00" y2="501.24"/>
    <line x1="80.00" y1="500.12" x2="720.00" y2="500.12"/>
    <line x1="80.00" y1="498.99" x2="720.00" y2="498.99"/>
    <line x1="80.00" y1="497.87" x2="720.00" y2="497.87"/>
    <line x1="80.00" y1="495.62" x2="720.00" y2="495.62"/>
    <line x1="80.00" y1="494.50" x2="720.00" y2="494.50"/>
    <line x1="80.00" y1="493.37" x2="720.00" y2="493.37"/>
    <line x1="80.00" y1="492.25" x2="720.00" y2="492.25"/>
    <line x1="80.00" y1="490.00" x2="720.00" y2="490.00"/>
    <line x1="80.00" y1="488.88" x2="720.00" y2="488.88"/>
    <line x1="80.00" y1="487.75" x2="720.00" y2="487.75"/>
    <line x1="80.00" y1="486.63" x2="720.00" y2="486.63"/>
    <line x1="80.00" y1="484.38" x2="720.00" y2="484.38"/>
    <line x1="80.00" y1="483.26" x2="720.00" y2="483.26"/>
    <line x1="80.00" y1="482.13" x2="720.00" y2="482.13"/>
    <line x1="80.00" y1="481.01" x2="720.00" y2="481.01"/>
    <line x1="80.00" y1="478.76" x2="720.00" y2="478.76"/>
    <line x1="80.00" y1="477.63" x2="720.00" y2="477.63"/>
    <line x1="80.00" y1="476.51" x2="720.00" y2="476.51"/>
    <line x1="80.00" y1="475.39" x2="720.00" y2="475.39"/>
    <line x1="80.00" y1="473.14" x2="720.00" y2="473.14"/>
    <line x1="80.00" y1="472.01" x2="720.00" y2="472.01"/>
    <line x1="80.00" y1="470.89" x2="720.00" y2="470.89"/>
    <line x1="80.00" y1="469.76" x2="720.00" y2="469.76"/>
    <line x1="80.00" y1="467.52" x2="720.00" y2="467.52"/>
    <line x1="80.00" y1="466.39" x2="720.00" y2="466.39"/>
    <line x1="80.00" y1="465.27" x2="720.00" y2="465.27"/>
    <line x1="80.00" y1="464.14" x2="720.00" y2="464.14"/>
    <line x1="80.00" y1="461.89" x2="720.00" y2="461.89"/>
    <line x1="80.00" y1="460.77" x2="720.00" y2="460.77"/>
    <line x1="80.00" y1="459.65" x2="720.00" y2="459.65"/>
    <line x1="80.00" y1="458.52" x2="720.00" y2="458.52"/>
    <line x1="80.00" y1="456.27" x2="720.00" y2="456.27"/>
    <line x1="80.00" y1="455.15" x2="720.00" y2="455.15"/>
    <line x1="80.00" y1="454.02" x2="720.00" y2="454.02"/>
    <line x1="80.00" y1="452.90" x2="720.00" y2="452.90"/>
    <line x1="80.00" y1="450.65" x2="720.00" y2="450.65"/>
    <line x1="80.00" y1="449.53" x2="720.00" y2="449.53"/>
    <line x1="80.00" y1="448.40" x2="720.00" y2="448.40"/>
    <line x1="80.00" y1="447.28" x2="720.00" y2="447.28"/>
    <line x1="80.00" y1="445.03" x2="720.00" y2="445.03"/>
    <line x1="80.00" y1="443.91" x2="720.00" y2="443.91"/>
    <line x1="80.00" y1="442.78" x2="720.00" y2="442.78"/>
    <line x1="80.00" y1="441.66" x2="720.00" y2="441.66"/>
    <line x1="80.00" y1="439.41" x2="720.00" y2="439.41"/>
    <line x1="80.00" y1="438.28" x2="720.00" y2="438.28"/>
    <line x1="80.00" y1="437.16" x2="720.00" y2="437.16"/>
    <line x1="80.00" y1="436.04" x2="720.00" y2="436.04"/>
    <line x1="80.00" y1="433.79" x2="720.00" y2="433.79"/>
    <line x1="80.00" y1="432.66" x2="720.00" y2="432.66"/>
    <line x1="80.00" y1="431.54" x2="720.00" y2="431.54"/>
    <line x1="80.00" y1="430.41" x2="720.00" y2="430.41"/>
    <line x1="80.00" y1="428.17" x2="720.00" y2="428.17"/>
    <line x1="80.00" y1="427.04" x2="720.00" y2="427.04"/>
    <line x1="80.00" y1="425.92" x2="720.00" y2="425.92"/>
    <line x1="80.00" y1="424.79" x2="720.00" y2="424.79"/>
    <line x1="80.00" y1="422.54" x2="720.00" y2="422.54"/>
    <line x1="80.00" y1="421.42" x2="720.00" y2="421.42"/>
    <line x1="80.00" y1="420.30" x2="720.00" y2="420.30"/>
    <line x1="80.00" y1="419.17" x2="720.00" y2="419.17"/>
    <line x1="80.00" y1="416.92" x2="720.00" y2="416.92"/>
    <line x1="80.00" y1="415.80" x2="720.00" y2="415.80"/>
    <line x1="80.00" y1="414.67" x2="720.00" y2="414.67"/>
    <line x1="80.00" y1="413.55" x2="720.00" y2="413.55"/>
    <line x1="80.00" y1="411.30" x2="720.00" y2="411.30"/>
    <line x1="80.00" y1="410.18" x2="720.00" y2="410.18"/>
    <line x1="80.00" y1="409.05" x2="720.00" y2="409.05"/>
    <line x1="80.00" y1="407.93" x2="720.00" y2="407.93"/>
    <line x1="80.00" y1="405.68" x2="720.00" y2="405.68"/>
    <line x1="80.00" y1="404.56" x2="720.00" y2="404.56"/>
    <line x1="80.00" y1="403.43" x2="720.00" y2="403.43"/>
    <line x1="80.00" y1="402.31" x2="720.00" y2="402.31"/>
    <line x1="80.00" y1="400.06" x2="720.00" y2="400.06"/>
    <line x1="80.00" y1="398.94" x2="720.00" y2="398.94"/>
    <line x1="80.00" y1="397.81" x2="720.00" y2="397.81"/>
    <line x1="80.00" y1="396.69" x2="720.00" y2="396.69"/>
    <line x1="80.00" y1="394.44" x2="720.00" y2="394.44"/>
    <line x1="80.00" y1="393.31" x2="720.00" y2="393.31"/>
    <line x1="80.00" y1="392.19" x2="720.00" y2="392.19"/>
    <line x1="80.00" y1="391.07" x2="720.00" y2="391.07"/>
    <line x1="80.00" y1="388.82" x2="720.00" y2="388.82"/>
    <line x1="80.00" y1="387.69" x2="720.00" y2="387.69"/>
    <line x1="80.00" y1="386.57" x2="720.00" y2="386.57"/>
    <line x1="80.00" y1="385.44" x2="720.00" y2="385.44"/>
    <line x1="80.00" y1="383.20" x2="720.00" y2="383.20"/>
    <line x1="80.00" y1="382.07" x2="720.00" y2="382.07"/>
    <line x1="80.00" y1="380.95" x2="720.00" y2="380.95"/>
    <line x1="80.00" y1="379.82" x2="720.00" y2="379.82"/>
    <line x1="80.00" y1="377.57" x2="720.00" y2="377.57"/>
    <line x1="80.00" y1="376.45" x2="720.00" y2="376.45"/>
    <line x1="80.00" y1="375.33" x2="720.00" y2="375.33"/>
    <line x1="80.00" y1="374.20" x2="720.00" y2="374.20"/>
    <line x1="80.00" y1="371.95" x2="720.00" y2="371.95"/>
    <line x1="80.00" y1="370.83" x2="720.00" y2="370.83"/>
    <line x1="80.00" y1="369.70" x2="720.00" y2="369.70"/>
    <line x1="80.00" y1="368.58" x2="720.00" y2="368.58"/>
    <line x1="80.00" y1="366.33" x2="720.00" y2="366.33"/>
    <line x1="80.00" y1="365.21" x2="720.00" y2="365.21"/>
    <line x1="80.00" y1="364.08" x2="720.00" y2="364.08"/>
    <line x1="80.00" y1="362.96" x2="720.00" y2="362.96"/>
    <line x1="80.00" y1="360.71" x2="720.00" y2="360.71"/>
    <line x1="80.00" y1="359.59" x2="720.00" y2="359.59"/>
    <line x1="80.00" y1="358.46" x2="720.00" y2="358.46"/>
    <line x1="80.00" y1="357.34" x2="720.00" y2="357.34"/>
    <line x1="80.00" y1="355.09" x2="720.00" y2="355.09"/>
    <line x1="80.00" y1="353.96" x2="720.00" y2="353.96"/>
    <line x1="80.00" y1="352.84" x2="720.00" y2="352.84"/>
    <line x1="80.00" y1="351.72" x2="720.00" y2="351.72"/>
    <line x1="80.00" y1="349.47" x2="720.00" y2="349.47"/>
    <line x1="80.00" y1="348.34" x2="720.00" y2="348.34"/>
    <line x1="80.00" y1="347.22" x2="720.00" y2="347.22"/>
    <line x1="80.00" y1="346.09" x2="720.00" y2="346.09"/>
    <line x1="80.00" y1="343.85" x2="720.00" y2="343.85"/>
    <line x1="80.00" y1="342.72" x2="720.00" y2="342.72"/>
    <line x1="80.00" y1="341.60" x2="720.00" y2="341.60"/>
    <line x1="80.00" y1="340.47" x2="720.00" y2="340.47"/>
    <line x1="80.00" y1="338.22" x2="720.00" y2="338.22"/>
    <line x1="80.00" y1="337.10" x2="720.00" y2="337.10"/>
    <line x1="80.00" y1="335.98" x2="720.00" y2="335.98"/>
    <line x1="80.00" y1="334.85" x2="720.00" y2="334.85"/>
    <line x1="80.00" y1="332.60" x2="720.00" y2="332.60"/>
    <line x1="80.00" y1="331.48" x2="720.00" y2="331.48"/>
    <line x1="80.00" y1="330.36" x2="720.00" y2="330.36"/>
    <line x1="80.00" y1="329.23" x2="720.00" y2="329.23"/>
    <line x1="80.00" y1="326.98" x2="720.00" y2="326.98"/>
    <line x1="80.00" y1="325.86" x2="720.00" y2="325.86"/>
    <line x1="80.00" y1="324.73" x2="720.00" y2="324.73"/>
    <line x1="80.00" y1="323.61" x2="720.00" y2="323.61"/>
    <line x1="80.00" y1="321.36" x2="720.00" y2="321.36"/>
    <line x1="80.00" y1="320.24" x2="720.00" y2="320.24"/>
    <line x1="80.00" y1="319.11" x2="720.00" y2="319.11"/>
    <line x1="80.00" y1="317.99" x2="720.00" y2="317.99"/>
    <line x1="80.00" y1="315.74" x2="720.00" y2="315.74"/>
    <line x1="80.00" y1="314.62" x2="720.00" y2="314.62"/>
    <line x1="80.00" y1="313.49" x2="720.00" y2="313.49"/>
    <line x1="80.00" y1="312.37" x2="720.00" y2="312.37"/>
    <line x1="80.00" y1="310.12" x2="720.00" y2="310.12"/>
    <line x1="80.00" y1="308.99" x2="720.00" y2="308.99"/>
    <line x1="80.00" y1="307.87" x2="720.00" y2="307.87"/>
    <line x1="80.00" y1="306.75" x2="720.00" y2="306.75"/>
    <line x1="80.00" y1="304.50" x2="720.00" y2="304.50"/>
    <line x1="80.00" y1="303.37" x2="720.00" y2="303.37"/>
    <line x1="80.00" y1="302.25" x2="720.00" y2="302.25"/>
    <line x1="80.00" y1="301.12" x2="720.00" y2="301.12"/>
    <line x1="80.00" y1="298.88" x2="720.00" y2="298.88"/>
    <line x1="80.00" y1="297.75" x2="720.00" y2="297.75"/>
    <line x1="80.00" y1="296.63" x2="720.00" y2="296.63"/>
    <line x1="80.00" y1="295.50" x2="720.00" y2="295.50"/>
    <line x1="80.00" y1="293.25" x2="720.00" y2="293.25"/>
    <line x1="80.00" y1="292.13" x2="720.00" y2="292.13"/>
    <line x1="80.00" y1="291.01" x2="720.00" y2="291.01"/>
    <line x1="80.00" y1="289.88" x2="720.00" y2="289.88"/>
    <line x1="80.00" y1="287.63" x2="720.00" y2="287.63"/>
    <line x1="80.00" y1="286.51" x2="720.00" y2="286.51"/>
    <line x1="80.00" y1="285.38" x2="720.00" y2="285.38"/>
    <line x1="80.00" y1="284.26" x2="720.00" y2="284.26"/>
    <line x1="80.00" y1="282.01" x2="720.00" y2="282.01"/>
    <line x1="80.00" y1="280.89" x2="720.00" y2="280.89"/>
    <line x1="80.00" y1="279.76" x2="720.00" y2="279.76"/>
    <line x1="80.00" y1="278.64" x2="720.00" y2="278.64"/>
    <line x1="80.00" y1="276.39" x2="720.00" y2="276.39"/>
    <line x1="80.00" y1="275.27" x2="720.00" y2="275.27"/>
    <line x1="80.00" y1="274.14" x2="720.00" y2="274.14"/>
    <line x1="80.00" y1="273.02" x2="720.00" y2="273.02"/>
    <line x1="80.00" y1="270.77" x2="720.00" y2="270.77"/>
    <line x1="80.00" y1="269.64" x2="720.00" y2="269.64"/>
    <line x1="80.00" y1="268.52" x2="720.00" y2="268.52"/>
    <line x1="80.00" y1="267.40" x2="720.00" y2="267.40"/>
    <line x1="80.00" y1="265.15" x2="720.00" y2="265.15"/>
    <line x1="80.00" y1="264.02" x2="720.00" y2="264.02"/>
    <line x1="80.00" y1="262.90" x2="720.00" y2="262.90"/>
    <line x1="80.00" y1="261.78" x2="720.00" y2="261.78"/>
    <line x1="80.00" y1="259.53" x2="720.00" y2="259.53"/>
    <line x1="80.00" y1="258.40" x2="720.00" y2="258.40"/>
    <line x1="80.00" y1="257.28" x2="720.00" y2="257.28"/>
    <line x1="80.00" y1="256.15" x2="720.00" y2="256.15"/>
    <line x1="80.00" y1="253.91" x2="720.00" y2="253.91"/>
    <line x1="80.00" y1="252.78" x2="720.00" y2="252.78"/>
    <line x1="80.00" y1="251.66" x2="720.00" y2="251.66"/>
    <line x1="80.00" y1="250.53" x2="720.00" y2="250.53"/>
    <line x1="80.00" y1="248.28" x2="720.00" y2="248.28"/>
    <line x1="80.00" y1="247.16" x2="720.00" y2="247.16"/>
    <line x1="80.00" y1="246.04" x2="720.00" y2="246.04"/>
    <line x1="80.00" y1="244.91" x2="720.00" y2="244.91"/>
    <line x1="80.00" y1="242.66" x2="720.00" y2="242.66"/>
    <line x1="80.00" y1="241.54" x2="720.00" y2="241.54"/>
    <line x1="80.00" y1="240.41" x2="720.00" y2="240.41"/>
    <line x1="80.00" y1="239.29" x2="720.00" y2="239.29"/>
    <line x1="80.00" y1="237.04" x2="720.00" y2="237.04"/>
    <line x1="80.00" y1="235.92" x2="720.00" y2="235.92"/>
    <line x1="80.00" y1="234.79" x2="720.00" y2="234.79"/>
    <line x1="80.00" y1="233.67" x2="720.00" y2="233.67"/>
    <line x1="80.00" y1="231.42" x2="720.00" y2="231.42"/>
    <line x1="80.00" y1="230.30" x2="720.00" y2="230.30"/>
    <line x1="80.00" y1="229.17" x2="720.00" y2="229.17"/>
    <line x1="80.00" y1="228.05" x2="720.00" y2="228.05"/>
    <line x1="80.00" y1="225.80" x2="720.00" y2="225.80"/>
    <line x1="80.00" y1="224.67" x2="720.00" y2="224.67"/>
    <line x1="80.00" y1="223.55" x2="720.00" y2="223.55"/>
    <line x1="80.00" y1="222.43" x2="720.00" y2="222.43"/>
    <line x1="80.00" y1="220.18" x2="720.00" y2="220.18"/>
    <line x1="80.00" y1="219.05" x2="720.00" y2="219.05"/>
    <line x1="80.00" y1="217.93" x2="720.00" y2="217.93"/>
    <line x1="80.00" y1="216.80" x2="720.00" y2="216.80"/>
    <line x1="80.00" y1="214.56" x2="720.00" y2="214.56"/>
    <line x1="80.00" y1="213.43" x2="720.00" y2="213.43"/>
    <line x1="80.00" y1="212.31" x2="720.00" y2="212.31"/>
    <line x1="80.00" y1="211.18" x2="720.00" y2="211.18"/>
    <line x1="80.00" y1="208.93" x2="720.00" y2="208.93"/>
    <line x1="80.00" y1="207.81" x2="720.00" y2="207.81"/>
    <line x1="80.00" y1="206.69" x2="720.00" y2="206.69"/>
    <line x1="80.00" y1="205.56" x2="720.00" y2="205.56"/>
    <line x1="80.00" y1="203.31" x2="720.00" y2="203.31"/>
    <line x1="80.00" y1="202.19" x2="720.00" y2="202.19"/>
    <line x1="80.00" y1="201.06" x2="720.00" y2="201.06"/>
    <line x1="80.00" y1="199.94" x2="720.00" y2="199.94"/>
    <line x1="80.00" y1="197.69" x2="720.00" y2="197.69"/>
    <line x1="80.00" y1="196.57" x2="720.00" y2="196.57"/>
    <line x1="80.00" y1="195.44" x2="720.00" y2="195.44"/>
    <line x1="80.00" y1="194.32" x2="720.00" y2="194.32"/>
    <line x1="80.00" y1="192.07" x2="720.00" y2="192.07"/>
    <line x1="80.00" y1="190.95" x2="720.00" y2="190.95"/>
    <line x1="80.00" y1="189.82" x2="720.00" y2="189.82"/>
    <line x1="80.00" y1="188.70" x2="720.00" y2="188.70"/>
    <line x1="80.00" y1="186.45" x2="720.00" y2="186.45"/>
    <line x1="80.00" y1="185.33" x2="720.00" y2="185.33"/>
    <line x1="80.00" y1="184.20" x2="720.00" y2="184.20"/>
    <line x1="80.00" y1="183.08" x2="720.00" y2="183.08"/>
    <line x1="80.00" y1="180.83" x2="720.00" y2="180.83"/>
    <line x1="80.00" y1="179.70" x2="720.00" y2="179.70"/>
    <line x1="80.00" y1="178.58" x2="720.00" y2="178.58"/>
    <line x1="80.00" y1="177.46" x2="720.00" y2="177.46"/>
    <line x1="80.00" y1="175.21" x2="720.00" y2="175.21"/>
    <line x1="80.00" y1="174.08" x2="720.00" y2="174.08"/>
    <line x1="80.00" y1="172.96" x2="720.00" y2="172.96"/>
    <line x1="80.00" y1="171.83" x2="720.00" y2="171.83"/>
    <line x1="80.00" y1="169.59" x2="720.00" y2="169.59"/>
    <line x1="80.00" y1="168.46" x2="720.00" y2="168.46"/>
    <line x1="80.00" y1="167.34" x2="720.00" y2="167.34"/>
    <line x1="80.00" y1="166.21" x2="720.00" y2="166.21"/>
    <line x1="80.00" y1="163.96" x2="720.00" y2="163.96"/>
    <line x1="80.00" y1="162.84" x2="720.00" y2="162.84"/>
    <line x1="80.00" y1="161.72" x2="720.00" y2="161.72"/>
    <line x1="80.00" y1="160.59" x2="720.00" y2="160.59"/>
    <line x1="80.00" y1="158.34" x2="720.00" y2="158.34"/>
    <line x1="80.00" y1="157.22" x2="720.00" y2="157.22"/>
    <line x1="80.00" y1="156.09" x2="720.00" y2="156.09"/>
    <line x1="80.00" y1="154.97" x2="720.00" y2="154.97"/>
    <line x1="80.00" y1="152.72" x2="720.00" y2="152.72"/>
    <line x1="80.00" y1="151.60" x2="720.00" y2="151.60"/>
    <line x1="80.00" y1="150.47" x2="720.00" y2="150.47"/>
    <line x1="80.00" y1="149.35" x2="720.00" y2="149.35"/>
    <line x1="80.00" y1="147.10" x2="720.00" y2="147.10"/>
    <line x1="80.00" y1="145.98" x2="720.00" y2="145.98"/>
    <line x1="80.00" y1="144.85" x2="720.00" y2="144.85"/>
    <line x1="80.00" y1="143.73" x2="720.00" y2="143.73"/>
    <line x1="80.00" y1="141.48" x2="720.00" y2="141.48"/>
    <line x1="80.00" y1="140.35" x2="720.00" y2="140.35"/>
    <line x1="80.00" y1="139.23" x2="720.00" y2="139.23"/>
    <line x1="80.00" y1="138.11" x2="720.00" y2="138.11"/>
    <line x1="80.00" y1="135.86" x2="720.00" y2="135.86"/>
    <line x1="80.00" y1="134.73" x2="720.00" y2="134.73"/>
    <line x1="80.00" y1="133.61" x2="720.00" y2="133.61"/>
    <line x1="80.00" y1="132.48" x2="720.00" y2="132.48"/>
    <line x1="80.00" y1="130.24" x2="720.00" y2="130.24"/>
    <line x1="80.00" y1="129.11" x2="720.00" y2="129.11"/>
    <line x1="80.00" y1="127.99" x2="720.00" y2="127.99"/>
    <line x1="80.00" y1="126.86" x2="720.00" y2="126.86"/>
    <line x1="80.00" y1="124.61" x2="720.00" y2="124.61"/>
    <line x1="80.00" y1="123.49" x2="720.00" y2="123.49"/>
    <line x1="80.00" y1="122.37" x2="720.00" y2="122.37"/>
    <line x1="80.00" y1="121.24" x2="720.00" y2="121.24"/>
    <line x1="80.00" y1="118.99" x2="720.00" y2="118.99"/>
    <line x1="80.00" y1="117.87" x2="720.00" y2="117.87"/>
    <line x1="80.00" y1="116.74" x2="720.00" y2="116.74"/>
    <line x1="80.00" y1="115.62" x2="720.00" y2="115.62"/>
    <line x1="80.00" y1="113.37" x2="720.00" y2="113.37"/>
    <line x1="80.00" y1="112.25" x2="720.00" y2="112.25"/>
    <line x1="80.00" y1="111.12" x2="720.00" y2="111.12"/>
    <line x1="80.00" y1="110.00" x2="720.00" y2="110.00"/>
    <line x1="80.00" y1="107.75" x2="720.00" y2="107.75"/>
    <line x1="80.00" y1="106.63" x2="720.00" y2="106.63"/>
    <line x1="80.00" y1="105.50" x2="720.00" y2="105.50"/>
    <line x1="80.00" y1="104.38" x2="720.00" y2="104.38"/>
    <line x1="80.00" y1="102.13" x2="720.00" y2="102.13"/>
    <line x1="80.00" y1="101.01" x2="720.00" y2="101.01"/>
    <line x1="80.00" y1="99.88" x2="720.00" y2="99.88"/>
    <line x1="80.00" y1="98.76" x2="720.00" y2="98.76"/>
    <line x1="80.00" y1="96.51" x2="720.00" y2="96.51"/>
    <line x1="80.00" y1="95.38" x2="720.00" y2="95.38"/>
    <line x1="80.00" y1="94.26" x2="720.00" y2="94.26"/>
    <line x1="80.00" y1="93.14" x2="720.00" y2="93.14"/>
    <line x1="80.00" y1="90.89" x2="720.00" y2="90.89"/>
    <line x1="80.00" y1="89.76" x2="720.00" y2="89.76"/>
    <line x1="80.00" y1="88.64" x2="720.00" y2="88.64"/>
    <line x1="80.00" y1="87.51" x2="720.00" y2="87.51"/>
    <line x1="80.00" y1="85.27" x2="720.00" y2="85.27"/>
    <line x1="80.00" y1="84.14" x2="720.00" y2="84.14"/>
    <line x1="80.00" y1="83.02" x2="720.00" y2="83.02"/>
    <line x1="80.00" y1="81.89" x2="720.00" y2="81.89"/>
    <line x1="80.00" y1="79.64" x2="720.00" y2="79.64"/>
    <line x1="80.00" y1="78.52" x2="720.00" y2="78.52"/>
    <line x1="80.00" y1="77.40" x2="720.00" y2="77.40"/>
    <line x1="80.00" y1="76.27" x2="720.00" y2="76.27"/>
    <line x1="80.00" y1="74.02" x2="720.00" y2="74.02"/>
    <line x1="80.00" y1="72.90" x2="720.00" y2="72.90"/>
    <line x1="80.00" y1="71.77" x2="720.00" y2="71.77"/>
    <line x1="80.00" y1="70.65" x2="720.00" y2="70.65"/>
    <line x1="80.00" y1="68.40" x2="720.00" y2="68.40"/>
    <line x1="80.00" y1="67.28" x2="720.00" y2="67.28"/>
    <line x1="80.00" y1="66.15" x2="720.00" y2="66.15"/>
    <line x1="80.00" y1="65.03" x2="720.00" y2="65.03"/>
    <line x1="80.00" y1="62.78" x2="720.00" y2="62.78"/>
    <line x1="80.00" y1="61.66" x2="720.00" y2="61.66"/>
    <line x1="80.00" y1="60.53" x2="720.00" y2="60.53"/>
  </g>
  <g stroke="#808080" stroke-width="2">
    <line x1="186.61" y1="540.00" x2="186.61" y2="60.00"/>
    <line x1="80.00" y1="300.00" x2="720.00" y2="300.00"/>
  </g>
  <polyline fill="none" stroke="#0066cc" stroke-width="2" points="301.18,318.56 267.94,309.45 236.34,304.40 206.77,301.40 179.59,299.61 155.15,298.60 133.73,298.14 115.62,298.07 101.04,298.27 90.16,298.68 83.11,299.21 80.00,299.82 80.85,300.44 85.66,301.03 94.36,301.51 106.85,301.84 122.97,301.94 142.52,301.71 165.27,301.04 190.92,299.74 219.17,297.50 249.66,293.76 282.01,287.34 315.83,275.08 350.69,244.75 386.16,60.00 421.81,482.87 457.19,378.75 491.86,353.79 525.39,341.99 557.38,334.65 587.42,329.29 615.14,324.92 640.20,321.10 662.28,317.59 681.12,314.26 696.48,311.02 708.17,307.85 716.04,304.70 720.00,301.56 720.00,298.44 716.04,295.30 708.17,292.15 696.48,288.98 681.12,285.74 662.28,282.41 640.20,278.90 615.14,275.08 587.42,270.71 557.38,265.35 525.39,258.01 491.86,246.21 457.19,221.25 421.81,117.13 386.16,540.00 350.69,355.25 315.83,324.92 282.01,312.66 249.66,306.24 219.17,302.50 190.92,300.26 165.27,298.96 142.52,298.29 122.97,298.06 106.85,298.16 94.36,298.49 85.66,298.97 80.85,299.56 80.00,300.18 83.11,300.79 90.16,301.32 101.04,301.73 115.62,301.93 133.73,301.86 155.15,301.40 179.59,300.39 206.77,298.60 236.34,295.60 267.94,290.55 301.18,281.44 "/>
</svg>
