<?xml version="1.0" encoding="UTF-8"?>
<svg xmlns="http://www.w3.org/2000/svg" width="800" height="600">
  <title>R=2*tan(t)*sin(t):0,1:</title>
  <rect width="800" height="600" fill="#ffffff"/>
  <g stroke="#d0d0d0" stroke-width="1">
    <line x1="80.00" y1="540.00" x2="80.00" y2="60.00"/>
    <line x1="400.13" y1="540.00" x2="400.13" y2="60.00"/>
    <line x1="720.25" y1="540.00" x2="720.25" y2="60.00"/>
    <line x1="80.00" y1="541.12" x2="720.00" y2="541.12"/>
    <line x1="80.00" y1="538.73" x2="720.00" y2="538.73"/>
    <line x1="80.00" y1="536.34" x2="720.00" y2="536.34"/>
    <line x1="80.00" y1="533.95" x2="720.00" y2="533.95"/>
    <line x1="80.00" y1="531.57" x2="720.00" y2="531.57"/>
    <line x1="80.00" y1="529.18" x2="720.00" y2="529.18"/>
    <line x1="80.00" y1="526.79" x2="720.00" y2="526.79"/>
    <line x1="80.00" y1="524.40" x2="720.00" y2="524.40"/>
    <line x1="80.00" y1="522.02" x2="720.00" y2="522.02"/>
    <line x1="80.00" y1="519.63" x2="720.00" y2="519.63"/>
    <line x1="80.00" y1="517.24" x2="720.00" y2="517.24"/>
    <line x1="80.00" y1="514.86" x2="720.00" y2="514.86"/>
    <line x1="80.00" y1="512.47" x2="720.00" y2="512.47"/>
    <line x1="80.00" y1="510.08" x2="720.00" y2="510.08"/>
    <line x1="80.00" y1="507.69" x2="720.00" y2="507.69"/>
    <line x1="80.00" y1="505.31" x2="720.00" y2="505.31"/>
    <line x1="80.00" y1="502.92" x2="720.00" y2="502.92"/>
    <line x1="80.00" y1="500.53" x2="720.00" y2="500.53"/>
    <line x1="80.00" y1="498.14" x2="720.00" y2="498.14"/>
    <line x1="80.00" y1="495.76" x2="720.00" y2="495.76"/>
    <line x1="80.00" y1="493.37" x2="720.00" y2="493.37"/>
    <line x1="80.00" y1="490.98" x2="720.00" y2="490.98"/>
    <line x1="80.00" y1="488.59" x2="720.00" y2="488.59"/>
    <line x1="80.00" y1="486.21" x2="720.00" y2="486.21"/>
    <line x1="80.00" y1="483.82" x2="720.00" y2="483.82"/>
    <line x1="80.00" y1="481.43" x2="720.00" y2="481.43"/>
    <line x1="80.00" y1="479.05" x2="720.00" y2="479.05"/>
    <line x1="80.00" y1="476.66" x2="720.00" y2="476.66"/>
    <line x1="80.00" y1="474.27" x2="720.00" y2="474.27"/>
    <line x1="80.00" y1="471.88" x2="720.00" y2="471.88"/>
    <line x1="80.00" y1="469.50" x2="720.00" y2="469.50"/>
    <line x1="80.00" y1="467.11" x2="720.00" y2="467.11"/>
    <line x1="80.00" y1="464.72" x2="720.00" y2="464.72"/>
    <line x1="80.00" y1="462.33" x2="720.00" y2="462.33"/>
    <line x1="80.00" y1="459.95" x2="720.00" y2="459.95"/>
    <line x1="80.00" y1="457.56" x2="720.00" y2="457.56"/>
    <line x1="80.00" y1="455.17" x2="720.00" y2="455.17"/>
    <line x1="80.00" y1="452.79" x2="720.00" y2="452.79"/>
    <line x1="80.00" y1="450.40" x2="720.00" y2="450.40"/>
    <line x1="80.00" y1="448.01" x2="720.00" y2="448.01"/>
    <line x1="80.00" y1="445.62" x2="720.00" y2="445.62"/>
    <line x1="80.00" y1="443.24" x2="720.00" y2="443.24"/>
    <line x1="80.00" y1="440.85" x2="720.00" y2="440.85"/>
    <line x1="80.00" y1="438.46" x2="720.00" y2="438.46"/>
    <line x1="80.00" y1="436.07" x2="720.00" y2="436.07"/>
    <line x1="80.00" y1="433.69" x2="720.00" y2="433.69"/>
    <line x1="80.00" y1="431.30" x2="720.00" y2="431.30"/>
    <line x1="80.00" y1="428.91" x2="720.00" y2="428.91"/>
    <line x1="80.00" y1="426.53" x2="720.00" y2="426.53"/>
    <line x1="80.00" y1="424.14" x2="720.00" y2="424.14"/>
    <line x1="80.00" y1="421.75" x2="720.00" y2="421.75"/>
    <line x1="80.00" y1="419.36" x2="720.00" y2="419.36"/>
    <line x1="80.00" y1="416.98" x2="720.00" y2="416.98"/>
    <line x1="80.00" y1="414.59" x2="720.00" y2="414.59"/>
    <line x1="80.00" y1="412.20" x2="720.00" y2="412.20"/>
    <line x1="80.00" y1="409.81" x2="720.00" y2="409.81"/>
    <line x1="80.00" y1="407.43" x2="720.00" y2="407.43"/>
    <line x1="80.00" y1="405.04" x2="720.00" y2="405.04"/>
    <line x1="80.00" y1="402.65" x2="720.00" y2="402.65"/>
    <line x1="80.00" y1="400.27" x2="720.00" y2="400.27"/>
    <line x1="80.00" y1="397.88" x2="720.00" y2="397.88"/>
    <line x1="80.00" y1="395.49" x2="720.00" y2="395.49"/>
    <line x1="80.00" y1="393.10" x2="720.00" y2="393.10"/>
    <line x1="80.00" y1="390.72" x2="720.00" y2="390.72"/>
    <line x1="80.00" y1="388.33" x2="720.00" y2="388.33"/>
    <line x1="80.00" y1="385.94" x2="720.00" y2="385.94"/>
    <line x1="80.00" y1="383.55" x2="720.00" y2="383.55"/>
    <line x1="80.00" y1="381.17" x2="720.00" y2="381.17"/>
    <line x1="80.00" y1="378.78" x2="720.00" y2="378.78"/>
    <line x1="80.00" y1="376.39" x2="720.00" y2="376.39"/>
    <line x1="80.00" y1="374.01" x2="720.00" y2="374.01"/>
    <line x1="80.00" y1="371.62" x2="720.00" y2="371.62"/>
    <line x1="80.00" y1="369.23" x2="720.00" y2="369.23"/>
    <line x1="80.00" y1="366.84" x2="720.00" y2="366.84"/>
    <line x1="80.00" y1="364.46" x2="720.00" y2="364.46"/>
    <line x1="80.00" y1="362.07" x2="720.00" y2="362.07"/>
    <line x1="80.00" y1="359.68" x2="720.00" y2="359.68"/>
    <line x1="80.00" y1="357.29" x2="720.00" y2="357.29"/>
    <line x1="80.00" y1="354.91" x2="720.00" y2="354.91"/>
    <line x1="80.00" y1="352.52" x2="720.00" y2="352.52"/>
    <line x1="80.00" y1="350.13" x2="720.00" y2="350.13"/>
    <line x1="80.00" y1="347.75" x2="720.00" y2="347.75"/>
    <line x1="80.00" y1="345.36" x2="720.00" y2="345.36"/>
    <line x1="80.00" y1="342.97" x2="720.00" y2="342.97"/>
    <line x1="80.00" y1="340.58" x2="720.00" y2="340.58"/>
    <line x1="80.00" y1="338.20" x2="720.00" y2="338.20"/>
    <line x1="80.00" y1="335.81" x2="720.00" y2="335.81"/>
    <line x1="80.00" y1="333.42" x2="720.00" y2="333.42"/>
    <line x1="80.00" y1="331.03" x2="720.00" y2="331.03"/>
    <line x1="80.00" y1="328.65" x2="720.00" y2="328.65"/>
    <line x1="80.00" y1="326.26" x2="720.00" y2="326.26"/>
    <line x1="80.00" y1="323.87" x2="720.00" y2="323.87"/>
    <line x1="80.00" y1="321.49" x2="720.00" y2="321.49"/>
    <line x1="80.00" y1="319.10" x2="720.00" y2="319.10"/>
    <line x1="80.00" y1="316.71" x2="720.00" y2="316.71"/>
    <line x1="80.00" y1="314.32" x2="720.00" y2="314.32"/>
    <line x1="80.00" y1="311.94" x2="720.00" y2="311.94"/>
    <line x1="80.00" y1="309.55" x2="720.00" y2="309.55"/>
    <line x1="80.00" y1="307.16" x2="720.00" y2="307.16"/>
    <line x1="80.00" y1="304.77" x2="720.00" y2="304.77"/>
    <line x1="80.00" y1="302.39" x2="720.00" y2="302.39"/>
    <line x1="80.00" y1="300.00" x2="720.00" y2="300.00"/>
    <line x1="80.00" y1="297.61" x2="720.00" y2="297.61"/>
    <line x1="80.00" y1="295.23" x2="720.00" y2="295.23"/>
    <line x1="80.00" y1="292.84" x2="720.00" y2="292.84"/>
    <line x1="80.00" y1="290.45" x2="720.00" y2="290.45"/>
    <line x1="80.00" y1="288.06" x2="720.00" y2="288.06"/>
    <line x1="80.00" y1="285.68" x2="720.00" y2="285.68"/>
    <line x1="80.00" y1="283.29" x2="720.00" y2="283.29"/>
    <line x1="80.00" y1="280.90" x2="720.00" y2="280.90"/>
    <line x1="80.00" y1="278.51" x2="720.00" y2="278.51"/>
    <line x1="80.00" y1="276.13" x2="720.00" y2="276.13"/>
    <line x1="80.00" y1="273.74" x2="720.00" y2="273.74"/>
    <line x1="80.00" y1="271.35" x2="720.00" y2="271.35"/>
    <line x1="80.00" y1="268.97" x2="720.00" y2="268.97"/>
    <line x1="80.00" y1="266.58" x2="720.00" y2="266.58"/>
    <line x1="80.00" y1="264.19" x2="720.00" y2="264.19"/>
    <line x1="80.00" y1="261.80" x2="720.00" y2="261.80"/>
    <line x1="80.00" y1="259.42" x2="720.00" y2="259.42"/>
    <line x1="80.00" y1="257.03" x2="720.00" y2="257.03"/>
    <line x1="80.00" y1="254.64" x2="720.00" y2="254.64"/>
    <line x1="80.00" y1="252.25" x2="720.00" y2="252.25"/>
    <line x1="80.00" y1="249.87" x2="720.00" y2="249.87"/>
    <line x1="80.00" y1="247.48" x2="720.00" y2="247.48"/>
    <line x1="80.00" y1="245.09" x2="720.00" y2="245.09"/>
    <line x1="80.00" y1="242.71" x2="720.00" y2="242.71"/>
    <line x1="80.00" y1="240.32" x2="720.00" y2="240.32"/>
    <line x1="80.00" y1="237.93" x2="720.00" y2="237.93"/>
    <line x1="80.00" y1="235.54" x2="720.00" y2="235.54"/>
    <line x1="80.00" y1="233.16" x2="720.00" y2="233.16"/>
    <line x1="80.00" y1="230.77" x2="720.00" y2="230.77"/>
    <line x1="80.00" y1="228.38" x2="720.00" y2="228.38"/>
    <line x1="80.00" y1="225.99" x2="720.00" y2="225.99"/>
    <line x1="80.00" y1="223.61" x2="720.00" y2="223.61"/>
    <line x1="80.00" y1="221.22" x2="720.00" y2="221.22"/>
    <line x1="80.00" y1="218.83" x2="720.00" y2="218.83"/>
    <line x1="80.00" y1="216.45" x2="720.00" y2="216.45"/>
    <line x1="80.00" y1="214.06" x2="720.00" y2="214.06"/>
    <line x1="80.00" y1="211.67" x2="720.00" y2="211.67"/>
    <line x1="80.00" y1="209.28" x2="720.00" y2="209.28"/>
    <line x1="80.00" y1="206.90" x2="720.00" y2="206.90"/>
    <line x1="80.00" y1="204.51" x2="720.00" y2="204.51"/>
    <line x1="80.00" y1="202.12" x2="720.00" y2="202.12"/>
    <line x1="80.00" y1="199.73" x2="720.00" y2="199.73"/>
    <line x1="80.00" y1="197.35" x2="720.00" y2="197.35"/>
    <line x1="80.00" y1="194.96" x2="720.00" y2="194.96"/>
    <line x1="80.00" y1="192.57" x2="720.00" y2="192.57"/>
    <line x1="80.00" y1="190.19" x2="720.00" y2="190.19"/>
    <line x1="80.00" y1="187.80" x2="720.00" y2="187.80"/>
    <line x1="80.00" y1="185.41" x2="720.00" y2="185.41"/>
    <line x1="80.00" y1="183.02" x2="720.00" y2="183.02"/>
    <line x1="80.00" y1="180.64" x2="720.00" y2="180.64"/>
    <line x1="80.00" y1="178.25" x2="720.00" y2="178.25"/>
    <line x1="80.00" y1="175.86" x2="720.00" y2="175.86"/>
    <line x1="80.00" y1="173.47" x2="720.00" y2="173.47"/>
    <line x1="80.00" y1="171.09" x2="720.00" y2="171.09"/>
    <line x1="80.00" y1="168.70" x2="720.00" y2="168.70"/>
    <line x1="80.00" y1="166.31" x2="720.00" y2="166.31"/>
    <line x1="80.00" y1="163.93" x2="720.00" y2="163.93"/>
    <line x1="80.00" y1="161.54" x2="720.00" y2="161.54"/>
    <line x1="80.00" y1="159.15" x2="720.00" y2="159.15"/>
    <line x1="80.00" y1="156.76" x2="720.00" y2="156.76"/>
    <line x1="80.00" y1="154.38" x2="720.00" y2="154.38"/>
    <line x1="80.00" y1="151.99" x2="720.00" y2="151.99"/>
    <line x1="80.00" y1="149.60" x2="720.00" y2="149.60"/>
    <line x1="80.00" y1="147.21" x2="720.00" y2="147.21"/>
    <line x1="80.00" y1="144.83" x2="720.00" y2="144.83"/>
    <line x1="80.00" y1="142.44" x2="720.00" y2="142.44"/>
    <line x1="80.00" y1="140.05" x2="720.00" y2="140.05"/>
    <line x1="80.00" y1="137.67" x2="720.00" y2="137.67"/>
    <line x1="80.00" y1="135.28" x2="720.00" y2="135.28"/>
    <line x1="80.00" y1="132.89" x2="720.00" y2="132.89"/>
    <line x1="80.00" y1="130.50" x2="720.00" y2="130.50"/>
    <line x1="80.00" y1="128.12" x2="720.00" y2="128.12"/>
    <line x1="80.00" y1="125.73" x2="720.00" y2="125.73"/>
    <line x1="80.00" y1="123.34" x2="720.00" y2="123.34"/>
    <line x1="80.00" y1="120.95" x2="720.00" y2="120.95"/>
    <line x1="80.00" y1="118.57" x2="720.00" y2="118.57"/>
    <line x1="80.00" y1="116.18" x2="720.00" y2="116.18"/>
    <line x1="80.00" y1="113.79" x2="720.00" y2="113.79"/>
    <line x1="80.00" y1="111.41" x2="720.00" y2="111.41"/>
    <line x1="80.00" y1="109.02" x2="720.00" y2="109.02"/>
    <line x1="80.00" y1="106.63" x2="720.00" y2="106.63"/>
    <line x1="80.00" y1="104.24" x2="720.00" y2="104.24"/>
    <line x1="80.00" y1="101.86" x2="720.00" y2="101.86"/>
    <line x1="80.00" y1="99.47" x2="720.00" y2="99.47"/>
    <line x1="80.00" y1="97.08" x2="720.00" y2="97.08"/>
    <line x1="80.00" y1="94.69" x2="720.00" y2="94.69"/>
    <line x1="80.00" y1="92.31" x2="720.00" y2="92.31"/>
    <line x1="80.00" y1="89.92" x2="720.00" y2="89.92"/>
    <line x1="80.00" y1="87.53" x2="720.00" y2="87.53"/>
    <line x1="80.00" y1="85.14" x2="720.00" y2="85.14"/>
    <line x1="80.00" y1="82.76" x2="720.00" y2="82.76"/>
    <line x1="80.00" y1="80.37" x2="720.00" y2="80.37"/>
    <line x1="80.00" y1="77.98" x2="720.00" y2="77.98"/>
    <line x1="80.00" y1="75.60" x2="720.00" y2="75.60"/>
    <line x1="80.00" y1="73.21" x2="720.00" y2="73.21"/>
    <line x1="80.00" y1="70.82" x2="720.00" y2="70.82"/>
    <line x1="80.00" y1="68.43" x2="720.00" y2="68.43"/>
    <line x1="80.00" y1="66.05" x2="720.00" y2="66.05"/>
    <line x1="80.00" y1="63.66" x2="720.00" y2="63.66"/>
    <line x1="80.00" y1="61.27" x2="720.00" y2="61.27"/>
    <line x1="80.00" y1="58.88" x2="720.00" y2="58.88"/>
  </g>
  <g stroke="#e8e8e8" stroke-width="0.5">
    <line x1="144.03" y1="540.00" x2="144.03" y2="60.00"/>
    <line x1="208.05" y1="540.00" x2="208.05" y2="60.00"/>
    <line x1="272.08" y1="540.00" x2="272.08" y2="60.00"/>
    <line x1="336.10" y1="540.00" x2="336.10" y2="60.00"/>
    <line x1="464.15" y1="540.00" x2="464.15" y2="60.00"/>
    <line x1="528.18" y1="540.00" x2="528.18" y2="60.00"/>
    <line x1="592.20" y1="540.00" x2="592.20" y2="60.00"/>
    <line x1="656.23" y1="540.00" x2="656.23" y2="60.00"/>
    <line x1="80.00" y1="539.68" x2="720.00" y2="539.68"/>
    <line x1="80.00" y1="539.21" x2="720.00" y2="539.21"/>
    <line x1="80.00" y1="538.25" x2="720.00" y2="538.25"/>
    <line x1="80.00" y1="537.77" x2="720.00" y2="537.77"/>
    <line x1="80.00" y1="537.30" x2="720.00" y2="537.30"/>
    <line x1="80.00" y1="536.82" x2="720.00" y2="536.82"/>
    <line x1="80.00" y1="535.86" x2="720.00" y2="535.86"/>
    <line x1="80.00" y1="535.39" x2="720.00" y2="535.39"/>
    <line x1="80.00" y1="534.91" x2="720.00" y2="534.91"/>
    <line x1="80.00" y1="534.43" x2="720.00" y2="534.43"/>
    <line x1="80.00" y1="533.48" x2="720.00" y2="533.48"/>
    <line x1="80.00" y1="533.00" x2="720.00" y2="533.00"/>
    <line x1="80.00" y1="532.52" x2="720.00" y2="532.52"/>
    <line x1="80.00" y1="532.04" x2="720.00" y2="532.04"/>
    <line x1="80.00" y1="531.09" x2="720.00" y2="531.09"/>
    <line x1="80.00" y1="530.61" x2="720.00" y2="530.61"/>
    <line x1="80.00" y1="530.13" x2="720.00" y2="530.13"/>
    <line x1="80.00" y1="529.66" x2="720.00" y2="529.66"/>
    <line x1="80.00" y1="528.70" x2="720.00" y2="528.70"/>
    <line x1="80.00" y1="528.22" x2="720.00" y2="528.22"/>
    <line x1="80.00" y1="527.75" x2="720.00" y2="527.75"/>
    <line x1="80.00" y1="527.27" x2="720.00" y2="527.27"/>
    <line x1="80.00" y1="526.31" x2="720.00" y2="526.31"/>
    <line x1="80.00" y1="525.84" x2="720.00" y2="525.84"/>
    <line x1="80.00" y1="525.36" x2="720.00" y2="525.36"/>
    <line x1="80.00" y1="524.88" x2="720.00" y2="524.88"/>
    <line x1="80.00" y1="523.93" x2="720.00" y2="523.93"/>
    <line x1="80.00" y1="523.45" x2="720.00" y2="523.45"/>
    <line x1="80.00" y1="522.97" x2="720.00" y2="522.97"/>
    <line x1="80.00" y1="522.49" x2="720.00" y2="522.49"/>
    <line x1="80.00" y1="521.54" x2="720.00" y2="521.54"/>
    <line x1="80.00" y1="521.06" x2="720.00" y2="521.06"/>
    <line x1="80.00" y1="520.58" x2="720.00" y2="520.58"/>
    <line x1="80.00" y1="520.11" x2="720.00" y2="520.11"/>
    <line x1="80.00" y1="519.15" x2="720.00" y2="519.15"/>
    <line x1="80.00" y1="518.67" x2="720.00" y2="518.67"/>
    <line x1="80.00" y1="518.20" x2="720.00" y2="518.20"/>
    <line x1="80.00" y1="517.72" x2="720.00" y2="517.72"/>
    <line x1="80.00" y1="516.76" x2="720.00" y2="516.76"/>
    <line x1="80.00" y1="516.29" x2="720.00" y2="516.29"/>
    <line x1="80.00" y1="515.81" x2="720.00" y2="515.81"/>
    <line x1="80.00" y1="515.33" x2="720.00" y2="515.33"/>
    <line x1="80.00" y1="514.38" x2="720.00" y2="514.38"/>
    <line x1="80.00" y1="513.90" x2="720.00" y2="513.90"/>
    <line x1="80.00" y1="513.42" x2="720.00" y2="513.42"/>
    <line x1="80.00" y1="512.95" x2="720.00" y2="512.95"/>
    <line x1="80.00" y1="511.99" x2="720.00" y2="511.99"/>
    <line x1="80.00" y1="511.51" x2="720.00" y2="511.51"/>
    <line x1="80.00" y1="511.04" x2="720.00" y2="511.04"/>
    <line x1="80.00" y1="510.56" x2="720.00" y2="510.56"/>
    <line x1="80.00" y1="509.60" x2="720.00" y2="509.60"/>
    <line x1="80.00" y1="509.13" x2="720.00" y2="509.13"/>
    <line x1="80.00" y1="508.65" x2="720.00" y2="508.65"/>
    <line x1="80.00" y1="508.17" x2="720.00" y2="508.17"/>
    <line x1="80.00" y1="507.22" x2="720.00" y2="507.22"/>
    <line x1="80.00" y1="506.74" x2="720.00" y2="506.74"/>
    <line x1="80.00" y1="506.26" x2="720.00" y2="506.26"/>
    <line x1="80.00" y1="505.78" x2="720.00" y2="505.78"/>
    <line x1="80.00" y1="504.83" x2="720.00" y2="504.83"/>
    <line x1="80.00" y1="504.35" x2="720.00" y2="504.35"/>
    <line x1="80.00" y1="503.87" x2="720.00" y2="503.87"/>
    <line x1="80.00" y1="503.40" x2="720.00" y2="503.40"/>
    <line x1="80.00" y1="502.44" x2="720.00" y2="502.44"/>
    <line x1="80.00" y1="501.96" x2="720.00" y2="501.96"/>
    <line x1="80.00" y1="501.49" x2="720.00" y2="501.49"/>
    <line x1="80.00" y1="501.01" x2="720.00" y2="501.01"/>
    <line x1="80.00" y1="500.05" x2="720.00" y2="500.05"/>
    <line x1="80.00" y1="499.58" x2="720.00" y2="499.58"/>
    <line x1="80.00" y1="499.10" x2="720.00" y2="499.10"/>
    <line x1="80.00" y1="498.62" x2="720.00" y2="498.62"/>
    <line x1="80.00" y1="497.67" x2="720.00" y2="497.67"/>
    <line x1="80.00" y1="497.19" x2="720.00" y2="497.19"/>
    <line x1="80.00" y1="496.71" x2="720.00" y2="496.71"/>
    <line x1="80.00" y1="496.23" x2="720.00" y2="496.23"/>
    <line x1="80.00" y1="495.28" x2="720.00" y2="495.28"/>
    <line x1="80.00" y1="494.80" x2="720.00" y2="494.80"/>
    <line x1="80.00" y1="494.32" x2="720.00" y2="494.32"/>
    <line x1="80.00" y1="493.85" x2="720.00" y2="493.85"/>
    <line x1="80.00" y1="492.89" x2="720.00" y2="492.89"/>
    <line x1="80.00" y1="492.41" x2="720.00" y2="492.41"/>
    <line x1="80.00" y1="491.94" x2="720.00" y2="491.94"/>
    <line x1="80.00" y1="491.46" x2="720.00" y2="491.46"/>
    <line x1="80.00" y1="490.50" x2="720.00" y2="490.50"/>
    <line x1="80.00" y1="490.03" x2="720.00" y2="490.03"/>
    <line x1="80.00" y1="489.55" x2="720.00" y2="489.55"/>
    <line x1="80.00" y1="489.07" x2="720.00" y2="489.07"/>
    <line x1="80.00" y1="488.12" x2="720.00" y2="488.12"/>
    <line x1="80.00" y1="487.64" x2="720.00" y2="487.64"/>
    <line x1="80.00" y1="487.16" x2="720.00" y2="487.16"/>
    <line x1="80.00" y1="486.69" x2="720.00" y2="486.69"/>
    <line x1="80.00" y1="485.73" x2="720.00" y2="485.73"/>
    <line x1="80.00" y1="485.25" x2="720.00" y2="485.25"/>
    <line x1="80.00" y1="484.78" x2="720.00" y2="484.78"/>
    <line x1="80.00" y1="484.30" x2="720.00" y2="484.30"/>
    <line x1="80.00" y1="483.34" x2="720.00" y2="483.34"/>
    <line x1="80.00" y1="482.87" x2="720.00" y2="482.87"/>
    <line x1="80.00" y1="482.39" x2="720.00" y2="482.39"/>
    <line x1="80.00" y1="481.91" x2="720.00" y2="481.91"/>
    <line x1="80.00" y1="480.96" x2="720.00" y2="480.96"/>
    <line x1="80.00" y1="480.48" x2="720.00" y2="480.48"/>
    <line x1="80.00" y1="480.00" x2="720.00" y2="480.00"/>
    <line x1="80.00" y1="479.52" x2="720.00" y2="479.52"/>
    <line x1="80.00" y1="478.57" x2="720.00" y2="478.57"/>
    <line x1="80.00" y1="478.09" x2="720.00" y2="478.09"/>
    <line x1="80.00" y1="477.61" x2="720.00" y2="477.61"/>
    <line x1="80.00" y1="477.14" x2="720.00" y2="477.14"/>
    <line x1="80.00" y1="476.18" x2="720.00" y2="476.18"/>
    <line x1="80.00" y1="475.70" x2="720.00" y2="475.70"/>
    <line x1="80.00" y1="475.23" x2="720.00" y2="475.23"/>
    <line x1="80.00" y1="474.75" x2="720.00" y2="474.75"/>
    <line x1="80.00" y1="473.79" x2="720.00" y2="473.79"/>
    <line x1="80.00" y1="473.32" x2="720.00" y2="473.32"/>
    <line x1="80.00" y1="472.84" x2="720.00" y2="472.84"/>
    <line x1="80.00" y1="472.36" x2="720.00" y2="472.36"/>
    <line x1="80.00" y1="471.41" x2="720.00" y2="471.41"/>
    <line x1="80.00" y1="470.93" x2="720.00" y2="470.93"/>
    <line x1="80.00" y1="470.45" x2="720.00" y2="470.45"/>
    <line x1="80.00" y1="469.97" x2="720.00" y2="469.97"/>
    <line x1="80.00" y1="469.02" x2="720.00" y2="469.02"/>
    <line x1="80.00" y1="468.54" x2="720.00" y2="468.54"/>
    <line x1="80.00" y1="468.06" x2="720.00" y2="468.06"/>
    <line x1="80.00" y1="467.59" x2="720.00" y2="467.59"/>
    <line x1="80.00" y1="466.63" x2="720.00" y2="466.63"/>
    <line x1="80.00" y1="466.15" x2="720.00" y2="466.15"/>
    <line x1="80.00" y1="465.68" x2="720.00" y2="465.68"/>
    <line x1="80.00" y1="465.20" x2="720.00" y2="465.20"/>
    <line x1="80.00" y1="464.24" x2="720.00" y2="464.24"/>
    <line x1="80.00" y1="463.77" x2="720.00" y2="463.77"/>
    <line x1="80.00" y1="463.29" x2="720.00" y2="463.29"/>
    <line x1="80.00" y1="462.81" x2="720.00" y2="462.81"/>
    <line x1="80.00" y1="461.86" x2="720.00" y2="461.86"/>
    <line x1="80.00" y1="461.38" x2="720.00" y2="461.38"/>
    <line x1="80.00" y1="460.90" x2="720.00" y2="460.90"/>
    <line x1="80.00" y1="460.43" x2="720.00" y2="460.43"/>
    <line x1="80.00" y1="459.47" x2="720.00" y2="459.47"/>
    <line x1="80.00" y1="458.99" x2="720.00" y2="458.99"/>
    <line x1="80.00" y1="458.52" x2="720.00" y2="458.52"/>
    <line x1="80.00" y1="458.04" x2="720.00" y2="458.04"/>
    <line x1="80.00" y1="457.08" x2="720.00" y2="457.08"/>
    <line x1="80.00" y1="456.61" x2="720.00" y2="456.61"/>
    <line x1="80.00" y1="456.13" x2="720.00" y2="456.13"/>
    <line x1="80.00" y1="455.65" x2="720.00" y2="455.65"/>
    <line x1="80.00" y1="454.70" x2="720.00" y2="454.70"/>
    <line x1="80.00" y1="454.22" x2="720.00" y2="454.22"/>
    <line x1="80.00" y1="453.74" x2="720.00" y2="453.74"/>
    <line x1="80.00" y1="453.26" x2="720.00" y2="453.26"/>
    <line x1="80.00" y1="452.31" x2="720.00" y2="452.31"/>
    <line x1="80.00" y1="451.83" x2="720.00" y2="451.83"/>
    <line x1="80.00" y1="451.35" x2="720.00" y2="451.35"/>
    <line x1="80.00" y1="450.88" x2="720.00" y2="450.88"/>
    <line x1="80.00" y1="449.92" x2="720.00" y2="449.92"/>
    <line x1="80.00" y1="449.44" x2="720.00" y2="449.44"/>
    <line x1="80.00" y1="448.97" x2="720.00" y2="448.97"/>
    <line x1="80.00" y1="448.49" x2="720.00" y2="448.49"/>
    <line x1="80.00" y1="447.53" x2="720.00" y2="447.53"/>
    <line x1="80.00" y1="447.06" x2="720.00" y2="447.06"/>
    <line x1="80.00" y1="446.58" x2="720.00" y2="446.58"/>
    <line x1="80.00" y1="446.10" x2="720.00" y2="446.10"/>
    <line x1="80.00" y1="445.15" x2="720.00" y2="445.15"/>
    <line x1="80.00" y1="444.67" x2="720.00" y2="444.67"/>
    <line x1="80.00" y1="444.19" x2="720.00" y2="444.19"/>
    <line x1="80.00" y1="443.71" x2="720.00" y2="443.71"/>
    <line x1="80.00" y1="442.76" x2="720.00" y2="442.76"/>
    <line x1="80.00" y1="442.28" x2="720.00" y2="442.28"/>
    <line x1="80.00" y1="441.80" x2="720.00" y2="441.80"/>
    <line x1="80.00" y1="441.33" x2="720.00" y2="441.33"/>
    <line x1="80.00" y1="440.37" x2="720.00" y2="440.37"/>
    <line x1="80.00" y1="439.89" x2="720.00" y2="439.89"/>
    <line x1="80.00" y1="439.42" x2="720.00" y2="439.42"/>
    <line x1="80.00" y1="438.94" x2="720.00" y2="438.94"/>
    <line x1="80.00" y1="437.98" x2="720.00" y2="437.98"/>
    <line x1="80.00" y1="437.51" x2="720.00" y2="437.51"/>
    <line x1="80.00" y1="437.03" x2="720.00" y2="437.03"/>
    <line x1="80.00" y1="436.55" x2="720.00" y2="436.55"/>
    <line x1="80.00" y1="435.60" x2="720.00" y2="435.60"/>
    <line x1="80.00" y1="435.12" x2="720.00" y2="435.12"/>
    <line x1="80.00" y1="434.64" x2="720.00" y2="434.64"/>
    <line x1="80.00" y1="434.17" x2="720.00" y2="434.17"/>
    <line x1="80.00" y1="433.21" x2="720.00" y2="433.21"/>
    <line x1="80.00" y1="432.73" x2="720.00" y2="432.73"/>
    <line x1="80.00" y1="432.26" x2="720.00" y2="432.26"/>
    <line x1="80.00" y1="431.78" x2="720.00" y2="431.78"/>
    <line x1="80.00" y1="430.82" x2="720.00" y2="430.82"/>
    <line x1="80.00" y1="430.35" x2="720.00" y2="430.35"/>
    <line x1="80.00" y1="429.87" x2="720.00" y2="429.87"/>
    <line x1="80.00" y1="429.39" x2="720.00" y2="429.39"/>
    <line x1="80.00" y1="428.44" x2="720.00" y2="428.44"/>
    <line x1="80.00" y1="427.96" x2="720.00" y2="427.96"/>
    <line x1="80.00" y1="427.48" x2="720.00" y2="427.48"/>
    <line x1="80.00" y1="427.00" x2="720.00" y2="427.00"/>
    <line x1="80.00" y1="426.05" x2="720.00" y2="426.05"/>
    <line x1="80.00" y1="425.57" x2="720.00" y2="425.57"/>
    <line x1="80.00" y1="425.09" x2="720.00" y2="425.09"/>
    <line x1="80.00" y1="424.62" x2="720.00" y2="424.62"/>
    <line x1="80.00" y1="423.66" x2="720.00" y2="423.66"/>
    <line x1="80.00" y1="423.18" x2="720.00" y2="423.18"/>
    <line x1="80.00" y1="422.71" x2="720.00" y2="422.71"/>
    <line x1="80.00" y1="422.23" x2="720.00" y2="422.23"/>
    <line x1="80.00" y1="421.27" x2="720.00" y2="421.27"/>
    <line x1="80.00" y1="420.80" x2="720.00" y2="420.80"/>
    <line x1="80.00" y1="420.32" x2="720.00" y2="420.32"/>
    <line x1="80.00" y1="419.84" x2="720.00" y2="419.84"/>
    <line x1="80.00" y1="418.89" x2="720.00" y2="418.89"/>
    <line x1="80.00" y1="418.41" x2="720.00" y2="418.41"/>
    <line x1="80.00" y1="417.93" x2="720.00" y2="417.93"/>
    <line x1="80.00" y1="417.45" x2="720.00" y2="417.45"/>
    <line x1="80.00" y1="416.50" x2="720.00" y2="416.50"/>
    <line x1="80.00" y1="416.02" x2="720.00" y2="416.02"/>
    <line x1="80.00" y1="415.54" x2="720.00" y2="415.54"/>
    <line x1="80.00" y1="415.07" x2="720.00" y2="415.07"/>
    <line x1="80.00" y1="414.11" x2="720.00" y2="414.11"/>
    <line x1="80.00" y1="413.63" x2="720.00" y2="413.63"/>
    <line x1="80.00" y1="413.16" x2="720.00" y2="413.16"/>
    <line x1="80.00" y1="412.68" x2="720.00" y2="412.68"/>
    <line x1="80.00" y1="411.72" x2="720.00" y2="411.72"/>
    <line x1="80.00" y1="411.25" x2="720.00" y2="411.25"/>
    <line x1="80.00" y1="410.77" x2="720.00" y2="410.77"/>
    <line x1="80.00" y1="410.29" x2="720.00" y2="410.29"/>
    <line x1="80.00" y1="409.34" x2="720.00" y2="409.34"/>
    <line x1="80.00" y1="408.86" x2="720.00" y2="408.86"/>
    <line x1="80.00" y1="408.38" x2="720.00" y2="408.38"/>
    <line x1="80.00" y1="407.90" x2="720.00" y2="407.90"/>
    <line x1="80.00" y1="406.95" x2="720.00" y2="406.95"/>
    <line x1="80.00" y1="406.47" x2="720.00" y2="406.47"/>
    <line x1="80.00" y1="406.00" x2="720.00" y2="406.00"/>
    <line x1="80.00" y1="405.52" x2="720.00" y2="405.52"/>
    <line x1="80.00" y1="404.56" x2="720.00" y2="404.56"/>
    <line x1="80.00" y1="404.09" x2="720.00" y2="404.09"/>
    <line x1="80.00" y1="403.61" x2="720.00" y2="403.61"/>
    <line x1="80.00" y1="403.13" x2="720.00" y2="403.13"/>
    <line x1="80.00" y1="402.18" x2="720.00" y2="402.18"/>
    <line x1="80.00" y1="401.70" x2="720.00" y2="401.70"/>
    <line x1="80.00" y1="401.22" x2="720.00" y2="401.22"/>
    <line x1="80.00" y1="400.74" x2="720.00" y2="400.74"/>
    <line x1="80.00" y1="399.79" x2="720.00" y2="399.79"/>
    <line x1="80.00" y1="399.31" x2="720.00" y2="399.31"/>
    <line x1="80.00" y1="398.83" x2="720.00" y2="398.83"/>
    <line x1="80.00" y1="398.36" x2="720.00" y2="398.36"/>
    <line x1="80.00" y1="397.40" x2="720.00" y2="397.40"/>
    <line x1="80.00" y1="396.92" x2="720.00" y2="396.92"/>
    <line x1="80.00" y1="396.45" x2="720.00" y2="396.45"/>
    <line x1="80.00" y1="395.97" x2="720.00" y2="395.97"/>
    <line x1="80.00" y1="395.01" x2="720.00" y2="395.01"/>
    <line x1="80.00" y1="394.54" x2="720.00" y2="394.54"/>
    <line x1="80.00" y1="394.06" x2="720.00" y2="394.06"/>
    <line x1="80.00" y1="393.58" x2="720.00" y2="393.58"/>
    <line x1="80.00" y1="392.63" x2="720.00" y2="392.63"/>
    <line x1="80.00" y1="392.15" x2="720.00" y2="392.15"/>
    <line x1="80.00" y1="391.67" x2="720.00" y2="391.67"/>
    <line x1="80.00" y1="391.19" x2="720.00" y2="391.19"/>
    <line x1="80.00" y1="390.24" x2="720.00" y2="390.24"/>
    <line x1="80.00" y1="389.76" x2="720.00" y2="389.76"/>
    <line x1="80.00" y1="389.28" x2="720.00" y2="389.28"/>
    <line x1="80.00" y1="388.81" x2="720.00" y2="388.81"/>
    <line x1="80.00" y1="387.85" x2="720.00" y2="387.85"/>
    <line x1="80.00" y1="387.37" x2="720.00" y2="387.37"/>
    <line x1="80.00" y1="386.90" x2="720.00" y2="386.90"/>
    <line x1="80.00" y1="386.42" x2="720.00" y2="386.42"/>
    <line x1="80.00" y1="385.46" x2="720.00" y2="385.46"/>
    <line x1="80.00" y1="384.99" x2="720.00" y2="384.99"/>
    <line x1="80.00" y1="384.51" x2="720.00" y2="384.51"/>
    <line x1="80.00" y1="384.03" x2="720.00" y2="384.03"/>
    <line x1="80.00" y1="383.08" x2="720.00" y2="383.08"/>
    <line x1="80.00" y1="382.60" x2="720.00" y2="382.60"/>
    <line x1="80.00" y1="382.12" x2="720.00" y2="382.12"/>
    <line x1="80.00" y1="381.64" x2="720.00" y2="381.64"/>
    <line x1="80.00" y1="380.69" x2="720.00" y2="380.69"/>
    <line x1="80.00" y1="380.21" x2="720.00" y2="380.21"/>
    <line x1="80.00" y1="379.74" x2="720.00" y2="379.74"/>
    <line x1="80.00" y1="379.26" x2="720.00" y2="379.26"/>
    <line x1="80.00" y1="378.30" x2="720.00" y2="378.30"/>
    <line x1="80.00" y1="377.83" x2="720.00" y2="377.83"/>
    <line x1="80.00" y1="377.35" x2="720.00" y2="377.35"/>
    <line x1="80.00" y1="376.87" x2="720.00" y2="376.87"/>
    <line x1="80.00" y1="375.92" x2="720.00" y2="375.92"/>
    <line x1="80.00" y1="375.44" x2="720.00" y2="375.44"/>
    <line x1="80.00" y1="374.96" x2="720.00" y2="374.96"/>
    <line x1="80.00" y1="374.48" x2="720.00" y2="374.48"/>
    <line x1="80.00" y1="373.53" x2="720.00" y2="373.53"/>
    <line x1="80.00" y1="373.05" x2="720.00" y2="373.05"/>
    <line x1="80.00" y1="372.57" x2="720.00" y2="372.57"/>
    <line x1="80.00" y1="372.10" x2="720.00" y2="372.10"/>
    <line x1="80.00" y1="371.14" x2="720.00" y2="371.14"/>
    <line x1="80.00" y1="370.66" x2="720.00" y2="370.66"/>
    <line x1="80.00" y1="370.19" x2="720.00" y2="370.19"/>
    <line x1="80.00" y1="369.71" x2="720.00" y2="369.71"/>
    <line x1="80.00" y1="368.75" x2="720.00" y2="368.75"/>
    <line x1="80.00" y1="368.28" x2="720.00" y2="368.28"/>
    <line x1="80.00" y1="367.80" x2="720.00" y2="367.80"/>
    <line x1="80.00" y1="367.32" x2="720.00" y2="367.32"/>
    <line x1="80.00" y1="366.37" x2="720.00" y2="366.37"/>
    <line x1="80.00" y1="365.89" x2="720.00" y2="365.89"/>
    <line x1="80.00" y1="365.41" x2="720.00" y2="365.41"/>
    <line x1="80.00" y1="364.93" x2="720.00" y2="364.93"/>
    <line x1="80.00" y1="363.98" x2="720.00" y2="363.98"/>
    <line x1="80.00" y1="363.50" x2="720.00" y2="363.50"/>
    <line x1="80.00" y1="363.02" x2="720.00" y2="363.02"/>
    <line x1="80.00" y1="362.55" x2="720.00" y2="362.55"/>
    <line x1="80.00" y1="361.59" x2="720.00" y2="361.59"/>
    <line x1="80.00" y1="361.11" x2="720.00" y2="361.11"/>
    <line x1="80.00" y1="360.64" x2="720.00" y2="360.64"/>
    <line x1="80.00" y1="360.16" x2="720.00" y2="360.16"/>
    <line x1="80.00" y1="359.20" x2="720.00" y2="359.20"/>
    <line x1="80.00" y1="358.73" x2="720.00" y2="358.73"/>
    <line x1="80.00" y1="358.25" x2="720.00" y2="358.25"/>
    <line x1="80.00" y1="357.77" x2="720.00" y2="357.77"/>
    <line x1="80.00" y1="356.82" x2="720.00" y2="356.82"/>
    <line x1="80.00" y1="356.34" x2="720.00" y2="356.34"/>
    <line x1="80.00" y1="355.86" x2="720.00" y2="355.86"/>
    <line x1="80.00" y1="355.38" x2="720.00" y2="355.38"/>
    <line x1="80.00" y1="354.43" x2="720.00" y2="354.43"/>
    <line x1="80.00" y1="353.95" x2="720.00" y2="353.95"/>
    <line x1="80.00" y1="353.48" x2="720.00" y2="353.48"/>
    <line x1="80.00" y1="353.00" x2="720.00" y2="353.00"/>
    <line x1="80.00" y1="352.04" x2="720.00" y2="352.04"/>
    <line x1="80.00" y1="351.57" x2="720.00" y2="351.57"/>
    <line x1="80.00" y1="351.09" x2="720.00" y2="351.09"/>
    <line x1="80.00" y1="350.61" x2="720.00" y2="350.61"/>
    <line x1="80.00" y1="349.66" x2="720.00" y2="349.66"/>
    <line x1="80.00" y1="349.18" x2="720.00" y2="349.18"/>
    <line x1="80.00" y1="348.70" x2="720.00" y2="348.70"/>
    <line x1="80.00" y1="348.22" x2="720.00" y2="348.22"/>
    <line x1="80.00" y1="347.27" x2="720.00" y2="347.27"/>
    <line x1="80.00" y1="346.79" x2="720.00" y2="346.79"/>
    <line x1="80.00" y1="346.31" x2="720.00" y2="346.31"/>
    <line x1="80.00" y1="345.84" x2="720.00" y2="345.84"/>
    <line x1="80.00" y1="344.88" x2="720.00" y2="344.88"/>
    <line x1="80.00" y1="344.40" x2="720.00" y2="344.40"/>
    <line x1="80.00" y1="343.93" x2="720.00" y2="343.93"/>
    <line x1="80.00" y1="343.45" x2="720.00" y2="343.45"/>
    <line x1="80.00" y1="342.49" x2="720.00" y2="342.49"/>
    <line x1="80.00" y1="342.02" x2="720.00" y2="342.02"/>
    <line x1="80.00" y1="341.54" x2="720.00" y2="341.54"/>
    <line x1="80.00" y1="341.06" x2="720.00" y2="341.06"/>
    <line x1="80.00" y1="340.11" x2="720.00" y2="340.11"/>
    <line x1="80.00" y1="339.63" x2="720.00" y2="339.63"/>
    <line x1="80.00" y1="339.15" x2="720.00" y2="339.15"/>
    <line x1="80.00" y1="338.67" x2="720.00" y2="338.67"/>
    <line x1="80.00" y1="337.72" x2="720.00" y2="337.72"/>
    <line x1="80.00" y1="337.24" x2="720.00" y2="337.24"/>
    <line x1="80.00" y1="336.76" x2="720.00" y2="336.76"/>
    <line x1="80.00" y1="336.29" x2="720.00" y2="336.29"/>
    <line x1="80.00" y1="335.33" x2="720.00" y2="335.33"/>
    <line x1="80.00" y1="334.85" x2="720.00" y2="334.85"/>
    <line x1="80.00" y1="334.38" x2="720.00" y2="334.38"/>
    <line x1="80.00" y1="333.90" x2="720.00" y2="333.90"/>
    <line x1="80.00" y1="332.94" x2="720.00" y2="332.94"/>
    <line x1="80.00" y1="332.47" x2="720.00" y2="332.47"/>
    <line x1="80.00" y1="331.99" x2="720.00" y2="331.99"/>
    <line x1="80.00" y1="331.51" x2="720.00" y2="331.51"/>
    <line x1="80.00" y1="330.56" x2="720.00" y2="330.56"/>
    <line x1="80.00" y1="330.08" x2="720.00" y2="330.08"/>
    <line x1="80.00" y1="329.60" x2="720.00" y2="329.60"/>
    <line x1="80.00" y1="329.12" x2="720.00" y2="329.12"/>
    <line x1="80.00" y1="328.17" x2="720.00" y2="328.17"/>
    <line x1="80.00" y1="327.69" x2="720.00" y2="327.69"/>
    <line x1="80.00" y1="327.21" x2="720.00" y2="327.21"/>
    <line x1="80.00" y1="326.74" x2="720.00" y2="326.74"/>
    <line x1="80.00" y1="325.78" x2="720.00" y2="325.78"/>
    <line x1="80.00" y1="325.31" x2="720.00" y2="325.31"/>
    <line x1="80.00" y1="324.83" x2="720.00" y2="324.83"/>
    <line x1="80.00" y1="324.35" x2="720.00" y2="324.35"/>
    <line x1="80.00" y1="323.40" x2="720.00" y2="323.40"/>
    <line x1="80.00" y1="322.92" x2="720.00" y2="322.92"/>
    <line x1="80.00" y1="322.44" x2="720.00" y2="322.44"/>
    <line x1="80.00" y1="321.96" x2="720.00" y2="321.96"/>
    <line x1="80.00" y1="321.01" x2="720.00" y2="321.01"/>
    <line x1="80.00" y1="320.53" x2="720.00" y2="320.53"/>
    <line x1="80.00" y1="320.05" x2="720.00" y2="320.05"/>
    <line x1="80.00" y1="319.58" x2="720.00" y2="319.58"/>
    <line x1="80.00" y1="318.62" x2="720.00" y2="318.62"/>
    <line x1="80.00" y1="318.14" x2="720.00" y2="318.14"/>
    <line x1="80.00" y1="317.67" x2="720.00" y2="317.67"/>
    <line x1="80.00" y1="317.19" x2="720.00" y2="317.19"/>
    <line x1="80.00" y1="316.23" x2="720.00" y2="316.23"/>
    <line x1="80.00" y1="315.76" x2="720.00" y2="315.76"/>
    <line x1="80.00" y1="315.28" x2="720.00" y2="315.28"/>
    <line x1="80.00" y1="314.80" x2="720.00" y2="314.80"/>
    <line x1="80.00" y1="313.85" x2="720.00" y2="313.85"/>
    <line x1="80.00" y1="313.37" x2="720.00" y2="313.37"/>
    <line x1="80.00" y1="312.89" x2="720.00" y2="312.89"/>
    <line x1="80.00" y1="312.41" x2="720.00" y2="312.41"/>
    <line x1="80.00" y1="311.46" x2="720.00" y2="311.46"/>
    <line x1="80.00" y1="310.98" x2="720.00" y2="310.98"/>
    <line x1="80.00" y1="310.50" x2="720.00" y2="310.50"/>
    <line x1="80.00" y1="310.03" x2="720.00" y2="310.03"/>
    <line x1="80.00" y1="309.07" x2="720.00" y2="309.07"/>
    <line x1="80.00" y1="308.59" x2="720.00" y2="308.59"/>
    <line x1="80.00" y1="308.12" x2="720.00" y2="308.12"/>
    <line x1="80.00" y1="307.64" x2="720.00" y2="307.64"/>
    <line x1="80.00" y1="306.68" x2="720.00" y2="306.68"/>
    <line x1="80.00" y1="306.21" x2="720.00" y2="306.21"/>
    <line x1="80.00" y1="305.73" x2="720.00" y2="305.73"/>
    <line x1="80.00" y1="305.25" x2="720.00" y2="305.25"/>
    <line x1="80.00" y1="304.30" x2="720.00" y2="304.30"/>
    <line x1="80.00" y1="303.82" x2="720.00" y2="303.82"/>
    <line x1="80.00" y1="303.34" x2="720.00" y2="303.34"/>
    <line x1="80.00" y1="302.86" x2="720.00" y2="302.86"/>
    <line x1="80.00" y1="301.91" x2="720.00" y2="301.91"/>
    <line x1="80.00" y1="301.43" x2="720.00" y2="301.43"/>
    <line x1="80.00" y1="300.95" x2="720.00" y2="300.95"/>
    <line x1="80.00" y1="300.48" x2="720.00" y2="300.48"/>
    <line x1="80.00" y1="299.52" x2="720.00" y2="299.52"/>
    <line x1="80.00" y1="299.05" x2="720.00" y2="299.05"/>
    <line x1="80.00" y1="298.57" x2="720.00" y2="298.57"/>
    <line x1="80.00" y1="298.09" x2="720.00" y2="298.09"/>
    <line x1="80.00" y1="297.14" x2="720.00" y2="297.14"/>
    <line x1="80.00" y1="296.66" x2="720.00" y2="296.66"/>
    <line x1="80.00" y1="296.18" x2="720.00" y2="296.18"/>
    <line x1="80.00" y1="295.70" x2="720.00" y2="295.70"/>
    <line x1="80.00" y1="294.75" x2="720.00" y2="294.75"/>
    <line x1="80.00" y1="294.27" x2="720.00" y2="294.27"/>
    <line x1="80.00" y1="293.79" x2="720.00" y2="293.79"/>
    <line x1="80.00" y1="293.32" x2="720.00" y2="293.32"/>
    <line x1="80.00" y1="292.36" x2="720.00" y2="292.36"/>
    <line x1="80.00" y1="291.88" x2="720.00" y2="291.88"/>
    <line x1="80.00" y1="291.41" x2="720.00" y2="291.41"/>
    <line x1="80.00" y1="290.93" x2="720.00" y2="290.93"/>
    <line x1="80.00" y1="289.97" x2="720.00" y2="289.97"/>
    <line x1="80.00" y1="289.50" x2="720.00" y2="289.50"/>
    <line x1="80.00" y1="289.02" x2="720.00" y2="289.02"/>
    <line x1="80.00" y1="288.54" x2="720.00" y2="288.54"/>
    <line x1="80.00" y1="287.59" x2="720.00" y2="287.59"/>
    <line x1="80.00" y1="287.11" x2="720.00" y2="287.11"/>
    <line x1="80.00" y1="286.63" x2="720.00" y2="286.63"/>
    <line x1="80.00" y1="286.15" x2="720.00" y2="286.15"/>
    <line x1="80.00" y1="285.20" x2="720.00" y2="285.20"/>
    <line x1="80.00" y1="284.72" x2="720.00" y2="284.72"/>
    <line x1="80.00" y1="284.24" x2="720.00" y2="284.24"/>
    <line x1="80.00" y1="283.77" x2="720.00" y2="283.77"/>
    <line x1="80.00" y1="282.81" x2="720.00" y2="282.81"/>
    <line x1="80.00" y1="282.33" x2="720.00" y2="282.33"/>
    <line x1="80.00" y1="281.86" x2="720.00" y2="281.86"/>
    <line x1="80.00" y1="281.38" x2="720.00" y2="281.38"/>
    <line x1="80.00" y1="280.42" x2="720.00" y2="280.42"/>
    <line x1="80.00" y1="279.95" x2="720.00" y2="279.95"/>
    <line x1="80.00" y1="279.47" x2="720.00" y2="279.47"/>
    <line x1="80.00" y1="278.99" x2="720.00" y2="278.99"/>
    <line x1="80.00" y1="278.04" x2="720.00" y2="278.04"/>
    <line x1="80.00" y1="277.56" x2="720.00" y2="277.56"/>
    <line x1="80.00" y1="277.08" x2="720.00" y2="277.08"/>
    <line x1="80.00" y1="276.60" x2="720.00" y2="276.60"/>
    <line x1="80.00" y1="275.65" x2="720.00" y2="275.65"/>
    <line x1="80.00" y1="275.17" x2="720.00" y2="275.17"/>
    <line x1="80.00" y1="274.69" x2="720.00" y2="274.69"/>
    <line x1="80.00" y1="274.22" x2="720.00" y2="274.22"/>
    <line x1="80.00" y1="273.26" x2="720.00" y2="273.26"/>
    <line x1="80.00" y1="272.79" x2="720.00" y2="272.79"/>
    <line x1="80.00" y1="272.31" x2="720.00" y2="272.31"/>
    <line x1="80.00" y1="271.83" x2="720.00" y2="271.83"/>
    <line x1="80.00" y1="270.88" x2="720.00" y2="270.88"/>
    <line x1="80.00" y1="270.40" x2="720.00" y2="270.40"/>
    <line x1="80.00" y1="269.92" x2="720.00" y2="269.92"/>
    <line x1="80.00" y1="269.44" x2="720.00" y2="269.44"/>
    <line x1="80.00" y1="268.49" x2="720.00" y2="268.49"/>
    <line x1="80.00" y1="268.01" x2="720.00" y2="268.01"/>
    <line x1="80.00" y1="267.53" x2="720.00" y2="267.53"/>
    <line x1="80.00" y1="267.06" x2="720.00" y2="267.06"/>
    <line x1="80.00" y1="266.10" x2="720.00" y2="266.10"/>
    <line x1="80.00" y1="265.62" x2="720.00" y2="265.62"/>
    <line x1="80.00" y1="265.15" x2="720.00" y2="265.15"/>
    <line x1="80.00" y1="264.67" x2="720.00" y2="264.67"/>
    <line x1="80.00" y1="263.71" x2="720.00" y2="263.71"/>
    <line x1="80.00" y1="263.24" x2="720.00" y2="263.24"/>
    <line x1="80.00" y1="262.76" x2="720.00" y2="262.76"/>
    <line x1="80.00" y1="262.28" x2="720.00" y2="262.28"/>
    <line x1="80.00" y1="261.33" x2="720.00" y2="261.33"/>
    <line x1="80.00" y1="260.85" x2="720.00" y2="260.85"/>
    <line x1="80.00" y1="260.37" x2="720.00" y2="260.37"/>
    <line x1="80.00" y1="259.89" x2="720.00" y2="259.89"/>
    <line x1="80.00" y1="258.94" x2="720.00" y2="258.94"/>
    <line x1="80.00" y1="258.46" x2="720.00" y2="258.46"/>
    <line x1="80.00" y1="257.98" x2="720.00" y2="257.98"/>
    <line x1="80.00" y1="257.51" x2="720.00" y2="257.51"/>
    <line x1="80.00" y1="256.55" x2="720.00" y2="256.55"/>
    <line x1="80.00" y1="256.07" x2="720.00" y2="256.07"/>
    <line x1="80.00" y1="255.60" x2="720.00" y2="255.60"/>
    <line x1="80.00" y1="255.12" x2="720.00" y2="255.12"/>
    <line x1="80.00" y1="254.16" x2="720.00" y2="254.16"/>
    <line x1="80.00" y1="253.69" x2="720.00" y2="253.69"/>
    <line x1="80.00" y1="253.21" x2="720.00" y2="253.21"/>
    <line x1="80.00" y1="252.73" x2="720.00" y2="252.73"/>
    <line x1="80.00" y1="251.78" x2="720.00" y2="251.78"/>
    <line x1="80.00" y1="251.30" x2="720.00" y2="251.30"/>
    <line x1="80.00" y1="250.82" x2="720.00" y2="250.82"/>
    <line x1="80.00" y1="250.34" x2="720.00" y2="250.34"/>
    <line x1="80.00" y1="249.39" x2="720.00" y2="249.39"/>
    <line x1="80.00" y1="248.91" x2="720.00" y2="248.91"/>
    <line x1="80.00" y1="248.43" x2="720.00" y2="248.43"/>
    <line x1="80.00" y1="247.96" x2="720.00" y2="247.96"/>
    <line x1="80.00" y1="247.00" x2="720.00" y2="247.00"/>
    <line x1="80.00" y1="246.52" x2="720.00" y2="246.52"/>
    <line x1="80.00" y1="246.05" x2="720.00" y2="246.05"/>
    <line x1="80.00" y1="245.57" x2="720.00" y2="245.57"/>
    <line x1="80.00" y1="244.62" x2="720.00" y2="244.62"/>
    <line x1="80.00" y1="244.14" x2="720.00" y2="244.14"/>
    <line x1="80.00" y1="243.66" x2="720.00" y2="243.66"/>
    <line x1="80.00" y1="243.18" x2="720.00" y2="243.18"/>
    <line x1="80.00" y1="242.23" x2="720.00" y2="242.23"/>
    <line x1="80.00" y1="241.75" x2="720.00" y2="241.75"/>
    <line x1="80.00" y1="241.27" x2="720.00" y2="241.27"/>
    <line x1="80.00" y1="240.80" x2="720.00" y2="240.80"/>
    <line x1="80.00" y1="239.84" x2="720.00" y2="239.84"/>
    <line x1="80.00" y1="239.36" x2="720.00" y2="239.36"/>
    <line x1="80.00" y1="238.89" x2="720.00" y2="238.89"/>
    <line x1="80.00" y1="238.41" x2="720.00" y2="238.41"/>
    <line x1="80.00" y1="237.45" x2="720.00" y2="237.45"/>
    <line x1="80.00" y1="236.98" x2="720.00" y2="236.98"/>
    <line x1="80.00" y1="236.50" x2="720.00" y2="236.50"/>
    <line x1="80.00" y1="236.02" x2="720.00" y2="236.02"/>
    <line x1="80.00" y1="235.07" x2="720.00" y2="235.07"/>
    <line x1="80.00" y1="234.59" x2="720.00" y2="234.59"/>
    <line x1="80.00" y1="234.11" x2="720.00" y2="234.11"/>
    <line x1="80.00" y1="233.63" x2="720.00" y2="233.63"/>
    <line x1="80.00" y1="232.68" x2="720.00" y2="232.68"/>
    <line x1="80.00" y1="232.20" x2="720.00" y2="232.20"/>
    <line x1="80.00" y1="231.72" x2="720.00" y2="231.72"/>
    <line x1="80.00" y1="231.25" x2="720.00" y2="231.25"/>
    <line x1="80.00" y1="230.29" x2="720.00" y2="230.29"/>
    <line x1="80.00" y1="229.81" x2="720.00" y2="229.81"/>
    <line x1="80.00" y1="229.34" x2="720.00" y2="229.34"/>
    <line x1="80.00" y1="228.86" x2="720.00" y2="228.86"/>
    <line x1="80.00" y1="227.90" x2="720.00" y2="227.90"/>
    <line x1="80.00" y1="227.43" x2="720.00" y2="227.43"/>
    <line x1="80.00" y1="226.95" x2="720.00" y2="226.95"/>
    <line x1="80.00" y1="226.47" x2="720.00" y2="226.47"/>
    <line x1="80.00" y1="225.52" x2="720.00" y2="225.52"/>
    <line x1="80.00" y1="225.04" x2="720.00" y2="225.04"/>
    <line x1="80.00" y1="224.56" x2="720.00" y2="224.56"/>
    <line x1="80.00" y1="224.08" x2="720.00" y2="224.08"/>
    <line x1="80.00" y1="223.13" x2="720.00" y2="223.13"/>
    <line x1="80.00" y1="222.65" x2="720.00" y2="222.65"/>
    <line x1="80.00" y1="222.17" x2="720.00" y2="222.17"/>
    <line x1="80.00" y1="221.70" x2="720.00" y2="221.70"/>
    <line x1="80.00" y1="220.74" x2="720.00" y2="220.74"/>
    <line x1="80.00" y1="220.26" x2="720.00" y2="220.26"/>
    <line x1="80.00" y1="219.79" x2="720.00" y2="219.79"/>
    <line x1="80.00" y1="219.31" x2="720.00" y2="219.31"/>
    <line x1="80.00" y1="218.36" x2="720.00" y2="218.36"/>
    <line x1="80.00" y1="217.88" x2="720.00" y2="217.88"/>
    <line x1="80.00" y1="217.40" x2="720.00" y2="217.40"/>
    <line x1="80.00" y1="216.92" x2="720.00" y2="216.92"/>
    <line x1="80.00" y1="215.97" x2="720.00" y2="215.97"/>
    <line x1="80.00" y1="215.49" x2="720.00" y2="215.49"/>
    <line x1="80.00" y1="215.01" x2="720.00" y2="215.01"/>
    <line x1="80.00" y1="214.54" x2="720.00" y2="214.54"/>
    <line x1="80.00" y1="213.58" x2="720.00" y2="213.58"/>
    <line x1="80.00" y1="213.10" x2="720.00" y2="213.10"/>
    <line x1="80.00" y1="212.63" x2="720.00" y2="212.63"/>
    <line x1="80.00" y1="212.15" x2="720.00" y2="212.15"/>
    <line x1="80.00" y1="211.19" x2="720.00" y2="211.19"/>
    <line x1="80.00" y1="210.72" x2="720.00" y2="210.72"/>
    <line x1="80.00" y1="210.24" x2="720.00" y2="210.24"/>
    <line x1="80.00" y1="209.76" x2="720.00" y2="209.76"/>
    <line x1="80.00" y1="208.81" x2="720.00" y2="208.81"/>
    <line x1="80.00" y1="208.33" x2="720.00" y2="208.33"/>
    <line x1="80.00" y1="207.85" x2="720.00" y2="207.85"/>
    <line x1="80.00" y1="207.37" x2="720.00" y2="207.37"/>
    <line x1="80.00" y1="206.42" x2="720.00" y2="206.42"/>
    <line x1="80.00" y1="205.94" x2="720.00" y2="205.94"/>
    <line x1="80.00" y1="205.46" x2="720.00" y2="205.46"/>
    <line x1="80.00" y1="204.99" x2="720.00" y2="204.99"/>
    <line x1="80.00" y1="204.03" x2="720.00" y2="204.03"/>
    <line x1="80.00" y1="203.55" x2="720.00" y2="203.55"/>
    <line x1="80.00" y1="203.08" x2="720.00" y2="203.08"/>
    <line x1="80.00" y1="202.60" x2="720.00" y2="202.60"/>
    <line x1="80.00" y1="201.64" x2="720.00" y2="201.64"/>
    <line x1="80.00" y1="201.17" x2="720.00" y2="201.17"/>
    <line x1="80.00" y1="200.69" x2="720.00" y2="200.69"/>
    <line x1="80.00" y1="200.21" x2="720.00" y2="200.21"/>
    <line x1="80.00" y1="199.26" x2="720.00" y2="199.26"/>
    <line x1="80.00" y1="198.78" x2="720.00" y2="198.78"/>
    <line x1="80.00" y1="198.30" x2="720.00" y2="198.30"/>
    <line x1="80.00" y1="197.82" x2="720.00" y2="197.82"/>
    <line x1="80.00" y1="196.87" x2="720.00" y2="196.87"/>
    <line x1="80.00" y1="196.39" x2="720.00" y2="196.39"/>
    <line x1="80.00" y1="195.91" x2="720.00" y2="195.91"/>
    <line x1="80.00" y1="195.44" x2="720.00" y2="195.44"/>
    <line x1="80.00" y1="194.48" x2="720.00" y2="194.48"/>
    <line x1="80.00" y1="194.00" x2="720.00" y2="194.00"/>
    <line x1="80.00" y1="193.53" x2="720.00" y2="193.53"/>
    <line x1="80.00" y1="193.05" x2="720.00" y2="193.05"/>
    <line x1="80.00" y1="192.10" x2="720.00" y2="192.10"/>
    <line x1="80.00" y1="191.62" x2="720.00" y2="191.62"/>
    <line x1="80.00" y1="191.14" x2="720.00" y2="191.14"/>
    <line x1="80.00" y1="190.66" x2="720.00" y2="190.66"/>
    <line x1="80.00" y1="189.71" x2="720.00" y2="189.71"/>
    <line x1="80.00" y1="189.23" x2="720.00" y2="189.23"/>
    <line x1="80.00" y1="188.75" x2="720.00" y2="188.75"/>
    <line x1="80.00" y1="188.28" x2="720.00" y2="188.28"/>
    <line x1="80.00" y1="187.32" x2="720.00" y2="187.32"/>
    <line x1="80.00" y1="186.84" x2="720.00" y2="186.84"/>
    <line x1="80.00" y1="186.37" x2="720.00" y2="186.37"/>
    <line x1="80.00" y1="185.89" x2="720.00" y2="185.89"/>
    <line x1="80.00" y1="184.93" x2="720.00" y2="184.93"/>
    <line x1="80.00" y1="184.46" x2="720.00" y2="184.46"/>
    <line x1="80.00" y1="183.98" x2="720.00" y2="183.98"/>
    <line x1="80.00" y1="183.50" x2="720.00" y2="183.50"/>
    <line x1="80.00" y1="182.55" x2="720.00" y2="182.55"/>
    <line x1="80.00" y1="182.07" x2="720.00" y2="182.07"/>
    <line x1="80.00" y1="181.59" x2="720.00" y2="181.59"/>
    <line x1="80.00" y1="181.11" x2="720.00" y2="181.11"/>
    <line x1="80.00" y1="180.16" x2="720.00" y2="180.16"/>
    <line x1="80.00" y1="179.68" x2="720.00" y2="179.68"/>
    <line x1="80.00" y1="179.20" x2="720.00" y2="179.20"/>
    <line x1="80.00" y1="178.73" x2="720.00" y2="178.73"/>
    <line x1="80.00" y1="177.77" x2="720.00" y2="177.77"/>
    <line x1="80.00" y1="177.29" x2="720.00" y2="177.29"/>
    <line x1="80.00" y1="176.82" x2="720.00" y2="176.82"/>
    <line x1="80.00" y1="176.34" x2="720.00" y2="176.34"/>
    <line x1="80.00" y1="175.38" x2="720.00" y2="175.38"/>
    <line x1="80.00" y1="174.91" x2="720.00" y2="174.91"/>
    <line x1="80.00" y1="174.43" x2="720.00" y2="174.43"/>
    <line x1="80.00" y1="173.95" x2="720.00" y2="173.95"/>
    <line x1="80.00" y1="173.00" x2="720.00" y2="173.00"/>
    <line x1="80.00" y1="172.52" x2="720.00" y2="172.52"/>
    <line x1="80.00" y1="172.04" x2="720.00" y2="172.04"/>
    <line x1="80.00" y1="171.56" x2="720.00" y2="171.56"/>
    <line x1="80.00" y1="170.61" x2="720.00" y2="170.61"/>
    <line x1="80.00" y1="170.13" x2="720.00" y2="170.13"/>
    <line x1="80.00" y1="169.65" x2="720.00" y2="169.65"/>
    <line x1="80.00" y1="169.18" x2="720.00" y2="169.18"/>
    <line x1="80.00" y1="168.22" x2="720.00" y2="168.22"/>
    <line x1="80.00" y1="167.74" x2="720.00" y2="167.74"/>
    <line x1="80.00" y1="167.27" x2="720.00" y2="167.27"/>
    <line x1="80.00" y1="166.79" x2="720.00" y2="166.79"/>
    <line x1="80.00" y1="165.83" x2="720.00" y2="165.83"/>
    <line x1="80.00" y1="165.36" x2="720.00" y2="165.36"/>
    <line x1="80.00" y1="164.88" x2="720.00" y2="164.88"/>
    <line x1="80.00" y1="164.40" x2="720.00" y2="164.40"/>
    <line x1="80.00" y1="163.45" x2="720.00" y2="163.45"/>
    <line x1="80.00" y1="162.97" x2="720.00" y2="162.97"/>
    <line x1="80.00" y1="162.49" x2="720.00" y2="162.49"/>
    <line x1="80.00" y1="162.02" x2="720.00" y2="162.02"/>
    <line x1="80.00" y1="161.06" x2="720.00" y2="161.06"/>
    <line x1="80.00" y1="160.58" x2="720.00" y2="160.58"/>
    <line x1="80.00" y1="160.11" x2="720.00" y2="160.11"/>
    <line x1="80.00" y1="159.63" x2="720.00" y2="159.63"/>
    <line x1="80.00" y1="158.67" x2="720.00" y2="158.67"/>
    <line x1="80.00" y1="158.20" x2="720.00" y2="158.20"/>
    <line x1="80.00" y1="157.72" x2="720.00" y2="157.72"/>
    <line x1="80.00" y1="157.24" x2="720.00" y2="157.24"/>
    <line x1="80.00" y1="156.29" x2="720.00" y2="156.29"/>
    <line x1="80.00" y1="155.81" x2="720.00" y2="155.81"/>
    <line x1="80.00" y1="155.33" x2="720.00" y2="155.33"/>
    <line x1="80.00" y1="154.85" x2="720.00" y2="154.85"/>
    <line x1="80.00" y1="153.90" x2="720.00" y2="153.90"/>
    <line x1="80.00" y1="153.42" x2="720.00" y2="153.42"/>
    <line x1="80.00" y1="152.94" x2="720.00" y2="152.94"/>
    <line x1="80.00" y1="152.47" x2="720.00" y2="152.47"/>
    <line x1="80.00" y1="151.51" x2="720.00" y2="151.51"/>
    <line x1="80.00" y1="151.03" x2="720.00" y2="151.03"/>
    <line x1="80.00" y1="150.56" x2="720.00" y2="150.56"/>
    <line x1="80.00" y1="150.08" x2="720.00" y2="150.08"/>
    <line x1="80.00" y1="149.12" x2="720.00" y2="149.12"/>
    <line x1="80.00" y1="148.65" x2="720.00" y2="148.65"/>
    <line x1="80.00" y1="148.17" x2="720.00" y2="148.17"/>
    <line x1="80.00" y1="147.69" x2="720.00" y2="147.69"/>
    <line x1="80.00" y1="146.74" x2="720.00" y2="146.74"/>
    <line x1="80.00" y1="146.26" x2="720.00" y2="146.26"/>
    <line x1="80.00" y1="145.78" x2="720.00" y2="145.78"/>
    <line x1="80.00" y1="145.30" x2="720.00" y2="145.30"/>
    <line x1="80.00" y1="144.35" x2="720.00" y2="144.35"/>
    <line x1="80.00" y1="143.87" x2="720.00" y2="143.87"/>
    <line x1="80.00" y1="143.39" x2="720.00" y2="143.39"/>
    <line x1="80.00" y1="142.92" x2="720.00" y2="142.92"/>
    <line x1="80.00" y1="141.96" x2="720.00" y2="141.96"/>
    <line x1="80.00" y1="141.48" x2="720.00" y2="141.48"/>
    <line x1="80.00" y1="141.01" x2="720.00" y2="141.01"/>
    <line x1="80.00" y1="140.53" x2="720.00" y2="140.53"/>
    <line x1="80.00" y1="139.57" x2="720.00" y2="139.57"/>
    <line x1="80.00" y1="139.10" x2="720.00" y2="139.10"/>
    <line x1="80.00" y1="138.62" x2="720.00" y2="138.62"/>
    <line x1="80.00" y1="138.14" x2="720.00" y2="138.14"/>
    <line x1="80.00" y1="137.19" x2="720.00" y2="137.19"/>
    <line x1="80.00" y1="136.71" x2="720.00" y2="136.71"/>
    <line x1="80.00" y1="136.23" x2="720.00" y2="136.23"/>
    <line x1="80.00" y1="135.76" x2="720.00" y2="135.76"/>
    <line x1="80.00" y1="134.80" x2="720.00" y2="134.80"/>
    <line x1="80.00" y1="134.32" x2="720.00" y2="134.32"/>
    <line x1="80.00" y1="133.85" x2="720.00" y2="133.85"/>
    <line x1="80.00" y1="133.37" x2="720.00" y2="133.37"/>
    <line x1="80.00" y1="132.41" x2="720.00" y2="132.41"/>
    <line x1="80.00" y1="131.94" x2="720.00" y2="131.94"/>
    <line x1="80.00" y1="131.46" x2="720.00" y2="131.46"/>
    <line x1="80.00" y1="130.98" x2="720.00" y2="130.98"/>
    <line x1="80.00" y1="130.03" x2="720.00" y2="130.03"/>
    <line x1="80.00" y1="129.55" x2="720.00" y2="129.55"/>
    <line x1="80.00" y1="129.07" x2="720.00" y2="129.07"/>
    <line x1="80.00" y1="128.59" x2="720.00" y2="128.59"/>
    <line x1="80.00" y1="127.64" x2="720.00" y2="127.64"/>
    <line x1="80.00" y1="127.16" x2="720.00" y2="127.16"/>
    <line x1="80.00" y1="126.68" x2="720.00" y2="126.68"/>
    <line x1="80.00" y1="126.21" x2="720.00" y2="126.21"/>
    <line x1="80.00" y1="125.25" x2="720.00" y2="125.25"/>
    <line x1="80.00" y1="124.77" x2="720.00" y2="124.77"/>
    <line x1="80.00" y1="124.30" x2="720.00" y2="124.30"/>
    <line x1="80.00" y1="123.82" x2="720.00" y2="123.82"/>
    <line x1="80.00" y1="122.86" x2="720.00" y2="122.86"/>
    <line x1="80.00" y1="122.39" x2="720.00" y2="122.39"/>
    <line x1="80.00" y1="121.91" x2="720.00" y2="121.91"/>
    <line x1="80.00" y1="121.43" x2="720.00" y2="121.43"/>
    <line x1="80.00" y1="120.48" x2="720.00" y2="120.48"/>
    <line x1="80.00" y1="120.00" x2="720.00" y2="120.00"/>
    <line x1="80.00" y1="119.52" x2="720.00" y2="119.52"/>
    <line x1="80.00" y1="119.04" x2="720.00" y2="119.04"/>
    <line x1="80.00" y1="118.09" x2="720.00" y2="118.09"/>
    <line x1="80.00" y1="117.61" x2="720.00" y2="117.61"/>
    <line x1="80.00" y1="117.13" x2="720.00" y2="117.13"/>
    <line x1="80.00" y1="116.66" x2="720.00" y2="116.66"/>
    <line x1="80.00" y1="115.70" x2="720.00" y2="115.70"/>
    <line x1="80.00" y1="115.22" x2="720.00" y2="115.22"/>
    <line x1="80.00" y1="114.75" x2="720.00" y2="114.75"/>
    <line x1="80.00" y1="114.27" x2="720.00" y2="114.27"/>
    <line x1="80.00" y1="113.31" x2="720.00" y2="113.31"/>
    <line x1="80.00" y1="112.84" x2="720.00" y2="112.84"/>
    <line x1="80.00" y1="112.36" x2="720.00" y2="112.36"/>
    <line x1="80.00" y1="111.88" x2="720.00" y2="111.88"/>
    <line x1="80.00" y1="110.93" x2="720.00" y2="110.93"/>
    <line x1="80.00" y1="110.45" x2="720.00" y2="110.45"/>
    <line x1="80.00" y1="109.97" x2="720.00" y2="109.97"/>
    <line x1="80.00" y1="109.50" x2="720.00" y2="109.50"/>
    <line x1="80.00" y1="108.54" x2="720.00" y2="108.54"/>
    <line x1="80.00" y1="108.06" x2="720.00" y2="108.06"/>
    <line x1="80.00" y1="107.59" x2="720.00" y2="107.59"/>
    <line x1="80.00" y1="107.11" x2="720.00" y2="107.11"/>
    <line x1="80.00" y1="106.15" x2="720.00" y2="106.15"/>
    <line x1="80.00" y1="105.68" x2="720.00" y2="105.68"/>
    <line x1="80.00" y1="105.20" x2="720.00" y2="105.20"/>
    <line x1="80.00" y1="104.72" x2="720.00" y2="104.72"/>
    <line x1="80.00" y1="103.77" x2="720.00" y2="103.77"/>
    <line x1="80.00" y1="103.29" x2="720.00" y2="103.29"/>
    <line x1="80.00" y1="102.81" x2="720.00" y2="102.81"/>
    <line x1="80.00" y1="102.33" x2="720.00" y2="102.33"/>
    <line x1="80.00" y1="101.38" x2="720.00" y2="101.38"/>
    <line x1="80.00" y1="100.90" x2="720.00" y2="100.90"/>
    <line x1="80.00" y1="100.42" x2="720.00" y2="100.42"/>
    <line x1="80.00" y1="99.95" x2="720.00" y2="99.95"/>
    <line x1="80.00" y1="98.99" x2="720.00" y2="98.99"/>
    <line x1="80.00" y1="98.51" x2="720.00" y2="98.51"/>
    <line x1="80.00" y1="98.04" x2="720.00" y2="98.04"/>
    <line x1="80.00" y1="97.56" x2="720.00" y2="97.56"/>
    <line x1="80.00" y1="96.60" x2="720.00" y2="96.60"/>
    <line x1="80.00" y1="96.13" x2="720.00" y2="96.13"/>
    <line x1="80.00" y1="95.65" x2="720.00" y2="95.65"/>
    <line x1="80.00" y1="95.17" x2="720.00" y2="95.17"/>
    <line x1="80.00" y1="94.22" x2="720.00" y2="94.22"/>
    <line x1="80.00" y1="93.74" x2="720.00" y2="93.74"/>
    <line x1="80.00" y1="93.26" x2="720.00" y2="93.26"/>
    <line x1="80.00" y1="92.78" x2="720.00" y2="92.78"/>
    <line x1="80.00" y1="91.83" x2="720.00" y2="91.83"/>
    <line x1="80.00" y1="91.35" x2="720.00" y2="91.35"/>
    <line x1="80.00" y1="90.87" x2="720.00" y2="90.87"/>
    <line x1="80.00" y1="90.40" x2="720.00" y2="90.40"/>
    <line x1="80.00" y1="89.44" x2="720.00" y2="89.44"/>
    <line x1="80.00" y1="88.96" x2="720.00" y2="88.96"/>
    <line x1="80.00" y1="88.49" x2="720.00" y2="88.49"/>
    <line x1="80.00" y1="88.01" x2="720.00" y2="88.01"/>
    <line x1="80.00" y1="87.05" x2="720.00" y2="87.05"/>
    <line x1="80.00" y1="86.58" x2="720.00" y2="86.58"/>
    <line x1="80.00" y1="86.10" x2="720.00" y2="86.10"/>
    <line x1="80.00" y1="85.62" x2="720.00" y2="85.62"/>
    <line x1="80.00" y1="84.67" x2="720.00" y2="84.67"/>
    <line x1="80.00" y1="84.19" x2="720.00" y2="84.19"/>
    <line x1="80.00" y1="83.71" x2="720.00" y2="83.71"/>
    <line x1="80.00" y1="83.24" x2="720.00" y2="83.24"/>
    <line x1="80.00" y1="82.28" x2="720.00" y2="82.28"/>
    <line x1="80.00" y1="81.80" x2="720.00" y2="81.80"/>
    <line x1="80.00" y1="81.33" x2="720.00" y2="81.33"/>
    <line x1="80.00" y1="80.85" x2="720.00" y2="80.85"/>
    <line x1="80.00" y1="79.89" x2="720.00" y2="79.89"/>
    <line x1="80.00" y1="79.42" x2="720.00" y2="79.42"/>
    <line x1="80.00" y1="78.94" x2="720.00" y2="78.94"/>
    <line x1="80.00" y1="78.46" x2="720.00" y2="78.46"/>
    <line x1="80.00" y1="77.51" x2="720.00" y2="77.51"/>
    <line x1="80.00" y1="77.03" x2="720.00" y2="77.03"/>
    <line x1="80.00" y1="76.55" x2="720.00" y2="76.55"/>
    <line x1="80.00" y1="76.07" x2="720.00" y2="76.07"/>
    <line x1="80.00" y1="75.12" x2="720.00" y2="75.12"/>
    <line x1="80.00" y1="74.64" x2="720.00" y2="74.64"/>
    <line x1="80.00" y1="74.16" x2="720.00" y2="74.16"/>
    <line x1="80.00" y1="73.69" x2="720.00" y2="73.69"/>
    <line x1="80.00" y1="72.73" x2="720.00" y2="72.73"/>
    <line x1="80.00" y1="72.25" x2="720.00" y2="72.25"/>
    <line x1="80.00" y1="71.78" x2="720.00" y2="71.78"/>
    <line x1="80.00" y1="71.30" x2="720.00" y2="71.30"/>
    <line x1="80.00" y1="70.34" x2="720.00" y2="70.34"/>
    <line x1="80.00" y1="69.87" x2="720.00" y2="69.87"/>
    <line x1="80.00" y1="69.39" x2="720.00" y2="69.39"/>
    <line x1="80.00" y1="68.91" x2="720.00" y2="68.91"/>
    <line x1="80.00" y1="67.96" x2="720.00" y2="67.96"/>
    <line x1="80.00" y1="67.48" x2="720.00" y2="67.48"/>
    <line x1="80.00" y1="67.00" x2="720.00" y2="67.00"/>
    <line x1="80.00" y1="66.52" x2="720.00" y2="66.52"/>
    <line x1="80.00" y1="65.57" x2="720.00" y2="65.57"/>
    <line x1="80.00" y1="65.09" x2="720.00" y2="65.09"/>
    <line x1="80.00" y1="64.61" x2="720.00" y2="64.61"/>
    <line x1="80.00" y1="64.14" x2="720.00" y2="64.14"/>
    <line x1="80.00" y1="63.18" x2="720.00" y2="63.18"/>
    <line x1="80.00" y1="62.70" x2="720.00" y2="62.70"/>
    <line x1="80.00" y1="62.23" x2="720.00" y2="62.23"/>
    <line x1="80.00" y1="61.75" x2="720.00" y2="61.75"/>
    <line x1="80.00" y1="60.79" x2="720.00" y2="60.79"/>
    <line x1="80.00" y1="60.32" x2="720.00" y2="60.32"/>
  </g>
  <g stroke="#808080" stroke-width="2">
    <line x1="80.00" y1="540.00" x2="80.00" y2="60.00"/>
    <line x1="80.00" y1="300.00" x2="720.00" y2="300.00"/>
  </g>
  <polyline fill="none" stroke="#0066cc" stroke-width="2" points="80.00,300.00 81.01,300.00 84.04,300.00 89.07,299.99 96.06,299.98 104.98,299.96 115.76,299.94 128.34,299.90 142.64,299.85 158.57,299.78 176.02,299.70 194.90,299.60 215.06,299.48 236.40,299.34 258.78,299.17 282.04,298.98 306.06,298.75 330.67,298.50 355.71,298.21 381.04,297.89 406.49,297.52 431.90,297.10 457.11,296.63 481.96,296.11 506.29,295.51 529.95,294.84 552.78,294.08 574.66,293.20 595.43,292.19 614.96,291.01 633.14,289.61 649.84,287.91 664.97,285.81 678.42,283.12 690.11,279.53 699.97,274.44 707.93,266.57 713.95,252.60 717.98,220.34 720.00,60.00 720.00,540.00 717.98,379.66 713.95,347.40 707.93,333.43 699.97,325.56 690.11,320.47 678.42,316.88 664.97,314.19 649.84,312.09 633.14,310.39 614.96,308.99 595.43,307.81 574.66,306.80 552.78,305.92 529.95,305.16 506.29,304.49 481.96,303.89 457.11,303.37 431.90,302.90 406.49,302.48 381.04,302.11 355.71,301.79 330.67,301.50 306.06,301.25 282.04,301.02 258.78,300.83 236.40,300.66 215.06,300.52 194.90,300.40 176.02,300.30 158.57,300.22 142.64,300.15 128.34,300.10 115.76,300.06 104.98,300.04 96.06,300.02 89.07,300.01 84.04,300.00 81.01,300.00 80.00,300.00 "/>
</svg>
