<?xml version="1.0" encoding="UTF-8"?>
<svg xmlns="http://www.w3.org/2000/svg" width="800" height="600">
  <title>R=-3*cos(2*t)/(cos(t)):.1,1.4:</title>
  <rect width="800" height="600" fill="#ffffff"/>
  <g stroke="#d0d0d0" stroke-width="1">
    <line x1="79.84" y1="540.00" x2="79.84" y2="60.00"/>
    <line x1="186.56" y1="540.00" x2="186.56" y2="60.00"/>
    <line x1="293.28" y1="540.00" x2="293.28" y2="60.00"/>
    <line x1="400.00" y1="540.00" x2="400.00" y2="60.00"/>
    <line x1="506.72" y1="540.00" x2="506.72" y2="60.00"/>
    <line x1="613.44" y1="540.00" x2="613.44" y2="60.00"/>
    <line x1="720.16" y1="540.00" x2="720.16" y2="60.00"/>
    <line x1="80.00" y1="540.76" x2="720.00" y2="540.76"/>
    <line x1="80.00" y1="538.99" x2="720.00" y2="538.99"/>
    <line x1="80.00" y1="537.23" x2="720.00" y2="537.23"/>
    <line x1="80.00" y1="535.46" x2="720.00" y2="535.46"/>
    <line x1="80.00" y1="533.70" x2="720.00" y2="533.70"/>
    <line x1="80.00" y1="531.93" x2="720.00" y2="531.93"/>
    <line x1="80.00" y1="530.17" x2="720.00" y2="530.17"/>
    <line x1="80.00" y1="528.41" x2="720.00" y2="528.41"/>
    <line x1="80.00" y1="526.64" x2="720.00" y2="526.64"/>
    <line x1="80.00" y1="524.88" x2="720.00" y2="524.88"/>
    <line x1="80.00" y1="523.11" x2="720.00" y2="523.11"/>
    <line x1="80.00" y1="521.35" x2="720.00" y2="521.35"/>
    <line x1="80.00" y1="519.58" x2="720.00" y2="519.58"/>
    <line x1="80.00" y1="517.82" x2="720.00" y2="517.82"/>
    <line x1="80.00" y1="516.06" x2="720.00" y2="516.06"/>
    <line x1="80.00" y1="514.29" x2="720.00" y2="514.29"/>
    <line x1="80.00" y1="512.53" x2="720.00" y2="512.53"/>
    <line x1="80.00" y1="510.76" x2="720.00" y2="510.76"/>
    <line x1="80.00" y1="509.00" x2="720.00" y2="509.00"/>
    <line x1="80.00" y1="507.23" x2="720.00" y2="507.23"/>
    <line x1="80.00" y1="505.47" x2="720.00" y2="505.47"/>
    <line x1="80.00" y1="503.71" x2="720.00" y2="503.71"/>
    <line x1="80.00" y1="501.94" x2="720.00" y2="501.94"/>
    <line x1="80.00" y1="500.18" x2="720.00" y2="500.18"/>
    <line x1="80.00" y1="498.41" x2="720.00" y2="498.41"/>
    <line x1="80.00" y1="496.65" x2="720.00" y2="496.65"/>
    <line x1="80.00" y1="494.88" x2="720.00" y2="494.88"/>
    <line x1="80.00" y1="493.12" x2="720.00" y2="493.12"/>
    <line x1="80.00" y1="491.36" x2="720.00" y2="491.36"/>
    <line x1="80.00" y1="489.59" x2="720.00" y2="489.59"/>
    <line x1="80.00" y1="487.83" x2="720.00" y2="487.83"/>
    <line x1="80.00" y1="486.06" x2="720.00" y2="486.06"/>
    <line x1="80.00" y1="484.30" x2="720.00" y2="484.30"/>
    <line x1="80.00" y1="482.53" x2="720.00" y2="482.53"/>
    <line x1="80.00" y1="480.77" x2="720.00" y2="480.77"/>
    <line x1="80.00" y1="479.01" x2="720.00" y2="479.01"/>
    <line x1="80.00" y1="477.24" x2="720.00" y2="477.24"/>
    <line x1="80.00" y1="475.48" x2="720.00" y2="475.48"/>
    <line x1="80.00" y1="473.71" x2="720.00" y2="473.71"/>
    <line x1="80.00" y1="471.95" x2="720.00" y2="471.95"/>
    <line x1="80.00" y1="470.18" x2="720.00" y2="470.18"/>
    <line x1="80.00" y1="468.42" x2="720.00" y2="468.42"/>
    <line x1="80.00" y1="466.65" x2="720.00" y2="466.65"/>
    <line x1="80.00" y1="464.89" x2="720.00" y2="464.89"/>
    <line x1="80.00" y1="463.13" x2="720.00" y2="463.13"/>
    <line x1="80.00" y1="461.36" x2="720.00" y2="461.36"/>
    <line x1="80.00" y1="459.60" x2="720.00" y2="459.60"/>
    <line x1="80.00" y1="457.83" x2="720.00" y2="457.83"/>
    <line x1="80.00" y1="456.07" x2="720.00" y2="456.07"/>
    <line x1="80.00" y1="454.30" x2="720.00" y2="454.30"/>
    <line x1="80.00" y1="452.54" x2="720.00" y2="452.54"/>
    <line x1="80.00" y1="450.78" x2="720.00" y2="450.78"/>
    <line x1="80.00" y1="449.01" x2="720.00" y2="449.01"/>
    <line x1="80.00" y1="447.25" x2="720.00" y2="447.25"/>
    <line x1="80.00" y1="445.48" x2="720.00" y2="445.48"/>
    <line x1="80.00" y1="443.72" x2="720.00" y2="443.72"/>
    <line x1="80.00" y1="441.95" x2="720.00" y2="441.95"/>
    <line x1="80.00" y1="440.19" x2="720.00" y2="440.19"/>
    <line x1="80.00" y1="438.43" x2="720.00" y2="438.43"/>
    <line x1="80.00" y1="436.66" x2="720.00" y2="436.66"/>
    <line x1="80.00" y1="434.90" x2="720.00" y2="434.90"/>
    <line x1="80.00" y1="433.13" x2="720.00" y2="433.13"/>
    <line x1="80.00" y1="431.37" x2="720.00" y2="431.37"/>
    <line x1="80.00" y1="429.60" x2="720.00" y2="429.60"/>
    <line x1="80.00" y1="427.84" x2="720.00" y2="427.84"/>
    <line x1="80.00" y1="426.08" x2="720.00" y2="426.08"/>
    <line x1="80.00" y1="424.31" x2="720.00" y2="424.31"/>
    <line x1="80.00" y1="422.55" x2="720.00" y2="422.55"/>
    <line x1="80.00" y1="420.78" x2="720.00" y2="420.78"/>
    <line x1="80.00" y1="419.02" x2="720.00" y2="419.02"/>
    <line x1="80.00" y1="417.25" x2="720.00" y2="417.25"/>
    <line x1="80.00" y1="415.49" x2="720.00" y2="415.49"/>
    <line x1="80.00" y1="413.72" x2="720.00" y2="413.72"/>
    <line x1="80.00" y1="411.96" x2="720.00" y2="411.96"/>
    <line x1="80.00" y1="410.20" x2="720.00" y2="410.20"/>
    <line x1="80.00" y1="408.43" x2="720.00" y2="408.43"/>
    <line x1="80.00" y1="406.67" x2="720.00" y2="406.67"/>
    <line x1="80.00" y1="404.90" x2="720.00" y2="404.90"/>
    <line x1="80.00" y1="403.14" x2="720.00" y2="403.14"/>
    <line x1="80.00" y1="401.37" x2="720.00" y2="401.37"/>
    <line x1="80.00" y1="399.61" x2="720.00" y2="399.61"/>
    <line x1="80.00" y1="397.85" x2="720.00" y2="397.85"/>
    <line x1="80.00" y1="396.08" x2="720.00" y2="396.08"/>
    <line x1="80.00" y1="394.32" x2="720.00" y2="394.32"/>
    <line x1="80.00" y1="392.55" x2="720.00" y2="392.55"/>
    <line x1="80.00" y1="390.79" x2="720.00" y2="390.79"/>
    <line x1="80.00" y1="389.02" x2="720.00" y2="389.02"/>
    <line x1="80.00" y1="387.26" x2="720.00" y2="387.26"/>
    <line x1="80.00" y1="385.50" x2="720.00" y2="385.50"/>
    <line x1="80.00" y1="383.73" x2="720.00" y2="383.73"/>
    <line x1="80.00" y1="381.97" x2="720.00" y2="381.97"/>
    <line x1="80.00" y1="380.20" x2="720.00" y2="380.20"/>
    <line x1="80.00" y1="378.44" x2="720.00" y2="378.44"/>
    <line x1="80.00" y1="376.67" x2="720.00" y2="376.67"/>
    <line x1="80.00" y1="374.91" x2="720.00" y2="374.91"/>
    <line x1="80.00" y1="373.15" x2="720.00" y2="373.15"/>
    <line x1="80.00" y1="371.38" x2="720.00" y2="371.38"/>
    <line x1="80.00" y1="369.62" x2="720.00" y2="369.62"/>
    <line x1="80.00" y1="367.85" x2="720.00" y2="367.85"/>
    <line x1="80.00" y1="366.09" x2="720.00" y2="366.09"/>
    <line x1="80.00" y1="364.32" x2="720.00" y2="364.32"/>
    <line x1="80.00" y1="362.56" x2="720.00" y2="362.56"/>
    <line x1="80.00" y1="360.80" x2="720.00" y2="360.80"/>
    <line x1="80.00" y1="359.03" x2="720.00" y2="359.03"/>
    <line x1="80.00" y1="357.27" x2="720.00" y2="357.27"/>
    <line x1="80.00" y1="355.50" x2="720.00" y2="355.50"/>
    <line x1="80.00" y1="353.74" x2="720.00" y2="353.74"/>
    <line x1="80.00" y1="351.97" x2="720.00" y2="351.97"/>
    <line x1="80.00" y1="350.21" x2="720.00" y2="350.21"/>
    <line x1="80.00" y1="348.44" x2="720.00" y2="348.44"/>
    <line x1="80.00" y1="346.68" x2="720.00" y2="346.68"/>
    <line x1="80.00" y1="344.92" x2="720.00" y2="344.92"/>
    <line x1="80.00" y1="343.15" x2="720.00" y2="343.15"/>
    <line x1="80.00" y1="341.39" x2="720.00" y2="341.39"/>
    <line x1="80.00" y1="339.62" x2="720.00" y2="339.62"/>
    <line x1="80.00" y1="337.86" x2="720.00" y2="337.86"/>
    <line x1="80.00" y1="336.09" x2="720.00" y2="336.09"/>
    <line x1="80.00" y1="334.33" x2="720.00" y2="334.33"/>
    <line x1="80.00" y1="332.57" x2="720.00" y2="332.57"/>
    <line x1="80.00" y1="330.80" x2="720.00" y2="330.80"/>
    <line x1="80.00" y1="329.04" x2="720.00" y2="329.04"/>
    <line x1="80.00" y1="327.27" x2="720.00" y2="327.27"/>
    <line x1="80.00" y1="325.51" x2="720.00" y2="325.51"/>
    <line x1="80.00" y1="323.74" x2="720.00" y2="323.74"/>
    <line x1="80.00" y1="321.98" x2="720.00" y2="321.98"/>
    <line x1="80.00" y1="320.22" x2="720.00" y2="320.22"/>
    <line x1="80.00" y1="318.45" x2="720.00" y2="318.45"/>
    <line x1="80.00" y1="316.69" x2="720.00" y2="316.69"/>
    <line x1="80.00" y1="314.92" x2="720.00" y2="314.92"/>
    <line x1="80.00" y1="313.16" x2="720.00" y2="313.16"/>
    <line x1="80.00" y1="311.39" x2="720.00" y2="311.39"/>
    <line x1="80.00" y1="309.63" x2="720.00" y2="309.63"/>
    <line x1="80.00" y1="307.87" x2="720.00" y2="307.87"/>
    <line x1="80.00" y1="306.10" x2="720.00" y2="306.10"/>
    <line x1="80.00" y1="304.34" x2="720.00" y2="304.34"/>
    <line x1="80.00" y1="302.57" x2="720.00" y2="302.57"/>
    <line x1="80.00" y1="300.81" x2="720.00" y2="300.81"/>
    <line x1="80.00" y1="299.04" x2="720.00" y2="299.04"/>
    <line x1="80.00" y1="297.28" x2="720.00" y2="297.28"/>
    <line x1="80.00" y1="295.52" x2="720.00" y2="295.52"/>
    <line x1="80.00" y1="293.75" x2="720.00" y2="293.75"/>
    <line x1="80.00" y1="291.99" x2="720.00" y2="291.99"/>
    <line x1="80.00" y1="290.22" x2="720.00" y2="290.22"/>
    <line x1="80.00" y1="288.46" x2="720.00" y2="288.46"/>
    <line x1="80.00" y1="286.69" x2="720.00" y2="286.69"/>
    <line x1="80.00" y1="284.93" x2="720.00" y2="284.93"/>
    <line x1="80.00" y1="283.16" x2="720.00" y2="283.16"/>
    <line x1="80.00" y1="281.40" x2="720.00" y2="281.40"/>
    <line x1="80.00" y1="279.64" x2="720.00" y2="279.64"/>
    <line x1="80.00" y1="277.87" x2="720.00" y2="277.87"/>
    <line x1="80.00" y1="276.11" x2="720.00" y2="276.11"/>
    <line x1="80.00" y1="274.34" x2="720.00" y2="274.34"/>
    <line x1="80.00" y1="272.58" x2="720.00" y2="272.58"/>
    <line x1="80.00" y1="270.81" x2="720.00" y2="270.81"/>
    <line x1="80.00" y1="269.05" x2="720.00" y2="269.05"/>
    <line x1="80.00" y1="267.29" x2="720.00" y2="267.29"/>
    <line x1="80.00" y1="265.52" x2="720.00" y2="265.52"/>
    <line x1="80.00" y1="263.76" x2="720.00" y2="263.76"/>
    <line x1="80.00" y1="261.99" x2="720.00" y2="261.99"/>
    <line x1="80.00" y1="260.23" x2="720.00" y2="260.23"/>
    <line x1="80.00" y1="258.46" x2="720.00" y2="258.46"/>
    <line x1="80.00" y1="256.70" x2="720.00" y2="256.70"/>
    <line x1="80.00" y1="254.94" x2="720.00" y2="254.94"/>
    <line x1="80.00" y1="253.17" x2="720.00" y2="253.17"/>
    <line x1="80.00" y1="251.41" x2="720.00" y2="251.41"/>
    <line x1="80.00" y1="249.64" x2="720.00" y2="249.64"/>
    <line x1="80.00" y1="247.88" x2="720.00" y2="247.88"/>
    <line x1="80.00" y1="246.11" x2="720.00" y2="246.11"/>
    <line x1="80.00" y1="244.35" x2="720.00" y2="244.35"/>
    <line x1="80.00" y1="242.59" x2="720.00" y2="242.59"/>
    <line x1="80.00" y1="240.82" x2="720.00" y2="240.82"/>
    <line x1="80.00" y1="239.06" x2="720.00" y2="239.06"/>
    <line x1="80.00" y1="237.29" x2="720.00" y2="237.29"/>
    <line x1="80.00" y1="235.53" x2="720.00" y2="235.53"/>
    <line x1="80.00" y1="233.76" x2="720.00" y2="233.76"/>
    <line x1="80.00" y1="232.00" x2="720.00" y2="232.00"/>
    <line x1="80.00" y1="230.24" x2="720.00" y2="230.24"/>
    <line x1="80.00" y1="228.47" x2="720.00" y2="228.47"/>
    <line x1="80.00" y1="226.71" x2="720.00" y2="226.71"/>
    <line x1="80.00" y1="224.94" x2="720.00" y2="224.94"/>
    <line x1="80.00" y1="223.18" x2="720.00" y2="223.18"/>
    <line x1="80.00" y1="221.41" x2="720.00" y2="221.41"/>
    <line x1="80.00" y1="219.65" x2="720.00" y2="219.65"/>
    <line x1="80.00" y1="217.88" x2="720.00" y2="217.88"/>
    <line x1="80.00" y1="216.12" x2="720.00" y2="216.12"/>
    <line x1="80.00" y1="214.36" x2="720.00" y2="214.36"/>
    <line x1="80.00" y1="212.59" x2="720.00" y2="212.59"/>
    <line x1="80.00" y1="210.83" x2="720.00" y2="210.83"/>
    <line x1="80.00" y1="209.06" x2="720.00" y2="209.06"/>
    <line x1="80.00" y1="207.30" x2="720.00" y2="207.30"/>
    <line x1="80.00" y1="205.53" x2="720.00" y2="205.53"/>
    <line x1="80.00" y1="203.77" x2="720.00" y2="203.77"/>
    <line x1="80.00" y1="202.01" x2="720.00" y2="202.01"/>
    <line x1="80.00" y1="200.24" x2="720.00" y2="200.24"/>
    <line x1="80.00" y1="198.48" x2="720.00" y2="198.48"/>
    <line x1="80.00" y1="196.71" x2="720.00" y2="196.71"/>
    <line x1="80.00" y1="194.95" x2="720.00" y2="194.95"/>
    <line x1="80.00" y1="193.18" x2="720.00" y2="193.18"/>
    <line x1="80.00" y1="191.42" x2="720.00" y2="191.42"/>
    <line x1="80.00" y1="189.66" x2="720.00" y2="189.66"/>
    <line x1="80.00" y1="187.89" x2="720.00" y2="187.89"/>
    <line x1="80.00" y1="186.13" x2="720.00" y2="186.13"/>
    <line x1="80.00" y1="184.36" x2="720.00" y2="184.36"/>
    <line x1="80.00" y1="182.60" x2="720.00" y2="182.60"/>
    <line x1="80.00" y1="180.83" x2="720.00" y2="180.83"/>
    <line x1="80.00" y1="179.07" x2="720.00" y2="179.07"/>
    <line x1="80.00" y1="177.31" x2="720.00" y2="177.31"/>
    <line x1="80.00" y1="175.54" x2="720.00" y2="175.54"/>
    <line x1="80.00" y1="173.78" x2="720.00" y2="173.78"/>
    <line x1="80.00" y1="172.01" x2="720.00" y2="172.01"/>
    <line x1="80.00" y1="170.25" x2="720.00" y2="170.25"/>
    <line x1="80.00" y1="168.48" x2="720.00" y2="168.48"/>
    <line x1="80.00" y1="166.72" x2="720.00" y2="166.72"/>
    <line x1="80.00" y1="164.95" x2="720.00" y2="164.95"/>
    <line x1="80.00" y1="163.19" x2="720.00" y2="163.19"/>
    <line x1="80.00" y1="161.43" x2="720.00" y2="161.43"/>
    <line x1="80.00" y1="159.66" x2="720.00" y2="159.66"/>
    <line x1="80.00" y1="157.90" x2="720.00" y2="157.90"/>
    <line x1="80.00" y1="156.13" x2="720.00" y2="156.13"/>
    <line x1="80.00" y1="154.37" x2="720.00" y2="154.37"/>
    <line x1="80.00" y1="152.60" x2="720.00" y2="152.60"/>
    <line x1="80.00" y1="150.84" x2="720.00" y2="150.84"/>
    <line x1="80.00" y1="149.08" x2="720.00" y2="149.08"/>
    <line x1="80.00" y1="147.31" x2="720.00" y2="147.31"/>
    <line x1="80.00" y1="145.55" x2="720.00" y2="145.55"/>
    <line x1="80.00" y1="143.78" x2="720.00" y2="143.78"/>
    <line x1="80.00" y1="142.02" x2="720.00" y2="142.02"/>
    <line x1="80.00" y1="140.25" x2="720.00" y2="140.25"/>
    <line x1="80.00" y1="138.49" x2="720.00" y2="138.49"/>
    <line x1="80.00" y1="136.73" x2="720.00" y2="136.73"/>
    <line x1="80.00" y1="134.96" x2="720.00" y2="134.96"/>
    <line x1="80.00" y1="133.20" x2="720.00" y2="133.20"/>
    <line x1="80.00" y1="131.43" x2="720.00" y2="131.43"/>
    <line x1="80.00" y1="129.67" x2="720.00" y2="129.67"/>
    <line x1="80.00" y1="127.90" x2="720.00" y2="127.90"/>
    <line x1="80.00" y1="126.14" x2="720.00" y2="126.14"/>
    <line x1="80.00" y1="124.38" x2="720.00" y2="124.38"/>
    <line x1="80.00" y1="122.61" x2="720.00" y2="122.61"/>
    <line x1="80.00" y1="120.85" x2="720.00" y2="120.85"/>
    <line x1="80.00" y1="119.08" x2="720.00" y2="119.08"/>
    <line x1="80.00" y1="117.32" x2="720.00" y2="117.32"/>
    <line x1="80.00" y1="115.55" x2="720.00" y2="115.55"/>
    <line x1="80.00" y1="113.79" x2="720.00" y2="113.79"/>
    <line x1="80.00" y1="112.03" x2="720.00" y2="112.03"/>
    <line x1="80.00" y1="110.26" x2="720.00" y2="110.26"/>
    <line x1="80.00" y1="108.50" x2="720.00" y2="108.50"/>
    <line x1="80.00" y1="106.73" x2="720.00" y2="106.73"/>
    <line x1="80.00" y1="104.97" x2="720.00" y2="104.97"/>
    <line x1="80.00" y1="103.20" x2="720.00" y2="103.20"/>
    <line x1="80.00" y1="101.44" x2="720.00" y2="101.44"/>
    <line x1="80.00" y1="99.67" x2="720.00" y2="99.67"/>
    <line x1="80.00" y1="97.91" x2="720.00" y2="97.91"/>
    <line x1="80.00" y1="96.15" x2="720.00" y2="96.15"/>
    <line x1="80.00" y1="94.38" x2="720.00" y2="94.38"/>
    <line x1="80.00" y1="92.62" x2="720.00" y2="92.62"/>
    <line x1="80.00" y1="90.85" x2="720.00" y2="90.85"/>
    <line x1="80.00" y1="89.09" x2="720.00" y2="89.09"/>
    <line x1="80.00" y1="87.32" x2="720.00" y2="87.32"/>
    <line x1="80.00" y1="85.56" x2="720.00" y2="85.56"/>
    <line x1="80.00" y1="83.80" x2="720.00" y2="83.80"/>
    <line x1="80.00" y1="82.03" x2="720.00" y2="82.03"/>
    <line x1="80.00" y1="80.27" x2="720.00" y2="80.27"/>
    <line x1="80.00" y1="78.50" x2="720.00" y2="78.50"/>
    <line x1="80.00" y1="76.74" x2="720.00" y2="76.74"/>
    <line x1="80.00" y1="74.97" x2="720.00" y2="74.97"/>
    <line x1="80.00" y1="73.21" x2="720.00" y2="73.21"/>
    <line x1="80.00" y1="71.45" x2="720.00" y2="71.45"/>
    <line x1="80.00" y1="69.68" x2="720.00" y2="69.68"/>
    <line x1="80.00" y1="67.92" x2="720.00" y2="67.92"/>
    <line x1="80.00" y1="66.15" x2="720.00" y2="66.15"/>
    <line x1="80.00" y1="64.39" x2="720.00" y2="64.39"/>
    <line x1="80.00" y1="62.62" x2="720.00" y2="62.62"/>
    <line x1="80.00" y1="60.86" x2="720.00" y2="60.86"/>
    <line x1="80.00" y1="59.10" x2="720.00" y2="59.10"/>
  </g>
  <g stroke="#e8e8e8" stroke-width="0.5">
    <line x1="101.18" y1="540.00" x2="101.18" y2="60.00"/>
    <line x1="122.53" y1="540.00" x2="122.53" y2="60.00"/>
    <line x1="143.87" y1="540.00" x2="143.87" y2="60.00"/>
    <line x1="165.21" y1="540.00" x2="165.21" y2="60.00"/>
    <line x1="207.90" y1="540.00" x2="207.90" y2="60.00"/>
    <line x1="229.25" y1="540.00" x2="229.25" y2="60.00"/>
    <line x1="250.59" y1="540.00" x2="250.59" y2="60.00"/>
    <line x1="271.94" y1="540.00" x2="271.94" y2="60.00"/>
    <line x1="314.62" y1="540.00" x2="314.62" y2="60.00"/>
    <line x1="335.97" y1="540.00" x2="335.97" y2="60.00"/>
    <line x1="357.31" y1="540.00" x2="357.31" y2="60.00"/>
    <line x1="378.66" y1="540.00" x2="378.66" y2="60.00"/>
    <line x1="421.34" y1="540.00" x2="421.34" y2="60.00"/>
    <line x1="442.69" y1="540.00" x2="442.69" y2="60.00"/>
    <line x1="464.03" y1="540.00" x2="464.03" y2="60.00"/>
    <line x1="485.38" y1="540.00" x2="485.38" y2="60.00"/>
    <line x1="528.06" y1="540.00" x2="528.06" y2="60.00"/>
    <line x1="549.41" y1="540.00" x2="549.41" y2="60.00"/>
    <line x1="570.75" y1="540.00" x2="570.75" y2="60.00"/>
    <line x1="592.10" y1="540.00" x2="592.10" y2="60.00"/>
    <line x1="634.79" y1="540.00" x2="634.79" y2="60.00"/>
    <line x1="656.13" y1="540.00" x2="656.13" y2="60.00"/>
    <line x1="677.47" y1="540.00" x2="677.47" y2="60.00"/>
    <line x1="698.82" y1="540.00" x2="698.82" y2="60.00"/>
    <line x1="80.00" y1="539.70" x2="720.00" y2="539.70"/>
    <line x1="80.00" y1="539.34" x2="720.00" y2="539.34"/>
    <line x1="80.00" y1="538.64" x2="720.00" y2="538.64"/>
    <line x1="80.00" y1="538.29" x2="720.00" y2="538.29"/>
    <line x1="80.00" y1="537.93" x2="720.00" y2="537.93"/>
    <line x1="80.00" y1="537.58" x2="720.00" y2="537.58"/>
    <line x1="80.00" y1="536.87" x2="720.00" y2="536.87"/>
    <line x1="80.00" y1="536.52" x2="720.00" y2="536.52"/>
    <line x1="80.00" y1="536.17" x2="720.00" y2="536.17"/>
    <line x1="80.00" y1="535.82" x2="720.00" y2="535.82"/>
    <line x1="80.00" y1="535.11" x2="720.00" y2="535.11"/>
    <line x1="80.00" y1="534.76" x2="720.00" y2="534.76"/>
    <line x1="80.00" y1="534.40" x2="720.00" y2="534.40"/>
    <line x1="80.00" y1="534.05" x2="720.00" y2="534.05"/>
    <line x1="80.00" y1="533.35" x2="720.00" y2="533.35"/>
    <line x1="80.00" y1="532.99" x2="720.00" y2="532.99"/>
    <line x1="80.00" y1="532.64" x2="720.00" y2="532.64"/>
    <line x1="80.00" y1="532.29" x2="720.00" y2="532.29"/>
    <line x1="80.00" y1="531.58" x2="720.00" y2="531.58"/>
    <line x1="80.00" y1="531.23" x2="720.00" y2="531.23"/>
    <line x1="80.00" y1="530.88" x2="720.00" y2="530.88"/>
    <line x1="80.00" y1="530.52" x2="720.00" y2="530.52"/>
    <line x1="80.00" y1="529.82" x2="720.00" y2="529.82"/>
    <line x1="80.00" y1="529.46" x2="720.00" y2="529.46"/>
    <line x1="80.00" y1="529.11" x2="720.00" y2="529.11"/>
    <line x1="80.00" y1="528.76" x2="720.00" y2="528.76"/>
    <line x1="80.00" y1="528.05" x2="720.00" y2="528.05"/>
    <line x1="80.00" y1="527.70" x2="720.00" y2="527.70"/>
    <line x1="80.00" y1="527.35" x2="720.00" y2="527.35"/>
    <line x1="80.00" y1="526.99" x2="720.00" y2="526.99"/>
    <line x1="80.00" y1="526.29" x2="720.00" y2="526.29"/>
    <line x1="80.00" y1="525.94" x2="720.00" y2="525.94"/>
    <line x1="80.00" y1="525.58" x2="720.00" y2="525.58"/>
    <line x1="80.00" y1="525.23" x2="720.00" y2="525.23"/>
    <line x1="80.00" y1="524.52" x2="720.00" y2="524.52"/>
    <line x1="80.00" y1="524.17" x2="720.00" y2="524.17"/>
    <line x1="80.00" y1="523.82" x2="720.00" y2="523.82"/>
    <line x1="80.00" y1="523.47" x2="720.00" y2="523.47"/>
    <line x1="80.00" y1="522.76" x2="720.00" y2="522.76"/>
    <line x1="80.00" y1="522.41" x2="720.00" y2="522.41"/>
    <line x1="80.00" y1="522.05" x2="720.00" y2="522.05"/>
    <line x1="80.00" y1="521.70" x2="720.00" y2="521.70"/>
    <line x1="80.00" y1="521.00" x2="720.00" y2="521.00"/>
    <line x1="80.00" y1="520.64" x2="720.00" y2="520.64"/>
    <line x1="80.00" y1="520.29" x2="720.00" y2="520.29"/>
    <line x1="80.00" y1="519.94" x2="720.00" y2="519.94"/>
    <line x1="80.00" y1="519.23" x2="720.00" y2="519.23"/>
    <line x1="80.00" y1="518.88" x2="720.00" y2="518.88"/>
    <line x1="80.00" y1="518.53" x2="720.00" y2="518.53"/>
    <line x1="80.00" y1="518.17" x2="720.00" y2="518.17"/>
    <line x1="80.00" y1="517.47" x2="720.00" y2="517.47"/>
    <line x1="80.00" y1="517.11" x2="720.00" y2="517.11"/>
    <line x1="80.00" y1="516.76" x2="720.00" y2="516.76"/>
    <line x1="80.00" y1="516.41" x2="720.00" y2="516.41"/>
    <line x1="80.00" y1="515.70" x2="720.00" y2="515.70"/>
    <line x1="80.00" y1="515.35" x2="720.00" y2="515.35"/>
    <line x1="80.00" y1="515.00" x2="720.00" y2="515.00"/>
    <line x1="80.00" y1="514.64" x2="720.00" y2="514.64"/>
    <line x1="80.00" y1="513.94" x2="720.00" y2="513.94"/>
    <line x1="80.00" y1="513.59" x2="720.00" y2="513.59"/>
    <line x1="80.00" y1="513.23" x2="720.00" y2="513.23"/>
    <line x1="80.00" y1="512.88" x2="720.00" y2="512.88"/>
    <line x1="80.00" y1="512.17" x2="720.00" y2="512.17"/>
    <line x1="80.00" y1="511.82" x2="720.00" y2="511.82"/>
    <line x1="80.00" y1="511.47" x2="720.00" y2="511.47"/>
    <line x1="80.00" y1="511.12" x2="720.00" y2="511.12"/>
    <line x1="80.00" y1="510.41" x2="720.00" y2="510.41"/>
    <line x1="80.00" y1="510.06" x2="720.00" y2="510.06"/>
    <line x1="80.00" y1="509.70" x2="720.00" y2="509.70"/>
    <line x1="80.00" y1="509.35" x2="720.00" y2="509.35"/>
    <line x1="80.00" y1="508.65" x2="720.00" y2="508.65"/>
    <line x1="80.00" y1="508.29" x2="720.00" y2="508.29"/>
    <line x1="80.00" y1="507.94" x2="720.00" y2="507.94"/>
    <line x1="80.00" y1="507.59" x2="720.00" y2="507.59"/>
    <line x1="80.00" y1="506.88" x2="720.00" y2="506.88"/>
    <line x1="80.00" y1="506.53" x2="720.00" y2="506.53"/>
    <line x1="80.00" y1="506.18" x2="720.00" y2="506.18"/>
    <line x1="80.00" y1="505.82" x2="720.00" y2="505.82"/>
    <line x1="80.00" y1="505.12" x2="720.00" y2="505.12"/>
    <line x1="80.00" y1="504.76" x2="720.00" y2="504.76"/>
    <line x1="80.00" y1="504.41" x2="720.00" y2="504.41"/>
    <line x1="80.00" y1="504.06" x2="720.00" y2="504.06"/>
    <line x1="80.00" y1="503.35" x2="720.00" y2="503.35"/>
    <line x1="80.00" y1="503.00" x2="720.00" y2="503.00"/>
    <line x1="80.00" y1="502.65" x2="720.00" y2="502.65"/>
    <line x1="80.00" y1="502.29" x2="720.00" y2="502.29"/>
    <line x1="80.00" y1="501.59" x2="720.00" y2="501.59"/>
    <line x1="80.00" y1="501.24" x2="720.00" y2="501.24"/>
    <line x1="80.00" y1="500.88" x2="720.00" y2="500.88"/>
    <line x1="80.00" y1="500.53" x2="720.00" y2="500.53"/>
    <line x1="80.00" y1="499.82" x2="720.00" y2="499.82"/>
    <line x1="80.00" y1="499.47" x2="720.00" y2="499.47"/>
    <line x1="80.00" y1="499.12" x2="720.00" y2="499.12"/>
    <line x1="80.00" y1="498.77" x2="720.00" y2="498.77"/>
    <line x1="80.00" y1="498.06" x2="720.00" y2="498.06"/>
    <line x1="80.00" y1="497.71" x2="720.00" y2="497.71"/>
    <line x1="80.00" y1="497.35" x2="720.00" y2="497.35"/>
    <line x1="80.00" y1="497.00" x2="720.00" y2="497.00"/>
    <line x1="80.00" y1="496.30" x2="720.00" y2="496.30"/>
    <line x1="80.00" y1="495.94" x2="720.00" y2="495.94"/>
    <line x1="80.00" y1="495.59" x2="720.00" y2="495.59"/>
    <line x1="80.00" y1="495.24" x2="720.00" y2="495.24"/>
    <line x1="80.00" y1="494.53" x2="720.00" y2="494.53"/>
    <line x1="80.00" y1="494.18" x2="720.00" y2="494.18"/>
    <line x1="80.00" y1="493.83" x2="720.00" y2="493.83"/>
    <line x1="80.00" y1="493.47" x2="720.00" y2="493.47"/>
    <line x1="80.00" y1="492.77" x2="720.00" y2="492.77"/>
    <line x1="80.00" y1="492.41" x2="720.00" y2="492.41"/>
    <line x1="80.00" y1="492.06" x2="720.00" y2="492.06"/>
    <line x1="80.00" y1="491.71" x2="720.00" y2="491.71"/>
    <line x1="80.00" y1="491.00" x2="720.00" y2="491.00"/>
    <line x1="80.00" y1="490.65" x2="720.00" y2="490.65"/>
    <line x1="80.00" y1="490.30" x2="720.00" y2="490.30"/>
    <line x1="80.00" y1="489.94" x2="720.00" y2="489.94"/>
    <line x1="80.00" y1="489.24" x2="720.00" y2="489.24"/>
    <line x1="80.00" y1="488.89" x2="720.00" y2="488.89"/>
    <line x1="80.00" y1="488.53" x2="720.00" y2="488.53"/>
    <line x1="80.00" y1="488.18" x2="720.00" y2="488.18"/>
    <line x1="80.00" y1="487.47" x2="720.00" y2="487.47"/>
    <line x1="80.00" y1="487.12" x2="720.00" y2="487.12"/>
    <line x1="80.00" y1="486.77" x2="720.00" y2="486.77"/>
    <line x1="80.00" y1="486.42" x2="720.00" y2="486.42"/>
    <line x1="80.00" y1="485.71" x2="720.00" y2="485.71"/>
    <line x1="80.00" y1="485.36" x2="720.00" y2="485.36"/>
    <line x1="80.00" y1="485.00" x2="720.00" y2="485.00"/>
    <line x1="80.00" y1="484.65" x2="720.00" y2="484.65"/>
    <line x1="80.00" y1="483.95" x2="720.00" y2="483.95"/>
    <line x1="80.00" y1="483.59" x2="720.00" y2="483.59"/>
    <line x1="80.00" y1="483.24" x2="720.00" y2="483.24"/>
    <line x1="80.00" y1="482.89" x2="720.00" y2="482.89"/>
    <line x1="80.00" y1="482.18" x2="720.00" y2="482.18"/>
    <line x1="80.00" y1="481.83" x2="720.00" y2="481.83"/>
    <line x1="80.00" y1="481.48" x2="720.00" y2="481.48"/>
    <line x1="80.00" y1="481.12" x2="720.00" y2="481.12"/>
    <line x1="80.00" y1="480.42" x2="720.00" y2="480.42"/>
    <line x1="80.00" y1="480.06" x2="720.00" y2="480.06"/>
    <line x1="80.00" y1="479.71" x2="720.00" y2="479.71"/>
    <line x1="80.00" y1="479.36" x2="720.00" y2="479.36"/>
    <line x1="80.00" y1="478.65" x2="720.00" y2="478.65"/>
    <line x1="80.00" y1="478.30" x2="720.00" y2="478.30"/>
    <line x1="80.00" y1="477.95" x2="720.00" y2="477.95"/>
    <line x1="80.00" y1="477.59" x2="720.00" y2="477.59"/>
    <line x1="80.00" y1="476.89" x2="720.00" y2="476.89"/>
    <line x1="80.00" y1="476.53" x2="720.00" y2="476.53"/>
    <line x1="80.00" y1="476.18" x2="720.00" y2="476.18"/>
    <line x1="80.00" y1="475.83" x2="720.00" y2="475.83"/>
    <line x1="80.00" y1="475.12" x2="720.00" y2="475.12"/>
    <line x1="80.00" y1="474.77" x2="720.00" y2="474.77"/>
    <line x1="80.00" y1="474.42" x2="720.00" y2="474.42"/>
    <line x1="80.00" y1="474.06" x2="720.00" y2="474.06"/>
    <line x1="80.00" y1="473.36" x2="720.00" y2="473.36"/>
    <line x1="80.00" y1="473.01" x2="720.00" y2="473.01"/>
    <line x1="80.00" y1="472.65" x2="720.00" y2="472.65"/>
    <line x1="80.00" y1="472.30" x2="720.00" y2="472.30"/>
    <line x1="80.00" y1="471.59" x2="720.00" y2="471.59"/>
    <line x1="80.00" y1="471.24" x2="720.00" y2="471.24"/>
    <line x1="80.00" y1="470.89" x2="720.00" y2="470.89"/>
    <line x1="80.00" y1="470.54" x2="720.00" y2="470.54"/>
    <line x1="80.00" y1="469.83" x2="720.00" y2="469.83"/>
    <line x1="80.00" y1="469.48" x2="720.00" y2="469.48"/>
    <line x1="80.00" y1="469.12" x2="720.00" y2="469.12"/>
    <line x1="80.00" y1="468.77" x2="720.00" y2="468.77"/>
    <line x1="80.00" y1="468.07" x2="720.00" y2="468.07"/>
    <line x1="80.00" y1="467.71" x2="720.00" y2="467.71"/>
    <line x1="80.00" y1="467.36" x2="720.00" y2="467.36"/>
    <line x1="80.00" y1="467.01" x2="720.00" y2="467.01"/>
    <line x1="80.00" y1="466.30" x2="720.00" y2="466.30"/>
    <line x1="80.00" y1="465.95" x2="720.00" y2="465.95"/>
    <line x1="80.00" y1="465.60" x2="720.00" y2="465.60"/>
    <line x1="80.00" y1="465.24" x2="720.00" y2="465.24"/>
    <line x1="80.00" y1="464.54" x2="720.00" y2="464.54"/>
    <line x1="80.00" y1="464.18" x2="720.00" y2="464.18"/>
    <line x1="80.00" y1="463.83" x2="720.00" y2="463.83"/>
    <line x1="80.00" y1="463.48" x2="720.00" y2="463.48"/>
    <line x1="80.00" y1="462.77" x2="720.00" y2="462.77"/>
    <line x1="80.00" y1="462.42" x2="720.00" y2="462.42"/>
    <line x1="80.00" y1="462.07" x2="720.00" y2="462.07"/>
    <line x1="80.00" y1="461.71" x2="720.00" y2="461.71"/>
    <line x1="80.00" y1="461.01" x2="720.00" y2="461.01"/>
    <line x1="80.00" y1="460.66" x2="720.00" y2="460.66"/>
    <line x1="80.00" y1="460.30" x2="720.00" y2="460.30"/>
    <line x1="80.00" y1="459.95" x2="720.00" y2="459.95"/>
    <line x1="80.00" y1="459.24" x2="720.00" y2="459.24"/>
    <line x1="80.00" y1="458.89" x2="720.00" y2="458.89"/>
    <line x1="80.00" y1="458.54" x2="720.00" y2="458.54"/>
    <line x1="80.00" y1="458.19" x2="720.00" y2="458.19"/>
    <line x1="80.00" y1="457.48" x2="720.00" y2="457.48"/>
    <line x1="80.00" y1="457.13" x2="720.00" y2="457.13"/>
    <line x1="80.00" y1="456.77" x2="720.00" y2="456.77"/>
    <line x1="80.00" y1="456.42" x2="720.00" y2="456.42"/>
    <line x1="80.00" y1="455.72" x2="720.00" y2="455.72"/>
    <line x1="80.00" y1="455.36" x2="720.00" y2="455.36"/>
    <line x1="80.00" y1="455.01" x2="720.00" y2="455.01"/>
    <line x1="80.00" y1="454.66" x2="720.00" y2="454.66"/>
    <line x1="80.00" y1="453.95" x2="720.00" y2="453.95"/>
    <line x1="80.00" y1="453.60" x2="720.00" y2="453.60"/>
    <line x1="80.00" y1="453.25" x2="720.00" y2="453.25"/>
    <line x1="80.00" y1="452.89" x2="720.00" y2="452.89"/>
    <line x1="80.00" y1="452.19" x2="720.00" y2="452.19"/>
    <line x1="80.00" y1="451.83" x2="720.00" y2="451.83"/>
    <line x1="80.00" y1="451.48" x2="720.00" y2="451.48"/>
    <line x1="80.00" y1="451.13" x2="720.00" y2="451.13"/>
    <line x1="80.00" y1="450.42" x2="720.00" y2="450.42"/>
    <line x1="80.00" y1="450.07" x2="720.00" y2="450.07"/>
    <line x1="80.00" y1="449.72" x2="720.00" y2="449.72"/>
    <line x1="80.00" y1="449.36" x2="720.00" y2="449.36"/>
    <line x1="80.00" y1="448.66" x2="720.00" y2="448.66"/>
    <line x1="80.00" y1="448.31" x2="720.00" y2="448.31"/>
    <line x1="80.00" y1="447.95" x2="720.00" y2="447.95"/>
    <line x1="80.00" y1="447.60" x2="720.00" y2="447.60"/>
    <line x1="80.00" y1="446.89" x2="720.00" y2="446.89"/>
    <line x1="80.00" y1="446.54" x2="720.00" y2="446.54"/>
    <line x1="80.00" y1="446.19" x2="720.00" y2="446.19"/>
    <line x1="80.00" y1="445.84" x2="720.00" y2="445.84"/>
    <line x1="80.00" y1="445.13" x2="720.00" y2="445.13"/>
    <line x1="80.00" y1="444.78" x2="720.00" y2="444.78"/>
    <line x1="80.00" y1="444.42" x2="720.00" y2="444.42"/>
    <line x1="80.00" y1="444.07" x2="720.00" y2="444.07"/>
    <line x1="80.00" y1="443.37" x2="720.00" y2="443.37"/>
    <line x1="80.00" y1="443.01" x2="720.00" y2="443.01"/>
    <line x1="80.00" y1="442.66" x2="720.00" y2="442.66"/>
    <line x1="80.00" y1="442.31" x2="720.00" y2="442.31"/>
    <line x1="80.00" y1="441.60" x2="720.00" y2="441.60"/>
    <line x1="80.00" y1="441.25" x2="720.00" y2="441.25"/>
    <line x1="80.00" y1="440.90" x2="720.00" y2="440.90"/>
    <line x1="80.00" y1="440.54" x2="720.00" y2="440.54"/>
    <line x1="80.00" y1="439.84" x2="720.00" y2="439.84"/>
    <line x1="80.00" y1="439.48" x2="720.00" y2="439.48"/>
    <line x1="80.00" y1="439.13" x2="720.00" y2="439.13"/>
    <line x1="80.00" y1="438.78" x2="720.00" y2="438.78"/>
    <line x1="80.00" y1="438.07" x2="720.00" y2="438.07"/>
    <line x1="80.00" y1="437.72" x2="720.00" y2="437.72"/>
    <line x1="80.00" y1="437.37" x2="720.00" y2="437.37"/>
    <line x1="80.00" y1="437.01" x2="720.00" y2="437.01"/>
    <line x1="80.00" y1="436.31" x2="720.00" y2="436.31"/>
    <line x1="80.00" y1="435.96" x2="720.00" y2="435.96"/>
    <line x1="80.00" y1="435.60" x2="720.00" y2="435.60"/>
    <line x1="80.00" y1="435.25" x2="720.00" y2="435.25"/>
    <line x1="80.00" y1="434.54" x2="720.00" y2="434.54"/>
    <line x1="80.00" y1="434.19" x2="720.00" y2="434.19"/>
    <line x1="80.00" y1="433.84" x2="720.00" y2="433.84"/>
    <line x1="80.00" y1="433.49" x2="720.00" y2="433.49"/>
    <line x1="80.00" y1="432.78" x2="720.00" y2="432.78"/>
    <line x1="80.00" y1="432.43" x2="720.00" y2="432.43"/>
    <line x1="80.00" y1="432.07" x2="720.00" y2="432.07"/>
    <line x1="80.00" y1="431.72" x2="720.00" y2="431.72"/>
    <line x1="80.00" y1="431.02" x2="720.00" y2="431.02"/>
    <line x1="80.00" y1="430.66" x2="720.00" y2="430.66"/>
    <line x1="80.00" y1="430.31" x2="720.00" y2="430.31"/>
    <line x1="80.00" y1="429.96" x2="720.00" y2="429.96"/>
    <line x1="80.00" y1="429.25" x2="720.00" y2="429.25"/>
    <line x1="80.00" y1="428.90" x2="720.00" y2="428.90"/>
    <line x1="80.00" y1="428.55" x2="720.00" y2="428.55"/>
    <line x1="80.00" y1="428.19" x2="720.00" y2="428.19"/>
    <line x1="80.00" y1="427.49" x2="720.00" y2="427.49"/>
    <line x1="80.00" y1="427.13" x2="720.00" y2="427.13"/>
    <line x1="80.00" y1="426.78" x2="720.00" y2="426.78"/>
    <line x1="80.00" y1="426.43" x2="720.00" y2="426.43"/>
    <line x1="80.00" y1="425.72" x2="720.00" y2="425.72"/>
    <line x1="80.00" y1="425.37" x2="720.00" y2="425.37"/>
    <line x1="80.00" y1="425.02" x2="720.00" y2="425.02"/>
    <line x1="80.00" y1="424.66" x2="720.00" y2="424.66"/>
    <line x1="80.00" y1="423.96" x2="720.00" y2="423.96"/>
    <line x1="80.00" y1="423.61" x2="720.00" y2="423.61"/>
    <line x1="80.00" y1="423.25" x2="720.00" y2="423.25"/>
    <line x1="80.00" y1="422.90" x2="720.00" y2="422.90"/>
    <line x1="80.00" y1="422.19" x2="720.00" y2="422.19"/>
    <line x1="80.00" y1="421.84" x2="720.00" y2="421.84"/>
    <line x1="80.00" y1="421.49" x2="720.00" y2="421.49"/>
    <line x1="80.00" y1="421.14" x2="720.00" y2="421.14"/>
    <line x1="80.00" y1="420.43" x2="720.00" y2="420.43"/>
    <line x1="80.00" y1="420.08" x2="720.00" y2="420.08"/>
    <line x1="80.00" y1="419.72" x2="720.00" y2="419.72"/>
    <line x1="80.00" y1="419.37" x2="720.00" y2="419.37"/>
    <line x1="80.00" y1="418.67" x2="720.00" y2="418.67"/>
    <line x1="80.00" y1="418.31" x2="720.00" y2="418.31"/>
    <line x1="80.00" y1="417.96" x2="720.00" y2="417.96"/>
    <line x1="80.00" y1="417.61" x2="720.00" y2="417.61"/>
    <line x1="80.00" y1="416.90" x2="720.00" y2="416.90"/>
    <line x1="80.00" y1="416.55" x2="720.00" y2="416.55"/>
    <line x1="80.00" y1="416.20" x2="720.00" y2="416.20"/>
    <line x1="80.00" y1="415.84" x2="720.00" y2="415.84"/>
    <line x1="80.00" y1="415.14" x2="720.00" y2="415.14"/>
    <line x1="80.00" y1="414.78" x2="720.00" y2="414.78"/>
    <line x1="80.00" y1="414.43" x2="720.00" y2="414.43"/>
    <line x1="80.00" y1="414.08" x2="720.00" y2="414.08"/>
    <line x1="80.00" y1="413.37" x2="720.00" y2="413.37"/>
    <line x1="80.00" y1="413.02" x2="720.00" y2="413.02"/>
    <line x1="80.00" y1="412.67" x2="720.00" y2="412.67"/>
    <line x1="80.00" y1="412.31" x2="720.00" y2="412.31"/>
    <line x1="80.00" y1="411.61" x2="720.00" y2="411.61"/>
    <line x1="80.00" y1="411.25" x2="720.00" y2="411.25"/>
    <line x1="80.00" y1="410.90" x2="720.00" y2="410.90"/>
    <line x1="80.00" y1="410.55" x2="720.00" y2="410.55"/>
    <line x1="80.00" y1="409.84" x2="720.00" y2="409.84"/>
    <line x1="80.00" y1="409.49" x2="720.00" y2="409.49"/>
    <line x1="80.00" y1="409.14" x2="720.00" y2="409.14"/>
    <line x1="80.00" y1="408.78" x2="720.00" y2="408.78"/>
    <line x1="80.00" y1="408.08" x2="720.00" y2="408.08"/>
    <line x1="80.00" y1="407.73" x2="720.00" y2="407.73"/>
    <line x1="80.00" y1="407.37" x2="720.00" y2="407.37"/>
    <line x1="80.00" y1="407.02" x2="720.00" y2="407.02"/>
    <line x1="80.00" y1="406.31" x2="720.00" y2="406.31"/>
    <line x1="80.00" y1="405.96" x2="720.00" y2="405.96"/>
    <line x1="80.00" y1="405.61" x2="720.00" y2="405.61"/>
    <line x1="80.00" y1="405.26" x2="720.00" y2="405.26"/>
    <line x1="80.00" y1="404.55" x2="720.00" y2="404.55"/>
    <line x1="80.00" y1="404.20" x2="720.00" y2="404.20"/>
    <line x1="80.00" y1="403.84" x2="720.00" y2="403.84"/>
    <line x1="80.00" y1="403.49" x2="720.00" y2="403.49"/>
    <line x1="80.00" y1="402.79" x2="720.00" y2="402.79"/>
    <line x1="80.00" y1="402.43" x2="720.00" y2="402.43"/>
    <line x1="80.00" y1="402.08" x2="720.00" y2="402.08"/>
    <line x1="80.00" y1="401.73" x2="720.00" y2="401.73"/>
    <line x1="80.00" y1="401.02" x2="720.00" y2="401.02"/>
    <line x1="80.00" y1="400.67" x2="720.00" y2="400.67"/>
    <line x1="80.00" y1="400.32" x2="720.00" y2="400.32"/>
    <line x1="80.00" y1="399.96" x2="720.00" y2="399.96"/>
    <line x1="80.00" y1="399.26" x2="720.00" y2="399.26"/>
    <line x1="80.00" y1="398.90" x2="720.00" y2="398.90"/>
    <line x1="80.00" y1="398.55" x2="720.00" y2="398.55"/>
    <line x1="80.00" y1="398.20" x2="720.00" y2="398.20"/>
    <line x1="80.00" y1="397.49" x2="720.00" y2="397.49"/>
    <line x1="80.00" y1="397.14" x2="720.00" y2="397.14"/>
    <line x1="80.00" y1="396.79" x2="720.00" y2="396.79"/>
    <line x1="80.00" y1="396.43" x2="720.00" y2="396.43"/>
    <line x1="80.00" y1="395.73" x2="720.00" y2="395.73"/>
    <line x1="80.00" y1="395.38" x2="720.00" y2="395.38"/>
    <line x1="80.00" y1="395.02" x2="720.00" y2="395.02"/>
    <line x1="80.00" y1="394.67" x2="720.00" y2="394.67"/>
    <line x1="80.00" y1="393.96" x2="720.00" y2="393.96"/>
    <line x1="80.00" y1="393.61" x2="720.00" y2="393.61"/>
    <line x1="80.00" y1="393.26" x2="720.00" y2="393.26"/>
    <line x1="80.00" y1="392.91" x2="720.00" y2="392.91"/>
    <line x1="80.00" y1="392.20" x2="720.00" y2="392.20"/>
    <line x1="80.00" y1="391.85" x2="720.00" y2="391.85"/>
    <line x1="80.00" y1="391.49" x2="720.00" y2="391.49"/>
    <line x1="80.00" y1="391.14" x2="720.00" y2="391.14"/>
    <line x1="80.00" y1="390.44" x2="720.00" y2="390.44"/>
    <line x1="80.00" y1="390.08" x2="720.00" y2="390.08"/>
    <line x1="80.00" y1="389.73" x2="720.00" y2="389.73"/>
    <line x1="80.00" y1="389.38" x2="720.00" y2="389.38"/>
    <line x1="80.00" y1="388.67" x2="720.00" y2="388.67"/>
    <line x1="80.00" y1="388.32" x2="720.00" y2="388.32"/>
    <line x1="80.00" y1="387.97" x2="720.00" y2="387.97"/>
    <line x1="80.00" y1="387.61" x2="720.00" y2="387.61"/>
    <line x1="80.00" y1="386.91" x2="720.00" y2="386.91"/>
    <line x1="80.00" y1="386.55" x2="720.00" y2="386.55"/>
    <line x1="80.00" y1="386.20" x2="720.00" y2="386.20"/>
    <line x1="80.00" y1="385.85" x2="720.00" y2="385.85"/>
    <line x1="80.00" y1="385.14" x2="720.00" y2="385.14"/>
    <line x1="80.00" y1="384.79" x2="720.00" y2="384.79"/>
    <line x1="80.00" y1="384.44" x2="720.00" y2="384.44"/>
    <line x1="80.00" y1="384.08" x2="720.00" y2="384.08"/>
    <line x1="80.00" y1="383.38" x2="720.00" y2="383.38"/>
    <line x1="80.00" y1="383.03" x2="720.00" y2="383.03"/>
    <line x1="80.00" y1="382.67" x2="720.00" y2="382.67"/>
    <line x1="80.00" y1="382.32" x2="720.00" y2="382.32"/>
    <line x1="80.00" y1="381.61" x2="720.00" y2="381.61"/>
    <line x1="80.00" y1="381.26" x2="720.00" y2="381.26"/>
    <line x1="80.00" y1="380.91" x2="720.00" y2="380.91"/>
    <line x1="80.00" y1="380.56" x2="720.00" y2="380.56"/>
    <line x1="80.00" y1="379.85" x2="720.00" y2="379.85"/>
    <line x1="80.00" y1="379.50" x2="720.00" y2="379.50"/>
    <line x1="80.00" y1="379.14" x2="720.00" y2="379.14"/>
    <line x1="80.00" y1="378.79" x2="720.00" y2="378.79"/>
    <line x1="80.00" y1="378.09" x2="720.00" y2="378.09"/>
    <line x1="80.00" y1="377.73" x2="720.00" y2="377.73"/>
    <line x1="80.00" y1="377.38" x2="720.00" y2="377.38"/>
    <line x1="80.00" y1="377.03" x2="720.00" y2="377.03"/>
    <line x1="80.00" y1="376.32" x2="720.00" y2="376.32"/>
    <line x1="80.00" y1="375.97" x2="720.00" y2="375.97"/>
    <line x1="80.00" y1="375.62" x2="720.00" y2="375.62"/>
    <line x1="80.00" y1="375.26" x2="720.00" y2="375.26"/>
    <line x1="80.00" y1="374.56" x2="720.00" y2="374.56"/>
    <line x1="80.00" y1="374.20" x2="720.00" y2="374.20"/>
    <line x1="80.00" y1="373.85" x2="720.00" y2="373.85"/>
    <line x1="80.00" y1="373.50" x2="720.00" y2="373.50"/>
    <line x1="80.00" y1="372.79" x2="720.00" y2="372.79"/>
    <line x1="80.00" y1="372.44" x2="720.00" y2="372.44"/>
    <line x1="80.00" y1="372.09" x2="720.00" y2="372.09"/>
    <line x1="80.00" y1="371.73" x2="720.00" y2="371.73"/>
    <line x1="80.00" y1="371.03" x2="720.00" y2="371.03"/>
    <line x1="80.00" y1="370.68" x2="720.00" y2="370.68"/>
    <line x1="80.00" y1="370.32" x2="720.00" y2="370.32"/>
    <line x1="80.00" y1="369.97" x2="720.00" y2="369.97"/>
    <line x1="80.00" y1="369.26" x2="720.00" y2="369.26"/>
    <line x1="80.00" y1="368.91" x2="720.00" y2="368.91"/>
    <line x1="80.00" y1="368.56" x2="720.00" y2="368.56"/>
    <line x1="80.00" y1="368.21" x2="720.00" y2="368.21"/>
    <line x1="80.00" y1="367.50" x2="720.00" y2="367.50"/>
    <line x1="80.00" y1="367.15" x2="720.00" y2="367.15"/>
    <line x1="80.00" y1="366.79" x2="720.00" y2="366.79"/>
    <line x1="80.00" y1="366.44" x2="720.00" y2="366.44"/>
    <line x1="80.00" y1="365.74" x2="720.00" y2="365.74"/>
    <line x1="80.00" y1="365.38" x2="720.00" y2="365.38"/>
    <line x1="80.00" y1="365.03" x2="720.00" y2="365.03"/>
    <line x1="80.00" y1="364.68" x2="720.00" y2="364.68"/>
    <line x1="80.00" y1="363.97" x2="720.00" y2="363.97"/>
    <line x1="80.00" y1="363.62" x2="720.00" y2="363.62"/>
    <line x1="80.00" y1="363.27" x2="720.00" y2="363.27"/>
    <line x1="80.00" y1="362.91" x2="720.00" y2="362.91"/>
    <line x1="80.00" y1="362.21" x2="720.00" y2="362.21"/>
    <line x1="80.00" y1="361.85" x2="720.00" y2="361.85"/>
    <line x1="80.00" y1="361.50" x2="720.00" y2="361.50"/>
    <line x1="80.00" y1="361.15" x2="720.00" y2="361.15"/>
    <line x1="80.00" y1="360.44" x2="720.00" y2="360.44"/>
    <line x1="80.00" y1="360.09" x2="720.00" y2="360.09"/>
    <line x1="80.00" y1="359.74" x2="720.00" y2="359.74"/>
    <line x1="80.00" y1="359.38" x2="720.00" y2="359.38"/>
    <line x1="80.00" y1="358.68" x2="720.00" y2="358.68"/>
    <line x1="80.00" y1="358.33" x2="720.00" y2="358.33"/>
    <line x1="80.00" y1="357.97" x2="720.00" y2="357.97"/>
    <line x1="80.00" y1="357.62" x2="720.00" y2="357.62"/>
    <line x1="80.00" y1="356.91" x2="720.00" y2="356.91"/>
    <line x1="80.00" y1="356.56" x2="720.00" y2="356.56"/>
    <line x1="80.00" y1="356.21" x2="720.00" y2="356.21"/>
    <line x1="80.00" y1="355.86" x2="720.00" y2="355.86"/>
    <line x1="80.00" y1="355.15" x2="720.00" y2="355.15"/>
    <line x1="80.00" y1="354.80" x2="720.00" y2="354.80"/>
    <line x1="80.00" y1="354.44" x2="720.00" y2="354.44"/>
    <line x1="80.00" y1="354.09" x2="720.00" y2="354.09"/>
    <line x1="80.00" y1="353.39" x2="720.00" y2="353.39"/>
    <line x1="80.00" y1="353.03" x2="720.00" y2="353.03"/>
    <line x1="80.00" y1="352.68" x2="720.00" y2="352.68"/>
    <line x1="80.00" y1="352.33" x2="720.00" y2="352.33"/>
    <line x1="80.00" y1="351.62" x2="720.00" y2="351.62"/>
    <line x1="80.00" y1="351.27" x2="720.00" y2="351.27"/>
    <line x1="80.00" y1="350.91" x2="720.00" y2="350.91"/>
    <line x1="80.00" y1="350.56" x2="720.00" y2="350.56"/>
    <line x1="80.00" y1="349.86" x2="720.00" y2="349.86"/>
    <line x1="80.00" y1="349.50" x2="720.00" y2="349.50"/>
    <line x1="80.00" y1="349.15" x2="720.00" y2="349.15"/>
    <line x1="80.00" y1="348.80" x2="720.00" y2="348.80"/>
    <line x1="80.00" y1="348.09" x2="720.00" y2="348.09"/>
    <line x1="80.00" y1="347.74" x2="720.00" y2="347.74"/>
    <line x1="80.00" y1="347.39" x2="720.00" y2="347.39"/>
    <line x1="80.00" y1="347.03" x2="720.00" y2="347.03"/>
    <line x1="80.00" y1="346.33" x2="720.00" y2="346.33"/>
    <line x1="80.00" y1="345.97" x2="720.00" y2="345.97"/>
    <line x1="80.00" y1="345.62" x2="720.00" y2="345.62"/>
    <line x1="80.00" y1="345.27" x2="720.00" y2="345.27"/>
    <line x1="80.00" y1="344.56" x2="720.00" y2="344.56"/>
    <line x1="80.00" y1="344.21" x2="720.00" y2="344.21"/>
    <line x1="80.00" y1="343.86" x2="720.00" y2="343.86"/>
    <line x1="80.00" y1="343.50" x2="720.00" y2="343.50"/>
    <line x1="80.00" y1="342.80" x2="720.00" y2="342.80"/>
    <line x1="80.00" y1="342.45" x2="720.00" y2="342.45"/>
    <line x1="80.00" y1="342.09" x2="720.00" y2="342.09"/>
    <line x1="80.00" y1="341.74" x2="720.00" y2="341.74"/>
    <line x1="80.00" y1="341.03" x2="720.00" y2="341.03"/>
    <line x1="80.00" y1="340.68" x2="720.00" y2="340.68"/>
    <line x1="80.00" y1="340.33" x2="720.00" y2="340.33"/>
    <line x1="80.00" y1="339.98" x2="720.00" y2="339.98"/>
    <line x1="80.00" y1="339.27" x2="720.00" y2="339.27"/>
    <line x1="80.00" y1="338.92" x2="720.00" y2="338.92"/>
    <line x1="80.00" y1="338.56" x2="720.00" y2="338.56"/>
    <line x1="80.00" y1="338.21" x2="720.00" y2="338.21"/>
    <line x1="80.00" y1="337.51" x2="720.00" y2="337.51"/>
    <line x1="80.00" y1="337.15" x2="720.00" y2="337.15"/>
    <line x1="80.00" y1="336.80" x2="720.00" y2="336.80"/>
    <line x1="80.00" y1="336.45" x2="720.00" y2="336.45"/>
    <line x1="80.00" y1="335.74" x2="720.00" y2="335.74"/>
    <line x1="80.00" y1="335.39" x2="720.00" y2="335.39"/>
    <line x1="80.00" y1="335.04" x2="720.00" y2="335.04"/>
    <line x1="80.00" y1="334.68" x2="720.00" y2="334.68"/>
    <line x1="80.00" y1="333.98" x2="720.00" y2="333.98"/>
    <line x1="80.00" y1="333.62" x2="720.00" y2="333.62"/>
    <line x1="80.00" y1="333.27" x2="720.00" y2="333.27"/>
    <line x1="80.00" y1="332.92" x2="720.00" y2="332.92"/>
    <line x1="80.00" y1="332.21" x2="720.00" y2="332.21"/>
    <line x1="80.00" y1="331.86" x2="720.00" y2="331.86"/>
    <line x1="80.00" y1="331.51" x2="720.00" y2="331.51"/>
    <line x1="80.00" y1="331.15" x2="720.00" y2="331.15"/>
    <line x1="80.00" y1="330.45" x2="720.00" y2="330.45"/>
    <line x1="80.00" y1="330.10" x2="720.00" y2="330.10"/>
    <line x1="80.00" y1="329.74" x2="720.00" y2="329.74"/>
    <line x1="80.00" y1="329.39" x2="720.00" y2="329.39"/>
    <line x1="80.00" y1="328.68" x2="720.00" y2="328.68"/>
    <line x1="80.00" y1="328.33" x2="720.00" y2="328.33"/>
    <line x1="80.00" y1="327.98" x2="720.00" y2="327.98"/>
    <line x1="80.00" y1="327.63" x2="720.00" y2="327.63"/>
    <line x1="80.00" y1="326.92" x2="720.00" y2="326.92"/>
    <line x1="80.00" y1="326.57" x2="720.00" y2="326.57"/>
    <line x1="80.00" y1="326.21" x2="720.00" y2="326.21"/>
    <line x1="80.00" y1="325.86" x2="720.00" y2="325.86"/>
    <line x1="80.00" y1="325.16" x2="720.00" y2="325.16"/>
    <line x1="80.00" y1="324.80" x2="720.00" y2="324.80"/>
    <line x1="80.00" y1="324.45" x2="720.00" y2="324.45"/>
    <line x1="80.00" y1="324.10" x2="720.00" y2="324.10"/>
    <line x1="80.00" y1="323.39" x2="720.00" y2="323.39"/>
    <line x1="80.00" y1="323.04" x2="720.00" y2="323.04"/>
    <line x1="80.00" y1="322.69" x2="720.00" y2="322.69"/>
    <line x1="80.00" y1="322.33" x2="720.00" y2="322.33"/>
    <line x1="80.00" y1="321.63" x2="720.00" y2="321.63"/>
    <line x1="80.00" y1="321.27" x2="720.00" y2="321.27"/>
    <line x1="80.00" y1="320.92" x2="720.00" y2="320.92"/>
    <line x1="80.00" y1="320.57" x2="720.00" y2="320.57"/>
    <line x1="80.00" y1="319.86" x2="720.00" y2="319.86"/>
    <line x1="80.00" y1="319.51" x2="720.00" y2="319.51"/>
    <line x1="80.00" y1="319.16" x2="720.00" y2="319.16"/>
    <line x1="80.00" y1="318.80" x2="720.00" y2="318.80"/>
    <line x1="80.00" y1="318.10" x2="720.00" y2="318.10"/>
    <line x1="80.00" y1="317.75" x2="720.00" y2="317.75"/>
    <line x1="80.00" y1="317.39" x2="720.00" y2="317.39"/>
    <line x1="80.00" y1="317.04" x2="720.00" y2="317.04"/>
    <line x1="80.00" y1="316.33" x2="720.00" y2="316.33"/>
    <line x1="80.00" y1="315.98" x2="720.00" y2="315.98"/>
    <line x1="80.00" y1="315.63" x2="720.00" y2="315.63"/>
    <line x1="80.00" y1="315.28" x2="720.00" y2="315.28"/>
    <line x1="80.00" y1="314.57" x2="720.00" y2="314.57"/>
    <line x1="80.00" y1="314.22" x2="720.00" y2="314.22"/>
    <line x1="80.00" y1="313.86" x2="720.00" y2="313.86"/>
    <line x1="80.00" y1="313.51" x2="720.00" y2="313.51"/>
    <line x1="80.00" y1="312.81" x2="720.00" y2="312.81"/>
    <line x1="80.00" y1="312.45" x2="720.00" y2="312.45"/>
    <line x1="80.00" y1="312.10" x2="720.00" y2="312.10"/>
    <line x1="80.00" y1="311.75" x2="720.00" y2="311.75"/>
    <line x1="80.00" y1="311.04" x2="720.00" y2="311.04"/>
    <line x1="80.00" y1="310.69" x2="720.00" y2="310.69"/>
    <line x1="80.00" y1="310.34" x2="720.00" y2="310.34"/>
    <line x1="80.00" y1="309.98" x2="720.00" y2="309.98"/>
    <line x1="80.00" y1="309.28" x2="720.00" y2="309.28"/>
    <line x1="80.00" y1="308.92" x2="720.00" y2="308.92"/>
    <line x1="80.00" y1="308.57" x2="720.00" y2="308.57"/>
    <line x1="80.00" y1="308.22" x2="720.00" y2="308.22"/>
    <line x1="80.00" y1="307.51" x2="720.00" y2="307.51"/>
    <line x1="80.00" y1="307.16" x2="720.00" y2="307.16"/>
    <line x1="80.00" y1="306.81" x2="720.00" y2="306.81"/>
    <line x1="80.00" y1="306.45" x2="720.00" y2="306.45"/>
    <line x1="80.00" y1="305.75" x2="720.00" y2="305.75"/>
    <line x1="80.00" y1="305.40" x2="720.00" y2="305.40"/>
    <line x1="80.00" y1="305.04" x2="720.00" y2="305.04"/>
    <line x1="80.00" y1="304.69" x2="720.00" y2="304.69"/>
    <line x1="80.00" y1="303.98" x2="720.00" y2="303.98"/>
    <line x1="80.00" y1="303.63" x2="720.00" y2="303.63"/>
    <line x1="80.00" y1="303.28" x2="720.00" y2="303.28"/>
    <line x1="80.00" y1="302.93" x2="720.00" y2="302.93"/>
    <line x1="80.00" y1="302.22" x2="720.00" y2="302.22"/>
    <line x1="80.00" y1="301.87" x2="720.00" y2="301.87"/>
    <line x1="80.00" y1="301.51" x2="720.00" y2="301.51"/>
    <line x1="80.00" y1="301.16" x2="720.00" y2="301.16"/>
    <line x1="80.00" y1="300.46" x2="720.00" y2="300.46"/>
    <line x1="80.00" y1="300.10" x2="720.00" y2="300.10"/>
    <line x1="80.00" y1="299.75" x2="720.00" y2="299.75"/>
    <line x1="80.00" y1="299.40" x2="720.00" y2="299.40"/>
    <line x1="80.00" y1="298.69" x2="720.00" y2="298.69"/>
    <line x1="80.00" y1="298.34" x2="720.00" y2="298.34"/>
    <line x1="80.00" y1="297.99" x2="720.00" y2="297.99"/>
    <line x1="80.00" y1="297.63" x2="720.00" y2="297.63"/>
    <line x1="80.00" y1="296.93" x2="720.00" y2="296.93"/>
    <line x1="80.00" y1="296.57" x2="720.00" y2="296.57"/>
    <line x1="80.00" y1="296.22" x2="720.00" y2="296.22"/>
    <line x1="80.00" y1="295.87" x2="720.00" y2="295.87"/>
    <line x1="80.00" y1="295.16" x2="720.00" y2="295.16"/>
    <line x1="80.00" y1="294.81" x2="720.00" y2="294.81"/>
    <line x1="80.00" y1="294.46" x2="720.00" y2="294.46"/>
    <line x1="80.00" y1="294.10" x2="720.00" y2="294.10"/>
    <line x1="80.00" y1="293.40" x2="720.00" y2="293.40"/>
    <line x1="80.00" y1="293.05" x2="720.00" y2="293.05"/>
    <line x1="80.00" y1="292.69" x2="720.00" y2="292.69"/>
    <line x1="80.00" y1="292.34" x2="720.00" y2="292.34"/>
    <line x1="80.00" y1="291.63" x2="720.00" y2="291.63"/>
    <line x1="80.00" y1="291.28" x2="720.00" y2="291.28"/>
    <line x1="80.00" y1="290.93" x2="720.00" y2="290.93"/>
    <line x1="80.00" y1="290.57" x2="720.00" y2="290.57"/>
    <line x1="80.00" y1="289.87" x2="720.00" y2="289.87"/>
    <line x1="80.00" y1="289.52" x2="720.00" y2="289.52"/>
    <line x1="80.00" y1="289.16" x2="720.00" y2="289.16"/>
    <line x1="80.00" y1="288.81" x2="720.00" y2="288.81"/>
    <line x1="80.00" y1="288.10" x2="720.00" y2="288.10"/>
    <line x1="80.00" y1="287.75" x2="720.00" y2="287.75"/>
    <line x1="80.00" y1="287.40" x2="720.00" y2="287.40"/>
    <line x1="80.00" y1="287.05" x2="720.00" y2="287.05"/>
    <line x1="80.00" y1="286.34" x2="720.00" y2="286.34"/>
    <line x1="80.00" y1="285.99" x2="720.00" y2="285.99"/>
    <line x1="80.00" y1="285.63" x2="720.00" y2="285.63"/>
    <line x1="80.00" y1="285.28" x2="720.00" y2="285.28"/>
    <line x1="80.00" y1="284.58" x2="720.00" y2="284.58"/>
    <line x1="80.00" y1="284.22" x2="720.00" y2="284.22"/>
    <line x1="80.00" y1="283.87" x2="720.00" y2="283.87"/>
    <line x1="80.00" y1="283.52" x2="720.00" y2="283.52"/>
    <line x1="80.00" y1="282.81" x2="720.00" y2="282.81"/>
    <line x1="80.00" y1="282.46" x2="720.00" y2="282.46"/>
    <line x1="80.00" y1="282.11" x2="720.00" y2="282.11"/>
    <line x1="80.00" y1="281.75" x2="720.00" y2="281.75"/>
    <line x1="80.00" y1="281.05" x2="720.00" y2="281.05"/>
    <line x1="80.00" y1="280.69" x2="720.00" y2="280.69"/>
    <line x1="80.00" y1="280.34" x2="720.00" y2="280.34"/>
    <line x1="80.00" y1="279.99" x2="720.00" y2="279.99"/>
    <line x1="80.00" y1="279.28" x2="720.00" y2="279.28"/>
    <line x1="80.00" y1="278.93" x2="720.00" y2="278.93"/>
    <line x1="80.00" y1="278.58" x2="720.00" y2="278.58"/>
    <line x1="80.00" y1="278.22" x2="720.00" y2="278.22"/>
    <line x1="80.00" y1="277.52" x2="720.00" y2="277.52"/>
    <line x1="80.00" y1="277.17" x2="720.00" y2="277.17"/>
    <line x1="80.00" y1="276.81" x2="720.00" y2="276.81"/>
    <line x1="80.00" y1="276.46" x2="720.00" y2="276.46"/>
    <line x1="80.00" y1="275.75" x2="720.00" y2="275.75"/>
    <line x1="80.00" y1="275.40" x2="720.00" y2="275.40"/>
    <line x1="80.00" y1="275.05" x2="720.00" y2="275.05"/>
    <line x1="80.00" y1="274.70" x2="720.00" y2="274.70"/>
    <line x1="80.00" y1="273.99" x2="720.00" y2="273.99"/>
    <line x1="80.00" y1="273.64" x2="720.00" y2="273.64"/>
    <line x1="80.00" y1="273.28" x2="720.00" y2="273.28"/>
    <line x1="80.00" y1="272.93" x2="720.00" y2="272.93"/>
    <line x1="80.00" y1="272.23" x2="720.00" y2="272.23"/>
    <line x1="80.00" y1="271.87" x2="720.00" y2="271.87"/>
    <line x1="80.00" y1="271.52" x2="720.00" y2="271.52"/>
    <line x1="80.00" y1="271.17" x2="720.00" y2="271.17"/>
    <line x1="80.00" y1="270.46" x2="720.00" y2="270.46"/>
    <line x1="80.00" y1="270.11" x2="720.00" y2="270.11"/>
    <line x1="80.00" y1="269.76" x2="720.00" y2="269.76"/>
    <line x1="80.00" y1="269.40" x2="720.00" y2="269.40"/>
    <line x1="80.00" y1="268.70" x2="720.00" y2="268.70"/>
    <line x1="80.00" y1="268.34" x2="720.00" y2="268.34"/>
    <line x1="80.00" y1="267.99" x2="720.00" y2="267.99"/>
    <line x1="80.00" y1="267.64" x2="720.00" y2="267.64"/>
    <line x1="80.00" y1="266.93" x2="720.00" y2="266.93"/>
    <line x1="80.00" y1="266.58" x2="720.00" y2="266.58"/>
    <line x1="80.00" y1="266.23" x2="720.00" y2="266.23"/>
    <line x1="80.00" y1="265.87" x2="720.00" y2="265.87"/>
    <line x1="80.00" y1="265.17" x2="720.00" y2="265.17"/>
    <line x1="80.00" y1="264.82" x2="720.00" y2="264.82"/>
    <line x1="80.00" y1="264.46" x2="720.00" y2="264.46"/>
    <line x1="80.00" y1="264.11" x2="720.00" y2="264.11"/>
    <line x1="80.00" y1="263.40" x2="720.00" y2="263.40"/>
    <line x1="80.00" y1="263.05" x2="720.00" y2="263.05"/>
    <line x1="80.00" y1="262.70" x2="720.00" y2="262.70"/>
    <line x1="80.00" y1="262.35" x2="720.00" y2="262.35"/>
    <line x1="80.00" y1="261.64" x2="720.00" y2="261.64"/>
    <line x1="80.00" y1="261.29" x2="720.00" y2="261.29"/>
    <line x1="80.00" y1="260.93" x2="720.00" y2="260.93"/>
    <line x1="80.00" y1="260.58" x2="720.00" y2="260.58"/>
    <line x1="80.00" y1="259.88" x2="720.00" y2="259.88"/>
    <line x1="80.00" y1="259.52" x2="720.00" y2="259.52"/>
    <line x1="80.00" y1="259.17" x2="720.00" y2="259.17"/>
    <line x1="80.00" y1="258.82" x2="720.00" y2="258.82"/>
    <line x1="80.00" y1="258.11" x2="720.00" y2="258.11"/>
    <line x1="80.00" y1="257.76" x2="720.00" y2="257.76"/>
    <line x1="80.00" y1="257.41" x2="720.00" y2="257.41"/>
    <line x1="80.00" y1="257.05" x2="720.00" y2="257.05"/>
    <line x1="80.00" y1="256.35" x2="720.00" y2="256.35"/>
    <line x1="80.00" y1="255.99" x2="720.00" y2="255.99"/>
    <line x1="80.00" y1="255.64" x2="720.00" y2="255.64"/>
    <line x1="80.00" y1="255.29" x2="720.00" y2="255.29"/>
    <line x1="80.00" y1="254.58" x2="720.00" y2="254.58"/>
    <line x1="80.00" y1="254.23" x2="720.00" y2="254.23"/>
    <line x1="80.00" y1="253.88" x2="720.00" y2="253.88"/>
    <line x1="80.00" y1="253.52" x2="720.00" y2="253.52"/>
    <line x1="80.00" y1="252.82" x2="720.00" y2="252.82"/>
    <line x1="80.00" y1="252.47" x2="720.00" y2="252.47"/>
    <line x1="80.00" y1="252.11" x2="720.00" y2="252.11"/>
    <line x1="80.00" y1="251.76" x2="720.00" y2="251.76"/>
    <line x1="80.00" y1="251.05" x2="720.00" y2="251.05"/>
    <line x1="80.00" y1="250.70" x2="720.00" y2="250.70"/>
    <line x1="80.00" y1="250.35" x2="720.00" y2="250.35"/>
    <line x1="80.00" y1="250.00" x2="720.00" y2="250.00"/>
    <line x1="80.00" y1="249.29" x2="720.00" y2="249.29"/>
    <line x1="80.00" y1="248.94" x2="720.00" y2="248.94"/>
    <line x1="80.00" y1="248.58" x2="720.00" y2="248.58"/>
    <line x1="80.00" y1="248.23" x2="720.00" y2="248.23"/>
    <line x1="80.00" y1="247.53" x2="720.00" y2="247.53"/>
    <line x1="80.00" y1="247.17" x2="720.00" y2="247.17"/>
    <line x1="80.00" y1="246.82" x2="720.00" y2="246.82"/>
    <line x1="80.00" y1="246.47" x2="720.00" y2="246.47"/>
    <line x1="80.00" y1="245.76" x2="720.00" y2="245.76"/>
    <line x1="80.00" y1="245.41" x2="720.00" y2="245.41"/>
    <line x1="80.00" y1="245.06" x2="720.00" y2="245.06"/>
    <line x1="80.00" y1="244.70" x2="720.00" y2="244.70"/>
    <line x1="80.00" y1="244.00" x2="720.00" y2="244.00"/>
    <line x1="80.00" y1="243.64" x2="720.00" y2="243.64"/>
    <line x1="80.00" y1="243.29" x2="720.00" y2="243.29"/>
    <line x1="80.00" y1="242.94" x2="720.00" y2="242.94"/>
    <line x1="80.00" y1="242.23" x2="720.00" y2="242.23"/>
    <line x1="80.00" y1="241.88" x2="720.00" y2="241.88"/>
    <line x1="80.00" y1="241.53" x2="720.00" y2="241.53"/>
    <line x1="80.00" y1="241.17" x2="720.00" y2="241.17"/>
    <line x1="80.00" y1="240.47" x2="720.00" y2="240.47"/>
    <line x1="80.00" y1="240.12" x2="720.00" y2="240.12"/>
    <line x1="80.00" y1="239.76" x2="720.00" y2="239.76"/>
    <line x1="80.00" y1="239.41" x2="720.00" y2="239.41"/>
    <line x1="80.00" y1="238.70" x2="720.00" y2="238.70"/>
    <line x1="80.00" y1="238.35" x2="720.00" y2="238.35"/>
    <line x1="80.00" y1="238.00" x2="720.00" y2="238.00"/>
    <line x1="80.00" y1="237.65" x2="720.00" y2="237.65"/>
    <line x1="80.00" y1="236.94" x2="720.00" y2="236.94"/>
    <line x1="80.00" y1="236.59" x2="720.00" y2="236.59"/>
    <line x1="80.00" y1="236.23" x2="720.00" y2="236.23"/>
    <line x1="80.00" y1="235.88" x2="720.00" y2="235.88"/>
    <line x1="80.00" y1="235.18" x2="720.00" y2="235.18"/>
    <line x1="80.00" y1="234.82" x2="720.00" y2="234.82"/>
    <line x1="80.00" y1="234.47" x2="720.00" y2="234.47"/>
    <line x1="80.00" y1="234.12" x2="720.00" y2="234.12"/>
    <line x1="80.00" y1="233.41" x2="720.00" y2="233.41"/>
    <line x1="80.00" y1="233.06" x2="720.00" y2="233.06"/>
    <line x1="80.00" y1="232.71" x2="720.00" y2="232.71"/>
    <line x1="80.00" y1="232.35" x2="720.00" y2="232.35"/>
    <line x1="80.00" y1="231.65" x2="720.00" y2="231.65"/>
    <line x1="80.00" y1="231.29" x2="720.00" y2="231.29"/>
    <line x1="80.00" y1="230.94" x2="720.00" y2="230.94"/>
    <line x1="80.00" y1="230.59" x2="720.00" y2="230.59"/>
    <line x1="80.00" y1="229.88" x2="720.00" y2="229.88"/>
    <line x1="80.00" y1="229.53" x2="720.00" y2="229.53"/>
    <line x1="80.00" y1="229.18" x2="720.00" y2="229.18"/>
    <line x1="80.00" y1="228.82" x2="720.00" y2="228.82"/>
    <line x1="80.00" y1="228.12" x2="720.00" y2="228.12"/>
    <line x1="80.00" y1="227.76" x2="720.00" y2="227.76"/>
    <line x1="80.00" y1="227.41" x2="720.00" y2="227.41"/>
    <line x1="80.00" y1="227.06" x2="720.00" y2="227.06"/>
    <line x1="80.00" y1="226.35" x2="720.00" y2="226.35"/>
    <line x1="80.00" y1="226.00" x2="720.00" y2="226.00"/>
    <line x1="80.00" y1="225.65" x2="720.00" y2="225.65"/>
    <line x1="80.00" y1="225.29" x2="720.00" y2="225.29"/>
    <line x1="80.00" y1="224.59" x2="720.00" y2="224.59"/>
    <line x1="80.00" y1="224.24" x2="720.00" y2="224.24"/>
    <line x1="80.00" y1="223.88" x2="720.00" y2="223.88"/>
    <line x1="80.00" y1="223.53" x2="720.00" y2="223.53"/>
    <line x1="80.00" y1="222.82" x2="720.00" y2="222.82"/>
    <line x1="80.00" y1="222.47" x2="720.00" y2="222.47"/>
    <line x1="80.00" y1="222.12" x2="720.00" y2="222.12"/>
    <line x1="80.00" y1="221.77" x2="720.00" y2="221.77"/>
    <line x1="80.00" y1="221.06" x2="720.00" y2="221.06"/>
    <line x1="80.00" y1="220.71" x2="720.00" y2="220.71"/>
    <line x1="80.00" y1="220.35" x2="720.00" y2="220.35"/>
    <line x1="80.00" y1="220.00" x2="720.00" y2="220.00"/>
    <line x1="80.00" y1="219.30" x2="720.00" y2="219.30"/>
    <line x1="80.00" y1="218.94" x2="720.00" y2="218.94"/>
    <line x1="80.00" y1="218.59" x2="720.00" y2="218.59"/>
    <line x1="80.00" y1="218.24" x2="720.00" y2="218.24"/>
    <line x1="80.00" y1="217.53" x2="720.00" y2="217.53"/>
    <line x1="80.00" y1="217.18" x2="720.00" y2="217.18"/>
    <line x1="80.00" y1="216.83" x2="720.00" y2="216.83"/>
    <line x1="80.00" y1="216.47" x2="720.00" y2="216.47"/>
    <line x1="80.00" y1="215.77" x2="720.00" y2="215.77"/>
    <line x1="80.00" y1="215.41" x2="720.00" y2="215.41"/>
    <line x1="80.00" y1="215.06" x2="720.00" y2="215.06"/>
    <line x1="80.00" y1="214.71" x2="720.00" y2="214.71"/>
    <line x1="80.00" y1="214.00" x2="720.00" y2="214.00"/>
    <line x1="80.00" y1="213.65" x2="720.00" y2="213.65"/>
    <line x1="80.00" y1="213.30" x2="720.00" y2="213.30"/>
    <line x1="80.00" y1="212.94" x2="720.00" y2="212.94"/>
    <line x1="80.00" y1="212.24" x2="720.00" y2="212.24"/>
    <line x1="80.00" y1="211.89" x2="720.00" y2="211.89"/>
    <line x1="80.00" y1="211.53" x2="720.00" y2="211.53"/>
    <line x1="80.00" y1="211.18" x2="720.00" y2="211.18"/>
    <line x1="80.00" y1="210.47" x2="720.00" y2="210.47"/>
    <line x1="80.00" y1="210.12" x2="720.00" y2="210.12"/>
    <line x1="80.00" y1="209.77" x2="720.00" y2="209.77"/>
    <line x1="80.00" y1="209.42" x2="720.00" y2="209.42"/>
    <line x1="80.00" y1="208.71" x2="720.00" y2="208.71"/>
    <line x1="80.00" y1="208.36" x2="720.00" y2="208.36"/>
    <line x1="80.00" y1="208.00" x2="720.00" y2="208.00"/>
    <line x1="80.00" y1="207.65" x2="720.00" y2="207.65"/>
    <line x1="80.00" y1="206.95" x2="720.00" y2="206.95"/>
    <line x1="80.00" y1="206.59" x2="720.00" y2="206.59"/>
    <line x1="80.00" y1="206.24" x2="720.00" y2="206.24"/>
    <line x1="80.00" y1="205.89" x2="720.00" y2="205.89"/>
    <line x1="80.00" y1="205.18" x2="720.00" y2="205.18"/>
    <line x1="80.00" y1="204.83" x2="720.00" y2="204.83"/>
    <line x1="80.00" y1="204.48" x2="720.00" y2="204.48"/>
    <line x1="80.00" y1="204.12" x2="720.00" y2="204.12"/>
    <line x1="80.00" y1="203.42" x2="720.00" y2="203.42"/>
    <line x1="80.00" y1="203.06" x2="720.00" y2="203.06"/>
    <line x1="80.00" y1="202.71" x2="720.00" y2="202.71"/>
    <line x1="80.00" y1="202.36" x2="720.00" y2="202.36"/>
    <line x1="80.00" y1="201.65" x2="720.00" y2="201.65"/>
    <line x1="80.00" y1="201.30" x2="720.00" y2="201.30"/>
    <line x1="80.00" y1="200.95" x2="720.00" y2="200.95"/>
    <line x1="80.00" y1="200.59" x2="720.00" y2="200.59"/>
    <line x1="80.00" y1="199.89" x2="720.00" y2="199.89"/>
    <line x1="80.00" y1="199.54" x2="720.00" y2="199.54"/>
    <line x1="80.00" y1="199.18" x2="720.00" y2="199.18"/>
    <line x1="80.00" y1="198.83" x2="720.00" y2="198.83"/>
    <line x1="80.00" y1="198.12" x2="720.00" y2="198.12"/>
    <line x1="80.00" y1="197.77" x2="720.00" y2="197.77"/>
    <line x1="80.00" y1="197.42" x2="720.00" y2="197.42"/>
    <line x1="80.00" y1="197.07" x2="720.00" y2="197.07"/>
    <line x1="80.00" y1="196.36" x2="720.00" y2="196.36"/>
    <line x1="80.00" y1="196.01" x2="720.00" y2="196.01"/>
    <line x1="80.00" y1="195.65" x2="720.00" y2="195.65"/>
    <line x1="80.00" y1="195.30" x2="720.00" y2="195.30"/>
    <line x1="80.00" y1="194.60" x2="720.00" y2="194.60"/>
    <line x1="80.00" y1="194.24" x2="720.00" y2="194.24"/>
    <line x1="80.00" y1="193.89" x2="720.00" y2="193.89"/>
    <line x1="80.00" y1="193.54" x2="720.00" y2="193.54"/>
    <line x1="80.00" y1="192.83" x2="720.00" y2="192.83"/>
    <line x1="80.00" y1="192.48" x2="720.00" y2="192.48"/>
    <line x1="80.00" y1="192.13" x2="720.00" y2="192.13"/>
    <line x1="80.00" y1="191.77" x2="720.00" y2="191.77"/>
    <line x1="80.00" y1="191.07" x2="720.00" y2="191.07"/>
    <line x1="80.00" y1="190.71" x2="720.00" y2="190.71"/>
    <line x1="80.00" y1="190.36" x2="720.00" y2="190.36"/>
    <line x1="80.00" y1="190.01" x2="720.00" y2="190.01"/>
    <line x1="80.00" y1="189.30" x2="720.00" y2="189.30"/>
    <line x1="80.00" y1="188.95" x2="720.00" y2="188.95"/>
    <line x1="80.00" y1="188.60" x2="720.00" y2="188.60"/>
    <line x1="80.00" y1="188.24" x2="720.00" y2="188.24"/>
    <line x1="80.00" y1="187.54" x2="720.00" y2="187.54"/>
    <line x1="80.00" y1="187.19" x2="720.00" y2="187.19"/>
    <line x1="80.00" y1="186.83" x2="720.00" y2="186.83"/>
    <line x1="80.00" y1="186.48" x2="720.00" y2="186.48"/>
    <line x1="80.00" y1="185.77" x2="720.00" y2="185.77"/>
    <line x1="80.00" y1="185.42" x2="720.00" y2="185.42"/>
    <line x1="80.00" y1="185.07" x2="720.00" y2="185.07"/>
    <line x1="80.00" y1="184.72" x2="720.00" y2="184.72"/>
    <line x1="80.00" y1="184.01" x2="720.00" y2="184.01"/>
    <line x1="80.00" y1="183.66" x2="720.00" y2="183.66"/>
    <line x1="80.00" y1="183.30" x2="720.00" y2="183.30"/>
    <line x1="80.00" y1="182.95" x2="720.00" y2="182.95"/>
    <line x1="80.00" y1="182.25" x2="720.00" y2="182.25"/>
    <line x1="80.00" y1="181.89" x2="720.00" y2="181.89"/>
    <line x1="80.00" y1="181.54" x2="720.00" y2="181.54"/>
    <line x1="80.00" y1="181.19" x2="720.00" y2="181.19"/>
    <line x1="80.00" y1="180.48" x2="720.00" y2="180.48"/>
    <line x1="80.00" y1="180.13" x2="720.00" y2="180.13"/>
    <line x1="80.00" y1="179.78" x2="720.00" y2="179.78"/>
    <line x1="80.00" y1="179.42" x2="720.00" y2="179.42"/>
    <line x1="80.00" y1="178.72" x2="720.00" y2="178.72"/>
    <line x1="80.00" y1="178.36" x2="720.00" y2="178.36"/>
    <line x1="80.00" y1="178.01" x2="720.00" y2="178.01"/>
    <line x1="80.00" y1="177.66" x2="720.00" y2="177.66"/>
    <line x1="80.00" y1="176.95" x2="720.00" y2="176.95"/>
    <line x1="80.00" y1="176.60" x2="720.00" y2="176.60"/>
    <line x1="80.00" y1="176.25" x2="720.00" y2="176.25"/>
    <line x1="80.00" y1="175.89" x2="720.00" y2="175.89"/>
    <line x1="80.00" y1="175.19" x2="720.00" y2="175.19"/>
    <line x1="80.00" y1="174.84" x2="720.00" y2="174.84"/>
    <line x1="80.00" y1="174.48" x2="720.00" y2="174.48"/>
    <line x1="80.00" y1="174.13" x2="720.00" y2="174.13"/>
    <line x1="80.00" y1="173.42" x2="720.00" y2="173.42"/>
    <line x1="80.00" y1="173.07" x2="720.00" y2="173.07"/>
    <line x1="80.00" y1="172.72" x2="720.00" y2="172.72"/>
    <line x1="80.00" y1="172.37" x2="720.00" y2="172.37"/>
    <line x1="80.00" y1="171.66" x2="720.00" y2="171.66"/>
    <line x1="80.00" y1="171.31" x2="720.00" y2="171.31"/>
    <line x1="80.00" y1="170.95" x2="720.00" y2="170.95"/>
    <line x1="80.00" y1="170.60" x2="720.00" y2="170.60"/>
    <line x1="80.00" y1="169.90" x2="720.00" y2="169.90"/>
    <line x1="80.00" y1="169.54" x2="720.00" y2="169.54"/>
    <line x1="80.00" y1="169.19" x2="720.00" y2="169.19"/>
    <line x1="80.00" y1="168.84" x2="720.00" y2="168.84"/>
    <line x1="80.00" y1="168.13" x2="720.00" y2="168.13"/>
    <line x1="80.00" y1="167.78" x2="720.00" y2="167.78"/>
    <line x1="80.00" y1="167.43" x2="720.00" y2="167.43"/>
    <line x1="80.00" y1="167.07" x2="720.00" y2="167.07"/>
    <line x1="80.00" y1="166.37" x2="720.00" y2="166.37"/>
    <line x1="80.00" y1="166.01" x2="720.00" y2="166.01"/>
    <line x1="80.00" y1="165.66" x2="720.00" y2="165.66"/>
    <line x1="80.00" y1="165.31" x2="720.00" y2="165.31"/>
    <line x1="80.00" y1="164.60" x2="720.00" y2="164.60"/>
    <line x1="80.00" y1="164.25" x2="720.00" y2="164.25"/>
    <line x1="80.00" y1="163.90" x2="720.00" y2="163.90"/>
    <line x1="80.00" y1="163.54" x2="720.00" y2="163.54"/>
    <line x1="80.00" y1="162.84" x2="720.00" y2="162.84"/>
    <line x1="80.00" y1="162.48" x2="720.00" y2="162.48"/>
    <line x1="80.00" y1="162.13" x2="720.00" y2="162.13"/>
    <line x1="80.00" y1="161.78" x2="720.00" y2="161.78"/>
    <line x1="80.00" y1="161.07" x2="720.00" y2="161.07"/>
    <line x1="80.00" y1="160.72" x2="720.00" y2="160.72"/>
    <line x1="80.00" y1="160.37" x2="720.00" y2="160.37"/>
    <line x1="80.00" y1="160.01" x2="720.00" y2="160.01"/>
    <line x1="80.00" y1="159.31" x2="720.00" y2="159.31"/>
    <line x1="80.00" y1="158.96" x2="720.00" y2="158.96"/>
    <line x1="80.00" y1="158.60" x2="720.00" y2="158.60"/>
    <line x1="80.00" y1="158.25" x2="720.00" y2="158.25"/>
    <line x1="80.00" y1="157.54" x2="720.00" y2="157.54"/>
    <line x1="80.00" y1="157.19" x2="720.00" y2="157.19"/>
    <line x1="80.00" y1="156.84" x2="720.00" y2="156.84"/>
    <line x1="80.00" y1="156.49" x2="720.00" y2="156.49"/>
    <line x1="80.00" y1="155.78" x2="720.00" y2="155.78"/>
    <line x1="80.00" y1="155.43" x2="720.00" y2="155.43"/>
    <line x1="80.00" y1="155.07" x2="720.00" y2="155.07"/>
    <line x1="80.00" y1="154.72" x2="720.00" y2="154.72"/>
    <line x1="80.00" y1="154.02" x2="720.00" y2="154.02"/>
    <line x1="80.00" y1="153.66" x2="720.00" y2="153.66"/>
    <line x1="80.00" y1="153.31" x2="720.00" y2="153.31"/>
    <line x1="80.00" y1="152.96" x2="720.00" y2="152.96"/>
    <line x1="80.00" y1="152.25" x2="720.00" y2="152.25"/>
    <line x1="80.00" y1="151.90" x2="720.00" y2="151.90"/>
    <line x1="80.00" y1="151.55" x2="720.00" y2="151.55"/>
    <line x1="80.00" y1="151.19" x2="720.00" y2="151.19"/>
    <line x1="80.00" y1="150.49" x2="720.00" y2="150.49"/>
    <line x1="80.00" y1="150.13" x2="720.00" y2="150.13"/>
    <line x1="80.00" y1="149.78" x2="720.00" y2="149.78"/>
    <line x1="80.00" y1="149.43" x2="720.00" y2="149.43"/>
    <line x1="80.00" y1="148.72" x2="720.00" y2="148.72"/>
    <line x1="80.00" y1="148.37" x2="720.00" y2="148.37"/>
    <line x1="80.00" y1="148.02" x2="720.00" y2="148.02"/>
    <line x1="80.00" y1="147.66" x2="720.00" y2="147.66"/>
    <line x1="80.00" y1="146.96" x2="720.00" y2="146.96"/>
    <line x1="80.00" y1="146.61" x2="720.00" y2="146.61"/>
    <line x1="80.00" y1="146.25" x2="720.00" y2="146.25"/>
    <line x1="80.00" y1="145.90" x2="720.00" y2="145.90"/>
    <line x1="80.00" y1="145.19" x2="720.00" y2="145.19"/>
    <line x1="80.00" y1="144.84" x2="720.00" y2="144.84"/>
    <line x1="80.00" y1="144.49" x2="720.00" y2="144.49"/>
    <line x1="80.00" y1="144.14" x2="720.00" y2="144.14"/>
    <line x1="80.00" y1="143.43" x2="720.00" y2="143.43"/>
    <line x1="80.00" y1="143.08" x2="720.00" y2="143.08"/>
    <line x1="80.00" y1="142.72" x2="720.00" y2="142.72"/>
    <line x1="80.00" y1="142.37" x2="720.00" y2="142.37"/>
    <line x1="80.00" y1="141.67" x2="720.00" y2="141.67"/>
    <line x1="80.00" y1="141.31" x2="720.00" y2="141.31"/>
    <line x1="80.00" y1="140.96" x2="720.00" y2="140.96"/>
    <line x1="80.00" y1="140.61" x2="720.00" y2="140.61"/>
    <line x1="80.00" y1="139.90" x2="720.00" y2="139.90"/>
    <line x1="80.00" y1="139.55" x2="720.00" y2="139.55"/>
    <line x1="80.00" y1="139.20" x2="720.00" y2="139.20"/>
    <line x1="80.00" y1="138.84" x2="720.00" y2="138.84"/>
    <line x1="80.00" y1="138.14" x2="720.00" y2="138.14"/>
    <line x1="80.00" y1="137.78" x2="720.00" y2="137.78"/>
    <line x1="80.00" y1="137.43" x2="720.00" y2="137.43"/>
    <line x1="80.00" y1="137.08" x2="720.00" y2="137.08"/>
    <line x1="80.00" y1="136.37" x2="720.00" y2="136.37"/>
    <line x1="80.00" y1="136.02" x2="720.00" y2="136.02"/>
    <line x1="80.00" y1="135.67" x2="720.00" y2="135.67"/>
    <line x1="80.00" y1="135.31" x2="720.00" y2="135.31"/>
    <line x1="80.00" y1="134.61" x2="720.00" y2="134.61"/>
    <line x1="80.00" y1="134.26" x2="720.00" y2="134.26"/>
    <line x1="80.00" y1="133.90" x2="720.00" y2="133.90"/>
    <line x1="80.00" y1="133.55" x2="720.00" y2="133.55"/>
    <line x1="80.00" y1="132.84" x2="720.00" y2="132.84"/>
    <line x1="80.00" y1="132.49" x2="720.00" y2="132.49"/>
    <line x1="80.00" y1="132.14" x2="720.00" y2="132.14"/>
    <line x1="80.00" y1="131.79" x2="720.00" y2="131.79"/>
    <line x1="80.00" y1="131.08" x2="720.00" y2="131.08"/>
    <line x1="80.00" y1="130.73" x2="720.00" y2="130.73"/>
    <line x1="80.00" y1="130.37" x2="720.00" y2="130.37"/>
    <line x1="80.00" y1="130.02" x2="720.00" y2="130.02"/>
    <line x1="80.00" y1="129.32" x2="720.00" y2="129.32"/>
    <line x1="80.00" y1="128.96" x2="720.00" y2="128.96"/>
    <line x1="80.00" y1="128.61" x2="720.00" y2="128.61"/>
    <line x1="80.00" y1="128.26" x2="720.00" y2="128.26"/>
    <line x1="80.00" y1="127.55" x2="720.00" y2="127.55"/>
    <line x1="80.00" y1="127.20" x2="720.00" y2="127.20"/>
    <line x1="80.00" y1="126.85" x2="720.00" y2="126.85"/>
    <line x1="80.00" y1="126.49" x2="720.00" y2="126.49"/>
    <line x1="80.00" y1="125.79" x2="720.00" y2="125.79"/>
    <line x1="80.00" y1="125.43" x2="720.00" y2="125.43"/>
    <line x1="80.00" y1="125.08" x2="720.00" y2="125.08"/>
    <line x1="80.00" y1="124.73" x2="720.00" y2="124.73"/>
    <line x1="80.00" y1="124.02" x2="720.00" y2="124.02"/>
    <line x1="80.00" y1="123.67" x2="720.00" y2="123.67"/>
    <line x1="80.00" y1="123.32" x2="720.00" y2="123.32"/>
    <line x1="80.00" y1="122.96" x2="720.00" y2="122.96"/>
    <line x1="80.00" y1="122.26" x2="720.00" y2="122.26"/>
    <line x1="80.00" y1="121.91" x2="720.00" y2="121.91"/>
    <line x1="80.00" y1="121.55" x2="720.00" y2="121.55"/>
    <line x1="80.00" y1="121.20" x2="720.00" y2="121.20"/>
    <line x1="80.00" y1="120.49" x2="720.00" y2="120.49"/>
    <line x1="80.00" y1="120.14" x2="720.00" y2="120.14"/>
    <line x1="80.00" y1="119.79" x2="720.00" y2="119.79"/>
    <line x1="80.00" y1="119.44" x2="720.00" y2="119.44"/>
    <line x1="80.00" y1="118.73" x2="720.00" y2="118.73"/>
    <line x1="80.00" y1="118.38" x2="720.00" y2="118.38"/>
    <line x1="80.00" y1="118.02" x2="720.00" y2="118.02"/>
    <line x1="80.00" y1="117.67" x2="720.00" y2="117.67"/>
    <line x1="80.00" y1="116.97" x2="720.00" y2="116.97"/>
    <line x1="80.00" y1="116.61" x2="720.00" y2="116.61"/>
    <line x1="80.00" y1="116.26" x2="720.00" y2="116.26"/>
    <line x1="80.00" y1="115.91" x2="720.00" y2="115.91"/>
    <line x1="80.00" y1="115.20" x2="720.00" y2="115.20"/>
    <line x1="80.00" y1="114.85" x2="720.00" y2="114.85"/>
    <line x1="80.00" y1="114.50" x2="720.00" y2="114.50"/>
    <line x1="80.00" y1="114.14" x2="720.00" y2="114.14"/>
    <line x1="80.00" y1="113.44" x2="720.00" y2="113.44"/>
    <line x1="80.00" y1="113.08" x2="720.00" y2="113.08"/>
    <line x1="80.00" y1="112.73" x2="720.00" y2="112.73"/>
    <line x1="80.00" y1="112.38" x2="720.00" y2="112.38"/>
    <line x1="80.00" y1="111.67" x2="720.00" y2="111.67"/>
    <line x1="80.00" y1="111.32" x2="720.00" y2="111.32"/>
    <line x1="80.00" y1="110.97" x2="720.00" y2="110.97"/>
    <line x1="80.00" y1="110.61" x2="720.00" y2="110.61"/>
    <line x1="80.00" y1="109.91" x2="720.00" y2="109.91"/>
    <line x1="80.00" y1="109.56" x2="720.00" y2="109.56"/>
    <line x1="80.00" y1="109.20" x2="720.00" y2="109.20"/>
    <line x1="80.00" y1="108.85" x2="720.00" y2="108.85"/>
    <line x1="80.00" y1="108.14" x2="720.00" y2="108.14"/>
    <line x1="80.00" y1="107.79" x2="720.00" y2="107.79"/>
    <line x1="80.00" y1="107.44" x2="720.00" y2="107.44"/>
    <line x1="80.00" y1="107.09" x2="720.00" y2="107.09"/>
    <line x1="80.00" y1="106.38" x2="720.00" y2="106.38"/>
    <line x1="80.00" y1="106.03" x2="720.00" y2="106.03"/>
    <line x1="80.00" y1="105.67" x2="720.00" y2="105.67"/>
    <line x1="80.00" y1="105.32" x2="720.00" y2="105.32"/>
    <line x1="80.00" y1="104.62" x2="720.00" y2="104.62"/>
    <line x1="80.00" y1="104.26" x2="720.00" y2="104.26"/>
    <line x1="80.00" y1="103.91" x2="720.00" y2="103.91"/>
    <line x1="80.00" y1="103.56" x2="720.00" y2="103.56"/>
    <line x1="80.00" y1="102.85" x2="720.00" y2="102.85"/>
    <line x1="80.00" y1="102.50" x2="720.00" y2="102.50"/>
    <line x1="80.00" y1="102.14" x2="720.00" y2="102.14"/>
    <line x1="80.00" y1="101.79" x2="720.00" y2="101.79"/>
    <line x1="80.00" y1="101.09" x2="720.00" y2="101.09"/>
    <line x1="80.00" y1="100.73" x2="720.00" y2="100.73"/>
    <line x1="80.00" y1="100.38" x2="720.00" y2="100.38"/>
    <line x1="80.00" y1="100.03" x2="720.00" y2="100.03"/>
    <line x1="80.00" y1="99.32" x2="720.00" y2="99.32"/>
    <line x1="80.00" y1="98.97" x2="720.00" y2="98.97"/>
    <line x1="80.00" y1="98.62" x2="720.00" y2="98.62"/>
    <line x1="80.00" y1="98.26" x2="720.00" y2="98.26"/>
    <line x1="80.00" y1="97.56" x2="720.00" y2="97.56"/>
    <line x1="80.00" y1="97.20" x2="720.00" y2="97.20"/>
    <line x1="80.00" y1="96.85" x2="720.00" y2="96.85"/>
    <line x1="80.00" y1="96.50" x2="720.00" y2="96.50"/>
    <line x1="80.00" y1="95.79" x2="720.00" y2="95.79"/>
    <line x1="80.00" y1="95.44" x2="720.00" y2="95.44"/>
    <line x1="80.00" y1="95.09" x2="720.00" y2="95.09"/>
    <line x1="80.00" y1="94.73" x2="720.00" y2="94.73"/>
    <line x1="80.00" y1="94.03" x2="720.00" y2="94.03"/>
    <line x1="80.00" y1="93.68" x2="720.00" y2="93.68"/>
    <line x1="80.00" y1="93.32" x2="720.00" y2="93.32"/>
    <line x1="80.00" y1="92.97" x2="720.00" y2="92.97"/>
    <line x1="80.00" y1="92.26" x2="720.00" y2="92.26"/>
    <line x1="80.00" y1="91.91" x2="720.00" y2="91.91"/>
    <line x1="80.00" y1="91.56" x2="720.00" y2="91.56"/>
    <line x1="80.00" y1="91.21" x2="720.00" y2="91.21"/>
    <line x1="80.00" y1="90.50" x2="720.00" y2="90.50"/>
    <line x1="80.00" y1="90.15" x2="720.00" y2="90.15"/>
    <line x1="80.00" y1="89.79" x2="720.00" y2="89.79"/>
    <line x1="80.00" y1="89.44" x2="720.00" y2="89.44"/>
    <line x1="80.00" y1="88.74" x2="720.00" y2="88.74"/>
    <line x1="80.00" y1="88.38" x2="720.00" y2="88.38"/>
    <line x1="80.00" y1="88.03" x2="720.00" y2="88.03"/>
    <line x1="80.00" y1="87.68" x2="720.00" y2="87.68"/>
    <line x1="80.00" y1="86.97" x2="720.00" y2="86.97"/>
    <line x1="80.00" y1="86.62" x2="720.00" y2="86.62"/>
    <line x1="80.00" y1="86.27" x2="720.00" y2="86.27"/>
    <line x1="80.00" y1="85.91" x2="720.00" y2="85.91"/>
    <line x1="80.00" y1="85.21" x2="720.00" y2="85.21"/>
    <line x1="80.00" y1="84.85" x2="720.00" y2="84.85"/>
    <line x1="80.00" y1="84.50" x2="720.00" y2="84.50"/>
    <line x1="80.00" y1="84.15" x2="720.00" y2="84.15"/>
    <line x1="80.00" y1="83.44" x2="720.00" y2="83.44"/>
    <line x1="80.00" y1="83.09" x2="720.00" y2="83.09"/>
    <line x1="80.00" y1="82.74" x2="720.00" y2="82.74"/>
    <line x1="80.00" y1="82.38" x2="720.00" y2="82.38"/>
    <line x1="80.00" y1="81.68" x2="720.00" y2="81.68"/>
    <line x1="80.00" y1="81.33" x2="720.00" y2="81.33"/>
    <line x1="80.00" y1="80.97" x2="720.00" y2="80.97"/>
    <line x1="80.00" y1="80.62" x2="720.00" y2="80.62"/>
    <line x1="80.00" y1="79.91" x2="720.00" y2="79.91"/>
    <line x1="80.00" y1="79.56" x2="720.00" y2="79.56"/>
    <line x1="80.00" y1="79.21" x2="720.00" y2="79.21"/>
    <line x1="80.00" y1="78.86" x2="720.00" y2="78.86"/>
    <line x1="80.00" y1="78.15" x2="720.00" y2="78.15"/>
    <line x1="80.00" y1="77.80" x2="720.00" y2="77.80"/>
    <line x1="80.00" y1="77.44" x2="720.00" y2="77.44"/>
    <line x1="80.00" y1="77.09" x2="720.00" y2="77.09"/>
    <line x1="80.00" y1="76.39" x2="720.00" y2="76.39"/>
    <line x1="80.00" y1="76.03" x2="720.00" y2="76.03"/>
    <line x1="80.00" y1="75.68" x2="720.00" y2="75.68"/>
    <line x1="80.00" y1="75.33" x2="720.00" y2="75.33"/>
    <line x1="80.00" y1="74.62" x2="720.00" y2="74.62"/>
    <line x1="80.00" y1="74.27" x2="720.00" y2="74.27"/>
    <line x1="80.00" y1="73.92" x2="720.00" y2="73.92"/>
    <line x1="80.00" y1="73.56" x2="720.00" y2="73.56"/>
    <line x1="80.00" y1="72.86" x2="720.00" y2="72.86"/>
    <line x1="80.00" y1="72.50" x2="720.00" y2="72.50"/>
    <line x1="80.00" y1="72.15" x2="720.00" y2="72.15"/>
    <line x1="80.00" y1="71.80" x2="720.00" y2="71.80"/>
    <line x1="80.00" y1="71.09" x2="720.00" y2="71.09"/>
    <line x1="80.00" y1="70.74" x2="720.00" y2="70.74"/>
    <line x1="80.00" y1="70.39" x2="720.00" y2="70.39"/>
    <line x1="80.00" y1="70.03" x2="720.00" y2="70.03"/>
    <line x1="80.00" y1="69.33" x2="720.00" y2="69.33"/>
    <line x1="80.00" y1="68.98" x2="720.00" y2="68.98"/>
    <line x1="80.00" y1="68.62" x2="720.00" y2="68.62"/>
    <line x1="80.00" y1="68.27" x2="720.00" y2="68.27"/>
    <line x1="80.00" y1="67.56" x2="720.00" y2="67.56"/>
    <line x1="80.00" y1="67.21" x2="720.00" y2="67.21"/>
    <line x1="80.00" y1="66.86" x2="720.00" y2="66.86"/>
    <line x1="80.00" y1="66.51" x2="720.00" y2="66.51"/>
    <line x1="80.00" y1="65.80" x2="720.00" y2="65.80"/>
    <line x1="80.00" y1="65.45" x2="720.00" y2="65.45"/>
    <line x1="80.00" y1="65.09" x2="720.00" y2="65.09"/>
    <line x1="80.00" y1="64.74" x2="720.00" y2="64.74"/>
    <line x1="80.00" y1="64.04" x2="720.00" y2="64.04"/>
    <line x1="80.00" y1="63.68" x2="720.00" y2="63.68"/>
    <line x1="80.00" y1="63.33" x2="720.00" y2="63.33"/>
    <line x1="80.00" y1="62.98" x2="720.00" y2="62.98"/>
    <line x1="80.00" y1="62.27" x2="720.00" y2="62.27"/>
    <line x1="80.00" y1="61.92" x2="720.00" y2="61.92"/>
    <line x1="80.00" y1="61.57" x2="720.00" y2="61.57"/>
    <line x1="80.00" y1="61.21" x2="720.00" y2="61.21"/>
    <line x1="80.00" y1="60.51" x2="720.00" y2="60.51"/>
    <line x1="80.00" y1="60.15" x2="720.00" y2="60.15"/>
  </g>
  <g stroke="#808080" stroke-width="2">
    <line x1="400.00" y1="540.00" x2="400.00" y2="60.00"/>
    <line x1="80.00" y1="392.55" x2="720.00" y2="392.55"/>
  </g>
  <polyline fill="none" stroke="#0066cc" stroke-width="2" points="140.98,393.94 161.79,394.06 185.14,394.13 210.78,394.14 238.45,394.09 267.84,393.96 298.65,393.76 330.53,393.47 363.16,393.10 396.18,392.62 429.24,392.02 461.99,391.31 494.08,390.45 525.16,389.43 554.91,388.21 583.00,386.76 609.14,385.00 633.04,382.84 654.45,380.11 673.15,376.51 688.93,371.46 701.62,363.68 711.09,349.65 717.24,315.09 720.00,60.00 719.34,540.00 715.27,451.98 707.84,428.88 697.11,417.97 683.22,411.47 666.29,407.08 646.53,403.86 624.13,401.37 599.33,399.39 572.41,397.76 543.65,396.40 513.35,395.27 481.84,394.31 449.46,393.51 416.54,392.84 383.46,392.29 350.54,391.85 318.16,391.51 286.65,391.26 256.35,391.09 227.59,390.99 200.67,390.96 175.87,391.00 153.47,391.08 133.71,391.22 116.78,391.39 102.89,391.60 92.16,391.84 84.73,392.10 80.66,392.36 80.00,392.64 82.76,392.91 88.91,393.17 98.38,393.41 111.07,393.63 126.85,393.82 145.55,393.98 166.96,394.08 190.86,394.14 217.00,394.13 245.09,394.06 274.84,393.92 305.92,393.70 338.01,393.40 370.76,392.99 403.82,392.49 436.84,391.87 469.47,391.12 501.35,390.23 532.16,389.16 561.55,387.90 589.22,386.38 614.86,384.55 638.21,382.27 659.02,379.37 "/>
</svg>
