<?xml version="1.0" encoding="UTF-8"?>
<svg xmlns="http://www.w3.org/2000/svg" width="800" height="600">
  <title>R=4*sin(t)-(2*sin(t)*sin(t)/cos(t)):0,1:</title>
  <rect width="800" height="600" fill="#ffffff"/>
  <g stroke="#d0d0d0" stroke-width="1">
    <line x1="-29.54" y1="540.00" x2="-29.54" y2="60.00"/>
    <line x1="113.61" y1="540.00" x2="113.61" y2="60.00"/>
    <line x1="256.76" y1="540.00" x2="256.76" y2="60.00"/>
    <line x1="399.91" y1="540.00" x2="399.91" y2="60.00"/>
    <line x1="543.06" y1="540.00" x2="543.06" y2="60.00"/>
    <line x1="686.21" y1="540.00" x2="686.21" y2="60.00"/>
    <line x1="829.36" y1="540.00" x2="829.36" y2="60.00"/>
    <line x1="80.00" y1="541.11" x2="720.00" y2="541.11"/>
    <line x1="80.00" y1="538.72" x2="720.00" y2="538.72"/>
    <line x1="80.00" y1="536.34" x2="720.00" y2="536.34"/>
    <line x1="80.00" y1="533.95" x2="720.00" y2="533.95"/>
    <line x1="80.00" y1="531.56" x2="720.00" y2="531.56"/>
    <line x1="80.00" y1="529.17" x2="720.00" y2="529.17"/>
    <line x1="80.00" y1="526.79" x2="720.00" y2="526.79"/>
    <line x1="80.00" y1="524.40" x2="720.00" y2="524.40"/>
    <line x1="80.00" y1="522.01" x2="720.00" y2="522.01"/>
    <line x1="80.00" y1="519.63" x2="720.00" y2="519.63"/>
    <line x1="80.00" y1="517.24" x2="720.00" y2="517.24"/>
    <line x1="80.00" y1="514.85" x2="720.00" y2="514.85"/>
    <line x1="80.00" y1="512.46" x2="720.00" y2="512.46"/>
    <line x1="80.00" y1="510.08" x2="720.00" y2="510.08"/>
    <line x1="80.00" y1="507.69" x2="720.00" y2="507.69"/>
    <line x1="80.00" y1="505.30" x2="720.00" y2="505.30"/>
    <line x1="80.00" y1="502.91" x2="720.00" y2="502.91"/>
    <line x1="80.00" y1="500.53" x2="720.00" y2="500.53"/>
    <line x1="80.00" y1="498.14" x2="720.00" y2="498.14"/>
    <line x1="80.00" y1="495.75" x2="720.00" y2="495.75"/>
    <line x1="80.00" y1="493.37" x2="720.00" y2="493.37"/>
    <line x1="80.00" y1="490.98" x2="720.00" y2="490.98"/>
    <line x1="80.00" y1="488.59" x2="720.00" y2="488.59"/>
    <line x1="80.00" y1="486.20" x2="720.00" y2="486.20"/>
    <line x1="80.00" y1="483.82" x2="720.00" y2="483.82"/>
    <line x1="80.00" y1="481.43" x2="720.00" y2="481.43"/>
    <line x1="80.00" y1="479.04" x2="720.00" y2="479.04"/>
    <line x1="80.00" y1="476.65" x2="720.00" y2="476.65"/>
    <line x1="80.00" y1="474.27" x2="720.00" y2="474.27"/>
    <line x1="80.00" y1="471.88" x2="720.00" y2="471.88"/>
    <line x1="80.00" y1="469.49" x2="720.00" y2="469.49"/>
    <line x1="80.00" y1="467.11" x2="720.00" y2="467.11"/>
    <line x1="80.00" y1="464.72" x2="720.00" y2="464.72"/>
    <line x1="80.00" y1="462.33" x2="720.00" y2="462.33"/>
    <line x1="80.00" y1="459.94" x2="720.00" y2="459.94"/>
    <line x1="80.00" y1="457.56" x2="720.00" y2="457.56"/>
    <line x1="80.00" y1="455.17" x2="720.00" y2="455.17"/>
    <line x1="80.00" y1="452.78" x2="720.00" y2="452.78"/>
    <line x1="80.00" y1="450.39" x2="720.00" y2="450.39"/>
    <line x1="80.00" y1="448.01" x2="720.00" y2="448.01"/>
    <line x1="80.00" y1="445.62" x2="720.00" y2="445.62"/>
    <line x1="80.00" y1="443.23" x2="720.00" y2="443.23"/>
    <line x1="80.00" y1="440.85" x2="720.00" y2="440.85"/>
    <line x1="80.00" y1="438.46" x2="720.00" y2="438.46"/>
    <line x1="80.00" y1="436.07" x2="720.00" y2="436.07"/>
    <line x1="80.00" y1="433.68" x2="720.00" y2="433.68"/>
    <line x1="80.00" y1="431.30" x2="720.00" y2="431.30"/>
    <line x1="80.00" y1="428.91" x2="720.00" y2="428.91"/>
    <line x1="80.00" y1="426.52" x2="720.00" y2="426.52"/>
    <line x1="80.00" y1="424.13" x2="720.00" y2="424.13"/>
    <line x1="80.00" y1="421.75" x2="720.00" y2="421.75"/>
    <line x1="80.00" y1="419.36" x2="720.00" y2="419.36"/>
    <line x1="80.00" y1="416.97" x2="720.00" y2="416.97"/>
    <line x1="80.00" y1="414.59" x2="720.00" y2="414.59"/>
    <line x1="80.00" y1="412.20" x2="720.00" y2="412.20"/>
    <line x1="80.00" y1="409.81" x2="720.00" y2="409.81"/>
    <line x1="80.00" y1="407.42" x2="720.00" y2="407.42"/>
    <line x1="80.00" y1="405.04" x2="720.00" y2="405.04"/>
    <line x1="80.00" y1="402.65" x2="720.00" y2="402.65"/>
    <line x1="80.00" y1="400.26" x2="720.00" y2="400.26"/>
    <line x1="80.00" y1="397.87" x2="720.00" y2="397.87"/>
    <line x1="80.00" y1="395.49" x2="720.00" y2="395.49"/>
    <line x1="80.00" y1="393.10" x2="720.00" y2="393.10"/>
    <line x1="80.00" y1="390.71" x2="720.00" y2="390.71"/>
    <line x1="80.00" y1="388.33" x2="720.00" y2="388.33"/>
    <line x1="80.00" y1="385.94" x2="720.00" y2="385.94"/>
    <line x1="80.00" y1="383.55" x2="720.00" y2="383.55"/>
    <line x1="80.00" y1="381.16" x2="720.00" y2="381.16"/>
    <line x1="80.00" y1="378.78" x2="720.00" y2="378.78"/>
    <line x1="80.00" y1="376.39" x2="720.00" y2="376.39"/>
    <line x1="80.00" y1="374.00" x2="720.00" y2="374.00"/>
    <line x1="80.00" y1="371.61" x2="720.00" y2="371.61"/>
    <line x1="80.00" y1="369.23" x2="720.00" y2="369.23"/>
    <line x1="80.00" y1="366.84" x2="720.00" y2="366.84"/>
    <line x1="80.00" y1="364.45" x2="720.00" y2="364.45"/>
    <line x1="80.00" y1="362.07" x2="720.00" y2="362.07"/>
    <line x1="80.00" y1="359.68" x2="720.00" y2="359.68"/>
    <line x1="80.00" y1="357.29" x2="720.00" y2="357.29"/>
    <line x1="80.00" y1="354.90" x2="720.00" y2="354.90"/>
    <line x1="80.00" y1="352.52" x2="720.00" y2="352.52"/>
    <line x1="80.00" y1="350.13" x2="720.00" y2="350.13"/>
    <line x1="80.00" y1="347.74" x2="720.00" y2="347.74"/>
    <line x1="80.00" y1="345.35" x2="720.00" y2="345.35"/>
    <line x1="80.00" y1="342.97" x2="720.00" y2="342.97"/>
    <line x1="80.00" y1="340.58" x2="720.00" y2="340.58"/>
    <line x1="80.00" y1="338.19" x2="720.00" y2="338.19"/>
    <line x1="80.00" y1="335.81" x2="720.00" y2="335.81"/>
    <line x1="80.00" y1="333.42" x2="720.00" y2="333.42"/>
    <line x1="80.00" y1="331.03" x2="720.00" y2="331.03"/>
    <line x1="80.00" y1="328.64" x2="720.00" y2="328.64"/>
    <line x1="80.00" y1="326.26" x2="720.00" y2="326.26"/>
    <line x1="80.00" y1="323.87" x2="720.00" y2="323.87"/>
    <line x1="80.00" y1="321.48" x2="720.00" y2="321.48"/>
    <line x1="80.00" y1="319.09" x2="720.00" y2="319.09"/>
    <line x1="80.00" y1="316.71" x2="720.00" y2="316.71"/>
    <line x1="80.00" y1="314.32" x2="720.00" y2="314.32"/>
    <line x1="80.00" y1="311.93" x2="720.00" y2="311.93"/>
    <line x1="80.00" y1="309.55" x2="720.00" y2="309.55"/>
    <line x1="80.00" y1="307.16" x2="720.00" y2="307.16"/>
    <line x1="80.00" y1="304.77" x2="720.00" y2="304.77"/>
    <line x1="80.00" y1="302.38" x2="720.00" y2="302.38"/>
    <line x1="80.00" y1="300.00" x2="720.00" y2="300.00"/>
    <line x1="80.00" y1="297.61" x2="720.00" y2="297.61"/>
    <line x1="80.00" y1="295.22" x2="720.00" y2="295.22"/>
    <line x1="80.00" y1="292.83" x2="720.00" y2="292.83"/>
    <line x1="80.00" y1="290.45" x2="720.00" y2="290.45"/>
    <line x1="80.00" y1="288.06" x2="720.00" y2="288.06"/>
    <line x1="80.00" y1="285.67" x2="720.00" y2="285.67"/>
    <line x1="80.00" y1="283.29" x2="720.00" y2="283.29"/>
    <line x1="80.00" y1="280.90" x2="720.00" y2="280.90"/>
    <line x1="80.00" y1="278.51" x2="720.00" y2="278.51"/>
    <line x1="80.00" y1="276.12" x2="720.00" y2="276.12"/>
    <line x1="80.00" y1="273.74" x2="720.00" y2="273.74"/>
    <line x1="80.00" y1="271.35" x2="720.00" y2="271.35"/>
    <line x1="80.00" y1="268.96" x2="720.00" y2="268.96"/>
    <line x1="80.00" y1="266.57" x2="720.00" y2="266.57"/>
    <line x1="80.00" y1="264.19" x2="720.00" y2="264.19"/>
    <line x1="80.00" y1="261.80" x2="720.00" y2="261.80"/>
    <line x1="80.00" y1="259.41" x2="720.00" y2="259.41"/>
    <line x1="80.00" y1="257.03" x2="720.00" y2="257.03"/>
    <line x1="80.00" y1="254.64" x2="720.00" y2="254.64"/>
    <line x1="80.00" y1="252.25" x2="720.00" y2="252.25"/>
    <line x1="80.00" y1="249.86" x2="720.00" y2="249.86"/>
    <line x1="80.00" y1="247.48" x2="720.00" y2="247.48"/>
    <line x1="80.00" y1="245.09" x2="720.00" y2="245.09"/>
    <line x1="80.00" y1="242.70" x2="720.00" y2="242.70"/>
    <line x1="80.00" y1="240.31" x2="720.00" y2="240.31"/>
    <line x1="80.00" y1="237.93" x2="720.00" y2="237.93"/>
    <line x1="80.00" y1="235.54" x2="720.00" y2="235.54"/>
    <line x1="80.00" y1="233.15" x2="720.00" y2="233.15"/>
    <line x1="80.00" y1="230.77" x2="720.00" y2="230.77"/>
    <line x1="80.00" y1="228.38" x2="720.00" y2="228.38"/>
    <line x1="80.00" y1="225.99" x2="720.00" y2="225.99"/>
    <line x1="80.00" y1="223.60" x2="720.00" y2="223.60"/>
    <line x1="80.00" y1="221.22" x2="720.00" y2="221.22"/>
    <line x1="80.00" y1="218.83" x2="720.00" y2="218.83"/>
    <line x1="80.00" y1="216.44" x2="720.00" y2="216.44"/>
    <line x1="80.00" y1="214.05" x2="720.00" y2="214.05"/>
    <line x1="80.00" y1="211.67" x2="720.00" y2="211.67"/>
    <line x1="80.00" y1="209.28" x2="720.00" y2="209.28"/>
    <line x1="80.00" y1="206.89" x2="720.00" y2="206.89"/>
    <line x1="80.00" y1="204.51" x2="720.00" y2="204.51"/>
    <line x1="80.00" y1="202.12" x2="720.00" y2="202.12"/>
    <line x1="80.00" y1="199.73" x2="720.00" y2="199.73"/>
    <line x1="80.00" y1="197.34" x2="720.00" y2="197.34"/>
    <line x1="80.00" y1="194.96" x2="720.00" y2="194.96"/>
    <line x1="80.00" y1="192.57" x2="720.00" y2="192.57"/>
    <line x1="80.00" y1="190.18" x2="720.00" y2="190.18"/>
    <line x1="80.00" y1="187.79" x2="720.00" y2="187.79"/>
    <line x1="80.00" y1="185.41" x2="720.00" y2="185.41"/>
    <line x1="80.00" y1="183.02" x2="720.00" y2="183.02"/>
    <line x1="80.00" y1="180.63" x2="720.00" y2="180.63"/>
    <line x1="80.00" y1="178.25" x2="720.00" y2="178.25"/>
    <line x1="80.00" y1="175.86" x2="720.00" y2="175.86"/>
    <line x1="80.00" y1="173.47" x2="720.00" y2="173.47"/>
    <line x1="80.00" y1="171.08" x2="720.00" y2="171.08"/>
    <line x1="80.00" y1="168.70" x2="720.00" y2="168.70"/>
    <line x1="80.00" y1="166.31" x2="720.00" y2="166.31"/>
    <line x1="80.00" y1="163.92" x2="720.00" y2="163.92"/>
    <line x1="80.00" y1="161.53" x2="720.00" y2="161.53"/>
    <line x1="80.00" y1="159.15" x2="720.00" y2="159.15"/>
    <line x1="80.00" y1="156.76" x2="720.00" y2="156.76"/>
    <line x1="80.00" y1="154.37" x2="720.00" y2="154.37"/>
    <line x1="80.00" y1="151.98" x2="720.00" y2="151.98"/>
    <line x1="80.00" y1="149.60" x2="720.00" y2="149.60"/>
    <line x1="80.00" y1="147.21" x2="720.00" y2="147.21"/>
    <line x1="80.00" y1="144.82" x2="720.00" y2="144.82"/>
    <line x1="80.00" y1="142.44" x2="720.00" y2="142.44"/>
    <line x1="80.00" y1="140.05" x2="720.00" y2="140.05"/>
    <line x1="80.00" y1="137.66" x2="720.00" y2="137.66"/>
    <line x1="80.00" y1="135.27" x2="720.00" y2="135.27"/>
    <line x1="80.00" y1="132.89" x2="720.00" y2="132.89"/>
    <line x1="80.00" y1="130.50" x2="720.00" y2="130.50"/>
    <line x1="80.00" y1="128.11" x2="720.00" y2="128.11"/>
    <line x1="80.00" y1="125.72" x2="720.00" y2="125.72"/>
    <line x1="80.00" y1="123.34" x2="720.00" y2="123.34"/>
    <line x1="80.00" y1="120.95" x2="720.00" y2="120.95"/>
    <line x1="80.00" y1="118.56" x2="720.00" y2="118.56"/>
    <line x1="80.00" y1="116.18" x2="720.00" y2="116.18"/>
    <line x1="80.00" y1="113.79" x2="720.00" y2="113.79"/>
    <line x1="80.00" y1="111.40" x2="720.00" y2="111.40"/>
    <line x1="80.00" y1="109.01" x2="720.00" y2="109.01"/>
    <line x1="80.00" y1="106.63" x2="720.00" y2="106.63"/>
    <line x1="80.00" y1="104.24" x2="720.00" y2="104.24"/>
    <line x1="80.00" y1="101.85" x2="720.00" y2="101.85"/>
    <line x1="80.00" y1="99.46" x2="720.00" y2="99.46"/>
    <line x1="80.00" y1="97.08" x2="720.00" y2="97.08"/>
    <line x1="80.00" y1="94.69" x2="720.00" y2="94.69"/>
    <line x1="80.00" y1="92.30" x2="720.00" y2="92.30"/>
    <line x1="80.00" y1="89.92" x2="720.00" y2="89.92"/>
    <line x1="80.00" y1="87.53" x2="720.00" y2="87.53"/>
    <line x1="80.00" y1="85.14" x2="720.00" y2="85.14"/>
    <line x1="80.00" y1="82.75" x2="720.00" y2="82.75"/>
    <line x1="80.00" y1="80.37" x2="720.00" y2="80.37"/>
    <line x1="80.00" y1="77.98" x2="720.00" y2="77.98"/>
    <line x1="80.00" y1="75.59" x2="720.00" y2="75.59"/>
    <line x1="80.00" y1="73.20" x2="720.00" y2="73.20"/>
    <line x1="80.00" y1="70.82" x2="720.00" y2="70.82"/>
    <line x1="80.00" y1="68.43" x2="720.00" y2="68.43"/>
    <line x1="80.00" y1="66.04" x2="720.00" y2="66.04"/>
    <line x1="80.00" y1="63.66" x2="720.00" y2="63.66"/>
    <line x1="80.00" y1="61.27" x2="720.00" y2="61.27"/>
    <line x1="80.00" y1="58.88" x2="720.00" y2="58.88"/>
  </g>
  <g stroke="#e8e8e8" stroke-width="0.5">
    <line x1="84.98" y1="540.00" x2="84.98" y2="60.00"/>
    <line x1="142.24" y1="540.00" x2="142.24" y2="60.00"/>
    <line x1="170.87" y1="540.00" x2="170.87" y2="60.00"/>
    <line x1="199.50" y1="540.00" x2="199.50" y2="60.00"/>
    <line x1="228.13" y1="540.00" x2="228.13" y2="60.00"/>
    <line x1="285.39" y1="540.00" x2="285.39" y2="60.00"/>
    <line x1="314.02" y1="540.00" x2="314.02" y2="60.00"/>
    <line x1="342.65" y1="540.00" x2="342.65" y2="60.00"/>
    <line x1="371.28" y1="540.00" x2="371.28" y2="60.00"/>
    <line x1="428.54" y1="540.00" x2="428.54" y2="60.00"/>
    <line x1="457.17" y1="540.00" x2="457.17" y2="60.00"/>
    <line x1="485.80" y1="540.00" x2="485.80" y2="60.00"/>
    <line x1="514.43" y1="540.00" x2="514.43" y2="60.00"/>
    <line x1="571.69" y1="540.00" x2="571.69" y2="60.00"/>
    <line x1="600.32" y1="540.00" x2="600.32" y2="60.00"/>
    <line x1="628.95" y1="540.00" x2="628.95" y2="60.00"/>
    <line x1="657.58" y1="540.00" x2="657.58" y2="60.00"/>
    <line x1="714.84" y1="540.00" x2="714.84" y2="60.00"/>
    <line x1="80.00" y1="539.68" x2="720.00" y2="539.68"/>
    <line x1="80.00" y1="539.20" x2="720.00" y2="539.20"/>
    <line x1="80.00" y1="538.25" x2="720.00" y2="538.25"/>
    <line x1="80.00" y1="537.77" x2="720.00" y2="537.77"/>
    <line x1="80.00" y1="537.29" x2="720.00" y2="537.29"/>
    <line x1="80.00" y1="536.81" x2="720.00" y2="536.81"/>
    <line x1="80.00" y1="535.86" x2="720.00" y2="535.86"/>
    <line x1="80.00" y1="535.38" x2="720.00" y2="535.38"/>
    <line x1="80.00" y1="534.90" x2="720.00" y2="534.90"/>
    <line x1="80.00" y1="534.43" x2="720.00" y2="534.43"/>
    <line x1="80.00" y1="533.47" x2="720.00" y2="533.47"/>
    <line x1="80.00" y1="532.99" x2="720.00" y2="532.99"/>
    <line x1="80.00" y1="532.52" x2="720.00" y2="532.52"/>
    <line x1="80.00" y1="532.04" x2="720.00" y2="532.04"/>
    <line x1="80.00" y1="531.08" x2="720.00" y2="531.08"/>
    <line x1="80.00" y1="530.61" x2="720.00" y2="530.61"/>
    <line x1="80.00" y1="530.13" x2="720.00" y2="530.13"/>
    <line x1="80.00" y1="529.65" x2="720.00" y2="529.65"/>
    <line x1="80.00" y1="528.70" x2="720.00" y2="528.70"/>
    <line x1="80.00" y1="528.22" x2="720.00" y2="528.22"/>
    <line x1="80.00" y1="527.74" x2="720.00" y2="527.74"/>
    <line x1="80.00" y1="527.27" x2="720.00" y2="527.27"/>
    <line x1="80.00" y1="526.31" x2="720.00" y2="526.31"/>
    <line x1="80.00" y1="525.83" x2="720.00" y2="525.83"/>
    <line x1="80.00" y1="525.36" x2="720.00" y2="525.36"/>
    <line x1="80.00" y1="524.88" x2="720.00" y2="524.88"/>
    <line x1="80.00" y1="523.92" x2="720.00" y2="523.92"/>
    <line x1="80.00" y1="523.45" x2="720.00" y2="523.45"/>
    <line x1="80.00" y1="522.97" x2="720.00" y2="522.97"/>
    <line x1="80.00" y1="522.49" x2="720.00" y2="522.49"/>
    <line x1="80.00" y1="521.54" x2="720.00" y2="521.54"/>
    <line x1="80.00" y1="521.06" x2="720.00" y2="521.06"/>
    <line x1="80.00" y1="520.58" x2="720.00" y2="520.58"/>
    <line x1="80.00" y1="520.10" x2="720.00" y2="520.10"/>
    <line x1="80.00" y1="519.15" x2="720.00" y2="519.15"/>
    <line x1="80.00" y1="518.67" x2="720.00" y2="518.67"/>
    <line x1="80.00" y1="518.19" x2="720.00" y2="518.19"/>
    <line x1="80.00" y1="517.72" x2="720.00" y2="517.72"/>
    <line x1="80.00" y1="516.76" x2="720.00" y2="516.76"/>
    <line x1="80.00" y1="516.28" x2="720.00" y2="516.28"/>
    <line x1="80.00" y1="515.81" x2="720.00" y2="515.81"/>
    <line x1="80.00" y1="515.33" x2="720.00" y2="515.33"/>
    <line x1="80.00" y1="514.37" x2="720.00" y2="514.37"/>
    <line x1="80.00" y1="513.90" x2="720.00" y2="513.90"/>
    <line x1="80.00" y1="513.42" x2="720.00" y2="513.42"/>
    <line x1="80.00" y1="512.94" x2="720.00" y2="512.94"/>
    <line x1="80.00" y1="511.99" x2="720.00" y2="511.99"/>
    <line x1="80.00" y1="511.51" x2="720.00" y2="511.51"/>
    <line x1="80.00" y1="511.03" x2="720.00" y2="511.03"/>
    <line x1="80.00" y1="510.55" x2="720.00" y2="510.55"/>
    <line x1="80.00" y1="509.60" x2="720.00" y2="509.60"/>
    <line x1="80.00" y1="509.12" x2="720.00" y2="509.12"/>
    <line x1="80.00" y1="508.64" x2="720.00" y2="508.64"/>
    <line x1="80.00" y1="508.17" x2="720.00" y2="508.17"/>
    <line x1="80.00" y1="507.21" x2="720.00" y2="507.21"/>
    <line x1="80.00" y1="506.73" x2="720.00" y2="506.73"/>
    <line x1="80.00" y1="506.26" x2="720.00" y2="506.26"/>
    <line x1="80.00" y1="505.78" x2="720.00" y2="505.78"/>
    <line x1="80.00" y1="504.82" x2="720.00" y2="504.82"/>
    <line x1="80.00" y1="504.35" x2="720.00" y2="504.35"/>
    <line x1="80.00" y1="503.87" x2="720.00" y2="503.87"/>
    <line x1="80.00" y1="503.39" x2="720.00" y2="503.39"/>
    <line x1="80.00" y1="502.44" x2="720.00" y2="502.44"/>
    <line x1="80.00" y1="501.96" x2="720.00" y2="501.96"/>
    <line x1="80.00" y1="501.48" x2="720.00" y2="501.48"/>
    <line x1="80.00" y1="501.01" x2="720.00" y2="501.01"/>
    <line x1="80.00" y1="500.05" x2="720.00" y2="500.05"/>
    <line x1="80.00" y1="499.57" x2="720.00" y2="499.57"/>
    <line x1="80.00" y1="499.10" x2="720.00" y2="499.10"/>
    <line x1="80.00" y1="498.62" x2="720.00" y2="498.62"/>
    <line x1="80.00" y1="497.66" x2="720.00" y2="497.66"/>
    <line x1="80.00" y1="497.19" x2="720.00" y2="497.19"/>
    <line x1="80.00" y1="496.71" x2="720.00" y2="496.71"/>
    <line x1="80.00" y1="496.23" x2="720.00" y2="496.23"/>
    <line x1="80.00" y1="495.28" x2="720.00" y2="495.28"/>
    <line x1="80.00" y1="494.80" x2="720.00" y2="494.80"/>
    <line x1="80.00" y1="494.32" x2="720.00" y2="494.32"/>
    <line x1="80.00" y1="493.84" x2="720.00" y2="493.84"/>
    <line x1="80.00" y1="492.89" x2="720.00" y2="492.89"/>
    <line x1="80.00" y1="492.41" x2="720.00" y2="492.41"/>
    <line x1="80.00" y1="491.93" x2="720.00" y2="491.93"/>
    <line x1="80.00" y1="491.46" x2="720.00" y2="491.46"/>
    <line x1="80.00" y1="490.50" x2="720.00" y2="490.50"/>
    <line x1="80.00" y1="490.02" x2="720.00" y2="490.02"/>
    <line x1="80.00" y1="489.55" x2="720.00" y2="489.55"/>
    <line x1="80.00" y1="489.07" x2="720.00" y2="489.07"/>
    <line x1="80.00" y1="488.11" x2="720.00" y2="488.11"/>
    <line x1="80.00" y1="487.64" x2="720.00" y2="487.64"/>
    <line x1="80.00" y1="487.16" x2="720.00" y2="487.16"/>
    <line x1="80.00" y1="486.68" x2="720.00" y2="486.68"/>
    <line x1="80.00" y1="485.73" x2="720.00" y2="485.73"/>
    <line x1="80.00" y1="485.25" x2="720.00" y2="485.25"/>
    <line x1="80.00" y1="484.77" x2="720.00" y2="484.77"/>
    <line x1="80.00" y1="484.29" x2="720.00" y2="484.29"/>
    <line x1="80.00" y1="483.34" x2="720.00" y2="483.34"/>
    <line x1="80.00" y1="482.86" x2="720.00" y2="482.86"/>
    <line x1="80.00" y1="482.38" x2="720.00" y2="482.38"/>
    <line x1="80.00" y1="481.91" x2="720.00" y2="481.91"/>
    <line x1="80.00" y1="480.95" x2="720.00" y2="480.95"/>
    <line x1="80.00" y1="480.47" x2="720.00" y2="480.47"/>
    <line x1="80.00" y1="480.00" x2="720.00" y2="480.00"/>
    <line x1="80.00" y1="479.52" x2="720.00" y2="479.52"/>
    <line x1="80.00" y1="478.56" x2="720.00" y2="478.56"/>
    <line x1="80.00" y1="478.09" x2="720.00" y2="478.09"/>
    <line x1="80.00" y1="477.61" x2="720.00" y2="477.61"/>
    <line x1="80.00" y1="477.13" x2="720.00" y2="477.13"/>
    <line x1="80.00" y1="476.18" x2="720.00" y2="476.18"/>
    <line x1="80.00" y1="475.70" x2="720.00" y2="475.70"/>
    <line x1="80.00" y1="475.22" x2="720.00" y2="475.22"/>
    <line x1="80.00" y1="474.74" x2="720.00" y2="474.74"/>
    <line x1="80.00" y1="473.79" x2="720.00" y2="473.79"/>
    <line x1="80.00" y1="473.31" x2="720.00" y2="473.31"/>
    <line x1="80.00" y1="472.84" x2="720.00" y2="472.84"/>
    <line x1="80.00" y1="472.36" x2="720.00" y2="472.36"/>
    <line x1="80.00" y1="471.40" x2="720.00" y2="471.40"/>
    <line x1="80.00" y1="470.93" x2="720.00" y2="470.93"/>
    <line x1="80.00" y1="470.45" x2="720.00" y2="470.45"/>
    <line x1="80.00" y1="469.97" x2="720.00" y2="469.97"/>
    <line x1="80.00" y1="469.02" x2="720.00" y2="469.02"/>
    <line x1="80.00" y1="468.54" x2="720.00" y2="468.54"/>
    <line x1="80.00" y1="468.06" x2="720.00" y2="468.06"/>
    <line x1="80.00" y1="467.58" x2="720.00" y2="467.58"/>
    <line x1="80.00" y1="466.63" x2="720.00" y2="466.63"/>
    <line x1="80.00" y1="466.15" x2="720.00" y2="466.15"/>
    <line x1="80.00" y1="465.67" x2="720.00" y2="465.67"/>
    <line x1="80.00" y1="465.20" x2="720.00" y2="465.20"/>
    <line x1="80.00" y1="464.24" x2="720.00" y2="464.24"/>
    <line x1="80.00" y1="463.76" x2="720.00" y2="463.76"/>
    <line x1="80.00" y1="463.29" x2="720.00" y2="463.29"/>
    <line x1="80.00" y1="462.81" x2="720.00" y2="462.81"/>
    <line x1="80.00" y1="461.85" x2="720.00" y2="461.85"/>
    <line x1="80.00" y1="461.38" x2="720.00" y2="461.38"/>
    <line x1="80.00" y1="460.90" x2="720.00" y2="460.90"/>
    <line x1="80.00" y1="460.42" x2="720.00" y2="460.42"/>
    <line x1="80.00" y1="459.47" x2="720.00" y2="459.47"/>
    <line x1="80.00" y1="458.99" x2="720.00" y2="458.99"/>
    <line x1="80.00" y1="458.51" x2="720.00" y2="458.51"/>
    <line x1="80.00" y1="458.03" x2="720.00" y2="458.03"/>
    <line x1="80.00" y1="457.08" x2="720.00" y2="457.08"/>
    <line x1="80.00" y1="456.60" x2="720.00" y2="456.60"/>
    <line x1="80.00" y1="456.12" x2="720.00" y2="456.12"/>
    <line x1="80.00" y1="455.65" x2="720.00" y2="455.65"/>
    <line x1="80.00" y1="454.69" x2="720.00" y2="454.69"/>
    <line x1="80.00" y1="454.21" x2="720.00" y2="454.21"/>
    <line x1="80.00" y1="453.74" x2="720.00" y2="453.74"/>
    <line x1="80.00" y1="453.26" x2="720.00" y2="453.26"/>
    <line x1="80.00" y1="452.30" x2="720.00" y2="452.30"/>
    <line x1="80.00" y1="451.83" x2="720.00" y2="451.83"/>
    <line x1="80.00" y1="451.35" x2="720.00" y2="451.35"/>
    <line x1="80.00" y1="450.87" x2="720.00" y2="450.87"/>
    <line x1="80.00" y1="449.92" x2="720.00" y2="449.92"/>
    <line x1="80.00" y1="449.44" x2="720.00" y2="449.44"/>
    <line x1="80.00" y1="448.96" x2="720.00" y2="448.96"/>
    <line x1="80.00" y1="448.48" x2="720.00" y2="448.48"/>
    <line x1="80.00" y1="447.53" x2="720.00" y2="447.53"/>
    <line x1="80.00" y1="447.05" x2="720.00" y2="447.05"/>
    <line x1="80.00" y1="446.58" x2="720.00" y2="446.58"/>
    <line x1="80.00" y1="446.10" x2="720.00" y2="446.10"/>
    <line x1="80.00" y1="445.14" x2="720.00" y2="445.14"/>
    <line x1="80.00" y1="444.67" x2="720.00" y2="444.67"/>
    <line x1="80.00" y1="444.19" x2="720.00" y2="444.19"/>
    <line x1="80.00" y1="443.71" x2="720.00" y2="443.71"/>
    <line x1="80.00" y1="442.76" x2="720.00" y2="442.76"/>
    <line x1="80.00" y1="442.28" x2="720.00" y2="442.28"/>
    <line x1="80.00" y1="441.80" x2="720.00" y2="441.80"/>
    <line x1="80.00" y1="441.32" x2="720.00" y2="441.32"/>
    <line x1="80.00" y1="440.37" x2="720.00" y2="440.37"/>
    <line x1="80.00" y1="439.89" x2="720.00" y2="439.89"/>
    <line x1="80.00" y1="439.41" x2="720.00" y2="439.41"/>
    <line x1="80.00" y1="438.94" x2="720.00" y2="438.94"/>
    <line x1="80.00" y1="437.98" x2="720.00" y2="437.98"/>
    <line x1="80.00" y1="437.50" x2="720.00" y2="437.50"/>
    <line x1="80.00" y1="437.03" x2="720.00" y2="437.03"/>
    <line x1="80.00" y1="436.55" x2="720.00" y2="436.55"/>
    <line x1="80.00" y1="435.59" x2="720.00" y2="435.59"/>
    <line x1="80.00" y1="435.12" x2="720.00" y2="435.12"/>
    <line x1="80.00" y1="434.64" x2="720.00" y2="434.64"/>
    <line x1="80.00" y1="434.16" x2="720.00" y2="434.16"/>
    <line x1="80.00" y1="433.21" x2="720.00" y2="433.21"/>
    <line x1="80.00" y1="432.73" x2="720.00" y2="432.73"/>
    <line x1="80.00" y1="432.25" x2="720.00" y2="432.25"/>
    <line x1="80.00" y1="431.77" x2="720.00" y2="431.77"/>
    <line x1="80.00" y1="430.82" x2="720.00" y2="430.82"/>
    <line x1="80.00" y1="430.34" x2="720.00" y2="430.34"/>
    <line x1="80.00" y1="429.86" x2="720.00" y2="429.86"/>
    <line x1="80.00" y1="429.39" x2="720.00" y2="429.39"/>
    <line x1="80.00" y1="428.43" x2="720.00" y2="428.43"/>
    <line x1="80.00" y1="427.95" x2="720.00" y2="427.95"/>
    <line x1="80.00" y1="427.48" x2="720.00" y2="427.48"/>
    <line x1="80.00" y1="427.00" x2="720.00" y2="427.00"/>
    <line x1="80.00" y1="426.04" x2="720.00" y2="426.04"/>
    <line x1="80.00" y1="425.57" x2="720.00" y2="425.57"/>
    <line x1="80.00" y1="425.09" x2="720.00" y2="425.09"/>
    <line x1="80.00" y1="424.61" x2="720.00" y2="424.61"/>
    <line x1="80.00" y1="423.66" x2="720.00" y2="423.66"/>
    <line x1="80.00" y1="423.18" x2="720.00" y2="423.18"/>
    <line x1="80.00" y1="422.70" x2="720.00" y2="422.70"/>
    <line x1="80.00" y1="422.22" x2="720.00" y2="422.22"/>
    <line x1="80.00" y1="421.27" x2="720.00" y2="421.27"/>
    <line x1="80.00" y1="420.79" x2="720.00" y2="420.79"/>
    <line x1="80.00" y1="420.32" x2="720.00" y2="420.32"/>
    <line x1="80.00" y1="419.84" x2="720.00" y2="419.84"/>
    <line x1="80.00" y1="418.88" x2="720.00" y2="418.88"/>
    <line x1="80.00" y1="418.41" x2="720.00" y2="418.41"/>
    <line x1="80.00" y1="417.93" x2="720.00" y2="417.93"/>
    <line x1="80.00" y1="417.45" x2="720.00" y2="417.45"/>
    <line x1="80.00" y1="416.50" x2="720.00" y2="416.50"/>
    <line x1="80.00" y1="416.02" x2="720.00" y2="416.02"/>
    <line x1="80.00" y1="415.54" x2="720.00" y2="415.54"/>
    <line x1="80.00" y1="415.06" x2="720.00" y2="415.06"/>
    <line x1="80.00" y1="414.11" x2="720.00" y2="414.11"/>
    <line x1="80.00" y1="413.63" x2="720.00" y2="413.63"/>
    <line x1="80.00" y1="413.15" x2="720.00" y2="413.15"/>
    <line x1="80.00" y1="412.68" x2="720.00" y2="412.68"/>
    <line x1="80.00" y1="411.72" x2="720.00" y2="411.72"/>
    <line x1="80.00" y1="411.24" x2="720.00" y2="411.24"/>
    <line x1="80.00" y1="410.77" x2="720.00" y2="410.77"/>
    <line x1="80.00" y1="410.29" x2="720.00" y2="410.29"/>
    <line x1="80.00" y1="409.33" x2="720.00" y2="409.33"/>
    <line x1="80.00" y1="408.86" x2="720.00" y2="408.86"/>
    <line x1="80.00" y1="408.38" x2="720.00" y2="408.38"/>
    <line x1="80.00" y1="407.90" x2="720.00" y2="407.90"/>
    <line x1="80.00" y1="406.95" x2="720.00" y2="406.95"/>
    <line x1="80.00" y1="406.47" x2="720.00" y2="406.47"/>
    <line x1="80.00" y1="405.99" x2="720.00" y2="405.99"/>
    <line x1="80.00" y1="405.51" x2="720.00" y2="405.51"/>
    <line x1="80.00" y1="404.56" x2="720.00" y2="404.56"/>
    <line x1="80.00" y1="404.08" x2="720.00" y2="404.08"/>
    <line x1="80.00" y1="403.60" x2="720.00" y2="403.60"/>
    <line x1="80.00" y1="403.13" x2="720.00" y2="403.13"/>
    <line x1="80.00" y1="402.17" x2="720.00" y2="402.17"/>
    <line x1="80.00" y1="401.69" x2="720.00" y2="401.69"/>
    <line x1="80.00" y1="401.22" x2="720.00" y2="401.22"/>
    <line x1="80.00" y1="400.74" x2="720.00" y2="400.74"/>
    <line x1="80.00" y1="399.78" x2="720.00" y2="399.78"/>
    <line x1="80.00" y1="399.31" x2="720.00" y2="399.31"/>
    <line x1="80.00" y1="398.83" x2="720.00" y2="398.83"/>
    <line x1="80.00" y1="398.35" x2="720.00" y2="398.35"/>
    <line x1="80.00" y1="397.40" x2="720.00" y2="397.40"/>
    <line x1="80.00" y1="396.92" x2="720.00" y2="396.92"/>
    <line x1="80.00" y1="396.44" x2="720.00" y2="396.44"/>
    <line x1="80.00" y1="395.96" x2="720.00" y2="395.96"/>
    <line x1="80.00" y1="395.01" x2="720.00" y2="395.01"/>
    <line x1="80.00" y1="394.53" x2="720.00" y2="394.53"/>
    <line x1="80.00" y1="394.05" x2="720.00" y2="394.05"/>
    <line x1="80.00" y1="393.58" x2="720.00" y2="393.58"/>
    <line x1="80.00" y1="392.62" x2="720.00" y2="392.62"/>
    <line x1="80.00" y1="392.15" x2="720.00" y2="392.15"/>
    <line x1="80.00" y1="391.67" x2="720.00" y2="391.67"/>
    <line x1="80.00" y1="391.19" x2="720.00" y2="391.19"/>
    <line x1="80.00" y1="390.24" x2="720.00" y2="390.24"/>
    <line x1="80.00" y1="389.76" x2="720.00" y2="389.76"/>
    <line x1="80.00" y1="389.28" x2="720.00" y2="389.28"/>
    <line x1="80.00" y1="388.80" x2="720.00" y2="388.80"/>
    <line x1="80.00" y1="387.85" x2="720.00" y2="387.85"/>
    <line x1="80.00" y1="387.37" x2="720.00" y2="387.37"/>
    <line x1="80.00" y1="386.89" x2="720.00" y2="386.89"/>
    <line x1="80.00" y1="386.42" x2="720.00" y2="386.42"/>
    <line x1="80.00" y1="385.46" x2="720.00" y2="385.46"/>
    <line x1="80.00" y1="384.98" x2="720.00" y2="384.98"/>
    <line x1="80.00" y1="384.51" x2="720.00" y2="384.51"/>
    <line x1="80.00" y1="384.03" x2="720.00" y2="384.03"/>
    <line x1="80.00" y1="383.07" x2="720.00" y2="383.07"/>
    <line x1="80.00" y1="382.60" x2="720.00" y2="382.60"/>
    <line x1="80.00" y1="382.12" x2="720.00" y2="382.12"/>
    <line x1="80.00" y1="381.64" x2="720.00" y2="381.64"/>
    <line x1="80.00" y1="380.69" x2="720.00" y2="380.69"/>
    <line x1="80.00" y1="380.21" x2="720.00" y2="380.21"/>
    <line x1="80.00" y1="379.73" x2="720.00" y2="379.73"/>
    <line x1="80.00" y1="379.25" x2="720.00" y2="379.25"/>
    <line x1="80.00" y1="378.30" x2="720.00" y2="378.30"/>
    <line x1="80.00" y1="377.82" x2="720.00" y2="377.82"/>
    <line x1="80.00" y1="377.34" x2="720.00" y2="377.34"/>
    <line x1="80.00" y1="376.87" x2="720.00" y2="376.87"/>
    <line x1="80.00" y1="375.91" x2="720.00" y2="375.91"/>
    <line x1="80.00" y1="375.43" x2="720.00" y2="375.43"/>
    <line x1="80.00" y1="374.96" x2="720.00" y2="374.96"/>
    <line x1="80.00" y1="374.48" x2="720.00" y2="374.48"/>
    <line x1="80.00" y1="373.52" x2="720.00" y2="373.52"/>
    <line x1="80.00" y1="373.05" x2="720.00" y2="373.05"/>
    <line x1="80.00" y1="372.57" x2="720.00" y2="372.57"/>
    <line x1="80.00" y1="372.09" x2="720.00" y2="372.09"/>
    <line x1="80.00" y1="371.14" x2="720.00" y2="371.14"/>
    <line x1="80.00" y1="370.66" x2="720.00" y2="370.66"/>
    <line x1="80.00" y1="370.18" x2="720.00" y2="370.18"/>
    <line x1="80.00" y1="369.70" x2="720.00" y2="369.70"/>
    <line x1="80.00" y1="368.75" x2="720.00" y2="368.75"/>
    <line x1="80.00" y1="368.27" x2="720.00" y2="368.27"/>
    <line x1="80.00" y1="367.79" x2="720.00" y2="367.79"/>
    <line x1="80.00" y1="367.32" x2="720.00" y2="367.32"/>
    <line x1="80.00" y1="366.36" x2="720.00" y2="366.36"/>
    <line x1="80.00" y1="365.89" x2="720.00" y2="365.89"/>
    <line x1="80.00" y1="365.41" x2="720.00" y2="365.41"/>
    <line x1="80.00" y1="364.93" x2="720.00" y2="364.93"/>
    <line x1="80.00" y1="363.98" x2="720.00" y2="363.98"/>
    <line x1="80.00" y1="363.50" x2="720.00" y2="363.50"/>
    <line x1="80.00" y1="363.02" x2="720.00" y2="363.02"/>
    <line x1="80.00" y1="362.54" x2="720.00" y2="362.54"/>
    <line x1="80.00" y1="361.59" x2="720.00" y2="361.59"/>
    <line x1="80.00" y1="361.11" x2="720.00" y2="361.11"/>
    <line x1="80.00" y1="360.63" x2="720.00" y2="360.63"/>
    <line x1="80.00" y1="360.16" x2="720.00" y2="360.16"/>
    <line x1="80.00" y1="359.20" x2="720.00" y2="359.20"/>
    <line x1="80.00" y1="358.72" x2="720.00" y2="358.72"/>
    <line x1="80.00" y1="358.25" x2="720.00" y2="358.25"/>
    <line x1="80.00" y1="357.77" x2="720.00" y2="357.77"/>
    <line x1="80.00" y1="356.81" x2="720.00" y2="356.81"/>
    <line x1="80.00" y1="356.34" x2="720.00" y2="356.34"/>
    <line x1="80.00" y1="355.86" x2="720.00" y2="355.86"/>
    <line x1="80.00" y1="355.38" x2="720.00" y2="355.38"/>
    <line x1="80.00" y1="354.43" x2="720.00" y2="354.43"/>
    <line x1="80.00" y1="353.95" x2="720.00" y2="353.95"/>
    <line x1="80.00" y1="353.47" x2="720.00" y2="353.47"/>
    <line x1="80.00" y1="352.99" x2="720.00" y2="352.99"/>
    <line x1="80.00" y1="352.04" x2="720.00" y2="352.04"/>
    <line x1="80.00" y1="351.56" x2="720.00" y2="351.56"/>
    <line x1="80.00" y1="351.08" x2="720.00" y2="351.08"/>
    <line x1="80.00" y1="350.61" x2="720.00" y2="350.61"/>
    <line x1="80.00" y1="349.65" x2="720.00" y2="349.65"/>
    <line x1="80.00" y1="349.17" x2="720.00" y2="349.17"/>
    <line x1="80.00" y1="348.70" x2="720.00" y2="348.70"/>
    <line x1="80.00" y1="348.22" x2="720.00" y2="348.22"/>
    <line x1="80.00" y1="347.26" x2="720.00" y2="347.26"/>
    <line x1="80.00" y1="346.79" x2="720.00" y2="346.79"/>
    <line x1="80.00" y1="346.31" x2="720.00" y2="346.31"/>
    <line x1="80.00" y1="345.83" x2="720.00" y2="345.83"/>
    <line x1="80.00" y1="344.88" x2="720.00" y2="344.88"/>
    <line x1="80.00" y1="344.40" x2="720.00" y2="344.40"/>
    <line x1="80.00" y1="343.92" x2="720.00" y2="343.92"/>
    <line x1="80.00" y1="343.44" x2="720.00" y2="343.44"/>
    <line x1="80.00" y1="342.49" x2="720.00" y2="342.49"/>
    <line x1="80.00" y1="342.01" x2="720.00" y2="342.01"/>
    <line x1="80.00" y1="341.53" x2="720.00" y2="341.53"/>
    <line x1="80.00" y1="341.06" x2="720.00" y2="341.06"/>
    <line x1="80.00" y1="340.10" x2="720.00" y2="340.10"/>
    <line x1="80.00" y1="339.63" x2="720.00" y2="339.63"/>
    <line x1="80.00" y1="339.15" x2="720.00" y2="339.15"/>
    <line x1="80.00" y1="338.67" x2="720.00" y2="338.67"/>
    <line x1="80.00" y1="337.72" x2="720.00" y2="337.72"/>
    <line x1="80.00" y1="337.24" x2="720.00" y2="337.24"/>
    <line x1="80.00" y1="336.76" x2="720.00" y2="336.76"/>
    <line x1="80.00" y1="336.28" x2="720.00" y2="336.28"/>
    <line x1="80.00" y1="335.33" x2="720.00" y2="335.33"/>
    <line x1="80.00" y1="334.85" x2="720.00" y2="334.85"/>
    <line x1="80.00" y1="334.37" x2="720.00" y2="334.37"/>
    <line x1="80.00" y1="333.90" x2="720.00" y2="333.90"/>
    <line x1="80.00" y1="332.94" x2="720.00" y2="332.94"/>
    <line x1="80.00" y1="332.46" x2="720.00" y2="332.46"/>
    <line x1="80.00" y1="331.99" x2="720.00" y2="331.99"/>
    <line x1="80.00" y1="331.51" x2="720.00" y2="331.51"/>
    <line x1="80.00" y1="330.55" x2="720.00" y2="330.55"/>
    <line x1="80.00" y1="330.08" x2="720.00" y2="330.08"/>
    <line x1="80.00" y1="329.60" x2="720.00" y2="329.60"/>
    <line x1="80.00" y1="329.12" x2="720.00" y2="329.12"/>
    <line x1="80.00" y1="328.17" x2="720.00" y2="328.17"/>
    <line x1="80.00" y1="327.69" x2="720.00" y2="327.69"/>
    <line x1="80.00" y1="327.21" x2="720.00" y2="327.21"/>
    <line x1="80.00" y1="326.73" x2="720.00" y2="326.73"/>
    <line x1="80.00" y1="325.78" x2="720.00" y2="325.78"/>
    <line x1="80.00" y1="325.30" x2="720.00" y2="325.30"/>
    <line x1="80.00" y1="324.82" x2="720.00" y2="324.82"/>
    <line x1="80.00" y1="324.35" x2="720.00" y2="324.35"/>
    <line x1="80.00" y1="323.39" x2="720.00" y2="323.39"/>
    <line x1="80.00" y1="322.91" x2="720.00" y2="322.91"/>
    <line x1="80.00" y1="322.44" x2="720.00" y2="322.44"/>
    <line x1="80.00" y1="321.96" x2="720.00" y2="321.96"/>
    <line x1="80.00" y1="321.00" x2="720.00" y2="321.00"/>
    <line x1="80.00" y1="320.53" x2="720.00" y2="320.53"/>
    <line x1="80.00" y1="320.05" x2="720.00" y2="320.05"/>
    <line x1="80.00" y1="319.57" x2="720.00" y2="319.57"/>
    <line x1="80.00" y1="318.62" x2="720.00" y2="318.62"/>
    <line x1="80.00" y1="318.14" x2="720.00" y2="318.14"/>
    <line x1="80.00" y1="317.66" x2="720.00" y2="317.66"/>
    <line x1="80.00" y1="317.18" x2="720.00" y2="317.18"/>
    <line x1="80.00" y1="316.23" x2="720.00" y2="316.23"/>
    <line x1="80.00" y1="315.75" x2="720.00" y2="315.75"/>
    <line x1="80.00" y1="315.27" x2="720.00" y2="315.27"/>
    <line x1="80.00" y1="314.80" x2="720.00" y2="314.80"/>
    <line x1="80.00" y1="313.84" x2="720.00" y2="313.84"/>
    <line x1="80.00" y1="313.36" x2="720.00" y2="313.36"/>
    <line x1="80.00" y1="312.89" x2="720.00" y2="312.89"/>
    <line x1="80.00" y1="312.41" x2="720.00" y2="312.41"/>
    <line x1="80.00" y1="311.46" x2="720.00" y2="311.46"/>
    <line x1="80.00" y1="310.98" x2="720.00" y2="310.98"/>
    <line x1="80.00" y1="310.50" x2="720.00" y2="310.50"/>
    <line x1="80.00" y1="310.02" x2="720.00" y2="310.02"/>
    <line x1="80.00" y1="309.07" x2="720.00" y2="309.07"/>
    <line x1="80.00" y1="308.59" x2="720.00" y2="308.59"/>
    <line x1="80.00" y1="308.11" x2="720.00" y2="308.11"/>
    <line x1="80.00" y1="307.64" x2="720.00" y2="307.64"/>
    <line x1="80.00" y1="306.68" x2="720.00" y2="306.68"/>
    <line x1="80.00" y1="306.20" x2="720.00" y2="306.20"/>
    <line x1="80.00" y1="305.73" x2="720.00" y2="305.73"/>
    <line x1="80.00" y1="305.25" x2="720.00" y2="305.25"/>
    <line x1="80.00" y1="304.29" x2="720.00" y2="304.29"/>
    <line x1="80.00" y1="303.82" x2="720.00" y2="303.82"/>
    <line x1="80.00" y1="303.34" x2="720.00" y2="303.34"/>
    <line x1="80.00" y1="302.86" x2="720.00" y2="302.86"/>
    <line x1="80.00" y1="301.91" x2="720.00" y2="301.91"/>
    <line x1="80.00" y1="301.43" x2="720.00" y2="301.43"/>
    <line x1="80.00" y1="300.95" x2="720.00" y2="300.95"/>
    <line x1="80.00" y1="300.47" x2="720.00" y2="300.47"/>
    <line x1="80.00" y1="299.52" x2="720.00" y2="299.52"/>
    <line x1="80.00" y1="299.04" x2="720.00" y2="299.04"/>
    <line x1="80.00" y1="298.56" x2="720.00" y2="298.56"/>
    <line x1="80.00" y1="298.09" x2="720.00" y2="298.09"/>
    <line x1="80.00" y1="297.13" x2="720.00" y2="297.13"/>
    <line x1="80.00" y1="296.65" x2="720.00" y2="296.65"/>
    <line x1="80.00" y1="296.18" x2="720.00" y2="296.18"/>
    <line x1="80.00" y1="295.70" x2="720.00" y2="295.70"/>
    <line x1="80.00" y1="294.74" x2="720.00" y2="294.74"/>
    <line x1="80.00" y1="294.27" x2="720.00" y2="294.27"/>
    <line x1="80.00" y1="293.79" x2="720.00" y2="293.79"/>
    <line x1="80.00" y1="293.31" x2="720.00" y2="293.31"/>
    <line x1="80.00" y1="292.36" x2="720.00" y2="292.36"/>
    <line x1="80.00" y1="291.88" x2="720.00" y2="291.88"/>
    <line x1="80.00" y1="291.40" x2="720.00" y2="291.40"/>
    <line x1="80.00" y1="290.92" x2="720.00" y2="290.92"/>
    <line x1="80.00" y1="289.97" x2="720.00" y2="289.97"/>
    <line x1="80.00" y1="289.49" x2="720.00" y2="289.49"/>
    <line x1="80.00" y1="289.01" x2="720.00" y2="289.01"/>
    <line x1="80.00" y1="288.54" x2="720.00" y2="288.54"/>
    <line x1="80.00" y1="287.58" x2="720.00" y2="287.58"/>
    <line x1="80.00" y1="287.10" x2="720.00" y2="287.10"/>
    <line x1="80.00" y1="286.63" x2="720.00" y2="286.63"/>
    <line x1="80.00" y1="286.15" x2="720.00" y2="286.15"/>
    <line x1="80.00" y1="285.20" x2="720.00" y2="285.20"/>
    <line x1="80.00" y1="284.72" x2="720.00" y2="284.72"/>
    <line x1="80.00" y1="284.24" x2="720.00" y2="284.24"/>
    <line x1="80.00" y1="283.76" x2="720.00" y2="283.76"/>
    <line x1="80.00" y1="282.81" x2="720.00" y2="282.81"/>
    <line x1="80.00" y1="282.33" x2="720.00" y2="282.33"/>
    <line x1="80.00" y1="281.85" x2="720.00" y2="281.85"/>
    <line x1="80.00" y1="281.38" x2="720.00" y2="281.38"/>
    <line x1="80.00" y1="280.42" x2="720.00" y2="280.42"/>
    <line x1="80.00" y1="279.94" x2="720.00" y2="279.94"/>
    <line x1="80.00" y1="279.47" x2="720.00" y2="279.47"/>
    <line x1="80.00" y1="278.99" x2="720.00" y2="278.99"/>
    <line x1="80.00" y1="278.03" x2="720.00" y2="278.03"/>
    <line x1="80.00" y1="277.56" x2="720.00" y2="277.56"/>
    <line x1="80.00" y1="277.08" x2="720.00" y2="277.08"/>
    <line x1="80.00" y1="276.60" x2="720.00" y2="276.60"/>
    <line x1="80.00" y1="275.65" x2="720.00" y2="275.65"/>
    <line x1="80.00" y1="275.17" x2="720.00" y2="275.17"/>
    <line x1="80.00" y1="274.69" x2="720.00" y2="274.69"/>
    <line x1="80.00" y1="274.21" x2="720.00" y2="274.21"/>
    <line x1="80.00" y1="273.26" x2="720.00" y2="273.26"/>
    <line x1="80.00" y1="272.78" x2="720.00" y2="272.78"/>
    <line x1="80.00" y1="272.30" x2="720.00" y2="272.30"/>
    <line x1="80.00" y1="271.83" x2="720.00" y2="271.83"/>
    <line x1="80.00" y1="270.87" x2="720.00" y2="270.87"/>
    <line x1="80.00" y1="270.39" x2="720.00" y2="270.39"/>
    <line x1="80.00" y1="269.92" x2="720.00" y2="269.92"/>
    <line x1="80.00" y1="269.44" x2="720.00" y2="269.44"/>
    <line x1="80.00" y1="268.48" x2="720.00" y2="268.48"/>
    <line x1="80.00" y1="268.01" x2="720.00" y2="268.01"/>
    <line x1="80.00" y1="267.53" x2="720.00" y2="267.53"/>
    <line x1="80.00" y1="267.05" x2="720.00" y2="267.05"/>
    <line x1="80.00" y1="266.10" x2="720.00" y2="266.10"/>
    <line x1="80.00" y1="265.62" x2="720.00" y2="265.62"/>
    <line x1="80.00" y1="265.14" x2="720.00" y2="265.14"/>
    <line x1="80.00" y1="264.66" x2="720.00" y2="264.66"/>
    <line x1="80.00" y1="263.71" x2="720.00" y2="263.71"/>
    <line x1="80.00" y1="263.23" x2="720.00" y2="263.23"/>
    <line x1="80.00" y1="262.75" x2="720.00" y2="262.75"/>
    <line x1="80.00" y1="262.28" x2="720.00" y2="262.28"/>
    <line x1="80.00" y1="261.32" x2="720.00" y2="261.32"/>
    <line x1="80.00" y1="260.84" x2="720.00" y2="260.84"/>
    <line x1="80.00" y1="260.37" x2="720.00" y2="260.37"/>
    <line x1="80.00" y1="259.89" x2="720.00" y2="259.89"/>
    <line x1="80.00" y1="258.94" x2="720.00" y2="258.94"/>
    <line x1="80.00" y1="258.46" x2="720.00" y2="258.46"/>
    <line x1="80.00" y1="257.98" x2="720.00" y2="257.98"/>
    <line x1="80.00" y1="257.50" x2="720.00" y2="257.50"/>
    <line x1="80.00" y1="256.55" x2="720.00" y2="256.55"/>
    <line x1="80.00" y1="256.07" x2="720.00" y2="256.07"/>
    <line x1="80.00" y1="255.59" x2="720.00" y2="255.59"/>
    <line x1="80.00" y1="255.12" x2="720.00" y2="255.12"/>
    <line x1="80.00" y1="254.16" x2="720.00" y2="254.16"/>
    <line x1="80.00" y1="253.68" x2="720.00" y2="253.68"/>
    <line x1="80.00" y1="253.21" x2="720.00" y2="253.21"/>
    <line x1="80.00" y1="252.73" x2="720.00" y2="252.73"/>
    <line x1="80.00" y1="251.77" x2="720.00" y2="251.77"/>
    <line x1="80.00" y1="251.30" x2="720.00" y2="251.30"/>
    <line x1="80.00" y1="250.82" x2="720.00" y2="250.82"/>
    <line x1="80.00" y1="250.34" x2="720.00" y2="250.34"/>
    <line x1="80.00" y1="249.39" x2="720.00" y2="249.39"/>
    <line x1="80.00" y1="248.91" x2="720.00" y2="248.91"/>
    <line x1="80.00" y1="248.43" x2="720.00" y2="248.43"/>
    <line x1="80.00" y1="247.95" x2="720.00" y2="247.95"/>
    <line x1="80.00" y1="247.00" x2="720.00" y2="247.00"/>
    <line x1="80.00" y1="246.52" x2="720.00" y2="246.52"/>
    <line x1="80.00" y1="246.04" x2="720.00" y2="246.04"/>
    <line x1="80.00" y1="245.57" x2="720.00" y2="245.57"/>
    <line x1="80.00" y1="244.61" x2="720.00" y2="244.61"/>
    <line x1="80.00" y1="244.13" x2="720.00" y2="244.13"/>
    <line x1="80.00" y1="243.66" x2="720.00" y2="243.66"/>
    <line x1="80.00" y1="243.18" x2="720.00" y2="243.18"/>
    <line x1="80.00" y1="242.22" x2="720.00" y2="242.22"/>
    <line x1="80.00" y1="241.75" x2="720.00" y2="241.75"/>
    <line x1="80.00" y1="241.27" x2="720.00" y2="241.27"/>
    <line x1="80.00" y1="240.79" x2="720.00" y2="240.79"/>
    <line x1="80.00" y1="239.84" x2="720.00" y2="239.84"/>
    <line x1="80.00" y1="239.36" x2="720.00" y2="239.36"/>
    <line x1="80.00" y1="238.88" x2="720.00" y2="238.88"/>
    <line x1="80.00" y1="238.40" x2="720.00" y2="238.40"/>
    <line x1="80.00" y1="237.45" x2="720.00" y2="237.45"/>
    <line x1="80.00" y1="236.97" x2="720.00" y2="236.97"/>
    <line x1="80.00" y1="236.49" x2="720.00" y2="236.49"/>
    <line x1="80.00" y1="236.02" x2="720.00" y2="236.02"/>
    <line x1="80.00" y1="235.06" x2="720.00" y2="235.06"/>
    <line x1="80.00" y1="234.58" x2="720.00" y2="234.58"/>
    <line x1="80.00" y1="234.11" x2="720.00" y2="234.11"/>
    <line x1="80.00" y1="233.63" x2="720.00" y2="233.63"/>
    <line x1="80.00" y1="232.67" x2="720.00" y2="232.67"/>
    <line x1="80.00" y1="232.20" x2="720.00" y2="232.20"/>
    <line x1="80.00" y1="231.72" x2="720.00" y2="231.72"/>
    <line x1="80.00" y1="231.24" x2="720.00" y2="231.24"/>
    <line x1="80.00" y1="230.29" x2="720.00" y2="230.29"/>
    <line x1="80.00" y1="229.81" x2="720.00" y2="229.81"/>
    <line x1="80.00" y1="229.33" x2="720.00" y2="229.33"/>
    <line x1="80.00" y1="228.86" x2="720.00" y2="228.86"/>
    <line x1="80.00" y1="227.90" x2="720.00" y2="227.90"/>
    <line x1="80.00" y1="227.42" x2="720.00" y2="227.42"/>
    <line x1="80.00" y1="226.95" x2="720.00" y2="226.95"/>
    <line x1="80.00" y1="226.47" x2="720.00" y2="226.47"/>
    <line x1="80.00" y1="225.51" x2="720.00" y2="225.51"/>
    <line x1="80.00" y1="225.04" x2="720.00" y2="225.04"/>
    <line x1="80.00" y1="224.56" x2="720.00" y2="224.56"/>
    <line x1="80.00" y1="224.08" x2="720.00" y2="224.08"/>
    <line x1="80.00" y1="223.13" x2="720.00" y2="223.13"/>
    <line x1="80.00" y1="222.65" x2="720.00" y2="222.65"/>
    <line x1="80.00" y1="222.17" x2="720.00" y2="222.17"/>
    <line x1="80.00" y1="221.69" x2="720.00" y2="221.69"/>
    <line x1="80.00" y1="220.74" x2="720.00" y2="220.74"/>
    <line x1="80.00" y1="220.26" x2="720.00" y2="220.26"/>
    <line x1="80.00" y1="219.78" x2="720.00" y2="219.78"/>
    <line x1="80.00" y1="219.31" x2="720.00" y2="219.31"/>
    <line x1="80.00" y1="218.35" x2="720.00" y2="218.35"/>
    <line x1="80.00" y1="217.87" x2="720.00" y2="217.87"/>
    <line x1="80.00" y1="217.40" x2="720.00" y2="217.40"/>
    <line x1="80.00" y1="216.92" x2="720.00" y2="216.92"/>
    <line x1="80.00" y1="215.96" x2="720.00" y2="215.96"/>
    <line x1="80.00" y1="215.49" x2="720.00" y2="215.49"/>
    <line x1="80.00" y1="215.01" x2="720.00" y2="215.01"/>
    <line x1="80.00" y1="214.53" x2="720.00" y2="214.53"/>
    <line x1="80.00" y1="213.58" x2="720.00" y2="213.58"/>
    <line x1="80.00" y1="213.10" x2="720.00" y2="213.10"/>
    <line x1="80.00" y1="212.62" x2="720.00" y2="212.62"/>
    <line x1="80.00" y1="212.14" x2="720.00" y2="212.14"/>
    <line x1="80.00" y1="211.19" x2="720.00" y2="211.19"/>
    <line x1="80.00" y1="210.71" x2="720.00" y2="210.71"/>
    <line x1="80.00" y1="210.23" x2="720.00" y2="210.23"/>
    <line x1="80.00" y1="209.76" x2="720.00" y2="209.76"/>
    <line x1="80.00" y1="208.80" x2="720.00" y2="208.80"/>
    <line x1="80.00" y1="208.32" x2="720.00" y2="208.32"/>
    <line x1="80.00" y1="207.85" x2="720.00" y2="207.85"/>
    <line x1="80.00" y1="207.37" x2="720.00" y2="207.37"/>
    <line x1="80.00" y1="206.41" x2="720.00" y2="206.41"/>
    <line x1="80.00" y1="205.94" x2="720.00" y2="205.94"/>
    <line x1="80.00" y1="205.46" x2="720.00" y2="205.46"/>
    <line x1="80.00" y1="204.98" x2="720.00" y2="204.98"/>
    <line x1="80.00" y1="204.03" x2="720.00" y2="204.03"/>
    <line x1="80.00" y1="203.55" x2="720.00" y2="203.55"/>
    <line x1="80.00" y1="203.07" x2="720.00" y2="203.07"/>
    <line x1="80.00" y1="202.60" x2="720.00" y2="202.60"/>
    <line x1="80.00" y1="201.64" x2="720.00" y2="201.64"/>
    <line x1="80.00" y1="201.16" x2="720.00" y2="201.16"/>
    <line x1="80.00" y1="200.69" x2="720.00" y2="200.69"/>
    <line x1="80.00" y1="200.21" x2="720.00" y2="200.21"/>
    <line x1="80.00" y1="199.25" x2="720.00" y2="199.25"/>
    <line x1="80.00" y1="198.78" x2="720.00" y2="198.78"/>
    <line x1="80.00" y1="198.30" x2="720.00" y2="198.30"/>
    <line x1="80.00" y1="197.82" x2="720.00" y2="197.82"/>
    <line x1="80.00" y1="196.87" x2="720.00" y2="196.87"/>
    <line x1="80.00" y1="196.39" x2="720.00" y2="196.39"/>
    <line x1="80.00" y1="195.91" x2="720.00" y2="195.91"/>
    <line x1="80.00" y1="195.43" x2="720.00" y2="195.43"/>
    <line x1="80.00" y1="194.48" x2="720.00" y2="194.48"/>
    <line x1="80.00" y1="194.00" x2="720.00" y2="194.00"/>
    <line x1="80.00" y1="193.52" x2="720.00" y2="193.52"/>
    <line x1="80.00" y1="193.05" x2="720.00" y2="193.05"/>
    <line x1="80.00" y1="192.09" x2="720.00" y2="192.09"/>
    <line x1="80.00" y1="191.61" x2="720.00" y2="191.61"/>
    <line x1="80.00" y1="191.14" x2="720.00" y2="191.14"/>
    <line x1="80.00" y1="190.66" x2="720.00" y2="190.66"/>
    <line x1="80.00" y1="189.70" x2="720.00" y2="189.70"/>
    <line x1="80.00" y1="189.23" x2="720.00" y2="189.23"/>
    <line x1="80.00" y1="188.75" x2="720.00" y2="188.75"/>
    <line x1="80.00" y1="188.27" x2="720.00" y2="188.27"/>
    <line x1="80.00" y1="187.32" x2="720.00" y2="187.32"/>
    <line x1="80.00" y1="186.84" x2="720.00" y2="186.84"/>
    <line x1="80.00" y1="186.36" x2="720.00" y2="186.36"/>
    <line x1="80.00" y1="185.88" x2="720.00" y2="185.88"/>
    <line x1="80.00" y1="184.93" x2="720.00" y2="184.93"/>
    <line x1="80.00" y1="184.45" x2="720.00" y2="184.45"/>
    <line x1="80.00" y1="183.97" x2="720.00" y2="183.97"/>
    <line x1="80.00" y1="183.50" x2="720.00" y2="183.50"/>
    <line x1="80.00" y1="182.54" x2="720.00" y2="182.54"/>
    <line x1="80.00" y1="182.06" x2="720.00" y2="182.06"/>
    <line x1="80.00" y1="181.59" x2="720.00" y2="181.59"/>
    <line x1="80.00" y1="181.11" x2="720.00" y2="181.11"/>
    <line x1="80.00" y1="180.15" x2="720.00" y2="180.15"/>
    <line x1="80.00" y1="179.68" x2="720.00" y2="179.68"/>
    <line x1="80.00" y1="179.20" x2="720.00" y2="179.20"/>
    <line x1="80.00" y1="178.72" x2="720.00" y2="178.72"/>
    <line x1="80.00" y1="177.77" x2="720.00" y2="177.77"/>
    <line x1="80.00" y1="177.29" x2="720.00" y2="177.29"/>
    <line x1="80.00" y1="176.81" x2="720.00" y2="176.81"/>
    <line x1="80.00" y1="176.34" x2="720.00" y2="176.34"/>
    <line x1="80.00" y1="175.38" x2="720.00" y2="175.38"/>
    <line x1="80.00" y1="174.90" x2="720.00" y2="174.90"/>
    <line x1="80.00" y1="174.43" x2="720.00" y2="174.43"/>
    <line x1="80.00" y1="173.95" x2="720.00" y2="173.95"/>
    <line x1="80.00" y1="172.99" x2="720.00" y2="172.99"/>
    <line x1="80.00" y1="172.52" x2="720.00" y2="172.52"/>
    <line x1="80.00" y1="172.04" x2="720.00" y2="172.04"/>
    <line x1="80.00" y1="171.56" x2="720.00" y2="171.56"/>
    <line x1="80.00" y1="170.61" x2="720.00" y2="170.61"/>
    <line x1="80.00" y1="170.13" x2="720.00" y2="170.13"/>
    <line x1="80.00" y1="169.65" x2="720.00" y2="169.65"/>
    <line x1="80.00" y1="169.17" x2="720.00" y2="169.17"/>
    <line x1="80.00" y1="168.22" x2="720.00" y2="168.22"/>
    <line x1="80.00" y1="167.74" x2="720.00" y2="167.74"/>
    <line x1="80.00" y1="167.26" x2="720.00" y2="167.26"/>
    <line x1="80.00" y1="166.79" x2="720.00" y2="166.79"/>
    <line x1="80.00" y1="165.83" x2="720.00" y2="165.83"/>
    <line x1="80.00" y1="165.35" x2="720.00" y2="165.35"/>
    <line x1="80.00" y1="164.88" x2="720.00" y2="164.88"/>
    <line x1="80.00" y1="164.40" x2="720.00" y2="164.40"/>
    <line x1="80.00" y1="163.44" x2="720.00" y2="163.44"/>
    <line x1="80.00" y1="162.97" x2="720.00" y2="162.97"/>
    <line x1="80.00" y1="162.49" x2="720.00" y2="162.49"/>
    <line x1="80.00" y1="162.01" x2="720.00" y2="162.01"/>
    <line x1="80.00" y1="161.06" x2="720.00" y2="161.06"/>
    <line x1="80.00" y1="160.58" x2="720.00" y2="160.58"/>
    <line x1="80.00" y1="160.10" x2="720.00" y2="160.10"/>
    <line x1="80.00" y1="159.62" x2="720.00" y2="159.62"/>
    <line x1="80.00" y1="158.67" x2="720.00" y2="158.67"/>
    <line x1="80.00" y1="158.19" x2="720.00" y2="158.19"/>
    <line x1="80.00" y1="157.71" x2="720.00" y2="157.71"/>
    <line x1="80.00" y1="157.24" x2="720.00" y2="157.24"/>
    <line x1="80.00" y1="156.28" x2="720.00" y2="156.28"/>
    <line x1="80.00" y1="155.80" x2="720.00" y2="155.80"/>
    <line x1="80.00" y1="155.33" x2="720.00" y2="155.33"/>
    <line x1="80.00" y1="154.85" x2="720.00" y2="154.85"/>
    <line x1="80.00" y1="153.89" x2="720.00" y2="153.89"/>
    <line x1="80.00" y1="153.42" x2="720.00" y2="153.42"/>
    <line x1="80.00" y1="152.94" x2="720.00" y2="152.94"/>
    <line x1="80.00" y1="152.46" x2="720.00" y2="152.46"/>
    <line x1="80.00" y1="151.51" x2="720.00" y2="151.51"/>
    <line x1="80.00" y1="151.03" x2="720.00" y2="151.03"/>
    <line x1="80.00" y1="150.55" x2="720.00" y2="150.55"/>
    <line x1="80.00" y1="150.08" x2="720.00" y2="150.08"/>
    <line x1="80.00" y1="149.12" x2="720.00" y2="149.12"/>
    <line x1="80.00" y1="148.64" x2="720.00" y2="148.64"/>
    <line x1="80.00" y1="148.17" x2="720.00" y2="148.17"/>
    <line x1="80.00" y1="147.69" x2="720.00" y2="147.69"/>
    <line x1="80.00" y1="146.73" x2="720.00" y2="146.73"/>
    <line x1="80.00" y1="146.26" x2="720.00" y2="146.26"/>
    <line x1="80.00" y1="145.78" x2="720.00" y2="145.78"/>
    <line x1="80.00" y1="145.30" x2="720.00" y2="145.30"/>
    <line x1="80.00" y1="144.35" x2="720.00" y2="144.35"/>
    <line x1="80.00" y1="143.87" x2="720.00" y2="143.87"/>
    <line x1="80.00" y1="143.39" x2="720.00" y2="143.39"/>
    <line x1="80.00" y1="142.91" x2="720.00" y2="142.91"/>
    <line x1="80.00" y1="141.96" x2="720.00" y2="141.96"/>
    <line x1="80.00" y1="141.48" x2="720.00" y2="141.48"/>
    <line x1="80.00" y1="141.00" x2="720.00" y2="141.00"/>
    <line x1="80.00" y1="140.53" x2="720.00" y2="140.53"/>
    <line x1="80.00" y1="139.57" x2="720.00" y2="139.57"/>
    <line x1="80.00" y1="139.09" x2="720.00" y2="139.09"/>
    <line x1="80.00" y1="138.62" x2="720.00" y2="138.62"/>
    <line x1="80.00" y1="138.14" x2="720.00" y2="138.14"/>
    <line x1="80.00" y1="137.18" x2="720.00" y2="137.18"/>
    <line x1="80.00" y1="136.71" x2="720.00" y2="136.71"/>
    <line x1="80.00" y1="136.23" x2="720.00" y2="136.23"/>
    <line x1="80.00" y1="135.75" x2="720.00" y2="135.75"/>
    <line x1="80.00" y1="134.80" x2="720.00" y2="134.80"/>
    <line x1="80.00" y1="134.32" x2="720.00" y2="134.32"/>
    <line x1="80.00" y1="133.84" x2="720.00" y2="133.84"/>
    <line x1="80.00" y1="133.36" x2="720.00" y2="133.36"/>
    <line x1="80.00" y1="132.41" x2="720.00" y2="132.41"/>
    <line x1="80.00" y1="131.93" x2="720.00" y2="131.93"/>
    <line x1="80.00" y1="131.45" x2="720.00" y2="131.45"/>
    <line x1="80.00" y1="130.98" x2="720.00" y2="130.98"/>
    <line x1="80.00" y1="130.02" x2="720.00" y2="130.02"/>
    <line x1="80.00" y1="129.54" x2="720.00" y2="129.54"/>
    <line x1="80.00" y1="129.07" x2="720.00" y2="129.07"/>
    <line x1="80.00" y1="128.59" x2="720.00" y2="128.59"/>
    <line x1="80.00" y1="127.63" x2="720.00" y2="127.63"/>
    <line x1="80.00" y1="127.16" x2="720.00" y2="127.16"/>
    <line x1="80.00" y1="126.68" x2="720.00" y2="126.68"/>
    <line x1="80.00" y1="126.20" x2="720.00" y2="126.20"/>
    <line x1="80.00" y1="125.25" x2="720.00" y2="125.25"/>
    <line x1="80.00" y1="124.77" x2="720.00" y2="124.77"/>
    <line x1="80.00" y1="124.29" x2="720.00" y2="124.29"/>
    <line x1="80.00" y1="123.82" x2="720.00" y2="123.82"/>
    <line x1="80.00" y1="122.86" x2="720.00" y2="122.86"/>
    <line x1="80.00" y1="122.38" x2="720.00" y2="122.38"/>
    <line x1="80.00" y1="121.91" x2="720.00" y2="121.91"/>
    <line x1="80.00" y1="121.43" x2="720.00" y2="121.43"/>
    <line x1="80.00" y1="120.47" x2="720.00" y2="120.47"/>
    <line x1="80.00" y1="120.00" x2="720.00" y2="120.00"/>
    <line x1="80.00" y1="119.52" x2="720.00" y2="119.52"/>
    <line x1="80.00" y1="119.04" x2="720.00" y2="119.04"/>
    <line x1="80.00" y1="118.09" x2="720.00" y2="118.09"/>
    <line x1="80.00" y1="117.61" x2="720.00" y2="117.61"/>
    <line x1="80.00" y1="117.13" x2="720.00" y2="117.13"/>
    <line x1="80.00" y1="116.65" x2="720.00" y2="116.65"/>
    <line x1="80.00" y1="115.70" x2="720.00" y2="115.70"/>
    <line x1="80.00" y1="115.22" x2="720.00" y2="115.22"/>
    <line x1="80.00" y1="114.74" x2="720.00" y2="114.74"/>
    <line x1="80.00" y1="114.27" x2="720.00" y2="114.27"/>
    <line x1="80.00" y1="113.31" x2="720.00" y2="113.31"/>
    <line x1="80.00" y1="112.83" x2="720.00" y2="112.83"/>
    <line x1="80.00" y1="112.36" x2="720.00" y2="112.36"/>
    <line x1="80.00" y1="111.88" x2="720.00" y2="111.88"/>
    <line x1="80.00" y1="110.92" x2="720.00" y2="110.92"/>
    <line x1="80.00" y1="110.45" x2="720.00" y2="110.45"/>
    <line x1="80.00" y1="109.97" x2="720.00" y2="109.97"/>
    <line x1="80.00" y1="109.49" x2="720.00" y2="109.49"/>
    <line x1="80.00" y1="108.54" x2="720.00" y2="108.54"/>
    <line x1="80.00" y1="108.06" x2="720.00" y2="108.06"/>
    <line x1="80.00" y1="107.58" x2="720.00" y2="107.58"/>
    <line x1="80.00" y1="107.10" x2="720.00" y2="107.10"/>
    <line x1="80.00" y1="106.15" x2="720.00" y2="106.15"/>
    <line x1="80.00" y1="105.67" x2="720.00" y2="105.67"/>
    <line x1="80.00" y1="105.19" x2="720.00" y2="105.19"/>
    <line x1="80.00" y1="104.72" x2="720.00" y2="104.72"/>
    <line x1="80.00" y1="103.76" x2="720.00" y2="103.76"/>
    <line x1="80.00" y1="103.28" x2="720.00" y2="103.28"/>
    <line x1="80.00" y1="102.81" x2="720.00" y2="102.81"/>
    <line x1="80.00" y1="102.33" x2="720.00" y2="102.33"/>
    <line x1="80.00" y1="101.37" x2="720.00" y2="101.37"/>
    <line x1="80.00" y1="100.90" x2="720.00" y2="100.90"/>
    <line x1="80.00" y1="100.42" x2="720.00" y2="100.42"/>
    <line x1="80.00" y1="99.94" x2="720.00" y2="99.94"/>
    <line x1="80.00" y1="98.99" x2="720.00" y2="98.99"/>
    <line x1="80.00" y1="98.51" x2="720.00" y2="98.51"/>
    <line x1="80.00" y1="98.03" x2="720.00" y2="98.03"/>
    <line x1="80.00" y1="97.56" x2="720.00" y2="97.56"/>
    <line x1="80.00" y1="96.60" x2="720.00" y2="96.60"/>
    <line x1="80.00" y1="96.12" x2="720.00" y2="96.12"/>
    <line x1="80.00" y1="95.65" x2="720.00" y2="95.65"/>
    <line x1="80.00" y1="95.17" x2="720.00" y2="95.17"/>
    <line x1="80.00" y1="94.21" x2="720.00" y2="94.21"/>
    <line x1="80.00" y1="93.74" x2="720.00" y2="93.74"/>
    <line x1="80.00" y1="93.26" x2="720.00" y2="93.26"/>
    <line x1="80.00" y1="92.78" x2="720.00" y2="92.78"/>
    <line x1="80.00" y1="91.83" x2="720.00" y2="91.83"/>
    <line x1="80.00" y1="91.35" x2="720.00" y2="91.35"/>
    <line x1="80.00" y1="90.87" x2="720.00" y2="90.87"/>
    <line x1="80.00" y1="90.39" x2="720.00" y2="90.39"/>
    <line x1="80.00" y1="89.44" x2="720.00" y2="89.44"/>
    <line x1="80.00" y1="88.96" x2="720.00" y2="88.96"/>
    <line x1="80.00" y1="88.48" x2="720.00" y2="88.48"/>
    <line x1="80.00" y1="88.01" x2="720.00" y2="88.01"/>
    <line x1="80.00" y1="87.05" x2="720.00" y2="87.05"/>
    <line x1="80.00" y1="86.57" x2="720.00" y2="86.57"/>
    <line x1="80.00" y1="86.10" x2="720.00" y2="86.10"/>
    <line x1="80.00" y1="85.62" x2="720.00" y2="85.62"/>
    <line x1="80.00" y1="84.66" x2="720.00" y2="84.66"/>
    <line x1="80.00" y1="84.19" x2="720.00" y2="84.19"/>
    <line x1="80.00" y1="83.71" x2="720.00" y2="83.71"/>
    <line x1="80.00" y1="83.23" x2="720.00" y2="83.23"/>
    <line x1="80.00" y1="82.28" x2="720.00" y2="82.28"/>
    <line x1="80.00" y1="81.80" x2="720.00" y2="81.80"/>
    <line x1="80.00" y1="81.32" x2="720.00" y2="81.32"/>
    <line x1="80.00" y1="80.84" x2="720.00" y2="80.84"/>
    <line x1="80.00" y1="79.89" x2="720.00" y2="79.89"/>
    <line x1="80.00" y1="79.41" x2="720.00" y2="79.41"/>
    <line x1="80.00" y1="78.93" x2="720.00" y2="78.93"/>
    <line x1="80.00" y1="78.46" x2="720.00" y2="78.46"/>
    <line x1="80.00" y1="77.50" x2="720.00" y2="77.50"/>
    <line x1="80.00" y1="77.02" x2="720.00" y2="77.02"/>
    <line x1="80.00" y1="76.55" x2="720.00" y2="76.55"/>
    <line x1="80.00" y1="76.07" x2="720.00" y2="76.07"/>
    <line x1="80.00" y1="75.11" x2="720.00" y2="75.11"/>
    <line x1="80.00" y1="74.64" x2="720.00" y2="74.64"/>
    <line x1="80.00" y1="74.16" x2="720.00" y2="74.16"/>
    <line x1="80.00" y1="73.68" x2="720.00" y2="73.68"/>
    <line x1="80.00" y1="72.73" x2="720.00" y2="72.73"/>
    <line x1="80.00" y1="72.25" x2="720.00" y2="72.25"/>
    <line x1="80.00" y1="71.77" x2="720.00" y2="71.77"/>
    <line x1="80.00" y1="71.30" x2="720.00" y2="71.30"/>
    <line x1="80.00" y1="70.34" x2="720.00" y2="70.34"/>
    <line x1="80.00" y1="69.86" x2="720.00" y2="69.86"/>
    <line x1="80.00" y1="69.39" x2="720.00" y2="69.39"/>
    <line x1="80.00" y1="68.91" x2="720.00" y2="68.91"/>
    <line x1="80.00" y1="67.95" x2="720.00" y2="67.95"/>
    <line x1="80.00" y1="67.48" x2="720.00" y2="67.48"/>
    <line x1="80.00" y1="67.00" x2="720.00" y2="67.00"/>
    <line x1="80.00" y1="66.52" x2="720.00" y2="66.52"/>
    <line x1="80.00" y1="65.57" x2="720.00" y2="65.57"/>
    <line x1="80.00" y1="65.09" x2="720.00" y2="65.09"/>
    <line x1="80.00" y1="64.61" x2="720.00" y2="64.61"/>
    <line x1="80.00" y1="64.13" x2="720.00" y2="64.13"/>
    <line x1="80.00" y1="63.18" x2="720.00" y2="63.18"/>
    <line x1="80.00" y1="62.70" x2="720.00" y2="62.70"/>
    <line x1="80.00" y1="62.22" x2="720.00" y2="62.22"/>
    <line x1="80.00" y1="61.75" x2="720.00" y2="61.75"/>
    <line x1="80.00" y1="60.79" x2="720.00" y2="60.79"/>
    <line x1="80.00" y1="60.31" x2="720.00" y2="60.31"/>
  </g>
  <g stroke="#808080" stroke-width="2">
    <line x1="543.06" y1="540.00" x2="543.06" y2="60.00"/>
    <line x1="80.00" y1="309.55" x2="720.00" y2="309.55"/>
  </g>
  <polyline fill="none" stroke="#0066cc" stroke-width="2" points="543.06,309.55 565.36,309.53 586.61,309.49 606.67,309.42 625.43,309.32 642.77,309.21 658.57,309.08 672.73,308.93 685.17,308.76 695.81,308.59 704.57,308.41 711.41,308.23 716.28,308.05 719.15,307.88 720.00,307.71 718.83,307.56 715.64,307.42 710.45,307.31 703.30,307.22 694.24,307.17 683.31,307.16 670.59,307.20 656.16,307.29 640.11,307.44 622.54,307.67 603.56,307.99 583.30,308.42 561.88,308.97 539.43,309.67 516.10,310.56 492.04,311.69 467.39,313.14 442.32,315.01 416.97,317.50 391.52,320.91 366.13,325.86 340.95,333.61 316.14,347.49 291.86,379.69 268.26,540.00 245.49,60.00 223.71,220.37 203.03,252.69 183.60,266.75 165.54,274.74 148.96,279.98 133.97,283.74 120.66,286.63 109.11,288.96 99.40,290.90 91.59,292.57 85.73,294.05 81.86,295.37 80.00,296.57 80.16,297.68 82.34,298.70 86.53,299.66 92.71,300.55 100.82,301.40 110.82,302.19 122.66,302.94 136.24,303.65 151.50,304.31 168.32,304.93 186.61,305.51 206.24,306.05 227.10,306.55 249.06,307.01 271.96,307.43 295.68,307.81 320.05,308.15 344.93,308.46 370.16,308.72 395.57,308.95 421.02,309.14 446.33,309.29 471.34,309.40 495.91,309.48 519.86,309.53 543.06,309.55 "/>
</svg>
