<?xml version="1.0" encoding="UTF-8"?>
<svg xmlns="http://www.w3.org/2000/svg" width="800" height="600">
  <title>R=(6*sin(t)*cos(t))/(sin(t)*sin(t)*sin(t)+cos(t)*cos(t)*cos(t))</title>
  <rect width="800" height="600" fill="#ffffff"/>
  <g stroke="#d0d0d0" stroke-width="1">
    <line x1="77.89" y1="540.00" x2="77.89" y2="60.00"/>
    <line x1="82.26" y1="540.00" x2="82.26" y2="60.00"/>
    <line x1="86.64" y1="540.00" x2="86.64" y2="60.00"/>
    <line x1="91.02" y1="540.00" x2="91.02" y2="60.00"/>
    <line x1="95.39" y1="540.00" x2="95.39" y2="60.00"/>
    <line x1="99.77" y1="540.00" x2="99.77" y2="60.00"/>
    <line x1="104.14" y1="540.00" x2="104.14" y2="60.00"/>
    <line x1="108.52" y1="540.00" x2="108.52" y2="60.00"/>
    <line x1="112.90" y1="540.00" x2="112.90" y2="60.00"/>
    <line x1="117.27" y1="540.00" x2="117.27" y2="60.00"/>
    <line x1="121.65" y1="540.00" x2="121.65" y2="60.00"/>
    <line x1="126.02" y1="540.00" x2="126.02" y2="60.00"/>
    <line x1="130.40" y1="540.00" x2="130.40" y2="60.00"/>
    <line x1="134.78" y1="540.00" x2="134.78" y2="60.00"/>
    <line x1="139.15" y1="540.00" x2="139.15" y2="60.00"/>
    <line x1="143.53" y1="540.00" x2="143.53" y2="60.00"/>
    <line x1="147.91" y1="540.00" x2="147.91" y2="60.00"/>
    <line x1="152.28" y1="540.00" x2="152.28" y2="60.00"/>
    <line x1="156.66" y1="540.00" x2="156.66" y2="60.00"/>
    <line x1="161.03" y1="540.00" x2="161.03" y2="60.00"/>
    <line x1="165.41" y1="540.00" x2="165.41" y2="60.00"/>
    <line x1="169.79" y1="540.00" x2="169.79" y2="60.00"/>
    <line x1="174.16" y1="540.00" x2="174.16" y2="60.00"/>
    <line x1="178.54" y1="540.00" x2="178.54" y2="60.00"/>
    <line x1="182.91" y1="540.00" x2="182.91" y2="60.00"/>
    <line x1="187.29" y1="540.00" x2="187.29" y2="60.00"/>
    <line x1="191.67" y1="540.00" x2="191.67" y2="60.00"/>
    <line x1="196.04" y1="540.00" x2="196.04" y2="60.00"/>
    <line x1="200.42" y1="540.00" x2="200.42" y2="60.00"/>
    <line x1="204.79" y1="540.00" x2="204.79" y2="60.00"/>
    <line x1="209.17" y1="540.00" x2="209.17" y2="60.00"/>
    <line x1="213.55" y1="540.00" x2="213.55" y2="60.00"/>
    <line x1="217.92" y1="540.00" x2="217.92" y2="60.00"/>
    <line x1="222.30" y1="540.00" x2="222.30" y2="60.00"/>
    <line x1="226.68" y1="540.00" x2="226.68" y2="60.00"/>
    <line x1="231.05" y1="540.00" x2="231.05" y2="60.00"/>
    <line x1="235.43" y1="540.00" x2="235.43" y2="60.00"/>
    <line x1="239.80" y1="540.00" x2="239.80" y2="60.00"/>
    <line x1="244.18" y1="540.00" x2="244.18" y2="60.00"/>
    <line x1="248.56" y1="540.00" x2="248.56" y2="60.00"/>
    <line x1="252.93" y1="540.00" x2="252.93" y2="60.00"/>
    <line x1="257.31" y1="540.00" x2="257.31" y2="60.00"/>
    <line x1="261.68" y1="540.00" x2="261.68" y2="60.00"/>
    <line x1="266.06" y1="540.00" x2="266.06" y2="60.00"/>
    <line x1="270.44" y1="540.00" x2="270.44" y2="60.00"/>
    <line x1="274.81" y1="540.00" x2="274.81" y2="60.00"/>
    <line x1="279.19" y1="540.00" x2="279.19" y2="60.00"/>
    <line x1="283.56" y1="540.00" x2="283.56" y2="60.00"/>
    <line x1="287.94" y1="540.00" x2="287.94" y2="60.00"/>
    <line x1="292.32" y1="540.00" x2="292.32" y2="60.00"/>
    <line x1="296.69" y1="540.00" x2="296.69" y2="60.00"/>
    <line x1="301.07" y1="540.00" x2="301.07" y2="60.00"/>
    <line x1="305.45" y1="540.00" x2="305.45" y2="60.00"/>
    <line x1="309.82" y1="540.00" x2="309.82" y2="60.00"/>
    <line x1="314.20" y1="540.00" x2="314.20" y2="60.00"/>
    <line x1="318.57" y1="540.00" x2="318.57" y2="60.00"/>
    <line x1="322.95" y1="540.00" x2="322.95" y2="60.00"/>
    <line x1="327.33" y1="540.00" x2="327.33" y2="60.00"/>
    <line x1="331.70" y1="540.00" x2="331.70" y2="60.00"/>
    <line x1="336.08" y1="540.00" x2="336.08" y2="60.00"/>
    <line x1="340.45" y1="540.00" x2="340.45" y2="60.00"/>
    <line x1="344.83" y1="540.00" x2="344.83" y2="60.00"/>
    <line x1="349.21" y1="540.00" x2="349.21" y2="60.00"/>
    <line x1="353.58" y1="540.00" x2="353.58" y2="60.00"/>
    <line x1="357.96" y1="540.00" x2="357.96" y2="60.00"/>
    <line x1="362.33" y1="540.00" x2="362.33" y2="60.00"/>
    <line x1="366.71" y1="540.00" x2="366.71" y2="60.00"/>
    <line x1="371.09" y1="540.00" x2="371.09" y2="60.00"/>
    <line x1="375.46" y1="540.00" x2="375.46" y2="60.00"/>
    <line x1="379.84" y1="540.00" x2="379.84" y2="60.00"/>
    <line x1="384.22" y1="540.00" x2="384.22" y2="60.00"/>
    <line x1="388.59" y1="540.00" x2="388.59" y2="60.00"/>
    <line x1="392.97" y1="540.00" x2="392.97" y2="60.00"/>
    <line x1="397.34" y1="540.00" x2="397.34" y2="60.00"/>
    <line x1="401.72" y1="540.00" x2="401.72" y2="60.00"/>
    <line x1="406.10" y1="540.00" x2="406.10" y2="60.00"/>
    <line x1="410.47" y1="540.00" x2="410.47" y2="60.00"/>
    <line x1="414.85" y1="540.00" x2="414.85" y2="60.00"/>
    <line x1="419.22" y1="540.00" x2="419.22" y2="60.00"/>
    <line x1="423.60" y1="540.00" x2="423.60" y2="60.00"/>
    <line x1="427.98" y1="540.00" x2="427.98" y2="60.00"/>
    <line x1="432.35" y1="540.00" x2="432.35" y2="60.00"/>
    <line x1="436.73" y1="540.00" x2="436.73" y2="60.00"/>
    <line x1="441.10" y1="540.00" x2="441.10" y2="60.00"/>
    <line x1="445.48" y1="540.00" x2="445.48" y2="60.00"/>
    <line x1="449.86" y1="540.00" x2="449.86" y2="60.00"/>
    <line x1="454.23" y1="540.00" x2="454.23" y2="60.00"/>
    <line x1="458.61" y1="540.00" x2="458.61" y2="60.00"/>
    <line x1="462.99" y1="540.00" x2="462.99" y2="60.00"/>
    <line x1="467.36" y1="540.00" x2="467.36" y2="60.00"/>
    <line x1="471.74" y1="540.00" x2="471.74" y2="60.00"/>
    <line x1="476.11" y1="540.00" x2="476.11" y2="60.00"/>
    <line x1="480.49" y1="540.00" x2="480.49" y2="60.00"/>
    <line x1="484.87" y1="540.00" x2="484.87" y2="60.00"/>
    <line x1="489.24" y1="540.00" x2="489.24" y2="60.00"/>
    <line x1="493.62" y1="540.00" x2="493.62" y2="60.00"/>
    <line x1="497.99" y1="540.00" x2="497.99" y2="60.00"/>
    <line x1="502.37" y1="540.00" x2="502.37" y2="60.00"/>
    <line x1="506.75" y1="540.00" x2="506.75" y2="60.00"/>
    <line x1="511.12" y1="540.00" x2="511.12" y2="60.00"/>
    <line x1="515.50" y1="540.00" x2="515.50" y2="60.00"/>
    <line x1="519.87" y1="540.00" x2="519.87" y2="60.00"/>
    <line x1="524.25" y1="540.00" x2="524.25" y2="60.00"/>
    <line x1="528.63" y1="540.00" x2="528.63" y2="60.00"/>
    <line x1="533.00" y1="540.00" x2="533.00" y2="60.00"/>
    <line x1="537.38" y1="540.00" x2="537.38" y2="60.00"/>
    <line x1="541.76" y1="540.00" x2="541.76" y2="60.00"/>
    <line x1="546.13" y1="540.00" x2="546.13" y2="60.00"/>
    <line x1="550.51" y1="540.00" x2="550.51" y2="60.00"/>
    <line x1="554.88" y1="540.00" x2="554.88" y2="60.00"/>
    <line x1="559.26" y1="540.00" x2="559.26" y2="60.00"/>
    <line x1="563.64" y1="540.00" x2="563.64" y2="60.00"/>
    <line x1="568.01" y1="540.00" x2="568.01" y2="60.00"/>
    <line x1="572.39" y1="540.00" x2="572.39" y2="60.00"/>
    <line x1="576.76" y1="540.00" x2="576.76" y2="60.00"/>
    <line x1="581.14" y1="540.00" x2="581.14" y2="60.00"/>
    <line x1="585.52" y1="540.00" x2="585.52" y2="60.00"/>
    <line x1="589.89" y1="540.00" x2="589.89" y2="60.00"/>
    <line x1="594.27" y1="540.00" x2="594.27" y2="60.00"/>
    <line x1="598.64" y1="540.00" x2="598.64" y2="60.00"/>
    <line x1="603.02" y1="540.00" x2="603.02" y2="60.00"/>
    <line x1="607.40" y1="540.00" x2="607.40" y2="60.00"/>
    <line x1="611.77" y1="540.00" x2="611.77" y2="60.00"/>
    <line x1="616.15" y1="540.00" x2="616.15" y2="60.00"/>
    <line x1="620.53" y1="540.00" x2="620.53" y2="60.00"/>
    <line x1="624.90" y1="540.00" x2="624.90" y2="60.00"/>
    <line x1="629.28" y1="540.00" x2="629.28" y2="60.00"/>
    <line x1="633.65" y1="540.00" x2="633.65" y2="60.00"/>
    <line x1="638.03" y1="540.00" x2="638.03" y2="60.00"/>
    <line x1="642.41" y1="540.00" x2="642.41" y2="60.00"/>
    <line x1="646.78" y1="540.00" x2="646.78" y2="60.00"/>
    <line x1="651.16" y1="540.00" x2="651.16" y2="60.00"/>
    <line x1="655.53" y1="540.00" x2="655.53" y2="60.00"/>
    <line x1="659.91" y1="540.00" x2="659.91" y2="60.00"/>
    <line x1="664.29" y1="540.00" x2="664.29" y2="60.00"/>
    <line x1="668.66" y1="540.00" x2="668.66" y2="60.00"/>
    <line x1="673.04" y1="540.00" x2="673.04" y2="60.00"/>
    <line x1="677.41" y1="540.00" x2="677.41" y2="60.00"/>
    <line x1="681.79" y1="540.00" x2="681.79" y2="60.00"/>
    <line x1="686.17" y1="540.00" x2="686.17" y2="60.00"/>
    <line x1="690.54" y1="540.00" x2="690.54" y2="60.00"/>
    <line x1="694.92" y1="540.00" x2="694.92" y2="60.00"/>
    <line x1="699.30" y1="540.00" x2="699.30" y2="60.00"/>
    <line x1="703.67" y1="540.00" x2="703.67" y2="60.00"/>
    <line x1="708.05" y1="540.00" x2="708.05" y2="60.00"/>
    <line x1="712.42" y1="540.00" x2="712.42" y2="60.00"/>
    <line x1="716.80" y1="540.00" x2="716.80" y2="60.00"/>
    <line x1="721.18" y1="540.00" x2="721.18" y2="60.00"/>
    <line x1="80.00" y1="540.88" x2="720.00" y2="540.88"/>
    <line x1="80.00" y1="537.60" x2="720.00" y2="537.60"/>
    <line x1="80.00" y1="534.32" x2="720.00" y2="534.32"/>
    <line x1="80.00" y1="531.04" x2="720.00" y2="531.04"/>
    <line x1="80.00" y1="527.75" x2="720.00" y2="527.75"/>
    <line x1="80.00" y1="524.47" x2="720.00" y2="524.47"/>
    <line x1="80.00" y1="521.19" x2="720.00" y2="521.19"/>
    <line x1="80.00" y1="517.91" x2="720.00" y2="517.91"/>
    <line x1="80.00" y1="514.63" x2="720.00" y2="514.63"/>
    <line x1="80.00" y1="511.34" x2="720.00" y2="511.34"/>
    <line x1="80.00" y1="508.06" x2="720.00" y2="508.06"/>
    <line x1="80.00" y1="504.78" x2="720.00" y2="504.78"/>
    <line x1="80.00" y1="501.50" x2="720.00" y2="501.50"/>
    <line x1="80.00" y1="498.22" x2="720.00" y2="498.22"/>
    <line x1="80.00" y1="494.93" x2="720.00" y2="494.93"/>
    <line x1="80.00" y1="491.65" x2="720.00" y2="491.65"/>
    <line x1="80.00" y1="488.37" x2="720.00" y2="488.37"/>
    <line x1="80.00" y1="485.09" x2="720.00" y2="485.09"/>
    <line x1="80.00" y1="481.81" x2="720.00" y2="481.81"/>
    <line x1="80.00" y1="478.52" x2="720.00" y2="478.52"/>
    <line x1="80.00" y1="475.24" x2="720.00" y2="475.24"/>
    <line x1="80.00" y1="471.96" x2="720.00" y2="471.96"/>
    <line x1="80.00" y1="468.68" x2="720.00" y2="468.68"/>
    <line x1="80.00" y1="465.40" x2="720.00" y2="465.40"/>
    <line x1="80.00" y1="462.11" x2="720.00" y2="462.11"/>
    <line x1="80.00" y1="458.83" x2="720.00" y2="458.83"/>
    <line x1="80.00" y1="455.55" x2="720.00" y2="455.55"/>
    <line x1="80.00" y1="452.27" x2="720.00" y2="452.27"/>
    <line x1="80.00" y1="448.99" x2="720.00" y2="448.99"/>
    <line x1="80.00" y1="445.70" x2="720.00" y2="445.70"/>
    <line x1="80.00" y1="442.42" x2="720.00" y2="442.42"/>
    <line x1="80.00" y1="439.14" x2="720.00" y2="439.14"/>
    <line x1="80.00" y1="435.86" x2="720.00" y2="435.86"/>
    <line x1="80.00" y1="432.58" x2="720.00" y2="432.58"/>
    <line x1="80.00" y1="429.29" x2="720.00" y2="429.29"/>
    <line x1="80.00" y1="426.01" x2="720.00" y2="426.01"/>
    <line x1="80.00" y1="422.73" x2="720.00" y2="422.73"/>
    <line x1="80.00" y1="419.45" x2="720.00" y2="419.45"/>
    <line x1="80.00" y1="416.17" x2="720.00" y2="416.17"/>
    <line x1="80.00" y1="412.88" x2="720.00" y2="412.88"/>
    <line x1="80.00" y1="409.60" x2="720.00" y2="409.60"/>
    <line x1="80.00" y1="406.32" x2="720.00" y2="406.32"/>
    <line x1="80.00" y1="403.04" x2="720.00" y2="403.04"/>
    <line x1="80.00" y1="399.76" x2="720.00" y2="399.76"/>
    <line x1="80.00" y1="396.47" x2="720.00" y2="396.47"/>
    <line x1="80.00" y1="393.19" x2="720.00" y2="393.19"/>
    <line x1="80.00" y1="389.91" x2="720.00" y2="389.91"/>
    <line x1="80.00" y1="386.63" x2="720.00" y2="386.63"/>
    <line x1="80.00" y1="383.35" x2="720.00" y2="383.35"/>
    <line x1="80.00" y1="380.06" x2="720.00" y2="380.06"/>
    <line x1="80.00" y1="376.78" x2="720.00" y2="376.78"/>
    <line x1="80.00" y1="373.50" x2="720.00" y2="373.50"/>
    <line x1="80.00" y1="370.22" x2="720.00" y2="370.22"/>
    <line x1="80.00" y1="366.94" x2="720.00" y2="366.94"/>
    <line x1="80.00" y1="363.65" x2="720.00" y2="363.65"/>
    <line x1="80.00" y1="360.37" x2="720.00" y2="360.37"/>
    <line x1="80.00" y1="357.09" x2="720.00" y2="357.09"/>
    <line x1="80.00" y1="353.81" x2="720.00" y2="353.81"/>
    <line x1="80.00" y1="350.53" x2="720.00" y2="350.53"/>
    <line x1="80.00" y1="347.24" x2="720.00" y2="347.24"/>
    <line x1="80.00" y1="343.96" x2="720.00" y2="343.96"/>
    <line x1="80.00" y1="340.68" x2="720.00" y2="340.68"/>
    <line x1="80.00" y1="337.40" x2="720.00" y2="337.40"/>
    <line x1="80.00" y1="334.12" x2="720.00" y2="334.12"/>
    <line x1="80.00" y1="330.83" x2="720.00" y2="330.83"/>
    <line x1="80.00" y1="327.55" x2="720.00" y2="327.55"/>
    <line x1="80.00" y1="324.27" x2="720.00" y2="324.27"/>
    <line x1="80.00" y1="320.99" x2="720.00" y2="320.99"/>
    <line x1="80.00" y1="317.71" x2="720.00" y2="317.71"/>
    <line x1="80.00" y1="314.42" x2="720.00" y2="314.42"/>
    <line x1="80.00" y1="311.14" x2="720.00" y2="311.14"/>
    <line x1="80.00" y1="307.86" x2="720.00" y2="307.86"/>
    <line x1="80.00" y1="304.58" x2="720.00" y2="304.58"/>
    <line x1="80.00" y1="301.30" x2="720.00" y2="301.30"/>
    <line x1="80.00" y1="298.01" x2="720.00" y2="298.01"/>
    <line x1="80.00" y1="294.73" x2="720.00" y2="294.73"/>
    <line x1="80.00" y1="291.45" x2="720.00" y2="291.45"/>
    <line x1="80.00" y1="288.17" x2="720.00" y2="288.17"/>
    <line x1="80.00" y1="284.89" x2="720.00" y2="284.89"/>
    <line x1="80.00" y1="281.60" x2="720.00" y2="281.60"/>
    <line x1="80.00" y1="278.32" x2="720.00" y2="278.32"/>
    <line x1="80.00" y1="275.04" x2="720.00" y2="275.04"/>
    <line x1="80.00" y1="271.76" x2="720.00" y2="271.76"/>
    <line x1="80.00" y1="268.48" x2="720.00" y2="268.48"/>
    <line x1="80.00" y1="265.19" x2="720.00" y2="265.19"/>
    <line x1="80.00" y1="261.91" x2="720.00" y2="261.91"/>
    <line x1="80.00" y1="258.63" x2="720.00" y2="258.63"/>
    <line x1="80.00" y1="255.35" x2="720.00" y2="255.35"/>
    <line x1="80.00" y1="252.07" x2="720.00" y2="252.07"/>
    <line x1="80.00" y1="248.78" x2="720.00" y2="248.78"/>
    <line x1="80.00" y1="245.50" x2="720.00" y2="245.50"/>
    <line x1="80.00" y1="242.22" x2="720.00" y2="242.22"/>
    <line x1="80.00" y1="238.94" x2="720.00" y2="238.94"/>
    <line x1="80.00" y1="235.66" x2="720.00" y2="235.66"/>
    <line x1="80.00" y1="232.37" x2="720.00" y2="232.37"/>
    <line x1="80.00" y1="229.09" x2="720.00" y2="229.09"/>
    <line x1="80.00" y1="225.81" x2="720.00" y2="225.81"/>
    <line x1="80.00" y1="222.53" x2="720.00" y2="222.53"/>
    <line x1="80.00" y1="219.25" x2="720.00" y2="219.25"/>
    <line x1="80.00" y1="215.96" x2="720.00" y2="215.96"/>
    <line x1="80.00" y1="212.68" x2="720.00" y2="212.68"/>
    <line x1="80.00" y1="209.40" x2="720.00" y2="209.40"/>
    <line x1="80.00" y1="206.12" x2="720.00" y2="206.12"/>
    <line x1="80.00" y1="202.84" x2="720.00" y2="202.84"/>
    <line x1="80.00" y1="199.55" x2="720.00" y2="199.55"/>
    <line x1="80.00" y1="196.27" x2="720.00" y2="196.27"/>
    <line x1="80.00" y1="192.99" x2="720.00" y2="192.99"/>
    <line x1="80.00" y1="189.71" x2="720.00" y2="189.71"/>
    <line x1="80.00" y1="186.43" x2="720.00" y2="186.43"/>
    <line x1="80.00" y1="183.14" x2="720.00" y2="183.14"/>
    <line x1="80.00" y1="179.86" x2="720.00" y2="179.86"/>
    <line x1="80.00" y1="176.58" x2="720.00" y2="176.58"/>
    <line x1="80.00" y1="173.30" x2="720.00" y2="173.30"/>
    <line x1="80.00" y1="170.02" x2="720.00" y2="170.02"/>
    <line x1="80.00" y1="166.73" x2="720.00" y2="166.73"/>
    <line x1="80.00" y1="163.45" x2="720.00" y2="163.45"/>
    <line x1="80.00" y1="160.17" x2="720.00" y2="160.17"/>
    <line x1="80.00" y1="156.89" x2="720.00" y2="156.89"/>
    <line x1="80.00" y1="153.61" x2="720.00" y2="153.61"/>
    <line x1="80.00" y1="150.32" x2="720.00" y2="150.32"/>
    <line x1="80.00" y1="147.04" x2="720.00" y2="147.04"/>
    <line x1="80.00" y1="143.76" x2="720.00" y2="143.76"/>
    <line x1="80.00" y1="140.48" x2="720.00" y2="140.48"/>
    <line x1="80.00" y1="137.20" x2="720.00" y2="137.20"/>
    <line x1="80.00" y1="133.91" x2="720.00" y2="133.91"/>
    <line x1="80.00" y1="130.63" x2="720.00" y2="130.63"/>
    <line x1="80.00" y1="127.35" x2="720.00" y2="127.35"/>
    <line x1="80.00" y1="124.07" x2="720.00" y2="124.07"/>
    <line x1="80.00" y1="120.79" x2="720.00" y2="120.79"/>
    <line x1="80.00" y1="117.50" x2="720.00" y2="117.50"/>
    <line x1="80.00" y1="114.22" x2="720.00" y2="114.22"/>
    <line x1="80.00" y1="110.94" x2="720.00" y2="110.94"/>
    <line x1="80.00" y1="107.66" x2="720.00" y2="107.66"/>
    <line x1="80.00" y1="104.38" x2="720.00" y2="104.38"/>
    <line x1="80.00" y1="101.09" x2="720.00" y2="101.09"/>
    <line x1="80.00" y1="97.81" x2="720.00" y2="97.81"/>
    <line x1="80.00" y1="94.53" x2="720.00" y2="94.53"/>
    <line x1="80.00" y1="91.25" x2="720.00" y2="91.25"/>
    <line x1="80.00" y1="87.97" x2="720.00" y2="87.97"/>
    <line x1="80.00" y1="84.68" x2="720.00" y2="84.68"/>
    <line x1="80.00" y1="81.40" x2="720.00" y2="81.40"/>
    <line x1="80.00" y1="78.12" x2="720.00" y2="78.12"/>
    <line x1="80.00" y1="74.84" x2="720.00" y2="74.84"/>
    <line x1="80.00" y1="71.56" x2="720.00" y2="71.56"/>
    <line x1="80.00" y1="68.27" x2="720.00" y2="68.27"/>
    <line x1="80.00" y1="64.99" x2="720.00" y2="64.99"/>
    <line x1="80.00" y1="61.71" x2="720.00" y2="61.71"/>
    <line x1="80.00" y1="58.43" x2="720.00" y2="58.43"/>
  </g>
  <g stroke="#e8e8e8" stroke-width="0.5">
    <line x1="80.51" y1="540.00" x2="80.51" y2="60.00"/>
    <line x1="81.39" y1="540.00" x2="81.39" y2="60.00"/>
    <line x1="83.14" y1="540.00" x2="83.14" y2="60.00"/>
    <line x1="84.01" y1="540.00" x2="84.01" y2="60.00"/>
    <line x1="84.89" y1="540.00" x2="84.89" y2="60.00"/>
    <line x1="85.76" y1="540.00" x2="85.76" y2="60.00"/>
    <line x1="87.52" y1="540.00" x2="87.52" y2="60.00"/>
    <line x1="88.39" y1="540.00" x2="88.39" y2="60.00"/>
    <line x1="89.27" y1="540.00" x2="89.27" y2="60.00"/>
    <line x1="90.14" y1="540.00" x2="90.14" y2="60.00"/>
    <line x1="91.89" y1="540.00" x2="91.89" y2="60.00"/>
    <line x1="92.77" y1="540.00" x2="92.77" y2="60.00"/>
    <line x1="93.64" y1="540.00" x2="93.64" y2="60.00"/>
    <line x1="94.52" y1="540.00" x2="94.52" y2="60.00"/>
    <line x1="96.27" y1="540.00" x2="96.27" y2="60.00"/>
    <line x1="97.14" y1="540.00" x2="97.14" y2="60.00"/>
    <line x1="98.02" y1="540.00" x2="98.02" y2="60.00"/>
    <line x1="98.89" y1="540.00" x2="98.89" y2="60.00"/>
    <line x1="100.64" y1="540.00" x2="100.64" y2="60.00"/>
    <line x1="101.52" y1="540.00" x2="101.52" y2="60.00"/>
    <line x1="102.39" y1="540.00" x2="102.39" y2="60.00"/>
    <line x1="103.27" y1="540.00" x2="103.27" y2="60.00"/>
    <line x1="105.02" y1="540.00" x2="105.02" y2="60.00"/>
    <line x1="105.89" y1="540.00" x2="105.89" y2="60.00"/>
    <line x1="106.77" y1="540.00" x2="106.77" y2="60.00"/>
    <line x1="107.65" y1="540.00" x2="107.65" y2="60.00"/>
    <line x1="109.40" y1="540.00" x2="109.40" y2="60.00"/>
    <line x1="110.27" y1="540.00" x2="110.27" y2="60.00"/>
    <line x1="111.15" y1="540.00" x2="111.15" y2="60.00"/>
    <line x1="112.02" y1="540.00" x2="112.02" y2="60.00"/>
    <line x1="113.77" y1="540.00" x2="113.77" y2="60.00"/>
    <line x1="114.65" y1="540.00" x2="114.65" y2="60.00"/>
    <line x1="115.52" y1="540.00" x2="115.52" y2="60.00"/>
    <line x1="116.40" y1="540.00" x2="116.40" y2="60.00"/>
    <line x1="118.15" y1="540.00" x2="118.15" y2="60.00"/>
    <line x1="119.02" y1="540.00" x2="119.02" y2="60.00"/>
    <line x1="119.90" y1="540.00" x2="119.90" y2="60.00"/>
    <line x1="120.77" y1="540.00" x2="120.77" y2="60.00"/>
    <line x1="122.52" y1="540.00" x2="122.52" y2="60.00"/>
    <line x1="123.40" y1="540.00" x2="123.40" y2="60.00"/>
    <line x1="124.27" y1="540.00" x2="124.27" y2="60.00"/>
    <line x1="125.15" y1="540.00" x2="125.15" y2="60.00"/>
    <line x1="126.90" y1="540.00" x2="126.90" y2="60.00"/>
    <line x1="127.78" y1="540.00" x2="127.78" y2="60.00"/>
    <line x1="128.65" y1="540.00" x2="128.65" y2="60.00"/>
    <line x1="129.53" y1="540.00" x2="129.53" y2="60.00"/>
    <line x1="131.28" y1="540.00" x2="131.28" y2="60.00"/>
    <line x1="132.15" y1="540.00" x2="132.15" y2="60.00"/>
    <line x1="133.03" y1="540.00" x2="133.03" y2="60.00"/>
    <line x1="133.90" y1="540.00" x2="133.90" y2="60.00"/>
    <line x1="135.65" y1="540.00" x2="135.65" y2="60.00"/>
    <line x1="136.53" y1="540.00" x2="136.53" y2="60.00"/>
    <line x1="137.40" y1="540.00" x2="137.40" y2="60.00"/>
    <line x1="138.28" y1="540.00" x2="138.28" y2="60.00"/>
    <line x1="140.03" y1="540.00" x2="140.03" y2="60.00"/>
    <line x1="140.90" y1="540.00" x2="140.90" y2="60.00"/>
    <line x1="141.78" y1="540.00" x2="141.78" y2="60.00"/>
    <line x1="142.65" y1="540.00" x2="142.65" y2="60.00"/>
    <line x1="144.40" y1="540.00" x2="144.40" y2="60.00"/>
    <line x1="145.28" y1="540.00" x2="145.28" y2="60.00"/>
    <line x1="146.16" y1="540.00" x2="146.16" y2="60.00"/>
    <line x1="147.03" y1="540.00" x2="147.03" y2="60.00"/>
    <line x1="148.78" y1="540.00" x2="148.78" y2="60.00"/>
    <line x1="149.66" y1="540.00" x2="149.66" y2="60.00"/>
    <line x1="150.53" y1="540.00" x2="150.53" y2="60.00"/>
    <line x1="151.41" y1="540.00" x2="151.41" y2="60.00"/>
    <line x1="153.16" y1="540.00" x2="153.16" y2="60.00"/>
    <line x1="154.03" y1="540.00" x2="154.03" y2="60.00"/>
    <line x1="154.91" y1="540.00" x2="154.91" y2="60.00"/>
    <line x1="155.78" y1="540.00" x2="155.78" y2="60.00"/>
    <line x1="157.53" y1="540.00" x2="157.53" y2="60.00"/>
    <line x1="158.41" y1="540.00" x2="158.41" y2="60.00"/>
    <line x1="159.28" y1="540.00" x2="159.28" y2="60.00"/>
    <line x1="160.16" y1="540.00" x2="160.16" y2="60.00"/>
    <line x1="161.91" y1="540.00" x2="161.91" y2="60.00"/>
    <line x1="162.78" y1="540.00" x2="162.78" y2="60.00"/>
    <line x1="163.66" y1="540.00" x2="163.66" y2="60.00"/>
    <line x1="164.53" y1="540.00" x2="164.53" y2="60.00"/>
    <line x1="166.29" y1="540.00" x2="166.29" y2="60.00"/>
    <line x1="167.16" y1="540.00" x2="167.16" y2="60.00"/>
    <line x1="168.04" y1="540.00" x2="168.04" y2="60.00"/>
    <line x1="168.91" y1="540.00" x2="168.91" y2="60.00"/>
    <line x1="170.66" y1="540.00" x2="170.66" y2="60.00"/>
    <line x1="171.54" y1="540.00" x2="171.54" y2="60.00"/>
    <line x1="172.41" y1="540.00" x2="172.41" y2="60.00"/>
    <line x1="173.29" y1="540.00" x2="173.29" y2="60.00"/>
    <line x1="175.04" y1="540.00" x2="175.04" y2="60.00"/>
    <line x1="175.91" y1="540.00" x2="175.91" y2="60.00"/>
    <line x1="176.79" y1="540.00" x2="176.79" y2="60.00"/>
    <line x1="177.66" y1="540.00" x2="177.66" y2="60.00"/>
    <line x1="179.41" y1="540.00" x2="179.41" y2="60.00"/>
    <line x1="180.29" y1="540.00" x2="180.29" y2="60.00"/>
    <line x1="181.16" y1="540.00" x2="181.16" y2="60.00"/>
    <line x1="182.04" y1="540.00" x2="182.04" y2="60.00"/>
    <line x1="183.79" y1="540.00" x2="183.79" y2="60.00"/>
    <line x1="184.66" y1="540.00" x2="184.66" y2="60.00"/>
    <line x1="185.54" y1="540.00" x2="185.54" y2="60.00"/>
    <line x1="186.42" y1="540.00" x2="186.42" y2="60.00"/>
    <line x1="188.17" y1="540.00" x2="188.17" y2="60.00"/>
    <line x1="189.04" y1="540.00" x2="189.04" y2="60.00"/>
    <line x1="189.92" y1="540.00" x2="189.92" y2="60.00"/>
    <line x1="190.79" y1="540.00" x2="190.79" y2="60.00"/>
    <line x1="192.54" y1="540.00" x2="192.54" y2="60.00"/>
    <line x1="193.42" y1="540.00" x2="193.42" y2="60.00"/>
    <line x1="194.29" y1="540.00" x2="194.29" y2="60.00"/>
    <line x1="195.17" y1="540.00" x2="195.17" y2="60.00"/>
    <line x1="196.92" y1="540.00" x2="196.92" y2="60.00"/>
    <line x1="197.79" y1="540.00" x2="197.79" y2="60.00"/>
    <line x1="198.67" y1="540.00" x2="198.67" y2="60.00"/>
    <line x1="199.54" y1="540.00" x2="199.54" y2="60.00"/>
    <line x1="201.29" y1="540.00" x2="201.29" y2="60.00"/>
    <line x1="202.17" y1="540.00" x2="202.17" y2="60.00"/>
    <line x1="203.04" y1="540.00" x2="203.04" y2="60.00"/>
    <line x1="203.92" y1="540.00" x2="203.92" y2="60.00"/>
    <line x1="205.67" y1="540.00" x2="205.67" y2="60.00"/>
    <line x1="206.55" y1="540.00" x2="206.55" y2="60.00"/>
    <line x1="207.42" y1="540.00" x2="207.42" y2="60.00"/>
    <line x1="208.30" y1="540.00" x2="208.30" y2="60.00"/>
    <line x1="210.05" y1="540.00" x2="210.05" y2="60.00"/>
    <line x1="210.92" y1="540.00" x2="210.92" y2="60.00"/>
    <line x1="211.80" y1="540.00" x2="211.80" y2="60.00"/>
    <line x1="212.67" y1="540.00" x2="212.67" y2="60.00"/>
    <line x1="214.42" y1="540.00" x2="214.42" y2="60.00"/>
    <line x1="215.30" y1="540.00" x2="215.30" y2="60.00"/>
    <line x1="216.17" y1="540.00" x2="216.17" y2="60.00"/>
    <line x1="217.05" y1="540.00" x2="217.05" y2="60.00"/>
    <line x1="218.80" y1="540.00" x2="218.80" y2="60.00"/>
    <line x1="219.67" y1="540.00" x2="219.67" y2="60.00"/>
    <line x1="220.55" y1="540.00" x2="220.55" y2="60.00"/>
    <line x1="221.42" y1="540.00" x2="221.42" y2="60.00"/>
    <line x1="223.17" y1="540.00" x2="223.17" y2="60.00"/>
    <line x1="224.05" y1="540.00" x2="224.05" y2="60.00"/>
    <line x1="224.92" y1="540.00" x2="224.92" y2="60.00"/>
    <line x1="225.80" y1="540.00" x2="225.80" y2="60.00"/>
    <line x1="227.55" y1="540.00" x2="227.55" y2="60.00"/>
    <line x1="228.43" y1="540.00" x2="228.43" y2="60.00"/>
    <line x1="229.30" y1="540.00" x2="229.30" y2="60.00"/>
    <line x1="230.18" y1="540.00" x2="230.18" y2="60.00"/>
    <line x1="231.93" y1="540.00" x2="231.93" y2="60.00"/>
    <line x1="232.80" y1="540.00" x2="232.80" y2="60.00"/>
    <line x1="233.68" y1="540.00" x2="233.68" y2="60.00"/>
    <line x1="234.55" y1="540.00" x2="234.55" y2="60.00"/>
    <line x1="236.30" y1="540.00" x2="236.30" y2="60.00"/>
    <line x1="237.18" y1="540.00" x2="237.18" y2="60.00"/>
    <line x1="238.05" y1="540.00" x2="238.05" y2="60.00"/>
    <line x1="238.93" y1="540.00" x2="238.93" y2="60.00"/>
    <line x1="240.68" y1="540.00" x2="240.68" y2="60.00"/>
    <line x1="241.55" y1="540.00" x2="241.55" y2="60.00"/>
    <line x1="242.43" y1="540.00" x2="242.43" y2="60.00"/>
    <line x1="243.30" y1="540.00" x2="243.30" y2="60.00"/>
    <line x1="245.06" y1="540.00" x2="245.06" y2="60.00"/>
    <line x1="245.93" y1="540.00" x2="245.93" y2="60.00"/>
    <line x1="246.81" y1="540.00" x2="246.81" y2="60.00"/>
    <line x1="247.68" y1="540.00" x2="247.68" y2="60.00"/>
    <line x1="249.43" y1="540.00" x2="249.43" y2="60.00"/>
    <line x1="250.31" y1="540.00" x2="250.31" y2="60.00"/>
    <line x1="251.18" y1="540.00" x2="251.18" y2="60.00"/>
    <line x1="252.06" y1="540.00" x2="252.06" y2="60.00"/>
    <line x1="253.81" y1="540.00" x2="253.81" y2="60.00"/>
    <line x1="254.68" y1="540.00" x2="254.68" y2="60.00"/>
    <line x1="255.56" y1="540.00" x2="255.56" y2="60.00"/>
    <line x1="256.43" y1="540.00" x2="256.43" y2="60.00"/>
    <line x1="258.18" y1="540.00" x2="258.18" y2="60.00"/>
    <line x1="259.06" y1="540.00" x2="259.06" y2="60.00"/>
    <line x1="259.93" y1="540.00" x2="259.93" y2="60.00"/>
    <line x1="260.81" y1="540.00" x2="260.81" y2="60.00"/>
    <line x1="262.56" y1="540.00" x2="262.56" y2="60.00"/>
    <line x1="263.43" y1="540.00" x2="263.43" y2="60.00"/>
    <line x1="264.31" y1="540.00" x2="264.31" y2="60.00"/>
    <line x1="265.19" y1="540.00" x2="265.19" y2="60.00"/>
    <line x1="266.94" y1="540.00" x2="266.94" y2="60.00"/>
    <line x1="267.81" y1="540.00" x2="267.81" y2="60.00"/>
    <line x1="268.69" y1="540.00" x2="268.69" y2="60.00"/>
    <line x1="269.56" y1="540.00" x2="269.56" y2="60.00"/>
    <line x1="271.31" y1="540.00" x2="271.31" y2="60.00"/>
    <line x1="272.19" y1="540.00" x2="272.19" y2="60.00"/>
    <line x1="273.06" y1="540.00" x2="273.06" y2="60.00"/>
    <line x1="273.94" y1="540.00" x2="273.94" y2="60.00"/>
    <line x1="275.69" y1="540.00" x2="275.69" y2="60.00"/>
    <line x1="276.56" y1="540.00" x2="276.56" y2="60.00"/>
    <line x1="277.44" y1="540.00" x2="277.44" y2="60.00"/>
    <line x1="278.31" y1="540.00" x2="278.31" y2="60.00"/>
    <line x1="280.06" y1="540.00" x2="280.06" y2="60.00"/>
    <line x1="280.94" y1="540.00" x2="280.94" y2="60.00"/>
    <line x1="281.81" y1="540.00" x2="281.81" y2="60.00"/>
    <line x1="282.69" y1="540.00" x2="282.69" y2="60.00"/>
    <line x1="284.44" y1="540.00" x2="284.44" y2="60.00"/>
    <line x1="285.32" y1="540.00" x2="285.32" y2="60.00"/>
    <line x1="286.19" y1="540.00" x2="286.19" y2="60.00"/>
    <line x1="287.07" y1="540.00" x2="287.07" y2="60.00"/>
    <line x1="288.82" y1="540.00" x2="288.82" y2="60.00"/>
    <line x1="289.69" y1="540.00" x2="289.69" y2="60.00"/>
    <line x1="290.57" y1="540.00" x2="290.57" y2="60.00"/>
    <line x1="291.44" y1="540.00" x2="291.44" y2="60.00"/>
    <line x1="293.19" y1="540.00" x2="293.19" y2="60.00"/>
    <line x1="294.07" y1="540.00" x2="294.07" y2="60.00"/>
    <line x1="294.94" y1="540.00" x2="294.94" y2="60.00"/>
    <line x1="295.82" y1="540.00" x2="295.82" y2="60.00"/>
    <line x1="297.57" y1="540.00" x2="297.57" y2="60.00"/>
    <line x1="298.44" y1="540.00" x2="298.44" y2="60.00"/>
    <line x1="299.32" y1="540.00" x2="299.32" y2="60.00"/>
    <line x1="300.19" y1="540.00" x2="300.19" y2="60.00"/>
    <line x1="301.94" y1="540.00" x2="301.94" y2="60.00"/>
    <line x1="302.82" y1="540.00" x2="302.82" y2="60.00"/>
    <line x1="303.69" y1="540.00" x2="303.69" y2="60.00"/>
    <line x1="304.57" y1="540.00" x2="304.57" y2="60.00"/>
    <line x1="306.32" y1="540.00" x2="306.32" y2="60.00"/>
    <line x1="307.20" y1="540.00" x2="307.20" y2="60.00"/>
    <line x1="308.07" y1="540.00" x2="308.07" y2="60.00"/>
    <line x1="308.95" y1="540.00" x2="308.95" y2="60.00"/>
    <line x1="310.70" y1="540.00" x2="310.70" y2="60.00"/>
    <line x1="311.57" y1="540.00" x2="311.57" y2="60.00"/>
    <line x1="312.45" y1="540.00" x2="312.45" y2="60.00"/>
    <line x1="313.32" y1="540.00" x2="313.32" y2="60.00"/>
    <line x1="315.07" y1="540.00" x2="315.07" y2="60.00"/>
    <line x1="315.95" y1="540.00" x2="315.95" y2="60.00"/>
    <line x1="316.82" y1="540.00" x2="316.82" y2="60.00"/>
    <line x1="317.70" y1="540.00" x2="317.70" y2="60.00"/>
    <line x1="319.45" y1="540.00" x2="319.45" y2="60.00"/>
    <line x1="320.32" y1="540.00" x2="320.32" y2="60.00"/>
    <line x1="321.20" y1="540.00" x2="321.20" y2="60.00"/>
    <line x1="322.07" y1="540.00" x2="322.07" y2="60.00"/>
    <line x1="323.83" y1="540.00" x2="323.83" y2="60.00"/>
    <line x1="324.70" y1="540.00" x2="324.70" y2="60.00"/>
    <line x1="325.58" y1="540.00" x2="325.58" y2="60.00"/>
    <line x1="326.45" y1="540.00" x2="326.45" y2="60.00"/>
    <line x1="328.20" y1="540.00" x2="328.20" y2="60.00"/>
    <line x1="329.08" y1="540.00" x2="329.08" y2="60.00"/>
    <line x1="329.95" y1="540.00" x2="329.95" y2="60.00"/>
    <line x1="330.83" y1="540.00" x2="330.83" y2="60.00"/>
    <line x1="332.58" y1="540.00" x2="332.58" y2="60.00"/>
    <line x1="333.45" y1="540.00" x2="333.45" y2="60.00"/>
    <line x1="334.33" y1="540.00" x2="334.33" y2="60.00"/>
    <line x1="335.20" y1="540.00" x2="335.20" y2="60.00"/>
    <line x1="336.95" y1="540.00" x2="336.95" y2="60.00"/>
    <line x1="337.83" y1="540.00" x2="337.83" y2="60.00"/>
    <line x1="338.70" y1="540.00" x2="338.70" y2="60.00"/>
    <line x1="339.58" y1="540.00" x2="339.58" y2="60.00"/>
    <line x1="341.33" y1="540.00" x2="341.33" y2="60.00"/>
    <line x1="342.20" y1="540.00" x2="342.20" y2="60.00"/>
    <line x1="343.08" y1="540.00" x2="343.08" y2="60.00"/>
    <line x1="343.96" y1="540.00" x2="343.96" y2="60.00"/>
    <line x1="345.71" y1="540.00" x2="345.71" y2="60.00"/>
    <line x1="346.58" y1="540.00" x2="346.58" y2="60.00"/>
    <line x1="347.46" y1="540.00" x2="347.46" y2="60.00"/>
    <line x1="348.33" y1="540.00" x2="348.33" y2="60.00"/>
    <line x1="350.08" y1="540.00" x2="350.08" y2="60.00"/>
    <line x1="350.96" y1="540.00" x2="350.96" y2="60.00"/>
    <line x1="351.83" y1="540.00" x2="351.83" y2="60.00"/>
    <line x1="352.71" y1="540.00" x2="352.71" y2="60.00"/>
    <line x1="354.46" y1="540.00" x2="354.46" y2="60.00"/>
    <line x1="355.33" y1="540.00" x2="355.33" y2="60.00"/>
    <line x1="356.21" y1="540.00" x2="356.21" y2="60.00"/>
    <line x1="357.08" y1="540.00" x2="357.08" y2="60.00"/>
    <line x1="358.83" y1="540.00" x2="358.83" y2="60.00"/>
    <line x1="359.71" y1="540.00" x2="359.71" y2="60.00"/>
    <line x1="360.58" y1="540.00" x2="360.58" y2="60.00"/>
    <line x1="361.46" y1="540.00" x2="361.46" y2="60.00"/>
    <line x1="363.21" y1="540.00" x2="363.21" y2="60.00"/>
    <line x1="364.09" y1="540.00" x2="364.09" y2="60.00"/>
    <line x1="364.96" y1="540.00" x2="364.96" y2="60.00"/>
    <line x1="365.84" y1="540.00" x2="365.84" y2="60.00"/>
    <line x1="367.59" y1="540.00" x2="367.59" y2="60.00"/>
    <line x1="368.46" y1="540.00" x2="368.46" y2="60.00"/>
    <line x1="369.34" y1="540.00" x2="369.34" y2="60.00"/>
    <line x1="370.21" y1="540.00" x2="370.21" y2="60.00"/>
    <line x1="371.96" y1="540.00" x2="371.96" y2="60.00"/>
    <line x1="372.84" y1="540.00" x2="372.84" y2="60.00"/>
    <line x1="373.71" y1="540.00" x2="373.71" y2="60.00"/>
    <line x1="374.59" y1="540.00" x2="374.59" y2="60.00"/>
    <line x1="376.34" y1="540.00" x2="376.34" y2="60.00"/>
    <line x1="377.21" y1="540.00" x2="377.21" y2="60.00"/>
    <line x1="378.09" y1="540.00" x2="378.09" y2="60.00"/>
    <line x1="378.96" y1="540.00" x2="378.96" y2="60.00"/>
    <line x1="380.71" y1="540.00" x2="380.71" y2="60.00"/>
    <line x1="381.59" y1="540.00" x2="381.59" y2="60.00"/>
    <line x1="382.46" y1="540.00" x2="382.46" y2="60.00"/>
    <line x1="383.34" y1="540.00" x2="383.34" y2="60.00"/>
    <line x1="385.09" y1="540.00" x2="385.09" y2="60.00"/>
    <line x1="385.97" y1="540.00" x2="385.97" y2="60.00"/>
    <line x1="386.84" y1="540.00" x2="386.84" y2="60.00"/>
    <line x1="387.72" y1="540.00" x2="387.72" y2="60.00"/>
    <line x1="389.47" y1="540.00" x2="389.47" y2="60.00"/>
    <line x1="390.34" y1="540.00" x2="390.34" y2="60.00"/>
    <line x1="391.22" y1="540.00" x2="391.22" y2="60.00"/>
    <line x1="392.09" y1="540.00" x2="392.09" y2="60.00"/>
    <line x1="393.84" y1="540.00" x2="393.84" y2="60.00"/>
    <line x1="394.72" y1="540.00" x2="394.72" y2="60.00"/>
    <line x1="395.59" y1="540.00" x2="395.59" y2="60.00"/>
    <line x1="396.47" y1="540.00" x2="396.47" y2="60.00"/>
    <line x1="398.22" y1="540.00" x2="398.22" y2="60.00"/>
    <line x1="399.09" y1="540.00" x2="399.09" y2="60.00"/>
    <line x1="399.97" y1="540.00" x2="399.97" y2="60.00"/>
    <line x1="400.84" y1="540.00" x2="400.84" y2="60.00"/>
    <line x1="402.60" y1="540.00" x2="402.60" y2="60.00"/>
    <line x1="403.47" y1="540.00" x2="403.47" y2="60.00"/>
    <line x1="404.35" y1="540.00" x2="404.35" y2="60.00"/>
    <line x1="405.22" y1="540.00" x2="405.22" y2="60.00"/>
    <line x1="406.97" y1="540.00" x2="406.97" y2="60.00"/>
    <line x1="407.85" y1="540.00" x2="407.85" y2="60.00"/>
    <line x1="408.72" y1="540.00" x2="408.72" y2="60.00"/>
    <line x1="409.60" y1="540.00" x2="409.60" y2="60.00"/>
    <line x1="411.35" y1="540.00" x2="411.35" y2="60.00"/>
    <line x1="412.22" y1="540.00" x2="412.22" y2="60.00"/>
    <line x1="413.10" y1="540.00" x2="413.10" y2="60.00"/>
    <line x1="413.97" y1="540.00" x2="413.97" y2="60.00"/>
    <line x1="415.72" y1="540.00" x2="415.72" y2="60.00"/>
    <line x1="416.60" y1="540.00" x2="416.60" y2="60.00"/>
    <line x1="417.47" y1="540.00" x2="417.47" y2="60.00"/>
    <line x1="418.35" y1="540.00" x2="418.35" y2="60.00"/>
    <line x1="420.10" y1="540.00" x2="420.10" y2="60.00"/>
    <line x1="420.97" y1="540.00" x2="420.97" y2="60.00"/>
    <line x1="421.85" y1="540.00" x2="421.85" y2="60.00"/>
    <line x1="422.73" y1="540.00" x2="422.73" y2="60.00"/>
    <line x1="424.48" y1="540.00" x2="424.48" y2="60.00"/>
    <line x1="425.35" y1="540.00" x2="425.35" y2="60.00"/>
    <line x1="426.23" y1="540.00" x2="426.23" y2="60.00"/>
    <line x1="427.10" y1="540.00" x2="427.10" y2="60.00"/>
    <line x1="428.85" y1="540.00" x2="428.85" y2="60.00"/>
    <line x1="429.73" y1="540.00" x2="429.73" y2="60.00"/>
    <line x1="430.60" y1="540.00" x2="430.60" y2="60.00"/>
    <line x1="431.48" y1="540.00" x2="431.48" y2="60.00"/>
    <line x1="433.23" y1="540.00" x2="433.23" y2="60.00"/>
    <line x1="434.10" y1="540.00" x2="434.10" y2="60.00"/>
    <line x1="434.98" y1="540.00" x2="434.98" y2="60.00"/>
    <line x1="435.85" y1="540.00" x2="435.85" y2="60.00"/>
    <line x1="437.60" y1="540.00" x2="437.60" y2="60.00"/>
    <line x1="438.48" y1="540.00" x2="438.48" y2="60.00"/>
    <line x1="439.35" y1="540.00" x2="439.35" y2="60.00"/>
    <line x1="440.23" y1="540.00" x2="440.23" y2="60.00"/>
    <line x1="441.98" y1="540.00" x2="441.98" y2="60.00"/>
    <line x1="442.86" y1="540.00" x2="442.86" y2="60.00"/>
    <line x1="443.73" y1="540.00" x2="443.73" y2="60.00"/>
    <line x1="444.61" y1="540.00" x2="444.61" y2="60.00"/>
    <line x1="446.36" y1="540.00" x2="446.36" y2="60.00"/>
    <line x1="447.23" y1="540.00" x2="447.23" y2="60.00"/>
    <line x1="448.11" y1="540.00" x2="448.11" y2="60.00"/>
    <line x1="448.98" y1="540.00" x2="448.98" y2="60.00"/>
    <line x1="450.73" y1="540.00" x2="450.73" y2="60.00"/>
    <line x1="451.61" y1="540.00" x2="451.61" y2="60.00"/>
    <line x1="452.48" y1="540.00" x2="452.48" y2="60.00"/>
    <line x1="453.36" y1="540.00" x2="453.36" y2="60.00"/>
    <line x1="455.11" y1="540.00" x2="455.11" y2="60.00"/>
    <line x1="455.98" y1="540.00" x2="455.98" y2="60.00"/>
    <line x1="456.86" y1="540.00" x2="456.86" y2="60.00"/>
    <line x1="457.73" y1="540.00" x2="457.73" y2="60.00"/>
    <line x1="459.48" y1="540.00" x2="459.48" y2="60.00"/>
    <line x1="460.36" y1="540.00" x2="460.36" y2="60.00"/>
    <line x1="461.23" y1="540.00" x2="461.23" y2="60.00"/>
    <line x1="462.11" y1="540.00" x2="462.11" y2="60.00"/>
    <line x1="463.86" y1="540.00" x2="463.86" y2="60.00"/>
    <line x1="464.74" y1="540.00" x2="464.74" y2="60.00"/>
    <line x1="465.61" y1="540.00" x2="465.61" y2="60.00"/>
    <line x1="466.49" y1="540.00" x2="466.49" y2="60.00"/>
    <line x1="468.24" y1="540.00" x2="468.24" y2="60.00"/>
    <line x1="469.11" y1="540.00" x2="469.11" y2="60.00"/>
    <line x1="469.99" y1="540.00" x2="469.99" y2="60.00"/>
    <line x1="470.86" y1="540.00" x2="470.86" y2="60.00"/>
    <line x1="472.61" y1="540.00" x2="472.61" y2="60.00"/>
    <line x1="473.49" y1="540.00" x2="473.49" y2="60.00"/>
    <line x1="474.36" y1="540.00" x2="474.36" y2="60.00"/>
    <line x1="475.24" y1="540.00" x2="475.24" y2="60.00"/>
    <line x1="476.99" y1="540.00" x2="476.99" y2="60.00"/>
    <line x1="477.86" y1="540.00" x2="477.86" y2="60.00"/>
    <line x1="478.74" y1="540.00" x2="478.74" y2="60.00"/>
    <line x1="479.61" y1="540.00" x2="479.61" y2="60.00"/>
    <line x1="481.36" y1="540.00" x2="481.36" y2="60.00"/>
    <line x1="482.24" y1="540.00" x2="482.24" y2="60.00"/>
    <line x1="483.12" y1="540.00" x2="483.12" y2="60.00"/>
    <line x1="483.99" y1="540.00" x2="483.99" y2="60.00"/>
    <line x1="485.74" y1="540.00" x2="485.74" y2="60.00"/>
    <line x1="486.62" y1="540.00" x2="486.62" y2="60.00"/>
    <line x1="487.49" y1="540.00" x2="487.49" y2="60.00"/>
    <line x1="488.37" y1="540.00" x2="488.37" y2="60.00"/>
    <line x1="490.12" y1="540.00" x2="490.12" y2="60.00"/>
    <line x1="490.99" y1="540.00" x2="490.99" y2="60.00"/>
    <line x1="491.87" y1="540.00" x2="491.87" y2="60.00"/>
    <line x1="492.74" y1="540.00" x2="492.74" y2="60.00"/>
    <line x1="494.49" y1="540.00" x2="494.49" y2="60.00"/>
    <line x1="495.37" y1="540.00" x2="495.37" y2="60.00"/>
    <line x1="496.24" y1="540.00" x2="496.24" y2="60.00"/>
    <line x1="497.12" y1="540.00" x2="497.12" y2="60.00"/>
    <line x1="498.87" y1="540.00" x2="498.87" y2="60.00"/>
    <line x1="499.74" y1="540.00" x2="499.74" y2="60.00"/>
    <line x1="500.62" y1="540.00" x2="500.62" y2="60.00"/>
    <line x1="501.50" y1="540.00" x2="501.50" y2="60.00"/>
    <line x1="503.25" y1="540.00" x2="503.25" y2="60.00"/>
    <line x1="504.12" y1="540.00" x2="504.12" y2="60.00"/>
    <line x1="505.00" y1="540.00" x2="505.00" y2="60.00"/>
    <line x1="505.87" y1="540.00" x2="505.87" y2="60.00"/>
    <line x1="507.62" y1="540.00" x2="507.62" y2="60.00"/>
    <line x1="508.50" y1="540.00" x2="508.50" y2="60.00"/>
    <line x1="509.37" y1="540.00" x2="509.37" y2="60.00"/>
    <line x1="510.25" y1="540.00" x2="510.25" y2="60.00"/>
    <line x1="512.00" y1="540.00" x2="512.00" y2="60.00"/>
    <line x1="512.87" y1="540.00" x2="512.87" y2="60.00"/>
    <line x1="513.75" y1="540.00" x2="513.75" y2="60.00"/>
    <line x1="514.62" y1="540.00" x2="514.62" y2="60.00"/>
    <line x1="516.37" y1="540.00" x2="516.37" y2="60.00"/>
    <line x1="517.25" y1="540.00" x2="517.25" y2="60.00"/>
    <line x1="518.12" y1="540.00" x2="518.12" y2="60.00"/>
    <line x1="519.00" y1="540.00" x2="519.00" y2="60.00"/>
    <line x1="520.75" y1="540.00" x2="520.75" y2="60.00"/>
    <line x1="521.63" y1="540.00" x2="521.63" y2="60.00"/>
    <line x1="522.50" y1="540.00" x2="522.50" y2="60.00"/>
    <line x1="523.38" y1="540.00" x2="523.38" y2="60.00"/>
    <line x1="525.13" y1="540.00" x2="525.13" y2="60.00"/>
    <line x1="526.00" y1="540.00" x2="526.00" y2="60.00"/>
    <line x1="526.88" y1="540.00" x2="526.88" y2="60.00"/>
    <line x1="527.75" y1="540.00" x2="527.75" y2="60.00"/>
    <line x1="529.50" y1="540.00" x2="529.50" y2="60.00"/>
    <line x1="530.38" y1="540.00" x2="530.38" y2="60.00"/>
    <line x1="531.25" y1="540.00" x2="531.25" y2="60.00"/>
    <line x1="532.13" y1="540.00" x2="532.13" y2="60.00"/>
    <line x1="533.88" y1="540.00" x2="533.88" y2="60.00"/>
    <line x1="534.75" y1="540.00" x2="534.75" y2="60.00"/>
    <line x1="535.63" y1="540.00" x2="535.63" y2="60.00"/>
    <line x1="536.50" y1="540.00" x2="536.50" y2="60.00"/>
    <line x1="538.25" y1="540.00" x2="538.25" y2="60.00"/>
    <line x1="539.13" y1="540.00" x2="539.13" y2="60.00"/>
    <line x1="540.00" y1="540.00" x2="540.00" y2="60.00"/>
    <line x1="540.88" y1="540.00" x2="540.88" y2="60.00"/>
    <line x1="542.63" y1="540.00" x2="542.63" y2="60.00"/>
    <line x1="543.51" y1="540.00" x2="543.51" y2="60.00"/>
    <line x1="544.38" y1="540.00" x2="544.38" y2="60.00"/>
    <line x1="545.26" y1="540.00" x2="545.26" y2="60.00"/>
    <line x1="547.01" y1="540.00" x2="547.01" y2="60.00"/>
    <line x1="547.88" y1="540.00" x2="547.88" y2="60.00"/>
    <line x1="548.76" y1="540.00" x2="548.76" y2="60.00"/>
    <line x1="549.63" y1="540.00" x2="549.63" y2="60.00"/>
    <line x1="551.38" y1="540.00" x2="551.38" y2="60.00"/>
    <line x1="552.26" y1="540.00" x2="552.26" y2="60.00"/>
    <line x1="553.13" y1="540.00" x2="553.13" y2="60.00"/>
    <line x1="554.01" y1="540.00" x2="554.01" y2="60.00"/>
    <line x1="555.76" y1="540.00" x2="555.76" y2="60.00"/>
    <line x1="556.63" y1="540.00" x2="556.63" y2="60.00"/>
    <line x1="557.51" y1="540.00" x2="557.51" y2="60.00"/>
    <line x1="558.38" y1="540.00" x2="558.38" y2="60.00"/>
    <line x1="560.13" y1="540.00" x2="560.13" y2="60.00"/>
    <line x1="561.01" y1="540.00" x2="561.01" y2="60.00"/>
    <line x1="561.89" y1="540.00" x2="561.89" y2="60.00"/>
    <line x1="562.76" y1="540.00" x2="562.76" y2="60.00"/>
    <line x1="564.51" y1="540.00" x2="564.51" y2="60.00"/>
    <line x1="565.39" y1="540.00" x2="565.39" y2="60.00"/>
    <line x1="566.26" y1="540.00" x2="566.26" y2="60.00"/>
    <line x1="567.14" y1="540.00" x2="567.14" y2="60.00"/>
    <line x1="568.89" y1="540.00" x2="568.89" y2="60.00"/>
    <line x1="569.76" y1="540.00" x2="569.76" y2="60.00"/>
    <line x1="570.64" y1="540.00" x2="570.64" y2="60.00"/>
    <line x1="571.51" y1="540.00" x2="571.51" y2="60.00"/>
    <line x1="573.26" y1="540.00" x2="573.26" y2="60.00"/>
    <line x1="574.14" y1="540.00" x2="574.14" y2="60.00"/>
    <line x1="575.01" y1="540.00" x2="575.01" y2="60.00"/>
    <line x1="575.89" y1="540.00" x2="575.89" y2="60.00"/>
    <line x1="577.64" y1="540.00" x2="577.64" y2="60.00"/>
    <line x1="578.51" y1="540.00" x2="578.51" y2="60.00"/>
    <line x1="579.39" y1="540.00" x2="579.39" y2="60.00"/>
    <line x1="580.27" y1="540.00" x2="580.27" y2="60.00"/>
    <line x1="582.02" y1="540.00" x2="582.02" y2="60.00"/>
    <line x1="582.89" y1="540.00" x2="582.89" y2="60.00"/>
    <line x1="583.77" y1="540.00" x2="583.77" y2="60.00"/>
    <line x1="584.64" y1="540.00" x2="584.64" y2="60.00"/>
    <line x1="586.39" y1="540.00" x2="586.39" y2="60.00"/>
    <line x1="587.27" y1="540.00" x2="587.27" y2="60.00"/>
    <line x1="588.14" y1="540.00" x2="588.14" y2="60.00"/>
    <line x1="589.02" y1="540.00" x2="589.02" y2="60.00"/>
    <line x1="590.77" y1="540.00" x2="590.77" y2="60.00"/>
    <line x1="591.64" y1="540.00" x2="591.64" y2="60.00"/>
    <line x1="592.52" y1="540.00" x2="592.52" y2="60.00"/>
    <line x1="593.39" y1="540.00" x2="593.39" y2="60.00"/>
    <line x1="595.14" y1="540.00" x2="595.14" y2="60.00"/>
    <line x1="596.02" y1="540.00" x2="596.02" y2="60.00"/>
    <line x1="596.89" y1="540.00" x2="596.89" y2="60.00"/>
    <line x1="597.77" y1="540.00" x2="597.77" y2="60.00"/>
    <line x1="599.52" y1="540.00" x2="599.52" y2="60.00"/>
    <line x1="600.40" y1="540.00" x2="600.40" y2="60.00"/>
    <line x1="601.27" y1="540.00" x2="601.27" y2="60.00"/>
    <line x1="602.15" y1="540.00" x2="602.15" y2="60.00"/>
    <line x1="603.90" y1="540.00" x2="603.90" y2="60.00"/>
    <line x1="604.77" y1="540.00" x2="604.77" y2="60.00"/>
    <line x1="605.65" y1="540.00" x2="605.65" y2="60.00"/>
    <line x1="606.52" y1="540.00" x2="606.52" y2="60.00"/>
    <line x1="608.27" y1="540.00" x2="608.27" y2="60.00"/>
    <line x1="609.15" y1="540.00" x2="609.15" y2="60.00"/>
    <line x1="610.02" y1="540.00" x2="610.02" y2="60.00"/>
    <line x1="610.90" y1="540.00" x2="610.90" y2="60.00"/>
    <line x1="612.65" y1="540.00" x2="612.65" y2="60.00"/>
    <line x1="613.52" y1="540.00" x2="613.52" y2="60.00"/>
    <line x1="614.40" y1="540.00" x2="614.40" y2="60.00"/>
    <line x1="615.27" y1="540.00" x2="615.27" y2="60.00"/>
    <line x1="617.02" y1="540.00" x2="617.02" y2="60.00"/>
    <line x1="617.90" y1="540.00" x2="617.90" y2="60.00"/>
    <line x1="618.77" y1="540.00" x2="618.77" y2="60.00"/>
    <line x1="619.65" y1="540.00" x2="619.65" y2="60.00"/>
    <line x1="621.40" y1="540.00" x2="621.40" y2="60.00"/>
    <line x1="622.28" y1="540.00" x2="622.28" y2="60.00"/>
    <line x1="623.15" y1="540.00" x2="623.15" y2="60.00"/>
    <line x1="624.03" y1="540.00" x2="624.03" y2="60.00"/>
    <line x1="625.78" y1="540.00" x2="625.78" y2="60.00"/>
    <line x1="626.65" y1="540.00" x2="626.65" y2="60.00"/>
    <line x1="627.53" y1="540.00" x2="627.53" y2="60.00"/>
    <line x1="628.40" y1="540.00" x2="628.40" y2="60.00"/>
    <line x1="630.15" y1="540.00" x2="630.15" y2="60.00"/>
    <line x1="631.03" y1="540.00" x2="631.03" y2="60.00"/>
    <line x1="631.90" y1="540.00" x2="631.90" y2="60.00"/>
    <line x1="632.78" y1="540.00" x2="632.78" y2="60.00"/>
    <line x1="634.53" y1="540.00" x2="634.53" y2="60.00"/>
    <line x1="635.40" y1="540.00" x2="635.40" y2="60.00"/>
    <line x1="636.28" y1="540.00" x2="636.28" y2="60.00"/>
    <line x1="637.15" y1="540.00" x2="637.15" y2="60.00"/>
    <line x1="638.90" y1="540.00" x2="638.90" y2="60.00"/>
    <line x1="639.78" y1="540.00" x2="639.78" y2="60.00"/>
    <line x1="640.66" y1="540.00" x2="640.66" y2="60.00"/>
    <line x1="641.53" y1="540.00" x2="641.53" y2="60.00"/>
    <line x1="643.28" y1="540.00" x2="643.28" y2="60.00"/>
    <line x1="644.16" y1="540.00" x2="644.16" y2="60.00"/>
    <line x1="645.03" y1="540.00" x2="645.03" y2="60.00"/>
    <line x1="645.91" y1="540.00" x2="645.91" y2="60.00"/>
    <line x1="647.66" y1="540.00" x2="647.66" y2="60.00"/>
    <line x1="648.53" y1="540.00" x2="648.53" y2="60.00"/>
    <line x1="649.41" y1="540.00" x2="649.41" y2="60.00"/>
    <line x1="650.28" y1="540.00" x2="650.28" y2="60.00"/>
    <line x1="652.03" y1="540.00" x2="652.03" y2="60.00"/>
    <line x1="652.91" y1="540.00" x2="652.91" y2="60.00"/>
    <line x1="653.78" y1="540.00" x2="653.78" y2="60.00"/>
    <line x1="654.66" y1="540.00" x2="654.66" y2="60.00"/>
    <line x1="656.41" y1="540.00" x2="656.41" y2="60.00"/>
    <line x1="657.28" y1="540.00" x2="657.28" y2="60.00"/>
    <line x1="658.16" y1="540.00" x2="658.16" y2="60.00"/>
    <line x1="659.04" y1="540.00" x2="659.04" y2="60.00"/>
    <line x1="660.79" y1="540.00" x2="660.79" y2="60.00"/>
    <line x1="661.66" y1="540.00" x2="661.66" y2="60.00"/>
    <line x1="662.54" y1="540.00" x2="662.54" y2="60.00"/>
    <line x1="663.41" y1="540.00" x2="663.41" y2="60.00"/>
    <line x1="665.16" y1="540.00" x2="665.16" y2="60.00"/>
    <line x1="666.04" y1="540.00" x2="666.04" y2="60.00"/>
    <line x1="666.91" y1="540.00" x2="666.91" y2="60.00"/>
    <line x1="667.79" y1="540.00" x2="667.79" y2="60.00"/>
    <line x1="669.54" y1="540.00" x2="669.54" y2="60.00"/>
    <line x1="670.41" y1="540.00" x2="670.41" y2="60.00"/>
    <line x1="671.29" y1="540.00" x2="671.29" y2="60.00"/>
    <line x1="672.16" y1="540.00" x2="672.16" y2="60.00"/>
    <line x1="673.91" y1="540.00" x2="673.91" y2="60.00"/>
    <line x1="674.79" y1="540.00" x2="674.79" y2="60.00"/>
    <line x1="675.66" y1="540.00" x2="675.66" y2="60.00"/>
    <line x1="676.54" y1="540.00" x2="676.54" y2="60.00"/>
    <line x1="678.29" y1="540.00" x2="678.29" y2="60.00"/>
    <line x1="679.17" y1="540.00" x2="679.17" y2="60.00"/>
    <line x1="680.04" y1="540.00" x2="680.04" y2="60.00"/>
    <line x1="680.92" y1="540.00" x2="680.92" y2="60.00"/>
    <line x1="682.67" y1="540.00" x2="682.67" y2="60.00"/>
    <line x1="683.54" y1="540.00" x2="683.54" y2="60.00"/>
    <line x1="684.42" y1="540.00" x2="684.42" y2="60.00"/>
    <line x1="685.29" y1="540.00" x2="685.29" y2="60.00"/>
    <line x1="687.04" y1="540.00" x2="687.04" y2="60.00"/>
    <line x1="687.92" y1="540.00" x2="687.92" y2="60.00"/>
    <line x1="688.79" y1="540.00" x2="688.79" y2="60.00"/>
    <line x1="689.67" y1="540.00" x2="689.67" y2="60.00"/>
    <line x1="691.42" y1="540.00" x2="691.42" y2="60.00"/>
    <line x1="692.29" y1="540.00" x2="692.29" y2="60.00"/>
    <line x1="693.17" y1="540.00" x2="693.17" y2="60.00"/>
    <line x1="694.04" y1="540.00" x2="694.04" y2="60.00"/>
    <line x1="695.79" y1="540.00" x2="695.79" y2="60.00"/>
    <line x1="696.67" y1="540.00" x2="696.67" y2="60.00"/>
    <line x1="697.54" y1="540.00" x2="697.54" y2="60.00"/>
    <line x1="698.42" y1="540.00" x2="698.42" y2="60.00"/>
    <line x1="700.17" y1="540.00" x2="700.17" y2="60.00"/>
    <line x1="701.05" y1="540.00" x2="701.05" y2="60.00"/>
    <line x1="701.92" y1="540.00" x2="701.92" y2="60.00"/>
    <line x1="702.80" y1="540.00" x2="702.80" y2="60.00"/>
    <line x1="704.55" y1="540.00" x2="704.55" y2="60.00"/>
    <line x1="705.42" y1="540.00" x2="705.42" y2="60.00"/>
    <line x1="706.30" y1="540.00" x2="706.30" y2="60.00"/>
    <line x1="707.17" y1="540.00" x2="707.17" y2="60.00"/>
    <line x1="708.92" y1="540.00" x2="708.92" y2="60.00"/>
    <line x1="709.80" y1="540.00" x2="709.80" y2="60.00"/>
    <line x1="710.67" y1="540.00" x2="710.67" y2="60.00"/>
    <line x1="711.55" y1="540.00" x2="711.55" y2="60.00"/>
    <line x1="713.30" y1="540.00" x2="713.30" y2="60.00"/>
    <line x1="714.17" y1="540.00" x2="714.17" y2="60.00"/>
    <line x1="715.05" y1="540.00" x2="715.05" y2="60.00"/>
    <line x1="715.92" y1="540.00" x2="715.92" y2="60.00"/>
    <line x1="717.67" y1="540.00" x2="717.67" y2="60.00"/>
    <line x1="718.55" y1="540.00" x2="718.55" y2="60.00"/>
    <line x1="719.43" y1="540.00" x2="719.43" y2="60.00"/>
    <line x1="80.00" y1="539.57" x2="720.00" y2="539.57"/>
    <line x1="80.00" y1="538.91" x2="720.00" y2="538.91"/>
    <line x1="80.00" y1="538.26" x2="720.00" y2="538.26"/>
    <line x1="80.00" y1="536.94" x2="720.00" y2="536.94"/>
    <line x1="80.00" y1="536.29" x2="720.00" y2="536.29"/>
    <line x1="80.00" y1="535.63" x2="720.00" y2="535.63"/>
    <line x1="80.00" y1="534.97" x2="720.00" y2="534.97"/>
    <line x1="80.00" y1="533.66" x2="720.00" y2="533.66"/>
    <line x1="80.00" y1="533.01" x2="720.00" y2="533.01"/>
    <line x1="80.00" y1="532.35" x2="720.00" y2="532.35"/>
    <line x1="80.00" y1="531.69" x2="720.00" y2="531.69"/>
    <line x1="80.00" y1="530.38" x2="720.00" y2="530.38"/>
    <line x1="80.00" y1="529.72" x2="720.00" y2="529.72"/>
    <line x1="80.00" y1="529.07" x2="720.00" y2="529.07"/>
    <line x1="80.00" y1="528.41" x2="720.00" y2="528.41"/>
    <line x1="80.00" y1="527.10" x2="720.00" y2="527.10"/>
    <line x1="80.00" y1="526.44" x2="720.00" y2="526.44"/>
    <line x1="80.00" y1="525.79" x2="720.00" y2="525.79"/>
    <line x1="80.00" y1="525.13" x2="720.00" y2="525.13"/>
    <line x1="80.00" y1="523.82" x2="720.00" y2="523.82"/>
    <line x1="80.00" y1="523.16" x2="720.00" y2="523.16"/>
    <line x1="80.00" y1="522.50" x2="720.00" y2="522.50"/>
    <line x1="80.00" y1="521.85" x2="720.00" y2="521.85"/>
    <line x1="80.00" y1="520.53" x2="720.00" y2="520.53"/>
    <line x1="80.00" y1="519.88" x2="720.00" y2="519.88"/>
    <line x1="80.00" y1="519.22" x2="720.00" y2="519.22"/>
    <line x1="80.00" y1="518.56" x2="720.00" y2="518.56"/>
    <line x1="80.00" y1="517.25" x2="720.00" y2="517.25"/>
    <line x1="80.00" y1="516.60" x2="720.00" y2="516.60"/>
    <line x1="80.00" y1="515.94" x2="720.00" y2="515.94"/>
    <line x1="80.00" y1="515.28" x2="720.00" y2="515.28"/>
    <line x1="80.00" y1="513.97" x2="720.00" y2="513.97"/>
    <line x1="80.00" y1="513.31" x2="720.00" y2="513.31"/>
    <line x1="80.00" y1="512.66" x2="720.00" y2="512.66"/>
    <line x1="80.00" y1="512.00" x2="720.00" y2="512.00"/>
    <line x1="80.00" y1="510.69" x2="720.00" y2="510.69"/>
    <line x1="80.00" y1="510.03" x2="720.00" y2="510.03"/>
    <line x1="80.00" y1="509.38" x2="720.00" y2="509.38"/>
    <line x1="80.00" y1="508.72" x2="720.00" y2="508.72"/>
    <line x1="80.00" y1="507.41" x2="720.00" y2="507.41"/>
    <line x1="80.00" y1="506.75" x2="720.00" y2="506.75"/>
    <line x1="80.00" y1="506.09" x2="720.00" y2="506.09"/>
    <line x1="80.00" y1="505.44" x2="720.00" y2="505.44"/>
    <line x1="80.00" y1="504.12" x2="720.00" y2="504.12"/>
    <line x1="80.00" y1="503.47" x2="720.00" y2="503.47"/>
    <line x1="80.00" y1="502.81" x2="720.00" y2="502.81"/>
    <line x1="80.00" y1="502.15" x2="720.00" y2="502.15"/>
    <line x1="80.00" y1="500.84" x2="720.00" y2="500.84"/>
    <line x1="80.00" y1="500.19" x2="720.00" y2="500.19"/>
    <line x1="80.00" y1="499.53" x2="720.00" y2="499.53"/>
    <line x1="80.00" y1="498.87" x2="720.00" y2="498.87"/>
    <line x1="80.00" y1="497.56" x2="720.00" y2="497.56"/>
    <line x1="80.00" y1="496.90" x2="720.00" y2="496.90"/>
    <line x1="80.00" y1="496.25" x2="720.00" y2="496.25"/>
    <line x1="80.00" y1="495.59" x2="720.00" y2="495.59"/>
    <line x1="80.00" y1="494.28" x2="720.00" y2="494.28"/>
    <line x1="80.00" y1="493.62" x2="720.00" y2="493.62"/>
    <line x1="80.00" y1="492.97" x2="720.00" y2="492.97"/>
    <line x1="80.00" y1="492.31" x2="720.00" y2="492.31"/>
    <line x1="80.00" y1="491.00" x2="720.00" y2="491.00"/>
    <line x1="80.00" y1="490.34" x2="720.00" y2="490.34"/>
    <line x1="80.00" y1="489.68" x2="720.00" y2="489.68"/>
    <line x1="80.00" y1="489.03" x2="720.00" y2="489.03"/>
    <line x1="80.00" y1="487.71" x2="720.00" y2="487.71"/>
    <line x1="80.00" y1="487.06" x2="720.00" y2="487.06"/>
    <line x1="80.00" y1="486.40" x2="720.00" y2="486.40"/>
    <line x1="80.00" y1="485.74" x2="720.00" y2="485.74"/>
    <line x1="80.00" y1="484.43" x2="720.00" y2="484.43"/>
    <line x1="80.00" y1="483.78" x2="720.00" y2="483.78"/>
    <line x1="80.00" y1="483.12" x2="720.00" y2="483.12"/>
    <line x1="80.00" y1="482.46" x2="720.00" y2="482.46"/>
    <line x1="80.00" y1="481.15" x2="720.00" y2="481.15"/>
    <line x1="80.00" y1="480.49" x2="720.00" y2="480.49"/>
    <line x1="80.00" y1="479.84" x2="720.00" y2="479.84"/>
    <line x1="80.00" y1="479.18" x2="720.00" y2="479.18"/>
    <line x1="80.00" y1="477.87" x2="720.00" y2="477.87"/>
    <line x1="80.00" y1="477.21" x2="720.00" y2="477.21"/>
    <line x1="80.00" y1="476.56" x2="720.00" y2="476.56"/>
    <line x1="80.00" y1="475.90" x2="720.00" y2="475.90"/>
    <line x1="80.00" y1="474.59" x2="720.00" y2="474.59"/>
    <line x1="80.00" y1="473.93" x2="720.00" y2="473.93"/>
    <line x1="80.00" y1="473.27" x2="720.00" y2="473.27"/>
    <line x1="80.00" y1="472.62" x2="720.00" y2="472.62"/>
    <line x1="80.00" y1="471.30" x2="720.00" y2="471.30"/>
    <line x1="80.00" y1="470.65" x2="720.00" y2="470.65"/>
    <line x1="80.00" y1="469.99" x2="720.00" y2="469.99"/>
    <line x1="80.00" y1="469.33" x2="720.00" y2="469.33"/>
    <line x1="80.00" y1="468.02" x2="720.00" y2="468.02"/>
    <line x1="80.00" y1="467.37" x2="720.00" y2="467.37"/>
    <line x1="80.00" y1="466.71" x2="720.00" y2="466.71"/>
    <line x1="80.00" y1="466.05" x2="720.00" y2="466.05"/>
    <line x1="80.00" y1="464.74" x2="720.00" y2="464.74"/>
    <line x1="80.00" y1="464.08" x2="720.00" y2="464.08"/>
    <line x1="80.00" y1="463.43" x2="720.00" y2="463.43"/>
    <line x1="80.00" y1="462.77" x2="720.00" y2="462.77"/>
    <line x1="80.00" y1="461.46" x2="720.00" y2="461.46"/>
    <line x1="80.00" y1="460.80" x2="720.00" y2="460.80"/>
    <line x1="80.00" y1="460.15" x2="720.00" y2="460.15"/>
    <line x1="80.00" y1="459.49" x2="720.00" y2="459.49"/>
    <line x1="80.00" y1="458.18" x2="720.00" y2="458.18"/>
    <line x1="80.00" y1="457.52" x2="720.00" y2="457.52"/>
    <line x1="80.00" y1="456.86" x2="720.00" y2="456.86"/>
    <line x1="80.00" y1="456.21" x2="720.00" y2="456.21"/>
    <line x1="80.00" y1="454.89" x2="720.00" y2="454.89"/>
    <line x1="80.00" y1="454.24" x2="720.00" y2="454.24"/>
    <line x1="80.00" y1="453.58" x2="720.00" y2="453.58"/>
    <line x1="80.00" y1="452.92" x2="720.00" y2="452.92"/>
    <line x1="80.00" y1="451.61" x2="720.00" y2="451.61"/>
    <line x1="80.00" y1="450.96" x2="720.00" y2="450.96"/>
    <line x1="80.00" y1="450.30" x2="720.00" y2="450.30"/>
    <line x1="80.00" y1="449.64" x2="720.00" y2="449.64"/>
    <line x1="80.00" y1="448.33" x2="720.00" y2="448.33"/>
    <line x1="80.00" y1="447.67" x2="720.00" y2="447.67"/>
    <line x1="80.00" y1="447.02" x2="720.00" y2="447.02"/>
    <line x1="80.00" y1="446.36" x2="720.00" y2="446.36"/>
    <line x1="80.00" y1="445.05" x2="720.00" y2="445.05"/>
    <line x1="80.00" y1="444.39" x2="720.00" y2="444.39"/>
    <line x1="80.00" y1="443.74" x2="720.00" y2="443.74"/>
    <line x1="80.00" y1="443.08" x2="720.00" y2="443.08"/>
    <line x1="80.00" y1="441.77" x2="720.00" y2="441.77"/>
    <line x1="80.00" y1="441.11" x2="720.00" y2="441.11"/>
    <line x1="80.00" y1="440.45" x2="720.00" y2="440.45"/>
    <line x1="80.00" y1="439.80" x2="720.00" y2="439.80"/>
    <line x1="80.00" y1="438.48" x2="720.00" y2="438.48"/>
    <line x1="80.00" y1="437.83" x2="720.00" y2="437.83"/>
    <line x1="80.00" y1="437.17" x2="720.00" y2="437.17"/>
    <line x1="80.00" y1="436.51" x2="720.00" y2="436.51"/>
    <line x1="80.00" y1="435.20" x2="720.00" y2="435.20"/>
    <line x1="80.00" y1="434.55" x2="720.00" y2="434.55"/>
    <line x1="80.00" y1="433.89" x2="720.00" y2="433.89"/>
    <line x1="80.00" y1="433.23" x2="720.00" y2="433.23"/>
    <line x1="80.00" y1="431.92" x2="720.00" y2="431.92"/>
    <line x1="80.00" y1="431.26" x2="720.00" y2="431.26"/>
    <line x1="80.00" y1="430.61" x2="720.00" y2="430.61"/>
    <line x1="80.00" y1="429.95" x2="720.00" y2="429.95"/>
    <line x1="80.00" y1="428.64" x2="720.00" y2="428.64"/>
    <line x1="80.00" y1="427.98" x2="720.00" y2="427.98"/>
    <line x1="80.00" y1="427.33" x2="720.00" y2="427.33"/>
    <line x1="80.00" y1="426.67" x2="720.00" y2="426.67"/>
    <line x1="80.00" y1="425.36" x2="720.00" y2="425.36"/>
    <line x1="80.00" y1="424.70" x2="720.00" y2="424.70"/>
    <line x1="80.00" y1="424.04" x2="720.00" y2="424.04"/>
    <line x1="80.00" y1="423.39" x2="720.00" y2="423.39"/>
    <line x1="80.00" y1="422.07" x2="720.00" y2="422.07"/>
    <line x1="80.00" y1="421.42" x2="720.00" y2="421.42"/>
    <line x1="80.00" y1="420.76" x2="720.00" y2="420.76"/>
    <line x1="80.00" y1="420.10" x2="720.00" y2="420.10"/>
    <line x1="80.00" y1="418.79" x2="720.00" y2="418.79"/>
    <line x1="80.00" y1="418.14" x2="720.00" y2="418.14"/>
    <line x1="80.00" y1="417.48" x2="720.00" y2="417.48"/>
    <line x1="80.00" y1="416.82" x2="720.00" y2="416.82"/>
    <line x1="80.00" y1="415.51" x2="720.00" y2="415.51"/>
    <line x1="80.00" y1="414.85" x2="720.00" y2="414.85"/>
    <line x1="80.00" y1="414.20" x2="720.00" y2="414.20"/>
    <line x1="80.00" y1="413.54" x2="720.00" y2="413.54"/>
    <line x1="80.00" y1="412.23" x2="720.00" y2="412.23"/>
    <line x1="80.00" y1="411.57" x2="720.00" y2="411.57"/>
    <line x1="80.00" y1="410.92" x2="720.00" y2="410.92"/>
    <line x1="80.00" y1="410.26" x2="720.00" y2="410.26"/>
    <line x1="80.00" y1="408.95" x2="720.00" y2="408.95"/>
    <line x1="80.00" y1="408.29" x2="720.00" y2="408.29"/>
    <line x1="80.00" y1="407.63" x2="720.00" y2="407.63"/>
    <line x1="80.00" y1="406.98" x2="720.00" y2="406.98"/>
    <line x1="80.00" y1="405.66" x2="720.00" y2="405.66"/>
    <line x1="80.00" y1="405.01" x2="720.00" y2="405.01"/>
    <line x1="80.00" y1="404.35" x2="720.00" y2="404.35"/>
    <line x1="80.00" y1="403.69" x2="720.00" y2="403.69"/>
    <line x1="80.00" y1="402.38" x2="720.00" y2="402.38"/>
    <line x1="80.00" y1="401.73" x2="720.00" y2="401.73"/>
    <line x1="80.00" y1="401.07" x2="720.00" y2="401.07"/>
    <line x1="80.00" y1="400.41" x2="720.00" y2="400.41"/>
    <line x1="80.00" y1="399.10" x2="720.00" y2="399.10"/>
    <line x1="80.00" y1="398.44" x2="720.00" y2="398.44"/>
    <line x1="80.00" y1="397.79" x2="720.00" y2="397.79"/>
    <line x1="80.00" y1="397.13" x2="720.00" y2="397.13"/>
    <line x1="80.00" y1="395.82" x2="720.00" y2="395.82"/>
    <line x1="80.00" y1="395.16" x2="720.00" y2="395.16"/>
    <line x1="80.00" y1="394.51" x2="720.00" y2="394.51"/>
    <line x1="80.00" y1="393.85" x2="720.00" y2="393.85"/>
    <line x1="80.00" y1="392.54" x2="720.00" y2="392.54"/>
    <line x1="80.00" y1="391.88" x2="720.00" y2="391.88"/>
    <line x1="80.00" y1="391.22" x2="720.00" y2="391.22"/>
    <line x1="80.00" y1="390.57" x2="720.00" y2="390.57"/>
    <line x1="80.00" y1="389.25" x2="720.00" y2="389.25"/>
    <line x1="80.00" y1="388.60" x2="720.00" y2="388.60"/>
    <line x1="80.00" y1="387.94" x2="720.00" y2="387.94"/>
    <line x1="80.00" y1="387.28" x2="720.00" y2="387.28"/>
    <line x1="80.00" y1="385.97" x2="720.00" y2="385.97"/>
    <line x1="80.00" y1="385.32" x2="720.00" y2="385.32"/>
    <line x1="80.00" y1="384.66" x2="720.00" y2="384.66"/>
    <line x1="80.00" y1="384.00" x2="720.00" y2="384.00"/>
    <line x1="80.00" y1="382.69" x2="720.00" y2="382.69"/>
    <line x1="80.00" y1="382.03" x2="720.00" y2="382.03"/>
    <line x1="80.00" y1="381.38" x2="720.00" y2="381.38"/>
    <line x1="80.00" y1="380.72" x2="720.00" y2="380.72"/>
    <line x1="80.00" y1="379.41" x2="720.00" y2="379.41"/>
    <line x1="80.00" y1="378.75" x2="720.00" y2="378.75"/>
    <line x1="80.00" y1="378.10" x2="720.00" y2="378.10"/>
    <line x1="80.00" y1="377.44" x2="720.00" y2="377.44"/>
    <line x1="80.00" y1="376.13" x2="720.00" y2="376.13"/>
    <line x1="80.00" y1="375.47" x2="720.00" y2="375.47"/>
    <line x1="80.00" y1="374.81" x2="720.00" y2="374.81"/>
    <line x1="80.00" y1="374.16" x2="720.00" y2="374.16"/>
    <line x1="80.00" y1="372.84" x2="720.00" y2="372.84"/>
    <line x1="80.00" y1="372.19" x2="720.00" y2="372.19"/>
    <line x1="80.00" y1="371.53" x2="720.00" y2="371.53"/>
    <line x1="80.00" y1="370.87" x2="720.00" y2="370.87"/>
    <line x1="80.00" y1="369.56" x2="720.00" y2="369.56"/>
    <line x1="80.00" y1="368.91" x2="720.00" y2="368.91"/>
    <line x1="80.00" y1="368.25" x2="720.00" y2="368.25"/>
    <line x1="80.00" y1="367.59" x2="720.00" y2="367.59"/>
    <line x1="80.00" y1="366.28" x2="720.00" y2="366.28"/>
    <line x1="80.00" y1="365.62" x2="720.00" y2="365.62"/>
    <line x1="80.00" y1="364.97" x2="720.00" y2="364.97"/>
    <line x1="80.00" y1="364.31" x2="720.00" y2="364.31"/>
    <line x1="80.00" y1="363.00" x2="720.00" y2="363.00"/>
    <line x1="80.00" y1="362.34" x2="720.00" y2="362.34"/>
    <line x1="80.00" y1="361.69" x2="720.00" y2="361.69"/>
    <line x1="80.00" y1="361.03" x2="720.00" y2="361.03"/>
    <line x1="80.00" y1="359.72" x2="720.00" y2="359.72"/>
    <line x1="80.00" y1="359.06" x2="720.00" y2="359.06"/>
    <line x1="80.00" y1="358.40" x2="720.00" y2="358.40"/>
    <line x1="80.00" y1="357.75" x2="720.00" y2="357.75"/>
    <line x1="80.00" y1="356.43" x2="720.00" y2="356.43"/>
    <line x1="80.00" y1="355.78" x2="720.00" y2="355.78"/>
    <line x1="80.00" y1="355.12" x2="720.00" y2="355.12"/>
    <line x1="80.00" y1="354.46" x2="720.00" y2="354.46"/>
    <line x1="80.00" y1="353.15" x2="720.00" y2="353.15"/>
    <line x1="80.00" y1="352.50" x2="720.00" y2="352.50"/>
    <line x1="80.00" y1="351.84" x2="720.00" y2="351.84"/>
    <line x1="80.00" y1="351.18" x2="720.00" y2="351.18"/>
    <line x1="80.00" y1="349.87" x2="720.00" y2="349.87"/>
    <line x1="80.00" y1="349.21" x2="720.00" y2="349.21"/>
    <line x1="80.00" y1="348.56" x2="720.00" y2="348.56"/>
    <line x1="80.00" y1="347.90" x2="720.00" y2="347.90"/>
    <line x1="80.00" y1="346.59" x2="720.00" y2="346.59"/>
    <line x1="80.00" y1="345.93" x2="720.00" y2="345.93"/>
    <line x1="80.00" y1="345.28" x2="720.00" y2="345.28"/>
    <line x1="80.00" y1="344.62" x2="720.00" y2="344.62"/>
    <line x1="80.00" y1="343.31" x2="720.00" y2="343.31"/>
    <line x1="80.00" y1="342.65" x2="720.00" y2="342.65"/>
    <line x1="80.00" y1="341.99" x2="720.00" y2="341.99"/>
    <line x1="80.00" y1="341.34" x2="720.00" y2="341.34"/>
    <line x1="80.00" y1="340.02" x2="720.00" y2="340.02"/>
    <line x1="80.00" y1="339.37" x2="720.00" y2="339.37"/>
    <line x1="80.00" y1="338.71" x2="720.00" y2="338.71"/>
    <line x1="80.00" y1="338.05" x2="720.00" y2="338.05"/>
    <line x1="80.00" y1="336.74" x2="720.00" y2="336.74"/>
    <line x1="80.00" y1="336.09" x2="720.00" y2="336.09"/>
    <line x1="80.00" y1="335.43" x2="720.00" y2="335.43"/>
    <line x1="80.00" y1="334.77" x2="720.00" y2="334.77"/>
    <line x1="80.00" y1="333.46" x2="720.00" y2="333.46"/>
    <line x1="80.00" y1="332.80" x2="720.00" y2="332.80"/>
    <line x1="80.00" y1="332.15" x2="720.00" y2="332.15"/>
    <line x1="80.00" y1="331.49" x2="720.00" y2="331.49"/>
    <line x1="80.00" y1="330.18" x2="720.00" y2="330.18"/>
    <line x1="80.00" y1="329.52" x2="720.00" y2="329.52"/>
    <line x1="80.00" y1="328.87" x2="720.00" y2="328.87"/>
    <line x1="80.00" y1="328.21" x2="720.00" y2="328.21"/>
    <line x1="80.00" y1="326.90" x2="720.00" y2="326.90"/>
    <line x1="80.00" y1="326.24" x2="720.00" y2="326.24"/>
    <line x1="80.00" y1="325.58" x2="720.00" y2="325.58"/>
    <line x1="80.00" y1="324.93" x2="720.00" y2="324.93"/>
    <line x1="80.00" y1="323.61" x2="720.00" y2="323.61"/>
    <line x1="80.00" y1="322.96" x2="720.00" y2="322.96"/>
    <line x1="80.00" y1="322.30" x2="720.00" y2="322.30"/>
    <line x1="80.00" y1="321.64" x2="720.00" y2="321.64"/>
    <line x1="80.00" y1="320.33" x2="720.00" y2="320.33"/>
    <line x1="80.00" y1="319.68" x2="720.00" y2="319.68"/>
    <line x1="80.00" y1="319.02" x2="720.00" y2="319.02"/>
    <line x1="80.00" y1="318.36" x2="720.00" y2="318.36"/>
    <line x1="80.00" y1="317.05" x2="720.00" y2="317.05"/>
    <line x1="80.00" y1="316.39" x2="720.00" y2="316.39"/>
    <line x1="80.00" y1="315.74" x2="720.00" y2="315.74"/>
    <line x1="80.00" y1="315.08" x2="720.00" y2="315.08"/>
    <line x1="80.00" y1="313.77" x2="720.00" y2="313.77"/>
    <line x1="80.00" y1="313.11" x2="720.00" y2="313.11"/>
    <line x1="80.00" y1="312.46" x2="720.00" y2="312.46"/>
    <line x1="80.00" y1="311.80" x2="720.00" y2="311.80"/>
    <line x1="80.00" y1="310.49" x2="720.00" y2="310.49"/>
    <line x1="80.00" y1="309.83" x2="720.00" y2="309.83"/>
    <line x1="80.00" y1="309.17" x2="720.00" y2="309.17"/>
    <line x1="80.00" y1="308.52" x2="720.00" y2="308.52"/>
    <line x1="80.00" y1="307.20" x2="720.00" y2="307.20"/>
    <line x1="80.00" y1="306.55" x2="720.00" y2="306.55"/>
    <line x1="80.00" y1="305.89" x2="720.00" y2="305.89"/>
    <line x1="80.00" y1="305.23" x2="720.00" y2="305.23"/>
    <line x1="80.00" y1="303.92" x2="720.00" y2="303.92"/>
    <line x1="80.00" y1="303.27" x2="720.00" y2="303.27"/>
    <line x1="80.00" y1="302.61" x2="720.00" y2="302.61"/>
    <line x1="80.00" y1="301.95" x2="720.00" y2="301.95"/>
    <line x1="80.00" y1="300.64" x2="720.00" y2="300.64"/>
    <line x1="80.00" y1="299.98" x2="720.00" y2="299.98"/>
    <line x1="80.00" y1="299.33" x2="720.00" y2="299.33"/>
    <line x1="80.00" y1="298.67" x2="720.00" y2="298.67"/>
    <line x1="80.00" y1="297.36" x2="720.00" y2="297.36"/>
    <line x1="80.00" y1="296.70" x2="720.00" y2="296.70"/>
    <line x1="80.00" y1="296.05" x2="720.00" y2="296.05"/>
    <line x1="80.00" y1="295.39" x2="720.00" y2="295.39"/>
    <line x1="80.00" y1="294.08" x2="720.00" y2="294.08"/>
    <line x1="80.00" y1="293.42" x2="720.00" y2="293.42"/>
    <line x1="80.00" y1="292.76" x2="720.00" y2="292.76"/>
    <line x1="80.00" y1="292.11" x2="720.00" y2="292.11"/>
    <line x1="80.00" y1="290.79" x2="720.00" y2="290.79"/>
    <line x1="80.00" y1="290.14" x2="720.00" y2="290.14"/>
    <line x1="80.00" y1="289.48" x2="720.00" y2="289.48"/>
    <line x1="80.00" y1="288.82" x2="720.00" y2="288.82"/>
    <line x1="80.00" y1="287.51" x2="720.00" y2="287.51"/>
    <line x1="80.00" y1="286.86" x2="720.00" y2="286.86"/>
    <line x1="80.00" y1="286.20" x2="720.00" y2="286.20"/>
    <line x1="80.00" y1="285.54" x2="720.00" y2="285.54"/>
    <line x1="80.00" y1="284.23" x2="720.00" y2="284.23"/>
    <line x1="80.00" y1="283.57" x2="720.00" y2="283.57"/>
    <line x1="80.00" y1="282.92" x2="720.00" y2="282.92"/>
    <line x1="80.00" y1="282.26" x2="720.00" y2="282.26"/>
    <line x1="80.00" y1="280.95" x2="720.00" y2="280.95"/>
    <line x1="80.00" y1="280.29" x2="720.00" y2="280.29"/>
    <line x1="80.00" y1="279.64" x2="720.00" y2="279.64"/>
    <line x1="80.00" y1="278.98" x2="720.00" y2="278.98"/>
    <line x1="80.00" y1="277.67" x2="720.00" y2="277.67"/>
    <line x1="80.00" y1="277.01" x2="720.00" y2="277.01"/>
    <line x1="80.00" y1="276.35" x2="720.00" y2="276.35"/>
    <line x1="80.00" y1="275.70" x2="720.00" y2="275.70"/>
    <line x1="80.00" y1="274.38" x2="720.00" y2="274.38"/>
    <line x1="80.00" y1="273.73" x2="720.00" y2="273.73"/>
    <line x1="80.00" y1="273.07" x2="720.00" y2="273.07"/>
    <line x1="80.00" y1="272.41" x2="720.00" y2="272.41"/>
    <line x1="80.00" y1="271.10" x2="720.00" y2="271.10"/>
    <line x1="80.00" y1="270.45" x2="720.00" y2="270.45"/>
    <line x1="80.00" y1="269.79" x2="720.00" y2="269.79"/>
    <line x1="80.00" y1="269.13" x2="720.00" y2="269.13"/>
    <line x1="80.00" y1="267.82" x2="720.00" y2="267.82"/>
    <line x1="80.00" y1="267.16" x2="720.00" y2="267.16"/>
    <line x1="80.00" y1="266.51" x2="720.00" y2="266.51"/>
    <line x1="80.00" y1="265.85" x2="720.00" y2="265.85"/>
    <line x1="80.00" y1="264.54" x2="720.00" y2="264.54"/>
    <line x1="80.00" y1="263.88" x2="720.00" y2="263.88"/>
    <line x1="80.00" y1="263.23" x2="720.00" y2="263.23"/>
    <line x1="80.00" y1="262.57" x2="720.00" y2="262.57"/>
    <line x1="80.00" y1="261.26" x2="720.00" y2="261.26"/>
    <line x1="80.00" y1="260.60" x2="720.00" y2="260.60"/>
    <line x1="80.00" y1="259.94" x2="720.00" y2="259.94"/>
    <line x1="80.00" y1="259.29" x2="720.00" y2="259.29"/>
    <line x1="80.00" y1="257.97" x2="720.00" y2="257.97"/>
    <line x1="80.00" y1="257.32" x2="720.00" y2="257.32"/>
    <line x1="80.00" y1="256.66" x2="720.00" y2="256.66"/>
    <line x1="80.00" y1="256.00" x2="720.00" y2="256.00"/>
    <line x1="80.00" y1="254.69" x2="720.00" y2="254.69"/>
    <line x1="80.00" y1="254.04" x2="720.00" y2="254.04"/>
    <line x1="80.00" y1="253.38" x2="720.00" y2="253.38"/>
    <line x1="80.00" y1="252.72" x2="720.00" y2="252.72"/>
    <line x1="80.00" y1="251.41" x2="720.00" y2="251.41"/>
    <line x1="80.00" y1="250.75" x2="720.00" y2="250.75"/>
    <line x1="80.00" y1="250.10" x2="720.00" y2="250.10"/>
    <line x1="80.00" y1="249.44" x2="720.00" y2="249.44"/>
    <line x1="80.00" y1="248.13" x2="720.00" y2="248.13"/>
    <line x1="80.00" y1="247.47" x2="720.00" y2="247.47"/>
    <line x1="80.00" y1="246.82" x2="720.00" y2="246.82"/>
    <line x1="80.00" y1="246.16" x2="720.00" y2="246.16"/>
    <line x1="80.00" y1="244.85" x2="720.00" y2="244.85"/>
    <line x1="80.00" y1="244.19" x2="720.00" y2="244.19"/>
    <line x1="80.00" y1="243.53" x2="720.00" y2="243.53"/>
    <line x1="80.00" y1="242.88" x2="720.00" y2="242.88"/>
    <line x1="80.00" y1="241.56" x2="720.00" y2="241.56"/>
    <line x1="80.00" y1="240.91" x2="720.00" y2="240.91"/>
    <line x1="80.00" y1="240.25" x2="720.00" y2="240.25"/>
    <line x1="80.00" y1="239.59" x2="720.00" y2="239.59"/>
    <line x1="80.00" y1="238.28" x2="720.00" y2="238.28"/>
    <line x1="80.00" y1="237.63" x2="720.00" y2="237.63"/>
    <line x1="80.00" y1="236.97" x2="720.00" y2="236.97"/>
    <line x1="80.00" y1="236.31" x2="720.00" y2="236.31"/>
    <line x1="80.00" y1="235.00" x2="720.00" y2="235.00"/>
    <line x1="80.00" y1="234.34" x2="720.00" y2="234.34"/>
    <line x1="80.00" y1="233.69" x2="720.00" y2="233.69"/>
    <line x1="80.00" y1="233.03" x2="720.00" y2="233.03"/>
    <line x1="80.00" y1="231.72" x2="720.00" y2="231.72"/>
    <line x1="80.00" y1="231.06" x2="720.00" y2="231.06"/>
    <line x1="80.00" y1="230.41" x2="720.00" y2="230.41"/>
    <line x1="80.00" y1="229.75" x2="720.00" y2="229.75"/>
    <line x1="80.00" y1="228.44" x2="720.00" y2="228.44"/>
    <line x1="80.00" y1="227.78" x2="720.00" y2="227.78"/>
    <line x1="80.00" y1="227.12" x2="720.00" y2="227.12"/>
    <line x1="80.00" y1="226.47" x2="720.00" y2="226.47"/>
    <line x1="80.00" y1="225.15" x2="720.00" y2="225.15"/>
    <line x1="80.00" y1="224.50" x2="720.00" y2="224.50"/>
    <line x1="80.00" y1="223.84" x2="720.00" y2="223.84"/>
    <line x1="80.00" y1="223.18" x2="720.00" y2="223.18"/>
    <line x1="80.00" y1="221.87" x2="720.00" y2="221.87"/>
    <line x1="80.00" y1="221.22" x2="720.00" y2="221.22"/>
    <line x1="80.00" y1="220.56" x2="720.00" y2="220.56"/>
    <line x1="80.00" y1="219.90" x2="720.00" y2="219.90"/>
    <line x1="80.00" y1="218.59" x2="720.00" y2="218.59"/>
    <line x1="80.00" y1="217.93" x2="720.00" y2="217.93"/>
    <line x1="80.00" y1="217.28" x2="720.00" y2="217.28"/>
    <line x1="80.00" y1="216.62" x2="720.00" y2="216.62"/>
    <line x1="80.00" y1="215.31" x2="720.00" y2="215.31"/>
    <line x1="80.00" y1="214.65" x2="720.00" y2="214.65"/>
    <line x1="80.00" y1="214.00" x2="720.00" y2="214.00"/>
    <line x1="80.00" y1="213.34" x2="720.00" y2="213.34"/>
    <line x1="80.00" y1="212.03" x2="720.00" y2="212.03"/>
    <line x1="80.00" y1="211.37" x2="720.00" y2="211.37"/>
    <line x1="80.00" y1="210.71" x2="720.00" y2="210.71"/>
    <line x1="80.00" y1="210.06" x2="720.00" y2="210.06"/>
    <line x1="80.00" y1="208.74" x2="720.00" y2="208.74"/>
    <line x1="80.00" y1="208.09" x2="720.00" y2="208.09"/>
    <line x1="80.00" y1="207.43" x2="720.00" y2="207.43"/>
    <line x1="80.00" y1="206.77" x2="720.00" y2="206.77"/>
    <line x1="80.00" y1="205.46" x2="720.00" y2="205.46"/>
    <line x1="80.00" y1="204.81" x2="720.00" y2="204.81"/>
    <line x1="80.00" y1="204.15" x2="720.00" y2="204.15"/>
    <line x1="80.00" y1="203.49" x2="720.00" y2="203.49"/>
    <line x1="80.00" y1="202.18" x2="720.00" y2="202.18"/>
    <line x1="80.00" y1="201.52" x2="720.00" y2="201.52"/>
    <line x1="80.00" y1="200.87" x2="720.00" y2="200.87"/>
    <line x1="80.00" y1="200.21" x2="720.00" y2="200.21"/>
    <line x1="80.00" y1="198.90" x2="720.00" y2="198.90"/>
    <line x1="80.00" y1="198.24" x2="720.00" y2="198.24"/>
    <line x1="80.00" y1="197.59" x2="720.00" y2="197.59"/>
    <line x1="80.00" y1="196.93" x2="720.00" y2="196.93"/>
    <line x1="80.00" y1="195.62" x2="720.00" y2="195.62"/>
    <line x1="80.00" y1="194.96" x2="720.00" y2="194.96"/>
    <line x1="80.00" y1="194.30" x2="720.00" y2="194.30"/>
    <line x1="80.00" y1="193.65" x2="720.00" y2="193.65"/>
    <line x1="80.00" y1="192.33" x2="720.00" y2="192.33"/>
    <line x1="80.00" y1="191.68" x2="720.00" y2="191.68"/>
    <line x1="80.00" y1="191.02" x2="720.00" y2="191.02"/>
    <line x1="80.00" y1="190.36" x2="720.00" y2="190.36"/>
    <line x1="80.00" y1="189.05" x2="720.00" y2="189.05"/>
    <line x1="80.00" y1="188.40" x2="720.00" y2="188.40"/>
    <line x1="80.00" y1="187.74" x2="720.00" y2="187.74"/>
    <line x1="80.00" y1="187.08" x2="720.00" y2="187.08"/>
    <line x1="80.00" y1="185.77" x2="720.00" y2="185.77"/>
    <line x1="80.00" y1="185.11" x2="720.00" y2="185.11"/>
    <line x1="80.00" y1="184.46" x2="720.00" y2="184.46"/>
    <line x1="80.00" y1="183.80" x2="720.00" y2="183.80"/>
    <line x1="80.00" y1="182.49" x2="720.00" y2="182.49"/>
    <line x1="80.00" y1="181.83" x2="720.00" y2="181.83"/>
    <line x1="80.00" y1="181.18" x2="720.00" y2="181.18"/>
    <line x1="80.00" y1="180.52" x2="720.00" y2="180.52"/>
    <line x1="80.00" y1="179.21" x2="720.00" y2="179.21"/>
    <line x1="80.00" y1="178.55" x2="720.00" y2="178.55"/>
    <line x1="80.00" y1="177.89" x2="720.00" y2="177.89"/>
    <line x1="80.00" y1="177.24" x2="720.00" y2="177.24"/>
    <line x1="80.00" y1="175.92" x2="720.00" y2="175.92"/>
    <line x1="80.00" y1="175.27" x2="720.00" y2="175.27"/>
    <line x1="80.00" y1="174.61" x2="720.00" y2="174.61"/>
    <line x1="80.00" y1="173.95" x2="720.00" y2="173.95"/>
    <line x1="80.00" y1="172.64" x2="720.00" y2="172.64"/>
    <line x1="80.00" y1="171.99" x2="720.00" y2="171.99"/>
    <line x1="80.00" y1="171.33" x2="720.00" y2="171.33"/>
    <line x1="80.00" y1="170.67" x2="720.00" y2="170.67"/>
    <line x1="80.00" y1="169.36" x2="720.00" y2="169.36"/>
    <line x1="80.00" y1="168.70" x2="720.00" y2="168.70"/>
    <line x1="80.00" y1="168.05" x2="720.00" y2="168.05"/>
    <line x1="80.00" y1="167.39" x2="720.00" y2="167.39"/>
    <line x1="80.00" y1="166.08" x2="720.00" y2="166.08"/>
    <line x1="80.00" y1="165.42" x2="720.00" y2="165.42"/>
    <line x1="80.00" y1="164.77" x2="720.00" y2="164.77"/>
    <line x1="80.00" y1="164.11" x2="720.00" y2="164.11"/>
    <line x1="80.00" y1="162.80" x2="720.00" y2="162.80"/>
    <line x1="80.00" y1="162.14" x2="720.00" y2="162.14"/>
    <line x1="80.00" y1="161.48" x2="720.00" y2="161.48"/>
    <line x1="80.00" y1="160.83" x2="720.00" y2="160.83"/>
    <line x1="80.00" y1="159.51" x2="720.00" y2="159.51"/>
    <line x1="80.00" y1="158.86" x2="720.00" y2="158.86"/>
    <line x1="80.00" y1="158.20" x2="720.00" y2="158.20"/>
    <line x1="80.00" y1="157.54" x2="720.00" y2="157.54"/>
    <line x1="80.00" y1="156.23" x2="720.00" y2="156.23"/>
    <line x1="80.00" y1="155.58" x2="720.00" y2="155.58"/>
    <line x1="80.00" y1="154.92" x2="720.00" y2="154.92"/>
    <line x1="80.00" y1="154.26" x2="720.00" y2="154.26"/>
    <line x1="80.00" y1="152.95" x2="720.00" y2="152.95"/>
    <line x1="80.00" y1="152.29" x2="720.00" y2="152.29"/>
    <line x1="80.00" y1="151.64" x2="720.00" y2="151.64"/>
    <line x1="80.00" y1="150.98" x2="720.00" y2="150.98"/>
    <line x1="80.00" y1="149.67" x2="720.00" y2="149.67"/>
    <line x1="80.00" y1="149.01" x2="720.00" y2="149.01"/>
    <line x1="80.00" y1="148.36" x2="720.00" y2="148.36"/>
    <line x1="80.00" y1="147.70" x2="720.00" y2="147.70"/>
    <line x1="80.00" y1="146.39" x2="720.00" y2="146.39"/>
    <line x1="80.00" y1="145.73" x2="720.00" y2="145.73"/>
    <line x1="80.00" y1="145.07" x2="720.00" y2="145.07"/>
    <line x1="80.00" y1="144.42" x2="720.00" y2="144.42"/>
    <line x1="80.00" y1="143.10" x2="720.00" y2="143.10"/>
    <line x1="80.00" y1="142.45" x2="720.00" y2="142.45"/>
    <line x1="80.00" y1="141.79" x2="720.00" y2="141.79"/>
    <line x1="80.00" y1="141.13" x2="720.00" y2="141.13"/>
    <line x1="80.00" y1="139.82" x2="720.00" y2="139.82"/>
    <line x1="80.00" y1="139.17" x2="720.00" y2="139.17"/>
    <line x1="80.00" y1="138.51" x2="720.00" y2="138.51"/>
    <line x1="80.00" y1="137.85" x2="720.00" y2="137.85"/>
    <line x1="80.00" y1="136.54" x2="720.00" y2="136.54"/>
    <line x1="80.00" y1="135.88" x2="720.00" y2="135.88"/>
    <line x1="80.00" y1="135.23" x2="720.00" y2="135.23"/>
    <line x1="80.00" y1="134.57" x2="720.00" y2="134.57"/>
    <line x1="80.00" y1="133.26" x2="720.00" y2="133.26"/>
    <line x1="80.00" y1="132.60" x2="720.00" y2="132.60"/>
    <line x1="80.00" y1="131.95" x2="720.00" y2="131.95"/>
    <line x1="80.00" y1="131.29" x2="720.00" y2="131.29"/>
    <line x1="80.00" y1="129.98" x2="720.00" y2="129.98"/>
    <line x1="80.00" y1="129.32" x2="720.00" y2="129.32"/>
    <line x1="80.00" y1="128.66" x2="720.00" y2="128.66"/>
    <line x1="80.00" y1="128.01" x2="720.00" y2="128.01"/>
    <line x1="80.00" y1="126.69" x2="720.00" y2="126.69"/>
    <line x1="80.00" y1="126.04" x2="720.00" y2="126.04"/>
    <line x1="80.00" y1="125.38" x2="720.00" y2="125.38"/>
    <line x1="80.00" y1="124.72" x2="720.00" y2="124.72"/>
    <line x1="80.00" y1="123.41" x2="720.00" y2="123.41"/>
    <line x1="80.00" y1="122.76" x2="720.00" y2="122.76"/>
    <line x1="80.00" y1="122.10" x2="720.00" y2="122.10"/>
    <line x1="80.00" y1="121.44" x2="720.00" y2="121.44"/>
    <line x1="80.00" y1="120.13" x2="720.00" y2="120.13"/>
    <line x1="80.00" y1="119.47" x2="720.00" y2="119.47"/>
    <line x1="80.00" y1="118.82" x2="720.00" y2="118.82"/>
    <line x1="80.00" y1="118.16" x2="720.00" y2="118.16"/>
    <line x1="80.00" y1="116.85" x2="720.00" y2="116.85"/>
    <line x1="80.00" y1="116.19" x2="720.00" y2="116.19"/>
    <line x1="80.00" y1="115.54" x2="720.00" y2="115.54"/>
    <line x1="80.00" y1="114.88" x2="720.00" y2="114.88"/>
    <line x1="80.00" y1="113.57" x2="720.00" y2="113.57"/>
    <line x1="80.00" y1="112.91" x2="720.00" y2="112.91"/>
    <line x1="80.00" y1="112.25" x2="720.00" y2="112.25"/>
    <line x1="80.00" y1="111.60" x2="720.00" y2="111.60"/>
    <line x1="80.00" y1="110.28" x2="720.00" y2="110.28"/>
    <line x1="80.00" y1="109.63" x2="720.00" y2="109.63"/>
    <line x1="80.00" y1="108.97" x2="720.00" y2="108.97"/>
    <line x1="80.00" y1="108.31" x2="720.00" y2="108.31"/>
    <line x1="80.00" y1="107.00" x2="720.00" y2="107.00"/>
    <line x1="80.00" y1="106.35" x2="720.00" y2="106.35"/>
    <line x1="80.00" y1="105.69" x2="720.00" y2="105.69"/>
    <line x1="80.00" y1="105.03" x2="720.00" y2="105.03"/>
    <line x1="80.00" y1="103.72" x2="720.00" y2="103.72"/>
    <line x1="80.00" y1="103.06" x2="720.00" y2="103.06"/>
    <line x1="80.00" y1="102.41" x2="720.00" y2="102.41"/>
    <line x1="80.00" y1="101.75" x2="720.00" y2="101.75"/>
    <line x1="80.00" y1="100.44" x2="720.00" y2="100.44"/>
    <line x1="80.00" y1="99.78" x2="720.00" y2="99.78"/>
    <line x1="80.00" y1="99.13" x2="720.00" y2="99.13"/>
    <line x1="80.00" y1="98.47" x2="720.00" y2="98.47"/>
    <line x1="80.00" y1="97.16" x2="720.00" y2="97.16"/>
    <line x1="80.00" y1="96.50" x2="720.00" y2="96.50"/>
    <line x1="80.00" y1="95.84" x2="720.00" y2="95.84"/>
    <line x1="80.00" y1="95.19" x2="720.00" y2="95.19"/>
    <line x1="80.00" y1="93.87" x2="720.00" y2="93.87"/>
    <line x1="80.00" y1="93.22" x2="720.00" y2="93.22"/>
    <line x1="80.00" y1="92.56" x2="720.00" y2="92.56"/>
    <line x1="80.00" y1="91.90" x2="720.00" y2="91.90"/>
    <line x1="80.00" y1="90.59" x2="720.00" y2="90.59"/>
    <line x1="80.00" y1="89.94" x2="720.00" y2="89.94"/>
    <line x1="80.00" y1="89.28" x2="720.00" y2="89.28"/>
    <line x1="80.00" y1="88.62" x2="720.00" y2="88.62"/>
    <line x1="80.00" y1="87.31" x2="720.00" y2="87.31"/>
    <line x1="80.00" y1="86.65" x2="720.00" y2="86.65"/>
    <line x1="80.00" y1="86.00" x2="720.00" y2="86.00"/>
    <line x1="80.00" y1="85.34" x2="720.00" y2="85.34"/>
    <line x1="80.00" y1="84.03" x2="720.00" y2="84.03"/>
    <line x1="80.00" y1="83.37" x2="720.00" y2="83.37"/>
    <line x1="80.00" y1="82.72" x2="720.00" y2="82.72"/>
    <line x1="80.00" y1="82.06" x2="720.00" y2="82.06"/>
    <line x1="80.00" y1="80.75" x2="720.00" y2="80.75"/>
    <line x1="80.00" y1="80.09" x2="720.00" y2="80.09"/>
    <line x1="80.00" y1="79.43" x2="720.00" y2="79.43"/>
    <line x1="80.00" y1="78.78" x2="720.00" y2="78.78"/>
    <line x1="80.00" y1="77.46" x2="720.00" y2="77.46"/>
    <line x1="80.00" y1="76.81" x2="720.00" y2="76.81"/>
    <line x1="80.00" y1="76.15" x2="720.00" y2="76.15"/>
    <line x1="80.00" y1="75.49" x2="720.00" y2="75.49"/>
    <line x1="80.00" y1="74.18" x2="720.00" y2="74.18"/>
    <line x1="80.00" y1="73.53" x2="720.00" y2="73.53"/>
    <line x1="80.00" y1="72.87" x2="720.00" y2="72.87"/>
    <line x1="80.00" y1="72.21" x2="720.00" y2="72.21"/>
    <line x1="80.00" y1="70.90" x2="720.00" y2="70.90"/>
    <line x1="80.00" y1="70.24" x2="720.00" y2="70.24"/>
    <line x1="80.00" y1="69.59" x2="720.00" y2="69.59"/>
    <line x1="80.00" y1="68.93" x2="720.00" y2="68.93"/>
    <line x1="80.00" y1="67.62" x2="720.00" y2="67.62"/>
    <line x1="80.00" y1="66.96" x2="720.00" y2="66.96"/>
    <line x1="80.00" y1="66.31" x2="720.00" y2="66.31"/>
    <line x1="80.00" y1="65.65" x2="720.00" y2="65.65"/>
    <line x1="80.00" y1="64.34" x2="720.00" y2="64.34"/>
    <line x1="80.00" y1="63.68" x2="720.00" y2="63.68"/>
    <line x1="80.00" y1="63.02" x2="720.00" y2="63.02"/>
    <line x1="80.00" y1="62.37" x2="720.00" y2="62.37"/>
    <line x1="80.00" y1="61.05" x2="720.00" y2="61.05"/>
    <line x1="80.00" y1="60.40" x2="720.00" y2="60.40"/>
  </g>
  <g stroke="#808080" stroke-width="2">
    <line x1="200.42" y1="540.00" x2="200.42" y2="60.00"/>
    <line x1="80.00" y1="143.76" x2="720.00" y2="143.76"/>
  </g>
  <polyline fill="none" stroke="#0066cc" stroke-width="2" points="200.75,143.76 202.84,143.59 204.94,143.17 207.03,142.49 209.07,141.54 210.95,140.33 212.56,138.92 213.72,137.39 214.28,135.90 214.13,134.62 213.25,133.73 211.76,133.35 209.87,133.52 207.83,134.19 205.85,135.26 204.10,136.59 202.67,138.07 201.59,139.63 200.86,141.20 200.48,142.77 200.44,144.34 200.73,145.91 201.38,147.53 202.43,149.27 204.02,151.23 206.39,153.62 210.10,156.89 216.64,162.14 231.37,173.41 300.55,225.41 80.00,60.00 159.57,119.57 175.42,131.23 182.64,136.31 187.08,139.17 190.31,140.99 192.95,142.20 195.27,143.01 197.44,143.51 199.54,143.74 201.63,143.72 203.72,143.45 205.82,142.92 207.90,142.12 209.89,141.06 211.67,139.76 213.11,138.28 214.04,136.75 214.31,135.32 213.84,134.19 212.69,133.50 211.00,133.36 209.02,133.75 206.98,134.60 205.08,135.79 203.46,137.20 202.17,138.72 201.24,140.29 200.66,141.86 200.43,143.43 200.52,145.00 200.96,146.58 201.76,148.24 203.02,150.06 204.90,152.17 207.74,154.85 212.36,158.74 221.18,165.65 245.33,183.94 720.00,540.00 134.98,101.20 168.18,125.94 178.99,133.78 184.72,137.69 188.54,140.03 191.47,141.56 193.95,142.58 196.20,143.25 198.33,143.64 200.42,143.76 "/>
</svg>
