<?xml version="1.0" encoding="UTF-8"?>
<svg xmlns="http://www.w3.org/2000/svg" width="800" height="600">
  <title>R=4*sin(3*t)/sin(2*t):.1,1.5:</title>
  <rect width="800" height="600" fill="#ffffff"/>
  <g stroke="#d0d0d0" stroke-width="1">
    <line x1="79.64" y1="540.00" x2="79.64" y2="60.00"/>
    <line x1="159.69" y1="540.00" x2="159.69" y2="60.00"/>
    <line x1="239.75" y1="540.00" x2="239.75" y2="60.00"/>
    <line x1="319.81" y1="540.00" x2="319.81" y2="60.00"/>
    <line x1="399.86" y1="540.00" x2="399.86" y2="60.00"/>
    <line x1="479.92" y1="540.00" x2="479.92" y2="60.00"/>
    <line x1="559.98" y1="540.00" x2="559.98" y2="60.00"/>
    <line x1="640.03" y1="540.00" x2="640.03" y2="60.00"/>
    <line x1="720.09" y1="540.00" x2="720.09" y2="60.00"/>
    <line x1="80.00" y1="541.34" x2="720.00" y2="541.34"/>
    <line x1="80.00" y1="538.06" x2="720.00" y2="538.06"/>
    <line x1="80.00" y1="534.78" x2="720.00" y2="534.78"/>
    <line x1="80.00" y1="531.49" x2="720.00" y2="531.49"/>
    <line x1="80.00" y1="528.21" x2="720.00" y2="528.21"/>
    <line x1="80.00" y1="524.93" x2="720.00" y2="524.93"/>
    <line x1="80.00" y1="521.65" x2="720.00" y2="521.65"/>
    <line x1="80.00" y1="518.36" x2="720.00" y2="518.36"/>
    <line x1="80.00" y1="515.08" x2="720.00" y2="515.08"/>
    <line x1="80.00" y1="511.80" x2="720.00" y2="511.80"/>
    <line x1="80.00" y1="508.51" x2="720.00" y2="508.51"/>
    <line x1="80.00" y1="505.23" x2="720.00" y2="505.23"/>
    <line x1="80.00" y1="501.95" x2="720.00" y2="501.95"/>
    <line x1="80.00" y1="498.66" x2="720.00" y2="498.66"/>
    <line x1="80.00" y1="495.38" x2="720.00" y2="495.38"/>
    <line x1="80.00" y1="492.10" x2="720.00" y2="492.10"/>
    <line x1="80.00" y1="488.82" x2="720.00" y2="488.82"/>
    <line x1="80.00" y1="485.53" x2="720.00" y2="485.53"/>
    <line x1="80.00" y1="482.25" x2="720.00" y2="482.25"/>
    <line x1="80.00" y1="478.97" x2="720.00" y2="478.97"/>
    <line x1="80.00" y1="475.68" x2="720.00" y2="475.68"/>
    <line x1="80.00" y1="472.40" x2="720.00" y2="472.40"/>
    <line x1="80.00" y1="469.12" x2="720.00" y2="469.12"/>
    <line x1="80.00" y1="465.83" x2="720.00" y2="465.83"/>
    <line x1="80.00" y1="462.55" x2="720.00" y2="462.55"/>
    <line x1="80.00" y1="459.27" x2="720.00" y2="459.27"/>
    <line x1="80.00" y1="455.98" x2="720.00" y2="455.98"/>
    <line x1="80.00" y1="452.70" x2="720.00" y2="452.70"/>
    <line x1="80.00" y1="449.42" x2="720.00" y2="449.42"/>
    <line x1="80.00" y1="446.14" x2="720.00" y2="446.14"/>
    <line x1="80.00" y1="442.85" x2="720.00" y2="442.85"/>
    <line x1="80.00" y1="439.57" x2="720.00" y2="439.57"/>
    <line x1="80.00" y1="436.29" x2="720.00" y2="436.29"/>
    <line x1="80.00" y1="433.00" x2="720.00" y2="433.00"/>
    <line x1="80.00" y1="429.72" x2="720.00" y2="429.72"/>
    <line x1="80.00" y1="426.44" x2="720.00" y2="426.44"/>
    <line x1="80.00" y1="423.15" x2="720.00" y2="423.15"/>
    <line x1="80.00" y1="419.87" x2="720.00" y2="419.87"/>
    <line x1="80.00" y1="416.59" x2="720.00" y2="416.59"/>
    <line x1="80.00" y1="413.30" x2="720.00" y2="413.30"/>
    <line x1="80.00" y1="410.02" x2="720.00" y2="410.02"/>
    <line x1="80.00" y1="406.74" x2="720.00" y2="406.74"/>
    <line x1="80.00" y1="403.46" x2="720.00" y2="403.46"/>
    <line x1="80.00" y1="400.17" x2="720.00" y2="400.17"/>
    <line x1="80.00" y1="396.89" x2="720.00" y2="396.89"/>
    <line x1="80.00" y1="393.61" x2="720.00" y2="393.61"/>
    <line x1="80.00" y1="390.32" x2="720.00" y2="390.32"/>
    <line x1="80.00" y1="387.04" x2="720.00" y2="387.04"/>
    <line x1="80.00" y1="383.76" x2="720.00" y2="383.76"/>
    <line x1="80.00" y1="380.47" x2="720.00" y2="380.47"/>
    <line x1="80.00" y1="377.19" x2="720.00" y2="377.19"/>
    <line x1="80.00" y1="373.91" x2="720.00" y2="373.91"/>
    <line x1="80.00" y1="370.63" x2="720.00" y2="370.63"/>
    <line x1="80.00" y1="367.34" x2="720.00" y2="367.34"/>
    <line x1="80.00" y1="364.06" x2="720.00" y2="364.06"/>
    <line x1="80.00" y1="360.78" x2="720.00" y2="360.78"/>
    <line x1="80.00" y1="357.49" x2="720.00" y2="357.49"/>
    <line x1="80.00" y1="354.21" x2="720.00" y2="354.21"/>
    <line x1="80.00" y1="350.93" x2="720.00" y2="350.93"/>
    <line x1="80.00" y1="347.64" x2="720.00" y2="347.64"/>
    <line x1="80.00" y1="344.36" x2="720.00" y2="344.36"/>
    <line x1="80.00" y1="341.08" x2="720.00" y2="341.08"/>
    <line x1="80.00" y1="337.79" x2="720.00" y2="337.79"/>
    <line x1="80.00" y1="334.51" x2="720.00" y2="334.51"/>
    <line x1="80.00" y1="331.23" x2="720.00" y2="331.23"/>
    <line x1="80.00" y1="327.95" x2="720.00" y2="327.95"/>
    <line x1="80.00" y1="324.66" x2="720.00" y2="324.66"/>
    <line x1="80.00" y1="321.38" x2="720.00" y2="321.38"/>
    <line x1="80.00" y1="318.10" x2="720.00" y2="318.10"/>
    <line x1="80.00" y1="314.81" x2="720.00" y2="314.81"/>
    <line x1="80.00" y1="311.53" x2="720.00" y2="311.53"/>
    <line x1="80.00" y1="308.25" x2="720.00" y2="308.25"/>
    <line x1="80.00" y1="304.96" x2="720.00" y2="304.96"/>
    <line x1="80.00" y1="301.68" x2="720.00" y2="301.68"/>
    <line x1="80.00" y1="298.40" x2="720.00" y2="298.40"/>
    <line x1="80.00" y1="295.12" x2="720.00" y2="295.12"/>
    <line x1="80.00" y1="291.83" x2="720.00" y2="291.83"/>
    <line x1="80.00" y1="288.55" x2="720.00" y2="288.55"/>
    <line x1="80.00" y1="285.27" x2="720.00" y2="285.27"/>
    <line x1="80.00" y1="281.98" x2="720.00" y2="281.98"/>
    <line x1="80.00" y1="278.70" x2="720.00" y2="278.70"/>
    <line x1="80.00" y1="275.42" x2="720.00" y2="275.42"/>
    <line x1="80.00" y1="272.13" x2="720.00" y2="272.13"/>
    <line x1="80.00" y1="268.85" x2="720.00" y2="268.85"/>
    <line x1="80.00" y1="265.57" x2="720.00" y2="265.57"/>
    <line x1="80.00" y1="262.28" x2="720.00" y2="262.28"/>
    <line x1="80.00" y1="259.00" x2="720.00" y2="259.00"/>
    <line x1="80.00" y1="255.72" x2="720.00" y2="255.72"/>
    <line x1="80.00" y1="252.44" x2="720.00" y2="252.44"/>
    <line x1="80.00" y1="249.15" x2="720.00" y2="249.15"/>
    <line x1="80.00" y1="245.87" x2="720.00" y2="245.87"/>
    <line x1="80.00" y1="242.59" x2="720.00" y2="242.59"/>
    <line x1="80.00" y1="239.30" x2="720.00" y2="239.30"/>
    <line x1="80.00" y1="236.02" x2="720.00" y2="236.02"/>
    <line x1="80.00" y1="232.74" x2="720.00" y2="232.74"/>
    <line x1="80.00" y1="229.45" x2="720.00" y2="229.45"/>
    <line x1="80.00" y1="226.17" x2="720.00" y2="226.17"/>
    <line x1="80.00" y1="222.89" x2="720.00" y2="222.89"/>
    <line x1="80.00" y1="219.61" x2="720.00" y2="219.61"/>
    <line x1="80.00" y1="216.32" x2="720.00" y2="216.32"/>
    <line x1="80.00" y1="213.04" x2="720.00" y2="213.04"/>
    <line x1="80.00" y1="209.76" x2="720.00" y2="209.76"/>
    <line x1="80.00" y1="206.47" x2="720.00" y2="206.47"/>
    <line x1="80.00" y1="203.19" x2="720.00" y2="203.19"/>
    <line x1="80.00" y1="199.91" x2="720.00" y2="199.91"/>
    <line x1="80.00" y1="196.62" x2="720.00" y2="196.62"/>
    <line x1="80.00" y1="193.34" x2="720.00" y2="193.34"/>
    <line x1="80.00" y1="190.06" x2="720.00" y2="190.06"/>
    <line x1="80.00" y1="186.77" x2="720.00" y2="186.77"/>
    <line x1="80.00" y1="183.49" x2="720.00" y2="183.49"/>
    <line x1="80.00" y1="180.21" x2="720.00" y2="180.21"/>
    <line x1="80.00" y1="176.93" x2="720.00" y2="176.93"/>
    <line x1="80.00" y1="173.64" x2="720.00" y2="173.64"/>
    <line x1="80.00" y1="170.36" x2="720.00" y2="170.36"/>
    <line x1="80.00" y1="167.08" x2="720.00" y2="167.08"/>
    <line x1="80.00" y1="163.79" x2="720.00" y2="163.79"/>
    <line x1="80.00" y1="160.51" x2="720.00" y2="160.51"/>
    <line x1="80.00" y1="157.23" x2="720.00" y2="157.23"/>
    <line x1="80.00" y1="153.94" x2="720.00" y2="153.94"/>
    <line x1="80.00" y1="150.66" x2="720.00" y2="150.66"/>
    <line x1="80.00" y1="147.38" x2="720.00" y2="147.38"/>
    <line x1="80.00" y1="144.09" x2="720.00" y2="144.09"/>
    <line x1="80.00" y1="140.81" x2="720.00" y2="140.81"/>
    <line x1="80.00" y1="137.53" x2="720.00" y2="137.53"/>
    <line x1="80.00" y1="134.25" x2="720.00" y2="134.25"/>
    <line x1="80.00" y1="130.96" x2="720.00" y2="130.96"/>
    <line x1="80.00" y1="127.68" x2="720.00" y2="127.68"/>
    <line x1="80.00" y1="124.40" x2="720.00" y2="124.40"/>
    <line x1="80.00" y1="121.11" x2="720.00" y2="121.11"/>
    <line x1="80.00" y1="117.83" x2="720.00" y2="117.83"/>
    <line x1="80.00" y1="114.55" x2="720.00" y2="114.55"/>
    <line x1="80.00" y1="111.26" x2="720.00" y2="111.26"/>
    <line x1="80.00" y1="107.98" x2="720.00" y2="107.98"/>
    <line x1="80.00" y1="104.70" x2="720.00" y2="104.70"/>
    <line x1="80.00" y1="101.42" x2="720.00" y2="101.42"/>
    <line x1="80.00" y1="98.13" x2="720.00" y2="98.13"/>
    <line x1="80.00" y1="94.85" x2="720.00" y2="94.85"/>
    <line x1="80.00" y1="91.57" x2="720.00" y2="91.57"/>
    <line x1="80.00" y1="88.28" x2="720.00" y2="88.28"/>
    <line x1="80.00" y1="85.00" x2="720.00" y2="85.00"/>
    <line x1="80.00" y1="81.72" x2="720.00" y2="81.72"/>
    <line x1="80.00" y1="78.43" x2="720.00" y2="78.43"/>
    <line x1="80.00" y1="75.15" x2="720.00" y2="75.15"/>
    <line x1="80.00" y1="71.87" x2="720.00" y2="71.87"/>
    <line x1="80.00" y1="68.58" x2="720.00" y2="68.58"/>
    <line x1="80.00" y1="65.30" x2="720.00" y2="65.30"/>
    <line x1="80.00" y1="62.02" x2="720.00" y2="62.02"/>
    <line x1="80.00" y1="58.74" x2="720.00" y2="58.74"/>
  </g>
  <g stroke="#e8e8e8" stroke-width="0.5">
    <line x1="95.65" y1="540.00" x2="95.65" y2="60.00"/>
    <line x1="111.66" y1="540.00" x2="111.66" y2="60.00"/>
    <line x1="127.67" y1="540.00" x2="127.67" y2="60.00"/>
    <line x1="143.68" y1="540.00" x2="143.68" y2="60.00"/>
    <line x1="175.70" y1="540.00" x2="175.70" y2="60.00"/>
    <line x1="191.72" y1="540.00" x2="191.72" y2="60.00"/>
    <line x1="207.73" y1="540.00" x2="207.73" y2="60.00"/>
    <line x1="223.74" y1="540.00" x2="223.74" y2="60.00"/>
    <line x1="255.76" y1="540.00" x2="255.76" y2="60.00"/>
    <line x1="271.77" y1="540.00" x2="271.77" y2="60.00"/>
    <line x1="287.78" y1="540.00" x2="287.78" y2="60.00"/>
    <line x1="303.79" y1="540.00" x2="303.79" y2="60.00"/>
    <line x1="335.82" y1="540.00" x2="335.82" y2="60.00"/>
    <line x1="351.83" y1="540.00" x2="351.83" y2="60.00"/>
    <line x1="367.84" y1="540.00" x2="367.84" y2="60.00"/>
    <line x1="383.85" y1="540.00" x2="383.85" y2="60.00"/>
    <line x1="415.87" y1="540.00" x2="415.87" y2="60.00"/>
    <line x1="431.89" y1="540.00" x2="431.89" y2="60.00"/>
    <line x1="447.90" y1="540.00" x2="447.90" y2="60.00"/>
    <line x1="463.91" y1="540.00" x2="463.91" y2="60.00"/>
    <line x1="495.93" y1="540.00" x2="495.93" y2="60.00"/>
    <line x1="511.94" y1="540.00" x2="511.94" y2="60.00"/>
    <line x1="527.95" y1="540.00" x2="527.95" y2="60.00"/>
    <line x1="543.97" y1="540.00" x2="543.97" y2="60.00"/>
    <line x1="575.99" y1="540.00" x2="575.99" y2="60.00"/>
    <line x1="592.00" y1="540.00" x2="592.00" y2="60.00"/>
    <line x1="608.01" y1="540.00" x2="608.01" y2="60.00"/>
    <line x1="624.02" y1="540.00" x2="624.02" y2="60.00"/>
    <line x1="656.05" y1="540.00" x2="656.05" y2="60.00"/>
    <line x1="672.06" y1="540.00" x2="672.06" y2="60.00"/>
    <line x1="688.07" y1="540.00" x2="688.07" y2="60.00"/>
    <line x1="704.08" y1="540.00" x2="704.08" y2="60.00"/>
    <line x1="80.00" y1="539.37" x2="720.00" y2="539.37"/>
    <line x1="80.00" y1="538.72" x2="720.00" y2="538.72"/>
    <line x1="80.00" y1="537.40" x2="720.00" y2="537.40"/>
    <line x1="80.00" y1="536.75" x2="720.00" y2="536.75"/>
    <line x1="80.00" y1="536.09" x2="720.00" y2="536.09"/>
    <line x1="80.00" y1="535.43" x2="720.00" y2="535.43"/>
    <line x1="80.00" y1="534.12" x2="720.00" y2="534.12"/>
    <line x1="80.00" y1="533.46" x2="720.00" y2="533.46"/>
    <line x1="80.00" y1="532.81" x2="720.00" y2="532.81"/>
    <line x1="80.00" y1="532.15" x2="720.00" y2="532.15"/>
    <line x1="80.00" y1="530.84" x2="720.00" y2="530.84"/>
    <line x1="80.00" y1="530.18" x2="720.00" y2="530.18"/>
    <line x1="80.00" y1="529.52" x2="720.00" y2="529.52"/>
    <line x1="80.00" y1="528.87" x2="720.00" y2="528.87"/>
    <line x1="80.00" y1="527.56" x2="720.00" y2="527.56"/>
    <line x1="80.00" y1="526.90" x2="720.00" y2="526.90"/>
    <line x1="80.00" y1="526.24" x2="720.00" y2="526.24"/>
    <line x1="80.00" y1="525.59" x2="720.00" y2="525.59"/>
    <line x1="80.00" y1="524.27" x2="720.00" y2="524.27"/>
    <line x1="80.00" y1="523.62" x2="720.00" y2="523.62"/>
    <line x1="80.00" y1="522.96" x2="720.00" y2="522.96"/>
    <line x1="80.00" y1="522.30" x2="720.00" y2="522.30"/>
    <line x1="80.00" y1="520.99" x2="720.00" y2="520.99"/>
    <line x1="80.00" y1="520.33" x2="720.00" y2="520.33"/>
    <line x1="80.00" y1="519.68" x2="720.00" y2="519.68"/>
    <line x1="80.00" y1="519.02" x2="720.00" y2="519.02"/>
    <line x1="80.00" y1="517.71" x2="720.00" y2="517.71"/>
    <line x1="80.00" y1="517.05" x2="720.00" y2="517.05"/>
    <line x1="80.00" y1="516.39" x2="720.00" y2="516.39"/>
    <line x1="80.00" y1="515.74" x2="720.00" y2="515.74"/>
    <line x1="80.00" y1="514.42" x2="720.00" y2="514.42"/>
    <line x1="80.00" y1="513.77" x2="720.00" y2="513.77"/>
    <line x1="80.00" y1="513.11" x2="720.00" y2="513.11"/>
    <line x1="80.00" y1="512.45" x2="720.00" y2="512.45"/>
    <line x1="80.00" y1="511.14" x2="720.00" y2="511.14"/>
    <line x1="80.00" y1="510.48" x2="720.00" y2="510.48"/>
    <line x1="80.00" y1="509.83" x2="720.00" y2="509.83"/>
    <line x1="80.00" y1="509.17" x2="720.00" y2="509.17"/>
    <line x1="80.00" y1="507.86" x2="720.00" y2="507.86"/>
    <line x1="80.00" y1="507.20" x2="720.00" y2="507.20"/>
    <line x1="80.00" y1="506.54" x2="720.00" y2="506.54"/>
    <line x1="80.00" y1="505.89" x2="720.00" y2="505.89"/>
    <line x1="80.00" y1="504.57" x2="720.00" y2="504.57"/>
    <line x1="80.00" y1="503.92" x2="720.00" y2="503.92"/>
    <line x1="80.00" y1="503.26" x2="720.00" y2="503.26"/>
    <line x1="80.00" y1="502.60" x2="720.00" y2="502.60"/>
    <line x1="80.00" y1="501.29" x2="720.00" y2="501.29"/>
    <line x1="80.00" y1="500.63" x2="720.00" y2="500.63"/>
    <line x1="80.00" y1="499.98" x2="720.00" y2="499.98"/>
    <line x1="80.00" y1="499.32" x2="720.00" y2="499.32"/>
    <line x1="80.00" y1="498.01" x2="720.00" y2="498.01"/>
    <line x1="80.00" y1="497.35" x2="720.00" y2="497.35"/>
    <line x1="80.00" y1="496.69" x2="720.00" y2="496.69"/>
    <line x1="80.00" y1="496.04" x2="720.00" y2="496.04"/>
    <line x1="80.00" y1="494.72" x2="720.00" y2="494.72"/>
    <line x1="80.00" y1="494.07" x2="720.00" y2="494.07"/>
    <line x1="80.00" y1="493.41" x2="720.00" y2="493.41"/>
    <line x1="80.00" y1="492.75" x2="720.00" y2="492.75"/>
    <line x1="80.00" y1="491.44" x2="720.00" y2="491.44"/>
    <line x1="80.00" y1="490.78" x2="720.00" y2="490.78"/>
    <line x1="80.00" y1="490.13" x2="720.00" y2="490.13"/>
    <line x1="80.00" y1="489.47" x2="720.00" y2="489.47"/>
    <line x1="80.00" y1="488.16" x2="720.00" y2="488.16"/>
    <line x1="80.00" y1="487.50" x2="720.00" y2="487.50"/>
    <line x1="80.00" y1="486.85" x2="720.00" y2="486.85"/>
    <line x1="80.00" y1="486.19" x2="720.00" y2="486.19"/>
    <line x1="80.00" y1="484.88" x2="720.00" y2="484.88"/>
    <line x1="80.00" y1="484.22" x2="720.00" y2="484.22"/>
    <line x1="80.00" y1="483.56" x2="720.00" y2="483.56"/>
    <line x1="80.00" y1="482.91" x2="720.00" y2="482.91"/>
    <line x1="80.00" y1="481.59" x2="720.00" y2="481.59"/>
    <line x1="80.00" y1="480.94" x2="720.00" y2="480.94"/>
    <line x1="80.00" y1="480.28" x2="720.00" y2="480.28"/>
    <line x1="80.00" y1="479.62" x2="720.00" y2="479.62"/>
    <line x1="80.00" y1="478.31" x2="720.00" y2="478.31"/>
    <line x1="80.00" y1="477.65" x2="720.00" y2="477.65"/>
    <line x1="80.00" y1="477.00" x2="720.00" y2="477.00"/>
    <line x1="80.00" y1="476.34" x2="720.00" y2="476.34"/>
    <line x1="80.00" y1="475.03" x2="720.00" y2="475.03"/>
    <line x1="80.00" y1="474.37" x2="720.00" y2="474.37"/>
    <line x1="80.00" y1="473.71" x2="720.00" y2="473.71"/>
    <line x1="80.00" y1="473.06" x2="720.00" y2="473.06"/>
    <line x1="80.00" y1="471.74" x2="720.00" y2="471.74"/>
    <line x1="80.00" y1="471.09" x2="720.00" y2="471.09"/>
    <line x1="80.00" y1="470.43" x2="720.00" y2="470.43"/>
    <line x1="80.00" y1="469.77" x2="720.00" y2="469.77"/>
    <line x1="80.00" y1="468.46" x2="720.00" y2="468.46"/>
    <line x1="80.00" y1="467.80" x2="720.00" y2="467.80"/>
    <line x1="80.00" y1="467.15" x2="720.00" y2="467.15"/>
    <line x1="80.00" y1="466.49" x2="720.00" y2="466.49"/>
    <line x1="80.00" y1="465.18" x2="720.00" y2="465.18"/>
    <line x1="80.00" y1="464.52" x2="720.00" y2="464.52"/>
    <line x1="80.00" y1="463.86" x2="720.00" y2="463.86"/>
    <line x1="80.00" y1="463.21" x2="720.00" y2="463.21"/>
    <line x1="80.00" y1="461.89" x2="720.00" y2="461.89"/>
    <line x1="80.00" y1="461.24" x2="720.00" y2="461.24"/>
    <line x1="80.00" y1="460.58" x2="720.00" y2="460.58"/>
    <line x1="80.00" y1="459.92" x2="720.00" y2="459.92"/>
    <line x1="80.00" y1="458.61" x2="720.00" y2="458.61"/>
    <line x1="80.00" y1="457.95" x2="720.00" y2="457.95"/>
    <line x1="80.00" y1="457.30" x2="720.00" y2="457.30"/>
    <line x1="80.00" y1="456.64" x2="720.00" y2="456.64"/>
    <line x1="80.00" y1="455.33" x2="720.00" y2="455.33"/>
    <line x1="80.00" y1="454.67" x2="720.00" y2="454.67"/>
    <line x1="80.00" y1="454.01" x2="720.00" y2="454.01"/>
    <line x1="80.00" y1="453.36" x2="720.00" y2="453.36"/>
    <line x1="80.00" y1="452.04" x2="720.00" y2="452.04"/>
    <line x1="80.00" y1="451.39" x2="720.00" y2="451.39"/>
    <line x1="80.00" y1="450.73" x2="720.00" y2="450.73"/>
    <line x1="80.00" y1="450.08" x2="720.00" y2="450.08"/>
    <line x1="80.00" y1="448.76" x2="720.00" y2="448.76"/>
    <line x1="80.00" y1="448.11" x2="720.00" y2="448.11"/>
    <line x1="80.00" y1="447.45" x2="720.00" y2="447.45"/>
    <line x1="80.00" y1="446.79" x2="720.00" y2="446.79"/>
    <line x1="80.00" y1="445.48" x2="720.00" y2="445.48"/>
    <line x1="80.00" y1="444.82" x2="720.00" y2="444.82"/>
    <line x1="80.00" y1="444.17" x2="720.00" y2="444.17"/>
    <line x1="80.00" y1="443.51" x2="720.00" y2="443.51"/>
    <line x1="80.00" y1="442.20" x2="720.00" y2="442.20"/>
    <line x1="80.00" y1="441.54" x2="720.00" y2="441.54"/>
    <line x1="80.00" y1="440.88" x2="720.00" y2="440.88"/>
    <line x1="80.00" y1="440.23" x2="720.00" y2="440.23"/>
    <line x1="80.00" y1="438.91" x2="720.00" y2="438.91"/>
    <line x1="80.00" y1="438.26" x2="720.00" y2="438.26"/>
    <line x1="80.00" y1="437.60" x2="720.00" y2="437.60"/>
    <line x1="80.00" y1="436.94" x2="720.00" y2="436.94"/>
    <line x1="80.00" y1="435.63" x2="720.00" y2="435.63"/>
    <line x1="80.00" y1="434.97" x2="720.00" y2="434.97"/>
    <line x1="80.00" y1="434.32" x2="720.00" y2="434.32"/>
    <line x1="80.00" y1="433.66" x2="720.00" y2="433.66"/>
    <line x1="80.00" y1="432.35" x2="720.00" y2="432.35"/>
    <line x1="80.00" y1="431.69" x2="720.00" y2="431.69"/>
    <line x1="80.00" y1="431.03" x2="720.00" y2="431.03"/>
    <line x1="80.00" y1="430.38" x2="720.00" y2="430.38"/>
    <line x1="80.00" y1="429.06" x2="720.00" y2="429.06"/>
    <line x1="80.00" y1="428.41" x2="720.00" y2="428.41"/>
    <line x1="80.00" y1="427.75" x2="720.00" y2="427.75"/>
    <line x1="80.00" y1="427.09" x2="720.00" y2="427.09"/>
    <line x1="80.00" y1="425.78" x2="720.00" y2="425.78"/>
    <line x1="80.00" y1="425.12" x2="720.00" y2="425.12"/>
    <line x1="80.00" y1="424.47" x2="720.00" y2="424.47"/>
    <line x1="80.00" y1="423.81" x2="720.00" y2="423.81"/>
    <line x1="80.00" y1="422.50" x2="720.00" y2="422.50"/>
    <line x1="80.00" y1="421.84" x2="720.00" y2="421.84"/>
    <line x1="80.00" y1="421.18" x2="720.00" y2="421.18"/>
    <line x1="80.00" y1="420.53" x2="720.00" y2="420.53"/>
    <line x1="80.00" y1="419.21" x2="720.00" y2="419.21"/>
    <line x1="80.00" y1="418.56" x2="720.00" y2="418.56"/>
    <line x1="80.00" y1="417.90" x2="720.00" y2="417.90"/>
    <line x1="80.00" y1="417.24" x2="720.00" y2="417.24"/>
    <line x1="80.00" y1="415.93" x2="720.00" y2="415.93"/>
    <line x1="80.00" y1="415.27" x2="720.00" y2="415.27"/>
    <line x1="80.00" y1="414.62" x2="720.00" y2="414.62"/>
    <line x1="80.00" y1="413.96" x2="720.00" y2="413.96"/>
    <line x1="80.00" y1="412.65" x2="720.00" y2="412.65"/>
    <line x1="80.00" y1="411.99" x2="720.00" y2="411.99"/>
    <line x1="80.00" y1="411.34" x2="720.00" y2="411.34"/>
    <line x1="80.00" y1="410.68" x2="720.00" y2="410.68"/>
    <line x1="80.00" y1="409.37" x2="720.00" y2="409.37"/>
    <line x1="80.00" y1="408.71" x2="720.00" y2="408.71"/>
    <line x1="80.00" y1="408.05" x2="720.00" y2="408.05"/>
    <line x1="80.00" y1="407.40" x2="720.00" y2="407.40"/>
    <line x1="80.00" y1="406.08" x2="720.00" y2="406.08"/>
    <line x1="80.00" y1="405.43" x2="720.00" y2="405.43"/>
    <line x1="80.00" y1="404.77" x2="720.00" y2="404.77"/>
    <line x1="80.00" y1="404.11" x2="720.00" y2="404.11"/>
    <line x1="80.00" y1="402.80" x2="720.00" y2="402.80"/>
    <line x1="80.00" y1="402.14" x2="720.00" y2="402.14"/>
    <line x1="80.00" y1="401.49" x2="720.00" y2="401.49"/>
    <line x1="80.00" y1="400.83" x2="720.00" y2="400.83"/>
    <line x1="80.00" y1="399.52" x2="720.00" y2="399.52"/>
    <line x1="80.00" y1="398.86" x2="720.00" y2="398.86"/>
    <line x1="80.00" y1="398.20" x2="720.00" y2="398.20"/>
    <line x1="80.00" y1="397.55" x2="720.00" y2="397.55"/>
    <line x1="80.00" y1="396.23" x2="720.00" y2="396.23"/>
    <line x1="80.00" y1="395.58" x2="720.00" y2="395.58"/>
    <line x1="80.00" y1="394.92" x2="720.00" y2="394.92"/>
    <line x1="80.00" y1="394.26" x2="720.00" y2="394.26"/>
    <line x1="80.00" y1="392.95" x2="720.00" y2="392.95"/>
    <line x1="80.00" y1="392.29" x2="720.00" y2="392.29"/>
    <line x1="80.00" y1="391.64" x2="720.00" y2="391.64"/>
    <line x1="80.00" y1="390.98" x2="720.00" y2="390.98"/>
    <line x1="80.00" y1="389.67" x2="720.00" y2="389.67"/>
    <line x1="80.00" y1="389.01" x2="720.00" y2="389.01"/>
    <line x1="80.00" y1="388.35" x2="720.00" y2="388.35"/>
    <line x1="80.00" y1="387.70" x2="720.00" y2="387.70"/>
    <line x1="80.00" y1="386.38" x2="720.00" y2="386.38"/>
    <line x1="80.00" y1="385.73" x2="720.00" y2="385.73"/>
    <line x1="80.00" y1="385.07" x2="720.00" y2="385.07"/>
    <line x1="80.00" y1="384.41" x2="720.00" y2="384.41"/>
    <line x1="80.00" y1="383.10" x2="720.00" y2="383.10"/>
    <line x1="80.00" y1="382.44" x2="720.00" y2="382.44"/>
    <line x1="80.00" y1="381.79" x2="720.00" y2="381.79"/>
    <line x1="80.00" y1="381.13" x2="720.00" y2="381.13"/>
    <line x1="80.00" y1="379.82" x2="720.00" y2="379.82"/>
    <line x1="80.00" y1="379.16" x2="720.00" y2="379.16"/>
    <line x1="80.00" y1="378.50" x2="720.00" y2="378.50"/>
    <line x1="80.00" y1="377.85" x2="720.00" y2="377.85"/>
    <line x1="80.00" y1="376.53" x2="720.00" y2="376.53"/>
    <line x1="80.00" y1="375.88" x2="720.00" y2="375.88"/>
    <line x1="80.00" y1="375.22" x2="720.00" y2="375.22"/>
    <line x1="80.00" y1="374.56" x2="720.00" y2="374.56"/>
    <line x1="80.00" y1="373.25" x2="720.00" y2="373.25"/>
    <line x1="80.00" y1="372.60" x2="720.00" y2="372.60"/>
    <line x1="80.00" y1="371.94" x2="720.00" y2="371.94"/>
    <line x1="80.00" y1="371.28" x2="720.00" y2="371.28"/>
    <line x1="80.00" y1="369.97" x2="720.00" y2="369.97"/>
    <line x1="80.00" y1="369.31" x2="720.00" y2="369.31"/>
    <line x1="80.00" y1="368.66" x2="720.00" y2="368.66"/>
    <line x1="80.00" y1="368.00" x2="720.00" y2="368.00"/>
    <line x1="80.00" y1="366.69" x2="720.00" y2="366.69"/>
    <line x1="80.00" y1="366.03" x2="720.00" y2="366.03"/>
    <line x1="80.00" y1="365.37" x2="720.00" y2="365.37"/>
    <line x1="80.00" y1="364.72" x2="720.00" y2="364.72"/>
    <line x1="80.00" y1="363.40" x2="720.00" y2="363.40"/>
    <line x1="80.00" y1="362.75" x2="720.00" y2="362.75"/>
    <line x1="80.00" y1="362.09" x2="720.00" y2="362.09"/>
    <line x1="80.00" y1="361.43" x2="720.00" y2="361.43"/>
    <line x1="80.00" y1="360.12" x2="720.00" y2="360.12"/>
    <line x1="80.00" y1="359.46" x2="720.00" y2="359.46"/>
    <line x1="80.00" y1="358.81" x2="720.00" y2="358.81"/>
    <line x1="80.00" y1="358.15" x2="720.00" y2="358.15"/>
    <line x1="80.00" y1="356.84" x2="720.00" y2="356.84"/>
    <line x1="80.00" y1="356.18" x2="720.00" y2="356.18"/>
    <line x1="80.00" y1="355.52" x2="720.00" y2="355.52"/>
    <line x1="80.00" y1="354.87" x2="720.00" y2="354.87"/>
    <line x1="80.00" y1="353.55" x2="720.00" y2="353.55"/>
    <line x1="80.00" y1="352.90" x2="720.00" y2="352.90"/>
    <line x1="80.00" y1="352.24" x2="720.00" y2="352.24"/>
    <line x1="80.00" y1="351.58" x2="720.00" y2="351.58"/>
    <line x1="80.00" y1="350.27" x2="720.00" y2="350.27"/>
    <line x1="80.00" y1="349.61" x2="720.00" y2="349.61"/>
    <line x1="80.00" y1="348.96" x2="720.00" y2="348.96"/>
    <line x1="80.00" y1="348.30" x2="720.00" y2="348.30"/>
    <line x1="80.00" y1="346.99" x2="720.00" y2="346.99"/>
    <line x1="80.00" y1="346.33" x2="720.00" y2="346.33"/>
    <line x1="80.00" y1="345.67" x2="720.00" y2="345.67"/>
    <line x1="80.00" y1="345.02" x2="720.00" y2="345.02"/>
    <line x1="80.00" y1="343.70" x2="720.00" y2="343.70"/>
    <line x1="80.00" y1="343.05" x2="720.00" y2="343.05"/>
    <line x1="80.00" y1="342.39" x2="720.00" y2="342.39"/>
    <line x1="80.00" y1="341.73" x2="720.00" y2="341.73"/>
    <line x1="80.00" y1="340.42" x2="720.00" y2="340.42"/>
    <line x1="80.00" y1="339.76" x2="720.00" y2="339.76"/>
    <line x1="80.00" y1="339.11" x2="720.00" y2="339.11"/>
    <line x1="80.00" y1="338.45" x2="720.00" y2="338.45"/>
    <line x1="80.00" y1="337.14" x2="720.00" y2="337.14"/>
    <line x1="80.00" y1="336.48" x2="720.00" y2="336.48"/>
    <line x1="80.00" y1="335.83" x2="720.00" y2="335.83"/>
    <line x1="80.00" y1="335.17" x2="720.00" y2="335.17"/>
    <line x1="80.00" y1="333.86" x2="720.00" y2="333.86"/>
    <line x1="80.00" y1="333.20" x2="720.00" y2="333.20"/>
    <line x1="80.00" y1="332.54" x2="720.00" y2="332.54"/>
    <line x1="80.00" y1="331.89" x2="720.00" y2="331.89"/>
    <line x1="80.00" y1="330.57" x2="720.00" y2="330.57"/>
    <line x1="80.00" y1="329.92" x2="720.00" y2="329.92"/>
    <line x1="80.00" y1="329.26" x2="720.00" y2="329.26"/>
    <line x1="80.00" y1="328.60" x2="720.00" y2="328.60"/>
    <line x1="80.00" y1="327.29" x2="720.00" y2="327.29"/>
    <line x1="80.00" y1="326.63" x2="720.00" y2="326.63"/>
    <line x1="80.00" y1="325.98" x2="720.00" y2="325.98"/>
    <line x1="80.00" y1="325.32" x2="720.00" y2="325.32"/>
    <line x1="80.00" y1="324.01" x2="720.00" y2="324.01"/>
    <line x1="80.00" y1="323.35" x2="720.00" y2="323.35"/>
    <line x1="80.00" y1="322.69" x2="720.00" y2="322.69"/>
    <line x1="80.00" y1="322.04" x2="720.00" y2="322.04"/>
    <line x1="80.00" y1="320.72" x2="720.00" y2="320.72"/>
    <line x1="80.00" y1="320.07" x2="720.00" y2="320.07"/>
    <line x1="80.00" y1="319.41" x2="720.00" y2="319.41"/>
    <line x1="80.00" y1="318.75" x2="720.00" y2="318.75"/>
    <line x1="80.00" y1="317.44" x2="720.00" y2="317.44"/>
    <line x1="80.00" y1="316.78" x2="720.00" y2="316.78"/>
    <line x1="80.00" y1="316.13" x2="720.00" y2="316.13"/>
    <line x1="80.00" y1="315.47" x2="720.00" y2="315.47"/>
    <line x1="80.00" y1="314.16" x2="720.00" y2="314.16"/>
    <line x1="80.00" y1="313.50" x2="720.00" y2="313.50"/>
    <line x1="80.00" y1="312.84" x2="720.00" y2="312.84"/>
    <line x1="80.00" y1="312.19" x2="720.00" y2="312.19"/>
    <line x1="80.00" y1="310.87" x2="720.00" y2="310.87"/>
    <line x1="80.00" y1="310.22" x2="720.00" y2="310.22"/>
    <line x1="80.00" y1="309.56" x2="720.00" y2="309.56"/>
    <line x1="80.00" y1="308.90" x2="720.00" y2="308.90"/>
    <line x1="80.00" y1="307.59" x2="720.00" y2="307.59"/>
    <line x1="80.00" y1="306.93" x2="720.00" y2="306.93"/>
    <line x1="80.00" y1="306.28" x2="720.00" y2="306.28"/>
    <line x1="80.00" y1="305.62" x2="720.00" y2="305.62"/>
    <line x1="80.00" y1="304.31" x2="720.00" y2="304.31"/>
    <line x1="80.00" y1="303.65" x2="720.00" y2="303.65"/>
    <line x1="80.00" y1="302.99" x2="720.00" y2="302.99"/>
    <line x1="80.00" y1="302.34" x2="720.00" y2="302.34"/>
    <line x1="80.00" y1="301.02" x2="720.00" y2="301.02"/>
    <line x1="80.00" y1="300.37" x2="720.00" y2="300.37"/>
    <line x1="80.00" y1="299.71" x2="720.00" y2="299.71"/>
    <line x1="80.00" y1="299.05" x2="720.00" y2="299.05"/>
    <line x1="80.00" y1="297.74" x2="720.00" y2="297.74"/>
    <line x1="80.00" y1="297.09" x2="720.00" y2="297.09"/>
    <line x1="80.00" y1="296.43" x2="720.00" y2="296.43"/>
    <line x1="80.00" y1="295.77" x2="720.00" y2="295.77"/>
    <line x1="80.00" y1="294.46" x2="720.00" y2="294.46"/>
    <line x1="80.00" y1="293.80" x2="720.00" y2="293.80"/>
    <line x1="80.00" y1="293.15" x2="720.00" y2="293.15"/>
    <line x1="80.00" y1="292.49" x2="720.00" y2="292.49"/>
    <line x1="80.00" y1="291.18" x2="720.00" y2="291.18"/>
    <line x1="80.00" y1="290.52" x2="720.00" y2="290.52"/>
    <line x1="80.00" y1="289.86" x2="720.00" y2="289.86"/>
    <line x1="80.00" y1="289.21" x2="720.00" y2="289.21"/>
    <line x1="80.00" y1="287.89" x2="720.00" y2="287.89"/>
    <line x1="80.00" y1="287.24" x2="720.00" y2="287.24"/>
    <line x1="80.00" y1="286.58" x2="720.00" y2="286.58"/>
    <line x1="80.00" y1="285.92" x2="720.00" y2="285.92"/>
    <line x1="80.00" y1="284.61" x2="720.00" y2="284.61"/>
    <line x1="80.00" y1="283.95" x2="720.00" y2="283.95"/>
    <line x1="80.00" y1="283.30" x2="720.00" y2="283.30"/>
    <line x1="80.00" y1="282.64" x2="720.00" y2="282.64"/>
    <line x1="80.00" y1="281.33" x2="720.00" y2="281.33"/>
    <line x1="80.00" y1="280.67" x2="720.00" y2="280.67"/>
    <line x1="80.00" y1="280.01" x2="720.00" y2="280.01"/>
    <line x1="80.00" y1="279.36" x2="720.00" y2="279.36"/>
    <line x1="80.00" y1="278.04" x2="720.00" y2="278.04"/>
    <line x1="80.00" y1="277.39" x2="720.00" y2="277.39"/>
    <line x1="80.00" y1="276.73" x2="720.00" y2="276.73"/>
    <line x1="80.00" y1="276.07" x2="720.00" y2="276.07"/>
    <line x1="80.00" y1="274.76" x2="720.00" y2="274.76"/>
    <line x1="80.00" y1="274.10" x2="720.00" y2="274.10"/>
    <line x1="80.00" y1="273.45" x2="720.00" y2="273.45"/>
    <line x1="80.00" y1="272.79" x2="720.00" y2="272.79"/>
    <line x1="80.00" y1="271.48" x2="720.00" y2="271.48"/>
    <line x1="80.00" y1="270.82" x2="720.00" y2="270.82"/>
    <line x1="80.00" y1="270.16" x2="720.00" y2="270.16"/>
    <line x1="80.00" y1="269.51" x2="720.00" y2="269.51"/>
    <line x1="80.00" y1="268.19" x2="720.00" y2="268.19"/>
    <line x1="80.00" y1="267.54" x2="720.00" y2="267.54"/>
    <line x1="80.00" y1="266.88" x2="720.00" y2="266.88"/>
    <line x1="80.00" y1="266.22" x2="720.00" y2="266.22"/>
    <line x1="80.00" y1="264.91" x2="720.00" y2="264.91"/>
    <line x1="80.00" y1="264.25" x2="720.00" y2="264.25"/>
    <line x1="80.00" y1="263.60" x2="720.00" y2="263.60"/>
    <line x1="80.00" y1="262.94" x2="720.00" y2="262.94"/>
    <line x1="80.00" y1="261.63" x2="720.00" y2="261.63"/>
    <line x1="80.00" y1="260.97" x2="720.00" y2="260.97"/>
    <line x1="80.00" y1="260.31" x2="720.00" y2="260.31"/>
    <line x1="80.00" y1="259.66" x2="720.00" y2="259.66"/>
    <line x1="80.00" y1="258.35" x2="720.00" y2="258.35"/>
    <line x1="80.00" y1="257.69" x2="720.00" y2="257.69"/>
    <line x1="80.00" y1="257.03" x2="720.00" y2="257.03"/>
    <line x1="80.00" y1="256.38" x2="720.00" y2="256.38"/>
    <line x1="80.00" y1="255.06" x2="720.00" y2="255.06"/>
    <line x1="80.00" y1="254.41" x2="720.00" y2="254.41"/>
    <line x1="80.00" y1="253.75" x2="720.00" y2="253.75"/>
    <line x1="80.00" y1="253.09" x2="720.00" y2="253.09"/>
    <line x1="80.00" y1="251.78" x2="720.00" y2="251.78"/>
    <line x1="80.00" y1="251.12" x2="720.00" y2="251.12"/>
    <line x1="80.00" y1="250.47" x2="720.00" y2="250.47"/>
    <line x1="80.00" y1="249.81" x2="720.00" y2="249.81"/>
    <line x1="80.00" y1="248.50" x2="720.00" y2="248.50"/>
    <line x1="80.00" y1="247.84" x2="720.00" y2="247.84"/>
    <line x1="80.00" y1="247.18" x2="720.00" y2="247.18"/>
    <line x1="80.00" y1="246.53" x2="720.00" y2="246.53"/>
    <line x1="80.00" y1="245.21" x2="720.00" y2="245.21"/>
    <line x1="80.00" y1="244.56" x2="720.00" y2="244.56"/>
    <line x1="80.00" y1="243.90" x2="720.00" y2="243.90"/>
    <line x1="80.00" y1="243.24" x2="720.00" y2="243.24"/>
    <line x1="80.00" y1="241.93" x2="720.00" y2="241.93"/>
    <line x1="80.00" y1="241.27" x2="720.00" y2="241.27"/>
    <line x1="80.00" y1="240.62" x2="720.00" y2="240.62"/>
    <line x1="80.00" y1="239.96" x2="720.00" y2="239.96"/>
    <line x1="80.00" y1="238.65" x2="720.00" y2="238.65"/>
    <line x1="80.00" y1="237.99" x2="720.00" y2="237.99"/>
    <line x1="80.00" y1="237.33" x2="720.00" y2="237.33"/>
    <line x1="80.00" y1="236.68" x2="720.00" y2="236.68"/>
    <line x1="80.00" y1="235.36" x2="720.00" y2="235.36"/>
    <line x1="80.00" y1="234.71" x2="720.00" y2="234.71"/>
    <line x1="80.00" y1="234.05" x2="720.00" y2="234.05"/>
    <line x1="80.00" y1="233.39" x2="720.00" y2="233.39"/>
    <line x1="80.00" y1="232.08" x2="720.00" y2="232.08"/>
    <line x1="80.00" y1="231.42" x2="720.00" y2="231.42"/>
    <line x1="80.00" y1="230.77" x2="720.00" y2="230.77"/>
    <line x1="80.00" y1="230.11" x2="720.00" y2="230.11"/>
    <line x1="80.00" y1="228.80" x2="720.00" y2="228.80"/>
    <line x1="80.00" y1="228.14" x2="720.00" y2="228.14"/>
    <line x1="80.00" y1="227.48" x2="720.00" y2="227.48"/>
    <line x1="80.00" y1="226.83" x2="720.00" y2="226.83"/>
    <line x1="80.00" y1="225.51" x2="720.00" y2="225.51"/>
    <line x1="80.00" y1="224.86" x2="720.00" y2="224.86"/>
    <line x1="80.00" y1="224.20" x2="720.00" y2="224.20"/>
    <line x1="80.00" y1="223.54" x2="720.00" y2="223.54"/>
    <line x1="80.00" y1="222.23" x2="720.00" y2="222.23"/>
    <line x1="80.00" y1="221.57" x2="720.00" y2="221.57"/>
    <line x1="80.00" y1="220.92" x2="720.00" y2="220.92"/>
    <line x1="80.00" y1="220.26" x2="720.00" y2="220.26"/>
    <line x1="80.00" y1="218.95" x2="720.00" y2="218.95"/>
    <line x1="80.00" y1="218.29" x2="720.00" y2="218.29"/>
    <line x1="80.00" y1="217.64" x2="720.00" y2="217.64"/>
    <line x1="80.00" y1="216.98" x2="720.00" y2="216.98"/>
    <line x1="80.00" y1="215.67" x2="720.00" y2="215.67"/>
    <line x1="80.00" y1="215.01" x2="720.00" y2="215.01"/>
    <line x1="80.00" y1="214.35" x2="720.00" y2="214.35"/>
    <line x1="80.00" y1="213.70" x2="720.00" y2="213.70"/>
    <line x1="80.00" y1="212.38" x2="720.00" y2="212.38"/>
    <line x1="80.00" y1="211.73" x2="720.00" y2="211.73"/>
    <line x1="80.00" y1="211.07" x2="720.00" y2="211.07"/>
    <line x1="80.00" y1="210.41" x2="720.00" y2="210.41"/>
    <line x1="80.00" y1="209.10" x2="720.00" y2="209.10"/>
    <line x1="80.00" y1="208.44" x2="720.00" y2="208.44"/>
    <line x1="80.00" y1="207.79" x2="720.00" y2="207.79"/>
    <line x1="80.00" y1="207.13" x2="720.00" y2="207.13"/>
    <line x1="80.00" y1="205.82" x2="720.00" y2="205.82"/>
    <line x1="80.00" y1="205.16" x2="720.00" y2="205.16"/>
    <line x1="80.00" y1="204.50" x2="720.00" y2="204.50"/>
    <line x1="80.00" y1="203.85" x2="720.00" y2="203.85"/>
    <line x1="80.00" y1="202.53" x2="720.00" y2="202.53"/>
    <line x1="80.00" y1="201.88" x2="720.00" y2="201.88"/>
    <line x1="80.00" y1="201.22" x2="720.00" y2="201.22"/>
    <line x1="80.00" y1="200.56" x2="720.00" y2="200.56"/>
    <line x1="80.00" y1="199.25" x2="720.00" y2="199.25"/>
    <line x1="80.00" y1="198.59" x2="720.00" y2="198.59"/>
    <line x1="80.00" y1="197.94" x2="720.00" y2="197.94"/>
    <line x1="80.00" y1="197.28" x2="720.00" y2="197.28"/>
    <line x1="80.00" y1="195.97" x2="720.00" y2="195.97"/>
    <line x1="80.00" y1="195.31" x2="720.00" y2="195.31"/>
    <line x1="80.00" y1="194.65" x2="720.00" y2="194.65"/>
    <line x1="80.00" y1="194.00" x2="720.00" y2="194.00"/>
    <line x1="80.00" y1="192.68" x2="720.00" y2="192.68"/>
    <line x1="80.00" y1="192.03" x2="720.00" y2="192.03"/>
    <line x1="80.00" y1="191.37" x2="720.00" y2="191.37"/>
    <line x1="80.00" y1="190.71" x2="720.00" y2="190.71"/>
    <line x1="80.00" y1="189.40" x2="720.00" y2="189.40"/>
    <line x1="80.00" y1="188.74" x2="720.00" y2="188.74"/>
    <line x1="80.00" y1="188.09" x2="720.00" y2="188.09"/>
    <line x1="80.00" y1="187.43" x2="720.00" y2="187.43"/>
    <line x1="80.00" y1="186.12" x2="720.00" y2="186.12"/>
    <line x1="80.00" y1="185.46" x2="720.00" y2="185.46"/>
    <line x1="80.00" y1="184.80" x2="720.00" y2="184.80"/>
    <line x1="80.00" y1="184.15" x2="720.00" y2="184.15"/>
    <line x1="80.00" y1="182.83" x2="720.00" y2="182.83"/>
    <line x1="80.00" y1="182.18" x2="720.00" y2="182.18"/>
    <line x1="80.00" y1="181.52" x2="720.00" y2="181.52"/>
    <line x1="80.00" y1="180.87" x2="720.00" y2="180.87"/>
    <line x1="80.00" y1="179.55" x2="720.00" y2="179.55"/>
    <line x1="80.00" y1="178.90" x2="720.00" y2="178.90"/>
    <line x1="80.00" y1="178.24" x2="720.00" y2="178.24"/>
    <line x1="80.00" y1="177.58" x2="720.00" y2="177.58"/>
    <line x1="80.00" y1="176.27" x2="720.00" y2="176.27"/>
    <line x1="80.00" y1="175.61" x2="720.00" y2="175.61"/>
    <line x1="80.00" y1="174.96" x2="720.00" y2="174.96"/>
    <line x1="80.00" y1="174.30" x2="720.00" y2="174.30"/>
    <line x1="80.00" y1="172.99" x2="720.00" y2="172.99"/>
    <line x1="80.00" y1="172.33" x2="720.00" y2="172.33"/>
    <line x1="80.00" y1="171.67" x2="720.00" y2="171.67"/>
    <line x1="80.00" y1="171.02" x2="720.00" y2="171.02"/>
    <line x1="80.00" y1="169.70" x2="720.00" y2="169.70"/>
    <line x1="80.00" y1="169.05" x2="720.00" y2="169.05"/>
    <line x1="80.00" y1="168.39" x2="720.00" y2="168.39"/>
    <line x1="80.00" y1="167.73" x2="720.00" y2="167.73"/>
    <line x1="80.00" y1="166.42" x2="720.00" y2="166.42"/>
    <line x1="80.00" y1="165.76" x2="720.00" y2="165.76"/>
    <line x1="80.00" y1="165.11" x2="720.00" y2="165.11"/>
    <line x1="80.00" y1="164.45" x2="720.00" y2="164.45"/>
    <line x1="80.00" y1="163.14" x2="720.00" y2="163.14"/>
    <line x1="80.00" y1="162.48" x2="720.00" y2="162.48"/>
    <line x1="80.00" y1="161.82" x2="720.00" y2="161.82"/>
    <line x1="80.00" y1="161.17" x2="720.00" y2="161.17"/>
    <line x1="80.00" y1="159.85" x2="720.00" y2="159.85"/>
    <line x1="80.00" y1="159.20" x2="720.00" y2="159.20"/>
    <line x1="80.00" y1="158.54" x2="720.00" y2="158.54"/>
    <line x1="80.00" y1="157.88" x2="720.00" y2="157.88"/>
    <line x1="80.00" y1="156.57" x2="720.00" y2="156.57"/>
    <line x1="80.00" y1="155.91" x2="720.00" y2="155.91"/>
    <line x1="80.00" y1="155.26" x2="720.00" y2="155.26"/>
    <line x1="80.00" y1="154.60" x2="720.00" y2="154.60"/>
    <line x1="80.00" y1="153.29" x2="720.00" y2="153.29"/>
    <line x1="80.00" y1="152.63" x2="720.00" y2="152.63"/>
    <line x1="80.00" y1="151.97" x2="720.00" y2="151.97"/>
    <line x1="80.00" y1="151.32" x2="720.00" y2="151.32"/>
    <line x1="80.00" y1="150.00" x2="720.00" y2="150.00"/>
    <line x1="80.00" y1="149.35" x2="720.00" y2="149.35"/>
    <line x1="80.00" y1="148.69" x2="720.00" y2="148.69"/>
    <line x1="80.00" y1="148.03" x2="720.00" y2="148.03"/>
    <line x1="80.00" y1="146.72" x2="720.00" y2="146.72"/>
    <line x1="80.00" y1="146.06" x2="720.00" y2="146.06"/>
    <line x1="80.00" y1="145.41" x2="720.00" y2="145.41"/>
    <line x1="80.00" y1="144.75" x2="720.00" y2="144.75"/>
    <line x1="80.00" y1="143.44" x2="720.00" y2="143.44"/>
    <line x1="80.00" y1="142.78" x2="720.00" y2="142.78"/>
    <line x1="80.00" y1="142.13" x2="720.00" y2="142.13"/>
    <line x1="80.00" y1="141.47" x2="720.00" y2="141.47"/>
    <line x1="80.00" y1="140.16" x2="720.00" y2="140.16"/>
    <line x1="80.00" y1="139.50" x2="720.00" y2="139.50"/>
    <line x1="80.00" y1="138.84" x2="720.00" y2="138.84"/>
    <line x1="80.00" y1="138.19" x2="720.00" y2="138.19"/>
    <line x1="80.00" y1="136.87" x2="720.00" y2="136.87"/>
    <line x1="80.00" y1="136.22" x2="720.00" y2="136.22"/>
    <line x1="80.00" y1="135.56" x2="720.00" y2="135.56"/>
    <line x1="80.00" y1="134.90" x2="720.00" y2="134.90"/>
    <line x1="80.00" y1="133.59" x2="720.00" y2="133.59"/>
    <line x1="80.00" y1="132.93" x2="720.00" y2="132.93"/>
    <line x1="80.00" y1="132.28" x2="720.00" y2="132.28"/>
    <line x1="80.00" y1="131.62" x2="720.00" y2="131.62"/>
    <line x1="80.00" y1="130.31" x2="720.00" y2="130.31"/>
    <line x1="80.00" y1="129.65" x2="720.00" y2="129.65"/>
    <line x1="80.00" y1="128.99" x2="720.00" y2="128.99"/>
    <line x1="80.00" y1="128.34" x2="720.00" y2="128.34"/>
    <line x1="80.00" y1="127.02" x2="720.00" y2="127.02"/>
    <line x1="80.00" y1="126.37" x2="720.00" y2="126.37"/>
    <line x1="80.00" y1="125.71" x2="720.00" y2="125.71"/>
    <line x1="80.00" y1="125.05" x2="720.00" y2="125.05"/>
    <line x1="80.00" y1="123.74" x2="720.00" y2="123.74"/>
    <line x1="80.00" y1="123.08" x2="720.00" y2="123.08"/>
    <line x1="80.00" y1="122.43" x2="720.00" y2="122.43"/>
    <line x1="80.00" y1="121.77" x2="720.00" y2="121.77"/>
    <line x1="80.00" y1="120.46" x2="720.00" y2="120.46"/>
    <line x1="80.00" y1="119.80" x2="720.00" y2="119.80"/>
    <line x1="80.00" y1="119.14" x2="720.00" y2="119.14"/>
    <line x1="80.00" y1="118.49" x2="720.00" y2="118.49"/>
    <line x1="80.00" y1="117.17" x2="720.00" y2="117.17"/>
    <line x1="80.00" y1="116.52" x2="720.00" y2="116.52"/>
    <line x1="80.00" y1="115.86" x2="720.00" y2="115.86"/>
    <line x1="80.00" y1="115.20" x2="720.00" y2="115.20"/>
    <line x1="80.00" y1="113.89" x2="720.00" y2="113.89"/>
    <line x1="80.00" y1="113.23" x2="720.00" y2="113.23"/>
    <line x1="80.00" y1="112.58" x2="720.00" y2="112.58"/>
    <line x1="80.00" y1="111.92" x2="720.00" y2="111.92"/>
    <line x1="80.00" y1="110.61" x2="720.00" y2="110.61"/>
    <line x1="80.00" y1="109.95" x2="720.00" y2="109.95"/>
    <line x1="80.00" y1="109.29" x2="720.00" y2="109.29"/>
    <line x1="80.00" y1="108.64" x2="720.00" y2="108.64"/>
    <line x1="80.00" y1="107.32" x2="720.00" y2="107.32"/>
    <line x1="80.00" y1="106.67" x2="720.00" y2="106.67"/>
    <line x1="80.00" y1="106.01" x2="720.00" y2="106.01"/>
    <line x1="80.00" y1="105.35" x2="720.00" y2="105.35"/>
    <line x1="80.00" y1="104.04" x2="720.00" y2="104.04"/>
    <line x1="80.00" y1="103.39" x2="720.00" y2="103.39"/>
    <line x1="80.00" y1="102.73" x2="720.00" y2="102.73"/>
    <line x1="80.00" y1="102.07" x2="720.00" y2="102.07"/>
    <line x1="80.00" y1="100.76" x2="720.00" y2="100.76"/>
    <line x1="80.00" y1="100.10" x2="720.00" y2="100.10"/>
    <line x1="80.00" y1="99.45" x2="720.00" y2="99.45"/>
    <line x1="80.00" y1="98.79" x2="720.00" y2="98.79"/>
    <line x1="80.00" y1="97.48" x2="720.00" y2="97.48"/>
    <line x1="80.00" y1="96.82" x2="720.00" y2="96.82"/>
    <line x1="80.00" y1="96.16" x2="720.00" y2="96.16"/>
    <line x1="80.00" y1="95.51" x2="720.00" y2="95.51"/>
    <line x1="80.00" y1="94.19" x2="720.00" y2="94.19"/>
    <line x1="80.00" y1="93.54" x2="720.00" y2="93.54"/>
    <line x1="80.00" y1="92.88" x2="720.00" y2="92.88"/>
    <line x1="80.00" y1="92.22" x2="720.00" y2="92.22"/>
    <line x1="80.00" y1="90.91" x2="720.00" y2="90.91"/>
    <line x1="80.00" y1="90.25" x2="720.00" y2="90.25"/>
    <line x1="80.00" y1="89.60" x2="720.00" y2="89.60"/>
    <line x1="80.00" y1="88.94" x2="720.00" y2="88.94"/>
    <line x1="80.00" y1="87.63" x2="720.00" y2="87.63"/>
    <line x1="80.00" y1="86.97" x2="720.00" y2="86.97"/>
    <line x1="80.00" y1="86.31" x2="720.00" y2="86.31"/>
    <line x1="80.00" y1="85.66" x2="720.00" y2="85.66"/>
    <line x1="80.00" y1="84.34" x2="720.00" y2="84.34"/>
    <line x1="80.00" y1="83.69" x2="720.00" y2="83.69"/>
    <line x1="80.00" y1="83.03" x2="720.00" y2="83.03"/>
    <line x1="80.00" y1="82.37" x2="720.00" y2="82.37"/>
    <line x1="80.00" y1="81.06" x2="720.00" y2="81.06"/>
    <line x1="80.00" y1="80.40" x2="720.00" y2="80.40"/>
    <line x1="80.00" y1="79.75" x2="720.00" y2="79.75"/>
    <line x1="80.00" y1="79.09" x2="720.00" y2="79.09"/>
    <line x1="80.00" y1="77.78" x2="720.00" y2="77.78"/>
    <line x1="80.00" y1="77.12" x2="720.00" y2="77.12"/>
    <line x1="80.00" y1="76.46" x2="720.00" y2="76.46"/>
    <line x1="80.00" y1="75.81" x2="720.00" y2="75.81"/>
    <line x1="80.00" y1="74.49" x2="720.00" y2="74.49"/>
    <line x1="80.00" y1="73.84" x2="720.00" y2="73.84"/>
    <line x1="80.00" y1="73.18" x2="720.00" y2="73.18"/>
    <line x1="80.00" y1="72.52" x2="720.00" y2="72.52"/>
    <line x1="80.00" y1="71.21" x2="720.00" y2="71.21"/>
    <line x1="80.00" y1="70.55" x2="720.00" y2="70.55"/>
    <line x1="80.00" y1="69.90" x2="720.00" y2="69.90"/>
    <line x1="80.00" y1="69.24" x2="720.00" y2="69.24"/>
    <line x1="80.00" y1="67.93" x2="720.00" y2="67.93"/>
    <line x1="80.00" y1="67.27" x2="720.00" y2="67.27"/>
    <line x1="80.00" y1="66.61" x2="720.00" y2="66.61"/>
    <line x1="80.00" y1="65.96" x2="720.00" y2="65.96"/>
    <line x1="80.00" y1="64.65" x2="720.00" y2="64.65"/>
    <line x1="80.00" y1="63.99" x2="720.00" y2="63.99"/>
    <line x1="80.00" y1="63.33" x2="720.00" y2="63.33"/>
    <line x1="80.00" y1="62.68" x2="720.00" y2="62.68"/>
    <line x1="80.00" y1="61.36" x2="720.00" y2="61.36"/>
    <line x1="80.00" y1="60.71" x2="720.00" y2="60.71"/>
    <line x1="80.00" y1="60.05" x2="720.00" y2="60.05"/>
  </g>
  <g stroke="#808080" stroke-width="2">
    <line x1="239.75" y1="540.00" x2="239.75" y2="60.00"/>
    <line x1="80.00" y1="334.51" x2="720.00" y2="334.51"/>
  </g>
  <polyline fill="none" stroke="#0066cc" stroke-width="2" points="658.93,328.93 636.41,328.21 610.96,327.61 582.90,327.16 552.57,326.88 520.35,326.76 486.63,326.84 451.84,327.13 416.41,327.63 380.77,328.37 345.37,329.37 310.64,330.64 277.02,332.22 244.92,334.15 214.74,336.50 186.85,339.35 161.60,342.88 139.30,347.36 120.23,353.35 104.62,362.01 92.67,376.35 84.53,407.09 80.28,540.00 80.00,60.00 83.68,254.21 91.27,289.75 102.69,305.42 117.79,314.64 136.38,320.92 158.23,325.57 183.08,329.22 210.61,332.15 240.49,334.56 272.33,336.55 305.76,338.18 340.36,339.49 375.69,340.52 411.32,341.30 446.81,341.84 481.72,342.15 515.61,342.26 548.07,342.17 578.70,341.91 607.11,341.48 632.95,340.91 655.91,340.21 675.69,339.39 692.06,338.48 704.81,337.49 713.78,336.45 718.87,335.37 720.00,334.28 717.17,333.19 710.41,332.12 699.80,331.10 685.48,330.14 667.62,329.27 646.44,328.50 622.21,327.85 595.23,327.34 565.82,326.98 534.36,326.79 501.24,326.79 466.86,326.98 431.65,327.39 396.04,328.03 360.49,328.91 325.42,330.06 291.27,331.50 258.47,333.28 227.42,335.44 198.50,338.06 172.08,341.27 148.48,345.30 128.00,350.55 110.88,357.85 97.34,369.15 87.54,390.34 81.62,450.87 "/>
</svg>
