<?xml version="1.0" encoding="UTF-8"?>
<svg xmlns="http://www.w3.org/2000/svg" width="800" height="600">
  <title>R=(2*t)/(pi*sin(t)):-.2,.5:</title>
  <rect width="800" height="600" fill="#ffffff"/>
  <g stroke="#d0d0d0" stroke-width="1">
    <line x1="80.00" y1="540.00" x2="80.00" y2="60.00"/>
    <line x1="1085.36" y1="540.00" x2="1085.36" y2="60.00"/>
    <line x1="80.00" y1="745.71" x2="720.00" y2="745.71"/>
    <line x1="80.00" y1="402.86" x2="720.00" y2="402.86"/>
    <line x1="80.00" y1="60.00" x2="720.00" y2="60.00"/>
  </g>
  <g stroke="#e8e8e8" stroke-width="0.5">
    <line x1="281.07" y1="540.00" x2="281.07" y2="60.00"/>
    <line x1="482.14" y1="540.00" x2="482.14" y2="60.00"/>
    <line x1="683.21" y1="540.00" x2="683.21" y2="60.00"/>
    <line x1="80.00" y1="471.43" x2="720.00" y2="471.43"/>
    <line x1="80.00" y1="334.29" x2="720.00" y2="334.29"/>
    <line x1="80.00" y1="265.71" x2="720.00" y2="265.71"/>
    <line x1="80.00" y1="197.14" x2="720.00" y2="197.14"/>
    <line x1="80.00" y1="128.57" x2="720.00" y2="128.57"/>
  </g>
  <g stroke="#808080" stroke-width="2">
    <line x1="80.00" y1="540.00" x2="80.00" y2="60.00"/>
  </g>
  <polyline fill="none" stroke="#0066cc" stroke-width="2" points="633.50,540.00 641.19,533.92 648.49,527.85 655.42,521.77 661.97,515.70 668.15,509.62 673.97,503.54 679.43,497.47 684.54,491.39 689.29,485.32 693.69,479.24 697.74,473.16 701.45,467.09 704.81,461.01 707.84,454.94 710.53,448.86 712.88,442.78 714.89,436.71 716.57,430.63 717.92,424.56 718.94,418.48 719.62,412.41 719.98,406.33 720.00,400.25 719.69,394.18 719.06,388.10 718.09,382.03 716.78,375.95 715.15,369.87 713.18,363.80 710.88,357.72 708.24,351.65 705.27,345.57 701.95,339.49 698.29,333.42 694.29,327.34 689.94,321.27 685.24,315.19 680.19,309.11 674.78,303.04 669.01,296.96 662.88,290.89 656.38,284.81 649.50,278.73 642.25,272.66 634.62,266.58 626.61,260.51 618.19,254.43 609.38,248.35 600.17,242.28 590.54,236.20 580.49,230.13 570.01,224.05 559.10,217.97 547.75,211.90 535.94,205.82 523.66,199.75 510.92,193.67 497.69,187.59 483.96,181.52 469.73,175.44 454.98,169.37 439.69,163.29 423.86,157.22 407.46,151.14 390.48,145.06 372.90,138.99 354.71,132.91 335.88,126.84 316.40,120.76 296.25,114.68 275.39,108.61 253.81,102.53 231.47,96.46 208.36,90.38 184.44,84.30 159.68,78.23 134.04,72.15 107.50,66.08 80.00,60.00 "/>
</svg>
