<?xml version="1.0" encoding="UTF-8"?>
<svg xmlns="http://www.w3.org/2000/svg" width="800" height="600">
  <title>R=2/sin(2*t):.1,1.5:</title>
  <rect width="800" height="600" fill="#ffffff"/>
  <g stroke="#d0d0d0" stroke-width="1">
    <line x1="78.94" y1="540.00" x2="78.94" y2="60.00"/>
    <line x1="84.94" y1="540.00" x2="84.94" y2="60.00"/>
    <line x1="90.94" y1="540.00" x2="90.94" y2="60.00"/>
    <line x1="96.94" y1="540.00" x2="96.94" y2="60.00"/>
    <line x1="102.94" y1="540.00" x2="102.94" y2="60.00"/>
    <line x1="108.93" y1="540.00" x2="108.93" y2="60.00"/>
    <line x1="114.93" y1="540.00" x2="114.93" y2="60.00"/>
    <line x1="120.93" y1="540.00" x2="120.93" y2="60.00"/>
    <line x1="126.93" y1="540.00" x2="126.93" y2="60.00"/>
    <line x1="132.93" y1="540.00" x2="132.93" y2="60.00"/>
    <line x1="138.93" y1="540.00" x2="138.93" y2="60.00"/>
    <line x1="144.93" y1="540.00" x2="144.93" y2="60.00"/>
    <line x1="150.93" y1="540.00" x2="150.93" y2="60.00"/>
    <line x1="156.92" y1="540.00" x2="156.92" y2="60.00"/>
    <line x1="162.92" y1="540.00" x2="162.92" y2="60.00"/>
    <line x1="168.92" y1="540.00" x2="168.92" y2="60.00"/>
    <line x1="174.92" y1="540.00" x2="174.92" y2="60.00"/>
    <line x1="180.92" y1="540.00" x2="180.92" y2="60.00"/>
    <line x1="186.92" y1="540.00" x2="186.92" y2="60.00"/>
    <line x1="192.92" y1="540.00" x2="192.92" y2="60.00"/>
    <line x1="198.91" y1="540.00" x2="198.91" y2="60.00"/>
    <line x1="204.91" y1="540.00" x2="204.91" y2="60.00"/>
    <line x1="210.91" y1="540.00" x2="210.91" y2="60.00"/>
    <line x1="216.91" y1="540.00" x2="216.91" y2="60.00"/>
    <line x1="222.91" y1="540.00" x2="222.91" y2="60.00"/>
    <line x1="228.91" y1="540.00" x2="228.91" y2="60.00"/>
    <line x1="234.91" y1="540.00" x2="234.91" y2="60.00"/>
    <line x1="240.90" y1="540.00" x2="240.90" y2="60.00"/>
    <line x1="246.90" y1="540.00" x2="246.90" y2="60.00"/>
    <line x1="252.90" y1="540.00" x2="252.90" y2="60.00"/>
    <line x1="258.90" y1="540.00" x2="258.90" y2="60.00"/>
    <line x1="264.90" y1="540.00" x2="264.90" y2="60.00"/>
    <line x1="270.90" y1="540.00" x2="270.90" y2="60.00"/>
    <line x1="276.90" y1="540.00" x2="276.90" y2="60.00"/>
    <line x1="282.89" y1="540.00" x2="282.89" y2="60.00"/>
    <line x1="288.89" y1="540.00" x2="288.89" y2="60.00"/>
    <line x1="294.89" y1="540.00" x2="294.89" y2="60.00"/>
    <line x1="300.89" y1="540.00" x2="300.89" y2="60.00"/>
    <line x1="306.89" y1="540.00" x2="306.89" y2="60.00"/>
    <line x1="312.89" y1="540.00" x2="312.89" y2="60.00"/>
    <line x1="318.89" y1="540.00" x2="318.89" y2="60.00"/>
    <line x1="324.88" y1="540.00" x2="324.88" y2="60.00"/>
    <line x1="330.88" y1="540.00" x2="330.88" y2="60.00"/>
    <line x1="336.88" y1="540.00" x2="336.88" y2="60.00"/>
    <line x1="342.88" y1="540.00" x2="342.88" y2="60.00"/>
    <line x1="348.88" y1="540.00" x2="348.88" y2="60.00"/>
    <line x1="354.88" y1="540.00" x2="354.88" y2="60.00"/>
    <line x1="360.88" y1="540.00" x2="360.88" y2="60.00"/>
    <line x1="366.88" y1="540.00" x2="366.88" y2="60.00"/>
    <line x1="372.87" y1="540.00" x2="372.87" y2="60.00"/>
    <line x1="378.87" y1="540.00" x2="378.87" y2="60.00"/>
    <line x1="384.87" y1="540.00" x2="384.87" y2="60.00"/>
    <line x1="390.87" y1="540.00" x2="390.87" y2="60.00"/>
    <line x1="396.87" y1="540.00" x2="396.87" y2="60.00"/>
    <line x1="402.87" y1="540.00" x2="402.87" y2="60.00"/>
    <line x1="408.87" y1="540.00" x2="408.87" y2="60.00"/>
    <line x1="414.86" y1="540.00" x2="414.86" y2="60.00"/>
    <line x1="420.86" y1="540.00" x2="420.86" y2="60.00"/>
    <line x1="426.86" y1="540.00" x2="426.86" y2="60.00"/>
    <line x1="432.86" y1="540.00" x2="432.86" y2="60.00"/>
    <line x1="438.86" y1="540.00" x2="438.86" y2="60.00"/>
    <line x1="444.86" y1="540.00" x2="444.86" y2="60.00"/>
    <line x1="450.86" y1="540.00" x2="450.86" y2="60.00"/>
    <line x1="456.85" y1="540.00" x2="456.85" y2="60.00"/>
    <line x1="462.85" y1="540.00" x2="462.85" y2="60.00"/>
    <line x1="468.85" y1="540.00" x2="468.85" y2="60.00"/>
    <line x1="474.85" y1="540.00" x2="474.85" y2="60.00"/>
    <line x1="480.85" y1="540.00" x2="480.85" y2="60.00"/>
    <line x1="486.85" y1="540.00" x2="486.85" y2="60.00"/>
    <line x1="492.85" y1="540.00" x2="492.85" y2="60.00"/>
    <line x1="498.84" y1="540.00" x2="498.84" y2="60.00"/>
    <line x1="504.84" y1="540.00" x2="504.84" y2="60.00"/>
    <line x1="510.84" y1="540.00" x2="510.84" y2="60.00"/>
    <line x1="516.84" y1="540.00" x2="516.84" y2="60.00"/>
    <line x1="522.84" y1="540.00" x2="522.84" y2="60.00"/>
    <line x1="528.84" y1="540.00" x2="528.84" y2="60.00"/>
    <line x1="534.84" y1="540.00" x2="534.84" y2="60.00"/>
    <line x1="540.84" y1="540.00" x2="540.84" y2="60.00"/>
    <line x1="546.83" y1="540.00" x2="546.83" y2="60.00"/>
    <line x1="552.83" y1="540.00" x2="552.83" y2="60.00"/>
    <line x1="558.83" y1="540.00" x2="558.83" y2="60.00"/>
    <line x1="564.83" y1="540.00" x2="564.83" y2="60.00"/>
    <line x1="570.83" y1="540.00" x2="570.83" y2="60.00"/>
    <line x1="576.83" y1="540.00" x2="576.83" y2="60.00"/>
    <line x1="582.83" y1="540.00" x2="582.83" y2="60.00"/>
    <line x1="588.82" y1="540.00" x2="588.82" y2="60.00"/>
    <line x1="594.82" y1="540.00" x2="594.82" y2="60.00"/>
    <line x1="600.82" y1="540.00" x2="600.82" y2="60.00"/>
    <line x1="606.82" y1="540.00" x2="606.82" y2="60.00"/>
    <line x1="612.82" y1="540.00" x2="612.82" y2="60.00"/>
    <line x1="618.82" y1="540.00" x2="618.82" y2="60.00"/>
    <line x1="624.82" y1="540.00" x2="624.82" y2="60.00"/>
    <line x1="630.81" y1="540.00" x2="630.81" y2="60.00"/>
    <line x1="636.81" y1="540.00" x2="636.81" y2="60.00"/>
    <line x1="642.81" y1="540.00" x2="642.81" y2="60.00"/>
    <line x1="648.81" y1="540.00" x2="648.81" y2="60.00"/>
    <line x1="654.81" y1="540.00" x2="654.81" y2="60.00"/>
    <line x1="660.81" y1="540.00" x2="660.81" y2="60.00"/>
    <line x1="666.81" y1="540.00" x2="666.81" y2="60.00"/>
    <line x1="672.80" y1="540.00" x2="672.80" y2="60.00"/>
    <line x1="678.80" y1="540.00" x2="678.80" y2="60.00"/>
    <line x1="684.80" y1="540.00" x2="684.80" y2="60.00"/>
    <line x1="690.80" y1="540.00" x2="690.80" y2="60.00"/>
    <line x1="696.80" y1="540.00" x2="696.80" y2="60.00"/>
    <line x1="702.80" y1="540.00" x2="702.80" y2="60.00"/>
    <line x1="708.80" y1="540.00" x2="708.80" y2="60.00"/>
    <line x1="714.79" y1="540.00" x2="714.79" y2="60.00"/>
    <line x1="720.79" y1="540.00" x2="720.79" y2="60.00"/>
    <line x1="80.00" y1="540.56" x2="720.00" y2="540.56"/>
    <line x1="80.00" y1="534.01" x2="720.00" y2="534.01"/>
    <line x1="80.00" y1="527.47" x2="720.00" y2="527.47"/>
    <line x1="80.00" y1="520.93" x2="720.00" y2="520.93"/>
    <line x1="80.00" y1="514.38" x2="720.00" y2="514.38"/>
    <line x1="80.00" y1="507.84" x2="720.00" y2="507.84"/>
    <line x1="80.00" y1="501.30" x2="720.00" y2="501.30"/>
    <line x1="80.00" y1="494.75" x2="720.00" y2="494.75"/>
    <line x1="80.00" y1="488.21" x2="720.00" y2="488.21"/>
    <line x1="80.00" y1="481.66" x2="720.00" y2="481.66"/>
    <line x1="80.00" y1="475.12" x2="720.00" y2="475.12"/>
    <line x1="80.00" y1="468.58" x2="720.00" y2="468.58"/>
    <line x1="80.00" y1="462.03" x2="720.00" y2="462.03"/>
    <line x1="80.00" y1="455.49" x2="720.00" y2="455.49"/>
    <line x1="80.00" y1="448.95" x2="720.00" y2="448.95"/>
    <line x1="80.00" y1="442.40" x2="720.00" y2="442.40"/>
    <line x1="80.00" y1="435.86" x2="720.00" y2="435.86"/>
    <line x1="80.00" y1="429.32" x2="720.00" y2="429.32"/>
    <line x1="80.00" y1="422.77" x2="720.00" y2="422.77"/>
    <line x1="80.00" y1="416.23" x2="720.00" y2="416.23"/>
    <line x1="80.00" y1="409.68" x2="720.00" y2="409.68"/>
    <line x1="80.00" y1="403.14" x2="720.00" y2="403.14"/>
    <line x1="80.00" y1="396.60" x2="720.00" y2="396.60"/>
    <line x1="80.00" y1="390.05" x2="720.00" y2="390.05"/>
    <line x1="80.00" y1="383.51" x2="720.00" y2="383.51"/>
    <line x1="80.00" y1="376.97" x2="720.00" y2="376.97"/>
    <line x1="80.00" y1="370.42" x2="720.00" y2="370.42"/>
    <line x1="80.00" y1="363.88" x2="720.00" y2="363.88"/>
    <line x1="80.00" y1="357.33" x2="720.00" y2="357.33"/>
    <line x1="80.00" y1="350.79" x2="720.00" y2="350.79"/>
    <line x1="80.00" y1="344.25" x2="720.00" y2="344.25"/>
    <line x1="80.00" y1="337.70" x2="720.00" y2="337.70"/>
    <line x1="80.00" y1="331.16" x2="720.00" y2="331.16"/>
    <line x1="80.00" y1="324.62" x2="720.00" y2="324.62"/>
    <line x1="80.00" y1="318.07" x2="720.00" y2="318.07"/>
    <line x1="80.00" y1="311.53" x2="720.00" y2="311.53"/>
    <line x1="80.00" y1="304.99" x2="720.00" y2="304.99"/>
    <line x1="80.00" y1="298.44" x2="720.00" y2="298.44"/>
    <line x1="80.00" y1="291.90" x2="720.00" y2="291.90"/>
    <line x1="80.00" y1="285.35" x2="720.00" y2="285.35"/>
    <line x1="80.00" y1="278.81" x2="720.00" y2="278.81"/>
    <line x1="80.00" y1="272.27" x2="720.00" y2="272.27"/>
    <line x1="80.00" y1="265.72" x2="720.00" y2="265.72"/>
    <line x1="80.00" y1="259.18" x2="720.00" y2="259.18"/>
    <line x1="80.00" y1="252.64" x2="720.00" y2="252.64"/>
    <line x1="80.00" y1="246.09" x2="720.00" y2="246.09"/>
    <line x1="80.00" y1="239.55" x2="720.00" y2="239.55"/>
    <line x1="80.00" y1="233.00" x2="720.00" y2="233.00"/>
    <line x1="80.00" y1="226.46" x2="720.00" y2="226.46"/>
    <line x1="80.00" y1="219.92" x2="720.00" y2="219.92"/>
    <line x1="80.00" y1="213.37" x2="720.00" y2="213.37"/>
    <line x1="80.00" y1="206.83" x2="720.00" y2="206.83"/>
    <line x1="80.00" y1="200.29" x2="720.00" y2="200.29"/>
    <line x1="80.00" y1="193.74" x2="720.00" y2="193.74"/>
    <line x1="80.00" y1="187.20" x2="720.00" y2="187.20"/>
    <line x1="80.00" y1="180.66" x2="720.00" y2="180.66"/>
    <line x1="80.00" y1="174.11" x2="720.00" y2="174.11"/>
    <line x1="80.00" y1="167.57" x2="720.00" y2="167.57"/>
    <line x1="80.00" y1="161.02" x2="720.00" y2="161.02"/>
    <line x1="80.00" y1="154.48" x2="720.00" y2="154.48"/>
    <line x1="80.00" y1="147.94" x2="720.00" y2="147.94"/>
    <line x1="80.00" y1="141.39" x2="720.00" y2="141.39"/>
    <line x1="80.00" y1="134.85" x2="720.00" y2="134.85"/>
    <line x1="80.00" y1="128.31" x2="720.00" y2="128.31"/>
    <line x1="80.00" y1="121.76" x2="720.00" y2="121.76"/>
    <line x1="80.00" y1="115.22" x2="720.00" y2="115.22"/>
    <line x1="80.00" y1="108.67" x2="720.00" y2="108.67"/>
    <line x1="80.00" y1="102.13" x2="720.00" y2="102.13"/>
    <line x1="80.00" y1="95.59" x2="720.00" y2="95.59"/>
    <line x1="80.00" y1="89.04" x2="720.00" y2="89.04"/>
    <line x1="80.00" y1="82.50" x2="720.00" y2="82.50"/>
    <line x1="80.00" y1="75.96" x2="720.00" y2="75.96"/>
    <line x1="80.00" y1="69.41" x2="720.00" y2="69.41"/>
    <line x1="80.00" y1="62.87" x2="720.00" y2="62.87"/>
    <line x1="80.00" y1="56.33" x2="720.00" y2="56.33"/>
  </g>
  <g stroke="#e8e8e8" stroke-width="0.5">
    <line x1="80.14" y1="540.00" x2="80.14" y2="60.00"/>
    <line x1="81.34" y1="540.00" x2="81.34" y2="60.00"/>
    <line x1="82.54" y1="540.00" x2="82.54" y2="60.00"/>
    <line x1="83.74" y1="540.00" x2="83.74" y2="60.00"/>
    <line x1="86.14" y1="540.00" x2="86.14" y2="60.00"/>
    <line x1="87.34" y1="540.00" x2="87.34" y2="60.00"/>
    <line x1="88.54" y1="540.00" x2="88.54" y2="60.00"/>
    <line x1="89.74" y1="540.00" x2="89.74" y2="60.00"/>
    <line x1="92.14" y1="540.00" x2="92.14" y2="60.00"/>
    <line x1="93.34" y1="540.00" x2="93.34" y2="60.00"/>
    <line x1="94.54" y1="540.00" x2="94.54" y2="60.00"/>
    <line x1="95.74" y1="540.00" x2="95.74" y2="60.00"/>
    <line x1="98.14" y1="540.00" x2="98.14" y2="60.00"/>
    <line x1="99.34" y1="540.00" x2="99.34" y2="60.00"/>
    <line x1="100.54" y1="540.00" x2="100.54" y2="60.00"/>
    <line x1="101.74" y1="540.00" x2="101.74" y2="60.00"/>
    <line x1="104.14" y1="540.00" x2="104.14" y2="60.00"/>
    <line x1="105.34" y1="540.00" x2="105.34" y2="60.00"/>
    <line x1="106.54" y1="540.00" x2="106.54" y2="60.00"/>
    <line x1="107.74" y1="540.00" x2="107.74" y2="60.00"/>
    <line x1="110.13" y1="540.00" x2="110.13" y2="60.00"/>
    <line x1="111.33" y1="540.00" x2="111.33" y2="60.00"/>
    <line x1="112.53" y1="540.00" x2="112.53" y2="60.00"/>
    <line x1="113.73" y1="540.00" x2="113.73" y2="60.00"/>
    <line x1="116.13" y1="540.00" x2="116.13" y2="60.00"/>
    <line x1="117.33" y1="540.00" x2="117.33" y2="60.00"/>
    <line x1="118.53" y1="540.00" x2="118.53" y2="60.00"/>
    <line x1="119.73" y1="540.00" x2="119.73" y2="60.00"/>
    <line x1="122.13" y1="540.00" x2="122.13" y2="60.00"/>
    <line x1="123.33" y1="540.00" x2="123.33" y2="60.00"/>
    <line x1="124.53" y1="540.00" x2="124.53" y2="60.00"/>
    <line x1="125.73" y1="540.00" x2="125.73" y2="60.00"/>
    <line x1="128.13" y1="540.00" x2="128.13" y2="60.00"/>
    <line x1="129.33" y1="540.00" x2="129.33" y2="60.00"/>
    <line x1="130.53" y1="540.00" x2="130.53" y2="60.00"/>
    <line x1="131.73" y1="540.00" x2="131.73" y2="60.00"/>
    <line x1="134.13" y1="540.00" x2="134.13" y2="60.00"/>
    <line x1="135.33" y1="540.00" x2="135.33" y2="60.00"/>
    <line x1="136.53" y1="540.00" x2="136.53" y2="60.00"/>
    <line x1="137.73" y1="540.00" x2="137.73" y2="60.00"/>
    <line x1="140.13" y1="540.00" x2="140.13" y2="60.00"/>
    <line x1="141.33" y1="540.00" x2="141.33" y2="60.00"/>
    <line x1="142.53" y1="540.00" x2="142.53" y2="60.00"/>
    <line x1="143.73" y1="540.00" x2="143.73" y2="60.00"/>
    <line x1="146.13" y1="540.00" x2="146.13" y2="60.00"/>
    <line x1="147.33" y1="540.00" x2="147.33" y2="60.00"/>
    <line x1="148.53" y1="540.00" x2="148.53" y2="60.00"/>
    <line x1="149.73" y1="540.00" x2="149.73" y2="60.00"/>
    <line x1="152.12" y1="540.00" x2="152.12" y2="60.00"/>
    <line x1="153.32" y1="540.00" x2="153.32" y2="60.00"/>
    <line x1="154.52" y1="540.00" x2="154.52" y2="60.00"/>
    <line x1="155.72" y1="540.00" x2="155.72" y2="60.00"/>
    <line x1="158.12" y1="540.00" x2="158.12" y2="60.00"/>
    <line x1="159.32" y1="540.00" x2="159.32" y2="60.00"/>
    <line x1="160.52" y1="540.00" x2="160.52" y2="60.00"/>
    <line x1="161.72" y1="540.00" x2="161.72" y2="60.00"/>
    <line x1="164.12" y1="540.00" x2="164.12" y2="60.00"/>
    <line x1="165.32" y1="540.00" x2="165.32" y2="60.00"/>
    <line x1="166.52" y1="540.00" x2="166.52" y2="60.00"/>
    <line x1="167.72" y1="540.00" x2="167.72" y2="60.00"/>
    <line x1="170.12" y1="540.00" x2="170.12" y2="60.00"/>
    <line x1="171.32" y1="540.00" x2="171.32" y2="60.00"/>
    <line x1="172.52" y1="540.00" x2="172.52" y2="60.00"/>
    <line x1="173.72" y1="540.00" x2="173.72" y2="60.00"/>
    <line x1="176.12" y1="540.00" x2="176.12" y2="60.00"/>
    <line x1="177.32" y1="540.00" x2="177.32" y2="60.00"/>
    <line x1="178.52" y1="540.00" x2="178.52" y2="60.00"/>
    <line x1="179.72" y1="540.00" x2="179.72" y2="60.00"/>
    <line x1="182.12" y1="540.00" x2="182.12" y2="60.00"/>
    <line x1="183.32" y1="540.00" x2="183.32" y2="60.00"/>
    <line x1="184.52" y1="540.00" x2="184.52" y2="60.00"/>
    <line x1="185.72" y1="540.00" x2="185.72" y2="60.00"/>
    <line x1="188.12" y1="540.00" x2="188.12" y2="60.00"/>
    <line x1="189.32" y1="540.00" x2="189.32" y2="60.00"/>
    <line x1="190.52" y1="540.00" x2="190.52" y2="60.00"/>
    <line x1="191.72" y1="540.00" x2="191.72" y2="60.00"/>
    <line x1="194.12" y1="540.00" x2="194.12" y2="60.00"/>
    <line x1="195.31" y1="540.00" x2="195.31" y2="60.00"/>
    <line x1="196.51" y1="540.00" x2="196.51" y2="60.00"/>
    <line x1="197.71" y1="540.00" x2="197.71" y2="60.00"/>
    <line x1="200.11" y1="540.00" x2="200.11" y2="60.00"/>
    <line x1="201.31" y1="540.00" x2="201.31" y2="60.00"/>
    <line x1="202.51" y1="540.00" x2="202.51" y2="60.00"/>
    <line x1="203.71" y1="540.00" x2="203.71" y2="60.00"/>
    <line x1="206.11" y1="540.00" x2="206.11" y2="60.00"/>
    <line x1="207.31" y1="540.00" x2="207.31" y2="60.00"/>
    <line x1="208.51" y1="540.00" x2="208.51" y2="60.00"/>
    <line x1="209.71" y1="540.00" x2="209.71" y2="60.00"/>
    <line x1="212.11" y1="540.00" x2="212.11" y2="60.00"/>
    <line x1="213.31" y1="540.00" x2="213.31" y2="60.00"/>
    <line x1="214.51" y1="540.00" x2="214.51" y2="60.00"/>
    <line x1="215.71" y1="540.00" x2="215.71" y2="60.00"/>
    <line x1="218.11" y1="540.00" x2="218.11" y2="60.00"/>
    <line x1="219.31" y1="540.00" x2="219.31" y2="60.00"/>
    <line x1="220.51" y1="540.00" x2="220.51" y2="60.00"/>
    <line x1="221.71" y1="540.00" x2="221.71" y2="60.00"/>
    <line x1="224.11" y1="540.00" x2="224.11" y2="60.00"/>
    <line x1="225.31" y1="540.00" x2="225.31" y2="60.00"/>
    <line x1="226.51" y1="540.00" x2="226.51" y2="60.00"/>
    <line x1="227.71" y1="540.00" x2="227.71" y2="60.00"/>
    <line x1="230.11" y1="540.00" x2="230.11" y2="60.00"/>
    <line x1="231.31" y1="540.00" x2="231.31" y2="60.00"/>
    <line x1="232.51" y1="540.00" x2="232.51" y2="60.00"/>
    <line x1="233.71" y1="540.00" x2="233.71" y2="60.00"/>
    <line x1="236.11" y1="540.00" x2="236.11" y2="60.00"/>
    <line x1="237.31" y1="540.00" x2="237.31" y2="60.00"/>
    <line x1="238.50" y1="540.00" x2="238.50" y2="60.00"/>
    <line x1="239.70" y1="540.00" x2="239.70" y2="60.00"/>
    <line x1="242.10" y1="540.00" x2="242.10" y2="60.00"/>
    <line x1="243.30" y1="540.00" x2="243.30" y2="60.00"/>
    <line x1="244.50" y1="540.00" x2="244.50" y2="60.00"/>
    <line x1="245.70" y1="540.00" x2="245.70" y2="60.00"/>
    <line x1="248.10" y1="540.00" x2="248.10" y2="60.00"/>
    <line x1="249.30" y1="540.00" x2="249.30" y2="60.00"/>
    <line x1="250.50" y1="540.00" x2="250.50" y2="60.00"/>
    <line x1="251.70" y1="540.00" x2="251.70" y2="60.00"/>
    <line x1="254.10" y1="540.00" x2="254.10" y2="60.00"/>
    <line x1="255.30" y1="540.00" x2="255.30" y2="60.00"/>
    <line x1="256.50" y1="540.00" x2="256.50" y2="60.00"/>
    <line x1="257.70" y1="540.00" x2="257.70" y2="60.00"/>
    <line x1="260.10" y1="540.00" x2="260.10" y2="60.00"/>
    <line x1="261.30" y1="540.00" x2="261.30" y2="60.00"/>
    <line x1="262.50" y1="540.00" x2="262.50" y2="60.00"/>
    <line x1="263.70" y1="540.00" x2="263.70" y2="60.00"/>
    <line x1="266.10" y1="540.00" x2="266.10" y2="60.00"/>
    <line x1="267.30" y1="540.00" x2="267.30" y2="60.00"/>
    <line x1="268.50" y1="540.00" x2="268.50" y2="60.00"/>
    <line x1="269.70" y1="540.00" x2="269.70" y2="60.00"/>
    <line x1="272.10" y1="540.00" x2="272.10" y2="60.00"/>
    <line x1="273.30" y1="540.00" x2="273.30" y2="60.00"/>
    <line x1="274.50" y1="540.00" x2="274.50" y2="60.00"/>
    <line x1="275.70" y1="540.00" x2="275.70" y2="60.00"/>
    <line x1="278.10" y1="540.00" x2="278.10" y2="60.00"/>
    <line x1="279.30" y1="540.00" x2="279.30" y2="60.00"/>
    <line x1="280.50" y1="540.00" x2="280.50" y2="60.00"/>
    <line x1="281.69" y1="540.00" x2="281.69" y2="60.00"/>
    <line x1="284.09" y1="540.00" x2="284.09" y2="60.00"/>
    <line x1="285.29" y1="540.00" x2="285.29" y2="60.00"/>
    <line x1="286.49" y1="540.00" x2="286.49" y2="60.00"/>
    <line x1="287.69" y1="540.00" x2="287.69" y2="60.00"/>
    <line x1="290.09" y1="540.00" x2="290.09" y2="60.00"/>
    <line x1="291.29" y1="540.00" x2="291.29" y2="60.00"/>
    <line x1="292.49" y1="540.00" x2="292.49" y2="60.00"/>
    <line x1="293.69" y1="540.00" x2="293.69" y2="60.00"/>
    <line x1="296.09" y1="540.00" x2="296.09" y2="60.00"/>
    <line x1="297.29" y1="540.00" x2="297.29" y2="60.00"/>
    <line x1="298.49" y1="540.00" x2="298.49" y2="60.00"/>
    <line x1="299.69" y1="540.00" x2="299.69" y2="60.00"/>
    <line x1="302.09" y1="540.00" x2="302.09" y2="60.00"/>
    <line x1="303.29" y1="540.00" x2="303.29" y2="60.00"/>
    <line x1="304.49" y1="540.00" x2="304.49" y2="60.00"/>
    <line x1="305.69" y1="540.00" x2="305.69" y2="60.00"/>
    <line x1="308.09" y1="540.00" x2="308.09" y2="60.00"/>
    <line x1="309.29" y1="540.00" x2="309.29" y2="60.00"/>
    <line x1="310.49" y1="540.00" x2="310.49" y2="60.00"/>
    <line x1="311.69" y1="540.00" x2="311.69" y2="60.00"/>
    <line x1="314.09" y1="540.00" x2="314.09" y2="60.00"/>
    <line x1="315.29" y1="540.00" x2="315.29" y2="60.00"/>
    <line x1="316.49" y1="540.00" x2="316.49" y2="60.00"/>
    <line x1="317.69" y1="540.00" x2="317.69" y2="60.00"/>
    <line x1="320.09" y1="540.00" x2="320.09" y2="60.00"/>
    <line x1="321.29" y1="540.00" x2="321.29" y2="60.00"/>
    <line x1="322.49" y1="540.00" x2="322.49" y2="60.00"/>
    <line x1="323.69" y1="540.00" x2="323.69" y2="60.00"/>
    <line x1="326.08" y1="540.00" x2="326.08" y2="60.00"/>
    <line x1="327.28" y1="540.00" x2="327.28" y2="60.00"/>
    <line x1="328.48" y1="540.00" x2="328.48" y2="60.00"/>
    <line x1="329.68" y1="540.00" x2="329.68" y2="60.00"/>
    <line x1="332.08" y1="540.00" x2="332.08" y2="60.00"/>
    <line x1="333.28" y1="540.00" x2="333.28" y2="60.00"/>
    <line x1="334.48" y1="540.00" x2="334.48" y2="60.00"/>
    <line x1="335.68" y1="540.00" x2="335.68" y2="60.00"/>
    <line x1="338.08" y1="540.00" x2="338.08" y2="60.00"/>
    <line x1="339.28" y1="540.00" x2="339.28" y2="60.00"/>
    <line x1="340.48" y1="540.00" x2="340.48" y2="60.00"/>
    <line x1="341.68" y1="540.00" x2="341.68" y2="60.00"/>
    <line x1="344.08" y1="540.00" x2="344.08" y2="60.00"/>
    <line x1="345.28" y1="540.00" x2="345.28" y2="60.00"/>
    <line x1="346.48" y1="540.00" x2="346.48" y2="60.00"/>
    <line x1="347.68" y1="540.00" x2="347.68" y2="60.00"/>
    <line x1="350.08" y1="540.00" x2="350.08" y2="60.00"/>
    <line x1="351.28" y1="540.00" x2="351.28" y2="60.00"/>
    <line x1="352.48" y1="540.00" x2="352.48" y2="60.00"/>
    <line x1="353.68" y1="540.00" x2="353.68" y2="60.00"/>
    <line x1="356.08" y1="540.00" x2="356.08" y2="60.00"/>
    <line x1="357.28" y1="540.00" x2="357.28" y2="60.00"/>
    <line x1="358.48" y1="540.00" x2="358.48" y2="60.00"/>
    <line x1="359.68" y1="540.00" x2="359.68" y2="60.00"/>
    <line x1="362.08" y1="540.00" x2="362.08" y2="60.00"/>
    <line x1="363.28" y1="540.00" x2="363.28" y2="60.00"/>
    <line x1="364.48" y1="540.00" x2="364.48" y2="60.00"/>
    <line x1="365.68" y1="540.00" x2="365.68" y2="60.00"/>
    <line x1="368.07" y1="540.00" x2="368.07" y2="60.00"/>
    <line x1="369.27" y1="540.00" x2="369.27" y2="60.00"/>
    <line x1="370.47" y1="540.00" x2="370.47" y2="60.00"/>
    <line x1="371.67" y1="540.00" x2="371.67" y2="60.00"/>
    <line x1="374.07" y1="540.00" x2="374.07" y2="60.00"/>
    <line x1="375.27" y1="540.00" x2="375.27" y2="60.00"/>
    <line x1="376.47" y1="540.00" x2="376.47" y2="60.00"/>
    <line x1="377.67" y1="540.00" x2="377.67" y2="60.00"/>
    <line x1="380.07" y1="540.00" x2="380.07" y2="60.00"/>
    <line x1="381.27" y1="540.00" x2="381.27" y2="60.00"/>
    <line x1="382.47" y1="540.00" x2="382.47" y2="60.00"/>
    <line x1="383.67" y1="540.00" x2="383.67" y2="60.00"/>
    <line x1="386.07" y1="540.00" x2="386.07" y2="60.00"/>
    <line x1="387.27" y1="540.00" x2="387.27" y2="60.00"/>
    <line x1="388.47" y1="540.00" x2="388.47" y2="60.00"/>
    <line x1="389.67" y1="540.00" x2="389.67" y2="60.00"/>
    <line x1="392.07" y1="540.00" x2="392.07" y2="60.00"/>
    <line x1="393.27" y1="540.00" x2="393.27" y2="60.00"/>
    <line x1="394.47" y1="540.00" x2="394.47" y2="60.00"/>
    <line x1="395.67" y1="540.00" x2="395.67" y2="60.00"/>
    <line x1="398.07" y1="540.00" x2="398.07" y2="60.00"/>
    <line x1="399.27" y1="540.00" x2="399.27" y2="60.00"/>
    <line x1="400.47" y1="540.00" x2="400.47" y2="60.00"/>
    <line x1="401.67" y1="540.00" x2="401.67" y2="60.00"/>
    <line x1="404.07" y1="540.00" x2="404.07" y2="60.00"/>
    <line x1="405.27" y1="540.00" x2="405.27" y2="60.00"/>
    <line x1="406.47" y1="540.00" x2="406.47" y2="60.00"/>
    <line x1="407.67" y1="540.00" x2="407.67" y2="60.00"/>
    <line x1="410.07" y1="540.00" x2="410.07" y2="60.00"/>
    <line x1="411.26" y1="540.00" x2="411.26" y2="60.00"/>
    <line x1="412.46" y1="540.00" x2="412.46" y2="60.00"/>
    <line x1="413.66" y1="540.00" x2="413.66" y2="60.00"/>
    <line x1="416.06" y1="540.00" x2="416.06" y2="60.00"/>
    <line x1="417.26" y1="540.00" x2="417.26" y2="60.00"/>
    <line x1="418.46" y1="540.00" x2="418.46" y2="60.00"/>
    <line x1="419.66" y1="540.00" x2="419.66" y2="60.00"/>
    <line x1="422.06" y1="540.00" x2="422.06" y2="60.00"/>
    <line x1="423.26" y1="540.00" x2="423.26" y2="60.00"/>
    <line x1="424.46" y1="540.00" x2="424.46" y2="60.00"/>
    <line x1="425.66" y1="540.00" x2="425.66" y2="60.00"/>
    <line x1="428.06" y1="540.00" x2="428.06" y2="60.00"/>
    <line x1="429.26" y1="540.00" x2="429.26" y2="60.00"/>
    <line x1="430.46" y1="540.00" x2="430.46" y2="60.00"/>
    <line x1="431.66" y1="540.00" x2="431.66" y2="60.00"/>
    <line x1="434.06" y1="540.00" x2="434.06" y2="60.00"/>
    <line x1="435.26" y1="540.00" x2="435.26" y2="60.00"/>
    <line x1="436.46" y1="540.00" x2="436.46" y2="60.00"/>
    <line x1="437.66" y1="540.00" x2="437.66" y2="60.00"/>
    <line x1="440.06" y1="540.00" x2="440.06" y2="60.00"/>
    <line x1="441.26" y1="540.00" x2="441.26" y2="60.00"/>
    <line x1="442.46" y1="540.00" x2="442.46" y2="60.00"/>
    <line x1="443.66" y1="540.00" x2="443.66" y2="60.00"/>
    <line x1="446.06" y1="540.00" x2="446.06" y2="60.00"/>
    <line x1="447.26" y1="540.00" x2="447.26" y2="60.00"/>
    <line x1="448.46" y1="540.00" x2="448.46" y2="60.00"/>
    <line x1="449.66" y1="540.00" x2="449.66" y2="60.00"/>
    <line x1="452.06" y1="540.00" x2="452.06" y2="60.00"/>
    <line x1="453.26" y1="540.00" x2="453.26" y2="60.00"/>
    <line x1="454.46" y1="540.00" x2="454.46" y2="60.00"/>
    <line x1="455.65" y1="540.00" x2="455.65" y2="60.00"/>
    <line x1="458.05" y1="540.00" x2="458.05" y2="60.00"/>
    <line x1="459.25" y1="540.00" x2="459.25" y2="60.00"/>
    <line x1="460.45" y1="540.00" x2="460.45" y2="60.00"/>
    <line x1="461.65" y1="540.00" x2="461.65" y2="60.00"/>
    <line x1="464.05" y1="540.00" x2="464.05" y2="60.00"/>
    <line x1="465.25" y1="540.00" x2="465.25" y2="60.00"/>
    <line x1="466.45" y1="540.00" x2="466.45" y2="60.00"/>
    <line x1="467.65" y1="540.00" x2="467.65" y2="60.00"/>
    <line x1="470.05" y1="540.00" x2="470.05" y2="60.00"/>
    <line x1="471.25" y1="540.00" x2="471.25" y2="60.00"/>
    <line x1="472.45" y1="540.00" x2="472.45" y2="60.00"/>
    <line x1="473.65" y1="540.00" x2="473.65" y2="60.00"/>
    <line x1="476.05" y1="540.00" x2="476.05" y2="60.00"/>
    <line x1="477.25" y1="540.00" x2="477.25" y2="60.00"/>
    <line x1="478.45" y1="540.00" x2="478.45" y2="60.00"/>
    <line x1="479.65" y1="540.00" x2="479.65" y2="60.00"/>
    <line x1="482.05" y1="540.00" x2="482.05" y2="60.00"/>
    <line x1="483.25" y1="540.00" x2="483.25" y2="60.00"/>
    <line x1="484.45" y1="540.00" x2="484.45" y2="60.00"/>
    <line x1="485.65" y1="540.00" x2="485.65" y2="60.00"/>
    <line x1="488.05" y1="540.00" x2="488.05" y2="60.00"/>
    <line x1="489.25" y1="540.00" x2="489.25" y2="60.00"/>
    <line x1="490.45" y1="540.00" x2="490.45" y2="60.00"/>
    <line x1="491.65" y1="540.00" x2="491.65" y2="60.00"/>
    <line x1="494.05" y1="540.00" x2="494.05" y2="60.00"/>
    <line x1="495.25" y1="540.00" x2="495.25" y2="60.00"/>
    <line x1="496.45" y1="540.00" x2="496.45" y2="60.00"/>
    <line x1="497.65" y1="540.00" x2="497.65" y2="60.00"/>
    <line x1="500.04" y1="540.00" x2="500.04" y2="60.00"/>
    <line x1="501.24" y1="540.00" x2="501.24" y2="60.00"/>
    <line x1="502.44" y1="540.00" x2="502.44" y2="60.00"/>
    <line x1="503.64" y1="540.00" x2="503.64" y2="60.00"/>
    <line x1="506.04" y1="540.00" x2="506.04" y2="60.00"/>
    <line x1="507.24" y1="540.00" x2="507.24" y2="60.00"/>
    <line x1="508.44" y1="540.00" x2="508.44" y2="60.00"/>
    <line x1="509.64" y1="540.00" x2="509.64" y2="60.00"/>
    <line x1="512.04" y1="540.00" x2="512.04" y2="60.00"/>
    <line x1="513.24" y1="540.00" x2="513.24" y2="60.00"/>
    <line x1="514.44" y1="540.00" x2="514.44" y2="60.00"/>
    <line x1="515.64" y1="540.00" x2="515.64" y2="60.00"/>
    <line x1="518.04" y1="540.00" x2="518.04" y2="60.00"/>
    <line x1="519.24" y1="540.00" x2="519.24" y2="60.00"/>
    <line x1="520.44" y1="540.00" x2="520.44" y2="60.00"/>
    <line x1="521.64" y1="540.00" x2="521.64" y2="60.00"/>
    <line x1="524.04" y1="540.00" x2="524.04" y2="60.00"/>
    <line x1="525.24" y1="540.00" x2="525.24" y2="60.00"/>
    <line x1="526.44" y1="540.00" x2="526.44" y2="60.00"/>
    <line x1="527.64" y1="540.00" x2="527.64" y2="60.00"/>
    <line x1="530.04" y1="540.00" x2="530.04" y2="60.00"/>
    <line x1="531.24" y1="540.00" x2="531.24" y2="60.00"/>
    <line x1="532.44" y1="540.00" x2="532.44" y2="60.00"/>
    <line x1="533.64" y1="540.00" x2="533.64" y2="60.00"/>
    <line x1="536.04" y1="540.00" x2="536.04" y2="60.00"/>
    <line x1="537.24" y1="540.00" x2="537.24" y2="60.00"/>
    <line x1="538.44" y1="540.00" x2="538.44" y2="60.00"/>
    <line x1="539.64" y1="540.00" x2="539.64" y2="60.00"/>
    <line x1="542.03" y1="540.00" x2="542.03" y2="60.00"/>
    <line x1="543.23" y1="540.00" x2="543.23" y2="60.00"/>
    <line x1="544.43" y1="540.00" x2="544.43" y2="60.00"/>
    <line x1="545.63" y1="540.00" x2="545.63" y2="60.00"/>
    <line x1="548.03" y1="540.00" x2="548.03" y2="60.00"/>
    <line x1="549.23" y1="540.00" x2="549.23" y2="60.00"/>
    <line x1="550.43" y1="540.00" x2="550.43" y2="60.00"/>
    <line x1="551.63" y1="540.00" x2="551.63" y2="60.00"/>
    <line x1="554.03" y1="540.00" x2="554.03" y2="60.00"/>
    <line x1="555.23" y1="540.00" x2="555.23" y2="60.00"/>
    <line x1="556.43" y1="540.00" x2="556.43" y2="60.00"/>
    <line x1="557.63" y1="540.00" x2="557.63" y2="60.00"/>
    <line x1="560.03" y1="540.00" x2="560.03" y2="60.00"/>
    <line x1="561.23" y1="540.00" x2="561.23" y2="60.00"/>
    <line x1="562.43" y1="540.00" x2="562.43" y2="60.00"/>
    <line x1="563.63" y1="540.00" x2="563.63" y2="60.00"/>
    <line x1="566.03" y1="540.00" x2="566.03" y2="60.00"/>
    <line x1="567.23" y1="540.00" x2="567.23" y2="60.00"/>
    <line x1="568.43" y1="540.00" x2="568.43" y2="60.00"/>
    <line x1="569.63" y1="540.00" x2="569.63" y2="60.00"/>
    <line x1="572.03" y1="540.00" x2="572.03" y2="60.00"/>
    <line x1="573.23" y1="540.00" x2="573.23" y2="60.00"/>
    <line x1="574.43" y1="540.00" x2="574.43" y2="60.00"/>
    <line x1="575.63" y1="540.00" x2="575.63" y2="60.00"/>
    <line x1="578.03" y1="540.00" x2="578.03" y2="60.00"/>
    <line x1="579.23" y1="540.00" x2="579.23" y2="60.00"/>
    <line x1="580.43" y1="540.00" x2="580.43" y2="60.00"/>
    <line x1="581.63" y1="540.00" x2="581.63" y2="60.00"/>
    <line x1="584.03" y1="540.00" x2="584.03" y2="60.00"/>
    <line x1="585.22" y1="540.00" x2="585.22" y2="60.00"/>
    <line x1="586.42" y1="540.00" x2="586.42" y2="60.00"/>
    <line x1="587.62" y1="540.00" x2="587.62" y2="60.00"/>
    <line x1="590.02" y1="540.00" x2="590.02" y2="60.00"/>
    <line x1="591.22" y1="540.00" x2="591.22" y2="60.00"/>
    <line x1="592.42" y1="540.00" x2="592.42" y2="60.00"/>
    <line x1="593.62" y1="540.00" x2="593.62" y2="60.00"/>
    <line x1="596.02" y1="540.00" x2="596.02" y2="60.00"/>
    <line x1="597.22" y1="540.00" x2="597.22" y2="60.00"/>
    <line x1="598.42" y1="540.00" x2="598.42" y2="60.00"/>
    <line x1="599.62" y1="540.00" x2="599.62" y2="60.00"/>
    <line x1="602.02" y1="540.00" x2="602.02" y2="60.00"/>
    <line x1="603.22" y1="540.00" x2="603.22" y2="60.00"/>
    <line x1="604.42" y1="540.00" x2="604.42" y2="60.00"/>
    <line x1="605.62" y1="540.00" x2="605.62" y2="60.00"/>
    <line x1="608.02" y1="540.00" x2="608.02" y2="60.00"/>
    <line x1="609.22" y1="540.00" x2="609.22" y2="60.00"/>
    <line x1="610.42" y1="540.00" x2="610.42" y2="60.00"/>
    <line x1="611.62" y1="540.00" x2="611.62" y2="60.00"/>
    <line x1="614.02" y1="540.00" x2="614.02" y2="60.00"/>
    <line x1="615.22" y1="540.00" x2="615.22" y2="60.00"/>
    <line x1="616.42" y1="540.00" x2="616.42" y2="60.00"/>
    <line x1="617.62" y1="540.00" x2="617.62" y2="60.00"/>
    <line x1="620.02" y1="540.00" x2="620.02" y2="60.00"/>
    <line x1="621.22" y1="540.00" x2="621.22" y2="60.00"/>
    <line x1="622.42" y1="540.00" x2="622.42" y2="60.00"/>
    <line x1="623.62" y1="540.00" x2="623.62" y2="60.00"/>
    <line x1="626.02" y1="540.00" x2="626.02" y2="60.00"/>
    <line x1="627.22" y1="540.00" x2="627.22" y2="60.00"/>
    <line x1="628.41" y1="540.00" x2="628.41" y2="60.00"/>
    <line x1="629.61" y1="540.00" x2="629.61" y2="60.00"/>
    <line x1="632.01" y1="540.00" x2="632.01" y2="60.00"/>
    <line x1="633.21" y1="540.00" x2="633.21" y2="60.00"/>
    <line x1="634.41" y1="540.00" x2="634.41" y2="60.00"/>
    <line x1="635.61" y1="540.00" x2="635.61" y2="60.00"/>
    <line x1="638.01" y1="540.00" x2="638.01" y2="60.00"/>
    <line x1="639.21" y1="540.00" x2="639.21" y2="60.00"/>
    <line x1="640.41" y1="540.00" x2="640.41" y2="60.00"/>
    <line x1="641.61" y1="540.00" x2="641.61" y2="60.00"/>
    <line x1="644.01" y1="540.00" x2="644.01" y2="60.00"/>
    <line x1="645.21" y1="540.00" x2="645.21" y2="60.00"/>
    <line x1="646.41" y1="540.00" x2="646.41" y2="60.00"/>
    <line x1="647.61" y1="540.00" x2="647.61" y2="60.00"/>
    <line x1="650.01" y1="540.00" x2="650.01" y2="60.00"/>
    <line x1="651.21" y1="540.00" x2="651.21" y2="60.00"/>
    <line x1="652.41" y1="540.00" x2="652.41" y2="60.00"/>
    <line x1="653.61" y1="540.00" x2="653.61" y2="60.00"/>
    <line x1="656.01" y1="540.00" x2="656.01" y2="60.00"/>
    <line x1="657.21" y1="540.00" x2="657.21" y2="60.00"/>
    <line x1="658.41" y1="540.00" x2="658.41" y2="60.00"/>
    <line x1="659.61" y1="540.00" x2="659.61" y2="60.00"/>
    <line x1="662.01" y1="540.00" x2="662.01" y2="60.00"/>
    <line x1="663.21" y1="540.00" x2="663.21" y2="60.00"/>
    <line x1="664.41" y1="540.00" x2="664.41" y2="60.00"/>
    <line x1="665.61" y1="540.00" x2="665.61" y2="60.00"/>
    <line x1="668.01" y1="540.00" x2="668.01" y2="60.00"/>
    <line x1="669.21" y1="540.00" x2="669.21" y2="60.00"/>
    <line x1="670.41" y1="540.00" x2="670.41" y2="60.00"/>
    <line x1="671.60" y1="540.00" x2="671.60" y2="60.00"/>
    <line x1="674.00" y1="540.00" x2="674.00" y2="60.00"/>
    <line x1="675.20" y1="540.00" x2="675.20" y2="60.00"/>
    <line x1="676.40" y1="540.00" x2="676.40" y2="60.00"/>
    <line x1="677.60" y1="540.00" x2="677.60" y2="60.00"/>
    <line x1="680.00" y1="540.00" x2="680.00" y2="60.00"/>
    <line x1="681.20" y1="540.00" x2="681.20" y2="60.00"/>
    <line x1="682.40" y1="540.00" x2="682.40" y2="60.00"/>
    <line x1="683.60" y1="540.00" x2="683.60" y2="60.00"/>
    <line x1="686.00" y1="540.00" x2="686.00" y2="60.00"/>
    <line x1="687.20" y1="540.00" x2="687.20" y2="60.00"/>
    <line x1="688.40" y1="540.00" x2="688.40" y2="60.00"/>
    <line x1="689.60" y1="540.00" x2="689.60" y2="60.00"/>
    <line x1="692.00" y1="540.00" x2="692.00" y2="60.00"/>
    <line x1="693.20" y1="540.00" x2="693.20" y2="60.00"/>
    <line x1="694.40" y1="540.00" x2="694.40" y2="60.00"/>
    <line x1="695.60" y1="540.00" x2="695.60" y2="60.00"/>
    <line x1="698.00" y1="540.00" x2="698.00" y2="60.00"/>
    <line x1="699.20" y1="540.00" x2="699.20" y2="60.00"/>
    <line x1="700.40" y1="540.00" x2="700.40" y2="60.00"/>
    <line x1="701.60" y1="540.00" x2="701.60" y2="60.00"/>
    <line x1="704.00" y1="540.00" x2="704.00" y2="60.00"/>
    <line x1="705.20" y1="540.00" x2="705.20" y2="60.00"/>
    <line x1="706.40" y1="540.00" x2="706.40" y2="60.00"/>
    <line x1="707.60" y1="540.00" x2="707.60" y2="60.00"/>
    <line x1="710.00" y1="540.00" x2="710.00" y2="60.00"/>
    <line x1="711.20" y1="540.00" x2="711.20" y2="60.00"/>
    <line x1="712.40" y1="540.00" x2="712.40" y2="60.00"/>
    <line x1="713.60" y1="540.00" x2="713.60" y2="60.00"/>
    <line x1="715.99" y1="540.00" x2="715.99" y2="60.00"/>
    <line x1="717.19" y1="540.00" x2="717.19" y2="60.00"/>
    <line x1="718.39" y1="540.00" x2="718.39" y2="60.00"/>
    <line x1="719.59" y1="540.00" x2="719.59" y2="60.00"/>
    <line x1="80.00" y1="539.25" x2="720.00" y2="539.25"/>
    <line x1="80.00" y1="537.94" x2="720.00" y2="537.94"/>
    <line x1="80.00" y1="536.63" x2="720.00" y2="536.63"/>
    <line x1="80.00" y1="535.32" x2="720.00" y2="535.32"/>
    <line x1="80.00" y1="532.71" x2="720.00" y2="532.71"/>
    <line x1="80.00" y1="531.40" x2="720.00" y2="531.40"/>
    <line x1="80.00" y1="530.09" x2="720.00" y2="530.09"/>
    <line x1="80.00" y1="528.78" x2="720.00" y2="528.78"/>
    <line x1="80.00" y1="526.16" x2="720.00" y2="526.16"/>
    <line x1="80.00" y1="524.85" x2="720.00" y2="524.85"/>
    <line x1="80.00" y1="523.54" x2="720.00" y2="523.54"/>
    <line x1="80.00" y1="522.24" x2="720.00" y2="522.24"/>
    <line x1="80.00" y1="519.62" x2="720.00" y2="519.62"/>
    <line x1="80.00" y1="518.31" x2="720.00" y2="518.31"/>
    <line x1="80.00" y1="517.00" x2="720.00" y2="517.00"/>
    <line x1="80.00" y1="515.69" x2="720.00" y2="515.69"/>
    <line x1="80.00" y1="513.07" x2="720.00" y2="513.07"/>
    <line x1="80.00" y1="511.77" x2="720.00" y2="511.77"/>
    <line x1="80.00" y1="510.46" x2="720.00" y2="510.46"/>
    <line x1="80.00" y1="509.15" x2="720.00" y2="509.15"/>
    <line x1="80.00" y1="506.53" x2="720.00" y2="506.53"/>
    <line x1="80.00" y1="505.22" x2="720.00" y2="505.22"/>
    <line x1="80.00" y1="503.91" x2="720.00" y2="503.91"/>
    <line x1="80.00" y1="502.60" x2="720.00" y2="502.60"/>
    <line x1="80.00" y1="499.99" x2="720.00" y2="499.99"/>
    <line x1="80.00" y1="498.68" x2="720.00" y2="498.68"/>
    <line x1="80.00" y1="497.37" x2="720.00" y2="497.37"/>
    <line x1="80.00" y1="496.06" x2="720.00" y2="496.06"/>
    <line x1="80.00" y1="493.44" x2="720.00" y2="493.44"/>
    <line x1="80.00" y1="492.13" x2="720.00" y2="492.13"/>
    <line x1="80.00" y1="490.83" x2="720.00" y2="490.83"/>
    <line x1="80.00" y1="489.52" x2="720.00" y2="489.52"/>
    <line x1="80.00" y1="486.90" x2="720.00" y2="486.90"/>
    <line x1="80.00" y1="485.59" x2="720.00" y2="485.59"/>
    <line x1="80.00" y1="484.28" x2="720.00" y2="484.28"/>
    <line x1="80.00" y1="482.97" x2="720.00" y2="482.97"/>
    <line x1="80.00" y1="480.36" x2="720.00" y2="480.36"/>
    <line x1="80.00" y1="479.05" x2="720.00" y2="479.05"/>
    <line x1="80.00" y1="477.74" x2="720.00" y2="477.74"/>
    <line x1="80.00" y1="476.43" x2="720.00" y2="476.43"/>
    <line x1="80.00" y1="473.81" x2="720.00" y2="473.81"/>
    <line x1="80.00" y1="472.50" x2="720.00" y2="472.50"/>
    <line x1="80.00" y1="471.19" x2="720.00" y2="471.19"/>
    <line x1="80.00" y1="469.89" x2="720.00" y2="469.89"/>
    <line x1="80.00" y1="467.27" x2="720.00" y2="467.27"/>
    <line x1="80.00" y1="465.96" x2="720.00" y2="465.96"/>
    <line x1="80.00" y1="464.65" x2="720.00" y2="464.65"/>
    <line x1="80.00" y1="463.34" x2="720.00" y2="463.34"/>
    <line x1="80.00" y1="460.72" x2="720.00" y2="460.72"/>
    <line x1="80.00" y1="459.42" x2="720.00" y2="459.42"/>
    <line x1="80.00" y1="458.11" x2="720.00" y2="458.11"/>
    <line x1="80.00" y1="456.80" x2="720.00" y2="456.80"/>
    <line x1="80.00" y1="454.18" x2="720.00" y2="454.18"/>
    <line x1="80.00" y1="452.87" x2="720.00" y2="452.87"/>
    <line x1="80.00" y1="451.56" x2="720.00" y2="451.56"/>
    <line x1="80.00" y1="450.25" x2="720.00" y2="450.25"/>
    <line x1="80.00" y1="447.64" x2="720.00" y2="447.64"/>
    <line x1="80.00" y1="446.33" x2="720.00" y2="446.33"/>
    <line x1="80.00" y1="445.02" x2="720.00" y2="445.02"/>
    <line x1="80.00" y1="443.71" x2="720.00" y2="443.71"/>
    <line x1="80.00" y1="441.09" x2="720.00" y2="441.09"/>
    <line x1="80.00" y1="439.78" x2="720.00" y2="439.78"/>
    <line x1="80.00" y1="438.48" x2="720.00" y2="438.48"/>
    <line x1="80.00" y1="437.17" x2="720.00" y2="437.17"/>
    <line x1="80.00" y1="434.55" x2="720.00" y2="434.55"/>
    <line x1="80.00" y1="433.24" x2="720.00" y2="433.24"/>
    <line x1="80.00" y1="431.93" x2="720.00" y2="431.93"/>
    <line x1="80.00" y1="430.62" x2="720.00" y2="430.62"/>
    <line x1="80.00" y1="428.01" x2="720.00" y2="428.01"/>
    <line x1="80.00" y1="426.70" x2="720.00" y2="426.70"/>
    <line x1="80.00" y1="425.39" x2="720.00" y2="425.39"/>
    <line x1="80.00" y1="424.08" x2="720.00" y2="424.08"/>
    <line x1="80.00" y1="421.46" x2="720.00" y2="421.46"/>
    <line x1="80.00" y1="420.15" x2="720.00" y2="420.15"/>
    <line x1="80.00" y1="418.85" x2="720.00" y2="418.85"/>
    <line x1="80.00" y1="417.54" x2="720.00" y2="417.54"/>
    <line x1="80.00" y1="414.92" x2="720.00" y2="414.92"/>
    <line x1="80.00" y1="413.61" x2="720.00" y2="413.61"/>
    <line x1="80.00" y1="412.30" x2="720.00" y2="412.30"/>
    <line x1="80.00" y1="410.99" x2="720.00" y2="410.99"/>
    <line x1="80.00" y1="408.38" x2="720.00" y2="408.38"/>
    <line x1="80.00" y1="407.07" x2="720.00" y2="407.07"/>
    <line x1="80.00" y1="405.76" x2="720.00" y2="405.76"/>
    <line x1="80.00" y1="404.45" x2="720.00" y2="404.45"/>
    <line x1="80.00" y1="401.83" x2="720.00" y2="401.83"/>
    <line x1="80.00" y1="400.52" x2="720.00" y2="400.52"/>
    <line x1="80.00" y1="399.21" x2="720.00" y2="399.21"/>
    <line x1="80.00" y1="397.91" x2="720.00" y2="397.91"/>
    <line x1="80.00" y1="395.29" x2="720.00" y2="395.29"/>
    <line x1="80.00" y1="393.98" x2="720.00" y2="393.98"/>
    <line x1="80.00" y1="392.67" x2="720.00" y2="392.67"/>
    <line x1="80.00" y1="391.36" x2="720.00" y2="391.36"/>
    <line x1="80.00" y1="388.74" x2="720.00" y2="388.74"/>
    <line x1="80.00" y1="387.44" x2="720.00" y2="387.44"/>
    <line x1="80.00" y1="386.13" x2="720.00" y2="386.13"/>
    <line x1="80.00" y1="384.82" x2="720.00" y2="384.82"/>
    <line x1="80.00" y1="382.20" x2="720.00" y2="382.20"/>
    <line x1="80.00" y1="380.89" x2="720.00" y2="380.89"/>
    <line x1="80.00" y1="379.58" x2="720.00" y2="379.58"/>
    <line x1="80.00" y1="378.27" x2="720.00" y2="378.27"/>
    <line x1="80.00" y1="375.66" x2="720.00" y2="375.66"/>
    <line x1="80.00" y1="374.35" x2="720.00" y2="374.35"/>
    <line x1="80.00" y1="373.04" x2="720.00" y2="373.04"/>
    <line x1="80.00" y1="371.73" x2="720.00" y2="371.73"/>
    <line x1="80.00" y1="369.11" x2="720.00" y2="369.11"/>
    <line x1="80.00" y1="367.80" x2="720.00" y2="367.80"/>
    <line x1="80.00" y1="366.50" x2="720.00" y2="366.50"/>
    <line x1="80.00" y1="365.19" x2="720.00" y2="365.19"/>
    <line x1="80.00" y1="362.57" x2="720.00" y2="362.57"/>
    <line x1="80.00" y1="361.26" x2="720.00" y2="361.26"/>
    <line x1="80.00" y1="359.95" x2="720.00" y2="359.95"/>
    <line x1="80.00" y1="358.64" x2="720.00" y2="358.64"/>
    <line x1="80.00" y1="356.03" x2="720.00" y2="356.03"/>
    <line x1="80.00" y1="354.72" x2="720.00" y2="354.72"/>
    <line x1="80.00" y1="353.41" x2="720.00" y2="353.41"/>
    <line x1="80.00" y1="352.10" x2="720.00" y2="352.10"/>
    <line x1="80.00" y1="349.48" x2="720.00" y2="349.48"/>
    <line x1="80.00" y1="348.17" x2="720.00" y2="348.17"/>
    <line x1="80.00" y1="346.86" x2="720.00" y2="346.86"/>
    <line x1="80.00" y1="345.56" x2="720.00" y2="345.56"/>
    <line x1="80.00" y1="342.94" x2="720.00" y2="342.94"/>
    <line x1="80.00" y1="341.63" x2="720.00" y2="341.63"/>
    <line x1="80.00" y1="340.32" x2="720.00" y2="340.32"/>
    <line x1="80.00" y1="339.01" x2="720.00" y2="339.01"/>
    <line x1="80.00" y1="336.39" x2="720.00" y2="336.39"/>
    <line x1="80.00" y1="335.09" x2="720.00" y2="335.09"/>
    <line x1="80.00" y1="333.78" x2="720.00" y2="333.78"/>
    <line x1="80.00" y1="332.47" x2="720.00" y2="332.47"/>
    <line x1="80.00" y1="329.85" x2="720.00" y2="329.85"/>
    <line x1="80.00" y1="328.54" x2="720.00" y2="328.54"/>
    <line x1="80.00" y1="327.23" x2="720.00" y2="327.23"/>
    <line x1="80.00" y1="325.92" x2="720.00" y2="325.92"/>
    <line x1="80.00" y1="323.31" x2="720.00" y2="323.31"/>
    <line x1="80.00" y1="322.00" x2="720.00" y2="322.00"/>
    <line x1="80.00" y1="320.69" x2="720.00" y2="320.69"/>
    <line x1="80.00" y1="319.38" x2="720.00" y2="319.38"/>
    <line x1="80.00" y1="316.76" x2="720.00" y2="316.76"/>
    <line x1="80.00" y1="315.45" x2="720.00" y2="315.45"/>
    <line x1="80.00" y1="314.15" x2="720.00" y2="314.15"/>
    <line x1="80.00" y1="312.84" x2="720.00" y2="312.84"/>
    <line x1="80.00" y1="310.22" x2="720.00" y2="310.22"/>
    <line x1="80.00" y1="308.91" x2="720.00" y2="308.91"/>
    <line x1="80.00" y1="307.60" x2="720.00" y2="307.60"/>
    <line x1="80.00" y1="306.29" x2="720.00" y2="306.29"/>
    <line x1="80.00" y1="303.68" x2="720.00" y2="303.68"/>
    <line x1="80.00" y1="302.37" x2="720.00" y2="302.37"/>
    <line x1="80.00" y1="301.06" x2="720.00" y2="301.06"/>
    <line x1="80.00" y1="299.75" x2="720.00" y2="299.75"/>
    <line x1="80.00" y1="297.13" x2="720.00" y2="297.13"/>
    <line x1="80.00" y1="295.82" x2="720.00" y2="295.82"/>
    <line x1="80.00" y1="294.52" x2="720.00" y2="294.52"/>
    <line x1="80.00" y1="293.21" x2="720.00" y2="293.21"/>
    <line x1="80.00" y1="290.59" x2="720.00" y2="290.59"/>
    <line x1="80.00" y1="289.28" x2="720.00" y2="289.28"/>
    <line x1="80.00" y1="287.97" x2="720.00" y2="287.97"/>
    <line x1="80.00" y1="286.66" x2="720.00" y2="286.66"/>
    <line x1="80.00" y1="284.05" x2="720.00" y2="284.05"/>
    <line x1="80.00" y1="282.74" x2="720.00" y2="282.74"/>
    <line x1="80.00" y1="281.43" x2="720.00" y2="281.43"/>
    <line x1="80.00" y1="280.12" x2="720.00" y2="280.12"/>
    <line x1="80.00" y1="277.50" x2="720.00" y2="277.50"/>
    <line x1="80.00" y1="276.19" x2="720.00" y2="276.19"/>
    <line x1="80.00" y1="274.88" x2="720.00" y2="274.88"/>
    <line x1="80.00" y1="273.58" x2="720.00" y2="273.58"/>
    <line x1="80.00" y1="270.96" x2="720.00" y2="270.96"/>
    <line x1="80.00" y1="269.65" x2="720.00" y2="269.65"/>
    <line x1="80.00" y1="268.34" x2="720.00" y2="268.34"/>
    <line x1="80.00" y1="267.03" x2="720.00" y2="267.03"/>
    <line x1="80.00" y1="264.41" x2="720.00" y2="264.41"/>
    <line x1="80.00" y1="263.11" x2="720.00" y2="263.11"/>
    <line x1="80.00" y1="261.80" x2="720.00" y2="261.80"/>
    <line x1="80.00" y1="260.49" x2="720.00" y2="260.49"/>
    <line x1="80.00" y1="257.87" x2="720.00" y2="257.87"/>
    <line x1="80.00" y1="256.56" x2="720.00" y2="256.56"/>
    <line x1="80.00" y1="255.25" x2="720.00" y2="255.25"/>
    <line x1="80.00" y1="253.94" x2="720.00" y2="253.94"/>
    <line x1="80.00" y1="251.33" x2="720.00" y2="251.33"/>
    <line x1="80.00" y1="250.02" x2="720.00" y2="250.02"/>
    <line x1="80.00" y1="248.71" x2="720.00" y2="248.71"/>
    <line x1="80.00" y1="247.40" x2="720.00" y2="247.40"/>
    <line x1="80.00" y1="244.78" x2="720.00" y2="244.78"/>
    <line x1="80.00" y1="243.47" x2="720.00" y2="243.47"/>
    <line x1="80.00" y1="242.17" x2="720.00" y2="242.17"/>
    <line x1="80.00" y1="240.86" x2="720.00" y2="240.86"/>
    <line x1="80.00" y1="238.24" x2="720.00" y2="238.24"/>
    <line x1="80.00" y1="236.93" x2="720.00" y2="236.93"/>
    <line x1="80.00" y1="235.62" x2="720.00" y2="235.62"/>
    <line x1="80.00" y1="234.31" x2="720.00" y2="234.31"/>
    <line x1="80.00" y1="231.70" x2="720.00" y2="231.70"/>
    <line x1="80.00" y1="230.39" x2="720.00" y2="230.39"/>
    <line x1="80.00" y1="229.08" x2="720.00" y2="229.08"/>
    <line x1="80.00" y1="227.77" x2="720.00" y2="227.77"/>
    <line x1="80.00" y1="225.15" x2="720.00" y2="225.15"/>
    <line x1="80.00" y1="223.84" x2="720.00" y2="223.84"/>
    <line x1="80.00" y1="222.53" x2="720.00" y2="222.53"/>
    <line x1="80.00" y1="221.23" x2="720.00" y2="221.23"/>
    <line x1="80.00" y1="218.61" x2="720.00" y2="218.61"/>
    <line x1="80.00" y1="217.30" x2="720.00" y2="217.30"/>
    <line x1="80.00" y1="215.99" x2="720.00" y2="215.99"/>
    <line x1="80.00" y1="214.68" x2="720.00" y2="214.68"/>
    <line x1="80.00" y1="212.06" x2="720.00" y2="212.06"/>
    <line x1="80.00" y1="210.76" x2="720.00" y2="210.76"/>
    <line x1="80.00" y1="209.45" x2="720.00" y2="209.45"/>
    <line x1="80.00" y1="208.14" x2="720.00" y2="208.14"/>
    <line x1="80.00" y1="205.52" x2="720.00" y2="205.52"/>
    <line x1="80.00" y1="204.21" x2="720.00" y2="204.21"/>
    <line x1="80.00" y1="202.90" x2="720.00" y2="202.90"/>
    <line x1="80.00" y1="201.59" x2="720.00" y2="201.59"/>
    <line x1="80.00" y1="198.98" x2="720.00" y2="198.98"/>
    <line x1="80.00" y1="197.67" x2="720.00" y2="197.67"/>
    <line x1="80.00" y1="196.36" x2="720.00" y2="196.36"/>
    <line x1="80.00" y1="195.05" x2="720.00" y2="195.05"/>
    <line x1="80.00" y1="192.43" x2="720.00" y2="192.43"/>
    <line x1="80.00" y1="191.12" x2="720.00" y2="191.12"/>
    <line x1="80.00" y1="189.82" x2="720.00" y2="189.82"/>
    <line x1="80.00" y1="188.51" x2="720.00" y2="188.51"/>
    <line x1="80.00" y1="185.89" x2="720.00" y2="185.89"/>
    <line x1="80.00" y1="184.58" x2="720.00" y2="184.58"/>
    <line x1="80.00" y1="183.27" x2="720.00" y2="183.27"/>
    <line x1="80.00" y1="181.96" x2="720.00" y2="181.96"/>
    <line x1="80.00" y1="179.35" x2="720.00" y2="179.35"/>
    <line x1="80.00" y1="178.04" x2="720.00" y2="178.04"/>
    <line x1="80.00" y1="176.73" x2="720.00" y2="176.73"/>
    <line x1="80.00" y1="175.42" x2="720.00" y2="175.42"/>
    <line x1="80.00" y1="172.80" x2="720.00" y2="172.80"/>
    <line x1="80.00" y1="171.49" x2="720.00" y2="171.49"/>
    <line x1="80.00" y1="170.19" x2="720.00" y2="170.19"/>
    <line x1="80.00" y1="168.88" x2="720.00" y2="168.88"/>
    <line x1="80.00" y1="166.26" x2="720.00" y2="166.26"/>
    <line x1="80.00" y1="164.95" x2="720.00" y2="164.95"/>
    <line x1="80.00" y1="163.64" x2="720.00" y2="163.64"/>
    <line x1="80.00" y1="162.33" x2="720.00" y2="162.33"/>
    <line x1="80.00" y1="159.72" x2="720.00" y2="159.72"/>
    <line x1="80.00" y1="158.41" x2="720.00" y2="158.41"/>
    <line x1="80.00" y1="157.10" x2="720.00" y2="157.10"/>
    <line x1="80.00" y1="155.79" x2="720.00" y2="155.79"/>
    <line x1="80.00" y1="153.17" x2="720.00" y2="153.17"/>
    <line x1="80.00" y1="151.86" x2="720.00" y2="151.86"/>
    <line x1="80.00" y1="150.55" x2="720.00" y2="150.55"/>
    <line x1="80.00" y1="149.25" x2="720.00" y2="149.25"/>
    <line x1="80.00" y1="146.63" x2="720.00" y2="146.63"/>
    <line x1="80.00" y1="145.32" x2="720.00" y2="145.32"/>
    <line x1="80.00" y1="144.01" x2="720.00" y2="144.01"/>
    <line x1="80.00" y1="142.70" x2="720.00" y2="142.70"/>
    <line x1="80.00" y1="140.08" x2="720.00" y2="140.08"/>
    <line x1="80.00" y1="138.78" x2="720.00" y2="138.78"/>
    <line x1="80.00" y1="137.47" x2="720.00" y2="137.47"/>
    <line x1="80.00" y1="136.16" x2="720.00" y2="136.16"/>
    <line x1="80.00" y1="133.54" x2="720.00" y2="133.54"/>
    <line x1="80.00" y1="132.23" x2="720.00" y2="132.23"/>
    <line x1="80.00" y1="130.92" x2="720.00" y2="130.92"/>
    <line x1="80.00" y1="129.61" x2="720.00" y2="129.61"/>
    <line x1="80.00" y1="127.00" x2="720.00" y2="127.00"/>
    <line x1="80.00" y1="125.69" x2="720.00" y2="125.69"/>
    <line x1="80.00" y1="124.38" x2="720.00" y2="124.38"/>
    <line x1="80.00" y1="123.07" x2="720.00" y2="123.07"/>
    <line x1="80.00" y1="120.45" x2="720.00" y2="120.45"/>
    <line x1="80.00" y1="119.14" x2="720.00" y2="119.14"/>
    <line x1="80.00" y1="117.84" x2="720.00" y2="117.84"/>
    <line x1="80.00" y1="116.53" x2="720.00" y2="116.53"/>
    <line x1="80.00" y1="113.91" x2="720.00" y2="113.91"/>
    <line x1="80.00" y1="112.60" x2="720.00" y2="112.60"/>
    <line x1="80.00" y1="111.29" x2="720.00" y2="111.29"/>
    <line x1="80.00" y1="109.98" x2="720.00" y2="109.98"/>
    <line x1="80.00" y1="107.37" x2="720.00" y2="107.37"/>
    <line x1="80.00" y1="106.06" x2="720.00" y2="106.06"/>
    <line x1="80.00" y1="104.75" x2="720.00" y2="104.75"/>
    <line x1="80.00" y1="103.44" x2="720.00" y2="103.44"/>
    <line x1="80.00" y1="100.82" x2="720.00" y2="100.82"/>
    <line x1="80.00" y1="99.51" x2="720.00" y2="99.51"/>
    <line x1="80.00" y1="98.20" x2="720.00" y2="98.20"/>
    <line x1="80.00" y1="96.90" x2="720.00" y2="96.90"/>
    <line x1="80.00" y1="94.28" x2="720.00" y2="94.28"/>
    <line x1="80.00" y1="92.97" x2="720.00" y2="92.97"/>
    <line x1="80.00" y1="91.66" x2="720.00" y2="91.66"/>
    <line x1="80.00" y1="90.35" x2="720.00" y2="90.35"/>
    <line x1="80.00" y1="87.73" x2="720.00" y2="87.73"/>
    <line x1="80.00" y1="86.43" x2="720.00" y2="86.43"/>
    <line x1="80.00" y1="85.12" x2="720.00" y2="85.12"/>
    <line x1="80.00" y1="83.81" x2="720.00" y2="83.81"/>
    <line x1="80.00" y1="81.19" x2="720.00" y2="81.19"/>
    <line x1="80.00" y1="79.88" x2="720.00" y2="79.88"/>
    <line x1="80.00" y1="78.57" x2="720.00" y2="78.57"/>
    <line x1="80.00" y1="77.26" x2="720.00" y2="77.26"/>
    <line x1="80.00" y1="74.65" x2="720.00" y2="74.65"/>
    <line x1="80.00" y1="73.34" x2="720.00" y2="73.34"/>
    <line x1="80.00" y1="72.03" x2="720.00" y2="72.03"/>
    <line x1="80.00" y1="70.72" x2="720.00" y2="70.72"/>
    <line x1="80.00" y1="68.10" x2="720.00" y2="68.10"/>
    <line x1="80.00" y1="66.79" x2="720.00" y2="66.79"/>
    <line x1="80.00" y1="65.49" x2="720.00" y2="65.49"/>
    <line x1="80.00" y1="64.18" x2="720.00" y2="64.18"/>
    <line x1="80.00" y1="61.56" x2="720.00" y2="61.56"/>
    <line x1="80.00" y1="60.25" x2="720.00" y2="60.25"/>
  </g>
  <g stroke="#808080" stroke-width="2">
    <line x1="582.83" y1="540.00" x2="582.83" y2="60.00"/>
    <line x1="80.00" y1="265.72" x2="720.00" y2="265.72"/>
  </g>
  <polyline fill="none" stroke="#0066cc" stroke-width="2" points="602.24,258.84 599.42,258.70 597.36,258.54 595.79,258.34 594.55,258.11 593.57,257.83 592.76,257.51 592.09,257.14 591.54,256.70 591.07,256.18 590.67,255.56 590.33,254.83 590.04,253.94 589.79,252.84 589.58,251.48 589.40,249.73 589.25,247.43 589.12,244.28 589.02,239.73 588.94,232.59 588.89,219.86 588.85,190.83 588.83,60.00 588.83,540.00 588.84,348.09 588.88,314.27 588.93,300.21 589.01,292.53 589.11,287.71 589.23,284.40 589.38,282.01 589.55,280.19 589.76,278.78 590.00,277.65 590.28,276.74 590.62,275.98 591.01,275.35 591.46,274.82 592.01,274.37 592.66,273.98 593.44,273.65 594.40,273.37 595.59,273.14 597.11,272.93 599.09,272.76 601.77,272.62 605.61,272.51 611.50,272.41 621.66,272.35 643.26,272.30 720.00,272.27 80.00,272.27 494.03,272.28 534.04,272.32 549.12,272.37 557.02,272.45 561.87,272.55 565.14,272.68 567.48,272.83 569.24,273.02 570.60,273.23 571.69,273.49 572.56,273.79 573.29,274.14 573.89,274.55 574.39,275.03 574.82,275.60 575.18,276.29 575.49,277.11 575.76,278.11 575.99,279.35 576.18,280.91 576.34,282.95 576.48,285.68 576.59,289.54 576.67,295.35 576.74,305.08 576.79,324.61 576.82,383.32 "/>
</svg>
