<?xml version="1.0" encoding="UTF-8"?>
<svg xmlns="http://www.w3.org/2000/svg" width="800" height="600">
  <title>R=1/tan(t):.1,1.5:</title>
  <rect width="800" height="600" fill="#ffffff"/>
  <g stroke="#d0d0d0" stroke-width="1">
    <line x1="78.87" y1="540.00" x2="78.87" y2="60.00"/>
    <line x1="84.87" y1="540.00" x2="84.87" y2="60.00"/>
    <line x1="90.87" y1="540.00" x2="90.87" y2="60.00"/>
    <line x1="96.87" y1="540.00" x2="96.87" y2="60.00"/>
    <line x1="102.88" y1="540.00" x2="102.88" y2="60.00"/>
    <line x1="108.88" y1="540.00" x2="108.88" y2="60.00"/>
    <line x1="114.88" y1="540.00" x2="114.88" y2="60.00"/>
    <line x1="120.88" y1="540.00" x2="120.88" y2="60.00"/>
    <line x1="126.88" y1="540.00" x2="126.88" y2="60.00"/>
    <line x1="132.89" y1="540.00" x2="132.89" y2="60.00"/>
    <line x1="138.89" y1="540.00" x2="138.89" y2="60.00"/>
    <line x1="144.89" y1="540.00" x2="144.89" y2="60.00"/>
    <line x1="150.89" y1="540.00" x2="150.89" y2="60.00"/>
    <line x1="156.89" y1="540.00" x2="156.89" y2="60.00"/>
    <line x1="162.89" y1="540.00" x2="162.89" y2="60.00"/>
    <line x1="168.90" y1="540.00" x2="168.90" y2="60.00"/>
    <line x1="174.90" y1="540.00" x2="174.90" y2="60.00"/>
    <line x1="180.90" y1="540.00" x2="180.90" y2="60.00"/>
    <line x1="186.90" y1="540.00" x2="186.90" y2="60.00"/>
    <line x1="192.90" y1="540.00" x2="192.90" y2="60.00"/>
    <line x1="198.90" y1="540.00" x2="198.90" y2="60.00"/>
    <line x1="204.91" y1="540.00" x2="204.91" y2="60.00"/>
    <line x1="210.91" y1="540.00" x2="210.91" y2="60.00"/>
    <line x1="216.91" y1="540.00" x2="216.91" y2="60.00"/>
    <line x1="222.91" y1="540.00" x2="222.91" y2="60.00"/>
    <line x1="228.91" y1="540.00" x2="228.91" y2="60.00"/>
    <line x1="234.92" y1="540.00" x2="234.92" y2="60.00"/>
    <line x1="240.92" y1="540.00" x2="240.92" y2="60.00"/>
    <line x1="246.92" y1="540.00" x2="246.92" y2="60.00"/>
    <line x1="252.92" y1="540.00" x2="252.92" y2="60.00"/>
    <line x1="258.92" y1="540.00" x2="258.92" y2="60.00"/>
    <line x1="264.92" y1="540.00" x2="264.92" y2="60.00"/>
    <line x1="270.93" y1="540.00" x2="270.93" y2="60.00"/>
    <line x1="276.93" y1="540.00" x2="276.93" y2="60.00"/>
    <line x1="282.93" y1="540.00" x2="282.93" y2="60.00"/>
    <line x1="288.93" y1="540.00" x2="288.93" y2="60.00"/>
    <line x1="294.93" y1="540.00" x2="294.93" y2="60.00"/>
    <line x1="300.93" y1="540.00" x2="300.93" y2="60.00"/>
    <line x1="306.94" y1="540.00" x2="306.94" y2="60.00"/>
    <line x1="312.94" y1="540.00" x2="312.94" y2="60.00"/>
    <line x1="318.94" y1="540.00" x2="318.94" y2="60.00"/>
    <line x1="324.94" y1="540.00" x2="324.94" y2="60.00"/>
    <line x1="330.94" y1="540.00" x2="330.94" y2="60.00"/>
    <line x1="336.94" y1="540.00" x2="336.94" y2="60.00"/>
    <line x1="342.95" y1="540.00" x2="342.95" y2="60.00"/>
    <line x1="348.95" y1="540.00" x2="348.95" y2="60.00"/>
    <line x1="354.95" y1="540.00" x2="354.95" y2="60.00"/>
    <line x1="360.95" y1="540.00" x2="360.95" y2="60.00"/>
    <line x1="366.95" y1="540.00" x2="366.95" y2="60.00"/>
    <line x1="372.96" y1="540.00" x2="372.96" y2="60.00"/>
    <line x1="378.96" y1="540.00" x2="378.96" y2="60.00"/>
    <line x1="384.96" y1="540.00" x2="384.96" y2="60.00"/>
    <line x1="390.96" y1="540.00" x2="390.96" y2="60.00"/>
    <line x1="396.96" y1="540.00" x2="396.96" y2="60.00"/>
    <line x1="402.96" y1="540.00" x2="402.96" y2="60.00"/>
    <line x1="408.97" y1="540.00" x2="408.97" y2="60.00"/>
    <line x1="414.97" y1="540.00" x2="414.97" y2="60.00"/>
    <line x1="420.97" y1="540.00" x2="420.97" y2="60.00"/>
    <line x1="426.97" y1="540.00" x2="426.97" y2="60.00"/>
    <line x1="432.97" y1="540.00" x2="432.97" y2="60.00"/>
    <line x1="438.97" y1="540.00" x2="438.97" y2="60.00"/>
    <line x1="444.98" y1="540.00" x2="444.98" y2="60.00"/>
    <line x1="450.98" y1="540.00" x2="450.98" y2="60.00"/>
    <line x1="456.98" y1="540.00" x2="456.98" y2="60.00"/>
    <line x1="462.98" y1="540.00" x2="462.98" y2="60.00"/>
    <line x1="468.98" y1="540.00" x2="468.98" y2="60.00"/>
    <line x1="474.98" y1="540.00" x2="474.98" y2="60.00"/>
    <line x1="480.99" y1="540.00" x2="480.99" y2="60.00"/>
    <line x1="486.99" y1="540.00" x2="486.99" y2="60.00"/>
    <line x1="492.99" y1="540.00" x2="492.99" y2="60.00"/>
    <line x1="498.99" y1="540.00" x2="498.99" y2="60.00"/>
    <line x1="504.99" y1="540.00" x2="504.99" y2="60.00"/>
    <line x1="511.00" y1="540.00" x2="511.00" y2="60.00"/>
    <line x1="517.00" y1="540.00" x2="517.00" y2="60.00"/>
    <line x1="523.00" y1="540.00" x2="523.00" y2="60.00"/>
    <line x1="529.00" y1="540.00" x2="529.00" y2="60.00"/>
    <line x1="535.00" y1="540.00" x2="535.00" y2="60.00"/>
    <line x1="541.00" y1="540.00" x2="541.00" y2="60.00"/>
    <line x1="547.01" y1="540.00" x2="547.01" y2="60.00"/>
    <line x1="553.01" y1="540.00" x2="553.01" y2="60.00"/>
    <line x1="559.01" y1="540.00" x2="559.01" y2="60.00"/>
    <line x1="565.01" y1="540.00" x2="565.01" y2="60.00"/>
    <line x1="571.01" y1="540.00" x2="571.01" y2="60.00"/>
    <line x1="577.01" y1="540.00" x2="577.01" y2="60.00"/>
    <line x1="583.02" y1="540.00" x2="583.02" y2="60.00"/>
    <line x1="589.02" y1="540.00" x2="589.02" y2="60.00"/>
    <line x1="595.02" y1="540.00" x2="595.02" y2="60.00"/>
    <line x1="601.02" y1="540.00" x2="601.02" y2="60.00"/>
    <line x1="607.02" y1="540.00" x2="607.02" y2="60.00"/>
    <line x1="613.02" y1="540.00" x2="613.02" y2="60.00"/>
    <line x1="619.03" y1="540.00" x2="619.03" y2="60.00"/>
    <line x1="625.03" y1="540.00" x2="625.03" y2="60.00"/>
    <line x1="631.03" y1="540.00" x2="631.03" y2="60.00"/>
    <line x1="637.03" y1="540.00" x2="637.03" y2="60.00"/>
    <line x1="643.03" y1="540.00" x2="643.03" y2="60.00"/>
    <line x1="649.04" y1="540.00" x2="649.04" y2="60.00"/>
    <line x1="655.04" y1="540.00" x2="655.04" y2="60.00"/>
    <line x1="661.04" y1="540.00" x2="661.04" y2="60.00"/>
    <line x1="667.04" y1="540.00" x2="667.04" y2="60.00"/>
    <line x1="673.04" y1="540.00" x2="673.04" y2="60.00"/>
    <line x1="679.04" y1="540.00" x2="679.04" y2="60.00"/>
    <line x1="685.05" y1="540.00" x2="685.05" y2="60.00"/>
    <line x1="691.05" y1="540.00" x2="691.05" y2="60.00"/>
    <line x1="697.05" y1="540.00" x2="697.05" y2="60.00"/>
    <line x1="703.05" y1="540.00" x2="703.05" y2="60.00"/>
    <line x1="709.05" y1="540.00" x2="709.05" y2="60.00"/>
    <line x1="715.05" y1="540.00" x2="715.05" y2="60.00"/>
    <line x1="721.06" y1="540.00" x2="721.06" y2="60.00"/>
    <line x1="80.00" y1="540.02" x2="720.00" y2="540.02"/>
    <line x1="80.00" y1="293.99" x2="720.00" y2="293.99"/>
    <line x1="80.00" y1="47.96" x2="720.00" y2="47.96"/>
  </g>
  <g stroke="#e8e8e8" stroke-width="0.5">
    <line x1="80.07" y1="540.00" x2="80.07" y2="60.00"/>
    <line x1="81.27" y1="540.00" x2="81.27" y2="60.00"/>
    <line x1="82.47" y1="540.00" x2="82.47" y2="60.00"/>
    <line x1="83.67" y1="540.00" x2="83.67" y2="60.00"/>
    <line x1="86.07" y1="540.00" x2="86.07" y2="60.00"/>
    <line x1="87.27" y1="540.00" x2="87.27" y2="60.00"/>
    <line x1="88.47" y1="540.00" x2="88.47" y2="60.00"/>
    <line x1="89.67" y1="540.00" x2="89.67" y2="60.00"/>
    <line x1="92.07" y1="540.00" x2="92.07" y2="60.00"/>
    <line x1="93.27" y1="540.00" x2="93.27" y2="60.00"/>
    <line x1="94.47" y1="540.00" x2="94.47" y2="60.00"/>
    <line x1="95.67" y1="540.00" x2="95.67" y2="60.00"/>
    <line x1="98.08" y1="540.00" x2="98.08" y2="60.00"/>
    <line x1="99.28" y1="540.00" x2="99.28" y2="60.00"/>
    <line x1="100.48" y1="540.00" x2="100.48" y2="60.00"/>
    <line x1="101.68" y1="540.00" x2="101.68" y2="60.00"/>
    <line x1="104.08" y1="540.00" x2="104.08" y2="60.00"/>
    <line x1="105.28" y1="540.00" x2="105.28" y2="60.00"/>
    <line x1="106.48" y1="540.00" x2="106.48" y2="60.00"/>
    <line x1="107.68" y1="540.00" x2="107.68" y2="60.00"/>
    <line x1="110.08" y1="540.00" x2="110.08" y2="60.00"/>
    <line x1="111.28" y1="540.00" x2="111.28" y2="60.00"/>
    <line x1="112.48" y1="540.00" x2="112.48" y2="60.00"/>
    <line x1="113.68" y1="540.00" x2="113.68" y2="60.00"/>
    <line x1="116.08" y1="540.00" x2="116.08" y2="60.00"/>
    <line x1="117.28" y1="540.00" x2="117.28" y2="60.00"/>
    <line x1="118.48" y1="540.00" x2="118.48" y2="60.00"/>
    <line x1="119.68" y1="540.00" x2="119.68" y2="60.00"/>
    <line x1="122.08" y1="540.00" x2="122.08" y2="60.00"/>
    <line x1="123.28" y1="540.00" x2="123.28" y2="60.00"/>
    <line x1="124.48" y1="540.00" x2="124.48" y2="60.00"/>
    <line x1="125.68" y1="540.00" x2="125.68" y2="60.00"/>
    <line x1="128.08" y1="540.00" x2="128.08" y2="60.00"/>
    <line x1="129.28" y1="540.00" x2="129.28" y2="60.00"/>
    <line x1="130.48" y1="540.00" x2="130.48" y2="60.00"/>
    <line x1="131.68" y1="540.00" x2="131.68" y2="60.00"/>
    <line x1="134.09" y1="540.00" x2="134.09" y2="60.00"/>
    <line x1="135.29" y1="540.00" x2="135.29" y2="60.00"/>
    <line x1="136.49" y1="540.00" x2="136.49" y2="60.00"/>
    <line x1="137.69" y1="540.00" x2="137.69" y2="60.00"/>
    <line x1="140.09" y1="540.00" x2="140.09" y2="60.00"/>
    <line x1="141.29" y1="540.00" x2="141.29" y2="60.00"/>
    <line x1="142.49" y1="540.00" x2="142.49" y2="60.00"/>
    <line x1="143.69" y1="540.00" x2="143.69" y2="60.00"/>
    <line x1="146.09" y1="540.00" x2="146.09" y2="60.00"/>
    <line x1="147.29" y1="540.00" x2="147.29" y2="60.00"/>
    <line x1="148.49" y1="540.00" x2="148.49" y2="60.00"/>
    <line x1="149.69" y1="540.00" x2="149.69" y2="60.00"/>
    <line x1="152.09" y1="540.00" x2="152.09" y2="60.00"/>
    <line x1="153.29" y1="540.00" x2="153.29" y2="60.00"/>
    <line x1="154.49" y1="540.00" x2="154.49" y2="60.00"/>
    <line x1="155.69" y1="540.00" x2="155.69" y2="60.00"/>
    <line x1="158.09" y1="540.00" x2="158.09" y2="60.00"/>
    <line x1="159.29" y1="540.00" x2="159.29" y2="60.00"/>
    <line x1="160.49" y1="540.00" x2="160.49" y2="60.00"/>
    <line x1="161.69" y1="540.00" x2="161.69" y2="60.00"/>
    <line x1="164.09" y1="540.00" x2="164.09" y2="60.00"/>
    <line x1="165.29" y1="540.00" x2="165.29" y2="60.00"/>
    <line x1="166.50" y1="540.00" x2="166.50" y2="60.00"/>
    <line x1="167.70" y1="540.00" x2="167.70" y2="60.00"/>
    <line x1="170.10" y1="540.00" x2="170.10" y2="60.00"/>
    <line x1="171.30" y1="540.00" x2="171.30" y2="60.00"/>
    <line x1="172.50" y1="540.00" x2="172.50" y2="60.00"/>
    <line x1="173.70" y1="540.00" x2="173.70" y2="60.00"/>
    <line x1="176.10" y1="540.00" x2="176.10" y2="60.00"/>
    <line x1="177.30" y1="540.00" x2="177.30" y2="60.00"/>
    <line x1="178.50" y1="540.00" x2="178.50" y2="60.00"/>
    <line x1="179.70" y1="540.00" x2="179.70" y2="60.00"/>
    <line x1="182.10" y1="540.00" x2="182.10" y2="60.00"/>
    <line x1="183.30" y1="540.00" x2="183.30" y2="60.00"/>
    <line x1="184.50" y1="540.00" x2="184.50" y2="60.00"/>
    <line x1="185.70" y1="540.00" x2="185.70" y2="60.00"/>
    <line x1="188.10" y1="540.00" x2="188.10" y2="60.00"/>
    <line x1="189.30" y1="540.00" x2="189.30" y2="60.00"/>
    <line x1="190.50" y1="540.00" x2="190.50" y2="60.00"/>
    <line x1="191.70" y1="540.00" x2="191.70" y2="60.00"/>
    <line x1="194.10" y1="540.00" x2="194.10" y2="60.00"/>
    <line x1="195.30" y1="540.00" x2="195.30" y2="60.00"/>
    <line x1="196.50" y1="540.00" x2="196.50" y2="60.00"/>
    <line x1="197.70" y1="540.00" x2="197.70" y2="60.00"/>
    <line x1="200.10" y1="540.00" x2="200.10" y2="60.00"/>
    <line x1="201.31" y1="540.00" x2="201.31" y2="60.00"/>
    <line x1="202.51" y1="540.00" x2="202.51" y2="60.00"/>
    <line x1="203.71" y1="540.00" x2="203.71" y2="60.00"/>
    <line x1="206.11" y1="540.00" x2="206.11" y2="60.00"/>
    <line x1="207.31" y1="540.00" x2="207.31" y2="60.00"/>
    <line x1="208.51" y1="540.00" x2="208.51" y2="60.00"/>
    <line x1="209.71" y1="540.00" x2="209.71" y2="60.00"/>
    <line x1="212.11" y1="540.00" x2="212.11" y2="60.00"/>
    <line x1="213.31" y1="540.00" x2="213.31" y2="60.00"/>
    <line x1="214.51" y1="540.00" x2="214.51" y2="60.00"/>
    <line x1="215.71" y1="540.00" x2="215.71" y2="60.00"/>
    <line x1="218.11" y1="540.00" x2="218.11" y2="60.00"/>
    <line x1="219.31" y1="540.00" x2="219.31" y2="60.00"/>
    <line x1="220.51" y1="540.00" x2="220.51" y2="60.00"/>
    <line x1="221.71" y1="540.00" x2="221.71" y2="60.00"/>
    <line x1="224.11" y1="540.00" x2="224.11" y2="60.00"/>
    <line x1="225.31" y1="540.00" x2="225.31" y2="60.00"/>
    <line x1="226.51" y1="540.00" x2="226.51" y2="60.00"/>
    <line x1="227.71" y1="540.00" x2="227.71" y2="60.00"/>
    <line x1="230.11" y1="540.00" x2="230.11" y2="60.00"/>
    <line x1="231.31" y1="540.00" x2="231.31" y2="60.00"/>
    <line x1="232.51" y1="540.00" x2="232.51" y2="60.00"/>
    <line x1="233.71" y1="540.00" x2="233.71" y2="60.00"/>
    <line x1="236.12" y1="540.00" x2="236.12" y2="60.00"/>
    <line x1="237.32" y1="540.00" x2="237.32" y2="60.00"/>
    <line x1="238.52" y1="540.00" x2="238.52" y2="60.00"/>
    <line x1="239.72" y1="540.00" x2="239.72" y2="60.00"/>
    <line x1="242.12" y1="540.00" x2="242.12" y2="60.00"/>
    <line x1="243.32" y1="540.00" x2="243.32" y2="60.00"/>
    <line x1="244.52" y1="540.00" x2="244.52" y2="60.00"/>
    <line x1="245.72" y1="540.00" x2="245.72" y2="60.00"/>
    <line x1="248.12" y1="540.00" x2="248.12" y2="60.00"/>
    <line x1="249.32" y1="540.00" x2="249.32" y2="60.00"/>
    <line x1="250.52" y1="540.00" x2="250.52" y2="60.00"/>
    <line x1="251.72" y1="540.00" x2="251.72" y2="60.00"/>
    <line x1="254.12" y1="540.00" x2="254.12" y2="60.00"/>
    <line x1="255.32" y1="540.00" x2="255.32" y2="60.00"/>
    <line x1="256.52" y1="540.00" x2="256.52" y2="60.00"/>
    <line x1="257.72" y1="540.00" x2="257.72" y2="60.00"/>
    <line x1="260.12" y1="540.00" x2="260.12" y2="60.00"/>
    <line x1="261.32" y1="540.00" x2="261.32" y2="60.00"/>
    <line x1="262.52" y1="540.00" x2="262.52" y2="60.00"/>
    <line x1="263.72" y1="540.00" x2="263.72" y2="60.00"/>
    <line x1="266.12" y1="540.00" x2="266.12" y2="60.00"/>
    <line x1="267.32" y1="540.00" x2="267.32" y2="60.00"/>
    <line x1="268.52" y1="540.00" x2="268.52" y2="60.00"/>
    <line x1="269.73" y1="540.00" x2="269.73" y2="60.00"/>
    <line x1="272.13" y1="540.00" x2="272.13" y2="60.00"/>
    <line x1="273.33" y1="540.00" x2="273.33" y2="60.00"/>
    <line x1="274.53" y1="540.00" x2="274.53" y2="60.00"/>
    <line x1="275.73" y1="540.00" x2="275.73" y2="60.00"/>
    <line x1="278.13" y1="540.00" x2="278.13" y2="60.00"/>
    <line x1="279.33" y1="540.00" x2="279.33" y2="60.00"/>
    <line x1="280.53" y1="540.00" x2="280.53" y2="60.00"/>
    <line x1="281.73" y1="540.00" x2="281.73" y2="60.00"/>
    <line x1="284.13" y1="540.00" x2="284.13" y2="60.00"/>
    <line x1="285.33" y1="540.00" x2="285.33" y2="60.00"/>
    <line x1="286.53" y1="540.00" x2="286.53" y2="60.00"/>
    <line x1="287.73" y1="540.00" x2="287.73" y2="60.00"/>
    <line x1="290.13" y1="540.00" x2="290.13" y2="60.00"/>
    <line x1="291.33" y1="540.00" x2="291.33" y2="60.00"/>
    <line x1="292.53" y1="540.00" x2="292.53" y2="60.00"/>
    <line x1="293.73" y1="540.00" x2="293.73" y2="60.00"/>
    <line x1="296.13" y1="540.00" x2="296.13" y2="60.00"/>
    <line x1="297.33" y1="540.00" x2="297.33" y2="60.00"/>
    <line x1="298.53" y1="540.00" x2="298.53" y2="60.00"/>
    <line x1="299.73" y1="540.00" x2="299.73" y2="60.00"/>
    <line x1="302.13" y1="540.00" x2="302.13" y2="60.00"/>
    <line x1="303.33" y1="540.00" x2="303.33" y2="60.00"/>
    <line x1="304.54" y1="540.00" x2="304.54" y2="60.00"/>
    <line x1="305.74" y1="540.00" x2="305.74" y2="60.00"/>
    <line x1="308.14" y1="540.00" x2="308.14" y2="60.00"/>
    <line x1="309.34" y1="540.00" x2="309.34" y2="60.00"/>
    <line x1="310.54" y1="540.00" x2="310.54" y2="60.00"/>
    <line x1="311.74" y1="540.00" x2="311.74" y2="60.00"/>
    <line x1="314.14" y1="540.00" x2="314.14" y2="60.00"/>
    <line x1="315.34" y1="540.00" x2="315.34" y2="60.00"/>
    <line x1="316.54" y1="540.00" x2="316.54" y2="60.00"/>
    <line x1="317.74" y1="540.00" x2="317.74" y2="60.00"/>
    <line x1="320.14" y1="540.00" x2="320.14" y2="60.00"/>
    <line x1="321.34" y1="540.00" x2="321.34" y2="60.00"/>
    <line x1="322.54" y1="540.00" x2="322.54" y2="60.00"/>
    <line x1="323.74" y1="540.00" x2="323.74" y2="60.00"/>
    <line x1="326.14" y1="540.00" x2="326.14" y2="60.00"/>
    <line x1="327.34" y1="540.00" x2="327.34" y2="60.00"/>
    <line x1="328.54" y1="540.00" x2="328.54" y2="60.00"/>
    <line x1="329.74" y1="540.00" x2="329.74" y2="60.00"/>
    <line x1="332.14" y1="540.00" x2="332.14" y2="60.00"/>
    <line x1="333.34" y1="540.00" x2="333.34" y2="60.00"/>
    <line x1="334.54" y1="540.00" x2="334.54" y2="60.00"/>
    <line x1="335.74" y1="540.00" x2="335.74" y2="60.00"/>
    <line x1="338.15" y1="540.00" x2="338.15" y2="60.00"/>
    <line x1="339.35" y1="540.00" x2="339.35" y2="60.00"/>
    <line x1="340.55" y1="540.00" x2="340.55" y2="60.00"/>
    <line x1="341.75" y1="540.00" x2="341.75" y2="60.00"/>
    <line x1="344.15" y1="540.00" x2="344.15" y2="60.00"/>
    <line x1="345.35" y1="540.00" x2="345.35" y2="60.00"/>
    <line x1="346.55" y1="540.00" x2="346.55" y2="60.00"/>
    <line x1="347.75" y1="540.00" x2="347.75" y2="60.00"/>
    <line x1="350.15" y1="540.00" x2="350.15" y2="60.00"/>
    <line x1="351.35" y1="540.00" x2="351.35" y2="60.00"/>
    <line x1="352.55" y1="540.00" x2="352.55" y2="60.00"/>
    <line x1="353.75" y1="540.00" x2="353.75" y2="60.00"/>
    <line x1="356.15" y1="540.00" x2="356.15" y2="60.00"/>
    <line x1="357.35" y1="540.00" x2="357.35" y2="60.00"/>
    <line x1="358.55" y1="540.00" x2="358.55" y2="60.00"/>
    <line x1="359.75" y1="540.00" x2="359.75" y2="60.00"/>
    <line x1="362.15" y1="540.00" x2="362.15" y2="60.00"/>
    <line x1="363.35" y1="540.00" x2="363.35" y2="60.00"/>
    <line x1="364.55" y1="540.00" x2="364.55" y2="60.00"/>
    <line x1="365.75" y1="540.00" x2="365.75" y2="60.00"/>
    <line x1="368.15" y1="540.00" x2="368.15" y2="60.00"/>
    <line x1="369.35" y1="540.00" x2="369.35" y2="60.00"/>
    <line x1="370.55" y1="540.00" x2="370.55" y2="60.00"/>
    <line x1="371.75" y1="540.00" x2="371.75" y2="60.00"/>
    <line x1="374.16" y1="540.00" x2="374.16" y2="60.00"/>
    <line x1="375.36" y1="540.00" x2="375.36" y2="60.00"/>
    <line x1="376.56" y1="540.00" x2="376.56" y2="60.00"/>
    <line x1="377.76" y1="540.00" x2="377.76" y2="60.00"/>
    <line x1="380.16" y1="540.00" x2="380.16" y2="60.00"/>
    <line x1="381.36" y1="540.00" x2="381.36" y2="60.00"/>
    <line x1="382.56" y1="540.00" x2="382.56" y2="60.00"/>
    <line x1="383.76" y1="540.00" x2="383.76" y2="60.00"/>
    <line x1="386.16" y1="540.00" x2="386.16" y2="60.00"/>
    <line x1="387.36" y1="540.00" x2="387.36" y2="60.00"/>
    <line x1="388.56" y1="540.00" x2="388.56" y2="60.00"/>
    <line x1="389.76" y1="540.00" x2="389.76" y2="60.00"/>
    <line x1="392.16" y1="540.00" x2="392.16" y2="60.00"/>
    <line x1="393.36" y1="540.00" x2="393.36" y2="60.00"/>
    <line x1="394.56" y1="540.00" x2="394.56" y2="60.00"/>
    <line x1="395.76" y1="540.00" x2="395.76" y2="60.00"/>
    <line x1="398.16" y1="540.00" x2="398.16" y2="60.00"/>
    <line x1="399.36" y1="540.00" x2="399.36" y2="60.00"/>
    <line x1="400.56" y1="540.00" x2="400.56" y2="60.00"/>
    <line x1="401.76" y1="540.00" x2="401.76" y2="60.00"/>
    <line x1="404.16" y1="540.00" x2="404.16" y2="60.00"/>
    <line x1="405.36" y1="540.00" x2="405.36" y2="60.00"/>
    <line x1="406.56" y1="540.00" x2="406.56" y2="60.00"/>
    <line x1="407.77" y1="540.00" x2="407.77" y2="60.00"/>
    <line x1="410.17" y1="540.00" x2="410.17" y2="60.00"/>
    <line x1="411.37" y1="540.00" x2="411.37" y2="60.00"/>
    <line x1="412.57" y1="540.00" x2="412.57" y2="60.00"/>
    <line x1="413.77" y1="540.00" x2="413.77" y2="60.00"/>
    <line x1="416.17" y1="540.00" x2="416.17" y2="60.00"/>
    <line x1="417.37" y1="540.00" x2="417.37" y2="60.00"/>
    <line x1="418.57" y1="540.00" x2="418.57" y2="60.00"/>
    <line x1="419.77" y1="540.00" x2="419.77" y2="60.00"/>
    <line x1="422.17" y1="540.00" x2="422.17" y2="60.00"/>
    <line x1="423.37" y1="540.00" x2="423.37" y2="60.00"/>
    <line x1="424.57" y1="540.00" x2="424.57" y2="60.00"/>
    <line x1="425.77" y1="540.00" x2="425.77" y2="60.00"/>
    <line x1="428.17" y1="540.00" x2="428.17" y2="60.00"/>
    <line x1="429.37" y1="540.00" x2="429.37" y2="60.00"/>
    <line x1="430.57" y1="540.00" x2="430.57" y2="60.00"/>
    <line x1="431.77" y1="540.00" x2="431.77" y2="60.00"/>
    <line x1="434.17" y1="540.00" x2="434.17" y2="60.00"/>
    <line x1="435.37" y1="540.00" x2="435.37" y2="60.00"/>
    <line x1="436.57" y1="540.00" x2="436.57" y2="60.00"/>
    <line x1="437.77" y1="540.00" x2="437.77" y2="60.00"/>
    <line x1="440.17" y1="540.00" x2="440.17" y2="60.00"/>
    <line x1="441.38" y1="540.00" x2="441.38" y2="60.00"/>
    <line x1="442.58" y1="540.00" x2="442.58" y2="60.00"/>
    <line x1="443.78" y1="540.00" x2="443.78" y2="60.00"/>
    <line x1="446.18" y1="540.00" x2="446.18" y2="60.00"/>
    <line x1="447.38" y1="540.00" x2="447.38" y2="60.00"/>
    <line x1="448.58" y1="540.00" x2="448.58" y2="60.00"/>
    <line x1="449.78" y1="540.00" x2="449.78" y2="60.00"/>
    <line x1="452.18" y1="540.00" x2="452.18" y2="60.00"/>
    <line x1="453.38" y1="540.00" x2="453.38" y2="60.00"/>
    <line x1="454.58" y1="540.00" x2="454.58" y2="60.00"/>
    <line x1="455.78" y1="540.00" x2="455.78" y2="60.00"/>
    <line x1="458.18" y1="540.00" x2="458.18" y2="60.00"/>
    <line x1="459.38" y1="540.00" x2="459.38" y2="60.00"/>
    <line x1="460.58" y1="540.00" x2="460.58" y2="60.00"/>
    <line x1="461.78" y1="540.00" x2="461.78" y2="60.00"/>
    <line x1="464.18" y1="540.00" x2="464.18" y2="60.00"/>
    <line x1="465.38" y1="540.00" x2="465.38" y2="60.00"/>
    <line x1="466.58" y1="540.00" x2="466.58" y2="60.00"/>
    <line x1="467.78" y1="540.00" x2="467.78" y2="60.00"/>
    <line x1="470.18" y1="540.00" x2="470.18" y2="60.00"/>
    <line x1="471.38" y1="540.00" x2="471.38" y2="60.00"/>
    <line x1="472.58" y1="540.00" x2="472.58" y2="60.00"/>
    <line x1="473.78" y1="540.00" x2="473.78" y2="60.00"/>
    <line x1="476.19" y1="540.00" x2="476.19" y2="60.00"/>
    <line x1="477.39" y1="540.00" x2="477.39" y2="60.00"/>
    <line x1="478.59" y1="540.00" x2="478.59" y2="60.00"/>
    <line x1="479.79" y1="540.00" x2="479.79" y2="60.00"/>
    <line x1="482.19" y1="540.00" x2="482.19" y2="60.00"/>
    <line x1="483.39" y1="540.00" x2="483.39" y2="60.00"/>
    <line x1="484.59" y1="540.00" x2="484.59" y2="60.00"/>
    <line x1="485.79" y1="540.00" x2="485.79" y2="60.00"/>
    <line x1="488.19" y1="540.00" x2="488.19" y2="60.00"/>
    <line x1="489.39" y1="540.00" x2="489.39" y2="60.00"/>
    <line x1="490.59" y1="540.00" x2="490.59" y2="60.00"/>
    <line x1="491.79" y1="540.00" x2="491.79" y2="60.00"/>
    <line x1="494.19" y1="540.00" x2="494.19" y2="60.00"/>
    <line x1="495.39" y1="540.00" x2="495.39" y2="60.00"/>
    <line x1="496.59" y1="540.00" x2="496.59" y2="60.00"/>
    <line x1="497.79" y1="540.00" x2="497.79" y2="60.00"/>
    <line x1="500.19" y1="540.00" x2="500.19" y2="60.00"/>
    <line x1="501.39" y1="540.00" x2="501.39" y2="60.00"/>
    <line x1="502.59" y1="540.00" x2="502.59" y2="60.00"/>
    <line x1="503.79" y1="540.00" x2="503.79" y2="60.00"/>
    <line x1="506.19" y1="540.00" x2="506.19" y2="60.00"/>
    <line x1="507.39" y1="540.00" x2="507.39" y2="60.00"/>
    <line x1="508.59" y1="540.00" x2="508.59" y2="60.00"/>
    <line x1="509.79" y1="540.00" x2="509.79" y2="60.00"/>
    <line x1="512.20" y1="540.00" x2="512.20" y2="60.00"/>
    <line x1="513.40" y1="540.00" x2="513.40" y2="60.00"/>
    <line x1="514.60" y1="540.00" x2="514.60" y2="60.00"/>
    <line x1="515.80" y1="540.00" x2="515.80" y2="60.00"/>
    <line x1="518.20" y1="540.00" x2="518.20" y2="60.00"/>
    <line x1="519.40" y1="540.00" x2="519.40" y2="60.00"/>
    <line x1="520.60" y1="540.00" x2="520.60" y2="60.00"/>
    <line x1="521.80" y1="540.00" x2="521.80" y2="60.00"/>
    <line x1="524.20" y1="540.00" x2="524.20" y2="60.00"/>
    <line x1="525.40" y1="540.00" x2="525.40" y2="60.00"/>
    <line x1="526.60" y1="540.00" x2="526.60" y2="60.00"/>
    <line x1="527.80" y1="540.00" x2="527.80" y2="60.00"/>
    <line x1="530.20" y1="540.00" x2="530.20" y2="60.00"/>
    <line x1="531.40" y1="540.00" x2="531.40" y2="60.00"/>
    <line x1="532.60" y1="540.00" x2="532.60" y2="60.00"/>
    <line x1="533.80" y1="540.00" x2="533.80" y2="60.00"/>
    <line x1="536.20" y1="540.00" x2="536.20" y2="60.00"/>
    <line x1="537.40" y1="540.00" x2="537.40" y2="60.00"/>
    <line x1="538.60" y1="540.00" x2="538.60" y2="60.00"/>
    <line x1="539.80" y1="540.00" x2="539.80" y2="60.00"/>
    <line x1="542.20" y1="540.00" x2="542.20" y2="60.00"/>
    <line x1="543.40" y1="540.00" x2="543.40" y2="60.00"/>
    <line x1="544.61" y1="540.00" x2="544.61" y2="60.00"/>
    <line x1="545.81" y1="540.00" x2="545.81" y2="60.00"/>
    <line x1="548.21" y1="540.00" x2="548.21" y2="60.00"/>
    <line x1="549.41" y1="540.00" x2="549.41" y2="60.00"/>
    <line x1="550.61" y1="540.00" x2="550.61" y2="60.00"/>
    <line x1="551.81" y1="540.00" x2="551.81" y2="60.00"/>
    <line x1="554.21" y1="540.00" x2="554.21" y2="60.00"/>
    <line x1="555.41" y1="540.00" x2="555.41" y2="60.00"/>
    <line x1="556.61" y1="540.00" x2="556.61" y2="60.00"/>
    <line x1="557.81" y1="540.00" x2="557.81" y2="60.00"/>
    <line x1="560.21" y1="540.00" x2="560.21" y2="60.00"/>
    <line x1="561.41" y1="540.00" x2="561.41" y2="60.00"/>
    <line x1="562.61" y1="540.00" x2="562.61" y2="60.00"/>
    <line x1="563.81" y1="540.00" x2="563.81" y2="60.00"/>
    <line x1="566.21" y1="540.00" x2="566.21" y2="60.00"/>
    <line x1="567.41" y1="540.00" x2="567.41" y2="60.00"/>
    <line x1="568.61" y1="540.00" x2="568.61" y2="60.00"/>
    <line x1="569.81" y1="540.00" x2="569.81" y2="60.00"/>
    <line x1="572.21" y1="540.00" x2="572.21" y2="60.00"/>
    <line x1="573.41" y1="540.00" x2="573.41" y2="60.00"/>
    <line x1="574.61" y1="540.00" x2="574.61" y2="60.00"/>
    <line x1="575.81" y1="540.00" x2="575.81" y2="60.00"/>
    <line x1="578.21" y1="540.00" x2="578.21" y2="60.00"/>
    <line x1="579.42" y1="540.00" x2="579.42" y2="60.00"/>
    <line x1="580.62" y1="540.00" x2="580.62" y2="60.00"/>
    <line x1="581.82" y1="540.00" x2="581.82" y2="60.00"/>
    <line x1="584.22" y1="540.00" x2="584.22" y2="60.00"/>
    <line x1="585.42" y1="540.00" x2="585.42" y2="60.00"/>
    <line x1="586.62" y1="540.00" x2="586.62" y2="60.00"/>
    <line x1="587.82" y1="540.00" x2="587.82" y2="60.00"/>
    <line x1="590.22" y1="540.00" x2="590.22" y2="60.00"/>
    <line x1="591.42" y1="540.00" x2="591.42" y2="60.00"/>
    <line x1="592.62" y1="540.00" x2="592.62" y2="60.00"/>
    <line x1="593.82" y1="540.00" x2="593.82" y2="60.00"/>
    <line x1="596.22" y1="540.00" x2="596.22" y2="60.00"/>
    <line x1="597.42" y1="540.00" x2="597.42" y2="60.00"/>
    <line x1="598.62" y1="540.00" x2="598.62" y2="60.00"/>
    <line x1="599.82" y1="540.00" x2="599.82" y2="60.00"/>
    <line x1="602.22" y1="540.00" x2="602.22" y2="60.00"/>
    <line x1="603.42" y1="540.00" x2="603.42" y2="60.00"/>
    <line x1="604.62" y1="540.00" x2="604.62" y2="60.00"/>
    <line x1="605.82" y1="540.00" x2="605.82" y2="60.00"/>
    <line x1="608.22" y1="540.00" x2="608.22" y2="60.00"/>
    <line x1="609.42" y1="540.00" x2="609.42" y2="60.00"/>
    <line x1="610.62" y1="540.00" x2="610.62" y2="60.00"/>
    <line x1="611.82" y1="540.00" x2="611.82" y2="60.00"/>
    <line x1="614.23" y1="540.00" x2="614.23" y2="60.00"/>
    <line x1="615.43" y1="540.00" x2="615.43" y2="60.00"/>
    <line x1="616.63" y1="540.00" x2="616.63" y2="60.00"/>
    <line x1="617.83" y1="540.00" x2="617.83" y2="60.00"/>
    <line x1="620.23" y1="540.00" x2="620.23" y2="60.00"/>
    <line x1="621.43" y1="540.00" x2="621.43" y2="60.00"/>
    <line x1="622.63" y1="540.00" x2="622.63" y2="60.00"/>
    <line x1="623.83" y1="540.00" x2="623.83" y2="60.00"/>
    <line x1="626.23" y1="540.00" x2="626.23" y2="60.00"/>
    <line x1="627.43" y1="540.00" x2="627.43" y2="60.00"/>
    <line x1="628.63" y1="540.00" x2="628.63" y2="60.00"/>
    <line x1="629.83" y1="540.00" x2="629.83" y2="60.00"/>
    <line x1="632.23" y1="540.00" x2="632.23" y2="60.00"/>
    <line x1="633.43" y1="540.00" x2="633.43" y2="60.00"/>
    <line x1="634.63" y1="540.00" x2="634.63" y2="60.00"/>
    <line x1="635.83" y1="540.00" x2="635.83" y2="60.00"/>
    <line x1="638.23" y1="540.00" x2="638.23" y2="60.00"/>
    <line x1="639.43" y1="540.00" x2="639.43" y2="60.00"/>
    <line x1="640.63" y1="540.00" x2="640.63" y2="60.00"/>
    <line x1="641.83" y1="540.00" x2="641.83" y2="60.00"/>
    <line x1="644.23" y1="540.00" x2="644.23" y2="60.00"/>
    <line x1="645.43" y1="540.00" x2="645.43" y2="60.00"/>
    <line x1="646.63" y1="540.00" x2="646.63" y2="60.00"/>
    <line x1="647.84" y1="540.00" x2="647.84" y2="60.00"/>
    <line x1="650.24" y1="540.00" x2="650.24" y2="60.00"/>
    <line x1="651.44" y1="540.00" x2="651.44" y2="60.00"/>
    <line x1="652.64" y1="540.00" x2="652.64" y2="60.00"/>
    <line x1="653.84" y1="540.00" x2="653.84" y2="60.00"/>
    <line x1="656.24" y1="540.00" x2="656.24" y2="60.00"/>
    <line x1="657.44" y1="540.00" x2="657.44" y2="60.00"/>
    <line x1="658.64" y1="540.00" x2="658.64" y2="60.00"/>
    <line x1="659.84" y1="540.00" x2="659.84" y2="60.00"/>
    <line x1="662.24" y1="540.00" x2="662.24" y2="60.00"/>
    <line x1="663.44" y1="540.00" x2="663.44" y2="60.00"/>
    <line x1="664.64" y1="540.00" x2="664.64" y2="60.00"/>
    <line x1="665.84" y1="540.00" x2="665.84" y2="60.00"/>
    <line x1="668.24" y1="540.00" x2="668.24" y2="60.00"/>
    <line x1="669.44" y1="540.00" x2="669.44" y2="60.00"/>
    <line x1="670.64" y1="540.00" x2="670.64" y2="60.00"/>
    <line x1="671.84" y1="540.00" x2="671.84" y2="60.00"/>
    <line x1="674.24" y1="540.00" x2="674.24" y2="60.00"/>
    <line x1="675.44" y1="540.00" x2="675.44" y2="60.00"/>
    <line x1="676.64" y1="540.00" x2="676.64" y2="60.00"/>
    <line x1="677.84" y1="540.00" x2="677.84" y2="60.00"/>
    <line x1="680.24" y1="540.00" x2="680.24" y2="60.00"/>
    <line x1="681.44" y1="540.00" x2="681.44" y2="60.00"/>
    <line x1="682.65" y1="540.00" x2="682.65" y2="60.00"/>
    <line x1="683.85" y1="540.00" x2="683.85" y2="60.00"/>
    <line x1="686.25" y1="540.00" x2="686.25" y2="60.00"/>
    <line x1="687.45" y1="540.00" x2="687.45" y2="60.00"/>
    <line x1="688.65" y1="540.00" x2="688.65" y2="60.00"/>
    <line x1="689.85" y1="540.00" x2="689.85" y2="60.00"/>
    <line x1="692.25" y1="540.00" x2="692.25" y2="60.00"/>
    <line x1="693.45" y1="540.00" x2="693.45" y2="60.00"/>
    <line x1="694.65" y1="540.00" x2="694.65" y2="60.00"/>
    <line x1="695.85" y1="540.00" x2="695.85" y2="60.00"/>
    <line x1="698.25" y1="540.00" x2="698.25" y2="60.00"/>
    <line x1="699.45" y1="540.00" x2="699.45" y2="60.00"/>
    <line x1="700.65" y1="540.00" x2="700.65" y2="60.00"/>
    <line x1="701.85" y1="540.00" x2="701.85" y2="60.00"/>
    <line x1="704.25" y1="540.00" x2="704.25" y2="60.00"/>
    <line x1="705.45" y1="540.00" x2="705.45" y2="60.00"/>
    <line x1="706.65" y1="540.00" x2="706.65" y2="60.00"/>
    <line x1="707.85" y1="540.00" x2="707.85" y2="60.00"/>
    <line x1="710.25" y1="540.00" x2="710.25" y2="60.00"/>
    <line x1="711.45" y1="540.00" x2="711.45" y2="60.00"/>
    <line x1="712.65" y1="540.00" x2="712.65" y2="60.00"/>
    <line x1="713.85" y1="540.00" x2="713.85" y2="60.00"/>
    <line x1="716.25" y1="540.00" x2="716.25" y2="60.00"/>
    <line x1="717.46" y1="540.00" x2="717.46" y2="60.00"/>
    <line x1="718.66" y1="540.00" x2="718.66" y2="60.00"/>
    <line x1="719.86" y1="540.00" x2="719.86" y2="60.00"/>
    <line x1="80.00" y1="490.81" x2="720.00" y2="490.81"/>
    <line x1="80.00" y1="441.61" x2="720.00" y2="441.61"/>
    <line x1="80.00" y1="392.40" x2="720.00" y2="392.40"/>
    <line x1="80.00" y1="343.19" x2="720.00" y2="343.19"/>
    <line x1="80.00" y1="244.78" x2="720.00" y2="244.78"/>
    <line x1="80.00" y1="195.58" x2="720.00" y2="195.58"/>
    <line x1="80.00" y1="146.37" x2="720.00" y2="146.37"/>
    <line x1="80.00" y1="97.16" x2="720.00" y2="97.16"/>
  </g>
  <g stroke="#808080" stroke-width="2">
    <line x1="583.02" y1="540.00" x2="583.02" y2="60.00"/>
    <line x1="80.00" y1="293.99" x2="720.00" y2="293.99"/>
  </g>
  <polyline fill="none" stroke="#0066cc" stroke-width="2" points="600.58,60.00 597.45,64.59 595.08,69.90 593.21,75.90 591.68,82.57 590.41,89.90 589.33,97.86 588.41,106.43 587.60,115.58 586.89,125.28 586.27,135.51 585.72,146.23 585.24,157.40 584.81,169.00 584.44,180.99 584.12,193.32 583.84,205.97 583.60,218.89 583.41,232.05 583.26,245.39 583.14,258.89 583.06,272.49 583.02,286.16 583.02,299.86 583.05,313.54 583.13,327.15 583.24,340.67 583.38,354.04 583.57,367.22 583.80,380.17 584.07,392.86 584.39,405.25 584.76,417.29 585.18,428.94 585.65,440.18 586.19,450.96 586.80,461.26 587.49,471.04 588.28,480.27 589.19,488.93 590.25,496.98 591.49,504.40 592.97,511.17 594.78,517.26 597.07,522.67 600.07,527.36 604.23,531.34 610.45,534.57 620.94,537.06 642.89,538.80 720.00,539.78 80.00,540.00 494.58,539.46 534.95,538.15 550.37,536.09 558.60,533.28 563.77,529.72 567.35,525.44 570.01,520.44 572.07,514.74 573.73,508.35 575.10,501.30 576.26,493.60 577.25,485.29 578.10,476.39 578.85,466.92 579.50,456.91 580.08,446.40 580.59,435.42 581.04,423.99 581.44,412.17 581.78,399.98 582.08,387.46 582.33,374.65 582.54,361.59 582.72,348.33 582.85,334.89 582.94,321.33 583.00,307.68 583.02,293.99 "/>
</svg>
