<?xml version="1.0" encoding="UTF-8"?>
<svg xmlns="http://www.w3.org/2000/svg" width="800" height="600">
  <title>Y=8/(4+x*x):-5,5:</title>
  <rect width="800" height="600" fill="#ffffff"/>
  <g stroke="#d0d0d0" stroke-width="1">
    <line x1="80.00" y1="540.00" x2="80.00" y2="60.00"/>
    <line x1="144.00" y1="540.00" x2="144.00" y2="60.00"/>
    <line x1="208.00" y1="540.00" x2="208.00" y2="60.00"/>
    <line x1="272.00" y1="540.00" x2="272.00" y2="60.00"/>
    <line x1="336.00" y1="540.00" x2="336.00" y2="60.00"/>
    <line x1="400.00" y1="540.00" x2="400.00" y2="60.00"/>
    <line x1="464.00" y1="540.00" x2="464.00" y2="60.00"/>
    <line x1="528.00" y1="540.00" x2="528.00" y2="60.00"/>
    <line x1="592.00" y1="540.00" x2="592.00" y2="60.00"/>
    <line x1="656.00" y1="540.00" x2="656.00" y2="60.00"/>
    <line x1="720.00" y1="540.00" x2="720.00" y2="60.00"/>
    <line x1="80.00" y1="616.89" x2="720.00" y2="616.89"/>
    <line x1="80.00" y1="338.17" x2="720.00" y2="338.17"/>
    <line x1="80.00" y1="59.44" x2="720.00" y2="59.44"/>
  </g>
  <g stroke="#e8e8e8" stroke-width="0.5">
    <line x1="92.80" y1="540.00" x2="92.80" y2="60.00"/>
    <line x1="105.60" y1="540.00" x2="105.60" y2="60.00"/>
    <line x1="118.40" y1="540.00" x2="118.40" y2="60.00"/>
    <line x1="131.20" y1="540.00" x2="131.20" y2="60.00"/>
    <line x1="156.80" y1="540.00" x2="156.80" y2="60.00"/>
    <line x1="169.60" y1="540.00" x2="169.60" y2="60.00"/>
    <line x1="182.40" y1="540.00" x2="182.40" y2="60.00"/>
    <line x1="195.20" y1="540.00" x2="195.20" y2="60.00"/>
    <line x1="220.80" y1="540.00" x2="220.80" y2="60.00"/>
    <line x1="233.60" y1="540.00" x2="233.60" y2="60.00"/>
    <line x1="246.40" y1="540.00" x2="246.40" y2="60.00"/>
    <line x1="259.20" y1="540.00" x2="259.20" y2="60.00"/>
    <line x1="284.80" y1="540.00" x2="284.80" y2="60.00"/>
    <line x1="297.60" y1="540.00" x2="297.60" y2="60.00"/>
    <line x1="310.40" y1="540.00" x2="310.40" y2="60.00"/>
    <line x1="323.20" y1="540.00" x2="323.20" y2="60.00"/>
    <line x1="348.80" y1="540.00" x2="348.80" y2="60.00"/>
    <line x1="361.60" y1="540.00" x2="361.60" y2="60.00"/>
    <line x1="374.40" y1="540.00" x2="374.40" y2="60.00"/>
    <line x1="387.20" y1="540.00" x2="387.20" y2="60.00"/>
    <line x1="412.80" y1="540.00" x2="412.80" y2="60.00"/>
    <line x1="425.60" y1="540.00" x2="425.60" y2="60.00"/>
    <line x1="438.40" y1="540.00" x2="438.40" y2="60.00"/>
    <line x1="451.20" y1="540.00" x2="451.20" y2="60.00"/>
    <line x1="476.80" y1="540.00" x2="476.80" y2="60.00"/>
    <line x1="489.60" y1="540.00" x2="489.60" y2="60.00"/>
    <line x1="502.40" y1="540.00" x2="502.40" y2="60.00"/>
    <line x1="515.20" y1="540.00" x2="515.20" y2="60.00"/>
    <line x1="540.80" y1="540.00" x2="540.80" y2="60.00"/>
    <line x1="553.60" y1="540.00" x2="553.60" y2="60.00"/>
    <line x1="566.40" y1="540.00" x2="566.40" y2="60.00"/>
    <line x1="579.20" y1="540.00" x2="579.20" y2="60.00"/>
    <line x1="604.80" y1="540.00" x2="604.80" y2="60.00"/>
    <line x1="617.60" y1="540.00" x2="617.60" y2="60.00"/>
    <line x1="630.40" y1="540.00" x2="630.40" y2="60.00"/>
    <line x1="643.20" y1="540.00" x2="643.20" y2="60.00"/>
    <line x1="668.80" y1="540.00" x2="668.80" y2="60.00"/>
    <line x1="681.60" y1="540.00" x2="681.60" y2="60.00"/>
    <line x1="694.40" y1="540.00" x2="694.40" y2="60.00"/>
    <line x1="707.20" y1="540.00" x2="707.20" y2="60.00"/>
    <line x1="80.00" y1="505.40" x2="720.00" y2="505.40"/>
    <line x1="80.00" y1="449.66" x2="720.00" y2="449.66"/>
    <line x1="80.00" y1="393.91" x2="720.00" y2="393.91"/>
    <line x1="80.00" y1="282.42" x2="720.00" y2="282.42"/>
    <line x1="80.00" y1="226.68" x2="720.00" y2="226.68"/>
    <line x1="80.00" y1="170.93" x2="720.00" y2="170.93"/>
    <line x1="80.00" y1="115.19" x2="720.00" y2="115.19"/>
  </g>
  <g stroke="#808080" stroke-width="2">
    <line x1="80.00" y1="616.89" x2="720.00" y2="616.89"/>
  </g>
  <polyline fill="none" stroke="#0066cc" stroke-width="2" points="80.00,540.00 88.10,536.54 96.20,532.85 104.30,528.92 112.41,524.72 120.51,520.24 128.61,515.45 136.71,510.33 144.81,504.83 152.91,498.95 161.01,492.63 169.11,485.84 177.22,478.54 185.32,470.69 193.42,462.25 201.52,453.15 209.62,443.35 217.72,432.79 225.82,421.41 233.92,409.15 242.03,395.96 250.13,381.78 258.23,366.55 266.33,350.24 274.43,332.82 282.53,314.29 290.63,294.68 298.73,274.04 306.84,252.49 314.94,230.21 323.04,207.46 331.14,184.56 339.24,161.95 347.34,140.13 355.44,119.69 363.54,101.27 371.65,85.52 379.75,73.06 387.85,64.42 395.95,60.00 404.05,60.00 412.15,64.42 420.25,73.06 428.35,85.52 436.46,101.27 444.56,119.69 452.66,140.13 460.76,161.95 468.86,184.56 476.96,207.46 485.06,230.21 493.16,252.49 501.27,274.04 509.37,294.68 517.47,314.29 525.57,332.82 533.67,350.24 541.77,366.55 549.87,381.78 557.97,395.96 566.08,409.15 574.18,421.41 582.28,432.79 590.38,443.35 598.48,453.15 606.58,462.25 614.68,470.69 622.78,478.54 630.89,485.84 638.99,492.63 647.09,498.95 655.19,504.83 663.29,510.33 671.39,515.45 679.49,520.24 687.59,524.72 695.70,528.92 703.80,532.85 711.90,536.54 720.00,540.00 "/>
</svg>
