<?xml version="1.0" encoding="UTF-8"?>
<svg xmlns="http://www.w3.org/2000/svg" width="800" height="600">
  <title>R=5*sin(t)*cos(t)*cos(t)</title>
  <rect width="800" height="600" fill="#ffffff"/>
  <g stroke="#d0d0d0" stroke-width="1">
    <line x1="5.58" y1="540.00" x2="5.58" y2="60.00"/>
    <line x1="202.73" y1="540.00" x2="202.73" y2="60.00"/>
    <line x1="399.88" y1="540.00" x2="399.88" y2="60.00"/>
    <line x1="597.02" y1="540.00" x2="597.02" y2="60.00"/>
    <line x1="794.17" y1="540.00" x2="794.17" y2="60.00"/>
    <line x1="80.00" y1="540.00" x2="720.00" y2="540.00"/>
    <line x1="80.00" y1="155.89" x2="720.00" y2="155.89"/>
    <line x1="80.00" y1="-228.21" x2="720.00" y2="-228.21"/>
  </g>
  <g stroke="#e8e8e8" stroke-width="0.5">
    <line x1="84.44" y1="540.00" x2="84.44" y2="60.00"/>
    <line x1="123.87" y1="540.00" x2="123.87" y2="60.00"/>
    <line x1="163.30" y1="540.00" x2="163.30" y2="60.00"/>
    <line x1="242.16" y1="540.00" x2="242.16" y2="60.00"/>
    <line x1="281.59" y1="540.00" x2="281.59" y2="60.00"/>
    <line x1="321.02" y1="540.00" x2="321.02" y2="60.00"/>
    <line x1="360.45" y1="540.00" x2="360.45" y2="60.00"/>
    <line x1="439.31" y1="540.00" x2="439.31" y2="60.00"/>
    <line x1="478.73" y1="540.00" x2="478.73" y2="60.00"/>
    <line x1="518.16" y1="540.00" x2="518.16" y2="60.00"/>
    <line x1="557.59" y1="540.00" x2="557.59" y2="60.00"/>
    <line x1="636.45" y1="540.00" x2="636.45" y2="60.00"/>
    <line x1="675.88" y1="540.00" x2="675.88" y2="60.00"/>
    <line x1="715.31" y1="540.00" x2="715.31" y2="60.00"/>
    <line x1="80.00" y1="463.18" x2="720.00" y2="463.18"/>
    <line x1="80.00" y1="386.36" x2="720.00" y2="386.36"/>
    <line x1="80.00" y1="309.54" x2="720.00" y2="309.54"/>
    <line x1="80.00" y1="232.71" x2="720.00" y2="232.71"/>
    <line x1="80.00" y1="79.07" x2="720.00" y2="79.07"/>
  </g>
  <g stroke="#808080" stroke-width="2">
    <line x1="80.00" y1="540.00" x2="720.00" y2="540.00"/>
  </g>
  <polyline fill="none" stroke="#0066cc" stroke-width="2" points="412.26,539.70 489.24,523.95 560.65,485.81 622.19,429.08 670.36,359.45 702.81,283.87 718.43,209.89 717.50,144.92 701.55,95.44 673.18,66.40 635.80,60.71 593.25,78.93 549.45,119.24 507.95,177.61 471.66,248.22 442.57,323.99 421.58,397.36 408.47,460.98 401.98,508.51 400.00,535.19 399.85,538.36 398.63,517.69 393.55,475.25 382.34,415.28 363.48,343.79 336.48,267.91 301.93,195.24 261.56,133.03 218.03,87.50 174.79,63.21 135.67,62.58 104.58,85.68 85.07,130.19 80.00,191.68 91.20,263.98 119.28,339.88 163.50,411.79 221.83,472.51 291.04,515.98 367.01,537.86 445.03,535.95 520.23,510.45 587.98,463.91 644.26,400.97 686.03,327.94 711.45,252.10 720.00,181.05 712.49,121.88 690.94,80.51 658.33,61.07 618.29,65.51 574.75,93.38 531.51,141.91 491.90,206.22 458.47,279.91 432.74,355.59 415.16,425.72 405.04,483.27 400.74,522.49 399.88,539.46 399.63,532.50 397.11,502.28 389.69,451.84 375.39,386.21 353.10,311.96 322.79,236.50 285.52,167.39 243.44,111.53 199.58,74.50 157.59,60.00 121.39,69.49 94.77,102.01 81.05,154.32 82.67,221.19 100.97,295.92 136.01,371.06 186.49,439.09 249.85,493.20 322.45,528.00 399.88,540.00 "/>
</svg>
