<?xml version="1.0" encoding="UTF-8"?>
<svg xmlns="http://www.w3.org/2000/svg" width="800" height="600">
  <title>R**2=cos(2*t)</title>
  <rect width="800" height="600" fill="#ffffff"/>
  <g stroke="#d0d0d0" stroke-width="1">
    <line x1="79.46" y1="540.00" x2="79.46" y2="60.00"/>
    <line x1="399.73" y1="540.00" x2="399.73" y2="60.00"/>
    <line x1="720.00" y1="540.00" x2="720.00" y2="60.00"/>
    <line x1="80.00" y1="979.08" x2="720.00" y2="979.08"/>
    <line x1="80.00" y1="299.86" x2="720.00" y2="299.86"/>
    <line x1="80.00" y1="-379.35" x2="720.00" y2="-379.35"/>
  </g>
  <g stroke="#e8e8e8" stroke-width="0.5">
    <line x1="143.52" y1="540.00" x2="143.52" y2="60.00"/>
    <line x1="207.57" y1="540.00" x2="207.57" y2="60.00"/>
    <line x1="271.62" y1="540.00" x2="271.62" y2="60.00"/>
    <line x1="335.68" y1="540.00" x2="335.68" y2="60.00"/>
    <line x1="463.79" y1="540.00" x2="463.79" y2="60.00"/>
    <line x1="527.84" y1="540.00" x2="527.84" y2="60.00"/>
    <line x1="591.89" y1="540.00" x2="591.89" y2="60.00"/>
    <line x1="655.95" y1="540.00" x2="655.95" y2="60.00"/>
    <line x1="80.00" y1="435.71" x2="720.00" y2="435.71"/>
    <line x1="80.00" y1="164.02" x2="720.00" y2="164.02"/>
  </g>
  <g stroke="#808080" stroke-width="2">
    <line x1="399.73" y1="540.00" x2="399.73" y2="60.00"/>
    <line x1="80.00" y1="299.86" x2="720.00" y2="299.86"/>
  </g>
  <polyline fill="none" stroke="#0066cc" stroke-width="2" points="719.92,291.33 715.95,238.03 706.00,187.49 690.27,142.08 669.01,104.21 642.54,76.39 611.14,61.40 574.86,62.75 532.99,86.10 481.46,145.69 335.35,173.23 278.70,97.18 234.99,66.42 197.37,60.00 164.70,71.09 136.91,95.83 114.25,131.31 97.04,174.97 85.56,224.40 80.00,277.20 80.48,331.01 86.98,383.44 99.39,432.11 117.49,474.65 140.97,508.60 169.55,531.38 202.99,540.00 241.44,530.31 286.43,494.57 347.80,404.62 490.77,467.29 540.08,519.17 580.94,538.47 616.43,536.94 647.07,519.71 672.73,490.12 693.14,450.90 707.97,404.52 716.98,353.38 720.00,299.86 "/>
</svg>
