<?xml version="1.0" encoding="UTF-8"?>
<svg xmlns="http://www.w3.org/2000/svg" width="800" height="600">
  <title>R**2=sin(2*t)</title>
  <rect width="800" height="600" fill="#ffffff"/>
  <g stroke="#d0d0d0" stroke-width="1">
    <line x1="2.85" y1="540.00" x2="2.85" y2="60.00"/>
    <line x1="400.39" y1="540.00" x2="400.39" y2="60.00"/>
    <line x1="797.94" y1="540.00" x2="797.94" y2="60.00"/>
    <line x1="80.00" y1="598.31" x2="720.00" y2="598.31"/>
    <line x1="80.00" y1="300.23" x2="720.00" y2="300.23"/>
    <line x1="80.00" y1="2.15" x2="720.00" y2="2.15"/>
  </g>
  <g stroke="#e8e8e8" stroke-width="0.5">
    <line x1="82.36" y1="540.00" x2="82.36" y2="60.00"/>
    <line x1="161.86" y1="540.00" x2="161.86" y2="60.00"/>
    <line x1="241.37" y1="540.00" x2="241.37" y2="60.00"/>
    <line x1="320.88" y1="540.00" x2="320.88" y2="60.00"/>
    <line x1="479.90" y1="540.00" x2="479.90" y2="60.00"/>
    <line x1="559.41" y1="540.00" x2="559.41" y2="60.00"/>
    <line x1="638.92" y1="540.00" x2="638.92" y2="60.00"/>
    <line x1="718.43" y1="540.00" x2="718.43" y2="60.00"/>
    <line x1="80.00" y1="538.69" x2="720.00" y2="538.69"/>
    <line x1="80.00" y1="479.07" x2="720.00" y2="479.07"/>
    <line x1="80.00" y1="419.46" x2="720.00" y2="419.46"/>
    <line x1="80.00" y1="359.84" x2="720.00" y2="359.84"/>
    <line x1="80.00" y1="240.61" x2="720.00" y2="240.61"/>
    <line x1="80.00" y1="180.99" x2="720.00" y2="180.99"/>
    <line x1="80.00" y1="121.38" x2="720.00" y2="121.38"/>
    <line x1="80.00" y1="61.76" x2="720.00" y2="61.76"/>
  </g>
  <g stroke="#808080" stroke-width="2">
    <line x1="400.39" y1="540.00" x2="400.39" y2="60.00"/>
    <line x1="80.00" y1="300.23" x2="720.00" y2="300.23"/>
  </g>
  <polyline fill="none" stroke="#0066cc" stroke-width="2" points="463.41,299.63 569.67,288.52 627.45,270.77 667.39,248.96 694.90,224.57 712.06,198.81 720.00,172.77 719.53,147.46 711.41,123.84 696.43,102.80 675.44,85.18 649.41,71.73 619.39,63.13 586.55,60.00 552.11,62.90 517.40,72.41 483.82,89.24 452.89,114.50 426.37,150.65 406.69,206.06 280.06,304.38 203.94,318.79 154.80,338.46 120.46,361.51 97.48,386.62 84.31,412.63 80.00,438.48 83.78,463.19 94.89,485.83 112.51,505.53 135.75,521.48 163.59,532.97 194.94,539.34 228.61,540.00 263.33,534.39 297.74,521.90 330.40,501.71 359.71,472.31 383.73,429.89 399.18,354.69 "/>
</svg>
