<?xml version="1.0" encoding="UTF-8"?>
<svg xmlns="http://www.w3.org/2000/svg" width="800" height="600">
  <title>R=sin(3*t)</title>
  <rect width="800" height="600" fill="#ffffff"/>
  <g stroke="#d0d0d0" stroke-width="1">
    <line x1="36.23" y1="540.00" x2="36.23" y2="60.00"/>
    <line x1="400.31" y1="540.00" x2="400.31" y2="60.00"/>
    <line x1="764.39" y1="540.00" x2="764.39" y2="60.00"/>
    <line x1="80.00" y1="540.43" x2="720.00" y2="540.43"/>
    <line x1="80.00" y1="232.89" x2="720.00" y2="232.89"/>
    <line x1="80.00" y1="-74.65" x2="720.00" y2="-74.65"/>
  </g>
  <g stroke="#e8e8e8" stroke-width="0.5">
    <line x1="109.04" y1="540.00" x2="109.04" y2="60.00"/>
    <line x1="181.86" y1="540.00" x2="181.86" y2="60.00"/>
    <line x1="254.67" y1="540.00" x2="254.67" y2="60.00"/>
    <line x1="327.49" y1="540.00" x2="327.49" y2="60.00"/>
    <line x1="473.12" y1="540.00" x2="473.12" y2="60.00"/>
    <line x1="545.94" y1="540.00" x2="545.94" y2="60.00"/>
    <line x1="618.75" y1="540.00" x2="618.75" y2="60.00"/>
    <line x1="691.57" y1="540.00" x2="691.57" y2="60.00"/>
    <line x1="80.00" y1="478.92" x2="720.00" y2="478.92"/>
    <line x1="80.00" y1="417.41" x2="720.00" y2="417.41"/>
    <line x1="80.00" y1="355.91" x2="720.00" y2="355.91"/>
    <line x1="80.00" y1="294.40" x2="720.00" y2="294.40"/>
    <line x1="80.00" y1="171.38" x2="720.00" y2="171.38"/>
    <line x1="80.00" y1="109.87" x2="720.00" y2="109.87"/>
  </g>
  <g stroke="#808080" stroke-width="2">
    <line x1="400.31" y1="540.00" x2="400.31" y2="60.00"/>
    <line x1="80.00" y1="232.89" x2="720.00" y2="232.89"/>
  </g>
  <polyline fill="none" stroke="#0066cc" stroke-width="2" points="414.03,232.74 499.04,225.20 576.67,207.11 641.25,180.77 688.29,149.55 714.90,117.57 720.00,89.26 704.44,68.88 670.83,60.05 623.28,65.37 566.97,86.09 507.61,121.97 450.87,171.22 401.82,230.69 364.45,296.07 341.28,362.35 333.15,424.21 339.16,476.60 356.80,515.13 382.28,536.58 410.92,539.11 437.71,522.52 457.82,488.21 467.18,439.08 462.91,379.23 443.68,313.60 409.86,247.48 363.55,186.00 308.37,133.71 249.16,94.09 191.49,69.30 141.11,60.00 103.39,65.32 82.77,82.98 82.30,109.60 103.28,141.05 145.16,172.89 205.51,200.88 280.23,221.40 363.90,231.86 450.31,230.95 532.96,218.77 605.73,196.86 663.39,168.00 702.08,135.93 719.66,104.95 715.86,79.49 692.29,63.58 652.24,60.46 600.33,72.19 542.03,99.41 483.10,141.22 429.03,195.23 384.49,257.76 352.88,324.16 336.04,389.22 334.07,447.69 345.36,494.72 366.82,526.38 394.23,540.00 422.71,534.42 447.24,510.10 463.26,469.12 467.16,414.92 456.66,352.01 431.15,285.53 391.72,220.76 341.15,162.65 283.64,115.33 224.37,81.77 169.08,63.51 123.41,60.56 92.42,71.42 80.00,93.32 88.50,122.50 118.46,154.65 168.51,185.36 235.49,210.60 314.70,227.14 400.31,232.89 "/>
</svg>
