<?xml version="1.0" encoding="UTF-8"?>
<svg xmlns="http://www.w3.org/2000/svg" width="800" height="600">
  <title>R=cos(2*t)</title>
  <rect width="800" height="600" fill="#ffffff"/>
  <g stroke="#d0d0d0" stroke-width="1">
    <line x1="79.11" y1="540.00" x2="79.11" y2="60.00"/>
    <line x1="399.55" y1="540.00" x2="399.55" y2="60.00"/>
    <line x1="720.00" y1="540.00" x2="720.00" y2="60.00"/>
    <line x1="80.00" y1="540.51" x2="720.00" y2="540.51"/>
    <line x1="80.00" y1="300.17" x2="720.00" y2="300.17"/>
    <line x1="80.00" y1="59.83" x2="720.00" y2="59.83"/>
  </g>
  <g stroke="#e8e8e8" stroke-width="0.5">
    <line x1="143.20" y1="540.00" x2="143.20" y2="60.00"/>
    <line x1="207.29" y1="540.00" x2="207.29" y2="60.00"/>
    <line x1="271.37" y1="540.00" x2="271.37" y2="60.00"/>
    <line x1="335.46" y1="540.00" x2="335.46" y2="60.00"/>
    <line x1="463.64" y1="540.00" x2="463.64" y2="60.00"/>
    <line x1="527.73" y1="540.00" x2="527.73" y2="60.00"/>
    <line x1="591.82" y1="540.00" x2="591.82" y2="60.00"/>
    <line x1="655.91" y1="540.00" x2="655.91" y2="60.00"/>
    <line x1="80.00" y1="492.45" x2="720.00" y2="492.45"/>
    <line x1="80.00" y1="444.38" x2="720.00" y2="444.38"/>
    <line x1="80.00" y1="396.31" x2="720.00" y2="396.31"/>
    <line x1="80.00" y1="348.24" x2="720.00" y2="348.24"/>
    <line x1="80.00" y1="252.11" x2="720.00" y2="252.11"/>
    <line x1="80.00" y1="204.04" x2="720.00" y2="204.04"/>
    <line x1="80.00" y1="155.97" x2="720.00" y2="155.97"/>
    <line x1="80.00" y1="107.90" x2="720.00" y2="107.90"/>
  </g>
  <g stroke="#808080" stroke-width="2">
    <line x1="399.55" y1="540.00" x2="399.55" y2="60.00"/>
    <line x1="80.00" y1="300.17" x2="720.00" y2="300.17"/>
  </g>
  <polyline fill="none" stroke="#0066cc" stroke-width="2" points="719.87,297.15 713.27,278.48 696.96,261.58 671.78,247.89 639.01,238.64 600.34,234.82 557.70,237.09 513.23,245.74 469.12,260.71 427.48,281.54 390.28,307.43 359.15,337.25 335.39,369.65 319.83,403.08 312.80,435.92 314.14,466.52 323.18,493.36 338.82,515.08 359.56,530.56 383.58,539.01 408.91,540.00 433.48,533.48 455.26,519.78 472.40,499.61 483.30,473.99 486.75,444.23 481.95,411.83 468.61,378.40 446.95,345.57 417.65,314.93 381.89,287.89 341.24,265.64 297.58,249.07 252.99,238.74 209.66,234.81 169.75,237.08 135.26,244.99 107.95,257.62 89.21,273.81 80.00,292.16 80.80,311.17 91.56,329.28 111.73,344.99 140.28,356.95 175.76,364.02 216.35,365.34 260.02,360.40 304.61,349.06 347.93,331.55 387.92,308.47 422.75,280.77 450.91,249.69 471.29,216.66 483.28,183.28 486.74,151.19 482.05,121.99 470.07,97.15 452.08,77.94 429.73,65.34 404.90,60.00 379.64,62.19 356.01,71.79 335.97,88.32 321.28,110.92 313.39,138.46 313.34,169.52 321.73,202.56 338.63,235.93 363.62,268.02 395.80,297.31 433.83,322.46 475.99,342.41 520.30,356.40 564.63,364.04 606.78,365.31 644.64,360.58 676.30,350.56 700.16,336.27 714.97,318.99 720.00,300.17 "/>
</svg>
