<?xml version="1.0" encoding="UTF-8"?>
<svg xmlns="http://www.w3.org/2000/svg" width="800" height="600">
  <title>R=sin(5*t)</title>
  <rect width="800" height="600" fill="#ffffff"/>
  <g stroke="#d0d0d0" stroke-width="1">
    <line x1="63.11" y1="540.00" x2="63.11" y2="60.00"/>
    <line x1="400.13" y1="540.00" x2="400.13" y2="60.00"/>
    <line x1="737.16" y1="540.00" x2="737.16" y2="60.00"/>
    <line x1="80.00" y1="588.48" x2="720.00" y2="588.48"/>
    <line x1="80.00" y1="323.76" x2="720.00" y2="323.76"/>
    <line x1="80.00" y1="59.04" x2="720.00" y2="59.04"/>
  </g>
  <g stroke="#e8e8e8" stroke-width="0.5">
    <line x1="130.52" y1="540.00" x2="130.52" y2="60.00"/>
    <line x1="197.92" y1="540.00" x2="197.92" y2="60.00"/>
    <line x1="265.32" y1="540.00" x2="265.32" y2="60.00"/>
    <line x1="332.73" y1="540.00" x2="332.73" y2="60.00"/>
    <line x1="467.54" y1="540.00" x2="467.54" y2="60.00"/>
    <line x1="534.94" y1="540.00" x2="534.94" y2="60.00"/>
    <line x1="602.35" y1="540.00" x2="602.35" y2="60.00"/>
    <line x1="669.75" y1="540.00" x2="669.75" y2="60.00"/>
    <line x1="80.00" y1="535.54" x2="720.00" y2="535.54"/>
    <line x1="80.00" y1="482.60" x2="720.00" y2="482.60"/>
    <line x1="80.00" y1="429.65" x2="720.00" y2="429.65"/>
    <line x1="80.00" y1="376.71" x2="720.00" y2="376.71"/>
    <line x1="80.00" y1="270.82" x2="720.00" y2="270.82"/>
    <line x1="80.00" y1="217.87" x2="720.00" y2="217.87"/>
    <line x1="80.00" y1="164.93" x2="720.00" y2="164.93"/>
    <line x1="80.00" y1="111.98" x2="720.00" y2="111.98"/>
  </g>
  <g stroke="#808080" stroke-width="2">
    <line x1="400.13" y1="540.00" x2="400.13" y2="60.00"/>
    <line x1="80.00" y1="323.76" x2="720.00" y2="323.76"/>
  </g>
  <polyline fill="none" stroke="#0066cc" stroke-width="2" points="421.29,323.55 549.03,312.98 651.06,289.66 710.32,261.37 717.96,238.24 674.87,230.11 591.26,243.92 484.26,281.58 374.31,339.11 280.93,407.04 218.86,472.23 195.42,520.54 209.47,540.00 252.35,523.55 310.35,470.90 368.15,389.00 412.52,290.95 435.25,193.62 434.84,114.37 416.49,67.63 390.38,61.98 368.85,98.48 362.99,170.40 379.50,264.60 418.73,364.18 474.13,451.79 533.53,513.07 581.84,539.30 604.56,528.84 591.40,487.10 539.11,425.00 452.79,356.42 345.44,295.06 235.65,251.55 144.02,231.43 88.97,234.30 82.81,254.37 128.98,282.33 221.15,307.84 344.14,322.29 476.84,320.99 596.25,304.35 681.94,277.80 720.00,250.40 705.61,232.49 643.76,233.01 547.93,256.95 437.15,303.80 331.99,367.13 250.38,435.64 204.17,495.39 197.11,532.79 224.71,537.63 275.80,505.56 335.54,439.36 389.07,348.78 424.97,248.88 437.74,157.13 428.81,90.09 405.74,60.00 380.05,72.43 363.96,125.07 367.03,208.26 393.47,306.88 440.67,403.43 499.48,481.44 556.11,528.64 595.24,539.20 603.76,514.55 574.06,462.68 506.34,396.10 409.20,329.01 298.34,274.12 193.71,240.12 115.51,230.06 80.00,241.13 96.00,265.78 162.86,293.93 270.27,315.65 400.13,323.76 "/>
</svg>
