<?xml version="1.0" encoding="UTF-8"?>
<svg xmlns="http://www.w3.org/2000/svg" width="800" height="600">
  <title>R=sin(4*t)</title>
  <rect width="800" height="600" fill="#ffffff"/>
  <g stroke="#d0d0d0" stroke-width="1">
    <line x1="55.25" y1="540.00" x2="55.25" y2="60.00"/>
    <line x1="400.40" y1="540.00" x2="400.40" y2="60.00"/>
    <line x1="745.55" y1="540.00" x2="745.55" y2="60.00"/>
    <line x1="80.00" y1="558.52" x2="720.00" y2="558.52"/>
    <line x1="80.00" y1="299.50" x2="720.00" y2="299.50"/>
    <line x1="80.00" y1="40.48" x2="720.00" y2="40.48"/>
  </g>
  <g stroke="#e8e8e8" stroke-width="0.5">
    <line x1="124.28" y1="540.00" x2="124.28" y2="60.00"/>
    <line x1="193.31" y1="540.00" x2="193.31" y2="60.00"/>
    <line x1="262.34" y1="540.00" x2="262.34" y2="60.00"/>
    <line x1="331.37" y1="540.00" x2="331.37" y2="60.00"/>
    <line x1="469.43" y1="540.00" x2="469.43" y2="60.00"/>
    <line x1="538.46" y1="540.00" x2="538.46" y2="60.00"/>
    <line x1="607.49" y1="540.00" x2="607.49" y2="60.00"/>
    <line x1="676.52" y1="540.00" x2="676.52" y2="60.00"/>
    <line x1="80.00" y1="506.72" x2="720.00" y2="506.72"/>
    <line x1="80.00" y1="454.91" x2="720.00" y2="454.91"/>
    <line x1="80.00" y1="403.11" x2="720.00" y2="403.11"/>
    <line x1="80.00" y1="351.31" x2="720.00" y2="351.31"/>
    <line x1="80.00" y1="247.70" x2="720.00" y2="247.70"/>
    <line x1="80.00" y1="195.89" x2="720.00" y2="195.89"/>
    <line x1="80.00" y1="144.09" x2="720.00" y2="144.09"/>
    <line x1="80.00" y1="92.29" x2="720.00" y2="92.29"/>
  </g>
  <g stroke="#808080" stroke-width="2">
    <line x1="400.40" y1="540.00" x2="400.40" y2="60.00"/>
    <line x1="80.00" y1="299.50" x2="720.00" y2="299.50"/>
  </g>
  <polyline fill="none" stroke="#0066cc" stroke-width="2" points="417.74,299.34 523.97,290.95 615.64,271.56 682.25,245.34 716.73,218.17 716.31,196.62 682.88,186.75 622.54,193.07 544.60,217.65 460.16,259.62 380.43,315.13 315.12,377.82 271.02,439.70 251.20,492.21 254.71,527.59 276.98,540.00 310.73,526.47 347.33,487.41 378.34,426.66 396.96,351.00 399.22,269.26 384.64,191.09 356.33,125.67 320.42,80.42 285.07,60.00 259.00,65.75 249.99,95.57 263.43,144.28 301.29,204.51 361.56,267.81 438.34,325.91 522.59,371.91 603.35,401.26 669.32,412.29 710.55,406.33 720.00,387.30 694.61,360.97 635.91,333.89 549.92,312.21 446.36,300.65 337.36,301.68 235.81,315.07 153.57,337.96 99.86,365.36 80.00,390.96 94.80,408.27 140.51,411.75 209.54,397.83 291.61,365.65 375.38,317.36 450.08,257.93 507.10,194.55 541.12,135.59 550.78,89.42 538.63,63.15 510.53,61.48 474.51,86.01 439.30,134.85 412.81,202.84 400.78,282.21 405.76,363.63 426.69,437.48 459.10,495.18 495.83,530.36 528.32,539.73 548.05,523.40 548.09,484.85 524.39,430.31 476.62,367.73 408.48,305.67 327.31,251.94 243.14,212.55 167.27,190.88 110.63,187.32 82.12,199.40 87.22,222.27 127.08,249.72 198.24,275.21 292.99,293.09 400.40,299.50 "/>
</svg>
