<?xml version="1.0" encoding="UTF-8"?>
<svg xmlns="http://www.w3.org/2000/svg" width="800" height="600">
  <title>R=4*cos(t)+2</title>
  <rect width="800" height="600" fill="#ffffff"/>
  <g stroke="#d0d0d0" stroke-width="1">
    <line x1="3.20" y1="540.00" x2="3.20" y2="60.00"/>
    <line x1="105.60" y1="540.00" x2="105.60" y2="60.00"/>
    <line x1="208.00" y1="540.00" x2="208.00" y2="60.00"/>
    <line x1="310.40" y1="540.00" x2="310.40" y2="60.00"/>
    <line x1="412.80" y1="540.00" x2="412.80" y2="60.00"/>
    <line x1="515.20" y1="540.00" x2="515.20" y2="60.00"/>
    <line x1="617.60" y1="540.00" x2="617.60" y2="60.00"/>
    <line x1="720.00" y1="540.00" x2="720.00" y2="60.00"/>
    <line x1="80.00" y1="572.81" x2="720.00" y2="572.81"/>
    <line x1="80.00" y1="504.59" x2="720.00" y2="504.59"/>
    <line x1="80.00" y1="436.36" x2="720.00" y2="436.36"/>
    <line x1="80.00" y1="368.14" x2="720.00" y2="368.14"/>
    <line x1="80.00" y1="299.91" x2="720.00" y2="299.91"/>
    <line x1="80.00" y1="231.68" x2="720.00" y2="231.68"/>
    <line x1="80.00" y1="163.46" x2="720.00" y2="163.46"/>
    <line x1="80.00" y1="95.23" x2="720.00" y2="95.23"/>
    <line x1="80.00" y1="27.01" x2="720.00" y2="27.01"/>
  </g>
  <g stroke="#e8e8e8" stroke-width="0.5">
    <line x1="85.12" y1="540.00" x2="85.12" y2="60.00"/>
    <line x1="126.08" y1="540.00" x2="126.08" y2="60.00"/>
    <line x1="146.56" y1="540.00" x2="146.56" y2="60.00"/>
    <line x1="167.04" y1="540.00" x2="167.04" y2="60.00"/>
    <line x1="187.52" y1="540.00" x2="187.52" y2="60.00"/>
    <line x1="228.48" y1="540.00" x2="228.48" y2="60.00"/>
    <line x1="248.96" y1="540.00" x2="248.96" y2="60.00"/>
    <line x1="269.44" y1="540.00" x2="269.44" y2="60.00"/>
    <line x1="289.92" y1="540.00" x2="289.92" y2="60.00"/>
    <line x1="330.88" y1="540.00" x2="330.88" y2="60.00"/>
    <line x1="351.36" y1="540.00" x2="351.36" y2="60.00"/>
    <line x1="371.84" y1="540.00" x2="371.84" y2="60.00"/>
    <line x1="392.32" y1="540.00" x2="392.32" y2="60.00"/>
    <line x1="433.28" y1="540.00" x2="433.28" y2="60.00"/>
    <line x1="453.76" y1="540.00" x2="453.76" y2="60.00"/>
    <line x1="474.24" y1="540.00" x2="474.24" y2="60.00"/>
    <line x1="494.72" y1="540.00" x2="494.72" y2="60.00"/>
    <line x1="535.68" y1="540.00" x2="535.68" y2="60.00"/>
    <line x1="556.16" y1="540.00" x2="556.16" y2="60.00"/>
    <line x1="576.64" y1="540.00" x2="576.64" y2="60.00"/>
    <line x1="597.12" y1="540.00" x2="597.12" y2="60.00"/>
    <line x1="638.08" y1="540.00" x2="638.08" y2="60.00"/>
    <line x1="658.56" y1="540.00" x2="658.56" y2="60.00"/>
    <line x1="679.04" y1="540.00" x2="679.04" y2="60.00"/>
    <line x1="699.52" y1="540.00" x2="699.52" y2="60.00"/>
    <line x1="80.00" y1="531.88" x2="720.00" y2="531.88"/>
    <line x1="80.00" y1="518.23" x2="720.00" y2="518.23"/>
    <line x1="80.00" y1="490.94" x2="720.00" y2="490.94"/>
    <line x1="80.00" y1="477.30" x2="720.00" y2="477.30"/>
    <line x1="80.00" y1="463.65" x2="720.00" y2="463.65"/>
    <line x1="80.00" y1="450.01" x2="720.00" y2="450.01"/>
    <line x1="80.00" y1="422.72" x2="720.00" y2="422.72"/>
    <line x1="80.00" y1="409.07" x2="720.00" y2="409.07"/>
    <line x1="80.00" y1="395.43" x2="720.00" y2="395.43"/>
    <line x1="80.00" y1="381.78" x2="720.00" y2="381.78"/>
    <line x1="80.00" y1="354.49" x2="720.00" y2="354.49"/>
    <line x1="80.00" y1="340.85" x2="720.00" y2="340.85"/>
    <line x1="80.00" y1="327.20" x2="720.00" y2="327.20"/>
    <line x1="80.00" y1="313.55" x2="720.00" y2="313.55"/>
    <line x1="80.00" y1="286.26" x2="720.00" y2="286.26"/>
    <line x1="80.00" y1="272.62" x2="720.00" y2="272.62"/>
    <line x1="80.00" y1="258.97" x2="720.00" y2="258.97"/>
    <line x1="80.00" y1="245.33" x2="720.00" y2="245.33"/>
    <line x1="80.00" y1="218.04" x2="720.00" y2="218.04"/>
    <line x1="80.00" y1="204.39" x2="720.00" y2="204.39"/>
    <line x1="80.00" y1="190.75" x2="720.00" y2="190.75"/>
    <line x1="80.00" y1="177.10" x2="720.00" y2="177.10"/>
    <line x1="80.00" y1="149.81" x2="720.00" y2="149.81"/>
    <line x1="80.00" y1="136.17" x2="720.00" y2="136.17"/>
    <line x1="80.00" y1="122.52" x2="720.00" y2="122.52"/>
    <line x1="80.00" y1="108.88" x2="720.00" y2="108.88"/>
    <line x1="80.00" y1="81.59" x2="720.00" y2="81.59"/>
    <line x1="80.00" y1="67.94" x2="720.00" y2="67.94"/>
  </g>
  <g stroke="#808080" stroke-width="2">
    <line x1="105.60" y1="540.00" x2="105.60" y2="60.00"/>
    <line x1="80.00" y1="299.91" x2="720.00" y2="299.91"/>
  </g>
  <polyline fill="none" stroke="#0066cc" stroke-width="2" points="719.92,294.77 715.68,262.43 705.10,230.80 688.39,200.48 665.92,172.01 638.16,145.93 605.70,122.69 569.22,102.71 529.48,86.30 487.32,73.71 443.59,65.10 399.18,60.53 354.99,60.00 311.87,63.38 270.65,70.49 232.10,81.05 196.91,94.71 165.67,111.07 138.87,129.66 116.88,149.98 99.96,171.50 88.21,193.68 81.63,215.97 80.08,237.85 83.31,258.81 90.93,278.38 102.48,296.15 117.38,311.77 135.01,324.94 154.67,335.46 175.63,343.19 197.15,348.08 218.49,350.17 238.93,349.56 257.80,346.45 274.48,341.10 288.44,333.82 299.23,325.01 306.51,315.07 310.06,304.46 309.75,293.65 305.60,283.12 297.75,273.33 286.43,264.73 272.01,257.74 254.94,252.72 235.78,249.99 215.16,249.80 193.74,252.33 172.26,257.67 151.45,265.85 132.07,276.79 114.82,290.37 100.41,306.35 89.45,324.43 82.49,344.25 80.00,365.38 82.33,387.36 89.72,409.67 102.29,431.78 120.03,453.15 142.80,473.23 170.33,491.50 202.23,507.46 238.00,520.66 277.02,530.69 318.59,537.23 361.93,540.00 406.22,538.83 450.58,533.63 494.12,524.38 535.96,511.17 575.23,494.18 611.12,473.65 642.88,449.94 669.84,423.45 691.43,394.65 707.19,364.08 716.78,332.30 720.00,299.91 "/>
</svg>
