<?xml version="1.0" encoding="UTF-8"?>
<svg xmlns="http://www.w3.org/2000/svg" width="800" height="600">
  <title>R=4*cos(t)+4</title>
  <rect width="800" height="600" fill="#ffffff"/>
  <g stroke="#d0d0d0" stroke-width="1">
    <line x1="79.93" y1="540.00" x2="79.93" y2="60.00"/>
    <line x1="151.05" y1="540.00" x2="151.05" y2="60.00"/>
    <line x1="222.17" y1="540.00" x2="222.17" y2="60.00"/>
    <line x1="293.29" y1="540.00" x2="293.29" y2="60.00"/>
    <line x1="364.41" y1="540.00" x2="364.41" y2="60.00"/>
    <line x1="435.52" y1="540.00" x2="435.52" y2="60.00"/>
    <line x1="506.64" y1="540.00" x2="506.64" y2="60.00"/>
    <line x1="577.76" y1="540.00" x2="577.76" y2="60.00"/>
    <line x1="648.88" y1="540.00" x2="648.88" y2="60.00"/>
    <line x1="720.00" y1="540.00" x2="720.00" y2="60.00"/>
    <line x1="80.00" y1="577.19" x2="720.00" y2="577.19"/>
    <line x1="80.00" y1="531.00" x2="720.00" y2="531.00"/>
    <line x1="80.00" y1="484.80" x2="720.00" y2="484.80"/>
    <line x1="80.00" y1="438.61" x2="720.00" y2="438.61"/>
    <line x1="80.00" y1="392.41" x2="720.00" y2="392.41"/>
    <line x1="80.00" y1="346.22" x2="720.00" y2="346.22"/>
    <line x1="80.00" y1="300.03" x2="720.00" y2="300.03"/>
    <line x1="80.00" y1="253.83" x2="720.00" y2="253.83"/>
    <line x1="80.00" y1="207.64" x2="720.00" y2="207.64"/>
    <line x1="80.00" y1="161.45" x2="720.00" y2="161.45"/>
    <line x1="80.00" y1="115.25" x2="720.00" y2="115.25"/>
    <line x1="80.00" y1="69.06" x2="720.00" y2="69.06"/>
    <line x1="80.00" y1="22.87" x2="720.00" y2="22.87"/>
  </g>
  <g stroke="#e8e8e8" stroke-width="0.5">
    <line x1="94.15" y1="540.00" x2="94.15" y2="60.00"/>
    <line x1="108.38" y1="540.00" x2="108.38" y2="60.00"/>
    <line x1="122.60" y1="540.00" x2="122.60" y2="60.00"/>
    <line x1="136.82" y1="540.00" x2="136.82" y2="60.00"/>
    <line x1="165.27" y1="540.00" x2="165.27" y2="60.00"/>
    <line x1="179.50" y1="540.00" x2="179.50" y2="60.00"/>
    <line x1="193.72" y1="540.00" x2="193.72" y2="60.00"/>
    <line x1="207.94" y1="540.00" x2="207.94" y2="60.00"/>
    <line x1="236.39" y1="540.00" x2="236.39" y2="60.00"/>
    <line x1="250.61" y1="540.00" x2="250.61" y2="60.00"/>
    <line x1="264.84" y1="540.00" x2="264.84" y2="60.00"/>
    <line x1="279.06" y1="540.00" x2="279.06" y2="60.00"/>
    <line x1="307.51" y1="540.00" x2="307.51" y2="60.00"/>
    <line x1="321.73" y1="540.00" x2="321.73" y2="60.00"/>
    <line x1="335.96" y1="540.00" x2="335.96" y2="60.00"/>
    <line x1="350.18" y1="540.00" x2="350.18" y2="60.00"/>
    <line x1="378.63" y1="540.00" x2="378.63" y2="60.00"/>
    <line x1="392.85" y1="540.00" x2="392.85" y2="60.00"/>
    <line x1="407.08" y1="540.00" x2="407.08" y2="60.00"/>
    <line x1="421.30" y1="540.00" x2="421.30" y2="60.00"/>
    <line x1="449.75" y1="540.00" x2="449.75" y2="60.00"/>
    <line x1="463.97" y1="540.00" x2="463.97" y2="60.00"/>
    <line x1="478.20" y1="540.00" x2="478.20" y2="60.00"/>
    <line x1="492.42" y1="540.00" x2="492.42" y2="60.00"/>
    <line x1="520.87" y1="540.00" x2="520.87" y2="60.00"/>
    <line x1="535.09" y1="540.00" x2="535.09" y2="60.00"/>
    <line x1="549.31" y1="540.00" x2="549.31" y2="60.00"/>
    <line x1="563.54" y1="540.00" x2="563.54" y2="60.00"/>
    <line x1="591.99" y1="540.00" x2="591.99" y2="60.00"/>
    <line x1="606.21" y1="540.00" x2="606.21" y2="60.00"/>
    <line x1="620.43" y1="540.00" x2="620.43" y2="60.00"/>
    <line x1="634.66" y1="540.00" x2="634.66" y2="60.00"/>
    <line x1="663.10" y1="540.00" x2="663.10" y2="60.00"/>
    <line x1="677.33" y1="540.00" x2="677.33" y2="60.00"/>
    <line x1="691.55" y1="540.00" x2="691.55" y2="60.00"/>
    <line x1="705.78" y1="540.00" x2="705.78" y2="60.00"/>
    <line x1="80.00" y1="521.76" x2="720.00" y2="521.76"/>
    <line x1="80.00" y1="512.52" x2="720.00" y2="512.52"/>
    <line x1="80.00" y1="503.28" x2="720.00" y2="503.28"/>
    <line x1="80.00" y1="494.04" x2="720.00" y2="494.04"/>
    <line x1="80.00" y1="475.56" x2="720.00" y2="475.56"/>
    <line x1="80.00" y1="466.32" x2="720.00" y2="466.32"/>
    <line x1="80.00" y1="457.09" x2="720.00" y2="457.09"/>
    <line x1="80.00" y1="447.85" x2="720.00" y2="447.85"/>
    <line x1="80.00" y1="429.37" x2="720.00" y2="429.37"/>
    <line x1="80.00" y1="420.13" x2="720.00" y2="420.13"/>
    <line x1="80.00" y1="410.89" x2="720.00" y2="410.89"/>
    <line x1="80.00" y1="401.65" x2="720.00" y2="401.65"/>
    <line x1="80.00" y1="383.18" x2="720.00" y2="383.18"/>
    <line x1="80.00" y1="373.94" x2="720.00" y2="373.94"/>
    <line x1="80.00" y1="364.70" x2="720.00" y2="364.70"/>
    <line x1="80.00" y1="355.46" x2="720.00" y2="355.46"/>
    <line x1="80.00" y1="336.98" x2="720.00" y2="336.98"/>
    <line x1="80.00" y1="327.74" x2="720.00" y2="327.74"/>
    <line x1="80.00" y1="318.50" x2="720.00" y2="318.50"/>
    <line x1="80.00" y1="309.27" x2="720.00" y2="309.27"/>
    <line x1="80.00" y1="290.79" x2="720.00" y2="290.79"/>
    <line x1="80.00" y1="281.55" x2="720.00" y2="281.55"/>
    <line x1="80.00" y1="272.31" x2="720.00" y2="272.31"/>
    <line x1="80.00" y1="263.07" x2="720.00" y2="263.07"/>
    <line x1="80.00" y1="244.59" x2="720.00" y2="244.59"/>
    <line x1="80.00" y1="235.36" x2="720.00" y2="235.36"/>
    <line x1="80.00" y1="226.12" x2="720.00" y2="226.12"/>
    <line x1="80.00" y1="216.88" x2="720.00" y2="216.88"/>
    <line x1="80.00" y1="198.40" x2="720.00" y2="198.40"/>
    <line x1="80.00" y1="189.16" x2="720.00" y2="189.16"/>
    <line x1="80.00" y1="179.92" x2="720.00" y2="179.92"/>
    <line x1="80.00" y1="170.69" x2="720.00" y2="170.69"/>
    <line x1="80.00" y1="152.21" x2="720.00" y2="152.21"/>
    <line x1="80.00" y1="142.97" x2="720.00" y2="142.97"/>
    <line x1="80.00" y1="133.73" x2="720.00" y2="133.73"/>
    <line x1="80.00" y1="124.49" x2="720.00" y2="124.49"/>
    <line x1="80.00" y1="106.01" x2="720.00" y2="106.01"/>
    <line x1="80.00" y1="96.78" x2="720.00" y2="96.78"/>
    <line x1="80.00" y1="87.54" x2="720.00" y2="87.54"/>
    <line x1="80.00" y1="78.30" x2="720.00" y2="78.30"/>
    <line x1="80.00" y1="59.82" x2="720.00" y2="59.82"/>
  </g>
  <g stroke="#808080" stroke-width="2">
    <line x1="151.05" y1="540.00" x2="151.05" y2="60.00"/>
    <line x1="80.00" y1="300.03" x2="720.00" y2="300.03"/>
  </g>
  <polyline fill="none" stroke="#0066cc" stroke-width="2" points="719.93,295.38 716.40,266.17 707.57,237.49 693.60,209.78 674.76,183.49 651.40,158.99 623.96,136.66 592.93,116.79 558.89,99.66 522.44,85.47 484.24,74.36 444.95,66.41 405.24,61.64 365.76,60.00 327.16,61.38 290.03,65.63 254.90,72.52 222.26,81.79 192.52,93.14 166.01,106.24 142.97,120.74 123.55,136.26 107.81,152.44 95.74,168.91 87.22,185.31 82.06,201.33 80.00,216.65 80.70,231.03 83.79,244.23 88.84,256.10 95.40,266.50 103.01,275.39 111.19,282.73 119.49,288.57 127.48,293.00 134.77,296.16 141.01,298.21 145.91,299.38 149.25,299.90 150.89,300.02 150.75,300.04 148.83,300.21 145.23,300.81 140.10,302.10 133.68,304.32 126.25,307.67 118.19,312.31 109.87,318.39 101.75,325.97 94.28,335.10 87.93,345.74 83.16,357.83 80.42,371.23 80.13,385.77 82.67,401.23 88.34,417.32 97.41,433.76 110.06,450.21 126.38,466.31 146.38,481.69 169.98,495.99 197.02,508.84 227.25,519.88 260.31,528.79 295.78,535.28 333.19,539.08 371.97,540.00 411.53,537.87 451.22,532.60 490.38,524.14 528.35,512.54 564.45,497.87 598.06,480.29 628.55,460.02 655.38,437.32 678.06,412.51 696.14,385.97 709.31,358.08 717.32,329.28 720.00,300.03 "/>
</svg>
