<?xml version="1.0" encoding="UTF-8"?>
<svg xmlns="http://www.w3.org/2000/svg" width="800" height="600">
  <title>R=3*sin(t)/t:-2,2:</title>
  <rect width="800" height="600" fill="#ffffff"/>
  <g stroke="#d0d0d0" stroke-width="1">
    <line x1="17.86" y1="540.00" x2="17.86" y2="60.00"/>
    <line x1="193.95" y1="540.00" x2="193.95" y2="60.00"/>
    <line x1="370.04" y1="540.00" x2="370.04" y2="60.00"/>
    <line x1="546.13" y1="540.00" x2="546.13" y2="60.00"/>
    <line x1="722.22" y1="540.00" x2="722.22" y2="60.00"/>
    <line x1="80.00" y1="631.41" x2="720.00" y2="631.41"/>
    <line x1="80.00" y1="520.94" x2="720.00" y2="520.94"/>
    <line x1="80.00" y1="410.47" x2="720.00" y2="410.47"/>
    <line x1="80.00" y1="300.00" x2="720.00" y2="300.00"/>
    <line x1="80.00" y1="189.53" x2="720.00" y2="189.53"/>
    <line x1="80.00" y1="79.06" x2="720.00" y2="79.06"/>
    <line x1="80.00" y1="-31.41" x2="720.00" y2="-31.41"/>
  </g>
  <g stroke="#e8e8e8" stroke-width="0.5">
    <line x1="88.30" y1="540.00" x2="88.30" y2="60.00"/>
    <line x1="123.52" y1="540.00" x2="123.52" y2="60.00"/>
    <line x1="158.74" y1="540.00" x2="158.74" y2="60.00"/>
    <line x1="229.17" y1="540.00" x2="229.17" y2="60.00"/>
    <line x1="264.39" y1="540.00" x2="264.39" y2="60.00"/>
    <line x1="299.61" y1="540.00" x2="299.61" y2="60.00"/>
    <line x1="334.83" y1="540.00" x2="334.83" y2="60.00"/>
    <line x1="405.26" y1="540.00" x2="405.26" y2="60.00"/>
    <line x1="440.48" y1="540.00" x2="440.48" y2="60.00"/>
    <line x1="475.70" y1="540.00" x2="475.70" y2="60.00"/>
    <line x1="510.92" y1="540.00" x2="510.92" y2="60.00"/>
    <line x1="581.35" y1="540.00" x2="581.35" y2="60.00"/>
    <line x1="616.57" y1="540.00" x2="616.57" y2="60.00"/>
    <line x1="651.79" y1="540.00" x2="651.79" y2="60.00"/>
    <line x1="687.01" y1="540.00" x2="687.01" y2="60.00"/>
    <line x1="80.00" y1="498.85" x2="720.00" y2="498.85"/>
    <line x1="80.00" y1="476.75" x2="720.00" y2="476.75"/>
    <line x1="80.00" y1="454.66" x2="720.00" y2="454.66"/>
    <line x1="80.00" y1="432.57" x2="720.00" y2="432.57"/>
    <line x1="80.00" y1="388.38" x2="720.00" y2="388.38"/>
    <line x1="80.00" y1="366.28" x2="720.00" y2="366.28"/>
    <line x1="80.00" y1="344.19" x2="720.00" y2="344.19"/>
    <line x1="80.00" y1="322.09" x2="720.00" y2="322.09"/>
    <line x1="80.00" y1="277.91" x2="720.00" y2="277.91"/>
    <line x1="80.00" y1="255.81" x2="720.00" y2="255.81"/>
    <line x1="80.00" y1="233.72" x2="720.00" y2="233.72"/>
    <line x1="80.00" y1="211.62" x2="720.00" y2="211.62"/>
    <line x1="80.00" y1="167.43" x2="720.00" y2="167.43"/>
    <line x1="80.00" y1="145.34" x2="720.00" y2="145.34"/>
    <line x1="80.00" y1="123.25" x2="720.00" y2="123.25"/>
    <line x1="80.00" y1="101.15" x2="720.00" y2="101.15"/>
  </g>
  <g stroke="#808080" stroke-width="2">
    <line x1="193.95" y1="540.00" x2="193.95" y2="60.00"/>
    <line x1="80.00" y1="300.00" x2="720.00" y2="300.00"/>
  </g>
  <polyline fill="none" stroke="#0066cc" stroke-width="2" points="193.95,300.00 180.46,301.36 167.64,305.44 156.83,312.04 149.24,320.72 145.83,330.80 147.19,341.41 153.47,351.61 164.34,360.43 178.99,367.00 196.19,370.60 214.36,370.79 231.74,367.43 246.48,360.74 256.91,351.30 261.61,339.99 259.63,327.98 250.59,316.62 234.76,307.32 213.10,301.44 187.19,300.17 159.19,304.39 131.69,314.61 107.47,330.85 89.38,352.63 80.00,378.97 81.52,408.46 95.47,439.27 122.59,469.33 162.72,496.47 214.76,518.53 276.71,533.58 345.77,540.00 418.50,536.69 491.05,523.12 559.39,499.38 619.63,466.22 668.27,424.99 702.40,377.59 720.00,326.30 720.00,273.70 702.40,222.41 668.27,175.01 619.63,133.78 559.39,100.62 491.05,76.88 418.50,63.31 345.77,60.00 276.71,66.42 214.76,81.47 162.72,103.53 122.59,130.67 95.47,160.73 81.52,191.54 80.00,221.03 89.38,247.37 107.47,269.15 131.69,285.39 159.19,295.61 187.19,299.83 213.10,298.56 234.76,292.68 250.59,283.38 259.63,272.02 261.61,260.01 256.91,248.70 246.48,239.26 231.74,232.57 214.36,229.21 196.19,229.40 178.99,233.00 164.34,239.57 153.47,248.39 147.19,258.59 145.83,269.20 149.24,279.28 156.83,287.96 167.64,294.56 180.46,298.64 193.95,300.00 "/>
</svg>
