<?xml version="1.0" encoding="UTF-8"?>
<svg xmlns="http://www.w3.org/2000/svg" width="800" height="600">
  <title>R=1+2*sin(t/2):-2,2:</title>
  <rect width="800" height="600" fill="#ffffff"/>
  <g stroke="#d0d0d0" stroke-width="1">
    <line x1="79.59" y1="540.00" x2="79.59" y2="60.00"/>
    <line x1="227.98" y1="540.00" x2="227.98" y2="60.00"/>
    <line x1="376.38" y1="540.00" x2="376.38" y2="60.00"/>
    <line x1="524.78" y1="540.00" x2="524.78" y2="60.00"/>
    <line x1="673.17" y1="540.00" x2="673.17" y2="60.00"/>
    <line x1="821.57" y1="540.00" x2="821.57" y2="60.00"/>
    <line x1="80.00" y1="588.60" x2="720.00" y2="588.60"/>
    <line x1="80.00" y1="492.47" x2="720.00" y2="492.47"/>
    <line x1="80.00" y1="396.34" x2="720.00" y2="396.34"/>
    <line x1="80.00" y1="300.21" x2="720.00" y2="300.21"/>
    <line x1="80.00" y1="204.08" x2="720.00" y2="204.08"/>
    <line x1="80.00" y1="107.95" x2="720.00" y2="107.95"/>
    <line x1="80.00" y1="11.82" x2="720.00" y2="11.82"/>
  </g>
  <g stroke="#e8e8e8" stroke-width="0.5">
    <line x1="109.27" y1="540.00" x2="109.27" y2="60.00"/>
    <line x1="138.95" y1="540.00" x2="138.95" y2="60.00"/>
    <line x1="168.63" y1="540.00" x2="168.63" y2="60.00"/>
    <line x1="198.31" y1="540.00" x2="198.31" y2="60.00"/>
    <line x1="257.66" y1="540.00" x2="257.66" y2="60.00"/>
    <line x1="287.34" y1="540.00" x2="287.34" y2="60.00"/>
    <line x1="317.02" y1="540.00" x2="317.02" y2="60.00"/>
    <line x1="346.70" y1="540.00" x2="346.70" y2="60.00"/>
    <line x1="406.06" y1="540.00" x2="406.06" y2="60.00"/>
    <line x1="435.74" y1="540.00" x2="435.74" y2="60.00"/>
    <line x1="465.42" y1="540.00" x2="465.42" y2="60.00"/>
    <line x1="495.10" y1="540.00" x2="495.10" y2="60.00"/>
    <line x1="554.46" y1="540.00" x2="554.46" y2="60.00"/>
    <line x1="584.13" y1="540.00" x2="584.13" y2="60.00"/>
    <line x1="613.81" y1="540.00" x2="613.81" y2="60.00"/>
    <line x1="643.49" y1="540.00" x2="643.49" y2="60.00"/>
    <line x1="702.85" y1="540.00" x2="702.85" y2="60.00"/>
    <line x1="80.00" y1="530.92" x2="720.00" y2="530.92"/>
    <line x1="80.00" y1="511.70" x2="720.00" y2="511.70"/>
    <line x1="80.00" y1="473.24" x2="720.00" y2="473.24"/>
    <line x1="80.00" y1="454.02" x2="720.00" y2="454.02"/>
    <line x1="80.00" y1="434.79" x2="720.00" y2="434.79"/>
    <line x1="80.00" y1="415.57" x2="720.00" y2="415.57"/>
    <line x1="80.00" y1="377.11" x2="720.00" y2="377.11"/>
    <line x1="80.00" y1="357.89" x2="720.00" y2="357.89"/>
    <line x1="80.00" y1="338.66" x2="720.00" y2="338.66"/>
    <line x1="80.00" y1="319.44" x2="720.00" y2="319.44"/>
    <line x1="80.00" y1="280.98" x2="720.00" y2="280.98"/>
    <line x1="80.00" y1="261.76" x2="720.00" y2="261.76"/>
    <line x1="80.00" y1="242.53" x2="720.00" y2="242.53"/>
    <line x1="80.00" y1="223.31" x2="720.00" y2="223.31"/>
    <line x1="80.00" y1="184.85" x2="720.00" y2="184.85"/>
    <line x1="80.00" y1="165.63" x2="720.00" y2="165.63"/>
    <line x1="80.00" y1="146.40" x2="720.00" y2="146.40"/>
    <line x1="80.00" y1="127.18" x2="720.00" y2="127.18"/>
    <line x1="80.00" y1="88.73" x2="720.00" y2="88.73"/>
    <line x1="80.00" y1="69.50" x2="720.00" y2="69.50"/>
  </g>
  <g stroke="#808080" stroke-width="2">
    <line x1="524.78" y1="540.00" x2="524.78" y2="60.00"/>
    <line x1="80.00" y1="300.21" x2="720.00" y2="300.21"/>
  </g>
  <polyline fill="none" stroke="#0066cc" stroke-width="2" points="673.17,300.21 648.02,287.40 621.07,279.67 594.28,276.93 569.46,278.82 548.20,284.73 531.76,293.82 521.05,305.11 516.56,317.52 518.34,329.96 526.04,341.37 538.91,350.81 555.87,357.52 575.63,360.93 596.70,360.72 617.56,356.83 636.70,349.44 652.79,338.99 664.70,326.11 671.59,311.61 673.00,296.39 668.81,281.41 659.33,267.61 645.21,255.86 627.43,246.87 607.25,241.19 586.10,239.13 565.49,240.76 546.95,245.87 531.89,254.03 521.49,264.57 516.68,276.62 518.02,289.17 525.65,301.16 539.31,311.48 558.30,319.10 581.52,323.09 607.54,322.73 634.64,317.52 660.94,307.24 684.46,291.97 703.29,272.08 715.64,248.27 720.00,221.50 715.20,192.93 700.51,163.93 675.69,135.95 641.01,110.47 597.27,88.94 545.76,72.65 488.21,62.72 426.73,60.00 363.70,65.01 301.65,77.96 243.12,98.65 190.61,126.57 146.34,160.83 112.24,200.26 89.80,243.43 80.00,288.75 83.28,334.49 99.49,378.94 127.91,420.44 167.31,457.45 215.97,488.66 271.79,513.06 332.39,529.92 395.26,538.90 457.82,540.00 517.61,533.59 572.38,520.36 620.20,501.29 659.55,477.61 689.37,450.70 709.12,422.03 718.80,393.06 718.90,365.23 710.38,339.80 694.58,317.86 673.17,300.21 "/>
</svg>
