<?xml version="1.0" encoding="UTF-8"?>
<svg xmlns="http://www.w3.org/2000/svg" width="800" height="600">
  <title>X=5*(3*cos(t)-cos(3*t));Y=5*(3*sin(t)-sin(3*t))</title>
  <rect width="800" height="600" fill="#ffffff"/>
  <g stroke="#d0d0d0" stroke-width="1">
    <line x1="55.68" y1="540.00" x2="55.68" y2="60.00"/>
    <line x1="81.09" y1="540.00" x2="81.09" y2="60.00"/>
    <line x1="106.51" y1="540.00" x2="106.51" y2="60.00"/>
    <line x1="131.92" y1="540.00" x2="131.92" y2="60.00"/>
    <line x1="157.33" y1="540.00" x2="157.33" y2="60.00"/>
    <line x1="182.74" y1="540.00" x2="182.74" y2="60.00"/>
    <line x1="208.15" y1="540.00" x2="208.15" y2="60.00"/>
    <line x1="233.56" y1="540.00" x2="233.56" y2="60.00"/>
    <line x1="258.98" y1="540.00" x2="258.98" y2="60.00"/>
    <line x1="284.39" y1="540.00" x2="284.39" y2="60.00"/>
    <line x1="309.80" y1="540.00" x2="309.80" y2="60.00"/>
    <line x1="335.21" y1="540.00" x2="335.21" y2="60.00"/>
    <line x1="360.62" y1="540.00" x2="360.62" y2="60.00"/>
    <line x1="386.04" y1="540.00" x2="386.04" y2="60.00"/>
    <line x1="411.45" y1="540.00" x2="411.45" y2="60.00"/>
    <line x1="436.86" y1="540.00" x2="436.86" y2="60.00"/>
    <line x1="462.27" y1="540.00" x2="462.27" y2="60.00"/>
    <line x1="487.68" y1="540.00" x2="487.68" y2="60.00"/>
    <line x1="513.09" y1="540.00" x2="513.09" y2="60.00"/>
    <line x1="538.51" y1="540.00" x2="538.51" y2="60.00"/>
    <line x1="563.92" y1="540.00" x2="563.92" y2="60.00"/>
    <line x1="589.33" y1="540.00" x2="589.33" y2="60.00"/>
    <line x1="614.74" y1="540.00" x2="614.74" y2="60.00"/>
    <line x1="640.15" y1="540.00" x2="640.15" y2="60.00"/>
    <line x1="665.56" y1="540.00" x2="665.56" y2="60.00"/>
    <line x1="690.98" y1="540.00" x2="690.98" y2="60.00"/>
    <line x1="716.39" y1="540.00" x2="716.39" y2="60.00"/>
    <line x1="741.80" y1="540.00" x2="741.80" y2="60.00"/>
    <line x1="80.00" y1="540.00" x2="720.00" y2="540.00"/>
    <line x1="80.00" y1="516.00" x2="720.00" y2="516.00"/>
    <line x1="80.00" y1="492.00" x2="720.00" y2="492.00"/>
    <line x1="80.00" y1="468.00" x2="720.00" y2="468.00"/>
    <line x1="80.00" y1="444.00" x2="720.00" y2="444.00"/>
    <line x1="80.00" y1="420.00" x2="720.00" y2="420.00"/>
    <line x1="80.00" y1="396.00" x2="720.00" y2="396.00"/>
    <line x1="80.00" y1="372.00" x2="720.00" y2="372.00"/>
    <line x1="80.00" y1="348.00" x2="720.00" y2="348.00"/>
    <line x1="80.00" y1="324.00" x2="720.00" y2="324.00"/>
    <line x1="80.00" y1="300.00" x2="720.00" y2="300.00"/>
    <line x1="80.00" y1="276.00" x2="720.00" y2="276.00"/>
    <line x1="80.00" y1="252.00" x2="720.00" y2="252.00"/>
    <line x1="80.00" y1="228.00" x2="720.00" y2="228.00"/>
    <line x1="80.00" y1="204.00" x2="720.00" y2="204.00"/>
    <line x1="80.00" y1="180.00" x2="720.00" y2="180.00"/>
    <line x1="80.00" y1="156.00" x2="720.00" y2="156.00"/>
    <line x1="80.00" y1="132.00" x2="720.00" y2="132.00"/>
    <line x1="80.00" y1="108.00" x2="720.00" y2="108.00"/>
    <line x1="80.00" y1="84.00" x2="720.00" y2="84.00"/>
    <line x1="80.00" y1="60.00" x2="720.00" y2="60.00"/>
  </g>
  <g stroke="#e8e8e8" stroke-width="0.5">
    <line x1="86.18" y1="540.00" x2="86.18" y2="60.00"/>
    <line x1="91.26" y1="540.00" x2="91.26" y2="60.00"/>
    <line x1="96.34" y1="540.00" x2="96.34" y2="60.00"/>
    <line x1="101.42" y1="540.00" x2="101.42" y2="60.00"/>
    <line x1="111.59" y1="540.00" x2="111.59" y2="60.00"/>
    <line x1="116.67" y1="540.00" x2="116.67" y2="60.00"/>
    <line x1="121.75" y1="540.00" x2="121.75" y2="60.00"/>
    <line x1="126.84" y1="540.00" x2="126.84" y2="60.00"/>
    <line x1="137.00" y1="540.00" x2="137.00" y2="60.00"/>
    <line x1="142.08" y1="540.00" x2="142.08" y2="60.00"/>
    <line x1="147.16" y1="540.00" x2="147.16" y2="60.00"/>
    <line x1="152.25" y1="540.00" x2="152.25" y2="60.00"/>
    <line x1="162.41" y1="540.00" x2="162.41" y2="60.00"/>
    <line x1="167.49" y1="540.00" x2="167.49" y2="60.00"/>
    <line x1="172.58" y1="540.00" x2="172.58" y2="60.00"/>
    <line x1="177.66" y1="540.00" x2="177.66" y2="60.00"/>
    <line x1="187.82" y1="540.00" x2="187.82" y2="60.00"/>
    <line x1="192.91" y1="540.00" x2="192.91" y2="60.00"/>
    <line x1="197.99" y1="540.00" x2="197.99" y2="60.00"/>
    <line x1="203.07" y1="540.00" x2="203.07" y2="60.00"/>
    <line x1="213.24" y1="540.00" x2="213.24" y2="60.00"/>
    <line x1="218.32" y1="540.00" x2="218.32" y2="60.00"/>
    <line x1="223.40" y1="540.00" x2="223.40" y2="60.00"/>
    <line x1="228.48" y1="540.00" x2="228.48" y2="60.00"/>
    <line x1="238.65" y1="540.00" x2="238.65" y2="60.00"/>
    <line x1="243.73" y1="540.00" x2="243.73" y2="60.00"/>
    <line x1="248.81" y1="540.00" x2="248.81" y2="60.00"/>
    <line x1="253.89" y1="540.00" x2="253.89" y2="60.00"/>
    <line x1="264.06" y1="540.00" x2="264.06" y2="60.00"/>
    <line x1="269.14" y1="540.00" x2="269.14" y2="60.00"/>
    <line x1="274.22" y1="540.00" x2="274.22" y2="60.00"/>
    <line x1="279.31" y1="540.00" x2="279.31" y2="60.00"/>
    <line x1="289.47" y1="540.00" x2="289.47" y2="60.00"/>
    <line x1="294.55" y1="540.00" x2="294.55" y2="60.00"/>
    <line x1="299.64" y1="540.00" x2="299.64" y2="60.00"/>
    <line x1="304.72" y1="540.00" x2="304.72" y2="60.00"/>
    <line x1="314.88" y1="540.00" x2="314.88" y2="60.00"/>
    <line x1="319.96" y1="540.00" x2="319.96" y2="60.00"/>
    <line x1="325.05" y1="540.00" x2="325.05" y2="60.00"/>
    <line x1="330.13" y1="540.00" x2="330.13" y2="60.00"/>
    <line x1="340.29" y1="540.00" x2="340.29" y2="60.00"/>
    <line x1="345.38" y1="540.00" x2="345.38" y2="60.00"/>
    <line x1="350.46" y1="540.00" x2="350.46" y2="60.00"/>
    <line x1="355.54" y1="540.00" x2="355.54" y2="60.00"/>
    <line x1="365.71" y1="540.00" x2="365.71" y2="60.00"/>
    <line x1="370.79" y1="540.00" x2="370.79" y2="60.00"/>
    <line x1="375.87" y1="540.00" x2="375.87" y2="60.00"/>
    <line x1="380.95" y1="540.00" x2="380.95" y2="60.00"/>
    <line x1="391.12" y1="540.00" x2="391.12" y2="60.00"/>
    <line x1="396.20" y1="540.00" x2="396.20" y2="60.00"/>
    <line x1="401.28" y1="540.00" x2="401.28" y2="60.00"/>
    <line x1="406.36" y1="540.00" x2="406.36" y2="60.00"/>
    <line x1="416.53" y1="540.00" x2="416.53" y2="60.00"/>
    <line x1="421.61" y1="540.00" x2="421.61" y2="60.00"/>
    <line x1="426.69" y1="540.00" x2="426.69" y2="60.00"/>
    <line x1="431.78" y1="540.00" x2="431.78" y2="60.00"/>
    <line x1="441.94" y1="540.00" x2="441.94" y2="60.00"/>
    <line x1="447.02" y1="540.00" x2="447.02" y2="60.00"/>
    <line x1="452.11" y1="540.00" x2="452.11" y2="60.00"/>
    <line x1="457.19" y1="540.00" x2="457.19" y2="60.00"/>
    <line x1="467.35" y1="540.00" x2="467.35" y2="60.00"/>
    <line x1="472.44" y1="540.00" x2="472.44" y2="60.00"/>
    <line x1="477.52" y1="540.00" x2="477.52" y2="60.00"/>
    <line x1="482.60" y1="540.00" x2="482.60" y2="60.00"/>
    <line x1="492.76" y1="540.00" x2="492.76" y2="60.00"/>
    <line x1="497.85" y1="540.00" x2="497.85" y2="60.00"/>
    <line x1="502.93" y1="540.00" x2="502.93" y2="60.00"/>
    <line x1="508.01" y1="540.00" x2="508.01" y2="60.00"/>
    <line x1="518.18" y1="540.00" x2="518.18" y2="60.00"/>
    <line x1="523.26" y1="540.00" x2="523.26" y2="60.00"/>
    <line x1="528.34" y1="540.00" x2="528.34" y2="60.00"/>
    <line x1="533.42" y1="540.00" x2="533.42" y2="60.00"/>
    <line x1="543.59" y1="540.00" x2="543.59" y2="60.00"/>
    <line x1="548.67" y1="540.00" x2="548.67" y2="60.00"/>
    <line x1="553.75" y1="540.00" x2="553.75" y2="60.00"/>
    <line x1="558.84" y1="540.00" x2="558.84" y2="60.00"/>
    <line x1="569.00" y1="540.00" x2="569.00" y2="60.00"/>
    <line x1="574.08" y1="540.00" x2="574.08" y2="60.00"/>
    <line x1="579.16" y1="540.00" x2="579.16" y2="60.00"/>
    <line x1="584.25" y1="540.00" x2="584.25" y2="60.00"/>
    <line x1="594.41" y1="540.00" x2="594.41" y2="60.00"/>
    <line x1="599.49" y1="540.00" x2="599.49" y2="60.00"/>
    <line x1="604.58" y1="540.00" x2="604.58" y2="60.00"/>
    <line x1="609.66" y1="540.00" x2="609.66" y2="60.00"/>
    <line x1="619.82" y1="540.00" x2="619.82" y2="60.00"/>
    <line x1="624.91" y1="540.00" x2="624.91" y2="60.00"/>
    <line x1="629.99" y1="540.00" x2="629.99" y2="60.00"/>
    <line x1="635.07" y1="540.00" x2="635.07" y2="60.00"/>
    <line x1="645.24" y1="540.00" x2="645.24" y2="60.00"/>
    <line x1="650.32" y1="540.00" x2="650.32" y2="60.00"/>
    <line x1="655.40" y1="540.00" x2="655.40" y2="60.00"/>
    <line x1="660.48" y1="540.00" x2="660.48" y2="60.00"/>
    <line x1="670.65" y1="540.00" x2="670.65" y2="60.00"/>
    <line x1="675.73" y1="540.00" x2="675.73" y2="60.00"/>
    <line x1="680.81" y1="540.00" x2="680.81" y2="60.00"/>
    <line x1="685.89" y1="540.00" x2="685.89" y2="60.00"/>
    <line x1="696.06" y1="540.00" x2="696.06" y2="60.00"/>
    <line x1="701.14" y1="540.00" x2="701.14" y2="60.00"/>
    <line x1="706.22" y1="540.00" x2="706.22" y2="60.00"/>
    <line x1="711.31" y1="540.00" x2="711.31" y2="60.00"/>
    <line x1="80.00" y1="535.20" x2="720.00" y2="535.20"/>
    <line x1="80.00" y1="530.40" x2="720.00" y2="530.40"/>
    <line x1="80.00" y1="525.60" x2="720.00" y2="525.60"/>
    <line x1="80.00" y1="520.80" x2="720.00" y2="520.80"/>
    <line x1="80.00" y1="511.20" x2="720.00" y2="511.20"/>
    <line x1="80.00" y1="506.40" x2="720.00" y2="506.40"/>
    <line x1="80.00" y1="501.60" x2="720.00" y2="501.60"/>
    <line x1="80.00" y1="496.80" x2="720.00" y2="496.80"/>
    <line x1="80.00" y1="487.20" x2="720.00" y2="487.20"/>
    <line x1="80.00" y1="482.40" x2="720.00" y2="482.40"/>
    <line x1="80.00" y1="477.60" x2="720.00" y2="477.60"/>
    <line x1="80.00" y1="472.80" x2="720.00" y2="472.80"/>
    <line x1="80.00" y1="463.20" x2="720.00" y2="463.20"/>
    <line x1="80.00" y1="458.40" x2="720.00" y2="458.40"/>
    <line x1="80.00" y1="453.60" x2="720.00" y2="453.60"/>
    <line x1="80.00" y1="448.80" x2="720.00" y2="448.80"/>
    <line x1="80.00" y1="439.20" x2="720.00" y2="439.20"/>
    <line x1="80.00" y1="434.40" x2="720.00" y2="434.40"/>
    <line x1="80.00" y1="429.60" x2="720.00" y2="429.60"/>
    <line x1="80.00" y1="424.80" x2="720.00" y2="424.80"/>
    <line x1="80.00" y1="415.20" x2="720.00" y2="415.20"/>
    <line x1="80.00" y1="410.40" x2="720.00" y2="410.40"/>
    <line x1="80.00" y1="405.60" x2="720.00" y2="405.60"/>
    <line x1="80.00" y1="400.80" x2="720.00" y2="400.80"/>
    <line x1="80.00" y1="391.20" x2="720.00" y2="391.20"/>
    <line x1="80.00" y1="386.40" x2="720.00" y2="386.40"/>
    <line x1="80.00" y1="381.60" x2="720.00" y2="381.60"/>
    <line x1="80.00" y1="376.80" x2="720.00" y2="376.80"/>
    <line x1="80.00" y1="367.20" x2="720.00" y2="367.20"/>
    <line x1="80.00" y1="362.40" x2="720.00" y2="362.40"/>
    <line x1="80.00" y1="357.60" x2="720.00" y2="357.60"/>
    <line x1="80.00" y1="352.80" x2="720.00" y2="352.80"/>
    <line x1="80.00" y1="343.20" x2="720.00" y2="343.20"/>
    <line x1="80.00" y1="338.40" x2="720.00" y2="338.40"/>
    <line x1="80.00" y1="333.60" x2="720.00" y2="333.60"/>
    <line x1="80.00" y1="328.80" x2="720.00" y2="328.80"/>
    <line x1="80.00" y1="319.20" x2="720.00" y2="319.20"/>
    <line x1="80.00" y1="314.40" x2="720.00" y2="314.40"/>
    <line x1="80.00" y1="309.60" x2="720.00" y2="309.60"/>
    <line x1="80.00" y1="304.80" x2="720.00" y2="304.80"/>
    <line x1="80.00" y1="295.20" x2="720.00" y2="295.20"/>
    <line x1="80.00" y1="290.40" x2="720.00" y2="290.40"/>
    <line x1="80.00" y1="285.60" x2="720.00" y2="285.60"/>
    <line x1="80.00" y1="280.80" x2="720.00" y2="280.80"/>
    <line x1="80.00" y1="271.20" x2="720.00" y2="271.20"/>
    <line x1="80.00" y1="266.40" x2="720.00" y2="266.40"/>
    <line x1="80.00" y1="261.60" x2="720.00" y2="261.60"/>
    <line x1="80.00" y1="256.80" x2="720.00" y2="256.80"/>
    <line x1="80.00" y1="247.20" x2="720.00" y2="247.20"/>
    <line x1="80.00" y1="242.40" x2="720.00" y2="242.40"/>
    <line x1="80.00" y1="237.60" x2="720.00" y2="237.60"/>
    <line x1="80.00" y1="232.80" x2="720.00" y2="232.80"/>
    <line x1="80.00" y1="223.20" x2="720.00" y2="223.20"/>
    <line x1="80.00" y1="218.40" x2="720.00" y2="218.40"/>
    <line x1="80.00" y1="213.60" x2="720.00" y2="213.60"/>
    <line x1="80.00" y1="208.80" x2="720.00" y2="208.80"/>
    <line x1="80.00" y1="199.20" x2="720.00" y2="199.20"/>
    <line x1="80.00" y1="194.40" x2="720.00" y2="194.40"/>
    <line x1="80.00" y1="189.60" x2="720.00" y2="189.60"/>
    <line x1="80.00" y1="184.80" x2="720.00" y2="184.80"/>
    <line x1="80.00" y1="175.20" x2="720.00" y2="175.20"/>
    <line x1="80.00" y1="170.40" x2="720.00" y2="170.40"/>
    <line x1="80.00" y1="165.60" x2="720.00" y2="165.60"/>
    <line x1="80.00" y1="160.80" x2="720.00" y2="160.80"/>
    <line x1="80.00" y1="151.20" x2="720.00" y2="151.20"/>
    <line x1="80.00" y1="146.40" x2="720.00" y2="146.40"/>
    <line x1="80.00" y1="141.60" x2="720.00" y2="141.60"/>
    <line x1="80.00" y1="136.80" x2="720.00" y2="136.80"/>
    <line x1="80.00" y1="127.20" x2="720.00" y2="127.20"/>
    <line x1="80.00" y1="122.40" x2="720.00" y2="122.40"/>
    <line x1="80.00" y1="117.60" x2="720.00" y2="117.60"/>
    <line x1="80.00" y1="112.80" x2="720.00" y2="112.80"/>
    <line x1="80.00" y1="103.20" x2="720.00" y2="103.20"/>
    <line x1="80.00" y1="98.40" x2="720.00" y2="98.40"/>
    <line x1="80.00" y1="93.60" x2="720.00" y2="93.60"/>
    <line x1="80.00" y1="88.80" x2="720.00" y2="88.80"/>
    <line x1="80.00" y1="79.20" x2="720.00" y2="79.20"/>
    <line x1="80.00" y1="74.40" x2="720.00" y2="74.40"/>
    <line x1="80.00" y1="69.60" x2="720.00" y2="69.60"/>
    <line x1="80.00" y1="64.80" x2="720.00" y2="64.80"/>
  </g>
  <g stroke="#808080" stroke-width="2">
    <line x1="360.62" y1="540.00" x2="360.62" y2="60.00"/>
    <line x1="80.00" y1="540.00" x2="720.00" y2="540.00"/>
  </g>
  <polyline fill="none" stroke="#0066cc" stroke-width="2" points="614.74,540.00 614.99,539.99 615.72,539.94 616.93,539.79 618.61,539.50 620.74,539.03 623.32,538.34 626.31,537.37 629.69,536.09 633.43,534.47 637.51,532.46 641.88,530.03 646.50,527.15 651.34,523.79 656.36,519.93 661.50,515.55 666.72,510.62 671.97,505.14 677.20,499.09 682.36,492.46 687.39,485.25 692.25,477.46 696.89,469.10 701.24,460.17 705.26,450.69 708.89,440.67 712.10,430.13 714.82,419.09 717.01,407.59 718.64,395.65 719.64,383.30 720.00,370.59 719.67,357.56 718.61,344.23 716.80,330.67 714.20,316.92 710.81,303.02 706.59,289.03 701.54,275.00 695.63,260.99 688.87,247.04 681.26,233.22 672.79,219.58 663.46,206.18 653.30,193.06 642.31,180.29 630.51,167.92 617.93,155.99 604.60,144.57 590.53,133.70 575.77,123.43 560.36,113.80 544.34,104.85 527.75,96.63 510.64,89.16 493.06,82.49 475.06,76.64 456.70,71.64 438.04,67.51 419.13,64.27 400.03,61.93 380.81,60.50 361.52,60.00 342.23,60.42 323.00,61.76 303.88,64.01 284.95,67.17 266.26,71.22 247.87,76.14 229.84,81.91 212.22,88.51 195.06,95.90 178.42,104.06 162.35,112.94 146.88,122.51 132.06,132.72 117.93,143.54 104.52,154.91 91.87,166.79 80.00,179.12 "/>
</svg>
