<?xml version="1.0" encoding="UTF-8"?>
<svg xmlns="http://www.w3.org/2000/svg" width="800" height="600">
  <title>X=sin(3*t);Y=sin(t)</title>
  <rect width="800" height="600" fill="#ffffff"/>
  <g stroke="#d0d0d0" stroke-width="1">
    <line x1="80.00" y1="540.00" x2="80.00" y2="60.00"/>
    <line x1="400.05" y1="540.00" x2="400.05" y2="60.00"/>
    <line x1="720.09" y1="540.00" x2="720.09" y2="60.00"/>
    <line x1="80.00" y1="540.00" x2="720.00" y2="540.00"/>
    <line x1="80.00" y1="60.00" x2="720.00" y2="60.00"/>
  </g>
  <g stroke="#e8e8e8" stroke-width="0.5">
    <line x1="144.01" y1="540.00" x2="144.01" y2="60.00"/>
    <line x1="208.02" y1="540.00" x2="208.02" y2="60.00"/>
    <line x1="272.03" y1="540.00" x2="272.03" y2="60.00"/>
    <line x1="336.04" y1="540.00" x2="336.04" y2="60.00"/>
    <line x1="464.06" y1="540.00" x2="464.06" y2="60.00"/>
    <line x1="528.06" y1="540.00" x2="528.06" y2="60.00"/>
    <line x1="592.07" y1="540.00" x2="592.07" y2="60.00"/>
    <line x1="656.08" y1="540.00" x2="656.08" y2="60.00"/>
    <line x1="80.00" y1="444.00" x2="720.00" y2="444.00"/>
    <line x1="80.00" y1="348.00" x2="720.00" y2="348.00"/>
    <line x1="80.00" y1="252.00" x2="720.00" y2="252.00"/>
    <line x1="80.00" y1="156.00" x2="720.00" y2="156.00"/>
  </g>
  <g stroke="#808080" stroke-width="2">
    <line x1="400.05" y1="540.00" x2="400.05" y2="60.00"/>
    <line x1="80.00" y1="540.00" x2="720.00" y2="540.00"/>
  </g>
  <polyline fill="none" stroke="#0066cc" stroke-width="2" points="400.05,540.00 424.33,527.85 448.47,515.71 472.34,503.58 495.79,491.48 518.68,479.40 540.89,467.37 562.29,455.38 582.76,443.45 602.17,431.58 620.42,419.77 637.39,408.05 653.00,396.41 667.15,384.86 679.75,373.41 690.75,362.07 700.07,350.84 707.66,339.74 713.48,328.76 717.48,317.91 719.66,307.21 720.00,296.66 718.49,286.27 715.15,276.03 709.99,265.97 703.04,256.08 694.34,246.38 683.95,236.86 671.92,227.53 658.33,218.41 643.24,209.49 626.75,200.79 608.96,192.30 589.96,184.03 569.86,176.00 548.79,168.19 526.86,160.63 504.20,153.31 480.94,146.23 457.21,139.41 433.15,132.84 408.90,126.54 384.60,120.50 360.39,114.73 336.41,109.23 312.79,104.01 289.68,99.07 267.20,94.41 245.49,90.03 224.67,85.94 204.86,82.15 186.18,78.65 168.73,75.44 152.61,72.53 137.93,69.92 124.75,67.62 113.16,65.61 103.22,63.91 94.99,62.52 88.53,61.43 83.86,60.64 81.01,60.17 80.00,60.00 80.84,60.14 83.51,60.59 88.02,61.34 94.32,62.40 102.38,63.77 112.16,65.44 123.60,67.42 136.64,69.70 151.19,72.28 167.18,75.16 184.51,78.34 203.08,81.81 222.79,85.58 243.52,89.64 265.15,93.99 287.56,98.62 310.62,103.54 "/>
</svg>
