<?xml version="1.0" encoding="UTF-8"?>
<svg xmlns="http://www.w3.org/2000/svg" width="800" height="600">
  <title>X=sin(t/2+pi/8);Y=sin(t):0,4:</title>
  <rect width="800" height="600" fill="#ffffff"/>
  <g stroke="#d0d0d0" stroke-width="1">
    <line x1="-316.79" y1="540.00" x2="-316.79" y2="60.00"/>
    <line x1="720.07" y1="540.00" x2="720.07" y2="60.00"/>
    <line x1="80.00" y1="606.45" x2="720.00" y2="606.45"/>
    <line x1="80.00" y1="333.22" x2="720.00" y2="333.22"/>
    <line x1="80.00" y1="60.00" x2="720.00" y2="60.00"/>
  </g>
  <g stroke="#e8e8e8" stroke-width="0.5">
    <line x1="97.95" y1="540.00" x2="97.95" y2="60.00"/>
    <line x1="305.33" y1="540.00" x2="305.33" y2="60.00"/>
    <line x1="512.70" y1="540.00" x2="512.70" y2="60.00"/>
    <line x1="80.00" y1="497.16" x2="720.00" y2="497.16"/>
    <line x1="80.00" y1="442.51" x2="720.00" y2="442.51"/>
    <line x1="80.00" y1="387.87" x2="720.00" y2="387.87"/>
    <line x1="80.00" y1="278.58" x2="720.00" y2="278.58"/>
    <line x1="80.00" y1="223.93" x2="720.00" y2="223.93"/>
    <line x1="80.00" y1="169.29" x2="720.00" y2="169.29"/>
    <line x1="80.00" y1="114.64" x2="720.00" y2="114.64"/>
  </g>
  <g stroke="#808080" stroke-width="2">
    <line x1="-316.79" y1="540.00" x2="-316.79" y2="60.00"/>
  </g>
  <polyline fill="none" stroke="#0066cc" stroke-width="2" points="80.00,333.22 104.12,319.40 127.97,305.60 151.54,291.88 174.81,278.26 197.76,264.79 220.38,251.49 242.66,238.40 264.58,225.55 286.12,212.98 307.29,200.72 328.05,188.79 348.39,177.24 368.31,166.09 387.79,155.36 406.82,145.09 425.39,135.31 443.48,126.03 461.08,117.28 478.19,109.08 494.79,101.46 510.86,94.44 526.41,88.02 541.41,82.24 555.86,77.09 569.76,72.61 583.09,68.79 595.84,65.65 608.00,63.19 619.57,61.43 630.55,60.37 640.91,60.00 650.66,60.33 659.80,61.37 668.30,63.10 676.18,65.52 683.41,68.63 690.01,72.42 695.96,76.87 701.26,81.98 705.91,87.74 709.91,94.13 713.25,101.12 715.92,108.72 717.94,116.89 719.29,125.61 719.98,134.86 720.00,144.63 719.36,154.88 718.05,165.58 716.08,176.71 713.45,188.25 710.16,200.16 706.21,212.40 701.61,224.96 696.35,237.80 690.45,250.88 683.89,264.17 676.70,277.64 668.87,291.25 660.41,304.96 651.32,318.75 641.61,332.58 631.29,346.41 620.36,360.21 608.83,373.93 596.70,387.55 583.99,401.04 570.71,414.34 556.85,427.44 542.43,440.30 527.47,452.89 511.96,465.17 495.92,477.11 479.36,488.68 462.29,499.85 444.72,510.60 426.67,520.89 408.13,530.70 389.14,540.00 "/>
</svg>
