<?xml version="1.0" encoding="UTF-8"?>
<svg xmlns="http://www.w3.org/2000/svg" width="800" height="600">
  <title>X=sin(3/2*t);Y=sin(t)</title>
  <rect width="800" height="600" fill="#ffffff"/>
  <g stroke="#d0d0d0" stroke-width="1">
    <line x1="80.00" y1="540.00" x2="80.00" y2="60.00"/>
    <line x1="720.06" y1="540.00" x2="720.06" y2="60.00"/>
    <line x1="80.00" y1="540.00" x2="720.00" y2="540.00"/>
    <line x1="80.00" y1="60.00" x2="720.00" y2="60.00"/>
  </g>
  <g stroke="#e8e8e8" stroke-width="0.5">
    <line x1="208.01" y1="540.00" x2="208.01" y2="60.00"/>
    <line x1="336.02" y1="540.00" x2="336.02" y2="60.00"/>
    <line x1="464.04" y1="540.00" x2="464.04" y2="60.00"/>
    <line x1="592.05" y1="540.00" x2="592.05" y2="60.00"/>
    <line x1="80.00" y1="444.00" x2="720.00" y2="444.00"/>
    <line x1="80.00" y1="348.00" x2="720.00" y2="348.00"/>
    <line x1="80.00" y1="252.00" x2="720.00" y2="252.00"/>
    <line x1="80.00" y1="156.00" x2="720.00" y2="156.00"/>
  </g>
  <g stroke="#808080" stroke-width="2">
    <line x1="80.00" y1="540.00" x2="80.00" y2="60.00"/>
    <line x1="80.00" y1="540.00" x2="720.00" y2="540.00"/>
  </g>
  <polyline fill="none" stroke="#0066cc" stroke-width="2" points="80.00,540.00 104.30,527.85 128.57,515.71 152.76,503.58 176.85,491.48 200.80,479.40 224.58,467.37 248.15,455.38 271.47,443.45 294.52,431.58 317.26,419.77 339.66,408.05 361.68,396.41 383.30,384.86 404.48,373.41 425.19,362.07 445.41,350.84 465.10,339.74 484.23,328.76 502.78,317.91 520.72,307.21 538.02,296.66 554.67,286.27 570.63,276.03 585.88,265.97 600.40,256.08 614.17,246.38 627.17,236.86 639.39,227.53 650.79,218.41 661.38,209.49 671.12,200.79 680.02,192.30 688.04,184.03 695.19,176.00 701.46,168.19 706.83,160.63 711.29,153.31 714.84,146.23 717.48,139.41 719.20,132.84 720.00,126.54 719.87,120.50 718.83,114.73 716.86,109.23 713.97,104.01 710.17,99.07 705.46,94.41 699.85,90.03 693.34,85.94 685.95,82.15 677.69,78.65 668.56,75.44 658.59,72.53 647.78,69.92 636.15,67.62 623.72,65.61 610.51,63.91 596.53,62.52 581.81,61.43 566.36,60.64 550.22,60.17 533.39,60.00 515.91,60.14 497.80,60.59 479.09,61.34 459.81,62.40 439.97,63.77 419.62,65.44 398.78,67.42 377.48,69.70 355.74,72.28 333.62,75.16 311.12,78.34 288.29,81.81 265.17,85.58 241.77,89.64 218.14,93.99 194.32,98.62 170.33,103.54 "/>
</svg>
