<?xml version="1.0" encoding="UTF-8"?>
<svg xmlns="http://www.w3.org/2000/svg" width="800" height="600">
  <title>X=sin(2*t);Y=sin(t)</title>
  <rect width="800" height="600" fill="#ffffff"/>
  <g stroke="#d0d0d0" stroke-width="1">
    <line x1="-8.60" y1="540.00" x2="-8.60" y2="60.00"/>
    <line x1="355.70" y1="540.00" x2="355.70" y2="60.00"/>
    <line x1="720.00" y1="540.00" x2="720.00" y2="60.00"/>
    <line x1="80.00" y1="540.00" x2="720.00" y2="540.00"/>
    <line x1="80.00" y1="60.00" x2="720.00" y2="60.00"/>
  </g>
  <g stroke="#e8e8e8" stroke-width="0.5">
    <line x1="137.12" y1="540.00" x2="137.12" y2="60.00"/>
    <line x1="209.98" y1="540.00" x2="209.98" y2="60.00"/>
    <line x1="282.84" y1="540.00" x2="282.84" y2="60.00"/>
    <line x1="428.56" y1="540.00" x2="428.56" y2="60.00"/>
    <line x1="501.42" y1="540.00" x2="501.42" y2="60.00"/>
    <line x1="574.28" y1="540.00" x2="574.28" y2="60.00"/>
    <line x1="647.14" y1="540.00" x2="647.14" y2="60.00"/>
    <line x1="80.00" y1="444.00" x2="720.00" y2="444.00"/>
    <line x1="80.00" y1="348.00" x2="720.00" y2="348.00"/>
    <line x1="80.00" y1="252.00" x2="720.00" y2="252.00"/>
    <line x1="80.00" y1="156.00" x2="720.00" y2="156.00"/>
  </g>
  <g stroke="#808080" stroke-width="2">
    <line x1="355.70" y1="540.00" x2="355.70" y2="60.00"/>
    <line x1="80.00" y1="540.00" x2="720.00" y2="540.00"/>
  </g>
  <polyline fill="none" stroke="#0066cc" stroke-width="2" points="355.70,540.00 374.14,527.85 392.53,515.71 410.83,503.58 428.98,491.48 446.95,479.40 464.68,467.37 482.13,455.38 499.26,443.45 516.03,431.58 532.38,419.77 548.27,408.05 563.68,396.41 578.55,384.86 592.85,373.41 606.54,362.07 619.59,350.84 631.96,339.74 643.63,328.76 654.55,317.91 664.72,307.21 674.08,296.66 682.64,286.27 690.35,276.03 697.21,265.97 703.19,256.08 708.28,246.38 712.47,236.86 715.74,227.53 718.09,218.41 719.51,209.49 720.00,200.79 719.55,192.30 718.18,184.03 715.87,176.00 712.64,168.19 708.50,160.63 703.45,153.31 697.51,146.23 690.69,139.41 683.01,132.84 674.50,126.54 665.17,120.50 655.04,114.73 644.15,109.23 632.52,104.01 620.18,99.07 607.16,94.41 593.50,90.03 579.23,85.94 564.38,82.15 549.00,78.65 533.12,75.44 516.79,72.53 500.05,69.92 482.94,67.62 465.50,65.61 447.78,63.91 429.82,62.52 411.67,61.43 393.38,60.64 375.00,60.17 356.56,60.00 338.12,60.14 319.73,60.59 301.43,61.34 283.26,62.40 265.29,63.77 247.54,65.44 230.07,67.42 212.93,69.70 196.15,72.28 179.78,75.16 163.86,78.34 148.43,81.81 133.53,85.58 119.21,89.64 105.48,93.99 92.40,98.62 80.00,103.54 "/>
</svg>
