<?xml version="1.0" encoding="UTF-8"?>
<svg xmlns="http://www.w3.org/2000/svg" width="800" height="600">
  <title>X=sin(3*t+pi/2);Y=sin(t)</title>
  <rect width="800" height="600" fill="#ffffff"/>
  <g stroke="#d0d0d0" stroke-width="1">
    <line x1="79.88" y1="540.00" x2="79.88" y2="60.00"/>
    <line x1="399.94" y1="540.00" x2="399.94" y2="60.00"/>
    <line x1="720.00" y1="540.00" x2="720.00" y2="60.00"/>
    <line x1="80.00" y1="540.00" x2="720.00" y2="540.00"/>
    <line x1="80.00" y1="60.00" x2="720.00" y2="60.00"/>
  </g>
  <g stroke="#e8e8e8" stroke-width="0.5">
    <line x1="143.89" y1="540.00" x2="143.89" y2="60.00"/>
    <line x1="207.90" y1="540.00" x2="207.90" y2="60.00"/>
    <line x1="271.91" y1="540.00" x2="271.91" y2="60.00"/>
    <line x1="335.93" y1="540.00" x2="335.93" y2="60.00"/>
    <line x1="463.95" y1="540.00" x2="463.95" y2="60.00"/>
    <line x1="527.96" y1="540.00" x2="527.96" y2="60.00"/>
    <line x1="591.98" y1="540.00" x2="591.98" y2="60.00"/>
    <line x1="655.99" y1="540.00" x2="655.99" y2="60.00"/>
    <line x1="80.00" y1="444.00" x2="720.00" y2="444.00"/>
    <line x1="80.00" y1="348.00" x2="720.00" y2="348.00"/>
    <line x1="80.00" y1="252.00" x2="720.00" y2="252.00"/>
    <line x1="80.00" y1="156.00" x2="720.00" y2="156.00"/>
  </g>
  <g stroke="#808080" stroke-width="2">
    <line x1="399.94" y1="540.00" x2="399.94" y2="60.00"/>
    <line x1="80.00" y1="540.00" x2="720.00" y2="540.00"/>
  </g>
  <polyline fill="none" stroke="#0066cc" stroke-width="2" points="720.00,540.00 719.08,527.85 716.31,515.71 711.73,503.58 705.34,491.48 697.20,479.40 687.34,467.37 675.82,455.38 662.72,443.45 648.09,431.58 632.04,419.77 614.65,408.05 596.02,396.41 576.26,384.86 555.49,373.41 533.82,362.07 511.37,350.84 488.28,339.74 464.69,328.76 440.72,317.91 416.51,307.21 392.21,296.66 367.96,286.27 343.89,276.03 320.14,265.97 296.85,256.08 274.16,246.38 252.19,236.86 231.07,227.53 210.93,218.41 191.87,209.49 174.02,200.79 157.47,192.30 142.32,184.03 128.65,176.00 116.54,168.19 106.08,160.63 97.30,153.31 90.27,146.23 85.02,139.41 81.59,132.84 80.00,126.54 80.25,120.50 82.34,114.73 86.27,109.23 92.00,104.01 99.51,99.07 108.75,94.41 119.67,90.03 132.21,85.94 146.29,82.15 161.83,78.65 178.74,75.44 196.93,72.53 216.29,69.92 236.71,67.62 258.07,65.61 280.25,63.91 303.12,62.52 326.54,61.43 350.39,60.64 374.53,60.17 398.81,60.00 423.10,60.14 447.25,60.59 471.13,61.34 494.61,62.40 517.53,63.77 539.78,65.44 561.22,67.42 581.73,69.70 601.20,72.28 619.50,75.16 636.54,78.34 652.21,81.81 666.43,85.58 679.11,89.64 690.18,93.99 699.58,98.62 707.25,103.54 "/>
</svg>
