<?xml version="1.0" encoding="UTF-8"?>
<svg xmlns="http://www.w3.org/2000/svg" width="800" height="600">
  <title>X=sin(3*t+pi/4);Y=sin(t)</title>
  <rect width="800" height="600" fill="#ffffff"/>
  <g stroke="#d0d0d0" stroke-width="1">
    <line x1="79.92" y1="540.00" x2="79.92" y2="60.00"/>
    <line x1="400.01" y1="540.00" x2="400.01" y2="60.00"/>
    <line x1="720.11" y1="540.00" x2="720.11" y2="60.00"/>
    <line x1="80.00" y1="540.00" x2="720.00" y2="540.00"/>
    <line x1="80.00" y1="60.00" x2="720.00" y2="60.00"/>
  </g>
  <g stroke="#e8e8e8" stroke-width="0.5">
    <line x1="143.94" y1="540.00" x2="143.94" y2="60.00"/>
    <line x1="207.96" y1="540.00" x2="207.96" y2="60.00"/>
    <line x1="271.98" y1="540.00" x2="271.98" y2="60.00"/>
    <line x1="335.99" y1="540.00" x2="335.99" y2="60.00"/>
    <line x1="464.03" y1="540.00" x2="464.03" y2="60.00"/>
    <line x1="528.05" y1="540.00" x2="528.05" y2="60.00"/>
    <line x1="592.07" y1="540.00" x2="592.07" y2="60.00"/>
    <line x1="656.09" y1="540.00" x2="656.09" y2="60.00"/>
    <line x1="80.00" y1="444.00" x2="720.00" y2="444.00"/>
    <line x1="80.00" y1="348.00" x2="720.00" y2="348.00"/>
    <line x1="80.00" y1="252.00" x2="720.00" y2="252.00"/>
    <line x1="80.00" y1="156.00" x2="720.00" y2="156.00"/>
  </g>
  <g stroke="#808080" stroke-width="2">
    <line x1="400.01" y1="540.00" x2="400.01" y2="60.00"/>
    <line x1="80.00" y1="540.00" x2="720.00" y2="540.00"/>
  </g>
  <polyline fill="none" stroke="#0066cc" stroke-width="2" points="626.35,540.00 642.88,527.85 658.00,515.71 671.63,503.58 683.70,491.48 694.13,479.40 702.87,467.37 709.86,455.38 715.06,443.45 718.45,431.58 720.00,419.77 719.71,408.05 717.57,396.41 713.60,384.86 707.83,373.41 700.28,362.07 691.00,350.84 680.04,339.74 667.46,328.76 653.35,317.91 637.77,307.21 620.82,296.66 602.60,286.27 583.22,276.03 562.77,265.97 541.39,256.08 519.19,246.38 496.31,236.86 472.87,227.53 449.01,218.41 424.86,209.49 400.58,200.79 376.29,192.30 352.14,184.03 328.26,176.00 304.80,168.19 281.88,160.63 259.65,153.31 238.23,146.23 217.74,139.41 198.30,132.84 180.02,126.54 163.01,120.50 147.37,114.73 133.19,109.23 120.54,104.01 109.50,99.07 100.14,94.41 92.51,90.03 86.65,85.94 82.60,82.15 80.38,78.65 80.00,75.44 81.47,72.53 84.77,69.92 89.89,67.62 96.80,65.61 105.45,63.91 115.81,62.52 127.80,61.43 141.36,60.64 156.42,60.17 172.88,60.00 190.64,60.14 209.62,60.59 229.69,61.34 250.75,62.40 272.66,63.77 295.31,65.44 318.57,67.42 342.29,69.70 366.34,72.28 390.59,75.16 414.90,78.34 439.12,81.81 463.11,85.58 486.74,89.64 509.87,93.99 532.36,98.62 554.10,103.54 "/>
</svg>
