<?xml version="1.0" encoding="UTF-8"?>
<svg xmlns="http://www.w3.org/2000/svg" width="800" height="600">
  <title>X=sin(t/2+pi/16);Y=sin(t):0,4:</title>
  <rect width="800" height="600" fill="#ffffff"/>
  <g stroke="#d0d0d0" stroke-width="1">
    <line x1="-75.13" y1="540.00" x2="-75.13" y2="60.00"/>
    <line x1="720.02" y1="540.00" x2="720.02" y2="60.00"/>
    <line x1="80.00" y1="606.45" x2="720.00" y2="606.45"/>
    <line x1="80.00" y1="333.22" x2="720.00" y2="333.22"/>
    <line x1="80.00" y1="60.00" x2="720.00" y2="60.00"/>
  </g>
  <g stroke="#e8e8e8" stroke-width="0.5">
    <line x1="83.90" y1="540.00" x2="83.90" y2="60.00"/>
    <line x1="242.93" y1="540.00" x2="242.93" y2="60.00"/>
    <line x1="401.96" y1="540.00" x2="401.96" y2="60.00"/>
    <line x1="560.99" y1="540.00" x2="560.99" y2="60.00"/>
    <line x1="80.00" y1="497.16" x2="720.00" y2="497.16"/>
    <line x1="80.00" y1="442.51" x2="720.00" y2="442.51"/>
    <line x1="80.00" y1="387.87" x2="720.00" y2="387.87"/>
    <line x1="80.00" y1="278.58" x2="720.00" y2="278.58"/>
    <line x1="80.00" y1="223.93" x2="720.00" y2="223.93"/>
    <line x1="80.00" y1="169.29" x2="720.00" y2="169.29"/>
    <line x1="80.00" y1="114.64" x2="720.00" y2="114.64"/>
  </g>
  <g stroke="#808080" stroke-width="2">
    <line x1="-75.13" y1="540.00" x2="-75.13" y2="60.00"/>
  </g>
  <polyline fill="none" stroke="#0066cc" stroke-width="2" points="80.00,333.22 99.69,319.40 119.27,305.60 138.73,291.88 158.04,278.26 177.21,264.79 196.22,251.49 215.05,238.40 233.70,225.55 252.15,212.98 270.39,200.72 288.41,188.79 306.19,177.24 323.73,166.09 341.02,155.36 358.03,145.09 374.78,135.31 391.23,126.03 407.38,117.28 423.22,109.08 438.75,101.46 453.94,94.44 468.80,88.02 483.31,82.24 497.46,77.09 511.24,72.61 524.65,68.79 537.67,65.65 550.30,63.19 562.53,61.43 574.35,60.37 585.76,60.00 596.74,60.33 607.29,61.37 617.40,63.10 627.07,65.52 636.29,68.63 645.05,72.42 653.35,76.87 661.19,81.98 668.55,87.74 675.43,94.13 681.84,101.12 687.76,108.72 693.19,116.89 698.13,125.61 702.57,134.86 706.52,144.63 709.96,154.88 712.90,165.58 715.34,176.71 717.26,188.25 718.68,200.16 719.60,212.40 720.00,224.96 719.89,237.80 719.28,250.88 718.15,264.17 716.52,277.64 714.38,291.25 711.73,304.96 708.58,318.75 704.92,332.58 700.77,346.41 696.12,360.21 690.98,373.93 685.34,387.55 679.22,401.04 672.61,414.34 665.52,427.44 657.96,440.30 649.93,452.89 641.44,465.17 632.48,477.11 623.07,488.68 613.22,499.85 602.92,510.60 592.19,520.89 581.03,530.70 569.45,540.00 "/>
</svg>
