<?xml version="1.0" encoding="UTF-8"?>
<svg xmlns="http://www.w3.org/2000/svg" width="800" height="600">
  <title>R=t:0,3:</title>
  <rect width="800" height="600" fill="#ffffff"/>
  <g stroke="#d0d0d0" stroke-width="1">
    <line x1="56.68" y1="540.00" x2="56.68" y2="60.00"/>
    <line x1="97.22" y1="540.00" x2="97.22" y2="60.00"/>
    <line x1="137.76" y1="540.00" x2="137.76" y2="60.00"/>
    <line x1="178.31" y1="540.00" x2="178.31" y2="60.00"/>
    <line x1="218.85" y1="540.00" x2="218.85" y2="60.00"/>
    <line x1="259.39" y1="540.00" x2="259.39" y2="60.00"/>
    <line x1="299.94" y1="540.00" x2="299.94" y2="60.00"/>
    <line x1="340.48" y1="540.00" x2="340.48" y2="60.00"/>
    <line x1="381.02" y1="540.00" x2="381.02" y2="60.00"/>
    <line x1="421.57" y1="540.00" x2="421.57" y2="60.00"/>
    <line x1="462.11" y1="540.00" x2="462.11" y2="60.00"/>
    <line x1="502.65" y1="540.00" x2="502.65" y2="60.00"/>
    <line x1="543.20" y1="540.00" x2="543.20" y2="60.00"/>
    <line x1="583.74" y1="540.00" x2="583.74" y2="60.00"/>
    <line x1="624.28" y1="540.00" x2="624.28" y2="60.00"/>
    <line x1="664.82" y1="540.00" x2="664.82" y2="60.00"/>
    <line x1="705.37" y1="540.00" x2="705.37" y2="60.00"/>
    <line x1="745.91" y1="540.00" x2="745.91" y2="60.00"/>
    <line x1="80.00" y1="547.04" x2="720.00" y2="547.04"/>
    <line x1="80.00" y1="509.33" x2="720.00" y2="509.33"/>
    <line x1="80.00" y1="471.63" x2="720.00" y2="471.63"/>
    <line x1="80.00" y1="433.92" x2="720.00" y2="433.92"/>
    <line x1="80.00" y1="396.21" x2="720.00" y2="396.21"/>
    <line x1="80.00" y1="358.50" x2="720.00" y2="358.50"/>
    <line x1="80.00" y1="320.79" x2="720.00" y2="320.79"/>
    <line x1="80.00" y1="283.08" x2="720.00" y2="283.08"/>
    <line x1="80.00" y1="245.37" x2="720.00" y2="245.37"/>
    <line x1="80.00" y1="207.66" x2="720.00" y2="207.66"/>
    <line x1="80.00" y1="169.95" x2="720.00" y2="169.95"/>
    <line x1="80.00" y1="132.25" x2="720.00" y2="132.25"/>
    <line x1="80.00" y1="94.54" x2="720.00" y2="94.54"/>
    <line x1="80.00" y1="56.83" x2="720.00" y2="56.83"/>
  </g>
  <g stroke="#e8e8e8" stroke-width="0.5">
    <line x1="81.00" y1="540.00" x2="81.00" y2="60.00"/>
    <line x1="89.11" y1="540.00" x2="89.11" y2="60.00"/>
    <line x1="105.33" y1="540.00" x2="105.33" y2="60.00"/>
    <line x1="113.44" y1="540.00" x2="113.44" y2="60.00"/>
    <line x1="121.55" y1="540.00" x2="121.55" y2="60.00"/>
    <line x1="129.66" y1="540.00" x2="129.66" y2="60.00"/>
    <line x1="145.87" y1="540.00" x2="145.87" y2="60.00"/>
    <line x1="153.98" y1="540.00" x2="153.98" y2="60.00"/>
    <line x1="162.09" y1="540.00" x2="162.09" y2="60.00"/>
    <line x1="170.20" y1="540.00" x2="170.20" y2="60.00"/>
    <line x1="186.42" y1="540.00" x2="186.42" y2="60.00"/>
    <line x1="194.53" y1="540.00" x2="194.53" y2="60.00"/>
    <line x1="202.63" y1="540.00" x2="202.63" y2="60.00"/>
    <line x1="210.74" y1="540.00" x2="210.74" y2="60.00"/>
    <line x1="226.96" y1="540.00" x2="226.96" y2="60.00"/>
    <line x1="235.07" y1="540.00" x2="235.07" y2="60.00"/>
    <line x1="243.18" y1="540.00" x2="243.18" y2="60.00"/>
    <line x1="251.29" y1="540.00" x2="251.29" y2="60.00"/>
    <line x1="267.50" y1="540.00" x2="267.50" y2="60.00"/>
    <line x1="275.61" y1="540.00" x2="275.61" y2="60.00"/>
    <line x1="283.72" y1="540.00" x2="283.72" y2="60.00"/>
    <line x1="291.83" y1="540.00" x2="291.83" y2="60.00"/>
    <line x1="308.05" y1="540.00" x2="308.05" y2="60.00"/>
    <line x1="316.15" y1="540.00" x2="316.15" y2="60.00"/>
    <line x1="324.26" y1="540.00" x2="324.26" y2="60.00"/>
    <line x1="332.37" y1="540.00" x2="332.37" y2="60.00"/>
    <line x1="348.59" y1="540.00" x2="348.59" y2="60.00"/>
    <line x1="356.70" y1="540.00" x2="356.70" y2="60.00"/>
    <line x1="364.81" y1="540.00" x2="364.81" y2="60.00"/>
    <line x1="372.91" y1="540.00" x2="372.91" y2="60.00"/>
    <line x1="389.13" y1="540.00" x2="389.13" y2="60.00"/>
    <line x1="397.24" y1="540.00" x2="397.24" y2="60.00"/>
    <line x1="405.35" y1="540.00" x2="405.35" y2="60.00"/>
    <line x1="413.46" y1="540.00" x2="413.46" y2="60.00"/>
    <line x1="429.67" y1="540.00" x2="429.67" y2="60.00"/>
    <line x1="437.78" y1="540.00" x2="437.78" y2="60.00"/>
    <line x1="445.89" y1="540.00" x2="445.89" y2="60.00"/>
    <line x1="454.00" y1="540.00" x2="454.00" y2="60.00"/>
    <line x1="470.22" y1="540.00" x2="470.22" y2="60.00"/>
    <line x1="478.33" y1="540.00" x2="478.33" y2="60.00"/>
    <line x1="486.43" y1="540.00" x2="486.43" y2="60.00"/>
    <line x1="494.54" y1="540.00" x2="494.54" y2="60.00"/>
    <line x1="510.76" y1="540.00" x2="510.76" y2="60.00"/>
    <line x1="518.87" y1="540.00" x2="518.87" y2="60.00"/>
    <line x1="526.98" y1="540.00" x2="526.98" y2="60.00"/>
    <line x1="535.09" y1="540.00" x2="535.09" y2="60.00"/>
    <line x1="551.30" y1="540.00" x2="551.30" y2="60.00"/>
    <line x1="559.41" y1="540.00" x2="559.41" y2="60.00"/>
    <line x1="567.52" y1="540.00" x2="567.52" y2="60.00"/>
    <line x1="575.63" y1="540.00" x2="575.63" y2="60.00"/>
    <line x1="591.85" y1="540.00" x2="591.85" y2="60.00"/>
    <line x1="599.96" y1="540.00" x2="599.96" y2="60.00"/>
    <line x1="608.06" y1="540.00" x2="608.06" y2="60.00"/>
    <line x1="616.17" y1="540.00" x2="616.17" y2="60.00"/>
    <line x1="632.39" y1="540.00" x2="632.39" y2="60.00"/>
    <line x1="640.50" y1="540.00" x2="640.50" y2="60.00"/>
    <line x1="648.61" y1="540.00" x2="648.61" y2="60.00"/>
    <line x1="656.72" y1="540.00" x2="656.72" y2="60.00"/>
    <line x1="672.93" y1="540.00" x2="672.93" y2="60.00"/>
    <line x1="681.04" y1="540.00" x2="681.04" y2="60.00"/>
    <line x1="689.15" y1="540.00" x2="689.15" y2="60.00"/>
    <line x1="697.26" y1="540.00" x2="697.26" y2="60.00"/>
    <line x1="713.48" y1="540.00" x2="713.48" y2="60.00"/>
    <line x1="80.00" y1="539.50" x2="720.00" y2="539.50"/>
    <line x1="80.00" y1="531.96" x2="720.00" y2="531.96"/>
    <line x1="80.00" y1="524.42" x2="720.00" y2="524.42"/>
    <line x1="80.00" y1="516.88" x2="720.00" y2="516.88"/>
    <line x1="80.00" y1="501.79" x2="720.00" y2="501.79"/>
    <line x1="80.00" y1="494.25" x2="720.00" y2="494.25"/>
    <line x1="80.00" y1="486.71" x2="720.00" y2="486.71"/>
    <line x1="80.00" y1="479.17" x2="720.00" y2="479.17"/>
    <line x1="80.00" y1="464.08" x2="720.00" y2="464.08"/>
    <line x1="80.00" y1="456.54" x2="720.00" y2="456.54"/>
    <line x1="80.00" y1="449.00" x2="720.00" y2="449.00"/>
    <line x1="80.00" y1="441.46" x2="720.00" y2="441.46"/>
    <line x1="80.00" y1="426.37" x2="720.00" y2="426.37"/>
    <line x1="80.00" y1="418.83" x2="720.00" y2="418.83"/>
    <line x1="80.00" y1="411.29" x2="720.00" y2="411.29"/>
    <line x1="80.00" y1="403.75" x2="720.00" y2="403.75"/>
    <line x1="80.00" y1="388.67" x2="720.00" y2="388.67"/>
    <line x1="80.00" y1="381.12" x2="720.00" y2="381.12"/>
    <line x1="80.00" y1="373.58" x2="720.00" y2="373.58"/>
    <line x1="80.00" y1="366.04" x2="720.00" y2="366.04"/>
    <line x1="80.00" y1="350.96" x2="720.00" y2="350.96"/>
    <line x1="80.00" y1="343.41" x2="720.00" y2="343.41"/>
    <line x1="80.00" y1="335.87" x2="720.00" y2="335.87"/>
    <line x1="80.00" y1="328.33" x2="720.00" y2="328.33"/>
    <line x1="80.00" y1="313.25" x2="720.00" y2="313.25"/>
    <line x1="80.00" y1="305.71" x2="720.00" y2="305.71"/>
    <line x1="80.00" y1="298.16" x2="720.00" y2="298.16"/>
    <line x1="80.00" y1="290.62" x2="720.00" y2="290.62"/>
    <line x1="80.00" y1="275.54" x2="720.00" y2="275.54"/>
    <line x1="80.00" y1="268.00" x2="720.00" y2="268.00"/>
    <line x1="80.00" y1="260.46" x2="720.00" y2="260.46"/>
    <line x1="80.00" y1="252.91" x2="720.00" y2="252.91"/>
    <line x1="80.00" y1="237.83" x2="720.00" y2="237.83"/>
    <line x1="80.00" y1="230.29" x2="720.00" y2="230.29"/>
    <line x1="80.00" y1="222.75" x2="720.00" y2="222.75"/>
    <line x1="80.00" y1="215.20" x2="720.00" y2="215.20"/>
    <line x1="80.00" y1="200.12" x2="720.00" y2="200.12"/>
    <line x1="80.00" y1="192.58" x2="720.00" y2="192.58"/>
    <line x1="80.00" y1="185.04" x2="720.00" y2="185.04"/>
    <line x1="80.00" y1="177.50" x2="720.00" y2="177.50"/>
    <line x1="80.00" y1="162.41" x2="720.00" y2="162.41"/>
    <line x1="80.00" y1="154.87" x2="720.00" y2="154.87"/>
    <line x1="80.00" y1="147.33" x2="720.00" y2="147.33"/>
    <line x1="80.00" y1="139.79" x2="720.00" y2="139.79"/>
    <line x1="80.00" y1="124.70" x2="720.00" y2="124.70"/>
    <line x1="80.00" y1="117.16" x2="720.00" y2="117.16"/>
    <line x1="80.00" y1="109.62" x2="720.00" y2="109.62"/>
    <line x1="80.00" y1="102.08" x2="720.00" y2="102.08"/>
    <line x1="80.00" y1="86.99" x2="720.00" y2="86.99"/>
    <line x1="80.00" y1="79.45" x2="720.00" y2="79.45"/>
    <line x1="80.00" y1="71.91" x2="720.00" y2="71.91"/>
    <line x1="80.00" y1="64.37" x2="720.00" y2="64.37"/>
  </g>
  <g stroke="#808080" stroke-width="2">
    <line x1="462.11" y1="540.00" x2="462.11" y2="60.00"/>
    <line x1="80.00" y1="358.50" x2="720.00" y2="358.50"/>
  </g>
  <polyline fill="none" stroke="#0066cc" stroke-width="2" points="462.11,358.50 466.91,357.96 471.51,356.37 475.70,353.77 479.29,350.23 482.12,345.86 484.01,340.79 484.83,335.15 484.48,329.13 482.87,322.91 479.95,316.68 475.71,310.66 470.16,305.04 463.36,300.03 455.39,295.83 446.37,292.63 436.45,290.59 425.80,289.88 414.64,290.61 403.19,292.90 391.70,296.80 380.41,302.36 369.60,309.58 359.54,318.43 350.49,328.83 342.72,340.68 336.45,353.85 331.93,368.15 329.35,383.38 328.88,399.31 330.67,415.67 334.81,432.19 341.37,448.57 350.37,464.51 361.78,479.69 375.53,493.80 391.50,506.54 409.52,517.60 429.39,526.72 450.86,533.64 473.64,538.13 497.41,540.00 521.80,539.10 546.45,535.32 570.95,528.60 594.90,518.90 617.86,506.28 639.44,490.80 659.22,472.60 676.80,451.88 691.81,428.86 703.93,403.82 712.83,377.08 718.26,349.02 720.00,320.02 717.89,290.51 711.83,260.93 701.78,231.76 687.75,203.46 669.83,176.50 648.16,151.34 622.97,128.45 594.52,108.24 563.16,91.12 529.28,77.44 493.31,67.53 455.76,61.64 417.15,60.00 378.04,62.75 339.00,69.98 300.65,81.70 263.58,97.87 228.40,118.36 195.68,142.99 166.00,171.49 139.87,203.53 117.80,238.73 100.22,276.63 87.52,316.74 80.00,358.50 "/>
</svg>
