<?xml version="1.0" encoding="UTF-8"?>
<svg xmlns="http://www.w3.org/2000/svg" width="800" height="600">
  <title>R**2=4*t:0,3:</title>
  <rect width="800" height="600" fill="#ffffff"/>
  <g stroke="#d0d0d0" stroke-width="1">
    <line x1="30.70" y1="540.00" x2="30.70" y2="60.00"/>
    <line x1="88.02" y1="540.00" x2="88.02" y2="60.00"/>
    <line x1="145.34" y1="540.00" x2="145.34" y2="60.00"/>
    <line x1="202.67" y1="540.00" x2="202.67" y2="60.00"/>
    <line x1="259.99" y1="540.00" x2="259.99" y2="60.00"/>
    <line x1="317.31" y1="540.00" x2="317.31" y2="60.00"/>
    <line x1="374.63" y1="540.00" x2="374.63" y2="60.00"/>
    <line x1="431.95" y1="540.00" x2="431.95" y2="60.00"/>
    <line x1="489.27" y1="540.00" x2="489.27" y2="60.00"/>
    <line x1="546.60" y1="540.00" x2="546.60" y2="60.00"/>
    <line x1="603.92" y1="540.00" x2="603.92" y2="60.00"/>
    <line x1="661.24" y1="540.00" x2="661.24" y2="60.00"/>
    <line x1="718.56" y1="540.00" x2="718.56" y2="60.00"/>
    <line x1="775.88" y1="540.00" x2="775.88" y2="60.00"/>
    <line x1="80.00" y1="570.75" x2="720.00" y2="570.75"/>
    <line x1="80.00" y1="522.61" x2="720.00" y2="522.61"/>
    <line x1="80.00" y1="474.48" x2="720.00" y2="474.48"/>
    <line x1="80.00" y1="426.35" x2="720.00" y2="426.35"/>
    <line x1="80.00" y1="378.21" x2="720.00" y2="378.21"/>
    <line x1="80.00" y1="330.08" x2="720.00" y2="330.08"/>
    <line x1="80.00" y1="281.94" x2="720.00" y2="281.94"/>
    <line x1="80.00" y1="233.81" x2="720.00" y2="233.81"/>
    <line x1="80.00" y1="185.68" x2="720.00" y2="185.68"/>
    <line x1="80.00" y1="137.54" x2="720.00" y2="137.54"/>
    <line x1="80.00" y1="89.41" x2="720.00" y2="89.41"/>
    <line x1="80.00" y1="41.27" x2="720.00" y2="41.27"/>
  </g>
  <g stroke="#e8e8e8" stroke-width="0.5">
    <line x1="99.49" y1="540.00" x2="99.49" y2="60.00"/>
    <line x1="110.95" y1="540.00" x2="110.95" y2="60.00"/>
    <line x1="122.42" y1="540.00" x2="122.42" y2="60.00"/>
    <line x1="133.88" y1="540.00" x2="133.88" y2="60.00"/>
    <line x1="156.81" y1="540.00" x2="156.81" y2="60.00"/>
    <line x1="168.27" y1="540.00" x2="168.27" y2="60.00"/>
    <line x1="179.74" y1="540.00" x2="179.74" y2="60.00"/>
    <line x1="191.20" y1="540.00" x2="191.20" y2="60.00"/>
    <line x1="214.13" y1="540.00" x2="214.13" y2="60.00"/>
    <line x1="225.59" y1="540.00" x2="225.59" y2="60.00"/>
    <line x1="237.06" y1="540.00" x2="237.06" y2="60.00"/>
    <line x1="248.52" y1="540.00" x2="248.52" y2="60.00"/>
    <line x1="271.45" y1="540.00" x2="271.45" y2="60.00"/>
    <line x1="282.92" y1="540.00" x2="282.92" y2="60.00"/>
    <line x1="294.38" y1="540.00" x2="294.38" y2="60.00"/>
    <line x1="305.84" y1="540.00" x2="305.84" y2="60.00"/>
    <line x1="328.77" y1="540.00" x2="328.77" y2="60.00"/>
    <line x1="340.24" y1="540.00" x2="340.24" y2="60.00"/>
    <line x1="351.70" y1="540.00" x2="351.70" y2="60.00"/>
    <line x1="363.17" y1="540.00" x2="363.17" y2="60.00"/>
    <line x1="386.09" y1="540.00" x2="386.09" y2="60.00"/>
    <line x1="397.56" y1="540.00" x2="397.56" y2="60.00"/>
    <line x1="409.02" y1="540.00" x2="409.02" y2="60.00"/>
    <line x1="420.49" y1="540.00" x2="420.49" y2="60.00"/>
    <line x1="443.42" y1="540.00" x2="443.42" y2="60.00"/>
    <line x1="454.88" y1="540.00" x2="454.88" y2="60.00"/>
    <line x1="466.35" y1="540.00" x2="466.35" y2="60.00"/>
    <line x1="477.81" y1="540.00" x2="477.81" y2="60.00"/>
    <line x1="500.74" y1="540.00" x2="500.74" y2="60.00"/>
    <line x1="512.20" y1="540.00" x2="512.20" y2="60.00"/>
    <line x1="523.67" y1="540.00" x2="523.67" y2="60.00"/>
    <line x1="535.13" y1="540.00" x2="535.13" y2="60.00"/>
    <line x1="558.06" y1="540.00" x2="558.06" y2="60.00"/>
    <line x1="569.52" y1="540.00" x2="569.52" y2="60.00"/>
    <line x1="580.99" y1="540.00" x2="580.99" y2="60.00"/>
    <line x1="592.45" y1="540.00" x2="592.45" y2="60.00"/>
    <line x1="615.38" y1="540.00" x2="615.38" y2="60.00"/>
    <line x1="626.85" y1="540.00" x2="626.85" y2="60.00"/>
    <line x1="638.31" y1="540.00" x2="638.31" y2="60.00"/>
    <line x1="649.77" y1="540.00" x2="649.77" y2="60.00"/>
    <line x1="672.70" y1="540.00" x2="672.70" y2="60.00"/>
    <line x1="684.17" y1="540.00" x2="684.17" y2="60.00"/>
    <line x1="695.63" y1="540.00" x2="695.63" y2="60.00"/>
    <line x1="707.10" y1="540.00" x2="707.10" y2="60.00"/>
    <line x1="80.00" y1="532.24" x2="720.00" y2="532.24"/>
    <line x1="80.00" y1="512.99" x2="720.00" y2="512.99"/>
    <line x1="80.00" y1="503.36" x2="720.00" y2="503.36"/>
    <line x1="80.00" y1="493.73" x2="720.00" y2="493.73"/>
    <line x1="80.00" y1="484.11" x2="720.00" y2="484.11"/>
    <line x1="80.00" y1="464.85" x2="720.00" y2="464.85"/>
    <line x1="80.00" y1="455.23" x2="720.00" y2="455.23"/>
    <line x1="80.00" y1="445.60" x2="720.00" y2="445.60"/>
    <line x1="80.00" y1="435.97" x2="720.00" y2="435.97"/>
    <line x1="80.00" y1="416.72" x2="720.00" y2="416.72"/>
    <line x1="80.00" y1="407.09" x2="720.00" y2="407.09"/>
    <line x1="80.00" y1="397.46" x2="720.00" y2="397.46"/>
    <line x1="80.00" y1="387.84" x2="720.00" y2="387.84"/>
    <line x1="80.00" y1="368.58" x2="720.00" y2="368.58"/>
    <line x1="80.00" y1="358.96" x2="720.00" y2="358.96"/>
    <line x1="80.00" y1="349.33" x2="720.00" y2="349.33"/>
    <line x1="80.00" y1="339.70" x2="720.00" y2="339.70"/>
    <line x1="80.00" y1="320.45" x2="720.00" y2="320.45"/>
    <line x1="80.00" y1="310.82" x2="720.00" y2="310.82"/>
    <line x1="80.00" y1="301.20" x2="720.00" y2="301.20"/>
    <line x1="80.00" y1="291.57" x2="720.00" y2="291.57"/>
    <line x1="80.00" y1="272.32" x2="720.00" y2="272.32"/>
    <line x1="80.00" y1="262.69" x2="720.00" y2="262.69"/>
    <line x1="80.00" y1="253.06" x2="720.00" y2="253.06"/>
    <line x1="80.00" y1="243.44" x2="720.00" y2="243.44"/>
    <line x1="80.00" y1="224.18" x2="720.00" y2="224.18"/>
    <line x1="80.00" y1="214.56" x2="720.00" y2="214.56"/>
    <line x1="80.00" y1="204.93" x2="720.00" y2="204.93"/>
    <line x1="80.00" y1="195.30" x2="720.00" y2="195.30"/>
    <line x1="80.00" y1="176.05" x2="720.00" y2="176.05"/>
    <line x1="80.00" y1="166.42" x2="720.00" y2="166.42"/>
    <line x1="80.00" y1="156.80" x2="720.00" y2="156.80"/>
    <line x1="80.00" y1="147.17" x2="720.00" y2="147.17"/>
    <line x1="80.00" y1="127.92" x2="720.00" y2="127.92"/>
    <line x1="80.00" y1="118.29" x2="720.00" y2="118.29"/>
    <line x1="80.00" y1="108.66" x2="720.00" y2="108.66"/>
    <line x1="80.00" y1="99.04" x2="720.00" y2="99.04"/>
    <line x1="80.00" y1="79.78" x2="720.00" y2="79.78"/>
    <line x1="80.00" y1="70.15" x2="720.00" y2="70.15"/>
    <line x1="80.00" y1="60.53" x2="720.00" y2="60.53"/>
  </g>
  <g stroke="#808080" stroke-width="2">
    <line x1="431.95" y1="540.00" x2="431.95" y2="60.00"/>
    <line x1="80.00" y1="330.08" x2="720.00" y2="330.08"/>
  </g>
  <polyline fill="none" stroke="#0066cc" stroke-width="2" points="431.95,330.08 471.27,326.12 486.37,318.96 496.19,309.90 502.30,299.53 505.20,288.31 505.14,276.63 502.26,264.86 496.70,253.34 488.60,242.40 478.14,232.34 465.52,223.46 450.98,216.01 434.79,210.21 417.25,206.28 398.68,204.37 379.43,204.60 359.86,207.07 340.36,211.82 321.30,218.84 303.05,228.11 286.00,239.54 270.49,252.99 256.87,268.32 245.43,285.32 236.46,303.74 230.20,323.34 226.85,343.80 226.55,364.83 229.41,386.09 235.49,407.23 244.78,427.91 257.22,447.77 272.71,466.48 291.09,483.70 312.14,499.12 335.60,512.44 361.17,523.40 388.50,531.78 417.21,537.36 446.88,540.00 477.08,539.59 507.36,536.05 537.25,529.38 566.29,519.61 594.01,506.81 619.96,491.12 643.71,472.71 664.86,451.81 683.04,428.68 697.90,403.62 709.16,376.98 716.59,349.13 720.00,320.45 719.26,291.37 714.31,262.32 705.15,233.71 691.84,206.00 674.51,179.61 653.34,154.95 628.59,132.41 600.56,112.37 569.62,95.16 536.18,81.09 500.69,70.41 463.64,63.32 425.56,60.00 386.99,60.54 348.49,64.99 310.62,73.35 273.97,85.55 239.07,101.46 206.46,120.91 176.67,143.65 150.15,169.40 127.34,197.82 108.62,228.53 94.33,261.12 84.72,295.13 80.00,330.08 "/>
</svg>
