<?xml version="1.0" encoding="UTF-8"?>
<svg xmlns="http://www.w3.org/2000/svg" width="800" height="600">
  <title>R=2*pi/t:1/10,3:</title>
  <rect width="800" height="600" fill="#ffffff"/>
  <g stroke="#d0d0d0" stroke-width="1">
    <line x1="53.09" y1="540.00" x2="53.09" y2="60.00"/>
    <line x1="83.37" y1="540.00" x2="83.37" y2="60.00"/>
    <line x1="113.66" y1="540.00" x2="113.66" y2="60.00"/>
    <line x1="143.94" y1="540.00" x2="143.94" y2="60.00"/>
    <line x1="174.23" y1="540.00" x2="174.23" y2="60.00"/>
    <line x1="204.51" y1="540.00" x2="204.51" y2="60.00"/>
    <line x1="234.80" y1="540.00" x2="234.80" y2="60.00"/>
    <line x1="265.08" y1="540.00" x2="265.08" y2="60.00"/>
    <line x1="295.37" y1="540.00" x2="295.37" y2="60.00"/>
    <line x1="325.65" y1="540.00" x2="325.65" y2="60.00"/>
    <line x1="355.94" y1="540.00" x2="355.94" y2="60.00"/>
    <line x1="386.22" y1="540.00" x2="386.22" y2="60.00"/>
    <line x1="416.51" y1="540.00" x2="416.51" y2="60.00"/>
    <line x1="446.79" y1="540.00" x2="446.79" y2="60.00"/>
    <line x1="477.08" y1="540.00" x2="477.08" y2="60.00"/>
    <line x1="507.36" y1="540.00" x2="507.36" y2="60.00"/>
    <line x1="537.65" y1="540.00" x2="537.65" y2="60.00"/>
    <line x1="567.93" y1="540.00" x2="567.93" y2="60.00"/>
    <line x1="598.22" y1="540.00" x2="598.22" y2="60.00"/>
    <line x1="628.50" y1="540.00" x2="628.50" y2="60.00"/>
    <line x1="658.79" y1="540.00" x2="658.79" y2="60.00"/>
    <line x1="689.08" y1="540.00" x2="689.08" y2="60.00"/>
    <line x1="719.36" y1="540.00" x2="719.36" y2="60.00"/>
    <line x1="749.65" y1="540.00" x2="749.65" y2="60.00"/>
    <line x1="80.00" y1="580.44" x2="720.00" y2="580.44"/>
    <line x1="80.00" y1="516.82" x2="720.00" y2="516.82"/>
    <line x1="80.00" y1="453.20" x2="720.00" y2="453.20"/>
    <line x1="80.00" y1="389.58" x2="720.00" y2="389.58"/>
    <line x1="80.00" y1="325.96" x2="720.00" y2="325.96"/>
    <line x1="80.00" y1="262.33" x2="720.00" y2="262.33"/>
    <line x1="80.00" y1="198.71" x2="720.00" y2="198.71"/>
    <line x1="80.00" y1="135.09" x2="720.00" y2="135.09"/>
    <line x1="80.00" y1="71.47" x2="720.00" y2="71.47"/>
    <line x1="80.00" y1="7.85" x2="720.00" y2="7.85"/>
  </g>
  <g stroke="#e8e8e8" stroke-width="0.5">
    <line x1="89.43" y1="540.00" x2="89.43" y2="60.00"/>
    <line x1="95.49" y1="540.00" x2="95.49" y2="60.00"/>
    <line x1="101.55" y1="540.00" x2="101.55" y2="60.00"/>
    <line x1="107.60" y1="540.00" x2="107.60" y2="60.00"/>
    <line x1="119.72" y1="540.00" x2="119.72" y2="60.00"/>
    <line x1="125.77" y1="540.00" x2="125.77" y2="60.00"/>
    <line x1="131.83" y1="540.00" x2="131.83" y2="60.00"/>
    <line x1="137.89" y1="540.00" x2="137.89" y2="60.00"/>
    <line x1="150.00" y1="540.00" x2="150.00" y2="60.00"/>
    <line x1="156.06" y1="540.00" x2="156.06" y2="60.00"/>
    <line x1="162.12" y1="540.00" x2="162.12" y2="60.00"/>
    <line x1="168.17" y1="540.00" x2="168.17" y2="60.00"/>
    <line x1="180.29" y1="540.00" x2="180.29" y2="60.00"/>
    <line x1="186.34" y1="540.00" x2="186.34" y2="60.00"/>
    <line x1="192.40" y1="540.00" x2="192.40" y2="60.00"/>
    <line x1="198.46" y1="540.00" x2="198.46" y2="60.00"/>
    <line x1="210.57" y1="540.00" x2="210.57" y2="60.00"/>
    <line x1="216.63" y1="540.00" x2="216.63" y2="60.00"/>
    <line x1="222.69" y1="540.00" x2="222.69" y2="60.00"/>
    <line x1="228.74" y1="540.00" x2="228.74" y2="60.00"/>
    <line x1="240.86" y1="540.00" x2="240.86" y2="60.00"/>
    <line x1="246.91" y1="540.00" x2="246.91" y2="60.00"/>
    <line x1="252.97" y1="540.00" x2="252.97" y2="60.00"/>
    <line x1="259.03" y1="540.00" x2="259.03" y2="60.00"/>
    <line x1="271.14" y1="540.00" x2="271.14" y2="60.00"/>
    <line x1="277.20" y1="540.00" x2="277.20" y2="60.00"/>
    <line x1="283.26" y1="540.00" x2="283.26" y2="60.00"/>
    <line x1="289.31" y1="540.00" x2="289.31" y2="60.00"/>
    <line x1="301.43" y1="540.00" x2="301.43" y2="60.00"/>
    <line x1="307.48" y1="540.00" x2="307.48" y2="60.00"/>
    <line x1="313.54" y1="540.00" x2="313.54" y2="60.00"/>
    <line x1="319.60" y1="540.00" x2="319.60" y2="60.00"/>
    <line x1="331.71" y1="540.00" x2="331.71" y2="60.00"/>
    <line x1="337.77" y1="540.00" x2="337.77" y2="60.00"/>
    <line x1="343.83" y1="540.00" x2="343.83" y2="60.00"/>
    <line x1="349.88" y1="540.00" x2="349.88" y2="60.00"/>
    <line x1="362.00" y1="540.00" x2="362.00" y2="60.00"/>
    <line x1="368.05" y1="540.00" x2="368.05" y2="60.00"/>
    <line x1="374.11" y1="540.00" x2="374.11" y2="60.00"/>
    <line x1="380.17" y1="540.00" x2="380.17" y2="60.00"/>
    <line x1="392.28" y1="540.00" x2="392.28" y2="60.00"/>
    <line x1="398.34" y1="540.00" x2="398.34" y2="60.00"/>
    <line x1="404.40" y1="540.00" x2="404.40" y2="60.00"/>
    <line x1="410.45" y1="540.00" x2="410.45" y2="60.00"/>
    <line x1="422.57" y1="540.00" x2="422.57" y2="60.00"/>
    <line x1="428.62" y1="540.00" x2="428.62" y2="60.00"/>
    <line x1="434.68" y1="540.00" x2="434.68" y2="60.00"/>
    <line x1="440.74" y1="540.00" x2="440.74" y2="60.00"/>
    <line x1="452.85" y1="540.00" x2="452.85" y2="60.00"/>
    <line x1="458.91" y1="540.00" x2="458.91" y2="60.00"/>
    <line x1="464.97" y1="540.00" x2="464.97" y2="60.00"/>
    <line x1="471.02" y1="540.00" x2="471.02" y2="60.00"/>
    <line x1="483.14" y1="540.00" x2="483.14" y2="60.00"/>
    <line x1="489.19" y1="540.00" x2="489.19" y2="60.00"/>
    <line x1="495.25" y1="540.00" x2="495.25" y2="60.00"/>
    <line x1="501.31" y1="540.00" x2="501.31" y2="60.00"/>
    <line x1="513.42" y1="540.00" x2="513.42" y2="60.00"/>
    <line x1="519.48" y1="540.00" x2="519.48" y2="60.00"/>
    <line x1="525.54" y1="540.00" x2="525.54" y2="60.00"/>
    <line x1="531.59" y1="540.00" x2="531.59" y2="60.00"/>
    <line x1="543.71" y1="540.00" x2="543.71" y2="60.00"/>
    <line x1="549.76" y1="540.00" x2="549.76" y2="60.00"/>
    <line x1="555.82" y1="540.00" x2="555.82" y2="60.00"/>
    <line x1="561.88" y1="540.00" x2="561.88" y2="60.00"/>
    <line x1="573.99" y1="540.00" x2="573.99" y2="60.00"/>
    <line x1="580.05" y1="540.00" x2="580.05" y2="60.00"/>
    <line x1="586.11" y1="540.00" x2="586.11" y2="60.00"/>
    <line x1="592.16" y1="540.00" x2="592.16" y2="60.00"/>
    <line x1="604.28" y1="540.00" x2="604.28" y2="60.00"/>
    <line x1="610.33" y1="540.00" x2="610.33" y2="60.00"/>
    <line x1="616.39" y1="540.00" x2="616.39" y2="60.00"/>
    <line x1="622.45" y1="540.00" x2="622.45" y2="60.00"/>
    <line x1="634.56" y1="540.00" x2="634.56" y2="60.00"/>
    <line x1="640.62" y1="540.00" x2="640.62" y2="60.00"/>
    <line x1="646.68" y1="540.00" x2="646.68" y2="60.00"/>
    <line x1="652.73" y1="540.00" x2="652.73" y2="60.00"/>
    <line x1="664.85" y1="540.00" x2="664.85" y2="60.00"/>
    <line x1="670.90" y1="540.00" x2="670.90" y2="60.00"/>
    <line x1="676.96" y1="540.00" x2="676.96" y2="60.00"/>
    <line x1="683.02" y1="540.00" x2="683.02" y2="60.00"/>
    <line x1="695.13" y1="540.00" x2="695.13" y2="60.00"/>
    <line x1="701.19" y1="540.00" x2="701.19" y2="60.00"/>
    <line x1="707.25" y1="540.00" x2="707.25" y2="60.00"/>
    <line x1="713.30" y1="540.00" x2="713.30" y2="60.00"/>
    <line x1="80.00" y1="529.54" x2="720.00" y2="529.54"/>
    <line x1="80.00" y1="504.09" x2="720.00" y2="504.09"/>
    <line x1="80.00" y1="491.37" x2="720.00" y2="491.37"/>
    <line x1="80.00" y1="478.64" x2="720.00" y2="478.64"/>
    <line x1="80.00" y1="465.92" x2="720.00" y2="465.92"/>
    <line x1="80.00" y1="440.47" x2="720.00" y2="440.47"/>
    <line x1="80.00" y1="427.75" x2="720.00" y2="427.75"/>
    <line x1="80.00" y1="415.02" x2="720.00" y2="415.02"/>
    <line x1="80.00" y1="402.30" x2="720.00" y2="402.30"/>
    <line x1="80.00" y1="376.85" x2="720.00" y2="376.85"/>
    <line x1="80.00" y1="364.13" x2="720.00" y2="364.13"/>
    <line x1="80.00" y1="351.40" x2="720.00" y2="351.40"/>
    <line x1="80.00" y1="338.68" x2="720.00" y2="338.68"/>
    <line x1="80.00" y1="313.23" x2="720.00" y2="313.23"/>
    <line x1="80.00" y1="300.51" x2="720.00" y2="300.51"/>
    <line x1="80.00" y1="287.78" x2="720.00" y2="287.78"/>
    <line x1="80.00" y1="275.06" x2="720.00" y2="275.06"/>
    <line x1="80.00" y1="249.61" x2="720.00" y2="249.61"/>
    <line x1="80.00" y1="236.89" x2="720.00" y2="236.89"/>
    <line x1="80.00" y1="224.16" x2="720.00" y2="224.16"/>
    <line x1="80.00" y1="211.44" x2="720.00" y2="211.44"/>
    <line x1="80.00" y1="185.99" x2="720.00" y2="185.99"/>
    <line x1="80.00" y1="173.27" x2="720.00" y2="173.27"/>
    <line x1="80.00" y1="160.54" x2="720.00" y2="160.54"/>
    <line x1="80.00" y1="147.82" x2="720.00" y2="147.82"/>
    <line x1="80.00" y1="122.37" x2="720.00" y2="122.37"/>
    <line x1="80.00" y1="109.65" x2="720.00" y2="109.65"/>
    <line x1="80.00" y1="96.92" x2="720.00" y2="96.92"/>
    <line x1="80.00" y1="84.20" x2="720.00" y2="84.20"/>
  </g>
  <g stroke="#808080" stroke-width="2">
    <line x1="143.94" y1="540.00" x2="143.94" y2="60.00"/>
    <line x1="80.00" y1="453.20" x2="720.00" y2="453.20"/>
  </g>
  <polyline fill="none" stroke="#0066cc" stroke-width="2" points="720.00,60.00 546.77,65.63 442.65,72.94 371.64,81.86 319.18,92.33 278.27,104.26 245.16,117.56 217.65,132.13 194.39,147.85 174.48,164.59 157.33,182.24 142.51,200.65 129.72,219.69 118.74,239.21 109.38,259.07 101.52,279.12 95.02,299.22 89.81,319.23 85.78,338.99 82.85,358.39 80.97,377.28 80.04,395.54 80.00,413.07 80.78,429.74 82.31,445.46 84.52,460.15 87.34,473.73 90.69,486.13 94.51,497.30 98.73,507.20 103.27,515.80 108.07,523.08 113.05,529.04 118.15,533.68 123.31,537.04 128.46,539.13 133.55,540.00 138.51,539.70 143.30,538.30 147.87,535.86 152.17,532.46 156.18,528.19 159.84,523.14 163.13,517.40 166.04,511.06 168.54,504.25 170.61,497.04 172.26,489.56 173.47,481.90 174.24,474.16 174.60,466.44 174.54,458.83 174.08,451.43 173.25,444.32 172.07,437.58 170.55,431.27 168.75,425.46 166.68,420.21 164.38,415.57 161.88,411.56 159.24,408.23 156.47,405.59 153.63,403.66 150.75,402.43 147.86,401.90 145.01,402.06 142.23,402.89 139.55,404.35 137.00,406.41 134.62,409.02 132.42,412.14 130.43,415.72 128.68,419.69 127.17,423.99 125.92,428.57 124.93,433.35 124.23,438.27 123.80,443.26 123.64,448.26 123.75,453.20 "/>
</svg>
