<?xml version="1.0" encoding="UTF-8"?>
<svg xmlns="http://www.w3.org/2000/svg" width="800" height="600">
  <title>R**2=pi/t:1/10,4:</title>
  <rect width="800" height="600" fill="#ffffff"/>
  <g stroke="#d0d0d0" stroke-width="1">
    <line x1="-77.10" y1="540.00" x2="-77.10" y2="60.00"/>
    <line x1="82.08" y1="540.00" x2="82.08" y2="60.00"/>
    <line x1="241.26" y1="540.00" x2="241.26" y2="60.00"/>
    <line x1="400.45" y1="540.00" x2="400.45" y2="60.00"/>
    <line x1="559.63" y1="540.00" x2="559.63" y2="60.00"/>
    <line x1="718.81" y1="540.00" x2="718.81" y2="60.00"/>
    <line x1="877.99" y1="540.00" x2="877.99" y2="60.00"/>
    <line x1="80.00" y1="577.14" x2="720.00" y2="577.14"/>
    <line x1="80.00" y1="370.71" x2="720.00" y2="370.71"/>
    <line x1="80.00" y1="164.29" x2="720.00" y2="164.29"/>
    <line x1="80.00" y1="-42.14" x2="720.00" y2="-42.14"/>
  </g>
  <g stroke="#e8e8e8" stroke-width="0.5">
    <line x1="113.92" y1="540.00" x2="113.92" y2="60.00"/>
    <line x1="145.76" y1="540.00" x2="145.76" y2="60.00"/>
    <line x1="177.59" y1="540.00" x2="177.59" y2="60.00"/>
    <line x1="209.43" y1="540.00" x2="209.43" y2="60.00"/>
    <line x1="273.10" y1="540.00" x2="273.10" y2="60.00"/>
    <line x1="304.94" y1="540.00" x2="304.94" y2="60.00"/>
    <line x1="336.77" y1="540.00" x2="336.77" y2="60.00"/>
    <line x1="368.61" y1="540.00" x2="368.61" y2="60.00"/>
    <line x1="432.28" y1="540.00" x2="432.28" y2="60.00"/>
    <line x1="464.12" y1="540.00" x2="464.12" y2="60.00"/>
    <line x1="495.95" y1="540.00" x2="495.95" y2="60.00"/>
    <line x1="527.79" y1="540.00" x2="527.79" y2="60.00"/>
    <line x1="591.46" y1="540.00" x2="591.46" y2="60.00"/>
    <line x1="623.30" y1="540.00" x2="623.30" y2="60.00"/>
    <line x1="655.13" y1="540.00" x2="655.13" y2="60.00"/>
    <line x1="686.97" y1="540.00" x2="686.97" y2="60.00"/>
    <line x1="80.00" y1="535.85" x2="720.00" y2="535.85"/>
    <line x1="80.00" y1="494.57" x2="720.00" y2="494.57"/>
    <line x1="80.00" y1="453.28" x2="720.00" y2="453.28"/>
    <line x1="80.00" y1="412.00" x2="720.00" y2="412.00"/>
    <line x1="80.00" y1="329.43" x2="720.00" y2="329.43"/>
    <line x1="80.00" y1="288.14" x2="720.00" y2="288.14"/>
    <line x1="80.00" y1="246.86" x2="720.00" y2="246.86"/>
    <line x1="80.00" y1="205.57" x2="720.00" y2="205.57"/>
    <line x1="80.00" y1="123.00" x2="720.00" y2="123.00"/>
    <line x1="80.00" y1="81.71" x2="720.00" y2="81.71"/>
  </g>
  <g stroke="#808080" stroke-width="2">
    <line x1="241.26" y1="540.00" x2="241.26" y2="60.00"/>
    <line x1="80.00" y1="370.71" x2="720.00" y2="370.71"/>
  </g>
  <polyline fill="none" stroke="#0066cc" stroke-width="2" points="720.00,168.99 608.62,129.17 530.97,100.03 468.58,79.42 414.69,66.29 366.36,60.00 322.28,60.04 281.84,65.97 244.86,77.33 211.33,93.62 181.34,114.32 155.04,138.85 132.55,166.59 114.00,196.91 99.47,229.12 88.98,262.55 82.52,296.50 80.00,330.30 81.27,363.28 86.13,394.83 94.32,424.35 105.52,451.33 119.37,475.31 135.48,495.89 153.39,512.77 172.68,525.72 192.85,534.59 213.44,539.34 233.99,540.00 254.03,536.68 273.14,529.59 290.91,519.01 306.99,505.26 321.07,488.76 332.87,469.95 342.20,449.32 348.91,427.40 352.91,404.71 354.18,381.80 352.76,359.19 348.75,337.39 342.30,316.90 333.61,298.15 322.93,281.53 310.56,267.38 296.82,255.98 282.06,247.53 266.63,242.17 250.92,239.95 235.29,240.88 220.10,244.86 205.70,251.75 192.42,261.33 180.53,273.32 170.31,287.41 161.94,303.23 155.60,320.37 151.40,338.41 149.41,356.91 149.63,375.44 152.02,393.55 156.49,410.83 162.91,426.89 171.09,441.36 180.81,453.94 191.82,464.34 203.84,472.37 216.58,477.86 229.72,480.72 242.96,480.93 255.96,478.51 268.44,473.56 280.10,466.23 290.68,456.73 299.94,445.30 307.68,432.25 313.75,417.90 318.01,402.61 320.39,386.75 320.86,370.71 "/>
</svg>
