<?xml version="1.0" encoding="UTF-8"?>
<svg xmlns="http://www.w3.org/2000/svg" width="800" height="600">
  <title>R=1/4+sin(t)</title>
  <rect width="800" height="600" fill="#ffffff"/>
  <g stroke="#d0d0d0" stroke-width="1">
    <line x1="-68.72" y1="540.00" x2="-68.72" y2="60.00"/>
    <line x1="399.81" y1="540.00" x2="399.81" y2="60.00"/>
    <line x1="868.34" y1="540.00" x2="868.34" y2="60.00"/>
    <line x1="80.00" y1="913.62" x2="720.00" y2="913.62"/>
    <line x1="80.00" y1="534.07" x2="720.00" y2="534.07"/>
    <line x1="80.00" y1="154.52" x2="720.00" y2="154.52"/>
    <line x1="80.00" y1="-225.03" x2="720.00" y2="-225.03"/>
  </g>
  <g stroke="#e8e8e8" stroke-width="0.5">
    <line x1="118.69" y1="540.00" x2="118.69" y2="60.00"/>
    <line x1="212.40" y1="540.00" x2="212.40" y2="60.00"/>
    <line x1="306.10" y1="540.00" x2="306.10" y2="60.00"/>
    <line x1="493.52" y1="540.00" x2="493.52" y2="60.00"/>
    <line x1="587.22" y1="540.00" x2="587.22" y2="60.00"/>
    <line x1="680.93" y1="540.00" x2="680.93" y2="60.00"/>
    <line x1="80.00" y1="458.16" x2="720.00" y2="458.16"/>
    <line x1="80.00" y1="382.25" x2="720.00" y2="382.25"/>
    <line x1="80.00" y1="306.34" x2="720.00" y2="306.34"/>
    <line x1="80.00" y1="230.43" x2="720.00" y2="230.43"/>
    <line x1="80.00" y1="78.61" x2="720.00" y2="78.61"/>
  </g>
  <g stroke="#808080" stroke-width="2">
    <line x1="399.81" y1="540.00" x2="399.81" y2="60.00"/>
    <line x1="80.00" y1="534.07" x2="720.00" y2="534.07"/>
  </g>
  <polyline fill="none" stroke="#0066cc" stroke-width="2" points="522.82,532.82 559.28,522.16 593.93,506.86 625.88,487.17 654.28,463.45 678.37,436.14 697.47,405.82 711.05,373.11 718.65,338.71 720.00,303.37 714.95,267.87 703.50,233.01 685.81,199.56 662.18,168.27 633.06,139.87 599.04,114.99 560.80,94.22 519.13,78.01 474.92,66.76 429.11,60.71 382.68,60.00 336.61,64.66 291.88,74.57 249.47,89.50 210.24,109.12 175.04,132.97 144.57,160.51 119.46,191.10 100.17,224.06 87.06,258.63 80.32,294.04 80.00,329.49 85.99,364.21 98.03,397.44 115.73,428.45 138.57,456.60 165.91,481.32 197.00,502.11 231.03,518.58 267.10,530.48 304.31,537.63 341.71,540.00 378.38,537.67 413.43,530.85 446.02,519.83 475.38,505.04 500.85,486.97 521.86,466.20 537.98,443.38 548.91,419.19 554.49,394.36 554.71,369.59 549.69,345.62 539.70,323.11 525.16,302.71 506.57,285.00 484.58,270.46 459.89,259.52 433.31,252.46 405.68,249.50 377.86,250.71 350.73,256.06 325.15,265.40 301.93,278.47 281.83,294.90 265.51,314.23 253.55,335.93 246.40,359.37 244.39,383.89 247.71,408.78 256.40,433.33 270.36,456.81 289.36,478.52 313.01,497.80 340.81,514.04 372.13,526.70 406.24,535.33 442.33,539.58 479.54,539.21 516.94,534.07 "/>
</svg>
