<?xml version="1.0" encoding="UTF-8"?>
<svg xmlns="http://www.w3.org/2000/svg" width="800" height="600">
  <title>R=sin(t/3):0,3:</title>
  <rect width="800" height="600" fill="#ffffff"/>
  <g stroke="#d0d0d0" stroke-width="1">
    <line x1="36.18" y1="540.00" x2="36.18" y2="60.00"/>
    <line x1="400.00" y1="540.00" x2="400.00" y2="60.00"/>
    <line x1="763.82" y1="540.00" x2="763.82" y2="60.00"/>
    <line x1="80.00" y1="540.61" x2="720.00" y2="540.61"/>
    <line x1="80.00" y1="232.80" x2="720.00" y2="232.80"/>
    <line x1="80.00" y1="-75.00" x2="720.00" y2="-75.00"/>
  </g>
  <g stroke="#e8e8e8" stroke-width="0.5">
    <line x1="108.95" y1="540.00" x2="108.95" y2="60.00"/>
    <line x1="181.71" y1="540.00" x2="181.71" y2="60.00"/>
    <line x1="254.47" y1="540.00" x2="254.47" y2="60.00"/>
    <line x1="327.24" y1="540.00" x2="327.24" y2="60.00"/>
    <line x1="472.76" y1="540.00" x2="472.76" y2="60.00"/>
    <line x1="545.53" y1="540.00" x2="545.53" y2="60.00"/>
    <line x1="618.29" y1="540.00" x2="618.29" y2="60.00"/>
    <line x1="691.05" y1="540.00" x2="691.05" y2="60.00"/>
    <line x1="80.00" y1="479.05" x2="720.00" y2="479.05"/>
    <line x1="80.00" y1="417.49" x2="720.00" y2="417.49"/>
    <line x1="80.00" y1="355.93" x2="720.00" y2="355.93"/>
    <line x1="80.00" y1="294.36" x2="720.00" y2="294.36"/>
    <line x1="80.00" y1="171.24" x2="720.00" y2="171.24"/>
    <line x1="80.00" y1="109.68" x2="720.00" y2="109.68"/>
  </g>
  <g stroke="#808080" stroke-width="2">
    <line x1="400.00" y1="540.00" x2="400.00" y2="60.00"/>
    <line x1="80.00" y1="232.80" x2="720.00" y2="232.80"/>
  </g>
  <polyline fill="none" stroke="#0066cc" stroke-width="2" points="400.00,232.80 414.36,231.35 428.09,227.02 440.56,219.97 451.19,210.41 459.45,198.65 464.88,185.07 467.09,170.10 465.79,154.24 460.78,138.03 451.97,122.01 439.40,106.74 423.18,92.80 403.58,80.70 380.92,70.96 355.65,64.01 328.31,60.26 299.48,60.00 269.84,63.47 240.07,70.82 210.89,82.08 183.06,97.21 157.27,116.05 134.23,138.35 114.56,163.79 98.86,191.93 87.61,222.29 81.22,254.30 80.00,287.36 84.13,320.81 93.68,354.00 108.60,386.25 128.73,416.90 153.77,445.31 183.33,470.88 216.90,493.08 253.89,511.44 293.62,525.57 335.36,535.15 378.32,540.00 421.68,540.00 464.64,535.15 506.38,525.57 546.11,511.44 583.10,493.08 616.67,470.88 646.23,445.31 671.27,416.90 691.40,386.25 706.32,354.00 715.87,320.81 720.00,287.36 718.78,254.30 712.39,222.29 701.14,191.93 685.44,163.79 665.77,138.35 642.73,116.05 616.94,97.21 589.11,82.08 559.93,70.82 530.16,63.47 500.52,60.00 471.69,60.26 444.35,64.01 419.08,70.96 396.42,80.70 376.82,92.80 360.60,106.74 348.03,122.01 339.22,138.03 334.21,154.24 332.91,170.10 335.12,185.07 340.55,198.65 348.81,210.41 359.44,219.97 371.91,227.02 385.64,231.35 400.00,232.80 "/>
</svg>
