<?xml version="1.0" encoding="UTF-8"?>
<svg xmlns="http://www.w3.org/2000/svg" width="800" height="600">
  <title>R=1-ln(t):1/10,4:</title>
  <rect width="800" height="600" fill="#ffffff"/>
  <g stroke="#d0d0d0" stroke-width="1">
    <line x1="-3.76" y1="540.00" x2="-3.76" y2="60.00"/>
    <line x1="174.85" y1="540.00" x2="174.85" y2="60.00"/>
    <line x1="353.45" y1="540.00" x2="353.45" y2="60.00"/>
    <line x1="532.06" y1="540.00" x2="532.06" y2="60.00"/>
    <line x1="710.67" y1="540.00" x2="710.67" y2="60.00"/>
    <line x1="889.28" y1="540.00" x2="889.28" y2="60.00"/>
    <line x1="80.00" y1="721.69" x2="720.00" y2="721.69"/>
    <line x1="80.00" y1="527.02" x2="720.00" y2="527.02"/>
    <line x1="80.00" y1="332.35" x2="720.00" y2="332.35"/>
    <line x1="80.00" y1="137.68" x2="720.00" y2="137.68"/>
    <line x1="80.00" y1="-56.99" x2="720.00" y2="-56.99"/>
  </g>
  <g stroke="#e8e8e8" stroke-width="0.5">
    <line x1="103.40" y1="540.00" x2="103.40" y2="60.00"/>
    <line x1="139.12" y1="540.00" x2="139.12" y2="60.00"/>
    <line x1="210.57" y1="540.00" x2="210.57" y2="60.00"/>
    <line x1="246.29" y1="540.00" x2="246.29" y2="60.00"/>
    <line x1="282.01" y1="540.00" x2="282.01" y2="60.00"/>
    <line x1="317.73" y1="540.00" x2="317.73" y2="60.00"/>
    <line x1="389.17" y1="540.00" x2="389.17" y2="60.00"/>
    <line x1="424.90" y1="540.00" x2="424.90" y2="60.00"/>
    <line x1="460.62" y1="540.00" x2="460.62" y2="60.00"/>
    <line x1="496.34" y1="540.00" x2="496.34" y2="60.00"/>
    <line x1="567.78" y1="540.00" x2="567.78" y2="60.00"/>
    <line x1="603.50" y1="540.00" x2="603.50" y2="60.00"/>
    <line x1="639.23" y1="540.00" x2="639.23" y2="60.00"/>
    <line x1="674.95" y1="540.00" x2="674.95" y2="60.00"/>
    <line x1="80.00" y1="488.08" x2="720.00" y2="488.08"/>
    <line x1="80.00" y1="449.15" x2="720.00" y2="449.15"/>
    <line x1="80.00" y1="410.22" x2="720.00" y2="410.22"/>
    <line x1="80.00" y1="371.28" x2="720.00" y2="371.28"/>
    <line x1="80.00" y1="293.41" x2="720.00" y2="293.41"/>
    <line x1="80.00" y1="254.48" x2="720.00" y2="254.48"/>
    <line x1="80.00" y1="215.55" x2="720.00" y2="215.55"/>
    <line x1="80.00" y1="176.61" x2="720.00" y2="176.61"/>
    <line x1="80.00" y1="98.74" x2="720.00" y2="98.74"/>
    <line x1="80.00" y1="59.81" x2="720.00" y2="59.81"/>
  </g>
  <g stroke="#808080" stroke-width="2">
    <line x1="353.45" y1="540.00" x2="353.45" y2="60.00"/>
    <line x1="80.00" y1="332.35" x2="720.00" y2="332.35"/>
  </g>
  <polyline fill="none" stroke="#0066cc" stroke-width="2" points="720.00,202.54 633.29,177.71 566.63,164.95 512.16,161.42 466.77,165.17 429.02,174.59 398.14,188.30 373.62,205.04 355.04,223.62 341.97,242.99 333.94,262.17 330.42,280.30 330.83,296.65 334.51,310.61 340.78,321.71 348.91,329.63 358.17,334.20 367.84,335.38 377.24,333.28 385.73,328.13 392.73,320.30 397.76,310.23 400.43,298.47 400.44,285.61 397.64,272.31 391.95,259.23 383.44,247.02 372.30,236.32 358.80,227.72 343.33,221.73 326.35,218.78 308.39,219.22 290.05,223.26 271.94,231.00 254.69,242.43 238.94,257.39 225.28,275.62 214.27,296.72 206.38,320.21 202.04,345.50 201.53,371.93 205.08,398.77 212.77,425.27 224.55,450.66 240.29,474.17 259.71,495.06 282.41,512.65 307.91,526.33 335.60,535.59 364.83,540.00 394.86,539.28 424.92,533.28 454.21,521.99 481.94,505.52 507.33,484.16 529.64,458.32 548.21,428.55 562.44,395.49 571.86,359.92 576.10,322.69 574.91,284.71 568.18,246.93 555.96,210.32 538.42,175.84 515.89,144.42 488.82,116.91 457.80,94.10 423.53,76.67 386.80,65.17 348.48,60.00 309.51,61.43 270.84,69.54 233.45,84.26 198.30,105.34 166.30,132.38 138.31,164.81 115.09,201.92 97.30,242.86 85.47,286.68 80.00,332.35 "/>
</svg>
