<?xml version="1.0" encoding="UTF-8"?>
<svg xmlns="http://www.w3.org/2000/svg" width="800" height="600">
  <title>R=1-sin(3/2*t)</title>
  <rect width="800" height="600" fill="#ffffff"/>
  <g stroke="#d0d0d0" stroke-width="1">
    <line x1="79.49" y1="540.00" x2="79.49" y2="60.00"/>
    <line x1="293.00" y1="540.00" x2="293.00" y2="60.00"/>
    <line x1="506.50" y1="540.00" x2="506.50" y2="60.00"/>
    <line x1="720.00" y1="540.00" x2="720.00" y2="60.00"/>
    <line x1="80.00" y1="545.74" x2="720.00" y2="545.74"/>
    <line x1="80.00" y1="299.83" x2="720.00" y2="299.83"/>
    <line x1="80.00" y1="53.92" x2="720.00" y2="53.92"/>
  </g>
  <g stroke="#e8e8e8" stroke-width="0.5">
    <line x1="122.19" y1="540.00" x2="122.19" y2="60.00"/>
    <line x1="164.89" y1="540.00" x2="164.89" y2="60.00"/>
    <line x1="207.60" y1="540.00" x2="207.60" y2="60.00"/>
    <line x1="250.30" y1="540.00" x2="250.30" y2="60.00"/>
    <line x1="335.70" y1="540.00" x2="335.70" y2="60.00"/>
    <line x1="378.40" y1="540.00" x2="378.40" y2="60.00"/>
    <line x1="421.10" y1="540.00" x2="421.10" y2="60.00"/>
    <line x1="463.80" y1="540.00" x2="463.80" y2="60.00"/>
    <line x1="549.20" y1="540.00" x2="549.20" y2="60.00"/>
    <line x1="591.90" y1="540.00" x2="591.90" y2="60.00"/>
    <line x1="634.60" y1="540.00" x2="634.60" y2="60.00"/>
    <line x1="677.30" y1="540.00" x2="677.30" y2="60.00"/>
    <line x1="80.00" y1="496.56" x2="720.00" y2="496.56"/>
    <line x1="80.00" y1="447.38" x2="720.00" y2="447.38"/>
    <line x1="80.00" y1="398.20" x2="720.00" y2="398.20"/>
    <line x1="80.00" y1="349.01" x2="720.00" y2="349.01"/>
    <line x1="80.00" y1="250.65" x2="720.00" y2="250.65"/>
    <line x1="80.00" y1="201.46" x2="720.00" y2="201.46"/>
    <line x1="80.00" y1="152.28" x2="720.00" y2="152.28"/>
    <line x1="80.00" y1="103.10" x2="720.00" y2="103.10"/>
  </g>
  <g stroke="#808080" stroke-width="2">
    <line x1="506.50" y1="540.00" x2="506.50" y2="60.00"/>
    <line x1="80.00" y1="299.83" x2="720.00" y2="299.83"/>
  </g>
  <polyline fill="none" stroke="#0066cc" stroke-width="2" points="715.96,296.80 689.87,280.36 663.41,268.56 637.37,261.23 612.51,258.00 589.49,258.35 568.84,261.64 550.99,267.12 536.19,273.97 524.55,281.33 516.04,288.37 510.44,294.27 507.42,298.30 506.50,299.83 507.11,298.37 508.59,293.58 510.24,285.29 511.34,273.51 511.18,258.44 509.08,240.44 504.47,220.04 496.84,197.89 485.84,174.78 471.24,151.58 452.96,129.18 431.10,108.53 405.91,90.51 377.80,75.97 347.31,65.65 315.12,60.17 281.99,60.00 248.77,65.42 216.35,76.54 185.62,93.26 157.45,115.31 132.65,142.21 111.96,173.31 96.00,207.84 85.24,244.87 80.00,283.41 80.45,322.40 86.58,360.78 98.19,397.48 114.94,431.52 136.32,462.01 161.70,488.18 190.34,509.41 221.40,525.26 254.00,535.48 287.26,540.00 320.30,538.96 352.27,532.68 382.42,521.65 410.11,506.51 434.79,488.02 456.10,467.02 473.79,444.44 487.82,421.19 498.27,398.18 505.39,376.26 509.57,356.19 511.31,338.62 511.23,324.06 510.00,312.83 508.32,305.09 506.93,300.85 506.53,299.89 507.74,301.85 511.15,306.22 517.19,312.35 526.18,319.49 538.32,326.84 553.61,333.52 571.93,338.71 592.99,341.58 616.34,341.41 641.43,337.56 667.59,329.54 694.05,317.01 720.00,299.83 "/>
</svg>
