<?xml version="1.0" encoding="UTF-8"?>
<svg xmlns="http://www.w3.org/2000/svg" width="800" height="600">
  <title>R=sin(t)*cos(2*t)</title>
  <rect width="800" height="600" fill="#ffffff"/>
  <g stroke="#d0d0d0" stroke-width="1">
    <line x1="-880.71" y1="540.00" x2="-880.71" y2="60.00"/>
    <line x1="400.18" y1="540.00" x2="400.18" y2="60.00"/>
    <line x1="1681.07" y1="540.00" x2="1681.07" y2="60.00"/>
    <line x1="80.00" y1="540.36" x2="720.00" y2="540.36"/>
    <line x1="80.00" y1="113.37" x2="720.00" y2="113.37"/>
    <line x1="80.00" y1="-313.61" x2="720.00" y2="-313.61"/>
  </g>
  <g stroke="#e8e8e8" stroke-width="0.5">
    <line x1="144.00" y1="540.00" x2="144.00" y2="60.00"/>
    <line x1="656.36" y1="540.00" x2="656.36" y2="60.00"/>
    <line x1="80.00" y1="454.96" x2="720.00" y2="454.96"/>
    <line x1="80.00" y1="369.56" x2="720.00" y2="369.56"/>
    <line x1="80.00" y1="284.17" x2="720.00" y2="284.17"/>
    <line x1="80.00" y1="198.77" x2="720.00" y2="198.77"/>
  </g>
  <g stroke="#808080" stroke-width="2">
    <line x1="400.18" y1="540.00" x2="400.18" y2="60.00"/>
    <line x1="80.00" y1="113.37" x2="720.00" y2="113.37"/>
  </g>
  <polyline fill="none" stroke="#0066cc" stroke-width="2" points="416.27,113.30 515.31,109.83 602.84,101.68 670.11,90.33 710.40,77.94 719.68,67.15 697.03,60.74 644.69,61.34 567.92,71.08 474.38,91.37 373.42,122.67 275.13,164.38 189.35,214.85 124.64,271.45 87.47,330.84 81.57,389.16 107.51,442.43 162.71,486.87 241.64,519.24 336.43,537.15 437.58,539.26 535.00,525.42 618.94,496.65 681.01,455.09 715.01,403.79 717.54,346.42 688.34,286.93 630.34,229.24 549.33,176.88 453.41,132.67 352.17,98.53 255.73,75.35 173.73,62.94 114.36,60.12 83.57,64.93 84.42,74.84 116.84,87.08 177.58,98.94 260.57,108.10 357.52,112.90 458.73,112.47 554.09,106.91 634.06,97.18 690.66,85.10 718.22,73.05 713.98,63.76 678.38,60.00 614.97,64.22 530.08,78.28 432.22,103.21 331.14,139.03 236.97,184.68 159.12,238.10 105.36,296.32 81.07,355.74 88.68,412.42 127.43,462.41 193.44,502.12 280.12,528.64 378.80,540.00 479.62,535.35 572.49,515.03 648.14,480.56 699.01,434.49 720.00,380.16 709.02,321.41 667.17,262.21 598.63,206.37 510.25,157.14 410.87,117.00 310.42,87.43 218.95,68.86 145.58,60.68 97.67,61.35 80.00,68.64 94.33,79.87 139.24,92.26 210.23,103.23 300.21,110.72 400.18,113.37 "/>
</svg>
