<?xml version="1.0" encoding="UTF-8"?>
<svg xmlns="http://www.w3.org/2000/svg" width="800" height="600">
  <title>R=sin(2*t)-sin(t)</title>
  <rect width="800" height="600" fill="#ffffff"/>
  <g stroke="#d0d0d0" stroke-width="1">
    <line x1="-112.28" y1="540.00" x2="-112.28" y2="60.00"/>
    <line x1="143.82" y1="540.00" x2="143.82" y2="60.00"/>
    <line x1="399.92" y1="540.00" x2="399.92" y2="60.00"/>
    <line x1="656.03" y1="540.00" x2="656.03" y2="60.00"/>
    <line x1="912.13" y1="540.00" x2="912.13" y2="60.00"/>
    <line x1="80.00" y1="674.37" x2="720.00" y2="674.37"/>
    <line x1="80.00" y1="397.55" x2="720.00" y2="397.55"/>
    <line x1="80.00" y1="120.72" x2="720.00" y2="120.72"/>
    <line x1="80.00" y1="-156.11" x2="720.00" y2="-156.11"/>
  </g>
  <g stroke="#e8e8e8" stroke-width="0.5">
    <line x1="92.60" y1="540.00" x2="92.60" y2="60.00"/>
    <line x1="195.04" y1="540.00" x2="195.04" y2="60.00"/>
    <line x1="246.26" y1="540.00" x2="246.26" y2="60.00"/>
    <line x1="297.48" y1="540.00" x2="297.48" y2="60.00"/>
    <line x1="348.70" y1="540.00" x2="348.70" y2="60.00"/>
    <line x1="451.15" y1="540.00" x2="451.15" y2="60.00"/>
    <line x1="502.37" y1="540.00" x2="502.37" y2="60.00"/>
    <line x1="553.59" y1="540.00" x2="553.59" y2="60.00"/>
    <line x1="604.81" y1="540.00" x2="604.81" y2="60.00"/>
    <line x1="707.25" y1="540.00" x2="707.25" y2="60.00"/>
    <line x1="80.00" y1="508.28" x2="720.00" y2="508.28"/>
    <line x1="80.00" y1="452.91" x2="720.00" y2="452.91"/>
    <line x1="80.00" y1="342.18" x2="720.00" y2="342.18"/>
    <line x1="80.00" y1="286.81" x2="720.00" y2="286.81"/>
    <line x1="80.00" y1="231.45" x2="720.00" y2="231.45"/>
    <line x1="80.00" y1="176.08" x2="720.00" y2="176.08"/>
    <line x1="80.00" y1="65.35" x2="720.00" y2="65.35"/>
  </g>
  <g stroke="#808080" stroke-width="2">
    <line x1="399.92" y1="540.00" x2="399.92" y2="60.00"/>
    <line x1="80.00" y1="120.72" x2="720.00" y2="120.72"/>
  </g>
  <polyline fill="none" stroke="#0066cc" stroke-width="2" points="403.14,120.67 423.14,118.40 441.69,112.91 457.62,104.75 469.97,94.78 477.99,84.10 481.23,73.97 479.58,65.75 473.25,60.77 462.80,60.27 449.09,65.30 433.24,76.64 416.55,94.76 400.46,119.73 386.40,151.22 375.77,188.52 369.81,230.51 369.52,275.78 375.60,322.63 388.40,369.19 407.85,413.50 433.52,453.62 464.53,487.74 499.67,514.29 537.42,532.00 576.01,540.00 613.52,537.87 648.00,525.66 677.51,503.94 700.30,473.71 714.86,436.44 720.00,393.92 714.96,348.24 699.40,301.64 673.49,256.43 637.86,214.86 593.59,179.00 542.18,150.63 485.48,131.19 425.56,121.64 364.68,122.47 305.13,133.63 249.12,154.56 198.73,184.22 155.74,221.11 121.59,263.41 97.28,308.99 83.40,355.59 80.00,400.92 86.70,442.74 102.65,479.01 126.61,507.97 157.03,528.25 192.11,538.88 229.93,539.40 268.51,529.83 305.96,510.65 340.54,482.81 370.78,447.62 395.51,406.71 413.93,361.92 425.65,315.19 430.69,268.47 429.45,223.61 422.68,182.27 411.42,145.83 396.94,115.33 380.66,91.44 364.01,74.40 348.41,64.10 335.15,60.00 325.30,61.29 319.69,66.87 318.80,75.48 322.82,85.79 331.56,96.43 344.53,106.18 360.95,113.97 379.81,118.99 399.92,120.72 "/>
</svg>
