<?xml version="1.0" encoding="UTF-8"?>
<svg xmlns="http://www.w3.org/2000/svg" width="800" height="600">
  <title>R=sin(2*t):-1/2,1/2:</title>
  <rect width="800" height="600" fill="#ffffff"/>
  <g stroke="#d0d0d0" stroke-width="1">
    <line x1="-15.69" y1="540.00" x2="-15.69" y2="60.00"/>
    <line x1="400.00" y1="540.00" x2="400.00" y2="60.00"/>
    <line x1="815.69" y1="540.00" x2="815.69" y2="60.00"/>
    <line x1="80.00" y1="1164.22" x2="720.00" y2="1164.22"/>
    <line x1="80.00" y1="540.00" x2="720.00" y2="540.00"/>
    <line x1="80.00" y1="-84.22" x2="720.00" y2="-84.22"/>
  </g>
  <g stroke="#e8e8e8" stroke-width="0.5">
    <line x1="150.58" y1="540.00" x2="150.58" y2="60.00"/>
    <line x1="233.72" y1="540.00" x2="233.72" y2="60.00"/>
    <line x1="316.86" y1="540.00" x2="316.86" y2="60.00"/>
    <line x1="483.14" y1="540.00" x2="483.14" y2="60.00"/>
    <line x1="566.28" y1="540.00" x2="566.28" y2="60.00"/>
    <line x1="649.42" y1="540.00" x2="649.42" y2="60.00"/>
    <line x1="80.00" y1="415.16" x2="720.00" y2="415.16"/>
    <line x1="80.00" y1="290.31" x2="720.00" y2="290.31"/>
    <line x1="80.00" y1="165.47" x2="720.00" y2="165.47"/>
  </g>
  <g stroke="#808080" stroke-width="2">
    <line x1="400.00" y1="540.00" x2="400.00" y2="60.00"/>
    <line x1="80.00" y1="540.00" x2="720.00" y2="540.00"/>
  </g>
  <polyline fill="none" stroke="#0066cc" stroke-width="2" points="400.00,540.00 398.69,490.45 394.77,441.44 388.31,393.52 379.40,347.21 368.20,303.02 354.88,261.42 339.64,222.85 322.74,187.70 304.44,156.33 285.04,129.03 264.85,106.05 244.21,87.56 223.45,73.70 202.91,64.51 182.95,60.00 163.90,60.10 146.09,64.68 129.85,73.54 115.46,86.45 103.21,103.11 93.34,123.16 86.07,146.21 81.57,171.83 80.00,199.57 81.46,228.92 86.02,259.39 93.70,290.46 104.47,321.61 118.30,352.33 135.06,382.12 154.62,410.48 176.79,436.96 201.37,461.14 228.10,482.62 256.70,501.08 286.88,516.20 318.29,527.76 350.61,535.57 383.48,539.51 416.52,539.51 449.39,535.57 481.71,527.76 513.12,516.20 543.30,501.08 571.90,482.62 598.63,461.14 623.21,436.96 645.38,410.48 664.94,382.12 681.70,352.33 695.53,321.61 706.30,290.46 713.98,259.39 718.54,228.92 720.00,199.57 718.43,171.83 713.93,146.21 706.66,123.16 696.79,103.11 684.54,86.45 670.15,73.54 653.91,64.68 636.10,60.10 617.05,60.00 597.09,64.51 576.55,73.70 555.79,87.56 535.15,106.05 514.96,129.03 495.56,156.33 477.26,187.70 460.36,222.85 445.12,261.42 431.80,303.02 420.60,347.21 411.69,393.52 405.23,441.44 401.31,490.45 400.00,540.00 "/>
</svg>
