<?xml version="1.0" encoding="UTF-8"?>
<svg xmlns="http://www.w3.org/2000/svg" width="800" height="600">
  <title>R=sin(4*t):-1/2,1/2:</title>
  <rect width="800" height="600" fill="#ffffff"/>
  <g stroke="#d0d0d0" stroke-width="1">
    <line x1="55.11" y1="540.00" x2="55.11" y2="60.00"/>
    <line x1="400.00" y1="540.00" x2="400.00" y2="60.00"/>
    <line x1="744.89" y1="540.00" x2="744.89" y2="60.00"/>
    <line x1="80.00" y1="565.50" x2="720.00" y2="565.50"/>
    <line x1="80.00" y1="213.45" x2="720.00" y2="213.45"/>
    <line x1="80.00" y1="-138.59" x2="720.00" y2="-138.59"/>
  </g>
  <g stroke="#e8e8e8" stroke-width="0.5">
    <line x1="124.09" y1="540.00" x2="124.09" y2="60.00"/>
    <line x1="193.07" y1="540.00" x2="193.07" y2="60.00"/>
    <line x1="262.04" y1="540.00" x2="262.04" y2="60.00"/>
    <line x1="331.02" y1="540.00" x2="331.02" y2="60.00"/>
    <line x1="468.98" y1="540.00" x2="468.98" y2="60.00"/>
    <line x1="537.96" y1="540.00" x2="537.96" y2="60.00"/>
    <line x1="606.93" y1="540.00" x2="606.93" y2="60.00"/>
    <line x1="675.91" y1="540.00" x2="675.91" y2="60.00"/>
    <line x1="80.00" y1="495.09" x2="720.00" y2="495.09"/>
    <line x1="80.00" y1="424.68" x2="720.00" y2="424.68"/>
    <line x1="80.00" y1="354.27" x2="720.00" y2="354.27"/>
    <line x1="80.00" y1="283.86" x2="720.00" y2="283.86"/>
    <line x1="80.00" y1="143.05" x2="720.00" y2="143.05"/>
    <line x1="80.00" y1="72.64" x2="720.00" y2="72.64"/>
  </g>
  <g stroke="#808080" stroke-width="2">
    <line x1="400.00" y1="540.00" x2="400.00" y2="60.00"/>
    <line x1="80.00" y1="213.45" x2="720.00" y2="213.45"/>
  </g>
  <polyline fill="none" stroke="#0066cc" stroke-width="2" points="400.00,213.45 402.17,269.17 408.57,323.22 418.85,374.00 432.46,420.00 448.65,459.89 466.51,492.57 485.03,517.16 503.12,533.07 519.65,540.00 533.54,537.96 543.77,527.26 549.44,508.47 549.83,482.45 544.40,450.27 532.85,413.16 515.12,372.52 491.42,329.79 462.19,286.45 428.15,243.95 390.21,203.66 349.49,166.79 307.28,134.39 264.94,107.30 223.91,86.11 185.65,71.16 151.55,62.52 122.90,60.00 100.83,63.18 86.30,71.40 80.00,83.83 82.38,99.49 93.58,117.30 113.47,136.13 141.62,154.83 177.29,172.33 219.52,187.65 267.09,199.92 318.63,208.49 372.60,212.90 427.40,212.90 481.37,208.49 532.91,199.92 580.48,187.65 622.71,172.33 658.38,154.83 686.53,136.13 706.42,117.30 717.62,99.49 720.00,83.83 713.70,71.40 699.17,63.18 677.10,60.00 648.45,62.52 614.35,71.16 576.09,86.11 535.06,107.30 492.72,134.39 450.51,166.79 409.79,203.66 371.85,243.95 337.81,286.45 308.58,329.79 284.88,372.52 267.15,413.16 255.60,450.27 250.17,482.45 250.56,508.47 256.23,527.26 266.46,537.96 280.35,540.00 296.88,533.07 314.97,517.16 333.49,492.57 351.35,459.89 367.54,420.00 381.15,374.00 391.43,323.22 397.83,269.17 400.00,213.45 "/>
</svg>
