<?xml version="1.0" encoding="UTF-8"?>
<svg xmlns="http://www.w3.org/2000/svg" width="800" height="600">
  <title>R=2+cos(5*t)</title>
  <rect width="800" height="600" fill="#ffffff"/>
  <g stroke="#d0d0d0" stroke-width="1">
    <line x1="19.40" y1="540.00" x2="19.40" y2="60.00"/>
    <line x1="136.17" y1="540.00" x2="136.17" y2="60.00"/>
    <line x1="252.93" y1="540.00" x2="252.93" y2="60.00"/>
    <line x1="369.70" y1="540.00" x2="369.70" y2="60.00"/>
    <line x1="486.47" y1="540.00" x2="486.47" y2="60.00"/>
    <line x1="603.23" y1="540.00" x2="603.23" y2="60.00"/>
    <line x1="720.00" y1="540.00" x2="720.00" y2="60.00"/>
    <line x1="80.00" y1="551.46" x2="720.00" y2="551.46"/>
    <line x1="80.00" y1="467.71" x2="720.00" y2="467.71"/>
    <line x1="80.00" y1="383.96" x2="720.00" y2="383.96"/>
    <line x1="80.00" y1="300.21" x2="720.00" y2="300.21"/>
    <line x1="80.00" y1="216.46" x2="720.00" y2="216.46"/>
    <line x1="80.00" y1="132.71" x2="720.00" y2="132.71"/>
    <line x1="80.00" y1="48.96" x2="720.00" y2="48.96"/>
  </g>
  <g stroke="#e8e8e8" stroke-width="0.5">
    <line x1="89.46" y1="540.00" x2="89.46" y2="60.00"/>
    <line x1="112.81" y1="540.00" x2="112.81" y2="60.00"/>
    <line x1="159.52" y1="540.00" x2="159.52" y2="60.00"/>
    <line x1="182.87" y1="540.00" x2="182.87" y2="60.00"/>
    <line x1="206.23" y1="540.00" x2="206.23" y2="60.00"/>
    <line x1="229.58" y1="540.00" x2="229.58" y2="60.00"/>
    <line x1="276.29" y1="540.00" x2="276.29" y2="60.00"/>
    <line x1="299.64" y1="540.00" x2="299.64" y2="60.00"/>
    <line x1="322.99" y1="540.00" x2="322.99" y2="60.00"/>
    <line x1="346.35" y1="540.00" x2="346.35" y2="60.00"/>
    <line x1="393.05" y1="540.00" x2="393.05" y2="60.00"/>
    <line x1="416.41" y1="540.00" x2="416.41" y2="60.00"/>
    <line x1="439.76" y1="540.00" x2="439.76" y2="60.00"/>
    <line x1="463.11" y1="540.00" x2="463.11" y2="60.00"/>
    <line x1="509.82" y1="540.00" x2="509.82" y2="60.00"/>
    <line x1="533.17" y1="540.00" x2="533.17" y2="60.00"/>
    <line x1="556.53" y1="540.00" x2="556.53" y2="60.00"/>
    <line x1="579.88" y1="540.00" x2="579.88" y2="60.00"/>
    <line x1="626.59" y1="540.00" x2="626.59" y2="60.00"/>
    <line x1="649.94" y1="540.00" x2="649.94" y2="60.00"/>
    <line x1="673.29" y1="540.00" x2="673.29" y2="60.00"/>
    <line x1="696.65" y1="540.00" x2="696.65" y2="60.00"/>
    <line x1="80.00" y1="534.71" x2="720.00" y2="534.71"/>
    <line x1="80.00" y1="517.96" x2="720.00" y2="517.96"/>
    <line x1="80.00" y1="501.21" x2="720.00" y2="501.21"/>
    <line x1="80.00" y1="484.46" x2="720.00" y2="484.46"/>
    <line x1="80.00" y1="450.96" x2="720.00" y2="450.96"/>
    <line x1="80.00" y1="434.21" x2="720.00" y2="434.21"/>
    <line x1="80.00" y1="417.46" x2="720.00" y2="417.46"/>
    <line x1="80.00" y1="400.71" x2="720.00" y2="400.71"/>
    <line x1="80.00" y1="367.21" x2="720.00" y2="367.21"/>
    <line x1="80.00" y1="350.46" x2="720.00" y2="350.46"/>
    <line x1="80.00" y1="333.71" x2="720.00" y2="333.71"/>
    <line x1="80.00" y1="316.96" x2="720.00" y2="316.96"/>
    <line x1="80.00" y1="283.46" x2="720.00" y2="283.46"/>
    <line x1="80.00" y1="266.71" x2="720.00" y2="266.71"/>
    <line x1="80.00" y1="249.96" x2="720.00" y2="249.96"/>
    <line x1="80.00" y1="233.21" x2="720.00" y2="233.21"/>
    <line x1="80.00" y1="199.71" x2="720.00" y2="199.71"/>
    <line x1="80.00" y1="182.96" x2="720.00" y2="182.96"/>
    <line x1="80.00" y1="166.21" x2="720.00" y2="166.21"/>
    <line x1="80.00" y1="149.46" x2="720.00" y2="149.46"/>
    <line x1="80.00" y1="115.96" x2="720.00" y2="115.96"/>
    <line x1="80.00" y1="99.21" x2="720.00" y2="99.21"/>
    <line x1="80.00" y1="82.46" x2="720.00" y2="82.46"/>
    <line x1="80.00" y1="65.71" x2="720.00" y2="65.71"/>
  </g>
  <g stroke="#808080" stroke-width="2">
    <line x1="369.70" y1="540.00" x2="369.70" y2="60.00"/>
    <line x1="80.00" y1="300.21" x2="720.00" y2="300.21"/>
  </g>
  <polyline fill="none" stroke="#0066cc" stroke-width="2" points="719.74,297.06 706.45,277.94 675.18,262.30 631.23,252.18 581.85,248.08 534.81,248.82 496.87,251.70 472.53,253.12 463.26,249.46 467.34,237.92 480.47,217.37 496.77,188.67 510.16,154.75 515.65,120.04 510.39,89.70 494.10,68.52 469.00,60.00 439.05,65.52 408.95,84.03 382.85,112.18 363.36,144.99 350.92,176.73 343.68,202.11 338.01,217.24 329.49,220.40 314.06,212.31 289.19,195.88 254.65,175.60 212.86,156.54 168.51,143.32 127.68,139.22 96.62,145.54 80.30,161.52 81.34,184.62 99.24,211.18 130.37,237.37 168.52,260.04 206.13,277.39 235.71,289.33 251.37,297.37 249.99,304.16 231.83,312.67 200.53,325.40 162.31,343.64 124.79,367.03 95.40,393.52 80.00,419.79 81.76,441.98 100.66,456.57 133.65,461.24 175.46,455.55 219.79,441.15 260.70,421.56 293.79,401.56 317.09,386.18 331.21,379.72 338.98,384.80 344.61,401.72 352.47,428.41 365.96,460.70 386.58,493.15 413.54,520.08 443.92,536.70 473.41,540.00 497.35,529.32 511.98,506.42 515.45,475.04 508.46,440.12 494.24,406.76 478.02,379.21 465.96,360.08 463.76,349.92 475.38,347.27 502.05,349.18 541.80,351.95 589.71,352.07 638.75,347.05 681.14,335.97 709.85,319.62 720.00,300.21 "/>
</svg>
