<?xml version="1.0" encoding="UTF-8"?>
<svg xmlns="http://www.w3.org/2000/svg" width="800" height="600">
  <title>R=sin(t/2):0,4:</title>
  <rect width="800" height="600" fill="#ffffff"/>
  <g stroke="#d0d0d0" stroke-width="1">
    <line x1="79.68" y1="540.00" x2="79.68" y2="60.00"/>
    <line x1="400.00" y1="540.00" x2="400.00" y2="60.00"/>
    <line x1="720.32" y1="540.00" x2="720.32" y2="60.00"/>
    <line x1="80.00" y1="613.03" x2="720.00" y2="613.03"/>
    <line x1="80.00" y1="300.55" x2="720.00" y2="300.55"/>
    <line x1="80.00" y1="-11.93" x2="720.00" y2="-11.93"/>
  </g>
  <g stroke="#e8e8e8" stroke-width="0.5">
    <line x1="143.75" y1="540.00" x2="143.75" y2="60.00"/>
    <line x1="207.81" y1="540.00" x2="207.81" y2="60.00"/>
    <line x1="271.87" y1="540.00" x2="271.87" y2="60.00"/>
    <line x1="335.94" y1="540.00" x2="335.94" y2="60.00"/>
    <line x1="464.06" y1="540.00" x2="464.06" y2="60.00"/>
    <line x1="528.13" y1="540.00" x2="528.13" y2="60.00"/>
    <line x1="592.19" y1="540.00" x2="592.19" y2="60.00"/>
    <line x1="656.25" y1="540.00" x2="656.25" y2="60.00"/>
    <line x1="80.00" y1="488.04" x2="720.00" y2="488.04"/>
    <line x1="80.00" y1="425.54" x2="720.00" y2="425.54"/>
    <line x1="80.00" y1="363.05" x2="720.00" y2="363.05"/>
    <line x1="80.00" y1="238.05" x2="720.00" y2="238.05"/>
    <line x1="80.00" y1="175.56" x2="720.00" y2="175.56"/>
    <line x1="80.00" y1="113.06" x2="720.00" y2="113.06"/>
  </g>
  <g stroke="#808080" stroke-width="2">
    <line x1="400.00" y1="540.00" x2="400.00" y2="60.00"/>
    <line x1="80.00" y1="300.55" x2="720.00" y2="300.55"/>
  </g>
  <polyline fill="none" stroke="#0066cc" stroke-width="2" points="400.00,300.55 425.13,296.62 448.19,285.07 467.25,266.63 480.59,242.47 486.84,214.13 485.05,183.44 474.74,152.39 455.93,123.07 429.16,97.47 395.45,77.45 356.24,64.56 313.32,60.00 268.74,64.52 224.66,78.40 183.29,101.39 146.70,132.76 116.76,171.33 94.99,215.51 82.53,263.42 80.00,312.97 87.55,361.97 104.77,408.27 130.79,449.86 164.27,485.01 203.50,512.31 246.50,530.80 291.11,540.00 335.12,539.92 376.43,531.07 413.09,514.44 443.49,491.41 466.37,463.71 480.97,433.27 486.99,402.14 484.67,372.38 474.73,345.92 458.33,324.45 437.04,309.34 412.69,301.54 387.31,301.54 362.96,309.34 341.67,324.45 325.27,345.92 315.33,372.38 313.01,402.14 319.03,433.27 333.63,463.71 356.51,491.41 386.91,514.44 423.57,531.07 464.88,539.92 508.89,540.00 553.50,530.80 596.50,512.31 635.73,485.01 669.21,449.86 695.23,408.27 712.45,361.97 720.00,312.97 717.47,263.42 705.01,215.51 683.24,171.33 653.30,132.76 616.71,101.39 575.34,78.40 531.26,64.52 486.68,60.00 443.76,64.56 404.55,77.45 370.84,97.47 344.07,123.07 325.26,152.39 314.95,183.44 313.16,214.13 319.41,242.47 332.75,266.63 351.81,285.07 374.87,296.62 400.00,300.55 "/>
</svg>
