<?xml version="1.0" encoding="UTF-8"?>
<svg xmlns="http://www.w3.org/2000/svg" width="800" height="600">
  <title>R=t*cos(t):-2.5,2.5:</title>
  <rect width="800" height="600" fill="#ffffff"/>
  <g stroke="#d0d0d0" stroke-width="1">
    <line x1="42.22" y1="540.00" x2="42.22" y2="60.00"/>
    <line x1="93.33" y1="540.00" x2="93.33" y2="60.00"/>
    <line x1="144.44" y1="540.00" x2="144.44" y2="60.00"/>
    <line x1="195.55" y1="540.00" x2="195.55" y2="60.00"/>
    <line x1="246.67" y1="540.00" x2="246.67" y2="60.00"/>
    <line x1="297.78" y1="540.00" x2="297.78" y2="60.00"/>
    <line x1="348.89" y1="540.00" x2="348.89" y2="60.00"/>
    <line x1="400.00" y1="540.00" x2="400.00" y2="60.00"/>
    <line x1="451.11" y1="540.00" x2="451.11" y2="60.00"/>
    <line x1="502.22" y1="540.00" x2="502.22" y2="60.00"/>
    <line x1="553.33" y1="540.00" x2="553.33" y2="60.00"/>
    <line x1="604.45" y1="540.00" x2="604.45" y2="60.00"/>
    <line x1="655.56" y1="540.00" x2="655.56" y2="60.00"/>
    <line x1="706.67" y1="540.00" x2="706.67" y2="60.00"/>
    <line x1="757.78" y1="540.00" x2="757.78" y2="60.00"/>
    <line x1="80.00" y1="560.78" x2="720.00" y2="560.78"/>
    <line x1="80.00" y1="484.07" x2="720.00" y2="484.07"/>
    <line x1="80.00" y1="407.37" x2="720.00" y2="407.37"/>
    <line x1="80.00" y1="330.66" x2="720.00" y2="330.66"/>
    <line x1="80.00" y1="253.96" x2="720.00" y2="253.96"/>
    <line x1="80.00" y1="177.25" x2="720.00" y2="177.25"/>
    <line x1="80.00" y1="100.55" x2="720.00" y2="100.55"/>
    <line x1="80.00" y1="23.84" x2="720.00" y2="23.84"/>
  </g>
  <g stroke="#e8e8e8" stroke-width="0.5">
    <line x1="83.11" y1="540.00" x2="83.11" y2="60.00"/>
    <line x1="103.55" y1="540.00" x2="103.55" y2="60.00"/>
    <line x1="113.78" y1="540.00" x2="113.78" y2="60.00"/>
    <line x1="124.00" y1="540.00" x2="124.00" y2="60.00"/>
    <line x1="134.22" y1="540.00" x2="134.22" y2="60.00"/>
    <line x1="154.66" y1="540.00" x2="154.66" y2="60.00"/>
    <line x1="164.89" y1="540.00" x2="164.89" y2="60.00"/>
    <line x1="175.11" y1="540.00" x2="175.11" y2="60.00"/>
    <line x1="185.33" y1="540.00" x2="185.33" y2="60.00"/>
    <line x1="205.78" y1="540.00" x2="205.78" y2="60.00"/>
    <line x1="216.00" y1="540.00" x2="216.00" y2="60.00"/>
    <line x1="226.22" y1="540.00" x2="226.22" y2="60.00"/>
    <line x1="236.44" y1="540.00" x2="236.44" y2="60.00"/>
    <line x1="256.89" y1="540.00" x2="256.89" y2="60.00"/>
    <line x1="267.11" y1="540.00" x2="267.11" y2="60.00"/>
    <line x1="277.33" y1="540.00" x2="277.33" y2="60.00"/>
    <line x1="287.55" y1="540.00" x2="287.55" y2="60.00"/>
    <line x1="308.00" y1="540.00" x2="308.00" y2="60.00"/>
    <line x1="318.22" y1="540.00" x2="318.22" y2="60.00"/>
    <line x1="328.44" y1="540.00" x2="328.44" y2="60.00"/>
    <line x1="338.67" y1="540.00" x2="338.67" y2="60.00"/>
    <line x1="359.11" y1="540.00" x2="359.11" y2="60.00"/>
    <line x1="369.33" y1="540.00" x2="369.33" y2="60.00"/>
    <line x1="379.56" y1="540.00" x2="379.56" y2="60.00"/>
    <line x1="389.78" y1="540.00" x2="389.78" y2="60.00"/>
    <line x1="410.22" y1="540.00" x2="410.22" y2="60.00"/>
    <line x1="420.44" y1="540.00" x2="420.44" y2="60.00"/>
    <line x1="430.67" y1="540.00" x2="430.67" y2="60.00"/>
    <line x1="440.89" y1="540.00" x2="440.89" y2="60.00"/>
    <line x1="461.33" y1="540.00" x2="461.33" y2="60.00"/>
    <line x1="471.56" y1="540.00" x2="471.56" y2="60.00"/>
    <line x1="481.78" y1="540.00" x2="481.78" y2="60.00"/>
    <line x1="492.00" y1="540.00" x2="492.00" y2="60.00"/>
    <line x1="512.45" y1="540.00" x2="512.45" y2="60.00"/>
    <line x1="522.67" y1="540.00" x2="522.67" y2="60.00"/>
    <line x1="532.89" y1="540.00" x2="532.89" y2="60.00"/>
    <line x1="543.11" y1="540.00" x2="543.11" y2="60.00"/>
    <line x1="563.56" y1="540.00" x2="563.56" y2="60.00"/>
    <line x1="573.78" y1="540.00" x2="573.78" y2="60.00"/>
    <line x1="584.00" y1="540.00" x2="584.00" y2="60.00"/>
    <line x1="594.22" y1="540.00" x2="594.22" y2="60.00"/>
    <line x1="614.67" y1="540.00" x2="614.67" y2="60.00"/>
    <line x1="624.89" y1="540.00" x2="624.89" y2="60.00"/>
    <line x1="635.11" y1="540.00" x2="635.11" y2="60.00"/>
    <line x1="645.34" y1="540.00" x2="645.34" y2="60.00"/>
    <line x1="665.78" y1="540.00" x2="665.78" y2="60.00"/>
    <line x1="676.00" y1="540.00" x2="676.00" y2="60.00"/>
    <line x1="686.22" y1="540.00" x2="686.22" y2="60.00"/>
    <line x1="696.45" y1="540.00" x2="696.45" y2="60.00"/>
    <line x1="716.89" y1="540.00" x2="716.89" y2="60.00"/>
    <line x1="80.00" y1="530.10" x2="720.00" y2="530.10"/>
    <line x1="80.00" y1="514.75" x2="720.00" y2="514.75"/>
    <line x1="80.00" y1="499.41" x2="720.00" y2="499.41"/>
    <line x1="80.00" y1="468.73" x2="720.00" y2="468.73"/>
    <line x1="80.00" y1="453.39" x2="720.00" y2="453.39"/>
    <line x1="80.00" y1="438.05" x2="720.00" y2="438.05"/>
    <line x1="80.00" y1="422.71" x2="720.00" y2="422.71"/>
    <line x1="80.00" y1="392.03" x2="720.00" y2="392.03"/>
    <line x1="80.00" y1="376.69" x2="720.00" y2="376.69"/>
    <line x1="80.00" y1="361.34" x2="720.00" y2="361.34"/>
    <line x1="80.00" y1="346.00" x2="720.00" y2="346.00"/>
    <line x1="80.00" y1="315.32" x2="720.00" y2="315.32"/>
    <line x1="80.00" y1="299.98" x2="720.00" y2="299.98"/>
    <line x1="80.00" y1="284.64" x2="720.00" y2="284.64"/>
    <line x1="80.00" y1="269.30" x2="720.00" y2="269.30"/>
    <line x1="80.00" y1="238.62" x2="720.00" y2="238.62"/>
    <line x1="80.00" y1="223.28" x2="720.00" y2="223.28"/>
    <line x1="80.00" y1="207.94" x2="720.00" y2="207.94"/>
    <line x1="80.00" y1="192.59" x2="720.00" y2="192.59"/>
    <line x1="80.00" y1="161.91" x2="720.00" y2="161.91"/>
    <line x1="80.00" y1="146.57" x2="720.00" y2="146.57"/>
    <line x1="80.00" y1="131.23" x2="720.00" y2="131.23"/>
    <line x1="80.00" y1="115.89" x2="720.00" y2="115.89"/>
    <line x1="80.00" y1="85.21" x2="720.00" y2="85.21"/>
    <line x1="80.00" y1="69.87" x2="720.00" y2="69.87"/>
  </g>
  <g stroke="#808080" stroke-width="2">
    <line x1="400.00" y1="540.00" x2="400.00" y2="60.00"/>
    <line x1="80.00" y1="330.66" x2="720.00" y2="330.66"/>
  </g>
  <polyline fill="none" stroke="#0066cc" stroke-width="2" points="400.00,330.66 384.73,216.96 342.84,126.45 282.94,71.95 216.02,60.00 153.60,90.18 105.87,155.49 80.18,243.84 80.00,340.21 104.63,429.19 149.50,497.44 207.16,535.70 268.59,540.00 324.80,511.98 368.20,458.27 393.75,389.10 399.62,316.43 387.23,251.86 360.79,204.83 326.44,181.24 291.08,182.69 261.17,206.66 241.71,247.16 235.54,296.09 243.04,344.73 262.27,385.31 289.55,412.23 320.25,422.82 349.67,417.51 373.93,399.47 390.55,373.71 398.78,345.98 399.52,321.60 395.01,304.47 388.21,296.44 382.10,297.16 379.05,304.40 380.37,314.68 386.07,324.24 394.97,329.91 405.03,329.91 413.93,324.24 419.63,314.68 420.95,304.40 417.90,297.16 411.79,296.44 404.99,304.47 400.48,321.60 401.22,345.98 409.45,373.71 426.07,399.47 450.33,417.51 479.75,422.82 510.45,412.23 537.73,385.31 556.96,344.73 564.46,296.09 558.29,247.16 538.83,206.66 508.92,182.69 473.56,181.24 439.21,204.83 412.77,251.86 400.38,316.43 406.25,389.10 431.80,458.27 475.20,511.98 531.41,540.00 592.84,535.70 650.50,497.44 695.37,429.19 720.00,340.21 719.82,243.84 694.13,155.49 646.40,90.18 583.98,60.00 517.06,71.95 457.16,126.45 415.27,216.96 400.00,330.66 "/>
</svg>
