<?xml version="1.0" encoding="UTF-8"?>
<svg xmlns="http://www.w3.org/2000/svg" width="800" height="600">
  <title>R=sin(t*3/2):-.25,2.93:</title>
  <rect width="800" height="600" fill="#ffffff"/>
  <g stroke="#d0d0d0" stroke-width="1">
    <line x1="54.48" y1="540.00" x2="54.48" y2="60.00"/>
    <line x1="387.25" y1="540.00" x2="387.25" y2="60.00"/>
    <line x1="720.02" y1="540.00" x2="720.02" y2="60.00"/>
    <line x1="80.00" y1="565.11" x2="720.00" y2="565.11"/>
    <line x1="80.00" y1="300.19" x2="720.00" y2="300.19"/>
    <line x1="80.00" y1="35.28" x2="720.00" y2="35.28"/>
  </g>
  <g stroke="#e8e8e8" stroke-width="0.5">
    <line x1="121.03" y1="540.00" x2="121.03" y2="60.00"/>
    <line x1="187.59" y1="540.00" x2="187.59" y2="60.00"/>
    <line x1="254.14" y1="540.00" x2="254.14" y2="60.00"/>
    <line x1="320.70" y1="540.00" x2="320.70" y2="60.00"/>
    <line x1="453.81" y1="540.00" x2="453.81" y2="60.00"/>
    <line x1="520.36" y1="540.00" x2="520.36" y2="60.00"/>
    <line x1="586.92" y1="540.00" x2="586.92" y2="60.00"/>
    <line x1="653.47" y1="540.00" x2="653.47" y2="60.00"/>
    <line x1="80.00" y1="512.12" x2="720.00" y2="512.12"/>
    <line x1="80.00" y1="459.14" x2="720.00" y2="459.14"/>
    <line x1="80.00" y1="406.16" x2="720.00" y2="406.16"/>
    <line x1="80.00" y1="353.18" x2="720.00" y2="353.18"/>
    <line x1="80.00" y1="247.21" x2="720.00" y2="247.21"/>
    <line x1="80.00" y1="194.23" x2="720.00" y2="194.23"/>
    <line x1="80.00" y1="141.25" x2="720.00" y2="141.25"/>
    <line x1="80.00" y1="88.26" x2="720.00" y2="88.26"/>
  </g>
  <g stroke="#808080" stroke-width="2">
    <line x1="387.25" y1="540.00" x2="387.25" y2="60.00"/>
    <line x1="80.00" y1="300.19" x2="720.00" y2="300.19"/>
  </g>
  <polyline fill="none" stroke="#0066cc" stroke-width="2" points="169.86,127.13 167.52,164.73 181.84,203.84 212.36,240.34 257.02,270.43 312.38,291.00 373.96,299.91 436.64,296.26 495.22,280.41 544.88,254.00 581.69,219.77 602.99,181.27 607.62,142.53 596.08,107.65 570.42,80.40 534.09,63.84 491.56,60.00 447.87,69.71 408.15,92.48 377.10,126.58 358.50,169.19 354.86,216.68 367.18,264.97 394.78,309.92 435.46,347.77 485.64,375.47 540.75,391.00 595.67,393.57 645.24,383.69 684.78,363.12 710.51,334.68 720.00,301.99 712.33,269.07 688.24,239.99 650.02,218.43 601.31,207.30 546.72,208.50 491.38,222.66 440.45,249.13 398.56,286.02 369.42,330.38 355.42,378.51 357.36,426.28 374.46,469.60 404.34,504.76 443.35,528.85 486.85,540.00 529.76,537.59 566.98,522.31 593.96,496.07 607.14,461.84 604.29,423.33 584.74,384.60 549.49,349.73 501.03,322.34 443.19,305.26 380.70,300.26 318.76,307.85 262.50,327.26 216.51,356.46 184.35,392.45 168.25,431.47 168.83,469.43 185.11,502.29 214.55,526.46 253.35,539.19 296.80,538.80 339.78,524.87 377.25,498.29 404.74,461.17 418.84,416.60 417.49,368.41 400.22,320.74 368.19,277.64 324.08,242.70 271.83,218.66 216.21,207.19 162.43,208.64 115.54,222.13 80.00,245.52 "/>
</svg>
