<?xml version="1.0" encoding="UTF-8"?>
<svg xmlns="http://www.w3.org/2000/svg" width="800" height="600">
  <title>R=sin(1.5*t+pi/2):.25,1.77:</title>
  <rect width="800" height="600" fill="#ffffff"/>
  <g stroke="#d0d0d0" stroke-width="1">
    <line x1="-82.88" y1="540.00" x2="-82.88" y2="60.00"/>
    <line x1="399.96" y1="540.00" x2="399.96" y2="60.00"/>
    <line x1="882.80" y1="540.00" x2="882.80" y2="60.00"/>
    <line x1="80.00" y1="576.33" x2="720.00" y2="576.33"/>
    <line x1="80.00" y1="182.02" x2="720.00" y2="182.02"/>
    <line x1="80.00" y1="-212.29" x2="720.00" y2="-212.29"/>
  </g>
  <g stroke="#e8e8e8" stroke-width="0.5">
    <line x1="110.26" y1="540.00" x2="110.26" y2="60.00"/>
    <line x1="206.83" y1="540.00" x2="206.83" y2="60.00"/>
    <line x1="303.39" y1="540.00" x2="303.39" y2="60.00"/>
    <line x1="496.53" y1="540.00" x2="496.53" y2="60.00"/>
    <line x1="593.10" y1="540.00" x2="593.10" y2="60.00"/>
    <line x1="689.67" y1="540.00" x2="689.67" y2="60.00"/>
    <line x1="80.00" y1="497.47" x2="720.00" y2="497.47"/>
    <line x1="80.00" y1="418.61" x2="720.00" y2="418.61"/>
    <line x1="80.00" y1="339.75" x2="720.00" y2="339.75"/>
    <line x1="80.00" y1="260.88" x2="720.00" y2="260.88"/>
    <line x1="80.00" y1="103.16" x2="720.00" y2="103.16"/>
  </g>
  <g stroke="#808080" stroke-width="2">
    <line x1="399.96" y1="540.00" x2="399.96" y2="60.00"/>
    <line x1="80.00" y1="182.02" x2="720.00" y2="182.02"/>
  </g>
  <polyline fill="none" stroke="#0066cc" stroke-width="2" points="530.62,75.32 495.20,94.22 462.43,116.90 432.98,142.95 407.46,171.89 386.37,203.18 370.10,236.23 358.96,270.37 353.09,304.96 352.55,339.30 357.24,372.72 366.97,404.55 381.40,434.18 400.10,461.01 422.53,484.53 448.06,504.30 476.00,519.96 505.59,531.22 536.03,537.93 566.49,539.99 596.16,537.45 624.23,530.43 649.91,519.16 672.49,503.97 691.31,485.26 705.80,463.51 715.49,439.29 720.00,413.18 719.09,385.84 712.63,357.93 700.61,330.14 683.15,303.12 660.50,277.53 633.02,253.98 601.18,233.04 565.54,215.20 526.77,200.88 485.57,190.43 442.74,184.09 399.10,182.02 355.47,184.26 312.69,190.76 271.58,201.37 232.91,215.84 197.41,233.81 165.73,254.87 138.43,278.51 115.98,304.16 98.74,331.22 86.93,359.04 80.69,386.94 80.00,414.24 84.72,440.28 94.61,464.42 109.28,486.06 128.26,504.64 150.97,519.69 176.77,530.79 204.91,537.64 234.62,540.00 265.10,537.75 295.52,530.86 325.06,519.42 352.92,503.60 378.34,483.67 400.64,460.01 419.18,433.06 433.43,403.34 442.96,371.43 447.45,337.96 446.70,303.60 440.63,269.01 429.27,234.90 412.81,201.91 391.54,170.70 365.85,141.86 336.26,115.94 303.37,93.40 267.86,74.65 230.49,60.00 "/>
</svg>
