<?xml version="1.0" encoding="UTF-8"?>
<svg xmlns="http://www.w3.org/2000/svg" width="800" height="600">
  <title>R=cos(t/2):0,4:</title>
  <rect width="800" height="600" fill="#ffffff"/>
  <g stroke="#d0d0d0" stroke-width="1">
    <line x1="78.73" y1="540.00" x2="78.73" y2="60.00"/>
    <line x1="399.37" y1="540.00" x2="399.37" y2="60.00"/>
    <line x1="720.00" y1="540.00" x2="720.00" y2="60.00"/>
    <line x1="80.00" y1="612.11" x2="720.00" y2="612.11"/>
    <line x1="80.00" y1="300.00" x2="720.00" y2="300.00"/>
    <line x1="80.00" y1="-12.11" x2="720.00" y2="-12.11"/>
  </g>
  <g stroke="#e8e8e8" stroke-width="0.5">
    <line x1="142.86" y1="540.00" x2="142.86" y2="60.00"/>
    <line x1="206.99" y1="540.00" x2="206.99" y2="60.00"/>
    <line x1="271.11" y1="540.00" x2="271.11" y2="60.00"/>
    <line x1="335.24" y1="540.00" x2="335.24" y2="60.00"/>
    <line x1="463.49" y1="540.00" x2="463.49" y2="60.00"/>
    <line x1="527.62" y1="540.00" x2="527.62" y2="60.00"/>
    <line x1="591.75" y1="540.00" x2="591.75" y2="60.00"/>
    <line x1="655.87" y1="540.00" x2="655.87" y2="60.00"/>
    <line x1="80.00" y1="487.26" x2="720.00" y2="487.26"/>
    <line x1="80.00" y1="424.84" x2="720.00" y2="424.84"/>
    <line x1="80.00" y1="362.42" x2="720.00" y2="362.42"/>
    <line x1="80.00" y1="237.58" x2="720.00" y2="237.58"/>
    <line x1="80.00" y1="175.16" x2="720.00" y2="175.16"/>
    <line x1="80.00" y1="112.74" x2="720.00" y2="112.74"/>
  </g>
  <g stroke="#808080" stroke-width="2">
    <line x1="399.37" y1="540.00" x2="399.37" y2="60.00"/>
    <line x1="80.00" y1="300.00" x2="720.00" y2="300.00"/>
  </g>
  <polyline fill="none" stroke="#0066cc" stroke-width="2" points="720.00,300.00 714.95,250.72 700.07,203.61 676.11,160.71 644.32,123.85 606.31,94.52 564.01,73.78 519.56,62.25 475.15,60.05 432.93,66.77 394.90,81.55 362.78,103.11 337.90,129.78 321.17,159.70 313.00,190.81 313.28,221.06 321.42,248.48 336.35,271.31 356.60,288.10 380.39,297.79 405.74,299.75 430.56,293.88 452.82,280.54 470.62,260.57 482.31,235.24 486.63,206.17 482.73,175.23 470.26,144.46 449.37,115.92 420.72,91.58 385.45,73.23 345.10,62.34 301.52,60.00 256.81,66.85 213.17,83.02 172.76,108.17 137.63,141.42 109.58,181.51 90.03,226.76 80.00,275.22 80.00,324.78 90.03,373.24 109.58,418.49 137.63,458.58 172.76,491.83 213.17,516.98 256.81,533.15 301.52,540.00 345.10,537.66 385.45,526.77 420.72,508.42 449.37,484.08 470.26,455.54 482.73,424.77 486.63,393.83 482.31,364.76 470.62,339.43 452.82,319.46 430.56,306.12 405.74,300.25 380.39,302.21 356.60,311.90 336.35,328.69 321.42,351.52 313.28,378.94 313.00,409.19 321.17,440.30 337.90,470.22 362.78,496.89 394.90,518.45 432.93,533.23 475.15,539.95 519.56,537.75 564.01,526.22 606.31,505.48 644.32,476.15 676.11,439.29 700.07,396.39 714.95,349.28 720.00,300.00 "/>
</svg>
