<?xml version="1.0" encoding="UTF-8"?>
<svg xmlns="http://www.w3.org/2000/svg" width="800" height="600">
  <title>R=1-1.5*sin(t)</title>
  <rect width="800" height="600" fill="#ffffff"/>
  <g stroke="#d0d0d0" stroke-width="1">
    <line x1="-19.94" y1="540.00" x2="-19.94" y2="60.00"/>
    <line x1="190.16" y1="540.00" x2="190.16" y2="60.00"/>
    <line x1="400.27" y1="540.00" x2="400.27" y2="60.00"/>
    <line x1="610.38" y1="540.00" x2="610.38" y2="60.00"/>
    <line x1="820.48" y1="540.00" x2="820.48" y2="60.00"/>
    <line x1="80.00" y1="630.12" x2="720.00" y2="630.12"/>
    <line x1="80.00" y1="450.08" x2="720.00" y2="450.08"/>
    <line x1="80.00" y1="270.03" x2="720.00" y2="270.03"/>
    <line x1="80.00" y1="89.98" x2="720.00" y2="89.98"/>
    <line x1="80.00" y1="-90.06" x2="720.00" y2="-90.06"/>
  </g>
  <g stroke="#e8e8e8" stroke-width="0.5">
    <line x1="106.12" y1="540.00" x2="106.12" y2="60.00"/>
    <line x1="148.14" y1="540.00" x2="148.14" y2="60.00"/>
    <line x1="232.19" y1="540.00" x2="232.19" y2="60.00"/>
    <line x1="274.21" y1="540.00" x2="274.21" y2="60.00"/>
    <line x1="316.23" y1="540.00" x2="316.23" y2="60.00"/>
    <line x1="358.25" y1="540.00" x2="358.25" y2="60.00"/>
    <line x1="442.29" y1="540.00" x2="442.29" y2="60.00"/>
    <line x1="484.31" y1="540.00" x2="484.31" y2="60.00"/>
    <line x1="526.33" y1="540.00" x2="526.33" y2="60.00"/>
    <line x1="568.35" y1="540.00" x2="568.35" y2="60.00"/>
    <line x1="652.40" y1="540.00" x2="652.40" y2="60.00"/>
    <line x1="694.42" y1="540.00" x2="694.42" y2="60.00"/>
    <line x1="80.00" y1="522.10" x2="720.00" y2="522.10"/>
    <line x1="80.00" y1="486.09" x2="720.00" y2="486.09"/>
    <line x1="80.00" y1="414.07" x2="720.00" y2="414.07"/>
    <line x1="80.00" y1="378.06" x2="720.00" y2="378.06"/>
    <line x1="80.00" y1="342.05" x2="720.00" y2="342.05"/>
    <line x1="80.00" y1="306.04" x2="720.00" y2="306.04"/>
    <line x1="80.00" y1="234.02" x2="720.00" y2="234.02"/>
    <line x1="80.00" y1="198.01" x2="720.00" y2="198.01"/>
    <line x1="80.00" y1="162.00" x2="720.00" y2="162.00"/>
    <line x1="80.00" y1="125.99" x2="720.00" y2="125.99"/>
  </g>
  <g stroke="#808080" stroke-width="2">
    <line x1="400.27" y1="540.00" x2="400.27" y2="60.00"/>
    <line x1="80.00" y1="89.98" x2="720.00" y2="89.98"/>
  </g>
  <polyline fill="none" stroke="#0066cc" stroke-width="2" points="606.40,87.76 580.67,75.73 554.36,67.14 528.07,61.94 502.40,60.00 477.92,61.11 455.11,64.99 434.42,71.30 416.21,79.65 400.76,89.61 388.26,100.72 378.80,112.50 372.38,124.49 368.92,136.22 368.24,147.24 370.08,157.16 374.10,165.61 379.91,172.31 387.05,177.01 395.03,179.56 403.34,179.85 411.46,177.89 418.87,173.75 425.07,167.55 429.60,159.53 432.04,149.96 432.05,139.19 429.35,127.61 423.72,115.65 415.06,103.77 403.35,92.44 388.66,82.13 371.15,73.31 351.08,66.43 328.79,61.87 304.70,60.01 279.29,61.12 253.11,65.45 226.74,73.14 200.80,84.27 175.92,98.83 152.72,116.71 131.82,137.75 113.79,161.67 99.17,188.13 88.41,216.73 81.92,246.99 80.00,278.39 82.87,310.37 90.65,342.34 103.34,373.70 120.85,403.84 142.99,432.19 169.46,458.18 199.85,481.30 233.69,501.08 270.43,517.13 309.43,529.11 350.02,536.78 391.50,540.00 433.13,538.69 474.18,532.87 513.94,522.68 551.70,508.31 586.83,490.06 618.74,468.29 646.92,443.45 670.92,416.03 690.41,386.57 705.15,355.65 715.00,323.86 719.92,291.81 720.00,260.10 715.40,229.29 706.40,199.93 693.35,172.52 676.69,147.48 656.93,125.20 634.62,105.96 610.38,89.98 "/>
</svg>
