<?xml version="1.0" encoding="UTF-8"?>
<svg xmlns="http://www.w3.org/2000/svg" width="800" height="600">
  <title>R=1/cos(t):-1,1:</title>
  <rect width="800" height="600" fill="#ffffff"/>
  <g stroke="#d0d0d0" stroke-width="1">
    <line x1="-560.00" y1="540.00" x2="-560.00" y2="60.00"/>
    <line x1="80.00" y1="540.00" x2="80.00" y2="60.00"/>
    <line x1="80.00" y1="543.41" x2="80.00" y2="543.41"/>
    <line x1="80.00" y1="538.63" x2="80.00" y2="538.63"/>
    <line x1="80.00" y1="533.86" x2="80.00" y2="533.86"/>
    <line x1="80.00" y1="529.09" x2="80.00" y2="529.09"/>
    <line x1="80.00" y1="524.32" x2="80.00" y2="524.32"/>
    <line x1="80.00" y1="519.54" x2="80.00" y2="519.54"/>
    <line x1="80.00" y1="514.77" x2="80.00" y2="514.77"/>
    <line x1="80.00" y1="510.00" x2="80.00" y2="510.00"/>
    <line x1="80.00" y1="505.22" x2="80.00" y2="505.22"/>
    <line x1="80.00" y1="500.45" x2="80.00" y2="500.45"/>
    <line x1="80.00" y1="495.68" x2="80.00" y2="495.68"/>
    <line x1="80.00" y1="490.91" x2="80.00" y2="490.91"/>
    <line x1="80.00" y1="486.13" x2="80.00" y2="486.13"/>
    <line x1="80.00" y1="481.36" x2="80.00" y2="481.36"/>
    <line x1="80.00" y1="476.59" x2="80.00" y2="476.59"/>
    <line x1="80.00" y1="471.82" x2="80.00" y2="471.82"/>
    <line x1="80.00" y1="467.04" x2="80.00" y2="467.04"/>
    <line x1="80.00" y1="462.27" x2="80.00" y2="462.27"/>
    <line x1="80.00" y1="457.50" x2="80.00" y2="457.50"/>
    <line x1="80.00" y1="452.73" x2="80.00" y2="452.73"/>
    <line x1="80.00" y1="447.95" x2="80.00" y2="447.95"/>
    <line x1="80.00" y1="443.18" x2="80.00" y2="443.18"/>
    <line x1="80.00" y1="438.41" x2="80.00" y2="438.41"/>
    <line x1="80.00" y1="433.63" x2="80.00" y2="433.63"/>
    <line x1="80.00" y1="428.86" x2="80.00" y2="428.86"/>
    <line x1="80.00" y1="424.09" x2="80.00" y2="424.09"/>
    <line x1="80.00" y1="419.32" x2="80.00" y2="419.32"/>
    <line x1="80.00" y1="414.54" x2="80.00" y2="414.54"/>
    <line x1="80.00" y1="409.77" x2="80.00" y2="409.77"/>
    <line x1="80.00" y1="405.00" x2="80.00" y2="405.00"/>
    <line x1="80.00" y1="400.23" x2="80.00" y2="400.23"/>
    <line x1="80.00" y1="395.45" x2="80.00" y2="395.45"/>
    <line x1="80.00" y1="390.68" x2="80.00" y2="390.68"/>
    <line x1="80.00" y1="385.91" x2="80.00" y2="385.91"/>
    <line x1="80.00" y1="381.14" x2="80.00" y2="381.14"/>
    <line x1="80.00" y1="376.36" x2="80.00" y2="376.36"/>
    <line x1="80.00" y1="371.59" x2="80.00" y2="371.59"/>
    <line x1="80.00" y1="366.82" x2="80.00" y2="366.82"/>
    <line x1="80.00" y1="362.04" x2="80.00" y2="362.04"/>
    <line x1="80.00" y1="357.27" x2="80.00" y2="357.27"/>
    <line x1="80.00" y1="352.50" x2="80.00" y2="352.50"/>
    <line x1="80.00" y1="347.73" x2="80.00" y2="347.73"/>
    <line x1="80.00" y1="342.95" x2="80.00" y2="342.95"/>
    <line x1="80.00" y1="338.18" x2="80.00" y2="338.18"/>
    <line x1="80.00" y1="333.41" x2="80.00" y2="333.41"/>
    <line x1="80.00" y1="328.64" x2="80.00" y2="328.64"/>
    <line x1="80.00" y1="323.86" x2="80.00" y2="323.86"/>
    <line x1="80.00" y1="319.09" x2="80.00" y2="319.09"/>
    <line x1="80.00" y1="314.32" x2="80.00" y2="314.32"/>
    <line x1="80.00" y1="309.55" x2="80.00" y2="309.55"/>
    <line x1="80.00" y1="304.77" x2="80.00" y2="304.77"/>
    <line x1="80.00" y1="300.00" x2="80.00" y2="300.00"/>
    <line x1="80.00" y1="295.23" x2="80.00" y2="295.23"/>
    <line x1="80.00" y1="290.45" x2="80.00" y2="290.45"/>
    <line x1="80.00" y1="285.68" x2="80.00" y2="285.68"/>
    <line x1="80.00" y1="280.91" x2="80.00" y2="280.91"/>
    <line x1="80.00" y1="276.14" x2="80.00" y2="276.14"/>
    <line x1="80.00" y1="271.36" x2="80.00" y2="271.36"/>
    <line x1="80.00" y1="266.59" x2="80.00" y2="266.59"/>
    <line x1="80.00" y1="261.82" x2="80.00" y2="261.82"/>
    <line x1="80.00" y1="257.05" x2="80.00" y2="257.05"/>
    <line x1="80.00" y1="252.27" x2="80.00" y2="252.27"/>
    <line x1="80.00" y1="247.50" x2="80.00" y2="247.50"/>
    <line x1="80.00" y1="242.73" x2="80.00" y2="242.73"/>
    <line x1="80.00" y1="237.96" x2="80.00" y2="237.96"/>
    <line x1="80.00" y1="233.18" x2="80.00" y2="233.18"/>
    <line x1="80.00" y1="228.41" x2="80.00" y2="228.41"/>
    <line x1="80.00" y1="223.64" x2="80.00" y2="223.64"/>
    <line x1="80.00" y1="218.86" x2="80.00" y2="218.86"/>
    <line x1="80.00" y1="214.09" x2="80.00" y2="214.09"/>
    <line x1="80.00" y1="209.32" x2="80.00" y2="209.32"/>
    <line x1="80.00" y1="204.55" x2="80.00" y2="204.55"/>
    <line x1="80.00" y1="199.77" x2="80.00" y2="199.77"/>
    <line x1="80.00" y1="195.00" x2="80.00" y2="195.00"/>
    <line x1="80.00" y1="190.23" x2="80.00" y2="190.23"/>
    <line x1="80.00" y1="185.46" x2="80.00" y2="185.46"/>
    <line x1="80.00" y1="180.68" x2="80.00" y2="180.68"/>
    <line x1="80.00" y1="175.91" x2="80.00" y2="175.91"/>
    <line x1="80.00" y1="171.14" x2="80.00" y2="171.14"/>
    <line x1="80.00" y1="166.37" x2="80.00" y2="166.37"/>
    <line x1="80.00" y1="161.59" x2="80.00" y2="161.59"/>
    <line x1="80.00" y1="156.82" x2="80.00" y2="156.82"/>
    <line x1="80.00" y1="152.05" x2="80.00" y2="152.05"/>
    <line x1="80.00" y1="147.27" x2="80.00" y2="147.27"/>
    <line x1="80.00" y1="142.50" x2="80.00" y2="142.50"/>
    <line x1="80.00" y1="137.73" x2="80.00" y2="137.73"/>
    <line x1="80.00" y1="132.96" x2="80.00" y2="132.96"/>
    <line x1="80.00" y1="128.18" x2="80.00" y2="128.18"/>
    <line x1="80.00" y1="123.41" x2="80.00" y2="123.41"/>
    <line x1="80.00" y1="118.64" x2="80.00" y2="118.64"/>
    <line x1="80.00" y1="113.87" x2="80.00" y2="113.87"/>
    <line x1="80.00" y1="109.09" x2="80.00" y2="109.09"/>
    <line x1="80.00" y1="104.32" x2="80.00" y2="104.32"/>
    <line x1="80.00" y1="99.55" x2="80.00" y2="99.55"/>
    <line x1="80.00" y1="94.78" x2="80.00" y2="94.78"/>
    <line x1="80.00" y1="90.00" x2="80.00" y2="90.00"/>
    <line x1="80.00" y1="85.23" x2="80.00" y2="85.23"/>
    <line x1="80.00" y1="80.46" x2="80.00" y2="80.46"/>
    <line x1="80.00" y1="75.68" x2="80.00" y2="75.68"/>
    <line x1="80.00" y1="70.91" x2="80.00" y2="70.91"/>
    <line x1="80.00" y1="66.14" x2="80.00" y2="66.14"/>
    <line x1="80.00" y1="61.37" x2="80.00" y2="61.37"/>
    <line x1="80.00" y1="56.59" x2="80.00" y2="56.59"/>
  </g>
  <g stroke="#e8e8e8" stroke-width="0.5">
    <line x1="80.00" y1="539.59" x2="80.00" y2="539.59"/>
    <line x1="80.00" y1="537.68" x2="80.00" y2="537.68"/>
    <line x1="80.00" y1="536.72" x2="80.00" y2="536.72"/>
    <line x1="80.00" y1="535.77" x2="80.00" y2="535.77"/>
    <line x1="80.00" y1="534.82" x2="80.00" y2="534.82"/>
    <line x1="80.00" y1="532.91" x2="80.00" y2="532.91"/>
    <line x1="80.00" y1="531.95" x2="80.00" y2="531.95"/>
    <line x1="80.00" y1="531.00" x2="80.00" y2="531.00"/>
    <line x1="80.00" y1="530.04" x2="80.00" y2="530.04"/>
    <line x1="80.00" y1="528.13" x2="80.00" y2="528.13"/>
    <line x1="80.00" y1="527.18" x2="80.00" y2="527.18"/>
    <line x1="80.00" y1="526.22" x2="80.00" y2="526.22"/>
    <line x1="80.00" y1="525.27" x2="80.00" y2="525.27"/>
    <line x1="80.00" y1="523.36" x2="80.00" y2="523.36"/>
    <line x1="80.00" y1="522.41" x2="80.00" y2="522.41"/>
    <line x1="80.00" y1="521.45" x2="80.00" y2="521.45"/>
    <line x1="80.00" y1="520.50" x2="80.00" y2="520.50"/>
    <line x1="80.00" y1="518.59" x2="80.00" y2="518.59"/>
    <line x1="80.00" y1="517.63" x2="80.00" y2="517.63"/>
    <line x1="80.00" y1="516.68" x2="80.00" y2="516.68"/>
    <line x1="80.00" y1="515.72" x2="80.00" y2="515.72"/>
    <line x1="80.00" y1="513.82" x2="80.00" y2="513.82"/>
    <line x1="80.00" y1="512.86" x2="80.00" y2="512.86"/>
    <line x1="80.00" y1="511.91" x2="80.00" y2="511.91"/>
    <line x1="80.00" y1="510.95" x2="80.00" y2="510.95"/>
    <line x1="80.00" y1="509.04" x2="80.00" y2="509.04"/>
    <line x1="80.00" y1="508.09" x2="80.00" y2="508.09"/>
    <line x1="80.00" y1="507.13" x2="80.00" y2="507.13"/>
    <line x1="80.00" y1="506.18" x2="80.00" y2="506.18"/>
    <line x1="80.00" y1="504.27" x2="80.00" y2="504.27"/>
    <line x1="80.00" y1="503.32" x2="80.00" y2="503.32"/>
    <line x1="80.00" y1="502.36" x2="80.00" y2="502.36"/>
    <line x1="80.00" y1="501.41" x2="80.00" y2="501.41"/>
    <line x1="80.00" y1="499.50" x2="80.00" y2="499.50"/>
    <line x1="80.00" y1="498.54" x2="80.00" y2="498.54"/>
    <line x1="80.00" y1="497.59" x2="80.00" y2="497.59"/>
    <line x1="80.00" y1="496.63" x2="80.00" y2="496.63"/>
    <line x1="80.00" y1="494.72" x2="80.00" y2="494.72"/>
    <line x1="80.00" y1="493.77" x2="80.00" y2="493.77"/>
    <line x1="80.00" y1="492.82" x2="80.00" y2="492.82"/>
    <line x1="80.00" y1="491.86" x2="80.00" y2="491.86"/>
    <line x1="80.00" y1="489.95" x2="80.00" y2="489.95"/>
    <line x1="80.00" y1="489.00" x2="80.00" y2="489.00"/>
    <line x1="80.00" y1="488.04" x2="80.00" y2="488.04"/>
    <line x1="80.00" y1="487.09" x2="80.00" y2="487.09"/>
    <line x1="80.00" y1="485.18" x2="80.00" y2="485.18"/>
    <line x1="80.00" y1="484.23" x2="80.00" y2="484.23"/>
    <line x1="80.00" y1="483.27" x2="80.00" y2="483.27"/>
    <line x1="80.00" y1="482.32" x2="80.00" y2="482.32"/>
    <line x1="80.00" y1="480.41" x2="80.00" y2="480.41"/>
    <line x1="80.00" y1="479.45" x2="80.00" y2="479.45"/>
    <line x1="80.00" y1="478.50" x2="80.00" y2="478.50"/>
    <line x1="80.00" y1="477.54" x2="80.00" y2="477.54"/>
    <line x1="80.00" y1="475.63" x2="80.00" y2="475.63"/>
    <line x1="80.00" y1="474.68" x2="80.00" y2="474.68"/>
    <line x1="80.00" y1="473.73" x2="80.00" y2="473.73"/>
    <line x1="80.00" y1="472.77" x2="80.00" y2="472.77"/>
    <line x1="80.00" y1="470.86" x2="80.00" y2="470.86"/>
    <line x1="80.00" y1="469.91" x2="80.00" y2="469.91"/>
    <line x1="80.00" y1="468.95" x2="80.00" y2="468.95"/>
    <line x1="80.00" y1="468.00" x2="80.00" y2="468.00"/>
    <line x1="80.00" y1="466.09" x2="80.00" y2="466.09"/>
    <line x1="80.00" y1="465.13" x2="80.00" y2="465.13"/>
    <line x1="80.00" y1="464.18" x2="80.00" y2="464.18"/>
    <line x1="80.00" y1="463.23" x2="80.00" y2="463.23"/>
    <line x1="80.00" y1="461.32" x2="80.00" y2="461.32"/>
    <line x1="80.00" y1="460.36" x2="80.00" y2="460.36"/>
    <line x1="80.00" y1="459.41" x2="80.00" y2="459.41"/>
    <line x1="80.00" y1="458.45" x2="80.00" y2="458.45"/>
    <line x1="80.00" y1="456.54" x2="80.00" y2="456.54"/>
    <line x1="80.00" y1="455.59" x2="80.00" y2="455.59"/>
    <line x1="80.00" y1="454.63" x2="80.00" y2="454.63"/>
    <line x1="80.00" y1="453.68" x2="80.00" y2="453.68"/>
    <line x1="80.00" y1="451.77" x2="80.00" y2="451.77"/>
    <line x1="80.00" y1="450.82" x2="80.00" y2="450.82"/>
    <line x1="80.00" y1="449.86" x2="80.00" y2="449.86"/>
    <line x1="80.00" y1="448.91" x2="80.00" y2="448.91"/>
    <line x1="80.00" y1="447.00" x2="80.00" y2="447.00"/>
    <line x1="80.00" y1="446.04" x2="80.00" y2="446.04"/>
    <line x1="80.00" y1="445.09" x2="80.00" y2="445.09"/>
    <line x1="80.00" y1="444.13" x2="80.00" y2="444.13"/>
    <line x1="80.00" y1="442.23" x2="80.00" y2="442.23"/>
    <line x1="80.00" y1="441.27" x2="80.00" y2="441.27"/>
    <line x1="80.00" y1="440.32" x2="80.00" y2="440.32"/>
    <line x1="80.00" y1="439.36" x2="80.00" y2="439.36"/>
    <line x1="80.00" y1="437.45" x2="80.00" y2="437.45"/>
    <line x1="80.00" y1="436.50" x2="80.00" y2="436.50"/>
    <line x1="80.00" y1="435.54" x2="80.00" y2="435.54"/>
    <line x1="80.00" y1="434.59" x2="80.00" y2="434.59"/>
    <line x1="80.00" y1="432.68" x2="80.00" y2="432.68"/>
    <line x1="80.00" y1="431.73" x2="80.00" y2="431.73"/>
    <line x1="80.00" y1="430.77" x2="80.00" y2="430.77"/>
    <line x1="80.00" y1="429.82" x2="80.00" y2="429.82"/>
    <line x1="80.00" y1="427.91" x2="80.00" y2="427.91"/>
    <line x1="80.00" y1="426.95" x2="80.00" y2="426.95"/>
    <line x1="80.00" y1="426.00" x2="80.00" y2="426.00"/>
    <line x1="80.00" y1="425.04" x2="80.00" y2="425.04"/>
    <line x1="80.00" y1="423.13" x2="80.00" y2="423.13"/>
    <line x1="80.00" y1="422.18" x2="80.00" y2="422.18"/>
    <line x1="80.00" y1="421.23" x2="80.00" y2="421.23"/>
    <line x1="80.00" y1="420.27" x2="80.00" y2="420.27"/>
    <line x1="80.00" y1="418.36" x2="80.00" y2="418.36"/>
    <line x1="80.00" y1="417.41" x2="80.00" y2="417.41"/>
    <line x1="80.00" y1="416.45" x2="80.00" y2="416.45"/>
    <line x1="80.00" y1="415.50" x2="80.00" y2="415.50"/>
    <line x1="80.00" y1="413.59" x2="80.00" y2="413.59"/>
    <line x1="80.00" y1="412.63" x2="80.00" y2="412.63"/>
    <line x1="80.00" y1="411.68" x2="80.00" y2="411.68"/>
    <line x1="80.00" y1="410.73" x2="80.00" y2="410.73"/>
    <line x1="80.00" y1="408.82" x2="80.00" y2="408.82"/>
    <line x1="80.00" y1="407.86" x2="80.00" y2="407.86"/>
    <line x1="80.00" y1="406.91" x2="80.00" y2="406.91"/>
    <line x1="80.00" y1="405.95" x2="80.00" y2="405.95"/>
    <line x1="80.00" y1="404.04" x2="80.00" y2="404.04"/>
    <line x1="80.00" y1="403.09" x2="80.00" y2="403.09"/>
    <line x1="80.00" y1="402.14" x2="80.00" y2="402.14"/>
    <line x1="80.00" y1="401.18" x2="80.00" y2="401.18"/>
    <line x1="80.00" y1="399.27" x2="80.00" y2="399.27"/>
    <line x1="80.00" y1="398.32" x2="80.00" y2="398.32"/>
    <line x1="80.00" y1="397.36" x2="80.00" y2="397.36"/>
    <line x1="80.00" y1="396.41" x2="80.00" y2="396.41"/>
    <line x1="80.00" y1="394.50" x2="80.00" y2="394.50"/>
    <line x1="80.00" y1="393.54" x2="80.00" y2="393.54"/>
    <line x1="80.00" y1="392.59" x2="80.00" y2="392.59"/>
    <line x1="80.00" y1="391.64" x2="80.00" y2="391.64"/>
    <line x1="80.00" y1="389.73" x2="80.00" y2="389.73"/>
    <line x1="80.00" y1="388.77" x2="80.00" y2="388.77"/>
    <line x1="80.00" y1="387.82" x2="80.00" y2="387.82"/>
    <line x1="80.00" y1="386.86" x2="80.00" y2="386.86"/>
    <line x1="80.00" y1="384.95" x2="80.00" y2="384.95"/>
    <line x1="80.00" y1="384.00" x2="80.00" y2="384.00"/>
    <line x1="80.00" y1="383.04" x2="80.00" y2="383.04"/>
    <line x1="80.00" y1="382.09" x2="80.00" y2="382.09"/>
    <line x1="80.00" y1="380.18" x2="80.00" y2="380.18"/>
    <line x1="80.00" y1="379.23" x2="80.00" y2="379.23"/>
    <line x1="80.00" y1="378.27" x2="80.00" y2="378.27"/>
    <line x1="80.00" y1="377.32" x2="80.00" y2="377.32"/>
    <line x1="80.00" y1="375.41" x2="80.00" y2="375.41"/>
    <line x1="80.00" y1="374.45" x2="80.00" y2="374.45"/>
    <line x1="80.00" y1="373.50" x2="80.00" y2="373.50"/>
    <line x1="80.00" y1="372.54" x2="80.00" y2="372.54"/>
    <line x1="80.00" y1="370.64" x2="80.00" y2="370.64"/>
    <line x1="80.00" y1="369.68" x2="80.00" y2="369.68"/>
    <line x1="80.00" y1="368.73" x2="80.00" y2="368.73"/>
    <line x1="80.00" y1="367.77" x2="80.00" y2="367.77"/>
    <line x1="80.00" y1="365.86" x2="80.00" y2="365.86"/>
    <line x1="80.00" y1="364.91" x2="80.00" y2="364.91"/>
    <line x1="80.00" y1="363.95" x2="80.00" y2="363.95"/>
    <line x1="80.00" y1="363.00" x2="80.00" y2="363.00"/>
    <line x1="80.00" y1="361.09" x2="80.00" y2="361.09"/>
    <line x1="80.00" y1="360.14" x2="80.00" y2="360.14"/>
    <line x1="80.00" y1="359.18" x2="80.00" y2="359.18"/>
    <line x1="80.00" y1="358.23" x2="80.00" y2="358.23"/>
    <line x1="80.00" y1="356.32" x2="80.00" y2="356.32"/>
    <line x1="80.00" y1="355.36" x2="80.00" y2="355.36"/>
    <line x1="80.00" y1="354.41" x2="80.00" y2="354.41"/>
    <line x1="80.00" y1="353.45" x2="80.00" y2="353.45"/>
    <line x1="80.00" y1="351.54" x2="80.00" y2="351.54"/>
    <line x1="80.00" y1="350.59" x2="80.00" y2="350.59"/>
    <line x1="80.00" y1="349.64" x2="80.00" y2="349.64"/>
    <line x1="80.00" y1="348.68" x2="80.00" y2="348.68"/>
    <line x1="80.00" y1="346.77" x2="80.00" y2="346.77"/>
    <line x1="80.00" y1="345.82" x2="80.00" y2="345.82"/>
    <line x1="80.00" y1="344.86" x2="80.00" y2="344.86"/>
    <line x1="80.00" y1="343.91" x2="80.00" y2="343.91"/>
    <line x1="80.00" y1="342.00" x2="80.00" y2="342.00"/>
    <line x1="80.00" y1="341.04" x2="80.00" y2="341.04"/>
    <line x1="80.00" y1="340.09" x2="80.00" y2="340.09"/>
    <line x1="80.00" y1="339.14" x2="80.00" y2="339.14"/>
    <line x1="80.00" y1="337.23" x2="80.00" y2="337.23"/>
    <line x1="80.00" y1="336.27" x2="80.00" y2="336.27"/>
    <line x1="80.00" y1="335.32" x2="80.00" y2="335.32"/>
    <line x1="80.00" y1="334.36" x2="80.00" y2="334.36"/>
    <line x1="80.00" y1="332.45" x2="80.00" y2="332.45"/>
    <line x1="80.00" y1="331.50" x2="80.00" y2="331.50"/>
    <line x1="80.00" y1="330.55" x2="80.00" y2="330.55"/>
    <line x1="80.00" y1="329.59" x2="80.00" y2="329.59"/>
    <line x1="80.00" y1="327.68" x2="80.00" y2="327.68"/>
    <line x1="80.00" y1="326.73" x2="80.00" y2="326.73"/>
    <line x1="80.00" y1="325.77" x2="80.00" y2="325.77"/>
    <line x1="80.00" y1="324.82" x2="80.00" y2="324.82"/>
    <line x1="80.00" y1="322.91" x2="80.00" y2="322.91"/>
    <line x1="80.00" y1="321.95" x2="80.00" y2="321.95"/>
    <line x1="80.00" y1="321.00" x2="80.00" y2="321.00"/>
    <line x1="80.00" y1="320.05" x2="80.00" y2="320.05"/>
    <line x1="80.00" y1="318.14" x2="80.00" y2="318.14"/>
    <line x1="80.00" y1="317.18" x2="80.00" y2="317.18"/>
    <line x1="80.00" y1="316.23" x2="80.00" y2="316.23"/>
    <line x1="80.00" y1="315.27" x2="80.00" y2="315.27"/>
    <line x1="80.00" y1="313.36" x2="80.00" y2="313.36"/>
    <line x1="80.00" y1="312.41" x2="80.00" y2="312.41"/>
    <line x1="80.00" y1="311.45" x2="80.00" y2="311.45"/>
    <line x1="80.00" y1="310.50" x2="80.00" y2="310.50"/>
    <line x1="80.00" y1="308.59" x2="80.00" y2="308.59"/>
    <line x1="80.00" y1="307.64" x2="80.00" y2="307.64"/>
    <line x1="80.00" y1="306.68" x2="80.00" y2="306.68"/>
    <line x1="80.00" y1="305.73" x2="80.00" y2="305.73"/>
    <line x1="80.00" y1="303.82" x2="80.00" y2="303.82"/>
    <line x1="80.00" y1="302.86" x2="80.00" y2="302.86"/>
    <line x1="80.00" y1="301.91" x2="80.00" y2="301.91"/>
    <line x1="80.00" y1="300.95" x2="80.00" y2="300.95"/>
    <line x1="80.00" y1="299.05" x2="80.00" y2="299.05"/>
    <line x1="80.00" y1="298.09" x2="80.00" y2="298.09"/>
    <line x1="80.00" y1="297.14" x2="80.00" y2="297.14"/>
    <line x1="80.00" y1="296.18" x2="80.00" y2="296.18"/>
    <line x1="80.00" y1="294.27" x2="80.00" y2="294.27"/>
    <line x1="80.00" y1="293.32" x2="80.00" y2="293.32"/>
    <line x1="80.00" y1="292.36" x2="80.00" y2="292.36"/>
    <line x1="80.00" y1="291.41" x2="80.00" y2="291.41"/>
    <line x1="80.00" y1="289.50" x2="80.00" y2="289.50"/>
    <line x1="80.00" y1="288.55" x2="80.00" y2="288.55"/>
    <line x1="80.00" y1="287.59" x2="80.00" y2="287.59"/>
    <line x1="80.00" y1="286.64" x2="80.00" y2="286.64"/>
    <line x1="80.00" y1="284.73" x2="80.00" y2="284.73"/>
    <line x1="80.00" y1="283.77" x2="80.00" y2="283.77"/>
    <line x1="80.00" y1="282.82" x2="80.00" y2="282.82"/>
    <line x1="80.00" y1="281.86" x2="80.00" y2="281.86"/>
    <line x1="80.00" y1="279.95" x2="80.00" y2="279.95"/>
    <line x1="80.00" y1="279.00" x2="80.00" y2="279.00"/>
    <line x1="80.00" y1="278.05" x2="80.00" y2="278.05"/>
    <line x1="80.00" y1="277.09" x2="80.00" y2="277.09"/>
    <line x1="80.00" y1="275.18" x2="80.00" y2="275.18"/>
    <line x1="80.00" y1="274.23" x2="80.00" y2="274.23"/>
    <line x1="80.00" y1="273.27" x2="80.00" y2="273.27"/>
    <line x1="80.00" y1="272.32" x2="80.00" y2="272.32"/>
    <line x1="80.00" y1="270.41" x2="80.00" y2="270.41"/>
    <line x1="80.00" y1="269.45" x2="80.00" y2="269.45"/>
    <line x1="80.00" y1="268.50" x2="80.00" y2="268.50"/>
    <line x1="80.00" y1="267.55" x2="80.00" y2="267.55"/>
    <line x1="80.00" y1="265.64" x2="80.00" y2="265.64"/>
    <line x1="80.00" y1="264.68" x2="80.00" y2="264.68"/>
    <line x1="80.00" y1="263.73" x2="80.00" y2="263.73"/>
    <line x1="80.00" y1="262.77" x2="80.00" y2="262.77"/>
    <line x1="80.00" y1="260.86" x2="80.00" y2="260.86"/>
    <line x1="80.00" y1="259.91" x2="80.00" y2="259.91"/>
    <line x1="80.00" y1="258.96" x2="80.00" y2="258.96"/>
    <line x1="80.00" y1="258.00" x2="80.00" y2="258.00"/>
    <line x1="80.00" y1="256.09" x2="80.00" y2="256.09"/>
    <line x1="80.00" y1="255.14" x2="80.00" y2="255.14"/>
    <line x1="80.00" y1="254.18" x2="80.00" y2="254.18"/>
    <line x1="80.00" y1="253.23" x2="80.00" y2="253.23"/>
    <line x1="80.00" y1="251.32" x2="80.00" y2="251.32"/>
    <line x1="80.00" y1="250.36" x2="80.00" y2="250.36"/>
    <line x1="80.00" y1="249.41" x2="80.00" y2="249.41"/>
    <line x1="80.00" y1="248.46" x2="80.00" y2="248.46"/>
    <line x1="80.00" y1="246.55" x2="80.00" y2="246.55"/>
    <line x1="80.00" y1="245.59" x2="80.00" y2="245.59"/>
    <line x1="80.00" y1="244.64" x2="80.00" y2="244.64"/>
    <line x1="80.00" y1="243.68" x2="80.00" y2="243.68"/>
    <line x1="80.00" y1="241.77" x2="80.00" y2="241.77"/>
    <line x1="80.00" y1="240.82" x2="80.00" y2="240.82"/>
    <line x1="80.00" y1="239.86" x2="80.00" y2="239.86"/>
    <line x1="80.00" y1="238.91" x2="80.00" y2="238.91"/>
    <line x1="80.00" y1="237.00" x2="80.00" y2="237.00"/>
    <line x1="80.00" y1="236.05" x2="80.00" y2="236.05"/>
    <line x1="80.00" y1="235.09" x2="80.00" y2="235.09"/>
    <line x1="80.00" y1="234.14" x2="80.00" y2="234.14"/>
    <line x1="80.00" y1="232.23" x2="80.00" y2="232.23"/>
    <line x1="80.00" y1="231.27" x2="80.00" y2="231.27"/>
    <line x1="80.00" y1="230.32" x2="80.00" y2="230.32"/>
    <line x1="80.00" y1="229.36" x2="80.00" y2="229.36"/>
    <line x1="80.00" y1="227.46" x2="80.00" y2="227.46"/>
    <line x1="80.00" y1="226.50" x2="80.00" y2="226.50"/>
    <line x1="80.00" y1="225.55" x2="80.00" y2="225.55"/>
    <line x1="80.00" y1="224.59" x2="80.00" y2="224.59"/>
    <line x1="80.00" y1="222.68" x2="80.00" y2="222.68"/>
    <line x1="80.00" y1="221.73" x2="80.00" y2="221.73"/>
    <line x1="80.00" y1="220.77" x2="80.00" y2="220.77"/>
    <line x1="80.00" y1="219.82" x2="80.00" y2="219.82"/>
    <line x1="80.00" y1="217.91" x2="80.00" y2="217.91"/>
    <line x1="80.00" y1="216.96" x2="80.00" y2="216.96"/>
    <line x1="80.00" y1="216.00" x2="80.00" y2="216.00"/>
    <line x1="80.00" y1="215.05" x2="80.00" y2="215.05"/>
    <line x1="80.00" y1="213.14" x2="80.00" y2="213.14"/>
    <line x1="80.00" y1="212.18" x2="80.00" y2="212.18"/>
    <line x1="80.00" y1="211.23" x2="80.00" y2="211.23"/>
    <line x1="80.00" y1="210.27" x2="80.00" y2="210.27"/>
    <line x1="80.00" y1="208.36" x2="80.00" y2="208.36"/>
    <line x1="80.00" y1="207.41" x2="80.00" y2="207.41"/>
    <line x1="80.00" y1="206.46" x2="80.00" y2="206.46"/>
    <line x1="80.00" y1="205.50" x2="80.00" y2="205.50"/>
    <line x1="80.00" y1="203.59" x2="80.00" y2="203.59"/>
    <line x1="80.00" y1="202.64" x2="80.00" y2="202.64"/>
    <line x1="80.00" y1="201.68" x2="80.00" y2="201.68"/>
    <line x1="80.00" y1="200.73" x2="80.00" y2="200.73"/>
    <line x1="80.00" y1="198.82" x2="80.00" y2="198.82"/>
    <line x1="80.00" y1="197.86" x2="80.00" y2="197.86"/>
    <line x1="80.00" y1="196.91" x2="80.00" y2="196.91"/>
    <line x1="80.00" y1="195.96" x2="80.00" y2="195.96"/>
    <line x1="80.00" y1="194.05" x2="80.00" y2="194.05"/>
    <line x1="80.00" y1="193.09" x2="80.00" y2="193.09"/>
    <line x1="80.00" y1="192.14" x2="80.00" y2="192.14"/>
    <line x1="80.00" y1="191.18" x2="80.00" y2="191.18"/>
    <line x1="80.00" y1="189.27" x2="80.00" y2="189.27"/>
    <line x1="80.00" y1="188.32" x2="80.00" y2="188.32"/>
    <line x1="80.00" y1="187.37" x2="80.00" y2="187.37"/>
    <line x1="80.00" y1="186.41" x2="80.00" y2="186.41"/>
    <line x1="80.00" y1="184.50" x2="80.00" y2="184.50"/>
    <line x1="80.00" y1="183.55" x2="80.00" y2="183.55"/>
    <line x1="80.00" y1="182.59" x2="80.00" y2="182.59"/>
    <line x1="80.00" y1="181.64" x2="80.00" y2="181.64"/>
    <line x1="80.00" y1="179.73" x2="80.00" y2="179.73"/>
    <line x1="80.00" y1="178.77" x2="80.00" y2="178.77"/>
    <line x1="80.00" y1="177.82" x2="80.00" y2="177.82"/>
    <line x1="80.00" y1="176.87" x2="80.00" y2="176.87"/>
    <line x1="80.00" y1="174.96" x2="80.00" y2="174.96"/>
    <line x1="80.00" y1="174.00" x2="80.00" y2="174.00"/>
    <line x1="80.00" y1="173.05" x2="80.00" y2="173.05"/>
    <line x1="80.00" y1="172.09" x2="80.00" y2="172.09"/>
    <line x1="80.00" y1="170.18" x2="80.00" y2="170.18"/>
    <line x1="80.00" y1="169.23" x2="80.00" y2="169.23"/>
    <line x1="80.00" y1="168.27" x2="80.00" y2="168.27"/>
    <line x1="80.00" y1="167.32" x2="80.00" y2="167.32"/>
    <line x1="80.00" y1="165.41" x2="80.00" y2="165.41"/>
    <line x1="80.00" y1="164.46" x2="80.00" y2="164.46"/>
    <line x1="80.00" y1="163.50" x2="80.00" y2="163.50"/>
    <line x1="80.00" y1="162.55" x2="80.00" y2="162.55"/>
    <line x1="80.00" y1="160.64" x2="80.00" y2="160.64"/>
    <line x1="80.00" y1="159.68" x2="80.00" y2="159.68"/>
    <line x1="80.00" y1="158.73" x2="80.00" y2="158.73"/>
    <line x1="80.00" y1="157.77" x2="80.00" y2="157.77"/>
    <line x1="80.00" y1="155.87" x2="80.00" y2="155.87"/>
    <line x1="80.00" y1="154.91" x2="80.00" y2="154.91"/>
    <line x1="80.00" y1="153.96" x2="80.00" y2="153.96"/>
    <line x1="80.00" y1="153.00" x2="80.00" y2="153.00"/>
    <line x1="80.00" y1="151.09" x2="80.00" y2="151.09"/>
    <line x1="80.00" y1="150.14" x2="80.00" y2="150.14"/>
    <line x1="80.00" y1="149.18" x2="80.00" y2="149.18"/>
    <line x1="80.00" y1="148.23" x2="80.00" y2="148.23"/>
    <line x1="80.00" y1="146.32" x2="80.00" y2="146.32"/>
    <line x1="80.00" y1="145.37" x2="80.00" y2="145.37"/>
    <line x1="80.00" y1="144.41" x2="80.00" y2="144.41"/>
    <line x1="80.00" y1="143.46" x2="80.00" y2="143.46"/>
    <line x1="80.00" y1="141.55" x2="80.00" y2="141.55"/>
    <line x1="80.00" y1="140.59" x2="80.00" y2="140.59"/>
    <line x1="80.00" y1="139.64" x2="80.00" y2="139.64"/>
    <line x1="80.00" y1="138.68" x2="80.00" y2="138.68"/>
    <line x1="80.00" y1="136.77" x2="80.00" y2="136.77"/>
    <line x1="80.00" y1="135.82" x2="80.00" y2="135.82"/>
    <line x1="80.00" y1="134.87" x2="80.00" y2="134.87"/>
    <line x1="80.00" y1="133.91" x2="80.00" y2="133.91"/>
    <line x1="80.00" y1="132.00" x2="80.00" y2="132.00"/>
    <line x1="80.00" y1="131.05" x2="80.00" y2="131.05"/>
    <line x1="80.00" y1="130.09" x2="80.00" y2="130.09"/>
    <line x1="80.00" y1="129.14" x2="80.00" y2="129.14"/>
    <line x1="80.00" y1="127.23" x2="80.00" y2="127.23"/>
    <line x1="80.00" y1="126.27" x2="80.00" y2="126.27"/>
    <line x1="80.00" y1="125.32" x2="80.00" y2="125.32"/>
    <line x1="80.00" y1="124.37" x2="80.00" y2="124.37"/>
    <line x1="80.00" y1="122.46" x2="80.00" y2="122.46"/>
    <line x1="80.00" y1="121.50" x2="80.00" y2="121.50"/>
    <line x1="80.00" y1="120.55" x2="80.00" y2="120.55"/>
    <line x1="80.00" y1="119.59" x2="80.00" y2="119.59"/>
    <line x1="80.00" y1="117.68" x2="80.00" y2="117.68"/>
    <line x1="80.00" y1="116.73" x2="80.00" y2="116.73"/>
    <line x1="80.00" y1="115.77" x2="80.00" y2="115.77"/>
    <line x1="80.00" y1="114.82" x2="80.00" y2="114.82"/>
    <line x1="80.00" y1="112.91" x2="80.00" y2="112.91"/>
    <line x1="80.00" y1="111.96" x2="80.00" y2="111.96"/>
    <line x1="80.00" y1="111.00" x2="80.00" y2="111.00"/>
    <line x1="80.00" y1="110.05" x2="80.00" y2="110.05"/>
    <line x1="80.00" y1="108.14" x2="80.00" y2="108.14"/>
    <line x1="80.00" y1="107.18" x2="80.00" y2="107.18"/>
    <line x1="80.00" y1="106.23" x2="80.00" y2="106.23"/>
    <line x1="80.00" y1="105.28" x2="80.00" y2="105.28"/>
    <line x1="80.00" y1="103.37" x2="80.00" y2="103.37"/>
    <line x1="80.00" y1="102.41" x2="80.00" y2="102.41"/>
    <line x1="80.00" y1="101.46" x2="80.00" y2="101.46"/>
    <line x1="80.00" y1="100.50" x2="80.00" y2="100.50"/>
    <line x1="80.00" y1="98.59" x2="80.00" y2="98.59"/>
    <line x1="80.00" y1="97.64" x2="80.00" y2="97.64"/>
    <line x1="80.00" y1="96.68" x2="80.00" y2="96.68"/>
    <line x1="80.00" y1="95.73" x2="80.00" y2="95.73"/>
    <line x1="80.00" y1="93.82" x2="80.00" y2="93.82"/>
    <line x1="80.00" y1="92.87" x2="80.00" y2="92.87"/>
    <line x1="80.00" y1="91.91" x2="80.00" y2="91.91"/>
    <line x1="80.00" y1="90.96" x2="80.00" y2="90.96"/>
    <line x1="80.00" y1="89.05" x2="80.00" y2="89.05"/>
    <line x1="80.00" y1="88.09" x2="80.00" y2="88.09"/>
    <line x1="80.00" y1="87.14" x2="80.00" y2="87.14"/>
    <line x1="80.00" y1="86.18" x2="80.00" y2="86.18"/>
    <line x1="80.00" y1="84.28" x2="80.00" y2="84.28"/>
    <line x1="80.00" y1="83.32" x2="80.00" y2="83.32"/>
    <line x1="80.00" y1="82.37" x2="80.00" y2="82.37"/>
    <line x1="80.00" y1="81.41" x2="80.00" y2="81.41"/>
    <line x1="80.00" y1="79.50" x2="80.00" y2="79.50"/>
    <line x1="80.00" y1="78.55" x2="80.00" y2="78.55"/>
    <line x1="80.00" y1="77.59" x2="80.00" y2="77.59"/>
    <line x1="80.00" y1="76.64" x2="80.00" y2="76.64"/>
    <line x1="80.00" y1="74.73" x2="80.00" y2="74.73"/>
    <line x1="80.00" y1="73.78" x2="80.00" y2="73.78"/>
    <line x1="80.00" y1="72.82" x2="80.00" y2="72.82"/>
    <line x1="80.00" y1="71.87" x2="80.00" y2="71.87"/>
    <line x1="80.00" y1="69.96" x2="80.00" y2="69.96"/>
    <line x1="80.00" y1="69.00" x2="80.00" y2="69.00"/>
    <line x1="80.00" y1="68.05" x2="80.00" y2="68.05"/>
    <line x1="80.00" y1="67.09" x2="80.00" y2="67.09"/>
    <line x1="80.00" y1="65.18" x2="80.00" y2="65.18"/>
    <line x1="80.00" y1="64.23" x2="80.00" y2="64.23"/>
    <line x1="80.00" y1="63.28" x2="80.00" y2="63.28"/>
    <line x1="80.00" y1="62.32" x2="80.00" y2="62.32"/>
    <line x1="80.00" y1="60.41" x2="80.00" y2="60.41"/>
  </g>
  <g stroke="#808080" stroke-width="2">
    <line x1="-560.00" y1="540.00" x2="-560.00" y2="60.00"/>
  </g>
  <polyline fill="none" stroke="#0066cc" stroke-width="2" points="80.00,300.00 80.00,299.62 80.00,299.23 80.00,298.84 80.00,298.43 80.00,298.00 80.00,297.53 80.00,297.03 80.00,296.47 80.00,295.85 80.00,295.13 80.00,294.29 80.00,293.26 80.00,291.98 80.00,290.30 80.00,287.97 80.00,284.48 80.00,278.53 80.00,265.93 80.00,220.08 80.00,540.00 80.00,347.85 80.00,326.38 80.00,318.05 80.00,313.58 80.00,310.76 80.00,308.80 80.00,307.34 80.00,306.20 80.00,305.27 80.00,304.50 80.00,303.83 80.00,303.24 80.00,302.71 80.00,302.23 80.00,301.79 80.00,301.36 80.00,300.96 80.00,300.57 80.00,300.19 80.00,299.81 80.00,299.43 80.00,299.04 80.00,298.64 80.00,298.21 80.00,297.77 80.00,297.29 80.00,296.76 80.00,296.17 80.00,295.50 80.00,294.73 80.00,293.80 80.00,292.66 80.00,291.20 80.00,289.24 80.00,286.42 80.00,281.95 80.00,273.62 80.00,252.15 80.00,60.00 80.00,379.92 80.00,334.07 80.00,321.47 80.00,315.52 80.00,312.03 80.00,309.70 80.00,308.02 80.00,306.74 80.00,305.71 80.00,304.87 80.00,304.15 80.00,303.53 80.00,302.97 80.00,302.47 80.00,302.00 80.00,301.57 80.00,301.16 80.00,300.77 80.00,300.38 80.00,300.00 "/>
</svg>
