<?xml version="1.0" encoding="UTF-8"?>
<svg xmlns="http://www.w3.org/2000/svg" width="800" height="600">
  <title>R=1/t:1/4,3:</title>
  <rect width="800" height="600" fill="#ffffff"/>
  <g stroke="#d0d0d0" stroke-width="1">
    <line x1="-263.59" y1="540.00" x2="-263.59" y2="60.00"/>
    <line x1="254.00" y1="540.00" x2="254.00" y2="60.00"/>
    <line x1="771.60" y1="540.00" x2="771.60" y2="60.00"/>
    <line x1="80.00" y1="876.22" x2="720.00" y2="876.22"/>
    <line x1="80.00" y1="446.70" x2="720.00" y2="446.70"/>
    <line x1="80.00" y1="17.18" x2="720.00" y2="17.18"/>
  </g>
  <g stroke="#e8e8e8" stroke-width="0.5">
    <line x1="150.48" y1="540.00" x2="150.48" y2="60.00"/>
    <line x1="357.52" y1="540.00" x2="357.52" y2="60.00"/>
    <line x1="461.04" y1="540.00" x2="461.04" y2="60.00"/>
    <line x1="564.56" y1="540.00" x2="564.56" y2="60.00"/>
    <line x1="668.08" y1="540.00" x2="668.08" y2="60.00"/>
    <line x1="80.00" y1="532.60" x2="720.00" y2="532.60"/>
    <line x1="80.00" y1="360.80" x2="720.00" y2="360.80"/>
    <line x1="80.00" y1="274.89" x2="720.00" y2="274.89"/>
    <line x1="80.00" y1="188.99" x2="720.00" y2="188.99"/>
    <line x1="80.00" y1="103.09" x2="720.00" y2="103.09"/>
  </g>
  <g stroke="#808080" stroke-width="2">
    <line x1="254.00" y1="540.00" x2="254.00" y2="60.00"/>
    <line x1="80.00" y1="446.70" x2="720.00" y2="446.70"/>
  </g>
  <polyline fill="none" stroke="#0066cc" stroke-width="2" points="720.00,60.00 615.96,72.24 530.72,85.81 459.25,100.60 398.33,116.50 345.83,133.42 300.28,151.23 260.64,169.81 226.14,189.03 196.23,208.77 170.44,228.88 148.44,249.24 129.92,269.72 114.65,290.17 102.41,310.48 93.00,330.51 86.24,350.14 81.96,369.25 80.00,387.73 80.19,405.48 82.36,422.40 86.35,438.39 92.01,453.39 99.16,467.31 107.65,480.11 117.30,491.72 127.96,502.11 139.45,511.25 151.62,519.12 164.30,525.71 177.35,531.03 190.60,535.09 203.92,537.92 217.16,539.54 230.18,540.00 242.86,539.35 255.09,537.65 266.75,534.96 277.75,531.36 287.99,526.93 297.40,521.75 305.91,515.90 313.47,509.49 320.03,502.59 325.56,495.31 330.04,487.73 333.46,479.97 335.82,472.09 337.14,464.21 337.43,456.40 336.73,448.75 335.09,441.34 332.55,434.24 329.17,427.52 325.02,421.25 320.17,415.48 314.69,410.26 308.67,405.63 302.19,401.63 295.34,398.28 288.21,395.59 280.88,393.59 273.45,392.27 266.00,391.63 258.62,391.66 251.39,392.33 244.39,393.63 237.69,395.51 231.36,397.95 225.47,400.90 220.06,404.32 215.19,408.15 210.90,412.33 207.23,416.82 204.20,421.54 201.83,426.45 200.14,431.49 199.12,436.58 198.77,441.67 199.08,446.70 "/>
</svg>
